G04 #@! TF.GenerationSoftware,KiCad,Pcbnew,(5.0.0-3-g5ebb6b6)*
G04 #@! TF.CreationDate,2019-05-19T23:28:31+02:00*
G04 #@! TF.ProjectId,Audio Board,417564696F20426F6172642E6B696361,rev?*
G04 #@! TF.SameCoordinates,Original*
G04 #@! TF.FileFunction,Copper,L2,Inr,Signal*
G04 #@! TF.FilePolarity,Positive*
%FSLAX46Y46*%
G04 Gerber Fmt 4.6, Leading zero omitted, Abs format (unit mm)*
G04 Created by KiCad (PCBNEW (5.0.0-3-g5ebb6b6)) date Sunday, 19 May 2019 at 23:28:31*
%MOMM*%
%LPD*%
G01*
G04 APERTURE LIST*
G04 #@! TA.AperFunction,ViaPad*
%ADD10R,1.700000X1.700000*%
G04 #@! TD*
G04 #@! TA.AperFunction,ViaPad*
%ADD11O,1.700000X1.700000*%
G04 #@! TD*
G04 #@! TA.AperFunction,ViaPad*
%ADD12O,1.200000X1.800000*%
G04 #@! TD*
G04 #@! TA.AperFunction,ViaPad*
%ADD13R,1.200000X1.800000*%
G04 #@! TD*
G04 #@! TA.AperFunction,ViaPad*
%ADD14R,1.800000X1.200000*%
G04 #@! TD*
G04 #@! TA.AperFunction,ViaPad*
%ADD15O,1.800000X1.200000*%
G04 #@! TD*
G04 #@! TA.AperFunction,ViaPad*
%ADD16C,0.500000*%
G04 #@! TD*
G04 #@! TA.AperFunction,ViaPad*
%ADD17C,0.800000*%
G04 #@! TD*
G04 #@! TA.AperFunction,Conductor*
%ADD18C,0.700000*%
G04 #@! TD*
G04 #@! TA.AperFunction,Conductor*
%ADD19C,0.200000*%
G04 #@! TD*
G04 #@! TA.AperFunction,Conductor*
%ADD20C,0.400000*%
G04 #@! TD*
G04 #@! TA.AperFunction,Conductor*
%ADD21C,0.800000*%
G04 #@! TD*
G04 #@! TA.AperFunction,Conductor*
%ADD22C,0.250000*%
G04 #@! TD*
G04 #@! TA.AperFunction,Conductor*
%ADD23C,0.300000*%
G04 #@! TD*
G04 APERTURE END LIST*
D10*
G04 #@! TO.N,+3V3*
G04 #@! TO.C,J6*
X94996000Y-62230000D03*
D11*
G04 #@! TO.N,+5V_J4*
X94996000Y-59690000D03*
G04 #@! TO.N,H_SDA*
X97536000Y-62230000D03*
G04 #@! TO.N,+5V_J4*
X97536000Y-59690000D03*
G04 #@! TO.N,H_SCL*
X100076000Y-62230000D03*
G04 #@! TO.N,GNDA*
X100076000Y-59690000D03*
G04 #@! TO.N,Net-(J1-Pad13)*
X102616000Y-62230000D03*
G04 #@! TO.N,Net-(J6-Pad8)*
X102616000Y-59690000D03*
G04 #@! TO.N,GNDA*
X105156000Y-62230000D03*
G04 #@! TO.N,Net-(J6-Pad10)*
X105156000Y-59690000D03*
G04 #@! TO.N,Net-(J1-Pad11)*
X107696000Y-62230000D03*
G04 #@! TO.N,HEADER_I2S_BCK*
X107696000Y-59690000D03*
G04 #@! TO.N,Net-(J1-Pad10)*
X110236000Y-62230000D03*
G04 #@! TO.N,GNDA*
X110236000Y-59690000D03*
G04 #@! TO.N,Net-(J1-Pad9)*
X112776000Y-62230000D03*
G04 #@! TO.N,Net-(J6-Pad16)*
X112776000Y-59690000D03*
G04 #@! TO.N,+3V3*
X115316000Y-62230000D03*
G04 #@! TO.N,Net-(J6-Pad18)*
X115316000Y-59690000D03*
G04 #@! TO.N,Net-(J1-Pad7)*
X117856000Y-62230000D03*
G04 #@! TO.N,GNDA*
X117856000Y-59690000D03*
G04 #@! TO.N,Net-(J1-Pad6)*
X120396000Y-62230000D03*
G04 #@! TO.N,Net-(J6-Pad22)*
X120396000Y-59690000D03*
G04 #@! TO.N,Net-(J1-Pad5)*
X122936000Y-62230000D03*
G04 #@! TO.N,Net-(J6-Pad24)*
X122936000Y-59690000D03*
G04 #@! TO.N,GNDA*
X125476000Y-62230000D03*
G04 #@! TO.N,Net-(J6-Pad26)*
X125476000Y-59690000D03*
G04 #@! TO.N,N/C*
X128016000Y-62230000D03*
X128016000Y-59690000D03*
X130556000Y-62230000D03*
G04 #@! TO.N,GNDA*
X130556000Y-59690000D03*
G04 #@! TO.N,Net-(J1-Pad3)*
X133096000Y-62230000D03*
G04 #@! TO.N,HEADER_FAULT*
X133096000Y-59690000D03*
G04 #@! TO.N,Net-(J1-Pad2)*
X135636000Y-62230000D03*
G04 #@! TO.N,GNDA*
X135636000Y-59690000D03*
G04 #@! TO.N,HEADER_I2S_LRCK*
X138176000Y-62230000D03*
G04 #@! TO.N,HEADER_RESET*
X138176000Y-59690000D03*
G04 #@! TO.N,Net-(J6-Pad37)*
X140716000Y-62230000D03*
G04 #@! TO.N,HEADER_PDN*
X140716000Y-59690000D03*
G04 #@! TO.N,GNDA*
X143256000Y-62230000D03*
G04 #@! TO.N,HEADER_I2S_DOUT*
X143256000Y-59690000D03*
G04 #@! TD*
G04 #@! TO.N,H_SDA*
G04 #@! TO.C,J1*
X148082000Y-102870000D03*
G04 #@! TO.N,H_SCL*
X148082000Y-100330000D03*
G04 #@! TO.N,Net-(J1-Pad13)*
X148082000Y-97790000D03*
G04 #@! TO.N,GNDA*
X148082000Y-95250000D03*
G04 #@! TO.N,Net-(J1-Pad11)*
X148082000Y-92710000D03*
G04 #@! TO.N,Net-(J1-Pad10)*
X148082000Y-90170000D03*
G04 #@! TO.N,Net-(J1-Pad9)*
X148082000Y-87630000D03*
G04 #@! TO.N,+3V3*
X148082000Y-85090000D03*
G04 #@! TO.N,Net-(J1-Pad7)*
X148082000Y-82550000D03*
G04 #@! TO.N,Net-(J1-Pad6)*
X148082000Y-80010000D03*
G04 #@! TO.N,Net-(J1-Pad5)*
X148082000Y-77470000D03*
G04 #@! TO.N,GNDA*
X148082000Y-74930000D03*
G04 #@! TO.N,Net-(J1-Pad3)*
X148082000Y-72390000D03*
G04 #@! TO.N,Net-(J1-Pad2)*
X148082000Y-69850000D03*
D10*
G04 #@! TO.N,GNDA*
X148082000Y-67310000D03*
G04 #@! TD*
G04 #@! TO.N,+5V_J4*
G04 #@! TO.C,J4*
X138684000Y-109220000D03*
D11*
G04 #@! TO.N,+5V*
X138684000Y-106680000D03*
G04 #@! TO.N,Net-(J4-Pad3)*
X138684000Y-104140000D03*
G04 #@! TD*
D10*
G04 #@! TO.N,Net-(J6-Pad8)*
G04 #@! TO.C,J7*
X90170000Y-67310000D03*
D11*
G04 #@! TO.N,Net-(J6-Pad10)*
X90170000Y-69850000D03*
G04 #@! TO.N,GNDA*
X90170000Y-72390000D03*
G04 #@! TO.N,Net-(J6-Pad16)*
X90170000Y-74930000D03*
G04 #@! TO.N,Net-(J6-Pad18)*
X90170000Y-77470000D03*
G04 #@! TO.N,GNDA*
X90170000Y-80010000D03*
G04 #@! TO.N,Net-(J6-Pad22)*
X90170000Y-82550000D03*
G04 #@! TO.N,Net-(J6-Pad24)*
X90170000Y-85090000D03*
G04 #@! TO.N,Net-(J6-Pad26)*
X90170000Y-87630000D03*
G04 #@! TO.N,GNDA*
X90170000Y-90170000D03*
X90170000Y-92710000D03*
G04 #@! TO.N,HEADER_PDN*
X90170000Y-95250000D03*
G04 #@! TO.N,+3V3*
X90170000Y-97790000D03*
X90170000Y-100330000D03*
G04 #@! TO.N,+5V_J4*
X90170000Y-102870000D03*
G04 #@! TD*
D12*
G04 #@! TO.N,Net-(C4-Pad2)*
G04 #@! TO.C,J2*
X113550000Y-107900000D03*
D13*
G04 #@! TO.N,SPLIT_CAP_B*
X111550000Y-107900000D03*
G04 #@! TD*
D12*
G04 #@! TO.N,Net-(C2-Pad1)*
G04 #@! TO.C,J3*
X99250000Y-107900000D03*
D13*
G04 #@! TO.N,SPLIT_CAP_A*
X97250000Y-107900000D03*
G04 #@! TD*
D14*
G04 #@! TO.N,Net-(J4-Pad3)*
G04 #@! TO.C,J5*
X143200000Y-106500000D03*
D15*
G04 #@! TO.N,GNDA*
X143200000Y-108500000D03*
G04 #@! TD*
D13*
G04 #@! TO.N,Net-(C10-Pad2)*
G04 #@! TO.C,J8*
X104400000Y-107900000D03*
D12*
G04 #@! TO.N,Net-(C10-Pad1)*
X106400000Y-107900000D03*
G04 #@! TD*
D16*
G04 #@! TO.N,GNDA*
X116840000Y-110744000D03*
X115316000Y-110744000D03*
X118364000Y-110744000D03*
X119888000Y-110744000D03*
X121412000Y-110744000D03*
X122936000Y-110744000D03*
X124460000Y-110744000D03*
X125984000Y-110744000D03*
X127508000Y-110744000D03*
X113792000Y-110744000D03*
X112268000Y-110744000D03*
X110744000Y-110744000D03*
X109220000Y-110744000D03*
X107696000Y-110744000D03*
X105905300Y-110744000D03*
X104381300Y-110744000D03*
X102857300Y-110744000D03*
X101333300Y-110744000D03*
X99809300Y-110744000D03*
X98285300Y-110744000D03*
X96761300Y-110744000D03*
X95745300Y-109728000D03*
X94729300Y-108712000D03*
X93713300Y-107696000D03*
X93205300Y-106172000D03*
X93205300Y-104648000D03*
X93205300Y-103124000D03*
X93205300Y-101600000D03*
X93205300Y-100076000D03*
X93205300Y-98552000D03*
X93205300Y-97028000D03*
X93205300Y-93980000D03*
X93205300Y-92456000D03*
X93205300Y-90932000D03*
X93205300Y-89408000D03*
X93205300Y-87884000D03*
X93205300Y-86360000D03*
X93205300Y-84836000D03*
X93205300Y-80772000D03*
X93205300Y-74676000D03*
X93205300Y-73152000D03*
X93205300Y-71628000D03*
X93205300Y-68580000D03*
X93205300Y-65532000D03*
X95237300Y-65024000D03*
X96761300Y-65024000D03*
X103873300Y-79248000D03*
X98285300Y-80264000D03*
X100317300Y-80264000D03*
X125717300Y-71628000D03*
X125717300Y-72644000D03*
X128257300Y-71120000D03*
X128257300Y-72644000D03*
X130289300Y-90932000D03*
X127749300Y-91948000D03*
X127749300Y-93472000D03*
X127749300Y-94996000D03*
X129273300Y-105156000D03*
X129273300Y-103124000D03*
X129273300Y-101092000D03*
X129273300Y-96520000D03*
X129273300Y-94488000D03*
X129273300Y-92456000D03*
X132321300Y-110236000D03*
X134112000Y-110236000D03*
X135877300Y-110236000D03*
X103873300Y-86868000D03*
X108953300Y-86868000D03*
X111493300Y-86868000D03*
X116573300Y-86868000D03*
X121145300Y-87376000D03*
X126733300Y-87376000D03*
X99301300Y-89916000D03*
X145021300Y-72136000D03*
X145021300Y-77724000D03*
X141465300Y-70104000D03*
X136385300Y-70104000D03*
X145021300Y-79248000D03*
X145021300Y-73660000D03*
X124460000Y-73600000D03*
X124841000Y-74676000D03*
X127254000Y-75184000D03*
X127254000Y-72898000D03*
X113157000Y-76200000D03*
X115316000Y-73914000D03*
X115316000Y-74930000D03*
X113157000Y-74041000D03*
X113157000Y-72898000D03*
X113157000Y-71755000D03*
X113157000Y-75184000D03*
X124460000Y-71882000D03*
X124460000Y-72700000D03*
X127254000Y-71755000D03*
X127254000Y-76200000D03*
X122682000Y-74422000D03*
X121666000Y-74422000D03*
X120650000Y-74422000D03*
X119634000Y-74422000D03*
X118618000Y-74422000D03*
X117602000Y-74422000D03*
X122682000Y-73279000D03*
X121666000Y-73279000D03*
X120650000Y-73279000D03*
X119634000Y-73279000D03*
X118618000Y-73279000D03*
X117602000Y-73279000D03*
X122682000Y-72136000D03*
X121666000Y-72136000D03*
X120650000Y-72136000D03*
X119634000Y-72136000D03*
X118618000Y-72136000D03*
X117602000Y-72136000D03*
X121285000Y-80391000D03*
D17*
X100076000Y-92329000D03*
X96139000Y-93726000D03*
X121412000Y-106934000D03*
X109855000Y-96647000D03*
X143383000Y-75819000D03*
X127889000Y-65786000D03*
D16*
X115293192Y-72870897D03*
X109220000Y-71247000D03*
D17*
X133477000Y-100330000D03*
X132207000Y-108712000D03*
X94615000Y-104013000D03*
X114300000Y-104267000D03*
X144399000Y-102743000D03*
X131191000Y-89408000D03*
X126111000Y-84963000D03*
X133985000Y-80899000D03*
X130556000Y-84709000D03*
D16*
X120904000Y-67818000D03*
X122936000Y-67818000D03*
X127254000Y-70866000D03*
X107086594Y-71526594D03*
D17*
X119252996Y-64516000D03*
D16*
X113157000Y-70739011D03*
D17*
X117856000Y-94742000D03*
X130937000Y-73025000D03*
X143510000Y-71373992D03*
X101091998Y-67564002D03*
D16*
X93218000Y-76835000D03*
D17*
X144145000Y-93218000D03*
X119126000Y-92964000D03*
D16*
X116967000Y-80391000D03*
X115189000Y-71247000D03*
D17*
X146558000Y-105537000D03*
X139433300Y-81876900D03*
D16*
X125991916Y-75445916D03*
D17*
X139065000Y-67474010D03*
G04 #@! TO.N,+5V*
X137795000Y-98171000D03*
X135001000Y-94996000D03*
X135890000Y-81788000D03*
D16*
G04 #@! TO.N,+3V3*
X136248669Y-67414669D03*
D17*
X129413000Y-65769995D03*
X134874000Y-68834000D03*
G04 #@! TO.N,+12VA*
X116701000Y-79375000D03*
X138430000Y-78359000D03*
X124460000Y-99187000D03*
X105283000Y-99441000D03*
X118449754Y-66753531D03*
X100984555Y-77760990D03*
X143916400Y-84340700D03*
G04 #@! TO.N,Net-(D1-Pad2)*
X134620000Y-91694000D03*
X133477000Y-101346000D03*
X132334000Y-97536000D03*
D16*
G04 #@! TO.N,Net-(J1-Pad13)*
X96266000Y-68580000D03*
X96012000Y-73279000D03*
G04 #@! TO.N,Net-(J1-Pad6)*
X130302000Y-64269995D03*
X132064531Y-69723000D03*
G04 #@! TO.N,Net-(J1-Pad5)*
X131699000Y-70485000D03*
G04 #@! TO.N,Net-(J1-Pad3)*
X136353160Y-65698835D03*
G04 #@! TO.N,Net-(J1-Pad2)*
X137287000Y-65658998D03*
G04 #@! TO.N,Net-(J6-Pad37)*
X140208000Y-64269995D03*
G04 #@! TO.N,MUTE*
X119126000Y-70866000D03*
X127635000Y-69977000D03*
X134112000Y-69596000D03*
D17*
G04 #@! TO.N,Net-(C2-Pad1)*
X105410000Y-94996000D03*
X112892234Y-94085389D03*
X111125000Y-92964000D03*
G04 #@! TO.N,Net-(C14-Pad2)*
X124460000Y-81165000D03*
X132461000Y-80899000D03*
D16*
G04 #@! TO.N,Net-(C17-Pad1)*
X129667000Y-82296000D03*
X126492000Y-80010000D03*
G04 #@! TO.N,Net-(C19-Pad1)*
X118548161Y-80007169D03*
G04 #@! TO.N,Net-(C19-Pad2)*
X119476844Y-80378076D03*
G04 #@! TO.N,Net-(C25-Pad1)*
X114427000Y-71120000D03*
G04 #@! TO.N,Net-(C26-Pad1)*
X118999000Y-67818000D03*
G04 #@! TO.N,Net-(C29-Pad1)*
X120018963Y-67811913D03*
D17*
G04 #@! TO.N,SPK_OUTB*
X111887000Y-78994000D03*
X112395000Y-82422998D03*
G04 #@! TO.N,SPK_OUTC*
X109220000Y-79121000D03*
X109728001Y-82041999D03*
G04 #@! TO.N,SPK_OUTD*
X108164481Y-79140578D03*
X107442000Y-82296000D03*
G04 #@! TO.N,SPLIT_CAP_A*
X98425000Y-99568000D03*
G04 #@! TO.N,SPLIT_CAP_B*
X117729000Y-99060000D03*
G04 #@! TO.N,+3.3VA*
X120396000Y-81788000D03*
D16*
X123813000Y-80137000D03*
D17*
X130086100Y-85813900D03*
G04 #@! TO.N,H_SDA*
X115443000Y-65023994D03*
D16*
X104929004Y-67083004D03*
X123909990Y-67818000D03*
X137265485Y-80473907D03*
G04 #@! TO.N,H_SCL*
X123317000Y-70866000D03*
X137018023Y-81481148D03*
X110363001Y-66813990D03*
X105367990Y-68453000D03*
X145186400Y-87782400D03*
X124300000Y-75500000D03*
G04 #@! TO.N,Net-(J1-Pad11)*
X96239458Y-73979238D03*
X144893002Y-111063171D03*
G04 #@! TO.N,Net-(J1-Pad10)*
X96511500Y-74624226D03*
X144145000Y-110998000D03*
G04 #@! TO.N,Net-(J1-Pad9)*
X143383000Y-110871000D03*
X96841010Y-75311000D03*
G04 #@! TO.N,HEADER_I2S_BCK*
X127429893Y-68773107D03*
X125222000Y-67818008D03*
G04 #@! TO.N,HEADER_FAULT*
X124813003Y-80137000D03*
X132639531Y-71885166D03*
G04 #@! TO.N,HEADER_RESET*
X122453073Y-70885837D03*
G04 #@! TO.N,HEADER_I2S_DOUT*
X124460000Y-70993000D03*
D17*
G04 #@! TO.N,Net-(C38-Pad1)*
X131394200Y-86271100D03*
G04 #@! TO.N,Net-(C40-Pad2)*
X143002000Y-90170000D03*
G04 #@! TD*
D18*
G04 #@! TO.N,+5V*
X137100919Y-106680000D02*
X135001000Y-104580081D01*
X135001000Y-104580081D02*
X135001000Y-94996000D01*
X138130000Y-106680000D02*
X137100919Y-106680000D01*
X138511000Y-107061000D02*
X138130000Y-106680000D01*
X138684000Y-107061000D02*
X138511000Y-107061000D01*
D19*
G04 #@! TO.N,+3V3*
X115697000Y-62230000D02*
X115316000Y-62230000D01*
X116586000Y-58547000D02*
X116586000Y-61341000D01*
X93345000Y-58166000D02*
X116205000Y-58166000D01*
X116586000Y-61341000D02*
X115697000Y-62230000D01*
X92964000Y-58547000D02*
X93345000Y-58166000D01*
X116205000Y-58166000D02*
X116586000Y-58547000D01*
X92964000Y-61595000D02*
X92964000Y-58547000D01*
X93599000Y-62230000D02*
X92964000Y-61595000D01*
X94996000Y-62230000D02*
X93599000Y-62230000D01*
D20*
X144579694Y-66621306D02*
X137042032Y-66621306D01*
X146550000Y-64750000D02*
X144579694Y-66621306D01*
X137042032Y-66621306D02*
X136248669Y-67414669D01*
X149050000Y-64750000D02*
X146550000Y-64750000D01*
X149860000Y-65532000D02*
X149050000Y-64750000D01*
X149860000Y-84328000D02*
X149860000Y-65532000D01*
X149098000Y-85090000D02*
X149860000Y-84328000D01*
X148082000Y-85090000D02*
X149098000Y-85090000D01*
D18*
G04 #@! TO.N,+12VA*
X105918000Y-100076000D02*
X105283000Y-99441000D01*
X106299000Y-100457000D02*
X105918000Y-100076000D01*
X124841000Y-100457000D02*
X106299000Y-100457000D01*
X124460000Y-100076000D02*
X124460000Y-99187000D01*
X124841000Y-100457000D02*
X124460000Y-100076000D01*
D21*
X101550240Y-77760990D02*
X100984555Y-77760990D01*
X116701000Y-79375000D02*
X115086990Y-77760990D01*
X115086990Y-77760990D02*
X101550240Y-77760990D01*
X131789530Y-72284215D02*
X131789530Y-71900544D01*
X131789530Y-71900544D02*
X126642517Y-66753531D01*
X138430000Y-78359000D02*
X137864315Y-78359000D01*
X119015439Y-66753531D02*
X118449754Y-66753531D01*
X137864315Y-78359000D02*
X131789530Y-72284215D01*
X126642517Y-66753531D02*
X119015439Y-66753531D01*
X116713000Y-79375000D02*
X116078000Y-78740000D01*
X116205000Y-78867000D02*
X116713000Y-79375000D01*
X116205000Y-68998285D02*
X116205000Y-78867000D01*
X118449754Y-66753531D02*
X116205000Y-68998285D01*
D18*
X138430000Y-78854300D02*
X138430000Y-78359000D01*
X143916400Y-84340700D02*
X138430000Y-78854300D01*
X143713200Y-84340700D02*
X143916400Y-84340700D01*
X127596900Y-100457000D02*
X143713200Y-84340700D01*
X124841000Y-100457000D02*
X127596900Y-100457000D01*
D19*
G04 #@! TO.N,Net-(J1-Pad13)*
X102616000Y-63432081D02*
X97595081Y-68453000D01*
X102616000Y-62230000D02*
X102616000Y-63432081D01*
X96393000Y-68453000D02*
X96266000Y-68580000D01*
X97595081Y-68453000D02*
X96393000Y-68453000D01*
G04 #@! TO.N,Net-(J1-Pad6)*
X132080000Y-69707531D02*
X132064531Y-69723000D01*
X132080000Y-66548000D02*
X132080000Y-69707531D01*
X130302000Y-64770000D02*
X132080000Y-66548000D01*
X130302000Y-64269995D02*
X130302000Y-64770000D01*
G04 #@! TO.N,Net-(J1-Pad5)*
X126746000Y-63754000D02*
X127635000Y-64643000D01*
X129413000Y-64643000D02*
X131445000Y-66675000D01*
X131449001Y-70235001D02*
X131699000Y-70485000D01*
X131445000Y-66675000D02*
X131445000Y-70231000D01*
X127635000Y-64643000D02*
X129413000Y-64643000D01*
X126746000Y-58674000D02*
X126746000Y-63754000D01*
X126111000Y-58039000D02*
X126746000Y-58674000D01*
X124206000Y-58674000D02*
X124841000Y-58039000D01*
X131445000Y-70231000D02*
X131449001Y-70235001D01*
X124841000Y-58039000D02*
X126111000Y-58039000D01*
X124206000Y-60323590D02*
X124206000Y-58674000D01*
X122936000Y-61593590D02*
X124206000Y-60323590D01*
X122936000Y-62230000D02*
X122936000Y-61593590D01*
G04 #@! TO.N,Net-(J1-Pad3)*
X136353160Y-65487160D02*
X136353160Y-65698835D01*
X133096000Y-62230000D02*
X136353160Y-65487160D01*
G04 #@! TO.N,Net-(J1-Pad2)*
X137287000Y-65305445D02*
X137287000Y-65658998D01*
X135636000Y-63654445D02*
X137287000Y-65305445D01*
X135636000Y-62230000D02*
X135636000Y-63654445D01*
D18*
G04 #@! TO.N,+5V_J4*
X96278700Y-111760000D02*
X136525000Y-111760000D01*
X136525000Y-111760000D02*
X138684000Y-109601000D01*
X90170000Y-105651300D02*
X96278700Y-111760000D01*
X90170000Y-102870000D02*
X90170000Y-105651300D01*
D19*
G04 #@! TO.N,Net-(J6-Pad8)*
X97282000Y-67310000D02*
X90170000Y-67310000D01*
X101346000Y-63246000D02*
X97282000Y-67310000D01*
X101346000Y-60960000D02*
X101346000Y-63246000D01*
X102616000Y-59690000D02*
X101346000Y-60960000D01*
D22*
G04 #@! TO.N,Net-(J6-Pad10)*
X91372081Y-69850000D02*
X90170000Y-69850000D01*
D19*
X97282000Y-69850000D02*
X91372081Y-69850000D01*
X103886000Y-63246000D02*
X97282000Y-69850000D01*
X103886000Y-60960000D02*
X103886000Y-63246000D01*
X105156000Y-59690000D02*
X103886000Y-60960000D01*
G04 #@! TO.N,Net-(J6-Pad22)*
X93091000Y-82550000D02*
X91372081Y-82550000D01*
X106377021Y-69263979D02*
X93091000Y-82550000D01*
X113235021Y-69263979D02*
X106377021Y-69263979D01*
X119126000Y-63373000D02*
X113235021Y-69263979D01*
X91372081Y-82550000D02*
X90170000Y-82550000D01*
X119126000Y-60960000D02*
X119126000Y-63373000D01*
X120396000Y-59690000D02*
X119126000Y-60960000D01*
G04 #@! TO.N,Net-(J6-Pad24)*
X121666000Y-64516000D02*
X120682021Y-65499979D01*
X113421421Y-69713990D02*
X106562010Y-69713990D01*
X106562010Y-69713990D02*
X92035999Y-84240001D01*
X117635430Y-65499979D02*
X113421421Y-69713990D01*
X122936000Y-59690000D02*
X121666000Y-60960000D01*
X121666000Y-60960000D02*
X121666000Y-64516000D01*
X92035999Y-84240001D02*
X91019999Y-84240001D01*
X91019999Y-84240001D02*
X90170000Y-85090000D01*
X120682021Y-65499979D02*
X117635430Y-65499979D01*
G04 #@! TO.N,Net-(J6-Pad26)*
X106746999Y-70164001D02*
X92329000Y-84582000D01*
X117821830Y-65949990D02*
X113607821Y-70164001D01*
X124206000Y-65024000D02*
X123280010Y-65949990D01*
X92329000Y-85471000D02*
X90170000Y-87630000D01*
X113607821Y-70164001D02*
X106746999Y-70164001D01*
X124206000Y-60960000D02*
X124206000Y-65024000D01*
X92329000Y-84582000D02*
X92329000Y-85471000D01*
X123280010Y-65949990D02*
X117821830Y-65949990D01*
X125476000Y-59690000D02*
X124206000Y-60960000D01*
G04 #@! TO.N,Net-(J6-Pad37)*
X140716000Y-63761995D02*
X140208000Y-64269995D01*
X140716000Y-62230000D02*
X140716000Y-63761995D01*
G04 #@! TO.N,MUTE*
X127281447Y-69977000D02*
X127635000Y-69977000D01*
X119126000Y-70866000D02*
X119761000Y-70231000D01*
X127027447Y-70231000D02*
X127281447Y-69977000D01*
X119761000Y-70231000D02*
X127027447Y-70231000D01*
D23*
G04 #@! TO.N,Net-(C17-Pad1)*
X128778000Y-82296000D02*
X126492000Y-80010000D01*
X129667000Y-82296000D02*
X128778000Y-82296000D01*
D18*
G04 #@! TO.N,+3.3VA*
X120396000Y-84709000D02*
X120396000Y-81788000D01*
X122174000Y-86487000D02*
X120396000Y-84709000D01*
X128847315Y-86487000D02*
X122174000Y-86487000D01*
X129520415Y-85813900D02*
X128847315Y-86487000D01*
X130086100Y-85813900D02*
X129520415Y-85813900D01*
D19*
G04 #@! TO.N,H_SDA*
X115443000Y-65023994D02*
X114426994Y-66040000D01*
X114426994Y-66040000D02*
X105972008Y-66040000D01*
X105179003Y-66833005D02*
X104929004Y-67083004D01*
X105972008Y-66040000D02*
X105179003Y-66833005D01*
X127919110Y-69373108D02*
X130186999Y-71640997D01*
X130186999Y-71640997D02*
X130186999Y-73395421D01*
X137015486Y-80223908D02*
X137265485Y-80473907D01*
X130186999Y-73395421D02*
X137015486Y-80223908D01*
X123909990Y-67818000D02*
X125465098Y-69373108D01*
X125465098Y-69373108D02*
X127919110Y-69373108D01*
G04 #@! TO.N,H_SCL*
X105721543Y-68453000D02*
X105367990Y-68453000D01*
X108723991Y-68453000D02*
X105721543Y-68453000D01*
X110363001Y-66813990D02*
X108723991Y-68453000D01*
X126653999Y-74895999D02*
X126653999Y-75656003D01*
X124549999Y-75749999D02*
X124300000Y-75500000D01*
X124838001Y-76038001D02*
X124549999Y-75749999D01*
X126965999Y-74583999D02*
X126653999Y-74895999D01*
X137018023Y-81481148D02*
X130120874Y-74583999D01*
X126653999Y-75656003D02*
X126272001Y-76038001D01*
X130120874Y-74583999D02*
X126965999Y-74583999D01*
X126272001Y-76038001D02*
X124838001Y-76038001D01*
G04 #@! TO.N,Net-(J1-Pad11)*
X96266000Y-74005780D02*
X96239458Y-73979238D01*
X96266000Y-74041000D02*
X96266000Y-74005780D01*
X102870000Y-67348696D02*
X96489457Y-73729239D01*
X96489457Y-73729239D02*
X96239458Y-73979238D01*
X107696000Y-62230000D02*
X102870000Y-67056000D01*
X102870000Y-67056000D02*
X102870000Y-67348696D01*
X147232001Y-93559999D02*
X148082000Y-92710000D01*
X145800000Y-94992000D02*
X147232001Y-93559999D01*
X145800000Y-110156173D02*
X145800000Y-94992000D01*
X144893002Y-111063171D02*
X145800000Y-110156173D01*
G04 #@! TO.N,Net-(J1-Pad10)*
X103320011Y-67815715D02*
X96761499Y-74374227D01*
X96511500Y-74667500D02*
X96511500Y-74624226D01*
X96520000Y-74676000D02*
X96511500Y-74667500D01*
X106046410Y-64516000D02*
X103320011Y-67242399D01*
X107950000Y-64516000D02*
X106046410Y-64516000D01*
X96761499Y-74374227D02*
X96511500Y-74624226D01*
X103320011Y-67242399D02*
X103320011Y-67815715D01*
X110236000Y-62230000D02*
X107950000Y-64516000D01*
X147447000Y-90170000D02*
X147447000Y-90297000D01*
X145161000Y-90170000D02*
X147447000Y-90170000D01*
X144145000Y-110998000D02*
X145400000Y-109743000D01*
X143002000Y-92329000D02*
X145161000Y-90170000D01*
X145400000Y-109743000D02*
X145400000Y-105050000D01*
X143002000Y-102652000D02*
X143002000Y-92329000D01*
X145400000Y-105050000D02*
X143002000Y-102652000D01*
G04 #@! TO.N,Net-(J1-Pad9)*
X106174820Y-65024000D02*
X103770022Y-67428798D01*
X112776000Y-62230000D02*
X109982000Y-65024000D01*
X103770022Y-68381988D02*
X97091009Y-75061001D01*
X109982000Y-65024000D02*
X106174820Y-65024000D01*
X97091009Y-75061001D02*
X96841010Y-75311000D01*
X103770022Y-67428798D02*
X103770022Y-68381988D01*
X145969899Y-89742101D02*
X147232001Y-88479999D01*
X144815401Y-89742101D02*
X145969899Y-89742101D01*
X147232001Y-88479999D02*
X148082000Y-87630000D01*
X142551989Y-102801989D02*
X142551989Y-92005513D01*
X142551989Y-92005513D02*
X144815401Y-89742101D01*
X144950000Y-109304000D02*
X144950000Y-105200000D01*
X144950000Y-105200000D02*
X142551989Y-102801989D01*
X143383000Y-110871000D02*
X144950000Y-109304000D01*
G04 #@! TO.N,HEADER_FAULT*
X132639531Y-66345531D02*
X132639531Y-71531613D01*
X132639531Y-71531613D02*
X132639531Y-71885166D01*
X131826000Y-65532000D02*
X132639531Y-66345531D01*
X131826000Y-60960000D02*
X131826000Y-65532000D01*
X133096000Y-59690000D02*
X131826000Y-60960000D01*
D22*
G04 #@! TO.N,HEADER_PDN*
X140716000Y-59309000D02*
X140716000Y-59690000D01*
G04 #@! TD*
M02*
