G04 #@! TF.GenerationSoftware,KiCad,Pcbnew,(5.0.0-3-g5ebb6b6)*
G04 #@! TF.CreationDate,2019-05-19T23:28:32+02:00*
G04 #@! TF.ProjectId,Audio Board,417564696F20426F6172642E6B696361,rev?*
G04 #@! TF.SameCoordinates,Original*
G04 #@! TF.FileFunction,Legend,Bot*
G04 #@! TF.FilePolarity,Positive*
%FSLAX46Y46*%
G04 Gerber Fmt 4.6, Leading zero omitted, Abs format (unit mm)*
G04 Created by KiCad (PCBNEW (5.0.0-3-g5ebb6b6)) date Sunday, 19 May 2019 at 23:28:32*
%MOMM*%
%LPD*%
G01*
G04 APERTURE LIST*
%ADD10C,0.120000*%
%ADD11C,0.150000*%
G04 APERTURE END LIST*
D10*
G04 #@! TO.C,J6*
X93666000Y-58360000D02*
X93666000Y-60960000D01*
X93666000Y-58360000D02*
X144586000Y-58360000D01*
X144586000Y-58360000D02*
X144586000Y-63560000D01*
X96266000Y-63560000D02*
X144586000Y-63560000D01*
X96266000Y-60960000D02*
X96266000Y-63560000D01*
X93666000Y-60960000D02*
X96266000Y-60960000D01*
X93666000Y-63560000D02*
X94996000Y-63560000D01*
X93666000Y-62230000D02*
X93666000Y-63560000D01*
G04 #@! TO.C,C39*
X143440564Y-101817000D02*
X142236436Y-101817000D01*
X143440564Y-99097000D02*
X142236436Y-99097000D01*
G04 #@! TO.C,C40*
X133567000Y-106102564D02*
X133567000Y-104898436D01*
X130847000Y-106102564D02*
X130847000Y-104898436D01*
G04 #@! TO.C,D1*
X131536000Y-90764000D02*
X140396000Y-90764000D01*
X140396000Y-90764000D02*
X140396000Y-96434000D01*
X140396000Y-96434000D02*
X131536000Y-96434000D01*
G04 #@! TO.C,U5*
X135578000Y-98720000D02*
X137378000Y-98720000D01*
X137378000Y-101940000D02*
X134428000Y-101940000D01*
G04 #@! TO.C,R9*
X141857000Y-95280267D02*
X141857000Y-94937733D01*
X142877000Y-95280267D02*
X142877000Y-94937733D01*
G04 #@! TO.C,R10*
X143635000Y-94965733D02*
X143635000Y-95308267D01*
X144655000Y-94965733D02*
X144655000Y-95308267D01*
G04 #@! TO.C,C22*
X123780733Y-84453000D02*
X124123267Y-84453000D01*
X123780733Y-85473000D02*
X124123267Y-85473000D01*
G04 #@! TO.C,R15*
X101809733Y-102614000D02*
X102152267Y-102614000D01*
X101809733Y-103634000D02*
X102152267Y-103634000D01*
G04 #@! TO.C,R16*
X98239733Y-103634000D02*
X98582267Y-103634000D01*
X98239733Y-102614000D02*
X98582267Y-102614000D01*
G04 #@! TO.C,R17*
X121381733Y-103888000D02*
X121724267Y-103888000D01*
X121381733Y-102868000D02*
X121724267Y-102868000D01*
G04 #@! TO.C,R18*
X117811733Y-102868000D02*
X118154267Y-102868000D01*
X117811733Y-103888000D02*
X118154267Y-103888000D01*
G04 #@! TO.C,U2*
X140213000Y-83077000D02*
X140213000Y-84337000D01*
X140213000Y-89897000D02*
X140213000Y-88637000D01*
X136453000Y-83077000D02*
X140213000Y-83077000D01*
X134203000Y-89897000D02*
X140213000Y-89897000D01*
G04 #@! TO.C,C19*
X118873748Y-85165000D02*
X119396252Y-85165000D01*
X118873748Y-83745000D02*
X119396252Y-83745000D01*
G04 #@! TO.C,C25*
X113917252Y-69798000D02*
X113394748Y-69798000D01*
X113917252Y-68378000D02*
X113394748Y-68378000D01*
G04 #@! TO.C,C23*
X123572748Y-82221000D02*
X124095252Y-82221000D01*
X123572748Y-83641000D02*
X124095252Y-83641000D01*
G04 #@! TO.C,C26*
X117632267Y-69086000D02*
X117289733Y-69086000D01*
X117632267Y-70106000D02*
X117289733Y-70106000D01*
G04 #@! TO.C,C29*
X120972733Y-69086000D02*
X121315267Y-69086000D01*
X120972733Y-70106000D02*
X121315267Y-70106000D01*
G04 #@! TO.C,C37*
X133479000Y-83154733D02*
X133479000Y-83497267D01*
X132459000Y-83154733D02*
X132459000Y-83497267D01*
G04 #@! TO.C,C38*
X131780000Y-89570500D02*
X131780000Y-85485500D01*
X131780000Y-85485500D02*
X133650000Y-85485500D01*
X133650000Y-85485500D02*
X133650000Y-89570500D01*
G04 #@! TO.C,J6*
D11*
X91802380Y-62566666D02*
X92516666Y-62566666D01*
X92659523Y-62519047D01*
X92754761Y-62423809D01*
X92802380Y-62280952D01*
X92802380Y-62185714D01*
X91802380Y-63471428D02*
X91802380Y-63280952D01*
X91850000Y-63185714D01*
X91897619Y-63138095D01*
X92040476Y-63042857D01*
X92230952Y-62995238D01*
X92611904Y-62995238D01*
X92707142Y-63042857D01*
X92754761Y-63090476D01*
X92802380Y-63185714D01*
X92802380Y-63376190D01*
X92754761Y-63471428D01*
X92707142Y-63519047D01*
X92611904Y-63566666D01*
X92373809Y-63566666D01*
X92278571Y-63519047D01*
X92230952Y-63471428D01*
X92183333Y-63376190D01*
X92183333Y-63185714D01*
X92230952Y-63090476D01*
X92278571Y-63042857D01*
X92373809Y-62995238D01*
G04 #@! TO.C,C39*
X143303557Y-98375742D02*
X143351176Y-98423361D01*
X143494033Y-98470980D01*
X143589271Y-98470980D01*
X143732128Y-98423361D01*
X143827366Y-98328123D01*
X143874985Y-98232885D01*
X143922604Y-98042409D01*
X143922604Y-97899552D01*
X143874985Y-97709076D01*
X143827366Y-97613838D01*
X143732128Y-97518600D01*
X143589271Y-97470980D01*
X143494033Y-97470980D01*
X143351176Y-97518600D01*
X143303557Y-97566219D01*
X142970223Y-97470980D02*
X142351176Y-97470980D01*
X142684509Y-97851933D01*
X142541652Y-97851933D01*
X142446414Y-97899552D01*
X142398795Y-97947171D01*
X142351176Y-98042409D01*
X142351176Y-98280504D01*
X142398795Y-98375742D01*
X142446414Y-98423361D01*
X142541652Y-98470980D01*
X142827366Y-98470980D01*
X142922604Y-98423361D01*
X142970223Y-98375742D01*
X141874985Y-98470980D02*
X141684509Y-98470980D01*
X141589271Y-98423361D01*
X141541652Y-98375742D01*
X141446414Y-98232885D01*
X141398795Y-98042409D01*
X141398795Y-97661457D01*
X141446414Y-97566219D01*
X141494033Y-97518600D01*
X141589271Y-97470980D01*
X141779747Y-97470980D01*
X141874985Y-97518600D01*
X141922604Y-97566219D01*
X141970223Y-97661457D01*
X141970223Y-97899552D01*
X141922604Y-97994790D01*
X141874985Y-98042409D01*
X141779747Y-98090028D01*
X141589271Y-98090028D01*
X141494033Y-98042409D01*
X141446414Y-97994790D01*
X141398795Y-97899552D01*
G04 #@! TO.C,C40*
X135485142Y-104640142D02*
X135532761Y-104592523D01*
X135580380Y-104449666D01*
X135580380Y-104354428D01*
X135532761Y-104211571D01*
X135437523Y-104116333D01*
X135342285Y-104068714D01*
X135151809Y-104021095D01*
X135008952Y-104021095D01*
X134818476Y-104068714D01*
X134723238Y-104116333D01*
X134628000Y-104211571D01*
X134580380Y-104354428D01*
X134580380Y-104449666D01*
X134628000Y-104592523D01*
X134675619Y-104640142D01*
X134913714Y-105497285D02*
X135580380Y-105497285D01*
X134532761Y-105259190D02*
X135247047Y-105021095D01*
X135247047Y-105640142D01*
X134580380Y-106211571D02*
X134580380Y-106306809D01*
X134628000Y-106402047D01*
X134675619Y-106449666D01*
X134770857Y-106497285D01*
X134961333Y-106544904D01*
X135199428Y-106544904D01*
X135389904Y-106497285D01*
X135485142Y-106449666D01*
X135532761Y-106402047D01*
X135580380Y-106306809D01*
X135580380Y-106211571D01*
X135532761Y-106116333D01*
X135485142Y-106068714D01*
X135389904Y-106021095D01*
X135199428Y-105973476D01*
X134961333Y-105973476D01*
X134770857Y-106021095D01*
X134675619Y-106068714D01*
X134628000Y-106116333D01*
X134580380Y-106211571D01*
G04 #@! TO.C,D1*
X130278095Y-94051380D02*
X130278095Y-93051380D01*
X130040000Y-93051380D01*
X129897142Y-93099000D01*
X129801904Y-93194238D01*
X129754285Y-93289476D01*
X129706666Y-93479952D01*
X129706666Y-93622809D01*
X129754285Y-93813285D01*
X129801904Y-93908523D01*
X129897142Y-94003761D01*
X130040000Y-94051380D01*
X130278095Y-94051380D01*
X128754285Y-94051380D02*
X129325714Y-94051380D01*
X129040000Y-94051380D02*
X129040000Y-93051380D01*
X129135238Y-93194238D01*
X129230476Y-93289476D01*
X129325714Y-93337095D01*
G04 #@! TO.C,U5*
X133476904Y-99655380D02*
X133476904Y-100464904D01*
X133429285Y-100560142D01*
X133381666Y-100607761D01*
X133286428Y-100655380D01*
X133095952Y-100655380D01*
X133000714Y-100607761D01*
X132953095Y-100560142D01*
X132905476Y-100464904D01*
X132905476Y-99655380D01*
X131953095Y-99655380D02*
X132429285Y-99655380D01*
X132476904Y-100131571D01*
X132429285Y-100083952D01*
X132334047Y-100036333D01*
X132095952Y-100036333D01*
X132000714Y-100083952D01*
X131953095Y-100131571D01*
X131905476Y-100226809D01*
X131905476Y-100464904D01*
X131953095Y-100560142D01*
X132000714Y-100607761D01*
X132095952Y-100655380D01*
X132334047Y-100655380D01*
X132429285Y-100607761D01*
X132476904Y-100560142D01*
G04 #@! TO.C,R9*
X142946380Y-92035333D02*
X142470190Y-91702000D01*
X142946380Y-91463904D02*
X141946380Y-91463904D01*
X141946380Y-91844857D01*
X141994000Y-91940095D01*
X142041619Y-91987714D01*
X142136857Y-92035333D01*
X142279714Y-92035333D01*
X142374952Y-91987714D01*
X142422571Y-91940095D01*
X142470190Y-91844857D01*
X142470190Y-91463904D01*
X142946380Y-92511523D02*
X142946380Y-92702000D01*
X142898761Y-92797238D01*
X142851142Y-92844857D01*
X142708285Y-92940095D01*
X142517809Y-92987714D01*
X142136857Y-92987714D01*
X142041619Y-92940095D01*
X141994000Y-92892476D01*
X141946380Y-92797238D01*
X141946380Y-92606761D01*
X141994000Y-92511523D01*
X142041619Y-92463904D01*
X142136857Y-92416285D01*
X142374952Y-92416285D01*
X142470190Y-92463904D01*
X142517809Y-92511523D01*
X142565428Y-92606761D01*
X142565428Y-92797238D01*
X142517809Y-92892476D01*
X142470190Y-92940095D01*
X142374952Y-92987714D01*
G04 #@! TO.C,R10*
X144546580Y-91305142D02*
X144070390Y-90971809D01*
X144546580Y-90733714D02*
X143546580Y-90733714D01*
X143546580Y-91114666D01*
X143594200Y-91209904D01*
X143641819Y-91257523D01*
X143737057Y-91305142D01*
X143879914Y-91305142D01*
X143975152Y-91257523D01*
X144022771Y-91209904D01*
X144070390Y-91114666D01*
X144070390Y-90733714D01*
X144546580Y-92257523D02*
X144546580Y-91686095D01*
X144546580Y-91971809D02*
X143546580Y-91971809D01*
X143689438Y-91876571D01*
X143784676Y-91781333D01*
X143832295Y-91686095D01*
X143546580Y-92876571D02*
X143546580Y-92971809D01*
X143594200Y-93067047D01*
X143641819Y-93114666D01*
X143737057Y-93162285D01*
X143927533Y-93209904D01*
X144165628Y-93209904D01*
X144356104Y-93162285D01*
X144451342Y-93114666D01*
X144498961Y-93067047D01*
X144546580Y-92971809D01*
X144546580Y-92876571D01*
X144498961Y-92781333D01*
X144451342Y-92733714D01*
X144356104Y-92686095D01*
X144165628Y-92638476D01*
X143927533Y-92638476D01*
X143737057Y-92686095D01*
X143641819Y-92733714D01*
X143594200Y-92781333D01*
X143546580Y-92876571D01*
G04 #@! TO.C,C22*
X124594857Y-86750142D02*
X124642476Y-86797761D01*
X124785333Y-86845380D01*
X124880571Y-86845380D01*
X125023428Y-86797761D01*
X125118666Y-86702523D01*
X125166285Y-86607285D01*
X125213904Y-86416809D01*
X125213904Y-86273952D01*
X125166285Y-86083476D01*
X125118666Y-85988238D01*
X125023428Y-85893000D01*
X124880571Y-85845380D01*
X124785333Y-85845380D01*
X124642476Y-85893000D01*
X124594857Y-85940619D01*
X124213904Y-85940619D02*
X124166285Y-85893000D01*
X124071047Y-85845380D01*
X123832952Y-85845380D01*
X123737714Y-85893000D01*
X123690095Y-85940619D01*
X123642476Y-86035857D01*
X123642476Y-86131095D01*
X123690095Y-86273952D01*
X124261523Y-86845380D01*
X123642476Y-86845380D01*
X123261523Y-85940619D02*
X123213904Y-85893000D01*
X123118666Y-85845380D01*
X122880571Y-85845380D01*
X122785333Y-85893000D01*
X122737714Y-85940619D01*
X122690095Y-86035857D01*
X122690095Y-86131095D01*
X122737714Y-86273952D01*
X123309142Y-86845380D01*
X122690095Y-86845380D01*
G04 #@! TO.C,R15*
X102623857Y-105006380D02*
X102957190Y-104530190D01*
X103195285Y-105006380D02*
X103195285Y-104006380D01*
X102814333Y-104006380D01*
X102719095Y-104054000D01*
X102671476Y-104101619D01*
X102623857Y-104196857D01*
X102623857Y-104339714D01*
X102671476Y-104434952D01*
X102719095Y-104482571D01*
X102814333Y-104530190D01*
X103195285Y-104530190D01*
X101671476Y-105006380D02*
X102242904Y-105006380D01*
X101957190Y-105006380D02*
X101957190Y-104006380D01*
X102052428Y-104149238D01*
X102147666Y-104244476D01*
X102242904Y-104292095D01*
X100766714Y-104006380D02*
X101242904Y-104006380D01*
X101290523Y-104482571D01*
X101242904Y-104434952D01*
X101147666Y-104387333D01*
X100909571Y-104387333D01*
X100814333Y-104434952D01*
X100766714Y-104482571D01*
X100719095Y-104577809D01*
X100719095Y-104815904D01*
X100766714Y-104911142D01*
X100814333Y-104958761D01*
X100909571Y-105006380D01*
X101147666Y-105006380D01*
X101242904Y-104958761D01*
X101290523Y-104911142D01*
G04 #@! TO.C,R16*
X99171856Y-105006380D02*
X99505189Y-104530190D01*
X99743284Y-105006380D02*
X99743284Y-104006380D01*
X99362332Y-104006380D01*
X99267094Y-104054000D01*
X99219475Y-104101619D01*
X99171856Y-104196857D01*
X99171856Y-104339714D01*
X99219475Y-104434952D01*
X99267094Y-104482571D01*
X99362332Y-104530190D01*
X99743284Y-104530190D01*
X98219475Y-105006380D02*
X98790903Y-105006380D01*
X98505189Y-105006380D02*
X98505189Y-104006380D01*
X98600427Y-104149238D01*
X98695665Y-104244476D01*
X98790903Y-104292095D01*
X97362332Y-104006380D02*
X97552808Y-104006380D01*
X97648046Y-104054000D01*
X97695665Y-104101619D01*
X97790903Y-104244476D01*
X97838522Y-104434952D01*
X97838522Y-104815904D01*
X97790903Y-104911142D01*
X97743284Y-104958761D01*
X97648046Y-105006380D01*
X97457570Y-105006380D01*
X97362332Y-104958761D01*
X97314713Y-104911142D01*
X97267094Y-104815904D01*
X97267094Y-104577809D01*
X97314713Y-104482571D01*
X97362332Y-104434952D01*
X97457570Y-104387333D01*
X97648046Y-104387333D01*
X97743284Y-104434952D01*
X97790903Y-104482571D01*
X97838522Y-104577809D01*
G04 #@! TO.C,R17*
X122195857Y-105260380D02*
X122529190Y-104784190D01*
X122767285Y-105260380D02*
X122767285Y-104260380D01*
X122386333Y-104260380D01*
X122291095Y-104308000D01*
X122243476Y-104355619D01*
X122195857Y-104450857D01*
X122195857Y-104593714D01*
X122243476Y-104688952D01*
X122291095Y-104736571D01*
X122386333Y-104784190D01*
X122767285Y-104784190D01*
X121243476Y-105260380D02*
X121814904Y-105260380D01*
X121529190Y-105260380D02*
X121529190Y-104260380D01*
X121624428Y-104403238D01*
X121719666Y-104498476D01*
X121814904Y-104546095D01*
X120910142Y-104260380D02*
X120243476Y-104260380D01*
X120672047Y-105260380D01*
G04 #@! TO.C,R18*
X118625857Y-105260380D02*
X118959190Y-104784190D01*
X119197285Y-105260380D02*
X119197285Y-104260380D01*
X118816333Y-104260380D01*
X118721095Y-104308000D01*
X118673476Y-104355619D01*
X118625857Y-104450857D01*
X118625857Y-104593714D01*
X118673476Y-104688952D01*
X118721095Y-104736571D01*
X118816333Y-104784190D01*
X119197285Y-104784190D01*
X117673476Y-105260380D02*
X118244904Y-105260380D01*
X117959190Y-105260380D02*
X117959190Y-104260380D01*
X118054428Y-104403238D01*
X118149666Y-104498476D01*
X118244904Y-104546095D01*
X117102047Y-104688952D02*
X117197285Y-104641333D01*
X117244904Y-104593714D01*
X117292523Y-104498476D01*
X117292523Y-104450857D01*
X117244904Y-104355619D01*
X117197285Y-104308000D01*
X117102047Y-104260380D01*
X116911571Y-104260380D01*
X116816333Y-104308000D01*
X116768714Y-104355619D01*
X116721095Y-104450857D01*
X116721095Y-104498476D01*
X116768714Y-104593714D01*
X116816333Y-104641333D01*
X116911571Y-104688952D01*
X117102047Y-104688952D01*
X117197285Y-104736571D01*
X117244904Y-104784190D01*
X117292523Y-104879428D01*
X117292523Y-105069904D01*
X117244904Y-105165142D01*
X117197285Y-105212761D01*
X117102047Y-105260380D01*
X116911571Y-105260380D01*
X116816333Y-105212761D01*
X116768714Y-105165142D01*
X116721095Y-105069904D01*
X116721095Y-104879428D01*
X116768714Y-104784190D01*
X116816333Y-104736571D01*
X116911571Y-104688952D01*
G04 #@! TO.C,U2*
X138937904Y-81494380D02*
X138937904Y-82303904D01*
X138890285Y-82399142D01*
X138842666Y-82446761D01*
X138747428Y-82494380D01*
X138556952Y-82494380D01*
X138461714Y-82446761D01*
X138414095Y-82399142D01*
X138366476Y-82303904D01*
X138366476Y-81494380D01*
X137937904Y-81589619D02*
X137890285Y-81542000D01*
X137795047Y-81494380D01*
X137556952Y-81494380D01*
X137461714Y-81542000D01*
X137414095Y-81589619D01*
X137366476Y-81684857D01*
X137366476Y-81780095D01*
X137414095Y-81922952D01*
X137985523Y-82494380D01*
X137366476Y-82494380D01*
G04 #@! TO.C,C19*
X119895857Y-86590142D02*
X119943476Y-86637761D01*
X120086333Y-86685380D01*
X120181571Y-86685380D01*
X120324428Y-86637761D01*
X120419666Y-86542523D01*
X120467285Y-86447285D01*
X120514904Y-86256809D01*
X120514904Y-86113952D01*
X120467285Y-85923476D01*
X120419666Y-85828238D01*
X120324428Y-85733000D01*
X120181571Y-85685380D01*
X120086333Y-85685380D01*
X119943476Y-85733000D01*
X119895857Y-85780619D01*
X118943476Y-86685380D02*
X119514904Y-86685380D01*
X119229190Y-86685380D02*
X119229190Y-85685380D01*
X119324428Y-85828238D01*
X119419666Y-85923476D01*
X119514904Y-85971095D01*
X118467285Y-86685380D02*
X118276809Y-86685380D01*
X118181571Y-86637761D01*
X118133952Y-86590142D01*
X118038714Y-86447285D01*
X117991095Y-86256809D01*
X117991095Y-85875857D01*
X118038714Y-85780619D01*
X118086333Y-85733000D01*
X118181571Y-85685380D01*
X118372047Y-85685380D01*
X118467285Y-85733000D01*
X118514904Y-85780619D01*
X118562523Y-85875857D01*
X118562523Y-86113952D01*
X118514904Y-86209190D01*
X118467285Y-86256809D01*
X118372047Y-86304428D01*
X118181571Y-86304428D01*
X118086333Y-86256809D01*
X118038714Y-86209190D01*
X117991095Y-86113952D01*
G04 #@! TO.C,C25*
X114053857Y-71350142D02*
X114101476Y-71397761D01*
X114244333Y-71445380D01*
X114339571Y-71445380D01*
X114482428Y-71397761D01*
X114577666Y-71302523D01*
X114625285Y-71207285D01*
X114672904Y-71016809D01*
X114672904Y-70873952D01*
X114625285Y-70683476D01*
X114577666Y-70588238D01*
X114482428Y-70493000D01*
X114339571Y-70445380D01*
X114244333Y-70445380D01*
X114101476Y-70493000D01*
X114053857Y-70540619D01*
X113672904Y-70540619D02*
X113625285Y-70493000D01*
X113530047Y-70445380D01*
X113291952Y-70445380D01*
X113196714Y-70493000D01*
X113149095Y-70540619D01*
X113101476Y-70635857D01*
X113101476Y-70731095D01*
X113149095Y-70873952D01*
X113720523Y-71445380D01*
X113101476Y-71445380D01*
X112196714Y-70445380D02*
X112672904Y-70445380D01*
X112720523Y-70921571D01*
X112672904Y-70873952D01*
X112577666Y-70826333D01*
X112339571Y-70826333D01*
X112244333Y-70873952D01*
X112196714Y-70921571D01*
X112149095Y-71016809D01*
X112149095Y-71254904D01*
X112196714Y-71350142D01*
X112244333Y-71397761D01*
X112339571Y-71445380D01*
X112577666Y-71445380D01*
X112672904Y-71397761D01*
X112720523Y-71350142D01*
G04 #@! TO.C,C23*
X124467857Y-81510142D02*
X124515476Y-81557761D01*
X124658333Y-81605380D01*
X124753571Y-81605380D01*
X124896428Y-81557761D01*
X124991666Y-81462523D01*
X125039285Y-81367285D01*
X125086904Y-81176809D01*
X125086904Y-81033952D01*
X125039285Y-80843476D01*
X124991666Y-80748238D01*
X124896428Y-80653000D01*
X124753571Y-80605380D01*
X124658333Y-80605380D01*
X124515476Y-80653000D01*
X124467857Y-80700619D01*
X124086904Y-80700619D02*
X124039285Y-80653000D01*
X123944047Y-80605380D01*
X123705952Y-80605380D01*
X123610714Y-80653000D01*
X123563095Y-80700619D01*
X123515476Y-80795857D01*
X123515476Y-80891095D01*
X123563095Y-81033952D01*
X124134523Y-81605380D01*
X123515476Y-81605380D01*
X123182142Y-80605380D02*
X122563095Y-80605380D01*
X122896428Y-80986333D01*
X122753571Y-80986333D01*
X122658333Y-81033952D01*
X122610714Y-81081571D01*
X122563095Y-81176809D01*
X122563095Y-81414904D01*
X122610714Y-81510142D01*
X122658333Y-81557761D01*
X122753571Y-81605380D01*
X123039285Y-81605380D01*
X123134523Y-81557761D01*
X123182142Y-81510142D01*
G04 #@! TO.C,C26*
X118117857Y-68429142D02*
X118165476Y-68476761D01*
X118308333Y-68524380D01*
X118403571Y-68524380D01*
X118546428Y-68476761D01*
X118641666Y-68381523D01*
X118689285Y-68286285D01*
X118736904Y-68095809D01*
X118736904Y-67952952D01*
X118689285Y-67762476D01*
X118641666Y-67667238D01*
X118546428Y-67572000D01*
X118403571Y-67524380D01*
X118308333Y-67524380D01*
X118165476Y-67572000D01*
X118117857Y-67619619D01*
X117736904Y-67619619D02*
X117689285Y-67572000D01*
X117594047Y-67524380D01*
X117355952Y-67524380D01*
X117260714Y-67572000D01*
X117213095Y-67619619D01*
X117165476Y-67714857D01*
X117165476Y-67810095D01*
X117213095Y-67952952D01*
X117784523Y-68524380D01*
X117165476Y-68524380D01*
X116308333Y-67524380D02*
X116498809Y-67524380D01*
X116594047Y-67572000D01*
X116641666Y-67619619D01*
X116736904Y-67762476D01*
X116784523Y-67952952D01*
X116784523Y-68333904D01*
X116736904Y-68429142D01*
X116689285Y-68476761D01*
X116594047Y-68524380D01*
X116403571Y-68524380D01*
X116308333Y-68476761D01*
X116260714Y-68429142D01*
X116213095Y-68333904D01*
X116213095Y-68095809D01*
X116260714Y-68000571D01*
X116308333Y-67952952D01*
X116403571Y-67905333D01*
X116594047Y-67905333D01*
X116689285Y-67952952D01*
X116736904Y-68000571D01*
X116784523Y-68095809D01*
G04 #@! TO.C,C29*
X121673857Y-68429142D02*
X121721476Y-68476761D01*
X121864333Y-68524380D01*
X121959571Y-68524380D01*
X122102428Y-68476761D01*
X122197666Y-68381523D01*
X122245285Y-68286285D01*
X122292904Y-68095809D01*
X122292904Y-67952952D01*
X122245285Y-67762476D01*
X122197666Y-67667238D01*
X122102428Y-67572000D01*
X121959571Y-67524380D01*
X121864333Y-67524380D01*
X121721476Y-67572000D01*
X121673857Y-67619619D01*
X121292904Y-67619619D02*
X121245285Y-67572000D01*
X121150047Y-67524380D01*
X120911952Y-67524380D01*
X120816714Y-67572000D01*
X120769095Y-67619619D01*
X120721476Y-67714857D01*
X120721476Y-67810095D01*
X120769095Y-67952952D01*
X121340523Y-68524380D01*
X120721476Y-68524380D01*
X120245285Y-68524380D02*
X120054809Y-68524380D01*
X119959571Y-68476761D01*
X119911952Y-68429142D01*
X119816714Y-68286285D01*
X119769095Y-68095809D01*
X119769095Y-67714857D01*
X119816714Y-67619619D01*
X119864333Y-67572000D01*
X119959571Y-67524380D01*
X120150047Y-67524380D01*
X120245285Y-67572000D01*
X120292904Y-67619619D01*
X120340523Y-67714857D01*
X120340523Y-67952952D01*
X120292904Y-68048190D01*
X120245285Y-68095809D01*
X120150047Y-68143428D01*
X119959571Y-68143428D01*
X119864333Y-68095809D01*
X119816714Y-68048190D01*
X119769095Y-67952952D01*
G04 #@! TO.C,C37*
X131896142Y-82683142D02*
X131943761Y-82635523D01*
X131991380Y-82492666D01*
X131991380Y-82397428D01*
X131943761Y-82254571D01*
X131848523Y-82159333D01*
X131753285Y-82111714D01*
X131562809Y-82064095D01*
X131419952Y-82064095D01*
X131229476Y-82111714D01*
X131134238Y-82159333D01*
X131039000Y-82254571D01*
X130991380Y-82397428D01*
X130991380Y-82492666D01*
X131039000Y-82635523D01*
X131086619Y-82683142D01*
X130991380Y-83016476D02*
X130991380Y-83635523D01*
X131372333Y-83302190D01*
X131372333Y-83445047D01*
X131419952Y-83540285D01*
X131467571Y-83587904D01*
X131562809Y-83635523D01*
X131800904Y-83635523D01*
X131896142Y-83587904D01*
X131943761Y-83540285D01*
X131991380Y-83445047D01*
X131991380Y-83159333D01*
X131943761Y-83064095D01*
X131896142Y-83016476D01*
X130991380Y-83968857D02*
X130991380Y-84635523D01*
X131991380Y-84206952D01*
G04 #@! TO.C,C38*
X131322142Y-87327642D02*
X131369761Y-87280023D01*
X131417380Y-87137166D01*
X131417380Y-87041928D01*
X131369761Y-86899071D01*
X131274523Y-86803833D01*
X131179285Y-86756214D01*
X130988809Y-86708595D01*
X130845952Y-86708595D01*
X130655476Y-86756214D01*
X130560238Y-86803833D01*
X130465000Y-86899071D01*
X130417380Y-87041928D01*
X130417380Y-87137166D01*
X130465000Y-87280023D01*
X130512619Y-87327642D01*
X130417380Y-87660976D02*
X130417380Y-88280023D01*
X130798333Y-87946690D01*
X130798333Y-88089547D01*
X130845952Y-88184785D01*
X130893571Y-88232404D01*
X130988809Y-88280023D01*
X131226904Y-88280023D01*
X131322142Y-88232404D01*
X131369761Y-88184785D01*
X131417380Y-88089547D01*
X131417380Y-87803833D01*
X131369761Y-87708595D01*
X131322142Y-87660976D01*
X130845952Y-88851452D02*
X130798333Y-88756214D01*
X130750714Y-88708595D01*
X130655476Y-88660976D01*
X130607857Y-88660976D01*
X130512619Y-88708595D01*
X130465000Y-88756214D01*
X130417380Y-88851452D01*
X130417380Y-89041928D01*
X130465000Y-89137166D01*
X130512619Y-89184785D01*
X130607857Y-89232404D01*
X130655476Y-89232404D01*
X130750714Y-89184785D01*
X130798333Y-89137166D01*
X130845952Y-89041928D01*
X130845952Y-88851452D01*
X130893571Y-88756214D01*
X130941190Y-88708595D01*
X131036428Y-88660976D01*
X131226904Y-88660976D01*
X131322142Y-88708595D01*
X131369761Y-88756214D01*
X131417380Y-88851452D01*
X131417380Y-89041928D01*
X131369761Y-89137166D01*
X131322142Y-89184785D01*
X131226904Y-89232404D01*
X131036428Y-89232404D01*
X130941190Y-89184785D01*
X130893571Y-89137166D01*
X130845952Y-89041928D01*
G04 #@! TD*
M02*
