M48
;DRILL file {KiCad (5.0.0-3-g5ebb6b6)} date Sunday, 19 May 2019 at 23:28:35
;FORMAT={-:-/ absolute / metric / decimal}
FMAT,2
METRIC,TZ
T1C0.200
T2C0.400
T3C0.800
T4C1.000
%
G90
G05
M71
T1
X93.205Y-65.532
X93.205Y-68.58
X93.205Y-71.628
X93.205Y-73.152
X93.205Y-74.676
X93.205Y-80.772
X93.205Y-84.836
X93.205Y-86.36
X93.205Y-87.884
X93.205Y-89.408
X93.205Y-90.932
X93.205Y-92.456
X93.205Y-93.98
X93.205Y-97.028
X93.205Y-98.552
X93.205Y-100.076
X93.205Y-101.6
X93.205Y-103.124
X93.205Y-104.648
X93.205Y-106.172
X93.218Y-76.835
X93.713Y-107.696
X94.729Y-108.712
X95.237Y-65.024
X95.745Y-109.728
X96.012Y-73.279
X96.239Y-73.979
X96.266Y-68.58
X96.511Y-74.624
X96.761Y-65.024
X96.761Y-110.744
X96.841Y-75.311
X98.285Y-80.264
X98.285Y-110.744
X99.301Y-89.916
X99.809Y-110.744
X100.317Y-80.264
X101.333Y-110.744
X102.857Y-110.744
X103.873Y-79.248
X103.873Y-86.868
X104.381Y-110.744
X104.929Y-67.083
X105.368Y-68.453
X105.905Y-110.744
X107.087Y-71.527
X107.696Y-110.744
X108.953Y-86.868
X109.22Y-71.247
X109.22Y-110.744
X110.363Y-66.814
X110.744Y-110.744
X111.493Y-86.868
X112.268Y-110.744
X113.157Y-70.739
X113.157Y-71.755
X113.157Y-72.898
X113.157Y-74.041
X113.157Y-75.184
X113.157Y-76.2
X113.792Y-110.744
X114.427Y-71.12
X115.189Y-71.247
X115.293Y-72.871
X115.316Y-73.914
X115.316Y-74.93
X115.316Y-110.744
X116.573Y-86.868
X116.84Y-110.744
X116.967Y-80.391
X117.602Y-72.136
X117.602Y-73.279
X117.602Y-74.422
X118.364Y-110.744
X118.548Y-80.007
X118.618Y-72.136
X118.618Y-73.279
X118.618Y-74.422
X118.999Y-67.818
X119.126Y-70.866
X119.477Y-80.378
X119.634Y-72.136
X119.634Y-73.279
X119.634Y-74.422
X119.888Y-110.744
X120.019Y-67.812
X120.65Y-72.136
X120.65Y-73.279
X120.65Y-74.422
X120.904Y-67.818
X121.145Y-87.376
X121.285Y-80.391
X121.412Y-110.744
X121.666Y-72.136
X121.666Y-73.279
X121.666Y-74.422
X122.453Y-70.886
X122.682Y-72.136
X122.682Y-73.279
X122.682Y-74.422
X122.936Y-67.818
X122.936Y-110.744
X123.317Y-70.866
X123.813Y-80.137
X123.91Y-67.818
X124.3Y-75.5
X124.46Y-70.993
X124.46Y-71.882
X124.46Y-72.7
X124.46Y-73.6
X124.46Y-110.744
X124.813Y-80.137
X124.841Y-74.676
X125.222Y-67.818
X125.717Y-71.628
X125.717Y-72.644
X125.984Y-110.744
X125.992Y-75.446
X126.492Y-80.01
X126.733Y-87.376
X127.254Y-70.866
X127.254Y-71.755
X127.254Y-72.898
X127.254Y-75.184
X127.254Y-76.2
X127.43Y-68.773
X127.508Y-110.744
X127.635Y-69.977
X127.749Y-91.948
X127.749Y-93.472
X127.749Y-94.996
X128.257Y-71.12
X128.257Y-72.644
X129.273Y-92.456
X129.273Y-94.488
X129.273Y-96.52
X129.273Y-101.092
X129.273Y-103.124
X129.273Y-105.156
X129.667Y-82.296
X130.289Y-90.932
X130.302Y-64.27
X131.699Y-70.485
X132.065Y-69.723
X132.321Y-110.236
X132.64Y-71.885
X134.112Y-69.596
X134.112Y-110.236
X135.877Y-110.236
X136.249Y-67.415
X136.353Y-65.699
X136.385Y-70.104
X137.018Y-81.481
X137.265Y-80.474
X137.287Y-65.659
X140.208Y-64.27
X141.465Y-70.104
X143.383Y-110.871
X144.145Y-110.998
X144.893Y-111.063
X145.021Y-72.136
X145.021Y-73.66
X145.021Y-77.724
X145.021Y-79.248
X145.186Y-87.782
T2
X94.615Y-104.013
X96.139Y-93.726
X98.425Y-99.568
X100.076Y-92.329
X100.985Y-77.761
X101.092Y-67.564
X105.283Y-99.441
X105.41Y-94.996
X107.442Y-82.296
X108.164Y-79.141
X109.22Y-79.121
X109.728Y-82.042
X109.855Y-96.647
X111.125Y-92.964
X111.887Y-78.994
X112.395Y-82.423
X112.892Y-94.085
X114.3Y-104.267
X115.443Y-65.024
X116.701Y-79.375
X117.729Y-99.06
X117.856Y-94.742
X118.45Y-66.754
X119.126Y-92.964
X119.253Y-64.516
X120.396Y-81.788
X121.412Y-106.934
X124.46Y-81.165
X124.46Y-99.187
X126.111Y-84.963
X127.889Y-65.786
X129.413Y-65.77
X130.086Y-85.814
X130.556Y-84.709
X130.937Y-73.025
X131.191Y-89.408
X131.394Y-86.271
X132.207Y-108.712
X132.334Y-97.536
X132.461Y-80.899
X133.477Y-100.33
X133.477Y-101.346
X133.985Y-80.899
X134.62Y-91.694
X134.874Y-68.834
X135.001Y-94.996
X135.89Y-81.788
X137.795Y-98.171
X138.43Y-78.359
X139.065Y-67.474
X139.433Y-81.877
X143.002Y-90.17
X143.383Y-75.819
X143.51Y-71.374
X143.916Y-84.341
X144.145Y-93.218
X144.399Y-102.743
X146.558Y-105.537
T3
X97.25Y-107.9
X99.25Y-107.9
X143.2Y-106.5
X143.2Y-108.5
X104.4Y-107.9
X106.4Y-107.9
X111.55Y-107.9
X113.55Y-107.9
T4
X148.082Y-67.31
X148.082Y-69.85
X148.082Y-72.39
X148.082Y-74.93
X148.082Y-77.47
X148.082Y-80.01
X148.082Y-82.55
X148.082Y-85.09
X148.082Y-87.63
X148.082Y-90.17
X148.082Y-92.71
X148.082Y-95.25
X148.082Y-97.79
X148.082Y-100.33
X148.082Y-102.87
X138.684Y-104.14
X138.684Y-106.68
X138.684Y-109.22
X90.17Y-67.31
X90.17Y-69.85
X90.17Y-72.39
X90.17Y-74.93
X90.17Y-77.47
X90.17Y-80.01
X90.17Y-82.55
X90.17Y-85.09
X90.17Y-87.63
X90.17Y-90.17
X90.17Y-92.71
X90.17Y-95.25
X90.17Y-97.79
X90.17Y-100.33
X90.17Y-102.87
X94.996Y-59.69
X94.996Y-62.23
X97.536Y-59.69
X97.536Y-62.23
X100.076Y-59.69
X100.076Y-62.23
X102.616Y-59.69
X102.616Y-62.23
X105.156Y-59.69
X105.156Y-62.23
X107.696Y-59.69
X107.696Y-62.23
X110.236Y-59.69
X110.236Y-62.23
X112.776Y-59.69
X112.776Y-62.23
X115.316Y-59.69
X115.316Y-62.23
X117.856Y-59.69
X117.856Y-62.23
X120.396Y-59.69
X120.396Y-62.23
X122.936Y-59.69
X122.936Y-62.23
X125.476Y-59.69
X125.476Y-62.23
X128.016Y-59.69
X128.016Y-62.23
X130.556Y-59.69
X130.556Y-62.23
X133.096Y-59.69
X133.096Y-62.23
X135.636Y-59.69
X135.636Y-62.23
X138.176Y-59.69
X138.176Y-62.23
X140.716Y-59.69
X140.716Y-62.23
X143.256Y-59.69
X143.256Y-62.23
T0
M30
