G04 #@! TF.GenerationSoftware,KiCad,Pcbnew,(5.0.0-3-g5ebb6b6)*
G04 #@! TF.CreationDate,2019-05-19T23:28:32+02:00*
G04 #@! TF.ProjectId,Audio Board,417564696F20426F6172642E6B696361,rev?*
G04 #@! TF.SameCoordinates,Original*
G04 #@! TF.FileFunction,Soldermask,Top*
G04 #@! TF.FilePolarity,Negative*
%FSLAX46Y46*%
G04 Gerber Fmt 4.6, Leading zero omitted, Abs format (unit mm)*
G04 Created by KiCad (PCBNEW (5.0.0-3-g5ebb6b6)) date Sunday, 19 May 2019 at 23:28:32*
%MOMM*%
%LPD*%
G01*
G04 APERTURE LIST*
%ADD10R,2.100000X2.100000*%
%ADD11O,2.100000X2.100000*%
%ADD12C,0.100000*%
%ADD13C,1.350000*%
%ADD14R,1.900000X2.800000*%
%ADD15R,0.685000X1.400000*%
%ADD16R,6.800000X4.000000*%
%ADD17C,1.550000*%
%ADD18R,2.000000X3.900000*%
%ADD19R,2.600000X1.900000*%
%ADD20O,1.600000X2.200000*%
%ADD21R,1.600000X2.200000*%
%ADD22R,2.200000X1.600000*%
%ADD23O,2.200000X1.600000*%
G04 APERTURE END LIST*
D10*
G04 #@! TO.C,J6*
X94996000Y-62230000D03*
D11*
X94996000Y-59690000D03*
X97536000Y-62230000D03*
X97536000Y-59690000D03*
X100076000Y-62230000D03*
X100076000Y-59690000D03*
X102616000Y-62230000D03*
X102616000Y-59690000D03*
X105156000Y-62230000D03*
X105156000Y-59690000D03*
X107696000Y-62230000D03*
X107696000Y-59690000D03*
X110236000Y-62230000D03*
X110236000Y-59690000D03*
X112776000Y-62230000D03*
X112776000Y-59690000D03*
X115316000Y-62230000D03*
X115316000Y-59690000D03*
X117856000Y-62230000D03*
X117856000Y-59690000D03*
X120396000Y-62230000D03*
X120396000Y-59690000D03*
X122936000Y-62230000D03*
X122936000Y-59690000D03*
X125476000Y-62230000D03*
X125476000Y-59690000D03*
X128016000Y-62230000D03*
X128016000Y-59690000D03*
X130556000Y-62230000D03*
X130556000Y-59690000D03*
X133096000Y-62230000D03*
X133096000Y-59690000D03*
X135636000Y-62230000D03*
X135636000Y-59690000D03*
X138176000Y-62230000D03*
X138176000Y-59690000D03*
X140716000Y-62230000D03*
X140716000Y-59690000D03*
X143256000Y-62230000D03*
X143256000Y-59690000D03*
G04 #@! TD*
D12*
G04 #@! TO.C,C27*
G36*
X141517581Y-76669625D02*
X141550343Y-76674485D01*
X141582471Y-76682533D01*
X141613656Y-76693691D01*
X141643596Y-76707852D01*
X141672005Y-76724879D01*
X141698608Y-76744609D01*
X141723149Y-76766851D01*
X141745391Y-76791392D01*
X141765121Y-76817995D01*
X141782148Y-76846404D01*
X141796309Y-76876344D01*
X141807467Y-76907529D01*
X141815515Y-76939657D01*
X141820375Y-76972419D01*
X141822000Y-77005500D01*
X141822000Y-77680500D01*
X141820375Y-77713581D01*
X141815515Y-77746343D01*
X141807467Y-77778471D01*
X141796309Y-77809656D01*
X141782148Y-77839596D01*
X141765121Y-77868005D01*
X141745391Y-77894608D01*
X141723149Y-77919149D01*
X141698608Y-77941391D01*
X141672005Y-77961121D01*
X141643596Y-77978148D01*
X141613656Y-77992309D01*
X141582471Y-78003467D01*
X141550343Y-78011515D01*
X141517581Y-78016375D01*
X141484500Y-78018000D01*
X140709500Y-78018000D01*
X140676419Y-78016375D01*
X140643657Y-78011515D01*
X140611529Y-78003467D01*
X140580344Y-77992309D01*
X140550404Y-77978148D01*
X140521995Y-77961121D01*
X140495392Y-77941391D01*
X140470851Y-77919149D01*
X140448609Y-77894608D01*
X140428879Y-77868005D01*
X140411852Y-77839596D01*
X140397691Y-77809656D01*
X140386533Y-77778471D01*
X140378485Y-77746343D01*
X140373625Y-77713581D01*
X140372000Y-77680500D01*
X140372000Y-77005500D01*
X140373625Y-76972419D01*
X140378485Y-76939657D01*
X140386533Y-76907529D01*
X140397691Y-76876344D01*
X140411852Y-76846404D01*
X140428879Y-76817995D01*
X140448609Y-76791392D01*
X140470851Y-76766851D01*
X140495392Y-76744609D01*
X140521995Y-76724879D01*
X140550404Y-76707852D01*
X140580344Y-76693691D01*
X140611529Y-76682533D01*
X140643657Y-76674485D01*
X140676419Y-76669625D01*
X140709500Y-76668000D01*
X141484500Y-76668000D01*
X141517581Y-76669625D01*
X141517581Y-76669625D01*
G37*
D13*
X141097000Y-77343000D03*
D12*
G36*
X143267581Y-76669625D02*
X143300343Y-76674485D01*
X143332471Y-76682533D01*
X143363656Y-76693691D01*
X143393596Y-76707852D01*
X143422005Y-76724879D01*
X143448608Y-76744609D01*
X143473149Y-76766851D01*
X143495391Y-76791392D01*
X143515121Y-76817995D01*
X143532148Y-76846404D01*
X143546309Y-76876344D01*
X143557467Y-76907529D01*
X143565515Y-76939657D01*
X143570375Y-76972419D01*
X143572000Y-77005500D01*
X143572000Y-77680500D01*
X143570375Y-77713581D01*
X143565515Y-77746343D01*
X143557467Y-77778471D01*
X143546309Y-77809656D01*
X143532148Y-77839596D01*
X143515121Y-77868005D01*
X143495391Y-77894608D01*
X143473149Y-77919149D01*
X143448608Y-77941391D01*
X143422005Y-77961121D01*
X143393596Y-77978148D01*
X143363656Y-77992309D01*
X143332471Y-78003467D01*
X143300343Y-78011515D01*
X143267581Y-78016375D01*
X143234500Y-78018000D01*
X142459500Y-78018000D01*
X142426419Y-78016375D01*
X142393657Y-78011515D01*
X142361529Y-78003467D01*
X142330344Y-77992309D01*
X142300404Y-77978148D01*
X142271995Y-77961121D01*
X142245392Y-77941391D01*
X142220851Y-77919149D01*
X142198609Y-77894608D01*
X142178879Y-77868005D01*
X142161852Y-77839596D01*
X142147691Y-77809656D01*
X142136533Y-77778471D01*
X142128485Y-77746343D01*
X142123625Y-77713581D01*
X142122000Y-77680500D01*
X142122000Y-77005500D01*
X142123625Y-76972419D01*
X142128485Y-76939657D01*
X142136533Y-76907529D01*
X142147691Y-76876344D01*
X142161852Y-76846404D01*
X142178879Y-76817995D01*
X142198609Y-76791392D01*
X142220851Y-76766851D01*
X142245392Y-76744609D01*
X142271995Y-76724879D01*
X142300404Y-76707852D01*
X142330344Y-76693691D01*
X142361529Y-76682533D01*
X142393657Y-76674485D01*
X142426419Y-76669625D01*
X142459500Y-76668000D01*
X143234500Y-76668000D01*
X143267581Y-76669625D01*
X143267581Y-76669625D01*
G37*
D13*
X142847000Y-77343000D03*
G04 #@! TD*
D11*
G04 #@! TO.C,J1*
X148082000Y-102870000D03*
X148082000Y-100330000D03*
X148082000Y-97790000D03*
X148082000Y-95250000D03*
X148082000Y-92710000D03*
X148082000Y-90170000D03*
X148082000Y-87630000D03*
X148082000Y-85090000D03*
X148082000Y-82550000D03*
X148082000Y-80010000D03*
X148082000Y-77470000D03*
X148082000Y-74930000D03*
X148082000Y-72390000D03*
X148082000Y-69850000D03*
D10*
X148082000Y-67310000D03*
G04 #@! TD*
G04 #@! TO.C,J4*
X138684000Y-109220000D03*
D11*
X138684000Y-106680000D03*
X138684000Y-104140000D03*
G04 #@! TD*
D10*
G04 #@! TO.C,J7*
X90170000Y-67310000D03*
D11*
X90170000Y-69850000D03*
X90170000Y-72390000D03*
X90170000Y-74930000D03*
X90170000Y-77470000D03*
X90170000Y-80010000D03*
X90170000Y-82550000D03*
X90170000Y-85090000D03*
X90170000Y-87630000D03*
X90170000Y-90170000D03*
X90170000Y-92710000D03*
X90170000Y-95250000D03*
X90170000Y-97790000D03*
X90170000Y-100330000D03*
X90170000Y-102870000D03*
G04 #@! TD*
D14*
G04 #@! TO.C,L5*
X136740000Y-94234000D03*
X142240000Y-94234000D03*
G04 #@! TD*
D12*
G04 #@! TO.C,R1*
G36*
X142102581Y-64300625D02*
X142135343Y-64305485D01*
X142167471Y-64313533D01*
X142198656Y-64324691D01*
X142228596Y-64338852D01*
X142257005Y-64355879D01*
X142283608Y-64375609D01*
X142308149Y-64397851D01*
X142330391Y-64422392D01*
X142350121Y-64448995D01*
X142367148Y-64477404D01*
X142381309Y-64507344D01*
X142392467Y-64538529D01*
X142400515Y-64570657D01*
X142405375Y-64603419D01*
X142407000Y-64636500D01*
X142407000Y-65411500D01*
X142405375Y-65444581D01*
X142400515Y-65477343D01*
X142392467Y-65509471D01*
X142381309Y-65540656D01*
X142367148Y-65570596D01*
X142350121Y-65599005D01*
X142330391Y-65625608D01*
X142308149Y-65650149D01*
X142283608Y-65672391D01*
X142257005Y-65692121D01*
X142228596Y-65709148D01*
X142198656Y-65723309D01*
X142167471Y-65734467D01*
X142135343Y-65742515D01*
X142102581Y-65747375D01*
X142069500Y-65749000D01*
X141394500Y-65749000D01*
X141361419Y-65747375D01*
X141328657Y-65742515D01*
X141296529Y-65734467D01*
X141265344Y-65723309D01*
X141235404Y-65709148D01*
X141206995Y-65692121D01*
X141180392Y-65672391D01*
X141155851Y-65650149D01*
X141133609Y-65625608D01*
X141113879Y-65599005D01*
X141096852Y-65570596D01*
X141082691Y-65540656D01*
X141071533Y-65509471D01*
X141063485Y-65477343D01*
X141058625Y-65444581D01*
X141057000Y-65411500D01*
X141057000Y-64636500D01*
X141058625Y-64603419D01*
X141063485Y-64570657D01*
X141071533Y-64538529D01*
X141082691Y-64507344D01*
X141096852Y-64477404D01*
X141113879Y-64448995D01*
X141133609Y-64422392D01*
X141155851Y-64397851D01*
X141180392Y-64375609D01*
X141206995Y-64355879D01*
X141235404Y-64338852D01*
X141265344Y-64324691D01*
X141296529Y-64313533D01*
X141328657Y-64305485D01*
X141361419Y-64300625D01*
X141394500Y-64299000D01*
X142069500Y-64299000D01*
X142102581Y-64300625D01*
X142102581Y-64300625D01*
G37*
D13*
X141732000Y-65024000D03*
D12*
G36*
X142102581Y-66050625D02*
X142135343Y-66055485D01*
X142167471Y-66063533D01*
X142198656Y-66074691D01*
X142228596Y-66088852D01*
X142257005Y-66105879D01*
X142283608Y-66125609D01*
X142308149Y-66147851D01*
X142330391Y-66172392D01*
X142350121Y-66198995D01*
X142367148Y-66227404D01*
X142381309Y-66257344D01*
X142392467Y-66288529D01*
X142400515Y-66320657D01*
X142405375Y-66353419D01*
X142407000Y-66386500D01*
X142407000Y-67161500D01*
X142405375Y-67194581D01*
X142400515Y-67227343D01*
X142392467Y-67259471D01*
X142381309Y-67290656D01*
X142367148Y-67320596D01*
X142350121Y-67349005D01*
X142330391Y-67375608D01*
X142308149Y-67400149D01*
X142283608Y-67422391D01*
X142257005Y-67442121D01*
X142228596Y-67459148D01*
X142198656Y-67473309D01*
X142167471Y-67484467D01*
X142135343Y-67492515D01*
X142102581Y-67497375D01*
X142069500Y-67499000D01*
X141394500Y-67499000D01*
X141361419Y-67497375D01*
X141328657Y-67492515D01*
X141296529Y-67484467D01*
X141265344Y-67473309D01*
X141235404Y-67459148D01*
X141206995Y-67442121D01*
X141180392Y-67422391D01*
X141155851Y-67400149D01*
X141133609Y-67375608D01*
X141113879Y-67349005D01*
X141096852Y-67320596D01*
X141082691Y-67290656D01*
X141071533Y-67259471D01*
X141063485Y-67227343D01*
X141058625Y-67194581D01*
X141057000Y-67161500D01*
X141057000Y-66386500D01*
X141058625Y-66353419D01*
X141063485Y-66320657D01*
X141071533Y-66288529D01*
X141082691Y-66257344D01*
X141096852Y-66227404D01*
X141113879Y-66198995D01*
X141133609Y-66172392D01*
X141155851Y-66147851D01*
X141180392Y-66125609D01*
X141206995Y-66105879D01*
X141235404Y-66088852D01*
X141265344Y-66074691D01*
X141296529Y-66063533D01*
X141328657Y-66055485D01*
X141361419Y-66050625D01*
X141394500Y-66049000D01*
X142069500Y-66049000D01*
X142102581Y-66050625D01*
X142102581Y-66050625D01*
G37*
D13*
X141732000Y-66774000D03*
G04 #@! TD*
D12*
G04 #@! TO.C,R4*
G36*
X135294581Y-67144625D02*
X135327343Y-67149485D01*
X135359471Y-67157533D01*
X135390656Y-67168691D01*
X135420596Y-67182852D01*
X135449005Y-67199879D01*
X135475608Y-67219609D01*
X135500149Y-67241851D01*
X135522391Y-67266392D01*
X135542121Y-67292995D01*
X135559148Y-67321404D01*
X135573309Y-67351344D01*
X135584467Y-67382529D01*
X135592515Y-67414657D01*
X135597375Y-67447419D01*
X135599000Y-67480500D01*
X135599000Y-68155500D01*
X135597375Y-68188581D01*
X135592515Y-68221343D01*
X135584467Y-68253471D01*
X135573309Y-68284656D01*
X135559148Y-68314596D01*
X135542121Y-68343005D01*
X135522391Y-68369608D01*
X135500149Y-68394149D01*
X135475608Y-68416391D01*
X135449005Y-68436121D01*
X135420596Y-68453148D01*
X135390656Y-68467309D01*
X135359471Y-68478467D01*
X135327343Y-68486515D01*
X135294581Y-68491375D01*
X135261500Y-68493000D01*
X134486500Y-68493000D01*
X134453419Y-68491375D01*
X134420657Y-68486515D01*
X134388529Y-68478467D01*
X134357344Y-68467309D01*
X134327404Y-68453148D01*
X134298995Y-68436121D01*
X134272392Y-68416391D01*
X134247851Y-68394149D01*
X134225609Y-68369608D01*
X134205879Y-68343005D01*
X134188852Y-68314596D01*
X134174691Y-68284656D01*
X134163533Y-68253471D01*
X134155485Y-68221343D01*
X134150625Y-68188581D01*
X134149000Y-68155500D01*
X134149000Y-67480500D01*
X134150625Y-67447419D01*
X134155485Y-67414657D01*
X134163533Y-67382529D01*
X134174691Y-67351344D01*
X134188852Y-67321404D01*
X134205879Y-67292995D01*
X134225609Y-67266392D01*
X134247851Y-67241851D01*
X134272392Y-67219609D01*
X134298995Y-67199879D01*
X134327404Y-67182852D01*
X134357344Y-67168691D01*
X134388529Y-67157533D01*
X134420657Y-67149485D01*
X134453419Y-67144625D01*
X134486500Y-67143000D01*
X135261500Y-67143000D01*
X135294581Y-67144625D01*
X135294581Y-67144625D01*
G37*
D13*
X134874000Y-67818000D03*
D12*
G36*
X133544581Y-67144625D02*
X133577343Y-67149485D01*
X133609471Y-67157533D01*
X133640656Y-67168691D01*
X133670596Y-67182852D01*
X133699005Y-67199879D01*
X133725608Y-67219609D01*
X133750149Y-67241851D01*
X133772391Y-67266392D01*
X133792121Y-67292995D01*
X133809148Y-67321404D01*
X133823309Y-67351344D01*
X133834467Y-67382529D01*
X133842515Y-67414657D01*
X133847375Y-67447419D01*
X133849000Y-67480500D01*
X133849000Y-68155500D01*
X133847375Y-68188581D01*
X133842515Y-68221343D01*
X133834467Y-68253471D01*
X133823309Y-68284656D01*
X133809148Y-68314596D01*
X133792121Y-68343005D01*
X133772391Y-68369608D01*
X133750149Y-68394149D01*
X133725608Y-68416391D01*
X133699005Y-68436121D01*
X133670596Y-68453148D01*
X133640656Y-68467309D01*
X133609471Y-68478467D01*
X133577343Y-68486515D01*
X133544581Y-68491375D01*
X133511500Y-68493000D01*
X132736500Y-68493000D01*
X132703419Y-68491375D01*
X132670657Y-68486515D01*
X132638529Y-68478467D01*
X132607344Y-68467309D01*
X132577404Y-68453148D01*
X132548995Y-68436121D01*
X132522392Y-68416391D01*
X132497851Y-68394149D01*
X132475609Y-68369608D01*
X132455879Y-68343005D01*
X132438852Y-68314596D01*
X132424691Y-68284656D01*
X132413533Y-68253471D01*
X132405485Y-68221343D01*
X132400625Y-68188581D01*
X132399000Y-68155500D01*
X132399000Y-67480500D01*
X132400625Y-67447419D01*
X132405485Y-67414657D01*
X132413533Y-67382529D01*
X132424691Y-67351344D01*
X132438852Y-67321404D01*
X132455879Y-67292995D01*
X132475609Y-67266392D01*
X132497851Y-67241851D01*
X132522392Y-67219609D01*
X132548995Y-67199879D01*
X132577404Y-67182852D01*
X132607344Y-67168691D01*
X132638529Y-67157533D01*
X132670657Y-67149485D01*
X132703419Y-67144625D01*
X132736500Y-67143000D01*
X133511500Y-67143000D01*
X133544581Y-67144625D01*
X133544581Y-67144625D01*
G37*
D13*
X133124000Y-67818000D03*
G04 #@! TD*
D12*
G04 #@! TO.C,R5*
G36*
X133544581Y-65493625D02*
X133577343Y-65498485D01*
X133609471Y-65506533D01*
X133640656Y-65517691D01*
X133670596Y-65531852D01*
X133699005Y-65548879D01*
X133725608Y-65568609D01*
X133750149Y-65590851D01*
X133772391Y-65615392D01*
X133792121Y-65641995D01*
X133809148Y-65670404D01*
X133823309Y-65700344D01*
X133834467Y-65731529D01*
X133842515Y-65763657D01*
X133847375Y-65796419D01*
X133849000Y-65829500D01*
X133849000Y-66504500D01*
X133847375Y-66537581D01*
X133842515Y-66570343D01*
X133834467Y-66602471D01*
X133823309Y-66633656D01*
X133809148Y-66663596D01*
X133792121Y-66692005D01*
X133772391Y-66718608D01*
X133750149Y-66743149D01*
X133725608Y-66765391D01*
X133699005Y-66785121D01*
X133670596Y-66802148D01*
X133640656Y-66816309D01*
X133609471Y-66827467D01*
X133577343Y-66835515D01*
X133544581Y-66840375D01*
X133511500Y-66842000D01*
X132736500Y-66842000D01*
X132703419Y-66840375D01*
X132670657Y-66835515D01*
X132638529Y-66827467D01*
X132607344Y-66816309D01*
X132577404Y-66802148D01*
X132548995Y-66785121D01*
X132522392Y-66765391D01*
X132497851Y-66743149D01*
X132475609Y-66718608D01*
X132455879Y-66692005D01*
X132438852Y-66663596D01*
X132424691Y-66633656D01*
X132413533Y-66602471D01*
X132405485Y-66570343D01*
X132400625Y-66537581D01*
X132399000Y-66504500D01*
X132399000Y-65829500D01*
X132400625Y-65796419D01*
X132405485Y-65763657D01*
X132413533Y-65731529D01*
X132424691Y-65700344D01*
X132438852Y-65670404D01*
X132455879Y-65641995D01*
X132475609Y-65615392D01*
X132497851Y-65590851D01*
X132522392Y-65568609D01*
X132548995Y-65548879D01*
X132577404Y-65531852D01*
X132607344Y-65517691D01*
X132638529Y-65506533D01*
X132670657Y-65498485D01*
X132703419Y-65493625D01*
X132736500Y-65492000D01*
X133511500Y-65492000D01*
X133544581Y-65493625D01*
X133544581Y-65493625D01*
G37*
D13*
X133124000Y-66167000D03*
D12*
G36*
X135294581Y-65493625D02*
X135327343Y-65498485D01*
X135359471Y-65506533D01*
X135390656Y-65517691D01*
X135420596Y-65531852D01*
X135449005Y-65548879D01*
X135475608Y-65568609D01*
X135500149Y-65590851D01*
X135522391Y-65615392D01*
X135542121Y-65641995D01*
X135559148Y-65670404D01*
X135573309Y-65700344D01*
X135584467Y-65731529D01*
X135592515Y-65763657D01*
X135597375Y-65796419D01*
X135599000Y-65829500D01*
X135599000Y-66504500D01*
X135597375Y-66537581D01*
X135592515Y-66570343D01*
X135584467Y-66602471D01*
X135573309Y-66633656D01*
X135559148Y-66663596D01*
X135542121Y-66692005D01*
X135522391Y-66718608D01*
X135500149Y-66743149D01*
X135475608Y-66765391D01*
X135449005Y-66785121D01*
X135420596Y-66802148D01*
X135390656Y-66816309D01*
X135359471Y-66827467D01*
X135327343Y-66835515D01*
X135294581Y-66840375D01*
X135261500Y-66842000D01*
X134486500Y-66842000D01*
X134453419Y-66840375D01*
X134420657Y-66835515D01*
X134388529Y-66827467D01*
X134357344Y-66816309D01*
X134327404Y-66802148D01*
X134298995Y-66785121D01*
X134272392Y-66765391D01*
X134247851Y-66743149D01*
X134225609Y-66718608D01*
X134205879Y-66692005D01*
X134188852Y-66663596D01*
X134174691Y-66633656D01*
X134163533Y-66602471D01*
X134155485Y-66570343D01*
X134150625Y-66537581D01*
X134149000Y-66504500D01*
X134149000Y-65829500D01*
X134150625Y-65796419D01*
X134155485Y-65763657D01*
X134163533Y-65731529D01*
X134174691Y-65700344D01*
X134188852Y-65670404D01*
X134205879Y-65641995D01*
X134225609Y-65615392D01*
X134247851Y-65590851D01*
X134272392Y-65568609D01*
X134298995Y-65548879D01*
X134327404Y-65531852D01*
X134357344Y-65517691D01*
X134388529Y-65506533D01*
X134420657Y-65498485D01*
X134453419Y-65493625D01*
X134486500Y-65492000D01*
X135261500Y-65492000D01*
X135294581Y-65493625D01*
X135294581Y-65493625D01*
G37*
D13*
X134874000Y-66167000D03*
G04 #@! TD*
D15*
G04 #@! TO.C,U1*
X114392000Y-77156000D03*
X114892000Y-77156000D03*
X115392000Y-77156000D03*
X115892000Y-77156000D03*
X116392000Y-77156000D03*
X116892000Y-77156000D03*
X117392000Y-77156000D03*
X117892000Y-77156000D03*
X118392000Y-77156000D03*
X118892000Y-77156000D03*
X119392000Y-77156000D03*
X119892000Y-77156000D03*
X120392000Y-77156000D03*
X120892000Y-77156000D03*
X121392000Y-77156000D03*
X121892000Y-77156000D03*
X122392000Y-77156000D03*
X122892000Y-77156000D03*
X123392000Y-77156000D03*
X123892000Y-77156000D03*
X124392000Y-77156000D03*
X124892000Y-77156000D03*
X125392000Y-77156000D03*
X125892000Y-77156000D03*
X125892000Y-69656000D03*
X125392000Y-69656000D03*
X124892000Y-69656000D03*
X124392000Y-69656000D03*
X123892000Y-69656000D03*
X123392000Y-69656000D03*
X122892000Y-69656000D03*
X122392000Y-69656000D03*
X121892000Y-69656000D03*
X121392000Y-69656000D03*
X120892000Y-69656000D03*
X120392000Y-69656000D03*
X119892000Y-69656000D03*
X119392000Y-69656000D03*
X118892000Y-69656000D03*
X118392000Y-69656000D03*
X117892000Y-69656000D03*
X117392000Y-69656000D03*
X116892000Y-69656000D03*
X116392000Y-69656000D03*
X115892000Y-69656000D03*
X115392000Y-69656000D03*
X114892000Y-69656000D03*
X114392000Y-69656000D03*
D16*
X120142000Y-73406000D03*
G04 #@! TD*
D12*
G04 #@! TO.C,C1*
G36*
X99452581Y-76542625D02*
X99485343Y-76547485D01*
X99517471Y-76555533D01*
X99548656Y-76566691D01*
X99578596Y-76580852D01*
X99607005Y-76597879D01*
X99633608Y-76617609D01*
X99658149Y-76639851D01*
X99680391Y-76664392D01*
X99700121Y-76690995D01*
X99717148Y-76719404D01*
X99731309Y-76749344D01*
X99742467Y-76780529D01*
X99750515Y-76812657D01*
X99755375Y-76845419D01*
X99757000Y-76878500D01*
X99757000Y-77553500D01*
X99755375Y-77586581D01*
X99750515Y-77619343D01*
X99742467Y-77651471D01*
X99731309Y-77682656D01*
X99717148Y-77712596D01*
X99700121Y-77741005D01*
X99680391Y-77767608D01*
X99658149Y-77792149D01*
X99633608Y-77814391D01*
X99607005Y-77834121D01*
X99578596Y-77851148D01*
X99548656Y-77865309D01*
X99517471Y-77876467D01*
X99485343Y-77884515D01*
X99452581Y-77889375D01*
X99419500Y-77891000D01*
X98644500Y-77891000D01*
X98611419Y-77889375D01*
X98578657Y-77884515D01*
X98546529Y-77876467D01*
X98515344Y-77865309D01*
X98485404Y-77851148D01*
X98456995Y-77834121D01*
X98430392Y-77814391D01*
X98405851Y-77792149D01*
X98383609Y-77767608D01*
X98363879Y-77741005D01*
X98346852Y-77712596D01*
X98332691Y-77682656D01*
X98321533Y-77651471D01*
X98313485Y-77619343D01*
X98308625Y-77586581D01*
X98307000Y-77553500D01*
X98307000Y-76878500D01*
X98308625Y-76845419D01*
X98313485Y-76812657D01*
X98321533Y-76780529D01*
X98332691Y-76749344D01*
X98346852Y-76719404D01*
X98363879Y-76690995D01*
X98383609Y-76664392D01*
X98405851Y-76639851D01*
X98430392Y-76617609D01*
X98456995Y-76597879D01*
X98485404Y-76580852D01*
X98515344Y-76566691D01*
X98546529Y-76555533D01*
X98578657Y-76547485D01*
X98611419Y-76542625D01*
X98644500Y-76541000D01*
X99419500Y-76541000D01*
X99452581Y-76542625D01*
X99452581Y-76542625D01*
G37*
D13*
X99032000Y-77216000D03*
D12*
G36*
X97702581Y-76542625D02*
X97735343Y-76547485D01*
X97767471Y-76555533D01*
X97798656Y-76566691D01*
X97828596Y-76580852D01*
X97857005Y-76597879D01*
X97883608Y-76617609D01*
X97908149Y-76639851D01*
X97930391Y-76664392D01*
X97950121Y-76690995D01*
X97967148Y-76719404D01*
X97981309Y-76749344D01*
X97992467Y-76780529D01*
X98000515Y-76812657D01*
X98005375Y-76845419D01*
X98007000Y-76878500D01*
X98007000Y-77553500D01*
X98005375Y-77586581D01*
X98000515Y-77619343D01*
X97992467Y-77651471D01*
X97981309Y-77682656D01*
X97967148Y-77712596D01*
X97950121Y-77741005D01*
X97930391Y-77767608D01*
X97908149Y-77792149D01*
X97883608Y-77814391D01*
X97857005Y-77834121D01*
X97828596Y-77851148D01*
X97798656Y-77865309D01*
X97767471Y-77876467D01*
X97735343Y-77884515D01*
X97702581Y-77889375D01*
X97669500Y-77891000D01*
X96894500Y-77891000D01*
X96861419Y-77889375D01*
X96828657Y-77884515D01*
X96796529Y-77876467D01*
X96765344Y-77865309D01*
X96735404Y-77851148D01*
X96706995Y-77834121D01*
X96680392Y-77814391D01*
X96655851Y-77792149D01*
X96633609Y-77767608D01*
X96613879Y-77741005D01*
X96596852Y-77712596D01*
X96582691Y-77682656D01*
X96571533Y-77651471D01*
X96563485Y-77619343D01*
X96558625Y-77586581D01*
X96557000Y-77553500D01*
X96557000Y-76878500D01*
X96558625Y-76845419D01*
X96563485Y-76812657D01*
X96571533Y-76780529D01*
X96582691Y-76749344D01*
X96596852Y-76719404D01*
X96613879Y-76690995D01*
X96633609Y-76664392D01*
X96655851Y-76639851D01*
X96680392Y-76617609D01*
X96706995Y-76597879D01*
X96735404Y-76580852D01*
X96765344Y-76566691D01*
X96796529Y-76555533D01*
X96828657Y-76547485D01*
X96861419Y-76542625D01*
X96894500Y-76541000D01*
X97669500Y-76541000D01*
X97702581Y-76542625D01*
X97702581Y-76542625D01*
G37*
D13*
X97282000Y-77216000D03*
G04 #@! TD*
D12*
G04 #@! TO.C,C2*
G36*
X110451071Y-92444623D02*
X110483781Y-92449475D01*
X110515857Y-92457509D01*
X110546991Y-92468649D01*
X110576884Y-92482787D01*
X110605247Y-92499787D01*
X110631807Y-92519485D01*
X110656308Y-92541692D01*
X110678515Y-92566193D01*
X110698213Y-92592753D01*
X110715213Y-92621116D01*
X110729351Y-92651009D01*
X110740491Y-92682143D01*
X110748525Y-92714219D01*
X110753377Y-92746929D01*
X110755000Y-92779956D01*
X110755000Y-93656044D01*
X110753377Y-93689071D01*
X110748525Y-93721781D01*
X110740491Y-93753857D01*
X110729351Y-93784991D01*
X110715213Y-93814884D01*
X110698213Y-93843247D01*
X110678515Y-93869807D01*
X110656308Y-93894308D01*
X110631807Y-93916515D01*
X110605247Y-93936213D01*
X110576884Y-93953213D01*
X110546991Y-93967351D01*
X110515857Y-93978491D01*
X110483781Y-93986525D01*
X110451071Y-93991377D01*
X110418044Y-93993000D01*
X109291956Y-93993000D01*
X109258929Y-93991377D01*
X109226219Y-93986525D01*
X109194143Y-93978491D01*
X109163009Y-93967351D01*
X109133116Y-93953213D01*
X109104753Y-93936213D01*
X109078193Y-93916515D01*
X109053692Y-93894308D01*
X109031485Y-93869807D01*
X109011787Y-93843247D01*
X108994787Y-93814884D01*
X108980649Y-93784991D01*
X108969509Y-93753857D01*
X108961475Y-93721781D01*
X108956623Y-93689071D01*
X108955000Y-93656044D01*
X108955000Y-92779956D01*
X108956623Y-92746929D01*
X108961475Y-92714219D01*
X108969509Y-92682143D01*
X108980649Y-92651009D01*
X108994787Y-92621116D01*
X109011787Y-92592753D01*
X109031485Y-92566193D01*
X109053692Y-92541692D01*
X109078193Y-92519485D01*
X109104753Y-92499787D01*
X109133116Y-92482787D01*
X109163009Y-92468649D01*
X109194143Y-92457509D01*
X109226219Y-92449475D01*
X109258929Y-92444623D01*
X109291956Y-92443000D01*
X110418044Y-92443000D01*
X110451071Y-92444623D01*
X110451071Y-92444623D01*
G37*
D17*
X109855000Y-93218000D03*
D12*
G36*
X110451071Y-94494623D02*
X110483781Y-94499475D01*
X110515857Y-94507509D01*
X110546991Y-94518649D01*
X110576884Y-94532787D01*
X110605247Y-94549787D01*
X110631807Y-94569485D01*
X110656308Y-94591692D01*
X110678515Y-94616193D01*
X110698213Y-94642753D01*
X110715213Y-94671116D01*
X110729351Y-94701009D01*
X110740491Y-94732143D01*
X110748525Y-94764219D01*
X110753377Y-94796929D01*
X110755000Y-94829956D01*
X110755000Y-95706044D01*
X110753377Y-95739071D01*
X110748525Y-95771781D01*
X110740491Y-95803857D01*
X110729351Y-95834991D01*
X110715213Y-95864884D01*
X110698213Y-95893247D01*
X110678515Y-95919807D01*
X110656308Y-95944308D01*
X110631807Y-95966515D01*
X110605247Y-95986213D01*
X110576884Y-96003213D01*
X110546991Y-96017351D01*
X110515857Y-96028491D01*
X110483781Y-96036525D01*
X110451071Y-96041377D01*
X110418044Y-96043000D01*
X109291956Y-96043000D01*
X109258929Y-96041377D01*
X109226219Y-96036525D01*
X109194143Y-96028491D01*
X109163009Y-96017351D01*
X109133116Y-96003213D01*
X109104753Y-95986213D01*
X109078193Y-95966515D01*
X109053692Y-95944308D01*
X109031485Y-95919807D01*
X109011787Y-95893247D01*
X108994787Y-95864884D01*
X108980649Y-95834991D01*
X108969509Y-95803857D01*
X108961475Y-95771781D01*
X108956623Y-95739071D01*
X108955000Y-95706044D01*
X108955000Y-94829956D01*
X108956623Y-94796929D01*
X108961475Y-94764219D01*
X108969509Y-94732143D01*
X108980649Y-94701009D01*
X108994787Y-94671116D01*
X109011787Y-94642753D01*
X109031485Y-94616193D01*
X109053692Y-94591692D01*
X109078193Y-94569485D01*
X109104753Y-94549787D01*
X109133116Y-94532787D01*
X109163009Y-94518649D01*
X109194143Y-94507509D01*
X109226219Y-94499475D01*
X109258929Y-94494623D01*
X109291956Y-94493000D01*
X110418044Y-94493000D01*
X110451071Y-94494623D01*
X110451071Y-94494623D01*
G37*
D17*
X109855000Y-95268000D03*
G04 #@! TD*
D18*
G04 #@! TO.C,C3*
X101092000Y-75377000D03*
X101092000Y-69977000D03*
G04 #@! TD*
D12*
G04 #@! TO.C,R3*
G36*
X101970581Y-85255625D02*
X102003343Y-85260485D01*
X102035471Y-85268533D01*
X102066656Y-85279691D01*
X102096596Y-85293852D01*
X102125005Y-85310879D01*
X102151608Y-85330609D01*
X102176149Y-85352851D01*
X102198391Y-85377392D01*
X102218121Y-85403995D01*
X102235148Y-85432404D01*
X102249309Y-85462344D01*
X102260467Y-85493529D01*
X102268515Y-85525657D01*
X102273375Y-85558419D01*
X102275000Y-85591500D01*
X102275000Y-86366500D01*
X102273375Y-86399581D01*
X102268515Y-86432343D01*
X102260467Y-86464471D01*
X102249309Y-86495656D01*
X102235148Y-86525596D01*
X102218121Y-86554005D01*
X102198391Y-86580608D01*
X102176149Y-86605149D01*
X102151608Y-86627391D01*
X102125005Y-86647121D01*
X102096596Y-86664148D01*
X102066656Y-86678309D01*
X102035471Y-86689467D01*
X102003343Y-86697515D01*
X101970581Y-86702375D01*
X101937500Y-86704000D01*
X101262500Y-86704000D01*
X101229419Y-86702375D01*
X101196657Y-86697515D01*
X101164529Y-86689467D01*
X101133344Y-86678309D01*
X101103404Y-86664148D01*
X101074995Y-86647121D01*
X101048392Y-86627391D01*
X101023851Y-86605149D01*
X101001609Y-86580608D01*
X100981879Y-86554005D01*
X100964852Y-86525596D01*
X100950691Y-86495656D01*
X100939533Y-86464471D01*
X100931485Y-86432343D01*
X100926625Y-86399581D01*
X100925000Y-86366500D01*
X100925000Y-85591500D01*
X100926625Y-85558419D01*
X100931485Y-85525657D01*
X100939533Y-85493529D01*
X100950691Y-85462344D01*
X100964852Y-85432404D01*
X100981879Y-85403995D01*
X101001609Y-85377392D01*
X101023851Y-85352851D01*
X101048392Y-85330609D01*
X101074995Y-85310879D01*
X101103404Y-85293852D01*
X101133344Y-85279691D01*
X101164529Y-85268533D01*
X101196657Y-85260485D01*
X101229419Y-85255625D01*
X101262500Y-85254000D01*
X101937500Y-85254000D01*
X101970581Y-85255625D01*
X101970581Y-85255625D01*
G37*
D13*
X101600000Y-85979000D03*
D12*
G36*
X101970581Y-83505625D02*
X102003343Y-83510485D01*
X102035471Y-83518533D01*
X102066656Y-83529691D01*
X102096596Y-83543852D01*
X102125005Y-83560879D01*
X102151608Y-83580609D01*
X102176149Y-83602851D01*
X102198391Y-83627392D01*
X102218121Y-83653995D01*
X102235148Y-83682404D01*
X102249309Y-83712344D01*
X102260467Y-83743529D01*
X102268515Y-83775657D01*
X102273375Y-83808419D01*
X102275000Y-83841500D01*
X102275000Y-84616500D01*
X102273375Y-84649581D01*
X102268515Y-84682343D01*
X102260467Y-84714471D01*
X102249309Y-84745656D01*
X102235148Y-84775596D01*
X102218121Y-84804005D01*
X102198391Y-84830608D01*
X102176149Y-84855149D01*
X102151608Y-84877391D01*
X102125005Y-84897121D01*
X102096596Y-84914148D01*
X102066656Y-84928309D01*
X102035471Y-84939467D01*
X102003343Y-84947515D01*
X101970581Y-84952375D01*
X101937500Y-84954000D01*
X101262500Y-84954000D01*
X101229419Y-84952375D01*
X101196657Y-84947515D01*
X101164529Y-84939467D01*
X101133344Y-84928309D01*
X101103404Y-84914148D01*
X101074995Y-84897121D01*
X101048392Y-84877391D01*
X101023851Y-84855149D01*
X101001609Y-84830608D01*
X100981879Y-84804005D01*
X100964852Y-84775596D01*
X100950691Y-84745656D01*
X100939533Y-84714471D01*
X100931485Y-84682343D01*
X100926625Y-84649581D01*
X100925000Y-84616500D01*
X100925000Y-83841500D01*
X100926625Y-83808419D01*
X100931485Y-83775657D01*
X100939533Y-83743529D01*
X100950691Y-83712344D01*
X100964852Y-83682404D01*
X100981879Y-83653995D01*
X101001609Y-83627392D01*
X101023851Y-83602851D01*
X101048392Y-83580609D01*
X101074995Y-83560879D01*
X101103404Y-83543852D01*
X101133344Y-83529691D01*
X101164529Y-83518533D01*
X101196657Y-83510485D01*
X101229419Y-83505625D01*
X101262500Y-83504000D01*
X101937500Y-83504000D01*
X101970581Y-83505625D01*
X101970581Y-83505625D01*
G37*
D13*
X101600000Y-84229000D03*
G04 #@! TD*
D12*
G04 #@! TO.C,R6*
G36*
X119496581Y-83505625D02*
X119529343Y-83510485D01*
X119561471Y-83518533D01*
X119592656Y-83529691D01*
X119622596Y-83543852D01*
X119651005Y-83560879D01*
X119677608Y-83580609D01*
X119702149Y-83602851D01*
X119724391Y-83627392D01*
X119744121Y-83653995D01*
X119761148Y-83682404D01*
X119775309Y-83712344D01*
X119786467Y-83743529D01*
X119794515Y-83775657D01*
X119799375Y-83808419D01*
X119801000Y-83841500D01*
X119801000Y-84616500D01*
X119799375Y-84649581D01*
X119794515Y-84682343D01*
X119786467Y-84714471D01*
X119775309Y-84745656D01*
X119761148Y-84775596D01*
X119744121Y-84804005D01*
X119724391Y-84830608D01*
X119702149Y-84855149D01*
X119677608Y-84877391D01*
X119651005Y-84897121D01*
X119622596Y-84914148D01*
X119592656Y-84928309D01*
X119561471Y-84939467D01*
X119529343Y-84947515D01*
X119496581Y-84952375D01*
X119463500Y-84954000D01*
X118788500Y-84954000D01*
X118755419Y-84952375D01*
X118722657Y-84947515D01*
X118690529Y-84939467D01*
X118659344Y-84928309D01*
X118629404Y-84914148D01*
X118600995Y-84897121D01*
X118574392Y-84877391D01*
X118549851Y-84855149D01*
X118527609Y-84830608D01*
X118507879Y-84804005D01*
X118490852Y-84775596D01*
X118476691Y-84745656D01*
X118465533Y-84714471D01*
X118457485Y-84682343D01*
X118452625Y-84649581D01*
X118451000Y-84616500D01*
X118451000Y-83841500D01*
X118452625Y-83808419D01*
X118457485Y-83775657D01*
X118465533Y-83743529D01*
X118476691Y-83712344D01*
X118490852Y-83682404D01*
X118507879Y-83653995D01*
X118527609Y-83627392D01*
X118549851Y-83602851D01*
X118574392Y-83580609D01*
X118600995Y-83560879D01*
X118629404Y-83543852D01*
X118659344Y-83529691D01*
X118690529Y-83518533D01*
X118722657Y-83510485D01*
X118755419Y-83505625D01*
X118788500Y-83504000D01*
X119463500Y-83504000D01*
X119496581Y-83505625D01*
X119496581Y-83505625D01*
G37*
D13*
X119126000Y-84229000D03*
D12*
G36*
X119496581Y-85255625D02*
X119529343Y-85260485D01*
X119561471Y-85268533D01*
X119592656Y-85279691D01*
X119622596Y-85293852D01*
X119651005Y-85310879D01*
X119677608Y-85330609D01*
X119702149Y-85352851D01*
X119724391Y-85377392D01*
X119744121Y-85403995D01*
X119761148Y-85432404D01*
X119775309Y-85462344D01*
X119786467Y-85493529D01*
X119794515Y-85525657D01*
X119799375Y-85558419D01*
X119801000Y-85591500D01*
X119801000Y-86366500D01*
X119799375Y-86399581D01*
X119794515Y-86432343D01*
X119786467Y-86464471D01*
X119775309Y-86495656D01*
X119761148Y-86525596D01*
X119744121Y-86554005D01*
X119724391Y-86580608D01*
X119702149Y-86605149D01*
X119677608Y-86627391D01*
X119651005Y-86647121D01*
X119622596Y-86664148D01*
X119592656Y-86678309D01*
X119561471Y-86689467D01*
X119529343Y-86697515D01*
X119496581Y-86702375D01*
X119463500Y-86704000D01*
X118788500Y-86704000D01*
X118755419Y-86702375D01*
X118722657Y-86697515D01*
X118690529Y-86689467D01*
X118659344Y-86678309D01*
X118629404Y-86664148D01*
X118600995Y-86647121D01*
X118574392Y-86627391D01*
X118549851Y-86605149D01*
X118527609Y-86580608D01*
X118507879Y-86554005D01*
X118490852Y-86525596D01*
X118476691Y-86495656D01*
X118465533Y-86464471D01*
X118457485Y-86432343D01*
X118452625Y-86399581D01*
X118451000Y-86366500D01*
X118451000Y-85591500D01*
X118452625Y-85558419D01*
X118457485Y-85525657D01*
X118465533Y-85493529D01*
X118476691Y-85462344D01*
X118490852Y-85432404D01*
X118507879Y-85403995D01*
X118527609Y-85377392D01*
X118549851Y-85352851D01*
X118574392Y-85330609D01*
X118600995Y-85310879D01*
X118629404Y-85293852D01*
X118659344Y-85279691D01*
X118690529Y-85268533D01*
X118722657Y-85260485D01*
X118755419Y-85255625D01*
X118788500Y-85254000D01*
X119463500Y-85254000D01*
X119496581Y-85255625D01*
X119496581Y-85255625D01*
G37*
D13*
X119126000Y-85979000D03*
G04 #@! TD*
D12*
G04 #@! TO.C,R7*
G36*
X110352581Y-75123625D02*
X110385343Y-75128485D01*
X110417471Y-75136533D01*
X110448656Y-75147691D01*
X110478596Y-75161852D01*
X110507005Y-75178879D01*
X110533608Y-75198609D01*
X110558149Y-75220851D01*
X110580391Y-75245392D01*
X110600121Y-75271995D01*
X110617148Y-75300404D01*
X110631309Y-75330344D01*
X110642467Y-75361529D01*
X110650515Y-75393657D01*
X110655375Y-75426419D01*
X110657000Y-75459500D01*
X110657000Y-76234500D01*
X110655375Y-76267581D01*
X110650515Y-76300343D01*
X110642467Y-76332471D01*
X110631309Y-76363656D01*
X110617148Y-76393596D01*
X110600121Y-76422005D01*
X110580391Y-76448608D01*
X110558149Y-76473149D01*
X110533608Y-76495391D01*
X110507005Y-76515121D01*
X110478596Y-76532148D01*
X110448656Y-76546309D01*
X110417471Y-76557467D01*
X110385343Y-76565515D01*
X110352581Y-76570375D01*
X110319500Y-76572000D01*
X109644500Y-76572000D01*
X109611419Y-76570375D01*
X109578657Y-76565515D01*
X109546529Y-76557467D01*
X109515344Y-76546309D01*
X109485404Y-76532148D01*
X109456995Y-76515121D01*
X109430392Y-76495391D01*
X109405851Y-76473149D01*
X109383609Y-76448608D01*
X109363879Y-76422005D01*
X109346852Y-76393596D01*
X109332691Y-76363656D01*
X109321533Y-76332471D01*
X109313485Y-76300343D01*
X109308625Y-76267581D01*
X109307000Y-76234500D01*
X109307000Y-75459500D01*
X109308625Y-75426419D01*
X109313485Y-75393657D01*
X109321533Y-75361529D01*
X109332691Y-75330344D01*
X109346852Y-75300404D01*
X109363879Y-75271995D01*
X109383609Y-75245392D01*
X109405851Y-75220851D01*
X109430392Y-75198609D01*
X109456995Y-75178879D01*
X109485404Y-75161852D01*
X109515344Y-75147691D01*
X109546529Y-75136533D01*
X109578657Y-75128485D01*
X109611419Y-75123625D01*
X109644500Y-75122000D01*
X110319500Y-75122000D01*
X110352581Y-75123625D01*
X110352581Y-75123625D01*
G37*
D13*
X109982000Y-75847000D03*
D12*
G36*
X110352581Y-76873625D02*
X110385343Y-76878485D01*
X110417471Y-76886533D01*
X110448656Y-76897691D01*
X110478596Y-76911852D01*
X110507005Y-76928879D01*
X110533608Y-76948609D01*
X110558149Y-76970851D01*
X110580391Y-76995392D01*
X110600121Y-77021995D01*
X110617148Y-77050404D01*
X110631309Y-77080344D01*
X110642467Y-77111529D01*
X110650515Y-77143657D01*
X110655375Y-77176419D01*
X110657000Y-77209500D01*
X110657000Y-77984500D01*
X110655375Y-78017581D01*
X110650515Y-78050343D01*
X110642467Y-78082471D01*
X110631309Y-78113656D01*
X110617148Y-78143596D01*
X110600121Y-78172005D01*
X110580391Y-78198608D01*
X110558149Y-78223149D01*
X110533608Y-78245391D01*
X110507005Y-78265121D01*
X110478596Y-78282148D01*
X110448656Y-78296309D01*
X110417471Y-78307467D01*
X110385343Y-78315515D01*
X110352581Y-78320375D01*
X110319500Y-78322000D01*
X109644500Y-78322000D01*
X109611419Y-78320375D01*
X109578657Y-78315515D01*
X109546529Y-78307467D01*
X109515344Y-78296309D01*
X109485404Y-78282148D01*
X109456995Y-78265121D01*
X109430392Y-78245391D01*
X109405851Y-78223149D01*
X109383609Y-78198608D01*
X109363879Y-78172005D01*
X109346852Y-78143596D01*
X109332691Y-78113656D01*
X109321533Y-78082471D01*
X109313485Y-78050343D01*
X109308625Y-78017581D01*
X109307000Y-77984500D01*
X109307000Y-77209500D01*
X109308625Y-77176419D01*
X109313485Y-77143657D01*
X109321533Y-77111529D01*
X109332691Y-77080344D01*
X109346852Y-77050404D01*
X109363879Y-77021995D01*
X109383609Y-76995392D01*
X109405851Y-76970851D01*
X109430392Y-76948609D01*
X109456995Y-76928879D01*
X109485404Y-76911852D01*
X109515344Y-76897691D01*
X109546529Y-76886533D01*
X109578657Y-76878485D01*
X109611419Y-76873625D01*
X109644500Y-76872000D01*
X110319500Y-76872000D01*
X110352581Y-76873625D01*
X110352581Y-76873625D01*
G37*
D13*
X109982000Y-77597000D03*
G04 #@! TD*
D12*
G04 #@! TO.C,R8*
G36*
X106669581Y-76845625D02*
X106702343Y-76850485D01*
X106734471Y-76858533D01*
X106765656Y-76869691D01*
X106795596Y-76883852D01*
X106824005Y-76900879D01*
X106850608Y-76920609D01*
X106875149Y-76942851D01*
X106897391Y-76967392D01*
X106917121Y-76993995D01*
X106934148Y-77022404D01*
X106948309Y-77052344D01*
X106959467Y-77083529D01*
X106967515Y-77115657D01*
X106972375Y-77148419D01*
X106974000Y-77181500D01*
X106974000Y-77956500D01*
X106972375Y-77989581D01*
X106967515Y-78022343D01*
X106959467Y-78054471D01*
X106948309Y-78085656D01*
X106934148Y-78115596D01*
X106917121Y-78144005D01*
X106897391Y-78170608D01*
X106875149Y-78195149D01*
X106850608Y-78217391D01*
X106824005Y-78237121D01*
X106795596Y-78254148D01*
X106765656Y-78268309D01*
X106734471Y-78279467D01*
X106702343Y-78287515D01*
X106669581Y-78292375D01*
X106636500Y-78294000D01*
X105961500Y-78294000D01*
X105928419Y-78292375D01*
X105895657Y-78287515D01*
X105863529Y-78279467D01*
X105832344Y-78268309D01*
X105802404Y-78254148D01*
X105773995Y-78237121D01*
X105747392Y-78217391D01*
X105722851Y-78195149D01*
X105700609Y-78170608D01*
X105680879Y-78144005D01*
X105663852Y-78115596D01*
X105649691Y-78085656D01*
X105638533Y-78054471D01*
X105630485Y-78022343D01*
X105625625Y-77989581D01*
X105624000Y-77956500D01*
X105624000Y-77181500D01*
X105625625Y-77148419D01*
X105630485Y-77115657D01*
X105638533Y-77083529D01*
X105649691Y-77052344D01*
X105663852Y-77022404D01*
X105680879Y-76993995D01*
X105700609Y-76967392D01*
X105722851Y-76942851D01*
X105747392Y-76920609D01*
X105773995Y-76900879D01*
X105802404Y-76883852D01*
X105832344Y-76869691D01*
X105863529Y-76858533D01*
X105895657Y-76850485D01*
X105928419Y-76845625D01*
X105961500Y-76844000D01*
X106636500Y-76844000D01*
X106669581Y-76845625D01*
X106669581Y-76845625D01*
G37*
D13*
X106299000Y-77569000D03*
D12*
G36*
X106669581Y-75095625D02*
X106702343Y-75100485D01*
X106734471Y-75108533D01*
X106765656Y-75119691D01*
X106795596Y-75133852D01*
X106824005Y-75150879D01*
X106850608Y-75170609D01*
X106875149Y-75192851D01*
X106897391Y-75217392D01*
X106917121Y-75243995D01*
X106934148Y-75272404D01*
X106948309Y-75302344D01*
X106959467Y-75333529D01*
X106967515Y-75365657D01*
X106972375Y-75398419D01*
X106974000Y-75431500D01*
X106974000Y-76206500D01*
X106972375Y-76239581D01*
X106967515Y-76272343D01*
X106959467Y-76304471D01*
X106948309Y-76335656D01*
X106934148Y-76365596D01*
X106917121Y-76394005D01*
X106897391Y-76420608D01*
X106875149Y-76445149D01*
X106850608Y-76467391D01*
X106824005Y-76487121D01*
X106795596Y-76504148D01*
X106765656Y-76518309D01*
X106734471Y-76529467D01*
X106702343Y-76537515D01*
X106669581Y-76542375D01*
X106636500Y-76544000D01*
X105961500Y-76544000D01*
X105928419Y-76542375D01*
X105895657Y-76537515D01*
X105863529Y-76529467D01*
X105832344Y-76518309D01*
X105802404Y-76504148D01*
X105773995Y-76487121D01*
X105747392Y-76467391D01*
X105722851Y-76445149D01*
X105700609Y-76420608D01*
X105680879Y-76394005D01*
X105663852Y-76365596D01*
X105649691Y-76335656D01*
X105638533Y-76304471D01*
X105630485Y-76272343D01*
X105625625Y-76239581D01*
X105624000Y-76206500D01*
X105624000Y-75431500D01*
X105625625Y-75398419D01*
X105630485Y-75365657D01*
X105638533Y-75333529D01*
X105649691Y-75302344D01*
X105663852Y-75272404D01*
X105680879Y-75243995D01*
X105700609Y-75217392D01*
X105722851Y-75192851D01*
X105747392Y-75170609D01*
X105773995Y-75150879D01*
X105802404Y-75133852D01*
X105832344Y-75119691D01*
X105863529Y-75108533D01*
X105895657Y-75100485D01*
X105928419Y-75095625D01*
X105961500Y-75094000D01*
X106636500Y-75094000D01*
X106669581Y-75095625D01*
X106669581Y-75095625D01*
G37*
D13*
X106299000Y-75819000D03*
G04 #@! TD*
D12*
G04 #@! TO.C,R11*
G36*
X129148581Y-87823625D02*
X129181343Y-87828485D01*
X129213471Y-87836533D01*
X129244656Y-87847691D01*
X129274596Y-87861852D01*
X129303005Y-87878879D01*
X129329608Y-87898609D01*
X129354149Y-87920851D01*
X129376391Y-87945392D01*
X129396121Y-87971995D01*
X129413148Y-88000404D01*
X129427309Y-88030344D01*
X129438467Y-88061529D01*
X129446515Y-88093657D01*
X129451375Y-88126419D01*
X129453000Y-88159500D01*
X129453000Y-88934500D01*
X129451375Y-88967581D01*
X129446515Y-89000343D01*
X129438467Y-89032471D01*
X129427309Y-89063656D01*
X129413148Y-89093596D01*
X129396121Y-89122005D01*
X129376391Y-89148608D01*
X129354149Y-89173149D01*
X129329608Y-89195391D01*
X129303005Y-89215121D01*
X129274596Y-89232148D01*
X129244656Y-89246309D01*
X129213471Y-89257467D01*
X129181343Y-89265515D01*
X129148581Y-89270375D01*
X129115500Y-89272000D01*
X128440500Y-89272000D01*
X128407419Y-89270375D01*
X128374657Y-89265515D01*
X128342529Y-89257467D01*
X128311344Y-89246309D01*
X128281404Y-89232148D01*
X128252995Y-89215121D01*
X128226392Y-89195391D01*
X128201851Y-89173149D01*
X128179609Y-89148608D01*
X128159879Y-89122005D01*
X128142852Y-89093596D01*
X128128691Y-89063656D01*
X128117533Y-89032471D01*
X128109485Y-89000343D01*
X128104625Y-88967581D01*
X128103000Y-88934500D01*
X128103000Y-88159500D01*
X128104625Y-88126419D01*
X128109485Y-88093657D01*
X128117533Y-88061529D01*
X128128691Y-88030344D01*
X128142852Y-88000404D01*
X128159879Y-87971995D01*
X128179609Y-87945392D01*
X128201851Y-87920851D01*
X128226392Y-87898609D01*
X128252995Y-87878879D01*
X128281404Y-87861852D01*
X128311344Y-87847691D01*
X128342529Y-87836533D01*
X128374657Y-87828485D01*
X128407419Y-87823625D01*
X128440500Y-87822000D01*
X129115500Y-87822000D01*
X129148581Y-87823625D01*
X129148581Y-87823625D01*
G37*
D13*
X128778000Y-88547000D03*
D12*
G36*
X129148581Y-89573625D02*
X129181343Y-89578485D01*
X129213471Y-89586533D01*
X129244656Y-89597691D01*
X129274596Y-89611852D01*
X129303005Y-89628879D01*
X129329608Y-89648609D01*
X129354149Y-89670851D01*
X129376391Y-89695392D01*
X129396121Y-89721995D01*
X129413148Y-89750404D01*
X129427309Y-89780344D01*
X129438467Y-89811529D01*
X129446515Y-89843657D01*
X129451375Y-89876419D01*
X129453000Y-89909500D01*
X129453000Y-90684500D01*
X129451375Y-90717581D01*
X129446515Y-90750343D01*
X129438467Y-90782471D01*
X129427309Y-90813656D01*
X129413148Y-90843596D01*
X129396121Y-90872005D01*
X129376391Y-90898608D01*
X129354149Y-90923149D01*
X129329608Y-90945391D01*
X129303005Y-90965121D01*
X129274596Y-90982148D01*
X129244656Y-90996309D01*
X129213471Y-91007467D01*
X129181343Y-91015515D01*
X129148581Y-91020375D01*
X129115500Y-91022000D01*
X128440500Y-91022000D01*
X128407419Y-91020375D01*
X128374657Y-91015515D01*
X128342529Y-91007467D01*
X128311344Y-90996309D01*
X128281404Y-90982148D01*
X128252995Y-90965121D01*
X128226392Y-90945391D01*
X128201851Y-90923149D01*
X128179609Y-90898608D01*
X128159879Y-90872005D01*
X128142852Y-90843596D01*
X128128691Y-90813656D01*
X128117533Y-90782471D01*
X128109485Y-90750343D01*
X128104625Y-90717581D01*
X128103000Y-90684500D01*
X128103000Y-89909500D01*
X128104625Y-89876419D01*
X128109485Y-89843657D01*
X128117533Y-89811529D01*
X128128691Y-89780344D01*
X128142852Y-89750404D01*
X128159879Y-89721995D01*
X128179609Y-89695392D01*
X128201851Y-89670851D01*
X128226392Y-89648609D01*
X128252995Y-89628879D01*
X128281404Y-89611852D01*
X128311344Y-89597691D01*
X128342529Y-89586533D01*
X128374657Y-89578485D01*
X128407419Y-89573625D01*
X128440500Y-89572000D01*
X129115500Y-89572000D01*
X129148581Y-89573625D01*
X129148581Y-89573625D01*
G37*
D13*
X128778000Y-90297000D03*
G04 #@! TD*
D12*
G04 #@! TO.C,R12*
G36*
X128027581Y-80606625D02*
X128060343Y-80611485D01*
X128092471Y-80619533D01*
X128123656Y-80630691D01*
X128153596Y-80644852D01*
X128182005Y-80661879D01*
X128208608Y-80681609D01*
X128233149Y-80703851D01*
X128255391Y-80728392D01*
X128275121Y-80754995D01*
X128292148Y-80783404D01*
X128306309Y-80813344D01*
X128317467Y-80844529D01*
X128325515Y-80876657D01*
X128330375Y-80909419D01*
X128332000Y-80942500D01*
X128332000Y-81617500D01*
X128330375Y-81650581D01*
X128325515Y-81683343D01*
X128317467Y-81715471D01*
X128306309Y-81746656D01*
X128292148Y-81776596D01*
X128275121Y-81805005D01*
X128255391Y-81831608D01*
X128233149Y-81856149D01*
X128208608Y-81878391D01*
X128182005Y-81898121D01*
X128153596Y-81915148D01*
X128123656Y-81929309D01*
X128092471Y-81940467D01*
X128060343Y-81948515D01*
X128027581Y-81953375D01*
X127994500Y-81955000D01*
X127219500Y-81955000D01*
X127186419Y-81953375D01*
X127153657Y-81948515D01*
X127121529Y-81940467D01*
X127090344Y-81929309D01*
X127060404Y-81915148D01*
X127031995Y-81898121D01*
X127005392Y-81878391D01*
X126980851Y-81856149D01*
X126958609Y-81831608D01*
X126938879Y-81805005D01*
X126921852Y-81776596D01*
X126907691Y-81746656D01*
X126896533Y-81715471D01*
X126888485Y-81683343D01*
X126883625Y-81650581D01*
X126882000Y-81617500D01*
X126882000Y-80942500D01*
X126883625Y-80909419D01*
X126888485Y-80876657D01*
X126896533Y-80844529D01*
X126907691Y-80813344D01*
X126921852Y-80783404D01*
X126938879Y-80754995D01*
X126958609Y-80728392D01*
X126980851Y-80703851D01*
X127005392Y-80681609D01*
X127031995Y-80661879D01*
X127060404Y-80644852D01*
X127090344Y-80630691D01*
X127121529Y-80619533D01*
X127153657Y-80611485D01*
X127186419Y-80606625D01*
X127219500Y-80605000D01*
X127994500Y-80605000D01*
X128027581Y-80606625D01*
X128027581Y-80606625D01*
G37*
D13*
X127607000Y-81280000D03*
D12*
G36*
X126277581Y-80606625D02*
X126310343Y-80611485D01*
X126342471Y-80619533D01*
X126373656Y-80630691D01*
X126403596Y-80644852D01*
X126432005Y-80661879D01*
X126458608Y-80681609D01*
X126483149Y-80703851D01*
X126505391Y-80728392D01*
X126525121Y-80754995D01*
X126542148Y-80783404D01*
X126556309Y-80813344D01*
X126567467Y-80844529D01*
X126575515Y-80876657D01*
X126580375Y-80909419D01*
X126582000Y-80942500D01*
X126582000Y-81617500D01*
X126580375Y-81650581D01*
X126575515Y-81683343D01*
X126567467Y-81715471D01*
X126556309Y-81746656D01*
X126542148Y-81776596D01*
X126525121Y-81805005D01*
X126505391Y-81831608D01*
X126483149Y-81856149D01*
X126458608Y-81878391D01*
X126432005Y-81898121D01*
X126403596Y-81915148D01*
X126373656Y-81929309D01*
X126342471Y-81940467D01*
X126310343Y-81948515D01*
X126277581Y-81953375D01*
X126244500Y-81955000D01*
X125469500Y-81955000D01*
X125436419Y-81953375D01*
X125403657Y-81948515D01*
X125371529Y-81940467D01*
X125340344Y-81929309D01*
X125310404Y-81915148D01*
X125281995Y-81898121D01*
X125255392Y-81878391D01*
X125230851Y-81856149D01*
X125208609Y-81831608D01*
X125188879Y-81805005D01*
X125171852Y-81776596D01*
X125157691Y-81746656D01*
X125146533Y-81715471D01*
X125138485Y-81683343D01*
X125133625Y-81650581D01*
X125132000Y-81617500D01*
X125132000Y-80942500D01*
X125133625Y-80909419D01*
X125138485Y-80876657D01*
X125146533Y-80844529D01*
X125157691Y-80813344D01*
X125171852Y-80783404D01*
X125188879Y-80754995D01*
X125208609Y-80728392D01*
X125230851Y-80703851D01*
X125255392Y-80681609D01*
X125281995Y-80661879D01*
X125310404Y-80644852D01*
X125340344Y-80630691D01*
X125371529Y-80619533D01*
X125403657Y-80611485D01*
X125436419Y-80606625D01*
X125469500Y-80605000D01*
X126244500Y-80605000D01*
X126277581Y-80606625D01*
X126277581Y-80606625D01*
G37*
D13*
X125857000Y-81280000D03*
G04 #@! TD*
D12*
G04 #@! TO.C,R13*
G36*
X129734581Y-77431625D02*
X129767343Y-77436485D01*
X129799471Y-77444533D01*
X129830656Y-77455691D01*
X129860596Y-77469852D01*
X129889005Y-77486879D01*
X129915608Y-77506609D01*
X129940149Y-77528851D01*
X129962391Y-77553392D01*
X129982121Y-77579995D01*
X129999148Y-77608404D01*
X130013309Y-77638344D01*
X130024467Y-77669529D01*
X130032515Y-77701657D01*
X130037375Y-77734419D01*
X130039000Y-77767500D01*
X130039000Y-78442500D01*
X130037375Y-78475581D01*
X130032515Y-78508343D01*
X130024467Y-78540471D01*
X130013309Y-78571656D01*
X129999148Y-78601596D01*
X129982121Y-78630005D01*
X129962391Y-78656608D01*
X129940149Y-78681149D01*
X129915608Y-78703391D01*
X129889005Y-78723121D01*
X129860596Y-78740148D01*
X129830656Y-78754309D01*
X129799471Y-78765467D01*
X129767343Y-78773515D01*
X129734581Y-78778375D01*
X129701500Y-78780000D01*
X128926500Y-78780000D01*
X128893419Y-78778375D01*
X128860657Y-78773515D01*
X128828529Y-78765467D01*
X128797344Y-78754309D01*
X128767404Y-78740148D01*
X128738995Y-78723121D01*
X128712392Y-78703391D01*
X128687851Y-78681149D01*
X128665609Y-78656608D01*
X128645879Y-78630005D01*
X128628852Y-78601596D01*
X128614691Y-78571656D01*
X128603533Y-78540471D01*
X128595485Y-78508343D01*
X128590625Y-78475581D01*
X128589000Y-78442500D01*
X128589000Y-77767500D01*
X128590625Y-77734419D01*
X128595485Y-77701657D01*
X128603533Y-77669529D01*
X128614691Y-77638344D01*
X128628852Y-77608404D01*
X128645879Y-77579995D01*
X128665609Y-77553392D01*
X128687851Y-77528851D01*
X128712392Y-77506609D01*
X128738995Y-77486879D01*
X128767404Y-77469852D01*
X128797344Y-77455691D01*
X128828529Y-77444533D01*
X128860657Y-77436485D01*
X128893419Y-77431625D01*
X128926500Y-77430000D01*
X129701500Y-77430000D01*
X129734581Y-77431625D01*
X129734581Y-77431625D01*
G37*
D13*
X129314000Y-78105000D03*
D12*
G36*
X131484581Y-77431625D02*
X131517343Y-77436485D01*
X131549471Y-77444533D01*
X131580656Y-77455691D01*
X131610596Y-77469852D01*
X131639005Y-77486879D01*
X131665608Y-77506609D01*
X131690149Y-77528851D01*
X131712391Y-77553392D01*
X131732121Y-77579995D01*
X131749148Y-77608404D01*
X131763309Y-77638344D01*
X131774467Y-77669529D01*
X131782515Y-77701657D01*
X131787375Y-77734419D01*
X131789000Y-77767500D01*
X131789000Y-78442500D01*
X131787375Y-78475581D01*
X131782515Y-78508343D01*
X131774467Y-78540471D01*
X131763309Y-78571656D01*
X131749148Y-78601596D01*
X131732121Y-78630005D01*
X131712391Y-78656608D01*
X131690149Y-78681149D01*
X131665608Y-78703391D01*
X131639005Y-78723121D01*
X131610596Y-78740148D01*
X131580656Y-78754309D01*
X131549471Y-78765467D01*
X131517343Y-78773515D01*
X131484581Y-78778375D01*
X131451500Y-78780000D01*
X130676500Y-78780000D01*
X130643419Y-78778375D01*
X130610657Y-78773515D01*
X130578529Y-78765467D01*
X130547344Y-78754309D01*
X130517404Y-78740148D01*
X130488995Y-78723121D01*
X130462392Y-78703391D01*
X130437851Y-78681149D01*
X130415609Y-78656608D01*
X130395879Y-78630005D01*
X130378852Y-78601596D01*
X130364691Y-78571656D01*
X130353533Y-78540471D01*
X130345485Y-78508343D01*
X130340625Y-78475581D01*
X130339000Y-78442500D01*
X130339000Y-77767500D01*
X130340625Y-77734419D01*
X130345485Y-77701657D01*
X130353533Y-77669529D01*
X130364691Y-77638344D01*
X130378852Y-77608404D01*
X130395879Y-77579995D01*
X130415609Y-77553392D01*
X130437851Y-77528851D01*
X130462392Y-77506609D01*
X130488995Y-77486879D01*
X130517404Y-77469852D01*
X130547344Y-77455691D01*
X130578529Y-77444533D01*
X130610657Y-77436485D01*
X130643419Y-77431625D01*
X130676500Y-77430000D01*
X131451500Y-77430000D01*
X131484581Y-77431625D01*
X131484581Y-77431625D01*
G37*
D13*
X131064000Y-78105000D03*
G04 #@! TD*
D12*
G04 #@! TO.C,R14*
G36*
X131470581Y-73621625D02*
X131503343Y-73626485D01*
X131535471Y-73634533D01*
X131566656Y-73645691D01*
X131596596Y-73659852D01*
X131625005Y-73676879D01*
X131651608Y-73696609D01*
X131676149Y-73718851D01*
X131698391Y-73743392D01*
X131718121Y-73769995D01*
X131735148Y-73798404D01*
X131749309Y-73828344D01*
X131760467Y-73859529D01*
X131768515Y-73891657D01*
X131773375Y-73924419D01*
X131775000Y-73957500D01*
X131775000Y-74632500D01*
X131773375Y-74665581D01*
X131768515Y-74698343D01*
X131760467Y-74730471D01*
X131749309Y-74761656D01*
X131735148Y-74791596D01*
X131718121Y-74820005D01*
X131698391Y-74846608D01*
X131676149Y-74871149D01*
X131651608Y-74893391D01*
X131625005Y-74913121D01*
X131596596Y-74930148D01*
X131566656Y-74944309D01*
X131535471Y-74955467D01*
X131503343Y-74963515D01*
X131470581Y-74968375D01*
X131437500Y-74970000D01*
X130662500Y-74970000D01*
X130629419Y-74968375D01*
X130596657Y-74963515D01*
X130564529Y-74955467D01*
X130533344Y-74944309D01*
X130503404Y-74930148D01*
X130474995Y-74913121D01*
X130448392Y-74893391D01*
X130423851Y-74871149D01*
X130401609Y-74846608D01*
X130381879Y-74820005D01*
X130364852Y-74791596D01*
X130350691Y-74761656D01*
X130339533Y-74730471D01*
X130331485Y-74698343D01*
X130326625Y-74665581D01*
X130325000Y-74632500D01*
X130325000Y-73957500D01*
X130326625Y-73924419D01*
X130331485Y-73891657D01*
X130339533Y-73859529D01*
X130350691Y-73828344D01*
X130364852Y-73798404D01*
X130381879Y-73769995D01*
X130401609Y-73743392D01*
X130423851Y-73718851D01*
X130448392Y-73696609D01*
X130474995Y-73676879D01*
X130503404Y-73659852D01*
X130533344Y-73645691D01*
X130564529Y-73634533D01*
X130596657Y-73626485D01*
X130629419Y-73621625D01*
X130662500Y-73620000D01*
X131437500Y-73620000D01*
X131470581Y-73621625D01*
X131470581Y-73621625D01*
G37*
D13*
X131050000Y-74295000D03*
D12*
G36*
X129720581Y-73621625D02*
X129753343Y-73626485D01*
X129785471Y-73634533D01*
X129816656Y-73645691D01*
X129846596Y-73659852D01*
X129875005Y-73676879D01*
X129901608Y-73696609D01*
X129926149Y-73718851D01*
X129948391Y-73743392D01*
X129968121Y-73769995D01*
X129985148Y-73798404D01*
X129999309Y-73828344D01*
X130010467Y-73859529D01*
X130018515Y-73891657D01*
X130023375Y-73924419D01*
X130025000Y-73957500D01*
X130025000Y-74632500D01*
X130023375Y-74665581D01*
X130018515Y-74698343D01*
X130010467Y-74730471D01*
X129999309Y-74761656D01*
X129985148Y-74791596D01*
X129968121Y-74820005D01*
X129948391Y-74846608D01*
X129926149Y-74871149D01*
X129901608Y-74893391D01*
X129875005Y-74913121D01*
X129846596Y-74930148D01*
X129816656Y-74944309D01*
X129785471Y-74955467D01*
X129753343Y-74963515D01*
X129720581Y-74968375D01*
X129687500Y-74970000D01*
X128912500Y-74970000D01*
X128879419Y-74968375D01*
X128846657Y-74963515D01*
X128814529Y-74955467D01*
X128783344Y-74944309D01*
X128753404Y-74930148D01*
X128724995Y-74913121D01*
X128698392Y-74893391D01*
X128673851Y-74871149D01*
X128651609Y-74846608D01*
X128631879Y-74820005D01*
X128614852Y-74791596D01*
X128600691Y-74761656D01*
X128589533Y-74730471D01*
X128581485Y-74698343D01*
X128576625Y-74665581D01*
X128575000Y-74632500D01*
X128575000Y-73957500D01*
X128576625Y-73924419D01*
X128581485Y-73891657D01*
X128589533Y-73859529D01*
X128600691Y-73828344D01*
X128614852Y-73798404D01*
X128631879Y-73769995D01*
X128651609Y-73743392D01*
X128673851Y-73718851D01*
X128698392Y-73696609D01*
X128724995Y-73676879D01*
X128753404Y-73659852D01*
X128783344Y-73645691D01*
X128814529Y-73634533D01*
X128846657Y-73626485D01*
X128879419Y-73621625D01*
X128912500Y-73620000D01*
X129687500Y-73620000D01*
X129720581Y-73621625D01*
X129720581Y-73621625D01*
G37*
D13*
X129300000Y-74295000D03*
G04 #@! TD*
D18*
G04 #@! TO.C,C33*
X103759000Y-101793000D03*
X103759000Y-96393000D03*
G04 #@! TD*
G04 #@! TO.C,C34*
X96520000Y-96393000D03*
X96520000Y-101793000D03*
G04 #@! TD*
G04 #@! TO.C,C35*
X123063000Y-101666000D03*
X123063000Y-96266000D03*
G04 #@! TD*
G04 #@! TO.C,C36*
X115824000Y-96266000D03*
X115824000Y-101666000D03*
G04 #@! TD*
D19*
G04 #@! TO.C,L1*
X123952000Y-90322000D03*
X123952000Y-83922000D03*
G04 #@! TD*
G04 #@! TO.C,L2*
X114173000Y-83947000D03*
X114173000Y-90347000D03*
G04 #@! TD*
G04 #@! TO.C,L3*
X96774000Y-84074000D03*
X96774000Y-90474000D03*
G04 #@! TD*
G04 #@! TO.C,L4*
X106299000Y-90322000D03*
X106299000Y-83922000D03*
G04 #@! TD*
D18*
G04 #@! TO.C,C28*
X139065000Y-75504000D03*
X139065000Y-70104000D03*
G04 #@! TD*
D12*
G04 #@! TO.C,C5*
G36*
X119496581Y-87033625D02*
X119529343Y-87038485D01*
X119561471Y-87046533D01*
X119592656Y-87057691D01*
X119622596Y-87071852D01*
X119651005Y-87088879D01*
X119677608Y-87108609D01*
X119702149Y-87130851D01*
X119724391Y-87155392D01*
X119744121Y-87181995D01*
X119761148Y-87210404D01*
X119775309Y-87240344D01*
X119786467Y-87271529D01*
X119794515Y-87303657D01*
X119799375Y-87336419D01*
X119801000Y-87369500D01*
X119801000Y-88144500D01*
X119799375Y-88177581D01*
X119794515Y-88210343D01*
X119786467Y-88242471D01*
X119775309Y-88273656D01*
X119761148Y-88303596D01*
X119744121Y-88332005D01*
X119724391Y-88358608D01*
X119702149Y-88383149D01*
X119677608Y-88405391D01*
X119651005Y-88425121D01*
X119622596Y-88442148D01*
X119592656Y-88456309D01*
X119561471Y-88467467D01*
X119529343Y-88475515D01*
X119496581Y-88480375D01*
X119463500Y-88482000D01*
X118788500Y-88482000D01*
X118755419Y-88480375D01*
X118722657Y-88475515D01*
X118690529Y-88467467D01*
X118659344Y-88456309D01*
X118629404Y-88442148D01*
X118600995Y-88425121D01*
X118574392Y-88405391D01*
X118549851Y-88383149D01*
X118527609Y-88358608D01*
X118507879Y-88332005D01*
X118490852Y-88303596D01*
X118476691Y-88273656D01*
X118465533Y-88242471D01*
X118457485Y-88210343D01*
X118452625Y-88177581D01*
X118451000Y-88144500D01*
X118451000Y-87369500D01*
X118452625Y-87336419D01*
X118457485Y-87303657D01*
X118465533Y-87271529D01*
X118476691Y-87240344D01*
X118490852Y-87210404D01*
X118507879Y-87181995D01*
X118527609Y-87155392D01*
X118549851Y-87130851D01*
X118574392Y-87108609D01*
X118600995Y-87088879D01*
X118629404Y-87071852D01*
X118659344Y-87057691D01*
X118690529Y-87046533D01*
X118722657Y-87038485D01*
X118755419Y-87033625D01*
X118788500Y-87032000D01*
X119463500Y-87032000D01*
X119496581Y-87033625D01*
X119496581Y-87033625D01*
G37*
D13*
X119126000Y-87757000D03*
D12*
G36*
X119496581Y-88783625D02*
X119529343Y-88788485D01*
X119561471Y-88796533D01*
X119592656Y-88807691D01*
X119622596Y-88821852D01*
X119651005Y-88838879D01*
X119677608Y-88858609D01*
X119702149Y-88880851D01*
X119724391Y-88905392D01*
X119744121Y-88931995D01*
X119761148Y-88960404D01*
X119775309Y-88990344D01*
X119786467Y-89021529D01*
X119794515Y-89053657D01*
X119799375Y-89086419D01*
X119801000Y-89119500D01*
X119801000Y-89894500D01*
X119799375Y-89927581D01*
X119794515Y-89960343D01*
X119786467Y-89992471D01*
X119775309Y-90023656D01*
X119761148Y-90053596D01*
X119744121Y-90082005D01*
X119724391Y-90108608D01*
X119702149Y-90133149D01*
X119677608Y-90155391D01*
X119651005Y-90175121D01*
X119622596Y-90192148D01*
X119592656Y-90206309D01*
X119561471Y-90217467D01*
X119529343Y-90225515D01*
X119496581Y-90230375D01*
X119463500Y-90232000D01*
X118788500Y-90232000D01*
X118755419Y-90230375D01*
X118722657Y-90225515D01*
X118690529Y-90217467D01*
X118659344Y-90206309D01*
X118629404Y-90192148D01*
X118600995Y-90175121D01*
X118574392Y-90155391D01*
X118549851Y-90133149D01*
X118527609Y-90108608D01*
X118507879Y-90082005D01*
X118490852Y-90053596D01*
X118476691Y-90023656D01*
X118465533Y-89992471D01*
X118457485Y-89960343D01*
X118452625Y-89927581D01*
X118451000Y-89894500D01*
X118451000Y-89119500D01*
X118452625Y-89086419D01*
X118457485Y-89053657D01*
X118465533Y-89021529D01*
X118476691Y-88990344D01*
X118490852Y-88960404D01*
X118507879Y-88931995D01*
X118527609Y-88905392D01*
X118549851Y-88880851D01*
X118574392Y-88858609D01*
X118600995Y-88838879D01*
X118629404Y-88821852D01*
X118659344Y-88807691D01*
X118690529Y-88796533D01*
X118722657Y-88788485D01*
X118755419Y-88783625D01*
X118788500Y-88782000D01*
X119463500Y-88782000D01*
X119496581Y-88783625D01*
X119496581Y-88783625D01*
G37*
D13*
X119126000Y-89507000D03*
G04 #@! TD*
D12*
G04 #@! TO.C,C7*
G36*
X110352581Y-71694625D02*
X110385343Y-71699485D01*
X110417471Y-71707533D01*
X110448656Y-71718691D01*
X110478596Y-71732852D01*
X110507005Y-71749879D01*
X110533608Y-71769609D01*
X110558149Y-71791851D01*
X110580391Y-71816392D01*
X110600121Y-71842995D01*
X110617148Y-71871404D01*
X110631309Y-71901344D01*
X110642467Y-71932529D01*
X110650515Y-71964657D01*
X110655375Y-71997419D01*
X110657000Y-72030500D01*
X110657000Y-72805500D01*
X110655375Y-72838581D01*
X110650515Y-72871343D01*
X110642467Y-72903471D01*
X110631309Y-72934656D01*
X110617148Y-72964596D01*
X110600121Y-72993005D01*
X110580391Y-73019608D01*
X110558149Y-73044149D01*
X110533608Y-73066391D01*
X110507005Y-73086121D01*
X110478596Y-73103148D01*
X110448656Y-73117309D01*
X110417471Y-73128467D01*
X110385343Y-73136515D01*
X110352581Y-73141375D01*
X110319500Y-73143000D01*
X109644500Y-73143000D01*
X109611419Y-73141375D01*
X109578657Y-73136515D01*
X109546529Y-73128467D01*
X109515344Y-73117309D01*
X109485404Y-73103148D01*
X109456995Y-73086121D01*
X109430392Y-73066391D01*
X109405851Y-73044149D01*
X109383609Y-73019608D01*
X109363879Y-72993005D01*
X109346852Y-72964596D01*
X109332691Y-72934656D01*
X109321533Y-72903471D01*
X109313485Y-72871343D01*
X109308625Y-72838581D01*
X109307000Y-72805500D01*
X109307000Y-72030500D01*
X109308625Y-71997419D01*
X109313485Y-71964657D01*
X109321533Y-71932529D01*
X109332691Y-71901344D01*
X109346852Y-71871404D01*
X109363879Y-71842995D01*
X109383609Y-71816392D01*
X109405851Y-71791851D01*
X109430392Y-71769609D01*
X109456995Y-71749879D01*
X109485404Y-71732852D01*
X109515344Y-71718691D01*
X109546529Y-71707533D01*
X109578657Y-71699485D01*
X109611419Y-71694625D01*
X109644500Y-71693000D01*
X110319500Y-71693000D01*
X110352581Y-71694625D01*
X110352581Y-71694625D01*
G37*
D13*
X109982000Y-72418000D03*
D12*
G36*
X110352581Y-73444625D02*
X110385343Y-73449485D01*
X110417471Y-73457533D01*
X110448656Y-73468691D01*
X110478596Y-73482852D01*
X110507005Y-73499879D01*
X110533608Y-73519609D01*
X110558149Y-73541851D01*
X110580391Y-73566392D01*
X110600121Y-73592995D01*
X110617148Y-73621404D01*
X110631309Y-73651344D01*
X110642467Y-73682529D01*
X110650515Y-73714657D01*
X110655375Y-73747419D01*
X110657000Y-73780500D01*
X110657000Y-74555500D01*
X110655375Y-74588581D01*
X110650515Y-74621343D01*
X110642467Y-74653471D01*
X110631309Y-74684656D01*
X110617148Y-74714596D01*
X110600121Y-74743005D01*
X110580391Y-74769608D01*
X110558149Y-74794149D01*
X110533608Y-74816391D01*
X110507005Y-74836121D01*
X110478596Y-74853148D01*
X110448656Y-74867309D01*
X110417471Y-74878467D01*
X110385343Y-74886515D01*
X110352581Y-74891375D01*
X110319500Y-74893000D01*
X109644500Y-74893000D01*
X109611419Y-74891375D01*
X109578657Y-74886515D01*
X109546529Y-74878467D01*
X109515344Y-74867309D01*
X109485404Y-74853148D01*
X109456995Y-74836121D01*
X109430392Y-74816391D01*
X109405851Y-74794149D01*
X109383609Y-74769608D01*
X109363879Y-74743005D01*
X109346852Y-74714596D01*
X109332691Y-74684656D01*
X109321533Y-74653471D01*
X109313485Y-74621343D01*
X109308625Y-74588581D01*
X109307000Y-74555500D01*
X109307000Y-73780500D01*
X109308625Y-73747419D01*
X109313485Y-73714657D01*
X109321533Y-73682529D01*
X109332691Y-73651344D01*
X109346852Y-73621404D01*
X109363879Y-73592995D01*
X109383609Y-73566392D01*
X109405851Y-73541851D01*
X109430392Y-73519609D01*
X109456995Y-73499879D01*
X109485404Y-73482852D01*
X109515344Y-73468691D01*
X109546529Y-73457533D01*
X109578657Y-73449485D01*
X109611419Y-73444625D01*
X109644500Y-73443000D01*
X110319500Y-73443000D01*
X110352581Y-73444625D01*
X110352581Y-73444625D01*
G37*
D13*
X109982000Y-74168000D03*
G04 #@! TD*
D12*
G04 #@! TO.C,C9*
G36*
X106669581Y-73317625D02*
X106702343Y-73322485D01*
X106734471Y-73330533D01*
X106765656Y-73341691D01*
X106795596Y-73355852D01*
X106824005Y-73372879D01*
X106850608Y-73392609D01*
X106875149Y-73414851D01*
X106897391Y-73439392D01*
X106917121Y-73465995D01*
X106934148Y-73494404D01*
X106948309Y-73524344D01*
X106959467Y-73555529D01*
X106967515Y-73587657D01*
X106972375Y-73620419D01*
X106974000Y-73653500D01*
X106974000Y-74428500D01*
X106972375Y-74461581D01*
X106967515Y-74494343D01*
X106959467Y-74526471D01*
X106948309Y-74557656D01*
X106934148Y-74587596D01*
X106917121Y-74616005D01*
X106897391Y-74642608D01*
X106875149Y-74667149D01*
X106850608Y-74689391D01*
X106824005Y-74709121D01*
X106795596Y-74726148D01*
X106765656Y-74740309D01*
X106734471Y-74751467D01*
X106702343Y-74759515D01*
X106669581Y-74764375D01*
X106636500Y-74766000D01*
X105961500Y-74766000D01*
X105928419Y-74764375D01*
X105895657Y-74759515D01*
X105863529Y-74751467D01*
X105832344Y-74740309D01*
X105802404Y-74726148D01*
X105773995Y-74709121D01*
X105747392Y-74689391D01*
X105722851Y-74667149D01*
X105700609Y-74642608D01*
X105680879Y-74616005D01*
X105663852Y-74587596D01*
X105649691Y-74557656D01*
X105638533Y-74526471D01*
X105630485Y-74494343D01*
X105625625Y-74461581D01*
X105624000Y-74428500D01*
X105624000Y-73653500D01*
X105625625Y-73620419D01*
X105630485Y-73587657D01*
X105638533Y-73555529D01*
X105649691Y-73524344D01*
X105663852Y-73494404D01*
X105680879Y-73465995D01*
X105700609Y-73439392D01*
X105722851Y-73414851D01*
X105747392Y-73392609D01*
X105773995Y-73372879D01*
X105802404Y-73355852D01*
X105832344Y-73341691D01*
X105863529Y-73330533D01*
X105895657Y-73322485D01*
X105928419Y-73317625D01*
X105961500Y-73316000D01*
X106636500Y-73316000D01*
X106669581Y-73317625D01*
X106669581Y-73317625D01*
G37*
D13*
X106299000Y-74041000D03*
D12*
G36*
X106669581Y-71567625D02*
X106702343Y-71572485D01*
X106734471Y-71580533D01*
X106765656Y-71591691D01*
X106795596Y-71605852D01*
X106824005Y-71622879D01*
X106850608Y-71642609D01*
X106875149Y-71664851D01*
X106897391Y-71689392D01*
X106917121Y-71715995D01*
X106934148Y-71744404D01*
X106948309Y-71774344D01*
X106959467Y-71805529D01*
X106967515Y-71837657D01*
X106972375Y-71870419D01*
X106974000Y-71903500D01*
X106974000Y-72678500D01*
X106972375Y-72711581D01*
X106967515Y-72744343D01*
X106959467Y-72776471D01*
X106948309Y-72807656D01*
X106934148Y-72837596D01*
X106917121Y-72866005D01*
X106897391Y-72892608D01*
X106875149Y-72917149D01*
X106850608Y-72939391D01*
X106824005Y-72959121D01*
X106795596Y-72976148D01*
X106765656Y-72990309D01*
X106734471Y-73001467D01*
X106702343Y-73009515D01*
X106669581Y-73014375D01*
X106636500Y-73016000D01*
X105961500Y-73016000D01*
X105928419Y-73014375D01*
X105895657Y-73009515D01*
X105863529Y-73001467D01*
X105832344Y-72990309D01*
X105802404Y-72976148D01*
X105773995Y-72959121D01*
X105747392Y-72939391D01*
X105722851Y-72917149D01*
X105700609Y-72892608D01*
X105680879Y-72866005D01*
X105663852Y-72837596D01*
X105649691Y-72807656D01*
X105638533Y-72776471D01*
X105630485Y-72744343D01*
X105625625Y-72711581D01*
X105624000Y-72678500D01*
X105624000Y-71903500D01*
X105625625Y-71870419D01*
X105630485Y-71837657D01*
X105638533Y-71805529D01*
X105649691Y-71774344D01*
X105663852Y-71744404D01*
X105680879Y-71715995D01*
X105700609Y-71689392D01*
X105722851Y-71664851D01*
X105747392Y-71642609D01*
X105773995Y-71622879D01*
X105802404Y-71605852D01*
X105832344Y-71591691D01*
X105863529Y-71580533D01*
X105895657Y-71572485D01*
X105928419Y-71567625D01*
X105961500Y-71566000D01*
X106636500Y-71566000D01*
X106669581Y-71567625D01*
X106669581Y-71567625D01*
G37*
D13*
X106299000Y-72291000D03*
G04 #@! TD*
D12*
G04 #@! TO.C,C12*
G36*
X129148581Y-84394625D02*
X129181343Y-84399485D01*
X129213471Y-84407533D01*
X129244656Y-84418691D01*
X129274596Y-84432852D01*
X129303005Y-84449879D01*
X129329608Y-84469609D01*
X129354149Y-84491851D01*
X129376391Y-84516392D01*
X129396121Y-84542995D01*
X129413148Y-84571404D01*
X129427309Y-84601344D01*
X129438467Y-84632529D01*
X129446515Y-84664657D01*
X129451375Y-84697419D01*
X129453000Y-84730500D01*
X129453000Y-85505500D01*
X129451375Y-85538581D01*
X129446515Y-85571343D01*
X129438467Y-85603471D01*
X129427309Y-85634656D01*
X129413148Y-85664596D01*
X129396121Y-85693005D01*
X129376391Y-85719608D01*
X129354149Y-85744149D01*
X129329608Y-85766391D01*
X129303005Y-85786121D01*
X129274596Y-85803148D01*
X129244656Y-85817309D01*
X129213471Y-85828467D01*
X129181343Y-85836515D01*
X129148581Y-85841375D01*
X129115500Y-85843000D01*
X128440500Y-85843000D01*
X128407419Y-85841375D01*
X128374657Y-85836515D01*
X128342529Y-85828467D01*
X128311344Y-85817309D01*
X128281404Y-85803148D01*
X128252995Y-85786121D01*
X128226392Y-85766391D01*
X128201851Y-85744149D01*
X128179609Y-85719608D01*
X128159879Y-85693005D01*
X128142852Y-85664596D01*
X128128691Y-85634656D01*
X128117533Y-85603471D01*
X128109485Y-85571343D01*
X128104625Y-85538581D01*
X128103000Y-85505500D01*
X128103000Y-84730500D01*
X128104625Y-84697419D01*
X128109485Y-84664657D01*
X128117533Y-84632529D01*
X128128691Y-84601344D01*
X128142852Y-84571404D01*
X128159879Y-84542995D01*
X128179609Y-84516392D01*
X128201851Y-84491851D01*
X128226392Y-84469609D01*
X128252995Y-84449879D01*
X128281404Y-84432852D01*
X128311344Y-84418691D01*
X128342529Y-84407533D01*
X128374657Y-84399485D01*
X128407419Y-84394625D01*
X128440500Y-84393000D01*
X129115500Y-84393000D01*
X129148581Y-84394625D01*
X129148581Y-84394625D01*
G37*
D13*
X128778000Y-85118000D03*
D12*
G36*
X129148581Y-86144625D02*
X129181343Y-86149485D01*
X129213471Y-86157533D01*
X129244656Y-86168691D01*
X129274596Y-86182852D01*
X129303005Y-86199879D01*
X129329608Y-86219609D01*
X129354149Y-86241851D01*
X129376391Y-86266392D01*
X129396121Y-86292995D01*
X129413148Y-86321404D01*
X129427309Y-86351344D01*
X129438467Y-86382529D01*
X129446515Y-86414657D01*
X129451375Y-86447419D01*
X129453000Y-86480500D01*
X129453000Y-87255500D01*
X129451375Y-87288581D01*
X129446515Y-87321343D01*
X129438467Y-87353471D01*
X129427309Y-87384656D01*
X129413148Y-87414596D01*
X129396121Y-87443005D01*
X129376391Y-87469608D01*
X129354149Y-87494149D01*
X129329608Y-87516391D01*
X129303005Y-87536121D01*
X129274596Y-87553148D01*
X129244656Y-87567309D01*
X129213471Y-87578467D01*
X129181343Y-87586515D01*
X129148581Y-87591375D01*
X129115500Y-87593000D01*
X128440500Y-87593000D01*
X128407419Y-87591375D01*
X128374657Y-87586515D01*
X128342529Y-87578467D01*
X128311344Y-87567309D01*
X128281404Y-87553148D01*
X128252995Y-87536121D01*
X128226392Y-87516391D01*
X128201851Y-87494149D01*
X128179609Y-87469608D01*
X128159879Y-87443005D01*
X128142852Y-87414596D01*
X128128691Y-87384656D01*
X128117533Y-87353471D01*
X128109485Y-87321343D01*
X128104625Y-87288581D01*
X128103000Y-87255500D01*
X128103000Y-86480500D01*
X128104625Y-86447419D01*
X128109485Y-86414657D01*
X128117533Y-86382529D01*
X128128691Y-86351344D01*
X128142852Y-86321404D01*
X128159879Y-86292995D01*
X128179609Y-86266392D01*
X128201851Y-86241851D01*
X128226392Y-86219609D01*
X128252995Y-86199879D01*
X128281404Y-86182852D01*
X128311344Y-86168691D01*
X128342529Y-86157533D01*
X128374657Y-86149485D01*
X128407419Y-86144625D01*
X128440500Y-86143000D01*
X129115500Y-86143000D01*
X129148581Y-86144625D01*
X129148581Y-86144625D01*
G37*
D13*
X128778000Y-86868000D03*
G04 #@! TD*
D12*
G04 #@! TO.C,C13*
G36*
X129198581Y-82765625D02*
X129231343Y-82770485D01*
X129263471Y-82778533D01*
X129294656Y-82789691D01*
X129324596Y-82803852D01*
X129353005Y-82820879D01*
X129379608Y-82840609D01*
X129404149Y-82862851D01*
X129426391Y-82887392D01*
X129446121Y-82913995D01*
X129463148Y-82942404D01*
X129477309Y-82972344D01*
X129488467Y-83003529D01*
X129496515Y-83035657D01*
X129501375Y-83068419D01*
X129503000Y-83101500D01*
X129503000Y-83776500D01*
X129501375Y-83809581D01*
X129496515Y-83842343D01*
X129488467Y-83874471D01*
X129477309Y-83905656D01*
X129463148Y-83935596D01*
X129446121Y-83964005D01*
X129426391Y-83990608D01*
X129404149Y-84015149D01*
X129379608Y-84037391D01*
X129353005Y-84057121D01*
X129324596Y-84074148D01*
X129294656Y-84088309D01*
X129263471Y-84099467D01*
X129231343Y-84107515D01*
X129198581Y-84112375D01*
X129165500Y-84114000D01*
X128390500Y-84114000D01*
X128357419Y-84112375D01*
X128324657Y-84107515D01*
X128292529Y-84099467D01*
X128261344Y-84088309D01*
X128231404Y-84074148D01*
X128202995Y-84057121D01*
X128176392Y-84037391D01*
X128151851Y-84015149D01*
X128129609Y-83990608D01*
X128109879Y-83964005D01*
X128092852Y-83935596D01*
X128078691Y-83905656D01*
X128067533Y-83874471D01*
X128059485Y-83842343D01*
X128054625Y-83809581D01*
X128053000Y-83776500D01*
X128053000Y-83101500D01*
X128054625Y-83068419D01*
X128059485Y-83035657D01*
X128067533Y-83003529D01*
X128078691Y-82972344D01*
X128092852Y-82942404D01*
X128109879Y-82913995D01*
X128129609Y-82887392D01*
X128151851Y-82862851D01*
X128176392Y-82840609D01*
X128202995Y-82820879D01*
X128231404Y-82803852D01*
X128261344Y-82789691D01*
X128292529Y-82778533D01*
X128324657Y-82770485D01*
X128357419Y-82765625D01*
X128390500Y-82764000D01*
X129165500Y-82764000D01*
X129198581Y-82765625D01*
X129198581Y-82765625D01*
G37*
D13*
X128778000Y-83439000D03*
D12*
G36*
X130948581Y-82765625D02*
X130981343Y-82770485D01*
X131013471Y-82778533D01*
X131044656Y-82789691D01*
X131074596Y-82803852D01*
X131103005Y-82820879D01*
X131129608Y-82840609D01*
X131154149Y-82862851D01*
X131176391Y-82887392D01*
X131196121Y-82913995D01*
X131213148Y-82942404D01*
X131227309Y-82972344D01*
X131238467Y-83003529D01*
X131246515Y-83035657D01*
X131251375Y-83068419D01*
X131253000Y-83101500D01*
X131253000Y-83776500D01*
X131251375Y-83809581D01*
X131246515Y-83842343D01*
X131238467Y-83874471D01*
X131227309Y-83905656D01*
X131213148Y-83935596D01*
X131196121Y-83964005D01*
X131176391Y-83990608D01*
X131154149Y-84015149D01*
X131129608Y-84037391D01*
X131103005Y-84057121D01*
X131074596Y-84074148D01*
X131044656Y-84088309D01*
X131013471Y-84099467D01*
X130981343Y-84107515D01*
X130948581Y-84112375D01*
X130915500Y-84114000D01*
X130140500Y-84114000D01*
X130107419Y-84112375D01*
X130074657Y-84107515D01*
X130042529Y-84099467D01*
X130011344Y-84088309D01*
X129981404Y-84074148D01*
X129952995Y-84057121D01*
X129926392Y-84037391D01*
X129901851Y-84015149D01*
X129879609Y-83990608D01*
X129859879Y-83964005D01*
X129842852Y-83935596D01*
X129828691Y-83905656D01*
X129817533Y-83874471D01*
X129809485Y-83842343D01*
X129804625Y-83809581D01*
X129803000Y-83776500D01*
X129803000Y-83101500D01*
X129804625Y-83068419D01*
X129809485Y-83035657D01*
X129817533Y-83003529D01*
X129828691Y-82972344D01*
X129842852Y-82942404D01*
X129859879Y-82913995D01*
X129879609Y-82887392D01*
X129901851Y-82862851D01*
X129926392Y-82840609D01*
X129952995Y-82820879D01*
X129981404Y-82803852D01*
X130011344Y-82789691D01*
X130042529Y-82778533D01*
X130074657Y-82770485D01*
X130107419Y-82765625D01*
X130140500Y-82764000D01*
X130915500Y-82764000D01*
X130948581Y-82765625D01*
X130948581Y-82765625D01*
G37*
D13*
X130528000Y-83439000D03*
G04 #@! TD*
D12*
G04 #@! TO.C,C14*
G36*
X131456581Y-79082625D02*
X131489343Y-79087485D01*
X131521471Y-79095533D01*
X131552656Y-79106691D01*
X131582596Y-79120852D01*
X131611005Y-79137879D01*
X131637608Y-79157609D01*
X131662149Y-79179851D01*
X131684391Y-79204392D01*
X131704121Y-79230995D01*
X131721148Y-79259404D01*
X131735309Y-79289344D01*
X131746467Y-79320529D01*
X131754515Y-79352657D01*
X131759375Y-79385419D01*
X131761000Y-79418500D01*
X131761000Y-80093500D01*
X131759375Y-80126581D01*
X131754515Y-80159343D01*
X131746467Y-80191471D01*
X131735309Y-80222656D01*
X131721148Y-80252596D01*
X131704121Y-80281005D01*
X131684391Y-80307608D01*
X131662149Y-80332149D01*
X131637608Y-80354391D01*
X131611005Y-80374121D01*
X131582596Y-80391148D01*
X131552656Y-80405309D01*
X131521471Y-80416467D01*
X131489343Y-80424515D01*
X131456581Y-80429375D01*
X131423500Y-80431000D01*
X130648500Y-80431000D01*
X130615419Y-80429375D01*
X130582657Y-80424515D01*
X130550529Y-80416467D01*
X130519344Y-80405309D01*
X130489404Y-80391148D01*
X130460995Y-80374121D01*
X130434392Y-80354391D01*
X130409851Y-80332149D01*
X130387609Y-80307608D01*
X130367879Y-80281005D01*
X130350852Y-80252596D01*
X130336691Y-80222656D01*
X130325533Y-80191471D01*
X130317485Y-80159343D01*
X130312625Y-80126581D01*
X130311000Y-80093500D01*
X130311000Y-79418500D01*
X130312625Y-79385419D01*
X130317485Y-79352657D01*
X130325533Y-79320529D01*
X130336691Y-79289344D01*
X130350852Y-79259404D01*
X130367879Y-79230995D01*
X130387609Y-79204392D01*
X130409851Y-79179851D01*
X130434392Y-79157609D01*
X130460995Y-79137879D01*
X130489404Y-79120852D01*
X130519344Y-79106691D01*
X130550529Y-79095533D01*
X130582657Y-79087485D01*
X130615419Y-79082625D01*
X130648500Y-79081000D01*
X131423500Y-79081000D01*
X131456581Y-79082625D01*
X131456581Y-79082625D01*
G37*
D13*
X131036000Y-79756000D03*
D12*
G36*
X129706581Y-79082625D02*
X129739343Y-79087485D01*
X129771471Y-79095533D01*
X129802656Y-79106691D01*
X129832596Y-79120852D01*
X129861005Y-79137879D01*
X129887608Y-79157609D01*
X129912149Y-79179851D01*
X129934391Y-79204392D01*
X129954121Y-79230995D01*
X129971148Y-79259404D01*
X129985309Y-79289344D01*
X129996467Y-79320529D01*
X130004515Y-79352657D01*
X130009375Y-79385419D01*
X130011000Y-79418500D01*
X130011000Y-80093500D01*
X130009375Y-80126581D01*
X130004515Y-80159343D01*
X129996467Y-80191471D01*
X129985309Y-80222656D01*
X129971148Y-80252596D01*
X129954121Y-80281005D01*
X129934391Y-80307608D01*
X129912149Y-80332149D01*
X129887608Y-80354391D01*
X129861005Y-80374121D01*
X129832596Y-80391148D01*
X129802656Y-80405309D01*
X129771471Y-80416467D01*
X129739343Y-80424515D01*
X129706581Y-80429375D01*
X129673500Y-80431000D01*
X128898500Y-80431000D01*
X128865419Y-80429375D01*
X128832657Y-80424515D01*
X128800529Y-80416467D01*
X128769344Y-80405309D01*
X128739404Y-80391148D01*
X128710995Y-80374121D01*
X128684392Y-80354391D01*
X128659851Y-80332149D01*
X128637609Y-80307608D01*
X128617879Y-80281005D01*
X128600852Y-80252596D01*
X128586691Y-80222656D01*
X128575533Y-80191471D01*
X128567485Y-80159343D01*
X128562625Y-80126581D01*
X128561000Y-80093500D01*
X128561000Y-79418500D01*
X128562625Y-79385419D01*
X128567485Y-79352657D01*
X128575533Y-79320529D01*
X128586691Y-79289344D01*
X128600852Y-79259404D01*
X128617879Y-79230995D01*
X128637609Y-79204392D01*
X128659851Y-79179851D01*
X128684392Y-79157609D01*
X128710995Y-79137879D01*
X128739404Y-79120852D01*
X128769344Y-79106691D01*
X128800529Y-79095533D01*
X128832657Y-79087485D01*
X128865419Y-79082625D01*
X128898500Y-79081000D01*
X129673500Y-79081000D01*
X129706581Y-79082625D01*
X129706581Y-79082625D01*
G37*
D13*
X129286000Y-79756000D03*
G04 #@! TD*
D12*
G04 #@! TO.C,C15*
G36*
X121103071Y-64379623D02*
X121135781Y-64384475D01*
X121167857Y-64392509D01*
X121198991Y-64403649D01*
X121228884Y-64417787D01*
X121257247Y-64434787D01*
X121283807Y-64454485D01*
X121308308Y-64476692D01*
X121330515Y-64501193D01*
X121350213Y-64527753D01*
X121367213Y-64556116D01*
X121381351Y-64586009D01*
X121392491Y-64617143D01*
X121400525Y-64649219D01*
X121405377Y-64681929D01*
X121407000Y-64714956D01*
X121407000Y-65841044D01*
X121405377Y-65874071D01*
X121400525Y-65906781D01*
X121392491Y-65938857D01*
X121381351Y-65969991D01*
X121367213Y-65999884D01*
X121350213Y-66028247D01*
X121330515Y-66054807D01*
X121308308Y-66079308D01*
X121283807Y-66101515D01*
X121257247Y-66121213D01*
X121228884Y-66138213D01*
X121198991Y-66152351D01*
X121167857Y-66163491D01*
X121135781Y-66171525D01*
X121103071Y-66176377D01*
X121070044Y-66178000D01*
X120193956Y-66178000D01*
X120160929Y-66176377D01*
X120128219Y-66171525D01*
X120096143Y-66163491D01*
X120065009Y-66152351D01*
X120035116Y-66138213D01*
X120006753Y-66121213D01*
X119980193Y-66101515D01*
X119955692Y-66079308D01*
X119933485Y-66054807D01*
X119913787Y-66028247D01*
X119896787Y-65999884D01*
X119882649Y-65969991D01*
X119871509Y-65938857D01*
X119863475Y-65906781D01*
X119858623Y-65874071D01*
X119857000Y-65841044D01*
X119857000Y-64714956D01*
X119858623Y-64681929D01*
X119863475Y-64649219D01*
X119871509Y-64617143D01*
X119882649Y-64586009D01*
X119896787Y-64556116D01*
X119913787Y-64527753D01*
X119933485Y-64501193D01*
X119955692Y-64476692D01*
X119980193Y-64454485D01*
X120006753Y-64434787D01*
X120035116Y-64417787D01*
X120065009Y-64403649D01*
X120096143Y-64392509D01*
X120128219Y-64384475D01*
X120160929Y-64379623D01*
X120193956Y-64378000D01*
X121070044Y-64378000D01*
X121103071Y-64379623D01*
X121103071Y-64379623D01*
G37*
D17*
X120632000Y-65278000D03*
D12*
G36*
X123153071Y-64379623D02*
X123185781Y-64384475D01*
X123217857Y-64392509D01*
X123248991Y-64403649D01*
X123278884Y-64417787D01*
X123307247Y-64434787D01*
X123333807Y-64454485D01*
X123358308Y-64476692D01*
X123380515Y-64501193D01*
X123400213Y-64527753D01*
X123417213Y-64556116D01*
X123431351Y-64586009D01*
X123442491Y-64617143D01*
X123450525Y-64649219D01*
X123455377Y-64681929D01*
X123457000Y-64714956D01*
X123457000Y-65841044D01*
X123455377Y-65874071D01*
X123450525Y-65906781D01*
X123442491Y-65938857D01*
X123431351Y-65969991D01*
X123417213Y-65999884D01*
X123400213Y-66028247D01*
X123380515Y-66054807D01*
X123358308Y-66079308D01*
X123333807Y-66101515D01*
X123307247Y-66121213D01*
X123278884Y-66138213D01*
X123248991Y-66152351D01*
X123217857Y-66163491D01*
X123185781Y-66171525D01*
X123153071Y-66176377D01*
X123120044Y-66178000D01*
X122243956Y-66178000D01*
X122210929Y-66176377D01*
X122178219Y-66171525D01*
X122146143Y-66163491D01*
X122115009Y-66152351D01*
X122085116Y-66138213D01*
X122056753Y-66121213D01*
X122030193Y-66101515D01*
X122005692Y-66079308D01*
X121983485Y-66054807D01*
X121963787Y-66028247D01*
X121946787Y-65999884D01*
X121932649Y-65969991D01*
X121921509Y-65938857D01*
X121913475Y-65906781D01*
X121908623Y-65874071D01*
X121907000Y-65841044D01*
X121907000Y-64714956D01*
X121908623Y-64681929D01*
X121913475Y-64649219D01*
X121921509Y-64617143D01*
X121932649Y-64586009D01*
X121946787Y-64556116D01*
X121963787Y-64527753D01*
X121983485Y-64501193D01*
X122005692Y-64476692D01*
X122030193Y-64454485D01*
X122056753Y-64434787D01*
X122085116Y-64417787D01*
X122115009Y-64403649D01*
X122146143Y-64392509D01*
X122178219Y-64384475D01*
X122210929Y-64379623D01*
X122243956Y-64378000D01*
X123120044Y-64378000D01*
X123153071Y-64379623D01*
X123153071Y-64379623D01*
G37*
D17*
X122682000Y-65278000D03*
G04 #@! TD*
D12*
G04 #@! TO.C,C17*
G36*
X129734581Y-80606625D02*
X129767343Y-80611485D01*
X129799471Y-80619533D01*
X129830656Y-80630691D01*
X129860596Y-80644852D01*
X129889005Y-80661879D01*
X129915608Y-80681609D01*
X129940149Y-80703851D01*
X129962391Y-80728392D01*
X129982121Y-80754995D01*
X129999148Y-80783404D01*
X130013309Y-80813344D01*
X130024467Y-80844529D01*
X130032515Y-80876657D01*
X130037375Y-80909419D01*
X130039000Y-80942500D01*
X130039000Y-81617500D01*
X130037375Y-81650581D01*
X130032515Y-81683343D01*
X130024467Y-81715471D01*
X130013309Y-81746656D01*
X129999148Y-81776596D01*
X129982121Y-81805005D01*
X129962391Y-81831608D01*
X129940149Y-81856149D01*
X129915608Y-81878391D01*
X129889005Y-81898121D01*
X129860596Y-81915148D01*
X129830656Y-81929309D01*
X129799471Y-81940467D01*
X129767343Y-81948515D01*
X129734581Y-81953375D01*
X129701500Y-81955000D01*
X128926500Y-81955000D01*
X128893419Y-81953375D01*
X128860657Y-81948515D01*
X128828529Y-81940467D01*
X128797344Y-81929309D01*
X128767404Y-81915148D01*
X128738995Y-81898121D01*
X128712392Y-81878391D01*
X128687851Y-81856149D01*
X128665609Y-81831608D01*
X128645879Y-81805005D01*
X128628852Y-81776596D01*
X128614691Y-81746656D01*
X128603533Y-81715471D01*
X128595485Y-81683343D01*
X128590625Y-81650581D01*
X128589000Y-81617500D01*
X128589000Y-80942500D01*
X128590625Y-80909419D01*
X128595485Y-80876657D01*
X128603533Y-80844529D01*
X128614691Y-80813344D01*
X128628852Y-80783404D01*
X128645879Y-80754995D01*
X128665609Y-80728392D01*
X128687851Y-80703851D01*
X128712392Y-80681609D01*
X128738995Y-80661879D01*
X128767404Y-80644852D01*
X128797344Y-80630691D01*
X128828529Y-80619533D01*
X128860657Y-80611485D01*
X128893419Y-80606625D01*
X128926500Y-80605000D01*
X129701500Y-80605000D01*
X129734581Y-80606625D01*
X129734581Y-80606625D01*
G37*
D13*
X129314000Y-81280000D03*
D12*
G36*
X131484581Y-80606625D02*
X131517343Y-80611485D01*
X131549471Y-80619533D01*
X131580656Y-80630691D01*
X131610596Y-80644852D01*
X131639005Y-80661879D01*
X131665608Y-80681609D01*
X131690149Y-80703851D01*
X131712391Y-80728392D01*
X131732121Y-80754995D01*
X131749148Y-80783404D01*
X131763309Y-80813344D01*
X131774467Y-80844529D01*
X131782515Y-80876657D01*
X131787375Y-80909419D01*
X131789000Y-80942500D01*
X131789000Y-81617500D01*
X131787375Y-81650581D01*
X131782515Y-81683343D01*
X131774467Y-81715471D01*
X131763309Y-81746656D01*
X131749148Y-81776596D01*
X131732121Y-81805005D01*
X131712391Y-81831608D01*
X131690149Y-81856149D01*
X131665608Y-81878391D01*
X131639005Y-81898121D01*
X131610596Y-81915148D01*
X131580656Y-81929309D01*
X131549471Y-81940467D01*
X131517343Y-81948515D01*
X131484581Y-81953375D01*
X131451500Y-81955000D01*
X130676500Y-81955000D01*
X130643419Y-81953375D01*
X130610657Y-81948515D01*
X130578529Y-81940467D01*
X130547344Y-81929309D01*
X130517404Y-81915148D01*
X130488995Y-81898121D01*
X130462392Y-81878391D01*
X130437851Y-81856149D01*
X130415609Y-81831608D01*
X130395879Y-81805005D01*
X130378852Y-81776596D01*
X130364691Y-81746656D01*
X130353533Y-81715471D01*
X130345485Y-81683343D01*
X130340625Y-81650581D01*
X130339000Y-81617500D01*
X130339000Y-80942500D01*
X130340625Y-80909419D01*
X130345485Y-80876657D01*
X130353533Y-80844529D01*
X130364691Y-80813344D01*
X130378852Y-80783404D01*
X130395879Y-80754995D01*
X130415609Y-80728392D01*
X130437851Y-80703851D01*
X130462392Y-80681609D01*
X130488995Y-80661879D01*
X130517404Y-80644852D01*
X130547344Y-80630691D01*
X130578529Y-80619533D01*
X130610657Y-80611485D01*
X130643419Y-80606625D01*
X130676500Y-80605000D01*
X131451500Y-80605000D01*
X131484581Y-80606625D01*
X131484581Y-80606625D01*
G37*
D13*
X131064000Y-81280000D03*
G04 #@! TD*
D12*
G04 #@! TO.C,C18*
G36*
X119488071Y-80889623D02*
X119520781Y-80894475D01*
X119552857Y-80902509D01*
X119583991Y-80913649D01*
X119613884Y-80927787D01*
X119642247Y-80944787D01*
X119668807Y-80964485D01*
X119693308Y-80986692D01*
X119715515Y-81011193D01*
X119735213Y-81037753D01*
X119752213Y-81066116D01*
X119766351Y-81096009D01*
X119777491Y-81127143D01*
X119785525Y-81159219D01*
X119790377Y-81191929D01*
X119792000Y-81224956D01*
X119792000Y-82351044D01*
X119790377Y-82384071D01*
X119785525Y-82416781D01*
X119777491Y-82448857D01*
X119766351Y-82479991D01*
X119752213Y-82509884D01*
X119735213Y-82538247D01*
X119715515Y-82564807D01*
X119693308Y-82589308D01*
X119668807Y-82611515D01*
X119642247Y-82631213D01*
X119613884Y-82648213D01*
X119583991Y-82662351D01*
X119552857Y-82673491D01*
X119520781Y-82681525D01*
X119488071Y-82686377D01*
X119455044Y-82688000D01*
X118578956Y-82688000D01*
X118545929Y-82686377D01*
X118513219Y-82681525D01*
X118481143Y-82673491D01*
X118450009Y-82662351D01*
X118420116Y-82648213D01*
X118391753Y-82631213D01*
X118365193Y-82611515D01*
X118340692Y-82589308D01*
X118318485Y-82564807D01*
X118298787Y-82538247D01*
X118281787Y-82509884D01*
X118267649Y-82479991D01*
X118256509Y-82448857D01*
X118248475Y-82416781D01*
X118243623Y-82384071D01*
X118242000Y-82351044D01*
X118242000Y-81224956D01*
X118243623Y-81191929D01*
X118248475Y-81159219D01*
X118256509Y-81127143D01*
X118267649Y-81096009D01*
X118281787Y-81066116D01*
X118298787Y-81037753D01*
X118318485Y-81011193D01*
X118340692Y-80986692D01*
X118365193Y-80964485D01*
X118391753Y-80944787D01*
X118420116Y-80927787D01*
X118450009Y-80913649D01*
X118481143Y-80902509D01*
X118513219Y-80894475D01*
X118545929Y-80889623D01*
X118578956Y-80888000D01*
X119455044Y-80888000D01*
X119488071Y-80889623D01*
X119488071Y-80889623D01*
G37*
D17*
X119017000Y-81788000D03*
D12*
G36*
X117438071Y-80889623D02*
X117470781Y-80894475D01*
X117502857Y-80902509D01*
X117533991Y-80913649D01*
X117563884Y-80927787D01*
X117592247Y-80944787D01*
X117618807Y-80964485D01*
X117643308Y-80986692D01*
X117665515Y-81011193D01*
X117685213Y-81037753D01*
X117702213Y-81066116D01*
X117716351Y-81096009D01*
X117727491Y-81127143D01*
X117735525Y-81159219D01*
X117740377Y-81191929D01*
X117742000Y-81224956D01*
X117742000Y-82351044D01*
X117740377Y-82384071D01*
X117735525Y-82416781D01*
X117727491Y-82448857D01*
X117716351Y-82479991D01*
X117702213Y-82509884D01*
X117685213Y-82538247D01*
X117665515Y-82564807D01*
X117643308Y-82589308D01*
X117618807Y-82611515D01*
X117592247Y-82631213D01*
X117563884Y-82648213D01*
X117533991Y-82662351D01*
X117502857Y-82673491D01*
X117470781Y-82681525D01*
X117438071Y-82686377D01*
X117405044Y-82688000D01*
X116528956Y-82688000D01*
X116495929Y-82686377D01*
X116463219Y-82681525D01*
X116431143Y-82673491D01*
X116400009Y-82662351D01*
X116370116Y-82648213D01*
X116341753Y-82631213D01*
X116315193Y-82611515D01*
X116290692Y-82589308D01*
X116268485Y-82564807D01*
X116248787Y-82538247D01*
X116231787Y-82509884D01*
X116217649Y-82479991D01*
X116206509Y-82448857D01*
X116198475Y-82416781D01*
X116193623Y-82384071D01*
X116192000Y-82351044D01*
X116192000Y-81224956D01*
X116193623Y-81191929D01*
X116198475Y-81159219D01*
X116206509Y-81127143D01*
X116217649Y-81096009D01*
X116231787Y-81066116D01*
X116248787Y-81037753D01*
X116268485Y-81011193D01*
X116290692Y-80986692D01*
X116315193Y-80964485D01*
X116341753Y-80944787D01*
X116370116Y-80927787D01*
X116400009Y-80913649D01*
X116431143Y-80902509D01*
X116463219Y-80894475D01*
X116495929Y-80889623D01*
X116528956Y-80888000D01*
X117405044Y-80888000D01*
X117438071Y-80889623D01*
X117438071Y-80889623D01*
G37*
D17*
X116967000Y-81788000D03*
G04 #@! TD*
D12*
G04 #@! TO.C,C20*
G36*
X115305581Y-78778625D02*
X115338343Y-78783485D01*
X115370471Y-78791533D01*
X115401656Y-78802691D01*
X115431596Y-78816852D01*
X115460005Y-78833879D01*
X115486608Y-78853609D01*
X115511149Y-78875851D01*
X115533391Y-78900392D01*
X115553121Y-78926995D01*
X115570148Y-78955404D01*
X115584309Y-78985344D01*
X115595467Y-79016529D01*
X115603515Y-79048657D01*
X115608375Y-79081419D01*
X115610000Y-79114500D01*
X115610000Y-79889500D01*
X115608375Y-79922581D01*
X115603515Y-79955343D01*
X115595467Y-79987471D01*
X115584309Y-80018656D01*
X115570148Y-80048596D01*
X115553121Y-80077005D01*
X115533391Y-80103608D01*
X115511149Y-80128149D01*
X115486608Y-80150391D01*
X115460005Y-80170121D01*
X115431596Y-80187148D01*
X115401656Y-80201309D01*
X115370471Y-80212467D01*
X115338343Y-80220515D01*
X115305581Y-80225375D01*
X115272500Y-80227000D01*
X114597500Y-80227000D01*
X114564419Y-80225375D01*
X114531657Y-80220515D01*
X114499529Y-80212467D01*
X114468344Y-80201309D01*
X114438404Y-80187148D01*
X114409995Y-80170121D01*
X114383392Y-80150391D01*
X114358851Y-80128149D01*
X114336609Y-80103608D01*
X114316879Y-80077005D01*
X114299852Y-80048596D01*
X114285691Y-80018656D01*
X114274533Y-79987471D01*
X114266485Y-79955343D01*
X114261625Y-79922581D01*
X114260000Y-79889500D01*
X114260000Y-79114500D01*
X114261625Y-79081419D01*
X114266485Y-79048657D01*
X114274533Y-79016529D01*
X114285691Y-78985344D01*
X114299852Y-78955404D01*
X114316879Y-78926995D01*
X114336609Y-78900392D01*
X114358851Y-78875851D01*
X114383392Y-78853609D01*
X114409995Y-78833879D01*
X114438404Y-78816852D01*
X114468344Y-78802691D01*
X114499529Y-78791533D01*
X114531657Y-78783485D01*
X114564419Y-78778625D01*
X114597500Y-78777000D01*
X115272500Y-78777000D01*
X115305581Y-78778625D01*
X115305581Y-78778625D01*
G37*
D13*
X114935000Y-79502000D03*
D12*
G36*
X115305581Y-80528625D02*
X115338343Y-80533485D01*
X115370471Y-80541533D01*
X115401656Y-80552691D01*
X115431596Y-80566852D01*
X115460005Y-80583879D01*
X115486608Y-80603609D01*
X115511149Y-80625851D01*
X115533391Y-80650392D01*
X115553121Y-80676995D01*
X115570148Y-80705404D01*
X115584309Y-80735344D01*
X115595467Y-80766529D01*
X115603515Y-80798657D01*
X115608375Y-80831419D01*
X115610000Y-80864500D01*
X115610000Y-81639500D01*
X115608375Y-81672581D01*
X115603515Y-81705343D01*
X115595467Y-81737471D01*
X115584309Y-81768656D01*
X115570148Y-81798596D01*
X115553121Y-81827005D01*
X115533391Y-81853608D01*
X115511149Y-81878149D01*
X115486608Y-81900391D01*
X115460005Y-81920121D01*
X115431596Y-81937148D01*
X115401656Y-81951309D01*
X115370471Y-81962467D01*
X115338343Y-81970515D01*
X115305581Y-81975375D01*
X115272500Y-81977000D01*
X114597500Y-81977000D01*
X114564419Y-81975375D01*
X114531657Y-81970515D01*
X114499529Y-81962467D01*
X114468344Y-81951309D01*
X114438404Y-81937148D01*
X114409995Y-81920121D01*
X114383392Y-81900391D01*
X114358851Y-81878149D01*
X114336609Y-81853608D01*
X114316879Y-81827005D01*
X114299852Y-81798596D01*
X114285691Y-81768656D01*
X114274533Y-81737471D01*
X114266485Y-81705343D01*
X114261625Y-81672581D01*
X114260000Y-81639500D01*
X114260000Y-80864500D01*
X114261625Y-80831419D01*
X114266485Y-80798657D01*
X114274533Y-80766529D01*
X114285691Y-80735344D01*
X114299852Y-80705404D01*
X114316879Y-80676995D01*
X114336609Y-80650392D01*
X114358851Y-80625851D01*
X114383392Y-80603609D01*
X114409995Y-80583879D01*
X114438404Y-80566852D01*
X114468344Y-80552691D01*
X114499529Y-80541533D01*
X114531657Y-80533485D01*
X114564419Y-80528625D01*
X114597500Y-80527000D01*
X115272500Y-80527000D01*
X115305581Y-80528625D01*
X115305581Y-80528625D01*
G37*
D13*
X114935000Y-81252000D03*
G04 #@! TD*
D12*
G04 #@! TO.C,C30*
G36*
X110987581Y-67983625D02*
X111020343Y-67988485D01*
X111052471Y-67996533D01*
X111083656Y-68007691D01*
X111113596Y-68021852D01*
X111142005Y-68038879D01*
X111168608Y-68058609D01*
X111193149Y-68080851D01*
X111215391Y-68105392D01*
X111235121Y-68131995D01*
X111252148Y-68160404D01*
X111266309Y-68190344D01*
X111277467Y-68221529D01*
X111285515Y-68253657D01*
X111290375Y-68286419D01*
X111292000Y-68319500D01*
X111292000Y-69094500D01*
X111290375Y-69127581D01*
X111285515Y-69160343D01*
X111277467Y-69192471D01*
X111266309Y-69223656D01*
X111252148Y-69253596D01*
X111235121Y-69282005D01*
X111215391Y-69308608D01*
X111193149Y-69333149D01*
X111168608Y-69355391D01*
X111142005Y-69375121D01*
X111113596Y-69392148D01*
X111083656Y-69406309D01*
X111052471Y-69417467D01*
X111020343Y-69425515D01*
X110987581Y-69430375D01*
X110954500Y-69432000D01*
X110279500Y-69432000D01*
X110246419Y-69430375D01*
X110213657Y-69425515D01*
X110181529Y-69417467D01*
X110150344Y-69406309D01*
X110120404Y-69392148D01*
X110091995Y-69375121D01*
X110065392Y-69355391D01*
X110040851Y-69333149D01*
X110018609Y-69308608D01*
X109998879Y-69282005D01*
X109981852Y-69253596D01*
X109967691Y-69223656D01*
X109956533Y-69192471D01*
X109948485Y-69160343D01*
X109943625Y-69127581D01*
X109942000Y-69094500D01*
X109942000Y-68319500D01*
X109943625Y-68286419D01*
X109948485Y-68253657D01*
X109956533Y-68221529D01*
X109967691Y-68190344D01*
X109981852Y-68160404D01*
X109998879Y-68131995D01*
X110018609Y-68105392D01*
X110040851Y-68080851D01*
X110065392Y-68058609D01*
X110091995Y-68038879D01*
X110120404Y-68021852D01*
X110150344Y-68007691D01*
X110181529Y-67996533D01*
X110213657Y-67988485D01*
X110246419Y-67983625D01*
X110279500Y-67982000D01*
X110954500Y-67982000D01*
X110987581Y-67983625D01*
X110987581Y-67983625D01*
G37*
D13*
X110617000Y-68707000D03*
D12*
G36*
X110987581Y-69733625D02*
X111020343Y-69738485D01*
X111052471Y-69746533D01*
X111083656Y-69757691D01*
X111113596Y-69771852D01*
X111142005Y-69788879D01*
X111168608Y-69808609D01*
X111193149Y-69830851D01*
X111215391Y-69855392D01*
X111235121Y-69881995D01*
X111252148Y-69910404D01*
X111266309Y-69940344D01*
X111277467Y-69971529D01*
X111285515Y-70003657D01*
X111290375Y-70036419D01*
X111292000Y-70069500D01*
X111292000Y-70844500D01*
X111290375Y-70877581D01*
X111285515Y-70910343D01*
X111277467Y-70942471D01*
X111266309Y-70973656D01*
X111252148Y-71003596D01*
X111235121Y-71032005D01*
X111215391Y-71058608D01*
X111193149Y-71083149D01*
X111168608Y-71105391D01*
X111142005Y-71125121D01*
X111113596Y-71142148D01*
X111083656Y-71156309D01*
X111052471Y-71167467D01*
X111020343Y-71175515D01*
X110987581Y-71180375D01*
X110954500Y-71182000D01*
X110279500Y-71182000D01*
X110246419Y-71180375D01*
X110213657Y-71175515D01*
X110181529Y-71167467D01*
X110150344Y-71156309D01*
X110120404Y-71142148D01*
X110091995Y-71125121D01*
X110065392Y-71105391D01*
X110040851Y-71083149D01*
X110018609Y-71058608D01*
X109998879Y-71032005D01*
X109981852Y-71003596D01*
X109967691Y-70973656D01*
X109956533Y-70942471D01*
X109948485Y-70910343D01*
X109943625Y-70877581D01*
X109942000Y-70844500D01*
X109942000Y-70069500D01*
X109943625Y-70036419D01*
X109948485Y-70003657D01*
X109956533Y-69971529D01*
X109967691Y-69940344D01*
X109981852Y-69910404D01*
X109998879Y-69881995D01*
X110018609Y-69855392D01*
X110040851Y-69830851D01*
X110065392Y-69808609D01*
X110091995Y-69788879D01*
X110120404Y-69771852D01*
X110150344Y-69757691D01*
X110181529Y-69746533D01*
X110213657Y-69738485D01*
X110246419Y-69733625D01*
X110279500Y-69732000D01*
X110954500Y-69732000D01*
X110987581Y-69733625D01*
X110987581Y-69733625D01*
G37*
D13*
X110617000Y-70457000D03*
G04 #@! TD*
D12*
G04 #@! TO.C,C31*
G36*
X114184581Y-66001625D02*
X114217343Y-66006485D01*
X114249471Y-66014533D01*
X114280656Y-66025691D01*
X114310596Y-66039852D01*
X114339005Y-66056879D01*
X114365608Y-66076609D01*
X114390149Y-66098851D01*
X114412391Y-66123392D01*
X114432121Y-66149995D01*
X114449148Y-66178404D01*
X114463309Y-66208344D01*
X114474467Y-66239529D01*
X114482515Y-66271657D01*
X114487375Y-66304419D01*
X114489000Y-66337500D01*
X114489000Y-67012500D01*
X114487375Y-67045581D01*
X114482515Y-67078343D01*
X114474467Y-67110471D01*
X114463309Y-67141656D01*
X114449148Y-67171596D01*
X114432121Y-67200005D01*
X114412391Y-67226608D01*
X114390149Y-67251149D01*
X114365608Y-67273391D01*
X114339005Y-67293121D01*
X114310596Y-67310148D01*
X114280656Y-67324309D01*
X114249471Y-67335467D01*
X114217343Y-67343515D01*
X114184581Y-67348375D01*
X114151500Y-67350000D01*
X113376500Y-67350000D01*
X113343419Y-67348375D01*
X113310657Y-67343515D01*
X113278529Y-67335467D01*
X113247344Y-67324309D01*
X113217404Y-67310148D01*
X113188995Y-67293121D01*
X113162392Y-67273391D01*
X113137851Y-67251149D01*
X113115609Y-67226608D01*
X113095879Y-67200005D01*
X113078852Y-67171596D01*
X113064691Y-67141656D01*
X113053533Y-67110471D01*
X113045485Y-67078343D01*
X113040625Y-67045581D01*
X113039000Y-67012500D01*
X113039000Y-66337500D01*
X113040625Y-66304419D01*
X113045485Y-66271657D01*
X113053533Y-66239529D01*
X113064691Y-66208344D01*
X113078852Y-66178404D01*
X113095879Y-66149995D01*
X113115609Y-66123392D01*
X113137851Y-66098851D01*
X113162392Y-66076609D01*
X113188995Y-66056879D01*
X113217404Y-66039852D01*
X113247344Y-66025691D01*
X113278529Y-66014533D01*
X113310657Y-66006485D01*
X113343419Y-66001625D01*
X113376500Y-66000000D01*
X114151500Y-66000000D01*
X114184581Y-66001625D01*
X114184581Y-66001625D01*
G37*
D13*
X113764000Y-66675000D03*
D12*
G36*
X112434581Y-66001625D02*
X112467343Y-66006485D01*
X112499471Y-66014533D01*
X112530656Y-66025691D01*
X112560596Y-66039852D01*
X112589005Y-66056879D01*
X112615608Y-66076609D01*
X112640149Y-66098851D01*
X112662391Y-66123392D01*
X112682121Y-66149995D01*
X112699148Y-66178404D01*
X112713309Y-66208344D01*
X112724467Y-66239529D01*
X112732515Y-66271657D01*
X112737375Y-66304419D01*
X112739000Y-66337500D01*
X112739000Y-67012500D01*
X112737375Y-67045581D01*
X112732515Y-67078343D01*
X112724467Y-67110471D01*
X112713309Y-67141656D01*
X112699148Y-67171596D01*
X112682121Y-67200005D01*
X112662391Y-67226608D01*
X112640149Y-67251149D01*
X112615608Y-67273391D01*
X112589005Y-67293121D01*
X112560596Y-67310148D01*
X112530656Y-67324309D01*
X112499471Y-67335467D01*
X112467343Y-67343515D01*
X112434581Y-67348375D01*
X112401500Y-67350000D01*
X111626500Y-67350000D01*
X111593419Y-67348375D01*
X111560657Y-67343515D01*
X111528529Y-67335467D01*
X111497344Y-67324309D01*
X111467404Y-67310148D01*
X111438995Y-67293121D01*
X111412392Y-67273391D01*
X111387851Y-67251149D01*
X111365609Y-67226608D01*
X111345879Y-67200005D01*
X111328852Y-67171596D01*
X111314691Y-67141656D01*
X111303533Y-67110471D01*
X111295485Y-67078343D01*
X111290625Y-67045581D01*
X111289000Y-67012500D01*
X111289000Y-66337500D01*
X111290625Y-66304419D01*
X111295485Y-66271657D01*
X111303533Y-66239529D01*
X111314691Y-66208344D01*
X111328852Y-66178404D01*
X111345879Y-66149995D01*
X111365609Y-66123392D01*
X111387851Y-66098851D01*
X111412392Y-66076609D01*
X111438995Y-66056879D01*
X111467404Y-66039852D01*
X111497344Y-66025691D01*
X111528529Y-66014533D01*
X111560657Y-66006485D01*
X111593419Y-66001625D01*
X111626500Y-66000000D01*
X112401500Y-66000000D01*
X112434581Y-66001625D01*
X112434581Y-66001625D01*
G37*
D13*
X112014000Y-66675000D03*
G04 #@! TD*
D12*
G04 #@! TO.C,C32*
G36*
X117083581Y-64554625D02*
X117116343Y-64559485D01*
X117148471Y-64567533D01*
X117179656Y-64578691D01*
X117209596Y-64592852D01*
X117238005Y-64609879D01*
X117264608Y-64629609D01*
X117289149Y-64651851D01*
X117311391Y-64676392D01*
X117331121Y-64702995D01*
X117348148Y-64731404D01*
X117362309Y-64761344D01*
X117373467Y-64792529D01*
X117381515Y-64824657D01*
X117386375Y-64857419D01*
X117388000Y-64890500D01*
X117388000Y-65665500D01*
X117386375Y-65698581D01*
X117381515Y-65731343D01*
X117373467Y-65763471D01*
X117362309Y-65794656D01*
X117348148Y-65824596D01*
X117331121Y-65853005D01*
X117311391Y-65879608D01*
X117289149Y-65904149D01*
X117264608Y-65926391D01*
X117238005Y-65946121D01*
X117209596Y-65963148D01*
X117179656Y-65977309D01*
X117148471Y-65988467D01*
X117116343Y-65996515D01*
X117083581Y-66001375D01*
X117050500Y-66003000D01*
X116375500Y-66003000D01*
X116342419Y-66001375D01*
X116309657Y-65996515D01*
X116277529Y-65988467D01*
X116246344Y-65977309D01*
X116216404Y-65963148D01*
X116187995Y-65946121D01*
X116161392Y-65926391D01*
X116136851Y-65904149D01*
X116114609Y-65879608D01*
X116094879Y-65853005D01*
X116077852Y-65824596D01*
X116063691Y-65794656D01*
X116052533Y-65763471D01*
X116044485Y-65731343D01*
X116039625Y-65698581D01*
X116038000Y-65665500D01*
X116038000Y-64890500D01*
X116039625Y-64857419D01*
X116044485Y-64824657D01*
X116052533Y-64792529D01*
X116063691Y-64761344D01*
X116077852Y-64731404D01*
X116094879Y-64702995D01*
X116114609Y-64676392D01*
X116136851Y-64651851D01*
X116161392Y-64629609D01*
X116187995Y-64609879D01*
X116216404Y-64592852D01*
X116246344Y-64578691D01*
X116277529Y-64567533D01*
X116309657Y-64559485D01*
X116342419Y-64554625D01*
X116375500Y-64553000D01*
X117050500Y-64553000D01*
X117083581Y-64554625D01*
X117083581Y-64554625D01*
G37*
D13*
X116713000Y-65278000D03*
D12*
G36*
X117083581Y-66304625D02*
X117116343Y-66309485D01*
X117148471Y-66317533D01*
X117179656Y-66328691D01*
X117209596Y-66342852D01*
X117238005Y-66359879D01*
X117264608Y-66379609D01*
X117289149Y-66401851D01*
X117311391Y-66426392D01*
X117331121Y-66452995D01*
X117348148Y-66481404D01*
X117362309Y-66511344D01*
X117373467Y-66542529D01*
X117381515Y-66574657D01*
X117386375Y-66607419D01*
X117388000Y-66640500D01*
X117388000Y-67415500D01*
X117386375Y-67448581D01*
X117381515Y-67481343D01*
X117373467Y-67513471D01*
X117362309Y-67544656D01*
X117348148Y-67574596D01*
X117331121Y-67603005D01*
X117311391Y-67629608D01*
X117289149Y-67654149D01*
X117264608Y-67676391D01*
X117238005Y-67696121D01*
X117209596Y-67713148D01*
X117179656Y-67727309D01*
X117148471Y-67738467D01*
X117116343Y-67746515D01*
X117083581Y-67751375D01*
X117050500Y-67753000D01*
X116375500Y-67753000D01*
X116342419Y-67751375D01*
X116309657Y-67746515D01*
X116277529Y-67738467D01*
X116246344Y-67727309D01*
X116216404Y-67713148D01*
X116187995Y-67696121D01*
X116161392Y-67676391D01*
X116136851Y-67654149D01*
X116114609Y-67629608D01*
X116094879Y-67603005D01*
X116077852Y-67574596D01*
X116063691Y-67544656D01*
X116052533Y-67513471D01*
X116044485Y-67481343D01*
X116039625Y-67448581D01*
X116038000Y-67415500D01*
X116038000Y-66640500D01*
X116039625Y-66607419D01*
X116044485Y-66574657D01*
X116052533Y-66542529D01*
X116063691Y-66511344D01*
X116077852Y-66481404D01*
X116094879Y-66452995D01*
X116114609Y-66426392D01*
X116136851Y-66401851D01*
X116161392Y-66379609D01*
X116187995Y-66359879D01*
X116216404Y-66342852D01*
X116246344Y-66328691D01*
X116277529Y-66317533D01*
X116309657Y-66309485D01*
X116342419Y-66304625D01*
X116375500Y-66303000D01*
X117050500Y-66303000D01*
X117083581Y-66304625D01*
X117083581Y-66304625D01*
G37*
D13*
X116713000Y-67028000D03*
G04 #@! TD*
D12*
G04 #@! TO.C,C4*
G36*
X121375071Y-91811623D02*
X121407781Y-91816475D01*
X121439857Y-91824509D01*
X121470991Y-91835649D01*
X121500884Y-91849787D01*
X121529247Y-91866787D01*
X121555807Y-91886485D01*
X121580308Y-91908692D01*
X121602515Y-91933193D01*
X121622213Y-91959753D01*
X121639213Y-91988116D01*
X121653351Y-92018009D01*
X121664491Y-92049143D01*
X121672525Y-92081219D01*
X121677377Y-92113929D01*
X121679000Y-92146956D01*
X121679000Y-93273044D01*
X121677377Y-93306071D01*
X121672525Y-93338781D01*
X121664491Y-93370857D01*
X121653351Y-93401991D01*
X121639213Y-93431884D01*
X121622213Y-93460247D01*
X121602515Y-93486807D01*
X121580308Y-93511308D01*
X121555807Y-93533515D01*
X121529247Y-93553213D01*
X121500884Y-93570213D01*
X121470991Y-93584351D01*
X121439857Y-93595491D01*
X121407781Y-93603525D01*
X121375071Y-93608377D01*
X121342044Y-93610000D01*
X120465956Y-93610000D01*
X120432929Y-93608377D01*
X120400219Y-93603525D01*
X120368143Y-93595491D01*
X120337009Y-93584351D01*
X120307116Y-93570213D01*
X120278753Y-93553213D01*
X120252193Y-93533515D01*
X120227692Y-93511308D01*
X120205485Y-93486807D01*
X120185787Y-93460247D01*
X120168787Y-93431884D01*
X120154649Y-93401991D01*
X120143509Y-93370857D01*
X120135475Y-93338781D01*
X120130623Y-93306071D01*
X120129000Y-93273044D01*
X120129000Y-92146956D01*
X120130623Y-92113929D01*
X120135475Y-92081219D01*
X120143509Y-92049143D01*
X120154649Y-92018009D01*
X120168787Y-91988116D01*
X120185787Y-91959753D01*
X120205485Y-91933193D01*
X120227692Y-91908692D01*
X120252193Y-91886485D01*
X120278753Y-91866787D01*
X120307116Y-91849787D01*
X120337009Y-91835649D01*
X120368143Y-91824509D01*
X120400219Y-91816475D01*
X120432929Y-91811623D01*
X120465956Y-91810000D01*
X121342044Y-91810000D01*
X121375071Y-91811623D01*
X121375071Y-91811623D01*
G37*
D17*
X120904000Y-92710000D03*
D12*
G36*
X123425071Y-91811623D02*
X123457781Y-91816475D01*
X123489857Y-91824509D01*
X123520991Y-91835649D01*
X123550884Y-91849787D01*
X123579247Y-91866787D01*
X123605807Y-91886485D01*
X123630308Y-91908692D01*
X123652515Y-91933193D01*
X123672213Y-91959753D01*
X123689213Y-91988116D01*
X123703351Y-92018009D01*
X123714491Y-92049143D01*
X123722525Y-92081219D01*
X123727377Y-92113929D01*
X123729000Y-92146956D01*
X123729000Y-93273044D01*
X123727377Y-93306071D01*
X123722525Y-93338781D01*
X123714491Y-93370857D01*
X123703351Y-93401991D01*
X123689213Y-93431884D01*
X123672213Y-93460247D01*
X123652515Y-93486807D01*
X123630308Y-93511308D01*
X123605807Y-93533515D01*
X123579247Y-93553213D01*
X123550884Y-93570213D01*
X123520991Y-93584351D01*
X123489857Y-93595491D01*
X123457781Y-93603525D01*
X123425071Y-93608377D01*
X123392044Y-93610000D01*
X122515956Y-93610000D01*
X122482929Y-93608377D01*
X122450219Y-93603525D01*
X122418143Y-93595491D01*
X122387009Y-93584351D01*
X122357116Y-93570213D01*
X122328753Y-93553213D01*
X122302193Y-93533515D01*
X122277692Y-93511308D01*
X122255485Y-93486807D01*
X122235787Y-93460247D01*
X122218787Y-93431884D01*
X122204649Y-93401991D01*
X122193509Y-93370857D01*
X122185475Y-93338781D01*
X122180623Y-93306071D01*
X122179000Y-93273044D01*
X122179000Y-92146956D01*
X122180623Y-92113929D01*
X122185475Y-92081219D01*
X122193509Y-92049143D01*
X122204649Y-92018009D01*
X122218787Y-91988116D01*
X122235787Y-91959753D01*
X122255485Y-91933193D01*
X122277692Y-91908692D01*
X122302193Y-91886485D01*
X122328753Y-91866787D01*
X122357116Y-91849787D01*
X122387009Y-91835649D01*
X122418143Y-91824509D01*
X122450219Y-91816475D01*
X122482929Y-91811623D01*
X122515956Y-91810000D01*
X123392044Y-91810000D01*
X123425071Y-91811623D01*
X123425071Y-91811623D01*
G37*
D17*
X122954000Y-92710000D03*
G04 #@! TD*
D12*
G04 #@! TO.C,C6*
G36*
X120359071Y-106035623D02*
X120391781Y-106040475D01*
X120423857Y-106048509D01*
X120454991Y-106059649D01*
X120484884Y-106073787D01*
X120513247Y-106090787D01*
X120539807Y-106110485D01*
X120564308Y-106132692D01*
X120586515Y-106157193D01*
X120606213Y-106183753D01*
X120623213Y-106212116D01*
X120637351Y-106242009D01*
X120648491Y-106273143D01*
X120656525Y-106305219D01*
X120661377Y-106337929D01*
X120663000Y-106370956D01*
X120663000Y-107497044D01*
X120661377Y-107530071D01*
X120656525Y-107562781D01*
X120648491Y-107594857D01*
X120637351Y-107625991D01*
X120623213Y-107655884D01*
X120606213Y-107684247D01*
X120586515Y-107710807D01*
X120564308Y-107735308D01*
X120539807Y-107757515D01*
X120513247Y-107777213D01*
X120484884Y-107794213D01*
X120454991Y-107808351D01*
X120423857Y-107819491D01*
X120391781Y-107827525D01*
X120359071Y-107832377D01*
X120326044Y-107834000D01*
X119449956Y-107834000D01*
X119416929Y-107832377D01*
X119384219Y-107827525D01*
X119352143Y-107819491D01*
X119321009Y-107808351D01*
X119291116Y-107794213D01*
X119262753Y-107777213D01*
X119236193Y-107757515D01*
X119211692Y-107735308D01*
X119189485Y-107710807D01*
X119169787Y-107684247D01*
X119152787Y-107655884D01*
X119138649Y-107625991D01*
X119127509Y-107594857D01*
X119119475Y-107562781D01*
X119114623Y-107530071D01*
X119113000Y-107497044D01*
X119113000Y-106370956D01*
X119114623Y-106337929D01*
X119119475Y-106305219D01*
X119127509Y-106273143D01*
X119138649Y-106242009D01*
X119152787Y-106212116D01*
X119169787Y-106183753D01*
X119189485Y-106157193D01*
X119211692Y-106132692D01*
X119236193Y-106110485D01*
X119262753Y-106090787D01*
X119291116Y-106073787D01*
X119321009Y-106059649D01*
X119352143Y-106048509D01*
X119384219Y-106040475D01*
X119416929Y-106035623D01*
X119449956Y-106034000D01*
X120326044Y-106034000D01*
X120359071Y-106035623D01*
X120359071Y-106035623D01*
G37*
D17*
X119888000Y-106934000D03*
D12*
G36*
X118309071Y-106035623D02*
X118341781Y-106040475D01*
X118373857Y-106048509D01*
X118404991Y-106059649D01*
X118434884Y-106073787D01*
X118463247Y-106090787D01*
X118489807Y-106110485D01*
X118514308Y-106132692D01*
X118536515Y-106157193D01*
X118556213Y-106183753D01*
X118573213Y-106212116D01*
X118587351Y-106242009D01*
X118598491Y-106273143D01*
X118606525Y-106305219D01*
X118611377Y-106337929D01*
X118613000Y-106370956D01*
X118613000Y-107497044D01*
X118611377Y-107530071D01*
X118606525Y-107562781D01*
X118598491Y-107594857D01*
X118587351Y-107625991D01*
X118573213Y-107655884D01*
X118556213Y-107684247D01*
X118536515Y-107710807D01*
X118514308Y-107735308D01*
X118489807Y-107757515D01*
X118463247Y-107777213D01*
X118434884Y-107794213D01*
X118404991Y-107808351D01*
X118373857Y-107819491D01*
X118341781Y-107827525D01*
X118309071Y-107832377D01*
X118276044Y-107834000D01*
X117399956Y-107834000D01*
X117366929Y-107832377D01*
X117334219Y-107827525D01*
X117302143Y-107819491D01*
X117271009Y-107808351D01*
X117241116Y-107794213D01*
X117212753Y-107777213D01*
X117186193Y-107757515D01*
X117161692Y-107735308D01*
X117139485Y-107710807D01*
X117119787Y-107684247D01*
X117102787Y-107655884D01*
X117088649Y-107625991D01*
X117077509Y-107594857D01*
X117069475Y-107562781D01*
X117064623Y-107530071D01*
X117063000Y-107497044D01*
X117063000Y-106370956D01*
X117064623Y-106337929D01*
X117069475Y-106305219D01*
X117077509Y-106273143D01*
X117088649Y-106242009D01*
X117102787Y-106212116D01*
X117119787Y-106183753D01*
X117139485Y-106157193D01*
X117161692Y-106132692D01*
X117186193Y-106110485D01*
X117212753Y-106090787D01*
X117241116Y-106073787D01*
X117271009Y-106059649D01*
X117302143Y-106048509D01*
X117334219Y-106040475D01*
X117366929Y-106035623D01*
X117399956Y-106034000D01*
X118276044Y-106034000D01*
X118309071Y-106035623D01*
X118309071Y-106035623D01*
G37*
D17*
X117838000Y-106934000D03*
G04 #@! TD*
D12*
G04 #@! TO.C,C8*
G36*
X116041071Y-91684623D02*
X116073781Y-91689475D01*
X116105857Y-91697509D01*
X116136991Y-91708649D01*
X116166884Y-91722787D01*
X116195247Y-91739787D01*
X116221807Y-91759485D01*
X116246308Y-91781692D01*
X116268515Y-91806193D01*
X116288213Y-91832753D01*
X116305213Y-91861116D01*
X116319351Y-91891009D01*
X116330491Y-91922143D01*
X116338525Y-91954219D01*
X116343377Y-91986929D01*
X116345000Y-92019956D01*
X116345000Y-93146044D01*
X116343377Y-93179071D01*
X116338525Y-93211781D01*
X116330491Y-93243857D01*
X116319351Y-93274991D01*
X116305213Y-93304884D01*
X116288213Y-93333247D01*
X116268515Y-93359807D01*
X116246308Y-93384308D01*
X116221807Y-93406515D01*
X116195247Y-93426213D01*
X116166884Y-93443213D01*
X116136991Y-93457351D01*
X116105857Y-93468491D01*
X116073781Y-93476525D01*
X116041071Y-93481377D01*
X116008044Y-93483000D01*
X115131956Y-93483000D01*
X115098929Y-93481377D01*
X115066219Y-93476525D01*
X115034143Y-93468491D01*
X115003009Y-93457351D01*
X114973116Y-93443213D01*
X114944753Y-93426213D01*
X114918193Y-93406515D01*
X114893692Y-93384308D01*
X114871485Y-93359807D01*
X114851787Y-93333247D01*
X114834787Y-93304884D01*
X114820649Y-93274991D01*
X114809509Y-93243857D01*
X114801475Y-93211781D01*
X114796623Y-93179071D01*
X114795000Y-93146044D01*
X114795000Y-92019956D01*
X114796623Y-91986929D01*
X114801475Y-91954219D01*
X114809509Y-91922143D01*
X114820649Y-91891009D01*
X114834787Y-91861116D01*
X114851787Y-91832753D01*
X114871485Y-91806193D01*
X114893692Y-91781692D01*
X114918193Y-91759485D01*
X114944753Y-91739787D01*
X114973116Y-91722787D01*
X115003009Y-91708649D01*
X115034143Y-91697509D01*
X115066219Y-91689475D01*
X115098929Y-91684623D01*
X115131956Y-91683000D01*
X116008044Y-91683000D01*
X116041071Y-91684623D01*
X116041071Y-91684623D01*
G37*
D17*
X115570000Y-92583000D03*
D12*
G36*
X118091071Y-91684623D02*
X118123781Y-91689475D01*
X118155857Y-91697509D01*
X118186991Y-91708649D01*
X118216884Y-91722787D01*
X118245247Y-91739787D01*
X118271807Y-91759485D01*
X118296308Y-91781692D01*
X118318515Y-91806193D01*
X118338213Y-91832753D01*
X118355213Y-91861116D01*
X118369351Y-91891009D01*
X118380491Y-91922143D01*
X118388525Y-91954219D01*
X118393377Y-91986929D01*
X118395000Y-92019956D01*
X118395000Y-93146044D01*
X118393377Y-93179071D01*
X118388525Y-93211781D01*
X118380491Y-93243857D01*
X118369351Y-93274991D01*
X118355213Y-93304884D01*
X118338213Y-93333247D01*
X118318515Y-93359807D01*
X118296308Y-93384308D01*
X118271807Y-93406515D01*
X118245247Y-93426213D01*
X118216884Y-93443213D01*
X118186991Y-93457351D01*
X118155857Y-93468491D01*
X118123781Y-93476525D01*
X118091071Y-93481377D01*
X118058044Y-93483000D01*
X117181956Y-93483000D01*
X117148929Y-93481377D01*
X117116219Y-93476525D01*
X117084143Y-93468491D01*
X117053009Y-93457351D01*
X117023116Y-93443213D01*
X116994753Y-93426213D01*
X116968193Y-93406515D01*
X116943692Y-93384308D01*
X116921485Y-93359807D01*
X116901787Y-93333247D01*
X116884787Y-93304884D01*
X116870649Y-93274991D01*
X116859509Y-93243857D01*
X116851475Y-93211781D01*
X116846623Y-93179071D01*
X116845000Y-93146044D01*
X116845000Y-92019956D01*
X116846623Y-91986929D01*
X116851475Y-91954219D01*
X116859509Y-91922143D01*
X116870649Y-91891009D01*
X116884787Y-91861116D01*
X116901787Y-91832753D01*
X116921485Y-91806193D01*
X116943692Y-91781692D01*
X116968193Y-91759485D01*
X116994753Y-91739787D01*
X117023116Y-91722787D01*
X117053009Y-91708649D01*
X117084143Y-91697509D01*
X117116219Y-91689475D01*
X117148929Y-91684623D01*
X117181956Y-91683000D01*
X118058044Y-91683000D01*
X118091071Y-91684623D01*
X118091071Y-91684623D01*
G37*
D17*
X117620000Y-92583000D03*
G04 #@! TD*
D12*
G04 #@! TO.C,C10*
G36*
X110451071Y-99810623D02*
X110483781Y-99815475D01*
X110515857Y-99823509D01*
X110546991Y-99834649D01*
X110576884Y-99848787D01*
X110605247Y-99865787D01*
X110631807Y-99885485D01*
X110656308Y-99907692D01*
X110678515Y-99932193D01*
X110698213Y-99958753D01*
X110715213Y-99987116D01*
X110729351Y-100017009D01*
X110740491Y-100048143D01*
X110748525Y-100080219D01*
X110753377Y-100112929D01*
X110755000Y-100145956D01*
X110755000Y-101022044D01*
X110753377Y-101055071D01*
X110748525Y-101087781D01*
X110740491Y-101119857D01*
X110729351Y-101150991D01*
X110715213Y-101180884D01*
X110698213Y-101209247D01*
X110678515Y-101235807D01*
X110656308Y-101260308D01*
X110631807Y-101282515D01*
X110605247Y-101302213D01*
X110576884Y-101319213D01*
X110546991Y-101333351D01*
X110515857Y-101344491D01*
X110483781Y-101352525D01*
X110451071Y-101357377D01*
X110418044Y-101359000D01*
X109291956Y-101359000D01*
X109258929Y-101357377D01*
X109226219Y-101352525D01*
X109194143Y-101344491D01*
X109163009Y-101333351D01*
X109133116Y-101319213D01*
X109104753Y-101302213D01*
X109078193Y-101282515D01*
X109053692Y-101260308D01*
X109031485Y-101235807D01*
X109011787Y-101209247D01*
X108994787Y-101180884D01*
X108980649Y-101150991D01*
X108969509Y-101119857D01*
X108961475Y-101087781D01*
X108956623Y-101055071D01*
X108955000Y-101022044D01*
X108955000Y-100145956D01*
X108956623Y-100112929D01*
X108961475Y-100080219D01*
X108969509Y-100048143D01*
X108980649Y-100017009D01*
X108994787Y-99987116D01*
X109011787Y-99958753D01*
X109031485Y-99932193D01*
X109053692Y-99907692D01*
X109078193Y-99885485D01*
X109104753Y-99865787D01*
X109133116Y-99848787D01*
X109163009Y-99834649D01*
X109194143Y-99823509D01*
X109226219Y-99815475D01*
X109258929Y-99810623D01*
X109291956Y-99809000D01*
X110418044Y-99809000D01*
X110451071Y-99810623D01*
X110451071Y-99810623D01*
G37*
D17*
X109855000Y-100584000D03*
D12*
G36*
X110451071Y-97760623D02*
X110483781Y-97765475D01*
X110515857Y-97773509D01*
X110546991Y-97784649D01*
X110576884Y-97798787D01*
X110605247Y-97815787D01*
X110631807Y-97835485D01*
X110656308Y-97857692D01*
X110678515Y-97882193D01*
X110698213Y-97908753D01*
X110715213Y-97937116D01*
X110729351Y-97967009D01*
X110740491Y-97998143D01*
X110748525Y-98030219D01*
X110753377Y-98062929D01*
X110755000Y-98095956D01*
X110755000Y-98972044D01*
X110753377Y-99005071D01*
X110748525Y-99037781D01*
X110740491Y-99069857D01*
X110729351Y-99100991D01*
X110715213Y-99130884D01*
X110698213Y-99159247D01*
X110678515Y-99185807D01*
X110656308Y-99210308D01*
X110631807Y-99232515D01*
X110605247Y-99252213D01*
X110576884Y-99269213D01*
X110546991Y-99283351D01*
X110515857Y-99294491D01*
X110483781Y-99302525D01*
X110451071Y-99307377D01*
X110418044Y-99309000D01*
X109291956Y-99309000D01*
X109258929Y-99307377D01*
X109226219Y-99302525D01*
X109194143Y-99294491D01*
X109163009Y-99283351D01*
X109133116Y-99269213D01*
X109104753Y-99252213D01*
X109078193Y-99232515D01*
X109053692Y-99210308D01*
X109031485Y-99185807D01*
X109011787Y-99159247D01*
X108994787Y-99130884D01*
X108980649Y-99100991D01*
X108969509Y-99069857D01*
X108961475Y-99037781D01*
X108956623Y-99005071D01*
X108955000Y-98972044D01*
X108955000Y-98095956D01*
X108956623Y-98062929D01*
X108961475Y-98030219D01*
X108969509Y-97998143D01*
X108980649Y-97967009D01*
X108994787Y-97937116D01*
X109011787Y-97908753D01*
X109031485Y-97882193D01*
X109053692Y-97857692D01*
X109078193Y-97835485D01*
X109104753Y-97815787D01*
X109133116Y-97798787D01*
X109163009Y-97784649D01*
X109194143Y-97773509D01*
X109226219Y-97765475D01*
X109258929Y-97760623D01*
X109291956Y-97759000D01*
X110418044Y-97759000D01*
X110451071Y-97760623D01*
X110451071Y-97760623D01*
G37*
D17*
X109855000Y-98534000D03*
G04 #@! TD*
D12*
G04 #@! TO.C,C11*
G36*
X104121071Y-91557623D02*
X104153781Y-91562475D01*
X104185857Y-91570509D01*
X104216991Y-91581649D01*
X104246884Y-91595787D01*
X104275247Y-91612787D01*
X104301807Y-91632485D01*
X104326308Y-91654692D01*
X104348515Y-91679193D01*
X104368213Y-91705753D01*
X104385213Y-91734116D01*
X104399351Y-91764009D01*
X104410491Y-91795143D01*
X104418525Y-91827219D01*
X104423377Y-91859929D01*
X104425000Y-91892956D01*
X104425000Y-93019044D01*
X104423377Y-93052071D01*
X104418525Y-93084781D01*
X104410491Y-93116857D01*
X104399351Y-93147991D01*
X104385213Y-93177884D01*
X104368213Y-93206247D01*
X104348515Y-93232807D01*
X104326308Y-93257308D01*
X104301807Y-93279515D01*
X104275247Y-93299213D01*
X104246884Y-93316213D01*
X104216991Y-93330351D01*
X104185857Y-93341491D01*
X104153781Y-93349525D01*
X104121071Y-93354377D01*
X104088044Y-93356000D01*
X103211956Y-93356000D01*
X103178929Y-93354377D01*
X103146219Y-93349525D01*
X103114143Y-93341491D01*
X103083009Y-93330351D01*
X103053116Y-93316213D01*
X103024753Y-93299213D01*
X102998193Y-93279515D01*
X102973692Y-93257308D01*
X102951485Y-93232807D01*
X102931787Y-93206247D01*
X102914787Y-93177884D01*
X102900649Y-93147991D01*
X102889509Y-93116857D01*
X102881475Y-93084781D01*
X102876623Y-93052071D01*
X102875000Y-93019044D01*
X102875000Y-91892956D01*
X102876623Y-91859929D01*
X102881475Y-91827219D01*
X102889509Y-91795143D01*
X102900649Y-91764009D01*
X102914787Y-91734116D01*
X102931787Y-91705753D01*
X102951485Y-91679193D01*
X102973692Y-91654692D01*
X102998193Y-91632485D01*
X103024753Y-91612787D01*
X103053116Y-91595787D01*
X103083009Y-91581649D01*
X103114143Y-91570509D01*
X103146219Y-91562475D01*
X103178929Y-91557623D01*
X103211956Y-91556000D01*
X104088044Y-91556000D01*
X104121071Y-91557623D01*
X104121071Y-91557623D01*
G37*
D17*
X103650000Y-92456000D03*
D12*
G36*
X102071071Y-91557623D02*
X102103781Y-91562475D01*
X102135857Y-91570509D01*
X102166991Y-91581649D01*
X102196884Y-91595787D01*
X102225247Y-91612787D01*
X102251807Y-91632485D01*
X102276308Y-91654692D01*
X102298515Y-91679193D01*
X102318213Y-91705753D01*
X102335213Y-91734116D01*
X102349351Y-91764009D01*
X102360491Y-91795143D01*
X102368525Y-91827219D01*
X102373377Y-91859929D01*
X102375000Y-91892956D01*
X102375000Y-93019044D01*
X102373377Y-93052071D01*
X102368525Y-93084781D01*
X102360491Y-93116857D01*
X102349351Y-93147991D01*
X102335213Y-93177884D01*
X102318213Y-93206247D01*
X102298515Y-93232807D01*
X102276308Y-93257308D01*
X102251807Y-93279515D01*
X102225247Y-93299213D01*
X102196884Y-93316213D01*
X102166991Y-93330351D01*
X102135857Y-93341491D01*
X102103781Y-93349525D01*
X102071071Y-93354377D01*
X102038044Y-93356000D01*
X101161956Y-93356000D01*
X101128929Y-93354377D01*
X101096219Y-93349525D01*
X101064143Y-93341491D01*
X101033009Y-93330351D01*
X101003116Y-93316213D01*
X100974753Y-93299213D01*
X100948193Y-93279515D01*
X100923692Y-93257308D01*
X100901485Y-93232807D01*
X100881787Y-93206247D01*
X100864787Y-93177884D01*
X100850649Y-93147991D01*
X100839509Y-93116857D01*
X100831475Y-93084781D01*
X100826623Y-93052071D01*
X100825000Y-93019044D01*
X100825000Y-91892956D01*
X100826623Y-91859929D01*
X100831475Y-91827219D01*
X100839509Y-91795143D01*
X100850649Y-91764009D01*
X100864787Y-91734116D01*
X100881787Y-91705753D01*
X100901485Y-91679193D01*
X100923692Y-91654692D01*
X100948193Y-91632485D01*
X100974753Y-91612787D01*
X101003116Y-91595787D01*
X101033009Y-91581649D01*
X101064143Y-91570509D01*
X101096219Y-91562475D01*
X101128929Y-91557623D01*
X101161956Y-91556000D01*
X102038044Y-91556000D01*
X102071071Y-91557623D01*
X102071071Y-91557623D01*
G37*
D17*
X101600000Y-92456000D03*
G04 #@! TD*
D12*
G04 #@! TO.C,C16*
G36*
X126963071Y-64379623D02*
X126995781Y-64384475D01*
X127027857Y-64392509D01*
X127058991Y-64403649D01*
X127088884Y-64417787D01*
X127117247Y-64434787D01*
X127143807Y-64454485D01*
X127168308Y-64476692D01*
X127190515Y-64501193D01*
X127210213Y-64527753D01*
X127227213Y-64556116D01*
X127241351Y-64586009D01*
X127252491Y-64617143D01*
X127260525Y-64649219D01*
X127265377Y-64681929D01*
X127267000Y-64714956D01*
X127267000Y-65841044D01*
X127265377Y-65874071D01*
X127260525Y-65906781D01*
X127252491Y-65938857D01*
X127241351Y-65969991D01*
X127227213Y-65999884D01*
X127210213Y-66028247D01*
X127190515Y-66054807D01*
X127168308Y-66079308D01*
X127143807Y-66101515D01*
X127117247Y-66121213D01*
X127088884Y-66138213D01*
X127058991Y-66152351D01*
X127027857Y-66163491D01*
X126995781Y-66171525D01*
X126963071Y-66176377D01*
X126930044Y-66178000D01*
X126053956Y-66178000D01*
X126020929Y-66176377D01*
X125988219Y-66171525D01*
X125956143Y-66163491D01*
X125925009Y-66152351D01*
X125895116Y-66138213D01*
X125866753Y-66121213D01*
X125840193Y-66101515D01*
X125815692Y-66079308D01*
X125793485Y-66054807D01*
X125773787Y-66028247D01*
X125756787Y-65999884D01*
X125742649Y-65969991D01*
X125731509Y-65938857D01*
X125723475Y-65906781D01*
X125718623Y-65874071D01*
X125717000Y-65841044D01*
X125717000Y-64714956D01*
X125718623Y-64681929D01*
X125723475Y-64649219D01*
X125731509Y-64617143D01*
X125742649Y-64586009D01*
X125756787Y-64556116D01*
X125773787Y-64527753D01*
X125793485Y-64501193D01*
X125815692Y-64476692D01*
X125840193Y-64454485D01*
X125866753Y-64434787D01*
X125895116Y-64417787D01*
X125925009Y-64403649D01*
X125956143Y-64392509D01*
X125988219Y-64384475D01*
X126020929Y-64379623D01*
X126053956Y-64378000D01*
X126930044Y-64378000D01*
X126963071Y-64379623D01*
X126963071Y-64379623D01*
G37*
D17*
X126492000Y-65278000D03*
D12*
G36*
X124913071Y-64379623D02*
X124945781Y-64384475D01*
X124977857Y-64392509D01*
X125008991Y-64403649D01*
X125038884Y-64417787D01*
X125067247Y-64434787D01*
X125093807Y-64454485D01*
X125118308Y-64476692D01*
X125140515Y-64501193D01*
X125160213Y-64527753D01*
X125177213Y-64556116D01*
X125191351Y-64586009D01*
X125202491Y-64617143D01*
X125210525Y-64649219D01*
X125215377Y-64681929D01*
X125217000Y-64714956D01*
X125217000Y-65841044D01*
X125215377Y-65874071D01*
X125210525Y-65906781D01*
X125202491Y-65938857D01*
X125191351Y-65969991D01*
X125177213Y-65999884D01*
X125160213Y-66028247D01*
X125140515Y-66054807D01*
X125118308Y-66079308D01*
X125093807Y-66101515D01*
X125067247Y-66121213D01*
X125038884Y-66138213D01*
X125008991Y-66152351D01*
X124977857Y-66163491D01*
X124945781Y-66171525D01*
X124913071Y-66176377D01*
X124880044Y-66178000D01*
X124003956Y-66178000D01*
X123970929Y-66176377D01*
X123938219Y-66171525D01*
X123906143Y-66163491D01*
X123875009Y-66152351D01*
X123845116Y-66138213D01*
X123816753Y-66121213D01*
X123790193Y-66101515D01*
X123765692Y-66079308D01*
X123743485Y-66054807D01*
X123723787Y-66028247D01*
X123706787Y-65999884D01*
X123692649Y-65969991D01*
X123681509Y-65938857D01*
X123673475Y-65906781D01*
X123668623Y-65874071D01*
X123667000Y-65841044D01*
X123667000Y-64714956D01*
X123668623Y-64681929D01*
X123673475Y-64649219D01*
X123681509Y-64617143D01*
X123692649Y-64586009D01*
X123706787Y-64556116D01*
X123723787Y-64527753D01*
X123743485Y-64501193D01*
X123765692Y-64476692D01*
X123790193Y-64454485D01*
X123816753Y-64434787D01*
X123845116Y-64417787D01*
X123875009Y-64403649D01*
X123906143Y-64392509D01*
X123938219Y-64384475D01*
X123970929Y-64379623D01*
X124003956Y-64378000D01*
X124880044Y-64378000D01*
X124913071Y-64379623D01*
X124913071Y-64379623D01*
G37*
D17*
X124442000Y-65278000D03*
G04 #@! TD*
D12*
G04 #@! TO.C,C21*
G36*
X131934071Y-75428623D02*
X131966781Y-75433475D01*
X131998857Y-75441509D01*
X132029991Y-75452649D01*
X132059884Y-75466787D01*
X132088247Y-75483787D01*
X132114807Y-75503485D01*
X132139308Y-75525692D01*
X132161515Y-75550193D01*
X132181213Y-75576753D01*
X132198213Y-75605116D01*
X132212351Y-75635009D01*
X132223491Y-75666143D01*
X132231525Y-75698219D01*
X132236377Y-75730929D01*
X132238000Y-75763956D01*
X132238000Y-76890044D01*
X132236377Y-76923071D01*
X132231525Y-76955781D01*
X132223491Y-76987857D01*
X132212351Y-77018991D01*
X132198213Y-77048884D01*
X132181213Y-77077247D01*
X132161515Y-77103807D01*
X132139308Y-77128308D01*
X132114807Y-77150515D01*
X132088247Y-77170213D01*
X132059884Y-77187213D01*
X132029991Y-77201351D01*
X131998857Y-77212491D01*
X131966781Y-77220525D01*
X131934071Y-77225377D01*
X131901044Y-77227000D01*
X131024956Y-77227000D01*
X130991929Y-77225377D01*
X130959219Y-77220525D01*
X130927143Y-77212491D01*
X130896009Y-77201351D01*
X130866116Y-77187213D01*
X130837753Y-77170213D01*
X130811193Y-77150515D01*
X130786692Y-77128308D01*
X130764485Y-77103807D01*
X130744787Y-77077247D01*
X130727787Y-77048884D01*
X130713649Y-77018991D01*
X130702509Y-76987857D01*
X130694475Y-76955781D01*
X130689623Y-76923071D01*
X130688000Y-76890044D01*
X130688000Y-75763956D01*
X130689623Y-75730929D01*
X130694475Y-75698219D01*
X130702509Y-75666143D01*
X130713649Y-75635009D01*
X130727787Y-75605116D01*
X130744787Y-75576753D01*
X130764485Y-75550193D01*
X130786692Y-75525692D01*
X130811193Y-75503485D01*
X130837753Y-75483787D01*
X130866116Y-75466787D01*
X130896009Y-75452649D01*
X130927143Y-75441509D01*
X130959219Y-75433475D01*
X130991929Y-75428623D01*
X131024956Y-75427000D01*
X131901044Y-75427000D01*
X131934071Y-75428623D01*
X131934071Y-75428623D01*
G37*
D17*
X131463000Y-76327000D03*
D12*
G36*
X129884071Y-75428623D02*
X129916781Y-75433475D01*
X129948857Y-75441509D01*
X129979991Y-75452649D01*
X130009884Y-75466787D01*
X130038247Y-75483787D01*
X130064807Y-75503485D01*
X130089308Y-75525692D01*
X130111515Y-75550193D01*
X130131213Y-75576753D01*
X130148213Y-75605116D01*
X130162351Y-75635009D01*
X130173491Y-75666143D01*
X130181525Y-75698219D01*
X130186377Y-75730929D01*
X130188000Y-75763956D01*
X130188000Y-76890044D01*
X130186377Y-76923071D01*
X130181525Y-76955781D01*
X130173491Y-76987857D01*
X130162351Y-77018991D01*
X130148213Y-77048884D01*
X130131213Y-77077247D01*
X130111515Y-77103807D01*
X130089308Y-77128308D01*
X130064807Y-77150515D01*
X130038247Y-77170213D01*
X130009884Y-77187213D01*
X129979991Y-77201351D01*
X129948857Y-77212491D01*
X129916781Y-77220525D01*
X129884071Y-77225377D01*
X129851044Y-77227000D01*
X128974956Y-77227000D01*
X128941929Y-77225377D01*
X128909219Y-77220525D01*
X128877143Y-77212491D01*
X128846009Y-77201351D01*
X128816116Y-77187213D01*
X128787753Y-77170213D01*
X128761193Y-77150515D01*
X128736692Y-77128308D01*
X128714485Y-77103807D01*
X128694787Y-77077247D01*
X128677787Y-77048884D01*
X128663649Y-77018991D01*
X128652509Y-76987857D01*
X128644475Y-76955781D01*
X128639623Y-76923071D01*
X128638000Y-76890044D01*
X128638000Y-75763956D01*
X128639623Y-75730929D01*
X128644475Y-75698219D01*
X128652509Y-75666143D01*
X128663649Y-75635009D01*
X128677787Y-75605116D01*
X128694787Y-75576753D01*
X128714485Y-75550193D01*
X128736692Y-75525692D01*
X128761193Y-75503485D01*
X128787753Y-75483787D01*
X128816116Y-75466787D01*
X128846009Y-75452649D01*
X128877143Y-75441509D01*
X128909219Y-75433475D01*
X128941929Y-75428623D01*
X128974956Y-75427000D01*
X129851044Y-75427000D01*
X129884071Y-75428623D01*
X129884071Y-75428623D01*
G37*
D17*
X129413000Y-76327000D03*
G04 #@! TD*
D12*
G04 #@! TO.C,C24*
G36*
X101970581Y-88910625D02*
X102003343Y-88915485D01*
X102035471Y-88923533D01*
X102066656Y-88934691D01*
X102096596Y-88948852D01*
X102125005Y-88965879D01*
X102151608Y-88985609D01*
X102176149Y-89007851D01*
X102198391Y-89032392D01*
X102218121Y-89058995D01*
X102235148Y-89087404D01*
X102249309Y-89117344D01*
X102260467Y-89148529D01*
X102268515Y-89180657D01*
X102273375Y-89213419D01*
X102275000Y-89246500D01*
X102275000Y-90021500D01*
X102273375Y-90054581D01*
X102268515Y-90087343D01*
X102260467Y-90119471D01*
X102249309Y-90150656D01*
X102235148Y-90180596D01*
X102218121Y-90209005D01*
X102198391Y-90235608D01*
X102176149Y-90260149D01*
X102151608Y-90282391D01*
X102125005Y-90302121D01*
X102096596Y-90319148D01*
X102066656Y-90333309D01*
X102035471Y-90344467D01*
X102003343Y-90352515D01*
X101970581Y-90357375D01*
X101937500Y-90359000D01*
X101262500Y-90359000D01*
X101229419Y-90357375D01*
X101196657Y-90352515D01*
X101164529Y-90344467D01*
X101133344Y-90333309D01*
X101103404Y-90319148D01*
X101074995Y-90302121D01*
X101048392Y-90282391D01*
X101023851Y-90260149D01*
X101001609Y-90235608D01*
X100981879Y-90209005D01*
X100964852Y-90180596D01*
X100950691Y-90150656D01*
X100939533Y-90119471D01*
X100931485Y-90087343D01*
X100926625Y-90054581D01*
X100925000Y-90021500D01*
X100925000Y-89246500D01*
X100926625Y-89213419D01*
X100931485Y-89180657D01*
X100939533Y-89148529D01*
X100950691Y-89117344D01*
X100964852Y-89087404D01*
X100981879Y-89058995D01*
X101001609Y-89032392D01*
X101023851Y-89007851D01*
X101048392Y-88985609D01*
X101074995Y-88965879D01*
X101103404Y-88948852D01*
X101133344Y-88934691D01*
X101164529Y-88923533D01*
X101196657Y-88915485D01*
X101229419Y-88910625D01*
X101262500Y-88909000D01*
X101937500Y-88909000D01*
X101970581Y-88910625D01*
X101970581Y-88910625D01*
G37*
D13*
X101600000Y-89634000D03*
D12*
G36*
X101970581Y-87160625D02*
X102003343Y-87165485D01*
X102035471Y-87173533D01*
X102066656Y-87184691D01*
X102096596Y-87198852D01*
X102125005Y-87215879D01*
X102151608Y-87235609D01*
X102176149Y-87257851D01*
X102198391Y-87282392D01*
X102218121Y-87308995D01*
X102235148Y-87337404D01*
X102249309Y-87367344D01*
X102260467Y-87398529D01*
X102268515Y-87430657D01*
X102273375Y-87463419D01*
X102275000Y-87496500D01*
X102275000Y-88271500D01*
X102273375Y-88304581D01*
X102268515Y-88337343D01*
X102260467Y-88369471D01*
X102249309Y-88400656D01*
X102235148Y-88430596D01*
X102218121Y-88459005D01*
X102198391Y-88485608D01*
X102176149Y-88510149D01*
X102151608Y-88532391D01*
X102125005Y-88552121D01*
X102096596Y-88569148D01*
X102066656Y-88583309D01*
X102035471Y-88594467D01*
X102003343Y-88602515D01*
X101970581Y-88607375D01*
X101937500Y-88609000D01*
X101262500Y-88609000D01*
X101229419Y-88607375D01*
X101196657Y-88602515D01*
X101164529Y-88594467D01*
X101133344Y-88583309D01*
X101103404Y-88569148D01*
X101074995Y-88552121D01*
X101048392Y-88532391D01*
X101023851Y-88510149D01*
X101001609Y-88485608D01*
X100981879Y-88459005D01*
X100964852Y-88430596D01*
X100950691Y-88400656D01*
X100939533Y-88369471D01*
X100931485Y-88337343D01*
X100926625Y-88304581D01*
X100925000Y-88271500D01*
X100925000Y-87496500D01*
X100926625Y-87463419D01*
X100931485Y-87430657D01*
X100939533Y-87398529D01*
X100950691Y-87367344D01*
X100964852Y-87337404D01*
X100981879Y-87308995D01*
X101001609Y-87282392D01*
X101023851Y-87257851D01*
X101048392Y-87235609D01*
X101074995Y-87215879D01*
X101103404Y-87198852D01*
X101133344Y-87184691D01*
X101164529Y-87173533D01*
X101196657Y-87165485D01*
X101229419Y-87160625D01*
X101262500Y-87159000D01*
X101937500Y-87159000D01*
X101970581Y-87160625D01*
X101970581Y-87160625D01*
G37*
D13*
X101600000Y-87884000D03*
G04 #@! TD*
D12*
G04 #@! TO.C,C41*
G36*
X141527681Y-85432625D02*
X141560443Y-85437485D01*
X141592571Y-85445533D01*
X141623756Y-85456691D01*
X141653696Y-85470852D01*
X141682105Y-85487879D01*
X141708708Y-85507609D01*
X141733249Y-85529851D01*
X141755491Y-85554392D01*
X141775221Y-85580995D01*
X141792248Y-85609404D01*
X141806409Y-85639344D01*
X141817567Y-85670529D01*
X141825615Y-85702657D01*
X141830475Y-85735419D01*
X141832100Y-85768500D01*
X141832100Y-86443500D01*
X141830475Y-86476581D01*
X141825615Y-86509343D01*
X141817567Y-86541471D01*
X141806409Y-86572656D01*
X141792248Y-86602596D01*
X141775221Y-86631005D01*
X141755491Y-86657608D01*
X141733249Y-86682149D01*
X141708708Y-86704391D01*
X141682105Y-86724121D01*
X141653696Y-86741148D01*
X141623756Y-86755309D01*
X141592571Y-86766467D01*
X141560443Y-86774515D01*
X141527681Y-86779375D01*
X141494600Y-86781000D01*
X140719600Y-86781000D01*
X140686519Y-86779375D01*
X140653757Y-86774515D01*
X140621629Y-86766467D01*
X140590444Y-86755309D01*
X140560504Y-86741148D01*
X140532095Y-86724121D01*
X140505492Y-86704391D01*
X140480951Y-86682149D01*
X140458709Y-86657608D01*
X140438979Y-86631005D01*
X140421952Y-86602596D01*
X140407791Y-86572656D01*
X140396633Y-86541471D01*
X140388585Y-86509343D01*
X140383725Y-86476581D01*
X140382100Y-86443500D01*
X140382100Y-85768500D01*
X140383725Y-85735419D01*
X140388585Y-85702657D01*
X140396633Y-85670529D01*
X140407791Y-85639344D01*
X140421952Y-85609404D01*
X140438979Y-85580995D01*
X140458709Y-85554392D01*
X140480951Y-85529851D01*
X140505492Y-85507609D01*
X140532095Y-85487879D01*
X140560504Y-85470852D01*
X140590444Y-85456691D01*
X140621629Y-85445533D01*
X140653757Y-85437485D01*
X140686519Y-85432625D01*
X140719600Y-85431000D01*
X141494600Y-85431000D01*
X141527681Y-85432625D01*
X141527681Y-85432625D01*
G37*
D13*
X141107100Y-86106000D03*
D12*
G36*
X139777681Y-85432625D02*
X139810443Y-85437485D01*
X139842571Y-85445533D01*
X139873756Y-85456691D01*
X139903696Y-85470852D01*
X139932105Y-85487879D01*
X139958708Y-85507609D01*
X139983249Y-85529851D01*
X140005491Y-85554392D01*
X140025221Y-85580995D01*
X140042248Y-85609404D01*
X140056409Y-85639344D01*
X140067567Y-85670529D01*
X140075615Y-85702657D01*
X140080475Y-85735419D01*
X140082100Y-85768500D01*
X140082100Y-86443500D01*
X140080475Y-86476581D01*
X140075615Y-86509343D01*
X140067567Y-86541471D01*
X140056409Y-86572656D01*
X140042248Y-86602596D01*
X140025221Y-86631005D01*
X140005491Y-86657608D01*
X139983249Y-86682149D01*
X139958708Y-86704391D01*
X139932105Y-86724121D01*
X139903696Y-86741148D01*
X139873756Y-86755309D01*
X139842571Y-86766467D01*
X139810443Y-86774515D01*
X139777681Y-86779375D01*
X139744600Y-86781000D01*
X138969600Y-86781000D01*
X138936519Y-86779375D01*
X138903757Y-86774515D01*
X138871629Y-86766467D01*
X138840444Y-86755309D01*
X138810504Y-86741148D01*
X138782095Y-86724121D01*
X138755492Y-86704391D01*
X138730951Y-86682149D01*
X138708709Y-86657608D01*
X138688979Y-86631005D01*
X138671952Y-86602596D01*
X138657791Y-86572656D01*
X138646633Y-86541471D01*
X138638585Y-86509343D01*
X138633725Y-86476581D01*
X138632100Y-86443500D01*
X138632100Y-85768500D01*
X138633725Y-85735419D01*
X138638585Y-85702657D01*
X138646633Y-85670529D01*
X138657791Y-85639344D01*
X138671952Y-85609404D01*
X138688979Y-85580995D01*
X138708709Y-85554392D01*
X138730951Y-85529851D01*
X138755492Y-85507609D01*
X138782095Y-85487879D01*
X138810504Y-85470852D01*
X138840444Y-85456691D01*
X138871629Y-85445533D01*
X138903757Y-85437485D01*
X138936519Y-85432625D01*
X138969600Y-85431000D01*
X139744600Y-85431000D01*
X139777681Y-85432625D01*
X139777681Y-85432625D01*
G37*
D13*
X139357100Y-86106000D03*
G04 #@! TD*
D12*
G04 #@! TO.C,C42*
G36*
X133669781Y-83198225D02*
X133702543Y-83203085D01*
X133734671Y-83211133D01*
X133765856Y-83222291D01*
X133795796Y-83236452D01*
X133824205Y-83253479D01*
X133850808Y-83273209D01*
X133875349Y-83295451D01*
X133897591Y-83319992D01*
X133917321Y-83346595D01*
X133934348Y-83375004D01*
X133948509Y-83404944D01*
X133959667Y-83436129D01*
X133967715Y-83468257D01*
X133972575Y-83501019D01*
X133974200Y-83534100D01*
X133974200Y-84309100D01*
X133972575Y-84342181D01*
X133967715Y-84374943D01*
X133959667Y-84407071D01*
X133948509Y-84438256D01*
X133934348Y-84468196D01*
X133917321Y-84496605D01*
X133897591Y-84523208D01*
X133875349Y-84547749D01*
X133850808Y-84569991D01*
X133824205Y-84589721D01*
X133795796Y-84606748D01*
X133765856Y-84620909D01*
X133734671Y-84632067D01*
X133702543Y-84640115D01*
X133669781Y-84644975D01*
X133636700Y-84646600D01*
X132961700Y-84646600D01*
X132928619Y-84644975D01*
X132895857Y-84640115D01*
X132863729Y-84632067D01*
X132832544Y-84620909D01*
X132802604Y-84606748D01*
X132774195Y-84589721D01*
X132747592Y-84569991D01*
X132723051Y-84547749D01*
X132700809Y-84523208D01*
X132681079Y-84496605D01*
X132664052Y-84468196D01*
X132649891Y-84438256D01*
X132638733Y-84407071D01*
X132630685Y-84374943D01*
X132625825Y-84342181D01*
X132624200Y-84309100D01*
X132624200Y-83534100D01*
X132625825Y-83501019D01*
X132630685Y-83468257D01*
X132638733Y-83436129D01*
X132649891Y-83404944D01*
X132664052Y-83375004D01*
X132681079Y-83346595D01*
X132700809Y-83319992D01*
X132723051Y-83295451D01*
X132747592Y-83273209D01*
X132774195Y-83253479D01*
X132802604Y-83236452D01*
X132832544Y-83222291D01*
X132863729Y-83211133D01*
X132895857Y-83203085D01*
X132928619Y-83198225D01*
X132961700Y-83196600D01*
X133636700Y-83196600D01*
X133669781Y-83198225D01*
X133669781Y-83198225D01*
G37*
D13*
X133299200Y-83921600D03*
D12*
G36*
X133669781Y-84948225D02*
X133702543Y-84953085D01*
X133734671Y-84961133D01*
X133765856Y-84972291D01*
X133795796Y-84986452D01*
X133824205Y-85003479D01*
X133850808Y-85023209D01*
X133875349Y-85045451D01*
X133897591Y-85069992D01*
X133917321Y-85096595D01*
X133934348Y-85125004D01*
X133948509Y-85154944D01*
X133959667Y-85186129D01*
X133967715Y-85218257D01*
X133972575Y-85251019D01*
X133974200Y-85284100D01*
X133974200Y-86059100D01*
X133972575Y-86092181D01*
X133967715Y-86124943D01*
X133959667Y-86157071D01*
X133948509Y-86188256D01*
X133934348Y-86218196D01*
X133917321Y-86246605D01*
X133897591Y-86273208D01*
X133875349Y-86297749D01*
X133850808Y-86319991D01*
X133824205Y-86339721D01*
X133795796Y-86356748D01*
X133765856Y-86370909D01*
X133734671Y-86382067D01*
X133702543Y-86390115D01*
X133669781Y-86394975D01*
X133636700Y-86396600D01*
X132961700Y-86396600D01*
X132928619Y-86394975D01*
X132895857Y-86390115D01*
X132863729Y-86382067D01*
X132832544Y-86370909D01*
X132802604Y-86356748D01*
X132774195Y-86339721D01*
X132747592Y-86319991D01*
X132723051Y-86297749D01*
X132700809Y-86273208D01*
X132681079Y-86246605D01*
X132664052Y-86218196D01*
X132649891Y-86188256D01*
X132638733Y-86157071D01*
X132630685Y-86124943D01*
X132625825Y-86092181D01*
X132624200Y-86059100D01*
X132624200Y-85284100D01*
X132625825Y-85251019D01*
X132630685Y-85218257D01*
X132638733Y-85186129D01*
X132649891Y-85154944D01*
X132664052Y-85125004D01*
X132681079Y-85096595D01*
X132700809Y-85069992D01*
X132723051Y-85045451D01*
X132747592Y-85023209D01*
X132774195Y-85003479D01*
X132802604Y-84986452D01*
X132832544Y-84972291D01*
X132863729Y-84961133D01*
X132895857Y-84953085D01*
X132928619Y-84948225D01*
X132961700Y-84946600D01*
X133636700Y-84946600D01*
X133669781Y-84948225D01*
X133669781Y-84948225D01*
G37*
D13*
X133299200Y-85671600D03*
G04 #@! TD*
D12*
G04 #@! TO.C,L6*
G36*
X143674271Y-87496923D02*
X143706981Y-87501775D01*
X143739057Y-87509809D01*
X143770191Y-87520949D01*
X143800084Y-87535087D01*
X143828447Y-87552087D01*
X143855007Y-87571785D01*
X143879508Y-87593992D01*
X143901715Y-87618493D01*
X143921413Y-87645053D01*
X143938413Y-87673416D01*
X143952551Y-87703309D01*
X143963691Y-87734443D01*
X143971725Y-87766519D01*
X143976577Y-87799229D01*
X143978200Y-87832256D01*
X143978200Y-88708344D01*
X143976577Y-88741371D01*
X143971725Y-88774081D01*
X143963691Y-88806157D01*
X143952551Y-88837291D01*
X143938413Y-88867184D01*
X143921413Y-88895547D01*
X143901715Y-88922107D01*
X143879508Y-88946608D01*
X143855007Y-88968815D01*
X143828447Y-88988513D01*
X143800084Y-89005513D01*
X143770191Y-89019651D01*
X143739057Y-89030791D01*
X143706981Y-89038825D01*
X143674271Y-89043677D01*
X143641244Y-89045300D01*
X142515156Y-89045300D01*
X142482129Y-89043677D01*
X142449419Y-89038825D01*
X142417343Y-89030791D01*
X142386209Y-89019651D01*
X142356316Y-89005513D01*
X142327953Y-88988513D01*
X142301393Y-88968815D01*
X142276892Y-88946608D01*
X142254685Y-88922107D01*
X142234987Y-88895547D01*
X142217987Y-88867184D01*
X142203849Y-88837291D01*
X142192709Y-88806157D01*
X142184675Y-88774081D01*
X142179823Y-88741371D01*
X142178200Y-88708344D01*
X142178200Y-87832256D01*
X142179823Y-87799229D01*
X142184675Y-87766519D01*
X142192709Y-87734443D01*
X142203849Y-87703309D01*
X142217987Y-87673416D01*
X142234987Y-87645053D01*
X142254685Y-87618493D01*
X142276892Y-87593992D01*
X142301393Y-87571785D01*
X142327953Y-87552087D01*
X142356316Y-87535087D01*
X142386209Y-87520949D01*
X142417343Y-87509809D01*
X142449419Y-87501775D01*
X142482129Y-87496923D01*
X142515156Y-87495300D01*
X143641244Y-87495300D01*
X143674271Y-87496923D01*
X143674271Y-87496923D01*
G37*
D17*
X143078200Y-88270300D03*
D12*
G36*
X143674271Y-85446923D02*
X143706981Y-85451775D01*
X143739057Y-85459809D01*
X143770191Y-85470949D01*
X143800084Y-85485087D01*
X143828447Y-85502087D01*
X143855007Y-85521785D01*
X143879508Y-85543992D01*
X143901715Y-85568493D01*
X143921413Y-85595053D01*
X143938413Y-85623416D01*
X143952551Y-85653309D01*
X143963691Y-85684443D01*
X143971725Y-85716519D01*
X143976577Y-85749229D01*
X143978200Y-85782256D01*
X143978200Y-86658344D01*
X143976577Y-86691371D01*
X143971725Y-86724081D01*
X143963691Y-86756157D01*
X143952551Y-86787291D01*
X143938413Y-86817184D01*
X143921413Y-86845547D01*
X143901715Y-86872107D01*
X143879508Y-86896608D01*
X143855007Y-86918815D01*
X143828447Y-86938513D01*
X143800084Y-86955513D01*
X143770191Y-86969651D01*
X143739057Y-86980791D01*
X143706981Y-86988825D01*
X143674271Y-86993677D01*
X143641244Y-86995300D01*
X142515156Y-86995300D01*
X142482129Y-86993677D01*
X142449419Y-86988825D01*
X142417343Y-86980791D01*
X142386209Y-86969651D01*
X142356316Y-86955513D01*
X142327953Y-86938513D01*
X142301393Y-86918815D01*
X142276892Y-86896608D01*
X142254685Y-86872107D01*
X142234987Y-86845547D01*
X142217987Y-86817184D01*
X142203849Y-86787291D01*
X142192709Y-86756157D01*
X142184675Y-86724081D01*
X142179823Y-86691371D01*
X142178200Y-86658344D01*
X142178200Y-85782256D01*
X142179823Y-85749229D01*
X142184675Y-85716519D01*
X142192709Y-85684443D01*
X142203849Y-85653309D01*
X142217987Y-85623416D01*
X142234987Y-85595053D01*
X142254685Y-85568493D01*
X142276892Y-85543992D01*
X142301393Y-85521785D01*
X142327953Y-85502087D01*
X142356316Y-85485087D01*
X142386209Y-85470949D01*
X142417343Y-85459809D01*
X142449419Y-85451775D01*
X142482129Y-85446923D01*
X142515156Y-85445300D01*
X143641244Y-85445300D01*
X143674271Y-85446923D01*
X143674271Y-85446923D01*
G37*
D17*
X143078200Y-86220300D03*
G04 #@! TD*
D12*
G04 #@! TO.C,L7*
G36*
X131217571Y-87023723D02*
X131250281Y-87028575D01*
X131282357Y-87036609D01*
X131313491Y-87047749D01*
X131343384Y-87061887D01*
X131371747Y-87078887D01*
X131398307Y-87098585D01*
X131422808Y-87120792D01*
X131445015Y-87145293D01*
X131464713Y-87171853D01*
X131481713Y-87200216D01*
X131495851Y-87230109D01*
X131506991Y-87261243D01*
X131515025Y-87293319D01*
X131519877Y-87326029D01*
X131521500Y-87359056D01*
X131521500Y-88485144D01*
X131519877Y-88518171D01*
X131515025Y-88550881D01*
X131506991Y-88582957D01*
X131495851Y-88614091D01*
X131481713Y-88643984D01*
X131464713Y-88672347D01*
X131445015Y-88698907D01*
X131422808Y-88723408D01*
X131398307Y-88745615D01*
X131371747Y-88765313D01*
X131343384Y-88782313D01*
X131313491Y-88796451D01*
X131282357Y-88807591D01*
X131250281Y-88815625D01*
X131217571Y-88820477D01*
X131184544Y-88822100D01*
X130308456Y-88822100D01*
X130275429Y-88820477D01*
X130242719Y-88815625D01*
X130210643Y-88807591D01*
X130179509Y-88796451D01*
X130149616Y-88782313D01*
X130121253Y-88765313D01*
X130094693Y-88745615D01*
X130070192Y-88723408D01*
X130047985Y-88698907D01*
X130028287Y-88672347D01*
X130011287Y-88643984D01*
X129997149Y-88614091D01*
X129986009Y-88582957D01*
X129977975Y-88550881D01*
X129973123Y-88518171D01*
X129971500Y-88485144D01*
X129971500Y-87359056D01*
X129973123Y-87326029D01*
X129977975Y-87293319D01*
X129986009Y-87261243D01*
X129997149Y-87230109D01*
X130011287Y-87200216D01*
X130028287Y-87171853D01*
X130047985Y-87145293D01*
X130070192Y-87120792D01*
X130094693Y-87098585D01*
X130121253Y-87078887D01*
X130149616Y-87061887D01*
X130179509Y-87047749D01*
X130210643Y-87036609D01*
X130242719Y-87028575D01*
X130275429Y-87023723D01*
X130308456Y-87022100D01*
X131184544Y-87022100D01*
X131217571Y-87023723D01*
X131217571Y-87023723D01*
G37*
D17*
X130746500Y-87922100D03*
D12*
G36*
X133267571Y-87023723D02*
X133300281Y-87028575D01*
X133332357Y-87036609D01*
X133363491Y-87047749D01*
X133393384Y-87061887D01*
X133421747Y-87078887D01*
X133448307Y-87098585D01*
X133472808Y-87120792D01*
X133495015Y-87145293D01*
X133514713Y-87171853D01*
X133531713Y-87200216D01*
X133545851Y-87230109D01*
X133556991Y-87261243D01*
X133565025Y-87293319D01*
X133569877Y-87326029D01*
X133571500Y-87359056D01*
X133571500Y-88485144D01*
X133569877Y-88518171D01*
X133565025Y-88550881D01*
X133556991Y-88582957D01*
X133545851Y-88614091D01*
X133531713Y-88643984D01*
X133514713Y-88672347D01*
X133495015Y-88698907D01*
X133472808Y-88723408D01*
X133448307Y-88745615D01*
X133421747Y-88765313D01*
X133393384Y-88782313D01*
X133363491Y-88796451D01*
X133332357Y-88807591D01*
X133300281Y-88815625D01*
X133267571Y-88820477D01*
X133234544Y-88822100D01*
X132358456Y-88822100D01*
X132325429Y-88820477D01*
X132292719Y-88815625D01*
X132260643Y-88807591D01*
X132229509Y-88796451D01*
X132199616Y-88782313D01*
X132171253Y-88765313D01*
X132144693Y-88745615D01*
X132120192Y-88723408D01*
X132097985Y-88698907D01*
X132078287Y-88672347D01*
X132061287Y-88643984D01*
X132047149Y-88614091D01*
X132036009Y-88582957D01*
X132027975Y-88550881D01*
X132023123Y-88518171D01*
X132021500Y-88485144D01*
X132021500Y-87359056D01*
X132023123Y-87326029D01*
X132027975Y-87293319D01*
X132036009Y-87261243D01*
X132047149Y-87230109D01*
X132061287Y-87200216D01*
X132078287Y-87171853D01*
X132097985Y-87145293D01*
X132120192Y-87120792D01*
X132144693Y-87098585D01*
X132171253Y-87078887D01*
X132199616Y-87061887D01*
X132229509Y-87047749D01*
X132260643Y-87036609D01*
X132292719Y-87028575D01*
X132325429Y-87023723D01*
X132358456Y-87022100D01*
X133234544Y-87022100D01*
X133267571Y-87023723D01*
X133267571Y-87023723D01*
G37*
D17*
X132796500Y-87922100D03*
G04 #@! TD*
D20*
G04 #@! TO.C,J2*
X113550000Y-107900000D03*
D21*
X111550000Y-107900000D03*
G04 #@! TD*
D20*
G04 #@! TO.C,J3*
X99250000Y-107900000D03*
D21*
X97250000Y-107900000D03*
G04 #@! TD*
D22*
G04 #@! TO.C,J5*
X143200000Y-106500000D03*
D23*
X143200000Y-108500000D03*
G04 #@! TD*
D21*
G04 #@! TO.C,J8*
X104400000Y-107900000D03*
D20*
X106400000Y-107900000D03*
G04 #@! TD*
M02*
