G04 #@! TF.GenerationSoftware,KiCad,Pcbnew,(5.0.0-3-g5ebb6b6)*
G04 #@! TF.CreationDate,2019-05-19T23:28:32+02:00*
G04 #@! TF.ProjectId,Audio Board,417564696F20426F6172642E6B696361,rev?*
G04 #@! TF.SameCoordinates,Original*
G04 #@! TF.FileFunction,Soldermask,Bot*
G04 #@! TF.FilePolarity,Negative*
%FSLAX46Y46*%
G04 Gerber Fmt 4.6, Leading zero omitted, Abs format (unit mm)*
G04 Created by KiCad (PCBNEW (5.0.0-3-g5ebb6b6)) date Sunday, 19 May 2019 at 23:28:32*
%MOMM*%
%LPD*%
G01*
G04 APERTURE LIST*
%ADD10R,2.100000X2.100000*%
%ADD11O,2.100000X2.100000*%
%ADD12C,0.100000*%
%ADD13C,1.825000*%
%ADD14C,3.050000*%
%ADD15R,1.960000X1.050000*%
%ADD16C,1.350000*%
%ADD17R,2.400000X4.200000*%
%ADD18R,2.400000X1.900000*%
%ADD19C,1.550000*%
%ADD20C,1.750000*%
%ADD21O,1.600000X2.200000*%
%ADD22R,1.600000X2.200000*%
%ADD23R,2.200000X1.600000*%
%ADD24O,2.200000X1.600000*%
G04 APERTURE END LIST*
D10*
G04 #@! TO.C,J6*
X94996000Y-62230000D03*
D11*
X94996000Y-59690000D03*
X97536000Y-62230000D03*
X97536000Y-59690000D03*
X100076000Y-62230000D03*
X100076000Y-59690000D03*
X102616000Y-62230000D03*
X102616000Y-59690000D03*
X105156000Y-62230000D03*
X105156000Y-59690000D03*
X107696000Y-62230000D03*
X107696000Y-59690000D03*
X110236000Y-62230000D03*
X110236000Y-59690000D03*
X112776000Y-62230000D03*
X112776000Y-59690000D03*
X115316000Y-62230000D03*
X115316000Y-59690000D03*
X117856000Y-62230000D03*
X117856000Y-59690000D03*
X120396000Y-62230000D03*
X120396000Y-59690000D03*
X122936000Y-62230000D03*
X122936000Y-59690000D03*
X125476000Y-62230000D03*
X125476000Y-59690000D03*
X128016000Y-62230000D03*
X128016000Y-59690000D03*
X130556000Y-62230000D03*
X130556000Y-59690000D03*
X133096000Y-62230000D03*
X133096000Y-59690000D03*
X135636000Y-62230000D03*
X135636000Y-59690000D03*
X138176000Y-62230000D03*
X138176000Y-59690000D03*
X140716000Y-62230000D03*
X140716000Y-59690000D03*
X143256000Y-62230000D03*
X143256000Y-59690000D03*
G04 #@! TD*
D12*
G04 #@! TO.C,C39*
G36*
X141974707Y-98933542D02*
X142005787Y-98938152D01*
X142036266Y-98945787D01*
X142065850Y-98956372D01*
X142094254Y-98969806D01*
X142121204Y-98985959D01*
X142146442Y-99004677D01*
X142169723Y-99025777D01*
X142190823Y-99049058D01*
X142209541Y-99074296D01*
X142225694Y-99101246D01*
X142239128Y-99129650D01*
X142249713Y-99159234D01*
X142257348Y-99189713D01*
X142261958Y-99220793D01*
X142263500Y-99252176D01*
X142263500Y-101661824D01*
X142261958Y-101693207D01*
X142257348Y-101724287D01*
X142249713Y-101754766D01*
X142239128Y-101784350D01*
X142225694Y-101812754D01*
X142209541Y-101839704D01*
X142190823Y-101864942D01*
X142169723Y-101888223D01*
X142146442Y-101909323D01*
X142121204Y-101928041D01*
X142094254Y-101944194D01*
X142065850Y-101957628D01*
X142036266Y-101968213D01*
X142005787Y-101975848D01*
X141974707Y-101980458D01*
X141943324Y-101982000D01*
X140758676Y-101982000D01*
X140727293Y-101980458D01*
X140696213Y-101975848D01*
X140665734Y-101968213D01*
X140636150Y-101957628D01*
X140607746Y-101944194D01*
X140580796Y-101928041D01*
X140555558Y-101909323D01*
X140532277Y-101888223D01*
X140511177Y-101864942D01*
X140492459Y-101839704D01*
X140476306Y-101812754D01*
X140462872Y-101784350D01*
X140452287Y-101754766D01*
X140444652Y-101724287D01*
X140440042Y-101693207D01*
X140438500Y-101661824D01*
X140438500Y-99252176D01*
X140440042Y-99220793D01*
X140444652Y-99189713D01*
X140452287Y-99159234D01*
X140462872Y-99129650D01*
X140476306Y-99101246D01*
X140492459Y-99074296D01*
X140511177Y-99049058D01*
X140532277Y-99025777D01*
X140555558Y-99004677D01*
X140580796Y-98985959D01*
X140607746Y-98969806D01*
X140636150Y-98956372D01*
X140665734Y-98945787D01*
X140696213Y-98938152D01*
X140727293Y-98933542D01*
X140758676Y-98932000D01*
X141943324Y-98932000D01*
X141974707Y-98933542D01*
X141974707Y-98933542D01*
G37*
D13*
X141351000Y-100457000D03*
D12*
G36*
X144949707Y-98933542D02*
X144980787Y-98938152D01*
X145011266Y-98945787D01*
X145040850Y-98956372D01*
X145069254Y-98969806D01*
X145096204Y-98985959D01*
X145121442Y-99004677D01*
X145144723Y-99025777D01*
X145165823Y-99049058D01*
X145184541Y-99074296D01*
X145200694Y-99101246D01*
X145214128Y-99129650D01*
X145224713Y-99159234D01*
X145232348Y-99189713D01*
X145236958Y-99220793D01*
X145238500Y-99252176D01*
X145238500Y-101661824D01*
X145236958Y-101693207D01*
X145232348Y-101724287D01*
X145224713Y-101754766D01*
X145214128Y-101784350D01*
X145200694Y-101812754D01*
X145184541Y-101839704D01*
X145165823Y-101864942D01*
X145144723Y-101888223D01*
X145121442Y-101909323D01*
X145096204Y-101928041D01*
X145069254Y-101944194D01*
X145040850Y-101957628D01*
X145011266Y-101968213D01*
X144980787Y-101975848D01*
X144949707Y-101980458D01*
X144918324Y-101982000D01*
X143733676Y-101982000D01*
X143702293Y-101980458D01*
X143671213Y-101975848D01*
X143640734Y-101968213D01*
X143611150Y-101957628D01*
X143582746Y-101944194D01*
X143555796Y-101928041D01*
X143530558Y-101909323D01*
X143507277Y-101888223D01*
X143486177Y-101864942D01*
X143467459Y-101839704D01*
X143451306Y-101812754D01*
X143437872Y-101784350D01*
X143427287Y-101754766D01*
X143419652Y-101724287D01*
X143415042Y-101693207D01*
X143413500Y-101661824D01*
X143413500Y-99252176D01*
X143415042Y-99220793D01*
X143419652Y-99189713D01*
X143427287Y-99159234D01*
X143437872Y-99129650D01*
X143451306Y-99101246D01*
X143467459Y-99074296D01*
X143486177Y-99049058D01*
X143507277Y-99025777D01*
X143530558Y-99004677D01*
X143555796Y-98985959D01*
X143582746Y-98969806D01*
X143611150Y-98956372D01*
X143640734Y-98945787D01*
X143671213Y-98938152D01*
X143702293Y-98933542D01*
X143733676Y-98932000D01*
X144918324Y-98932000D01*
X144949707Y-98933542D01*
X144949707Y-98933542D01*
G37*
D13*
X144326000Y-100457000D03*
G04 #@! TD*
D12*
G04 #@! TO.C,C40*
G36*
X133443207Y-106077042D02*
X133474287Y-106081652D01*
X133504766Y-106089287D01*
X133534350Y-106099872D01*
X133562754Y-106113306D01*
X133589704Y-106129459D01*
X133614942Y-106148177D01*
X133638223Y-106169277D01*
X133659323Y-106192558D01*
X133678041Y-106217796D01*
X133694194Y-106244746D01*
X133707628Y-106273150D01*
X133718213Y-106302734D01*
X133725848Y-106333213D01*
X133730458Y-106364293D01*
X133732000Y-106395676D01*
X133732000Y-107580324D01*
X133730458Y-107611707D01*
X133725848Y-107642787D01*
X133718213Y-107673266D01*
X133707628Y-107702850D01*
X133694194Y-107731254D01*
X133678041Y-107758204D01*
X133659323Y-107783442D01*
X133638223Y-107806723D01*
X133614942Y-107827823D01*
X133589704Y-107846541D01*
X133562754Y-107862694D01*
X133534350Y-107876128D01*
X133504766Y-107886713D01*
X133474287Y-107894348D01*
X133443207Y-107898958D01*
X133411824Y-107900500D01*
X131002176Y-107900500D01*
X130970793Y-107898958D01*
X130939713Y-107894348D01*
X130909234Y-107886713D01*
X130879650Y-107876128D01*
X130851246Y-107862694D01*
X130824296Y-107846541D01*
X130799058Y-107827823D01*
X130775777Y-107806723D01*
X130754677Y-107783442D01*
X130735959Y-107758204D01*
X130719806Y-107731254D01*
X130706372Y-107702850D01*
X130695787Y-107673266D01*
X130688152Y-107642787D01*
X130683542Y-107611707D01*
X130682000Y-107580324D01*
X130682000Y-106395676D01*
X130683542Y-106364293D01*
X130688152Y-106333213D01*
X130695787Y-106302734D01*
X130706372Y-106273150D01*
X130719806Y-106244746D01*
X130735959Y-106217796D01*
X130754677Y-106192558D01*
X130775777Y-106169277D01*
X130799058Y-106148177D01*
X130824296Y-106129459D01*
X130851246Y-106113306D01*
X130879650Y-106099872D01*
X130909234Y-106089287D01*
X130939713Y-106081652D01*
X130970793Y-106077042D01*
X131002176Y-106075500D01*
X133411824Y-106075500D01*
X133443207Y-106077042D01*
X133443207Y-106077042D01*
G37*
D13*
X132207000Y-106988000D03*
D12*
G36*
X133443207Y-103102042D02*
X133474287Y-103106652D01*
X133504766Y-103114287D01*
X133534350Y-103124872D01*
X133562754Y-103138306D01*
X133589704Y-103154459D01*
X133614942Y-103173177D01*
X133638223Y-103194277D01*
X133659323Y-103217558D01*
X133678041Y-103242796D01*
X133694194Y-103269746D01*
X133707628Y-103298150D01*
X133718213Y-103327734D01*
X133725848Y-103358213D01*
X133730458Y-103389293D01*
X133732000Y-103420676D01*
X133732000Y-104605324D01*
X133730458Y-104636707D01*
X133725848Y-104667787D01*
X133718213Y-104698266D01*
X133707628Y-104727850D01*
X133694194Y-104756254D01*
X133678041Y-104783204D01*
X133659323Y-104808442D01*
X133638223Y-104831723D01*
X133614942Y-104852823D01*
X133589704Y-104871541D01*
X133562754Y-104887694D01*
X133534350Y-104901128D01*
X133504766Y-104911713D01*
X133474287Y-104919348D01*
X133443207Y-104923958D01*
X133411824Y-104925500D01*
X131002176Y-104925500D01*
X130970793Y-104923958D01*
X130939713Y-104919348D01*
X130909234Y-104911713D01*
X130879650Y-104901128D01*
X130851246Y-104887694D01*
X130824296Y-104871541D01*
X130799058Y-104852823D01*
X130775777Y-104831723D01*
X130754677Y-104808442D01*
X130735959Y-104783204D01*
X130719806Y-104756254D01*
X130706372Y-104727850D01*
X130695787Y-104698266D01*
X130688152Y-104667787D01*
X130683542Y-104636707D01*
X130682000Y-104605324D01*
X130682000Y-103420676D01*
X130683542Y-103389293D01*
X130688152Y-103358213D01*
X130695787Y-103327734D01*
X130706372Y-103298150D01*
X130719806Y-103269746D01*
X130735959Y-103242796D01*
X130754677Y-103217558D01*
X130775777Y-103194277D01*
X130799058Y-103173177D01*
X130824296Y-103154459D01*
X130851246Y-103138306D01*
X130879650Y-103124872D01*
X130909234Y-103114287D01*
X130939713Y-103106652D01*
X130970793Y-103102042D01*
X131002176Y-103100500D01*
X133411824Y-103100500D01*
X133443207Y-103102042D01*
X133443207Y-103102042D01*
G37*
D13*
X132207000Y-104013000D03*
G04 #@! TD*
D12*
G04 #@! TO.C,D1*
G36*
X140076466Y-90825386D02*
X140104398Y-90829529D01*
X140131789Y-90836390D01*
X140158375Y-90845903D01*
X140183901Y-90857976D01*
X140208121Y-90872492D01*
X140230801Y-90889313D01*
X140251724Y-90908276D01*
X140270687Y-90929199D01*
X140287508Y-90951879D01*
X140302024Y-90976099D01*
X140314097Y-91001625D01*
X140323610Y-91028211D01*
X140330471Y-91055602D01*
X140334614Y-91083534D01*
X140336000Y-91111737D01*
X140336000Y-96086263D01*
X140334614Y-96114466D01*
X140330471Y-96142398D01*
X140323610Y-96169789D01*
X140314097Y-96196375D01*
X140302024Y-96221901D01*
X140287508Y-96246121D01*
X140270687Y-96268801D01*
X140251724Y-96289724D01*
X140230801Y-96308687D01*
X140208121Y-96325508D01*
X140183901Y-96340024D01*
X140158375Y-96352097D01*
X140131789Y-96361610D01*
X140104398Y-96368471D01*
X140076466Y-96372614D01*
X140048263Y-96374000D01*
X137573737Y-96374000D01*
X137545534Y-96372614D01*
X137517602Y-96368471D01*
X137490211Y-96361610D01*
X137463625Y-96352097D01*
X137438099Y-96340024D01*
X137413879Y-96325508D01*
X137391199Y-96308687D01*
X137370276Y-96289724D01*
X137351313Y-96268801D01*
X137334492Y-96246121D01*
X137319976Y-96221901D01*
X137307903Y-96196375D01*
X137298390Y-96169789D01*
X137291529Y-96142398D01*
X137287386Y-96114466D01*
X137286000Y-96086263D01*
X137286000Y-91111737D01*
X137287386Y-91083534D01*
X137291529Y-91055602D01*
X137298390Y-91028211D01*
X137307903Y-91001625D01*
X137319976Y-90976099D01*
X137334492Y-90951879D01*
X137351313Y-90929199D01*
X137370276Y-90908276D01*
X137391199Y-90889313D01*
X137413879Y-90872492D01*
X137438099Y-90857976D01*
X137463625Y-90845903D01*
X137490211Y-90836390D01*
X137517602Y-90829529D01*
X137545534Y-90825386D01*
X137573737Y-90824000D01*
X140048263Y-90824000D01*
X140076466Y-90825386D01*
X140076466Y-90825386D01*
G37*
D14*
X138811000Y-93599000D03*
D12*
G36*
X133526466Y-90825386D02*
X133554398Y-90829529D01*
X133581789Y-90836390D01*
X133608375Y-90845903D01*
X133633901Y-90857976D01*
X133658121Y-90872492D01*
X133680801Y-90889313D01*
X133701724Y-90908276D01*
X133720687Y-90929199D01*
X133737508Y-90951879D01*
X133752024Y-90976099D01*
X133764097Y-91001625D01*
X133773610Y-91028211D01*
X133780471Y-91055602D01*
X133784614Y-91083534D01*
X133786000Y-91111737D01*
X133786000Y-96086263D01*
X133784614Y-96114466D01*
X133780471Y-96142398D01*
X133773610Y-96169789D01*
X133764097Y-96196375D01*
X133752024Y-96221901D01*
X133737508Y-96246121D01*
X133720687Y-96268801D01*
X133701724Y-96289724D01*
X133680801Y-96308687D01*
X133658121Y-96325508D01*
X133633901Y-96340024D01*
X133608375Y-96352097D01*
X133581789Y-96361610D01*
X133554398Y-96368471D01*
X133526466Y-96372614D01*
X133498263Y-96374000D01*
X131023737Y-96374000D01*
X130995534Y-96372614D01*
X130967602Y-96368471D01*
X130940211Y-96361610D01*
X130913625Y-96352097D01*
X130888099Y-96340024D01*
X130863879Y-96325508D01*
X130841199Y-96308687D01*
X130820276Y-96289724D01*
X130801313Y-96268801D01*
X130784492Y-96246121D01*
X130769976Y-96221901D01*
X130757903Y-96196375D01*
X130748390Y-96169789D01*
X130741529Y-96142398D01*
X130737386Y-96114466D01*
X130736000Y-96086263D01*
X130736000Y-91111737D01*
X130737386Y-91083534D01*
X130741529Y-91055602D01*
X130748390Y-91028211D01*
X130757903Y-91001625D01*
X130769976Y-90976099D01*
X130784492Y-90951879D01*
X130801313Y-90929199D01*
X130820276Y-90908276D01*
X130841199Y-90889313D01*
X130863879Y-90872492D01*
X130888099Y-90857976D01*
X130913625Y-90845903D01*
X130940211Y-90836390D01*
X130967602Y-90829529D01*
X130995534Y-90825386D01*
X131023737Y-90824000D01*
X133498263Y-90824000D01*
X133526466Y-90825386D01*
X133526466Y-90825386D01*
G37*
D14*
X132261000Y-93599000D03*
G04 #@! TD*
D11*
G04 #@! TO.C,J1*
X148082000Y-102870000D03*
X148082000Y-100330000D03*
X148082000Y-97790000D03*
X148082000Y-95250000D03*
X148082000Y-92710000D03*
X148082000Y-90170000D03*
X148082000Y-87630000D03*
X148082000Y-85090000D03*
X148082000Y-82550000D03*
X148082000Y-80010000D03*
X148082000Y-77470000D03*
X148082000Y-74930000D03*
X148082000Y-72390000D03*
X148082000Y-69850000D03*
D10*
X148082000Y-67310000D03*
G04 #@! TD*
G04 #@! TO.C,J4*
X138684000Y-109220000D03*
D11*
X138684000Y-106680000D03*
X138684000Y-104140000D03*
G04 #@! TD*
D10*
G04 #@! TO.C,J7*
X90170000Y-67310000D03*
D11*
X90170000Y-69850000D03*
X90170000Y-72390000D03*
X90170000Y-74930000D03*
X90170000Y-77470000D03*
X90170000Y-80010000D03*
X90170000Y-82550000D03*
X90170000Y-85090000D03*
X90170000Y-87630000D03*
X90170000Y-90170000D03*
X90170000Y-92710000D03*
X90170000Y-95250000D03*
X90170000Y-97790000D03*
X90170000Y-100330000D03*
X90170000Y-102870000D03*
G04 #@! TD*
D15*
G04 #@! TO.C,U5*
X135128000Y-101280000D03*
X135128000Y-100330000D03*
X135128000Y-99380000D03*
X137828000Y-99380000D03*
X137828000Y-101280000D03*
X137828000Y-100330000D03*
G04 #@! TD*
D12*
G04 #@! TO.C,R9*
G36*
X142737581Y-93510625D02*
X142770343Y-93515485D01*
X142802471Y-93523533D01*
X142833656Y-93534691D01*
X142863596Y-93548852D01*
X142892005Y-93565879D01*
X142918608Y-93585609D01*
X142943149Y-93607851D01*
X142965391Y-93632392D01*
X142985121Y-93658995D01*
X143002148Y-93687404D01*
X143016309Y-93717344D01*
X143027467Y-93748529D01*
X143035515Y-93780657D01*
X143040375Y-93813419D01*
X143042000Y-93846500D01*
X143042000Y-94621500D01*
X143040375Y-94654581D01*
X143035515Y-94687343D01*
X143027467Y-94719471D01*
X143016309Y-94750656D01*
X143002148Y-94780596D01*
X142985121Y-94809005D01*
X142965391Y-94835608D01*
X142943149Y-94860149D01*
X142918608Y-94882391D01*
X142892005Y-94902121D01*
X142863596Y-94919148D01*
X142833656Y-94933309D01*
X142802471Y-94944467D01*
X142770343Y-94952515D01*
X142737581Y-94957375D01*
X142704500Y-94959000D01*
X142029500Y-94959000D01*
X141996419Y-94957375D01*
X141963657Y-94952515D01*
X141931529Y-94944467D01*
X141900344Y-94933309D01*
X141870404Y-94919148D01*
X141841995Y-94902121D01*
X141815392Y-94882391D01*
X141790851Y-94860149D01*
X141768609Y-94835608D01*
X141748879Y-94809005D01*
X141731852Y-94780596D01*
X141717691Y-94750656D01*
X141706533Y-94719471D01*
X141698485Y-94687343D01*
X141693625Y-94654581D01*
X141692000Y-94621500D01*
X141692000Y-93846500D01*
X141693625Y-93813419D01*
X141698485Y-93780657D01*
X141706533Y-93748529D01*
X141717691Y-93717344D01*
X141731852Y-93687404D01*
X141748879Y-93658995D01*
X141768609Y-93632392D01*
X141790851Y-93607851D01*
X141815392Y-93585609D01*
X141841995Y-93565879D01*
X141870404Y-93548852D01*
X141900344Y-93534691D01*
X141931529Y-93523533D01*
X141963657Y-93515485D01*
X141996419Y-93510625D01*
X142029500Y-93509000D01*
X142704500Y-93509000D01*
X142737581Y-93510625D01*
X142737581Y-93510625D01*
G37*
D16*
X142367000Y-94234000D03*
D12*
G36*
X142737581Y-95260625D02*
X142770343Y-95265485D01*
X142802471Y-95273533D01*
X142833656Y-95284691D01*
X142863596Y-95298852D01*
X142892005Y-95315879D01*
X142918608Y-95335609D01*
X142943149Y-95357851D01*
X142965391Y-95382392D01*
X142985121Y-95408995D01*
X143002148Y-95437404D01*
X143016309Y-95467344D01*
X143027467Y-95498529D01*
X143035515Y-95530657D01*
X143040375Y-95563419D01*
X143042000Y-95596500D01*
X143042000Y-96371500D01*
X143040375Y-96404581D01*
X143035515Y-96437343D01*
X143027467Y-96469471D01*
X143016309Y-96500656D01*
X143002148Y-96530596D01*
X142985121Y-96559005D01*
X142965391Y-96585608D01*
X142943149Y-96610149D01*
X142918608Y-96632391D01*
X142892005Y-96652121D01*
X142863596Y-96669148D01*
X142833656Y-96683309D01*
X142802471Y-96694467D01*
X142770343Y-96702515D01*
X142737581Y-96707375D01*
X142704500Y-96709000D01*
X142029500Y-96709000D01*
X141996419Y-96707375D01*
X141963657Y-96702515D01*
X141931529Y-96694467D01*
X141900344Y-96683309D01*
X141870404Y-96669148D01*
X141841995Y-96652121D01*
X141815392Y-96632391D01*
X141790851Y-96610149D01*
X141768609Y-96585608D01*
X141748879Y-96559005D01*
X141731852Y-96530596D01*
X141717691Y-96500656D01*
X141706533Y-96469471D01*
X141698485Y-96437343D01*
X141693625Y-96404581D01*
X141692000Y-96371500D01*
X141692000Y-95596500D01*
X141693625Y-95563419D01*
X141698485Y-95530657D01*
X141706533Y-95498529D01*
X141717691Y-95467344D01*
X141731852Y-95437404D01*
X141748879Y-95408995D01*
X141768609Y-95382392D01*
X141790851Y-95357851D01*
X141815392Y-95335609D01*
X141841995Y-95315879D01*
X141870404Y-95298852D01*
X141900344Y-95284691D01*
X141931529Y-95273533D01*
X141963657Y-95265485D01*
X141996419Y-95260625D01*
X142029500Y-95259000D01*
X142704500Y-95259000D01*
X142737581Y-95260625D01*
X142737581Y-95260625D01*
G37*
D16*
X142367000Y-95984000D03*
G04 #@! TD*
D12*
G04 #@! TO.C,R10*
G36*
X144515581Y-93538625D02*
X144548343Y-93543485D01*
X144580471Y-93551533D01*
X144611656Y-93562691D01*
X144641596Y-93576852D01*
X144670005Y-93593879D01*
X144696608Y-93613609D01*
X144721149Y-93635851D01*
X144743391Y-93660392D01*
X144763121Y-93686995D01*
X144780148Y-93715404D01*
X144794309Y-93745344D01*
X144805467Y-93776529D01*
X144813515Y-93808657D01*
X144818375Y-93841419D01*
X144820000Y-93874500D01*
X144820000Y-94649500D01*
X144818375Y-94682581D01*
X144813515Y-94715343D01*
X144805467Y-94747471D01*
X144794309Y-94778656D01*
X144780148Y-94808596D01*
X144763121Y-94837005D01*
X144743391Y-94863608D01*
X144721149Y-94888149D01*
X144696608Y-94910391D01*
X144670005Y-94930121D01*
X144641596Y-94947148D01*
X144611656Y-94961309D01*
X144580471Y-94972467D01*
X144548343Y-94980515D01*
X144515581Y-94985375D01*
X144482500Y-94987000D01*
X143807500Y-94987000D01*
X143774419Y-94985375D01*
X143741657Y-94980515D01*
X143709529Y-94972467D01*
X143678344Y-94961309D01*
X143648404Y-94947148D01*
X143619995Y-94930121D01*
X143593392Y-94910391D01*
X143568851Y-94888149D01*
X143546609Y-94863608D01*
X143526879Y-94837005D01*
X143509852Y-94808596D01*
X143495691Y-94778656D01*
X143484533Y-94747471D01*
X143476485Y-94715343D01*
X143471625Y-94682581D01*
X143470000Y-94649500D01*
X143470000Y-93874500D01*
X143471625Y-93841419D01*
X143476485Y-93808657D01*
X143484533Y-93776529D01*
X143495691Y-93745344D01*
X143509852Y-93715404D01*
X143526879Y-93686995D01*
X143546609Y-93660392D01*
X143568851Y-93635851D01*
X143593392Y-93613609D01*
X143619995Y-93593879D01*
X143648404Y-93576852D01*
X143678344Y-93562691D01*
X143709529Y-93551533D01*
X143741657Y-93543485D01*
X143774419Y-93538625D01*
X143807500Y-93537000D01*
X144482500Y-93537000D01*
X144515581Y-93538625D01*
X144515581Y-93538625D01*
G37*
D16*
X144145000Y-94262000D03*
D12*
G36*
X144515581Y-95288625D02*
X144548343Y-95293485D01*
X144580471Y-95301533D01*
X144611656Y-95312691D01*
X144641596Y-95326852D01*
X144670005Y-95343879D01*
X144696608Y-95363609D01*
X144721149Y-95385851D01*
X144743391Y-95410392D01*
X144763121Y-95436995D01*
X144780148Y-95465404D01*
X144794309Y-95495344D01*
X144805467Y-95526529D01*
X144813515Y-95558657D01*
X144818375Y-95591419D01*
X144820000Y-95624500D01*
X144820000Y-96399500D01*
X144818375Y-96432581D01*
X144813515Y-96465343D01*
X144805467Y-96497471D01*
X144794309Y-96528656D01*
X144780148Y-96558596D01*
X144763121Y-96587005D01*
X144743391Y-96613608D01*
X144721149Y-96638149D01*
X144696608Y-96660391D01*
X144670005Y-96680121D01*
X144641596Y-96697148D01*
X144611656Y-96711309D01*
X144580471Y-96722467D01*
X144548343Y-96730515D01*
X144515581Y-96735375D01*
X144482500Y-96737000D01*
X143807500Y-96737000D01*
X143774419Y-96735375D01*
X143741657Y-96730515D01*
X143709529Y-96722467D01*
X143678344Y-96711309D01*
X143648404Y-96697148D01*
X143619995Y-96680121D01*
X143593392Y-96660391D01*
X143568851Y-96638149D01*
X143546609Y-96613608D01*
X143526879Y-96587005D01*
X143509852Y-96558596D01*
X143495691Y-96528656D01*
X143484533Y-96497471D01*
X143476485Y-96465343D01*
X143471625Y-96432581D01*
X143470000Y-96399500D01*
X143470000Y-95624500D01*
X143471625Y-95591419D01*
X143476485Y-95558657D01*
X143484533Y-95526529D01*
X143495691Y-95495344D01*
X143509852Y-95465404D01*
X143526879Y-95436995D01*
X143546609Y-95410392D01*
X143568851Y-95385851D01*
X143593392Y-95363609D01*
X143619995Y-95343879D01*
X143648404Y-95326852D01*
X143678344Y-95312691D01*
X143709529Y-95301533D01*
X143741657Y-95293485D01*
X143774419Y-95288625D01*
X143807500Y-95287000D01*
X144482500Y-95287000D01*
X144515581Y-95288625D01*
X144515581Y-95288625D01*
G37*
D16*
X144145000Y-96012000D03*
G04 #@! TD*
D12*
G04 #@! TO.C,C22*
G36*
X125247581Y-84289625D02*
X125280343Y-84294485D01*
X125312471Y-84302533D01*
X125343656Y-84313691D01*
X125373596Y-84327852D01*
X125402005Y-84344879D01*
X125428608Y-84364609D01*
X125453149Y-84386851D01*
X125475391Y-84411392D01*
X125495121Y-84437995D01*
X125512148Y-84466404D01*
X125526309Y-84496344D01*
X125537467Y-84527529D01*
X125545515Y-84559657D01*
X125550375Y-84592419D01*
X125552000Y-84625500D01*
X125552000Y-85300500D01*
X125550375Y-85333581D01*
X125545515Y-85366343D01*
X125537467Y-85398471D01*
X125526309Y-85429656D01*
X125512148Y-85459596D01*
X125495121Y-85488005D01*
X125475391Y-85514608D01*
X125453149Y-85539149D01*
X125428608Y-85561391D01*
X125402005Y-85581121D01*
X125373596Y-85598148D01*
X125343656Y-85612309D01*
X125312471Y-85623467D01*
X125280343Y-85631515D01*
X125247581Y-85636375D01*
X125214500Y-85638000D01*
X124439500Y-85638000D01*
X124406419Y-85636375D01*
X124373657Y-85631515D01*
X124341529Y-85623467D01*
X124310344Y-85612309D01*
X124280404Y-85598148D01*
X124251995Y-85581121D01*
X124225392Y-85561391D01*
X124200851Y-85539149D01*
X124178609Y-85514608D01*
X124158879Y-85488005D01*
X124141852Y-85459596D01*
X124127691Y-85429656D01*
X124116533Y-85398471D01*
X124108485Y-85366343D01*
X124103625Y-85333581D01*
X124102000Y-85300500D01*
X124102000Y-84625500D01*
X124103625Y-84592419D01*
X124108485Y-84559657D01*
X124116533Y-84527529D01*
X124127691Y-84496344D01*
X124141852Y-84466404D01*
X124158879Y-84437995D01*
X124178609Y-84411392D01*
X124200851Y-84386851D01*
X124225392Y-84364609D01*
X124251995Y-84344879D01*
X124280404Y-84327852D01*
X124310344Y-84313691D01*
X124341529Y-84302533D01*
X124373657Y-84294485D01*
X124406419Y-84289625D01*
X124439500Y-84288000D01*
X125214500Y-84288000D01*
X125247581Y-84289625D01*
X125247581Y-84289625D01*
G37*
D16*
X124827000Y-84963000D03*
D12*
G36*
X123497581Y-84289625D02*
X123530343Y-84294485D01*
X123562471Y-84302533D01*
X123593656Y-84313691D01*
X123623596Y-84327852D01*
X123652005Y-84344879D01*
X123678608Y-84364609D01*
X123703149Y-84386851D01*
X123725391Y-84411392D01*
X123745121Y-84437995D01*
X123762148Y-84466404D01*
X123776309Y-84496344D01*
X123787467Y-84527529D01*
X123795515Y-84559657D01*
X123800375Y-84592419D01*
X123802000Y-84625500D01*
X123802000Y-85300500D01*
X123800375Y-85333581D01*
X123795515Y-85366343D01*
X123787467Y-85398471D01*
X123776309Y-85429656D01*
X123762148Y-85459596D01*
X123745121Y-85488005D01*
X123725391Y-85514608D01*
X123703149Y-85539149D01*
X123678608Y-85561391D01*
X123652005Y-85581121D01*
X123623596Y-85598148D01*
X123593656Y-85612309D01*
X123562471Y-85623467D01*
X123530343Y-85631515D01*
X123497581Y-85636375D01*
X123464500Y-85638000D01*
X122689500Y-85638000D01*
X122656419Y-85636375D01*
X122623657Y-85631515D01*
X122591529Y-85623467D01*
X122560344Y-85612309D01*
X122530404Y-85598148D01*
X122501995Y-85581121D01*
X122475392Y-85561391D01*
X122450851Y-85539149D01*
X122428609Y-85514608D01*
X122408879Y-85488005D01*
X122391852Y-85459596D01*
X122377691Y-85429656D01*
X122366533Y-85398471D01*
X122358485Y-85366343D01*
X122353625Y-85333581D01*
X122352000Y-85300500D01*
X122352000Y-84625500D01*
X122353625Y-84592419D01*
X122358485Y-84559657D01*
X122366533Y-84527529D01*
X122377691Y-84496344D01*
X122391852Y-84466404D01*
X122408879Y-84437995D01*
X122428609Y-84411392D01*
X122450851Y-84386851D01*
X122475392Y-84364609D01*
X122501995Y-84344879D01*
X122530404Y-84327852D01*
X122560344Y-84313691D01*
X122591529Y-84302533D01*
X122623657Y-84294485D01*
X122656419Y-84289625D01*
X122689500Y-84288000D01*
X123464500Y-84288000D01*
X123497581Y-84289625D01*
X123497581Y-84289625D01*
G37*
D16*
X123077000Y-84963000D03*
G04 #@! TD*
D12*
G04 #@! TO.C,R15*
G36*
X103276581Y-102450625D02*
X103309343Y-102455485D01*
X103341471Y-102463533D01*
X103372656Y-102474691D01*
X103402596Y-102488852D01*
X103431005Y-102505879D01*
X103457608Y-102525609D01*
X103482149Y-102547851D01*
X103504391Y-102572392D01*
X103524121Y-102598995D01*
X103541148Y-102627404D01*
X103555309Y-102657344D01*
X103566467Y-102688529D01*
X103574515Y-102720657D01*
X103579375Y-102753419D01*
X103581000Y-102786500D01*
X103581000Y-103461500D01*
X103579375Y-103494581D01*
X103574515Y-103527343D01*
X103566467Y-103559471D01*
X103555309Y-103590656D01*
X103541148Y-103620596D01*
X103524121Y-103649005D01*
X103504391Y-103675608D01*
X103482149Y-103700149D01*
X103457608Y-103722391D01*
X103431005Y-103742121D01*
X103402596Y-103759148D01*
X103372656Y-103773309D01*
X103341471Y-103784467D01*
X103309343Y-103792515D01*
X103276581Y-103797375D01*
X103243500Y-103799000D01*
X102468500Y-103799000D01*
X102435419Y-103797375D01*
X102402657Y-103792515D01*
X102370529Y-103784467D01*
X102339344Y-103773309D01*
X102309404Y-103759148D01*
X102280995Y-103742121D01*
X102254392Y-103722391D01*
X102229851Y-103700149D01*
X102207609Y-103675608D01*
X102187879Y-103649005D01*
X102170852Y-103620596D01*
X102156691Y-103590656D01*
X102145533Y-103559471D01*
X102137485Y-103527343D01*
X102132625Y-103494581D01*
X102131000Y-103461500D01*
X102131000Y-102786500D01*
X102132625Y-102753419D01*
X102137485Y-102720657D01*
X102145533Y-102688529D01*
X102156691Y-102657344D01*
X102170852Y-102627404D01*
X102187879Y-102598995D01*
X102207609Y-102572392D01*
X102229851Y-102547851D01*
X102254392Y-102525609D01*
X102280995Y-102505879D01*
X102309404Y-102488852D01*
X102339344Y-102474691D01*
X102370529Y-102463533D01*
X102402657Y-102455485D01*
X102435419Y-102450625D01*
X102468500Y-102449000D01*
X103243500Y-102449000D01*
X103276581Y-102450625D01*
X103276581Y-102450625D01*
G37*
D16*
X102856000Y-103124000D03*
D12*
G36*
X101526581Y-102450625D02*
X101559343Y-102455485D01*
X101591471Y-102463533D01*
X101622656Y-102474691D01*
X101652596Y-102488852D01*
X101681005Y-102505879D01*
X101707608Y-102525609D01*
X101732149Y-102547851D01*
X101754391Y-102572392D01*
X101774121Y-102598995D01*
X101791148Y-102627404D01*
X101805309Y-102657344D01*
X101816467Y-102688529D01*
X101824515Y-102720657D01*
X101829375Y-102753419D01*
X101831000Y-102786500D01*
X101831000Y-103461500D01*
X101829375Y-103494581D01*
X101824515Y-103527343D01*
X101816467Y-103559471D01*
X101805309Y-103590656D01*
X101791148Y-103620596D01*
X101774121Y-103649005D01*
X101754391Y-103675608D01*
X101732149Y-103700149D01*
X101707608Y-103722391D01*
X101681005Y-103742121D01*
X101652596Y-103759148D01*
X101622656Y-103773309D01*
X101591471Y-103784467D01*
X101559343Y-103792515D01*
X101526581Y-103797375D01*
X101493500Y-103799000D01*
X100718500Y-103799000D01*
X100685419Y-103797375D01*
X100652657Y-103792515D01*
X100620529Y-103784467D01*
X100589344Y-103773309D01*
X100559404Y-103759148D01*
X100530995Y-103742121D01*
X100504392Y-103722391D01*
X100479851Y-103700149D01*
X100457609Y-103675608D01*
X100437879Y-103649005D01*
X100420852Y-103620596D01*
X100406691Y-103590656D01*
X100395533Y-103559471D01*
X100387485Y-103527343D01*
X100382625Y-103494581D01*
X100381000Y-103461500D01*
X100381000Y-102786500D01*
X100382625Y-102753419D01*
X100387485Y-102720657D01*
X100395533Y-102688529D01*
X100406691Y-102657344D01*
X100420852Y-102627404D01*
X100437879Y-102598995D01*
X100457609Y-102572392D01*
X100479851Y-102547851D01*
X100504392Y-102525609D01*
X100530995Y-102505879D01*
X100559404Y-102488852D01*
X100589344Y-102474691D01*
X100620529Y-102463533D01*
X100652657Y-102455485D01*
X100685419Y-102450625D01*
X100718500Y-102449000D01*
X101493500Y-102449000D01*
X101526581Y-102450625D01*
X101526581Y-102450625D01*
G37*
D16*
X101106000Y-103124000D03*
G04 #@! TD*
D12*
G04 #@! TO.C,R16*
G36*
X97956581Y-102450625D02*
X97989343Y-102455485D01*
X98021471Y-102463533D01*
X98052656Y-102474691D01*
X98082596Y-102488852D01*
X98111005Y-102505879D01*
X98137608Y-102525609D01*
X98162149Y-102547851D01*
X98184391Y-102572392D01*
X98204121Y-102598995D01*
X98221148Y-102627404D01*
X98235309Y-102657344D01*
X98246467Y-102688529D01*
X98254515Y-102720657D01*
X98259375Y-102753419D01*
X98261000Y-102786500D01*
X98261000Y-103461500D01*
X98259375Y-103494581D01*
X98254515Y-103527343D01*
X98246467Y-103559471D01*
X98235309Y-103590656D01*
X98221148Y-103620596D01*
X98204121Y-103649005D01*
X98184391Y-103675608D01*
X98162149Y-103700149D01*
X98137608Y-103722391D01*
X98111005Y-103742121D01*
X98082596Y-103759148D01*
X98052656Y-103773309D01*
X98021471Y-103784467D01*
X97989343Y-103792515D01*
X97956581Y-103797375D01*
X97923500Y-103799000D01*
X97148500Y-103799000D01*
X97115419Y-103797375D01*
X97082657Y-103792515D01*
X97050529Y-103784467D01*
X97019344Y-103773309D01*
X96989404Y-103759148D01*
X96960995Y-103742121D01*
X96934392Y-103722391D01*
X96909851Y-103700149D01*
X96887609Y-103675608D01*
X96867879Y-103649005D01*
X96850852Y-103620596D01*
X96836691Y-103590656D01*
X96825533Y-103559471D01*
X96817485Y-103527343D01*
X96812625Y-103494581D01*
X96811000Y-103461500D01*
X96811000Y-102786500D01*
X96812625Y-102753419D01*
X96817485Y-102720657D01*
X96825533Y-102688529D01*
X96836691Y-102657344D01*
X96850852Y-102627404D01*
X96867879Y-102598995D01*
X96887609Y-102572392D01*
X96909851Y-102547851D01*
X96934392Y-102525609D01*
X96960995Y-102505879D01*
X96989404Y-102488852D01*
X97019344Y-102474691D01*
X97050529Y-102463533D01*
X97082657Y-102455485D01*
X97115419Y-102450625D01*
X97148500Y-102449000D01*
X97923500Y-102449000D01*
X97956581Y-102450625D01*
X97956581Y-102450625D01*
G37*
D16*
X97536000Y-103124000D03*
D12*
G36*
X99706581Y-102450625D02*
X99739343Y-102455485D01*
X99771471Y-102463533D01*
X99802656Y-102474691D01*
X99832596Y-102488852D01*
X99861005Y-102505879D01*
X99887608Y-102525609D01*
X99912149Y-102547851D01*
X99934391Y-102572392D01*
X99954121Y-102598995D01*
X99971148Y-102627404D01*
X99985309Y-102657344D01*
X99996467Y-102688529D01*
X100004515Y-102720657D01*
X100009375Y-102753419D01*
X100011000Y-102786500D01*
X100011000Y-103461500D01*
X100009375Y-103494581D01*
X100004515Y-103527343D01*
X99996467Y-103559471D01*
X99985309Y-103590656D01*
X99971148Y-103620596D01*
X99954121Y-103649005D01*
X99934391Y-103675608D01*
X99912149Y-103700149D01*
X99887608Y-103722391D01*
X99861005Y-103742121D01*
X99832596Y-103759148D01*
X99802656Y-103773309D01*
X99771471Y-103784467D01*
X99739343Y-103792515D01*
X99706581Y-103797375D01*
X99673500Y-103799000D01*
X98898500Y-103799000D01*
X98865419Y-103797375D01*
X98832657Y-103792515D01*
X98800529Y-103784467D01*
X98769344Y-103773309D01*
X98739404Y-103759148D01*
X98710995Y-103742121D01*
X98684392Y-103722391D01*
X98659851Y-103700149D01*
X98637609Y-103675608D01*
X98617879Y-103649005D01*
X98600852Y-103620596D01*
X98586691Y-103590656D01*
X98575533Y-103559471D01*
X98567485Y-103527343D01*
X98562625Y-103494581D01*
X98561000Y-103461500D01*
X98561000Y-102786500D01*
X98562625Y-102753419D01*
X98567485Y-102720657D01*
X98575533Y-102688529D01*
X98586691Y-102657344D01*
X98600852Y-102627404D01*
X98617879Y-102598995D01*
X98637609Y-102572392D01*
X98659851Y-102547851D01*
X98684392Y-102525609D01*
X98710995Y-102505879D01*
X98739404Y-102488852D01*
X98769344Y-102474691D01*
X98800529Y-102463533D01*
X98832657Y-102455485D01*
X98865419Y-102450625D01*
X98898500Y-102449000D01*
X99673500Y-102449000D01*
X99706581Y-102450625D01*
X99706581Y-102450625D01*
G37*
D16*
X99286000Y-103124000D03*
G04 #@! TD*
D12*
G04 #@! TO.C,R17*
G36*
X121098581Y-102704625D02*
X121131343Y-102709485D01*
X121163471Y-102717533D01*
X121194656Y-102728691D01*
X121224596Y-102742852D01*
X121253005Y-102759879D01*
X121279608Y-102779609D01*
X121304149Y-102801851D01*
X121326391Y-102826392D01*
X121346121Y-102852995D01*
X121363148Y-102881404D01*
X121377309Y-102911344D01*
X121388467Y-102942529D01*
X121396515Y-102974657D01*
X121401375Y-103007419D01*
X121403000Y-103040500D01*
X121403000Y-103715500D01*
X121401375Y-103748581D01*
X121396515Y-103781343D01*
X121388467Y-103813471D01*
X121377309Y-103844656D01*
X121363148Y-103874596D01*
X121346121Y-103903005D01*
X121326391Y-103929608D01*
X121304149Y-103954149D01*
X121279608Y-103976391D01*
X121253005Y-103996121D01*
X121224596Y-104013148D01*
X121194656Y-104027309D01*
X121163471Y-104038467D01*
X121131343Y-104046515D01*
X121098581Y-104051375D01*
X121065500Y-104053000D01*
X120290500Y-104053000D01*
X120257419Y-104051375D01*
X120224657Y-104046515D01*
X120192529Y-104038467D01*
X120161344Y-104027309D01*
X120131404Y-104013148D01*
X120102995Y-103996121D01*
X120076392Y-103976391D01*
X120051851Y-103954149D01*
X120029609Y-103929608D01*
X120009879Y-103903005D01*
X119992852Y-103874596D01*
X119978691Y-103844656D01*
X119967533Y-103813471D01*
X119959485Y-103781343D01*
X119954625Y-103748581D01*
X119953000Y-103715500D01*
X119953000Y-103040500D01*
X119954625Y-103007419D01*
X119959485Y-102974657D01*
X119967533Y-102942529D01*
X119978691Y-102911344D01*
X119992852Y-102881404D01*
X120009879Y-102852995D01*
X120029609Y-102826392D01*
X120051851Y-102801851D01*
X120076392Y-102779609D01*
X120102995Y-102759879D01*
X120131404Y-102742852D01*
X120161344Y-102728691D01*
X120192529Y-102717533D01*
X120224657Y-102709485D01*
X120257419Y-102704625D01*
X120290500Y-102703000D01*
X121065500Y-102703000D01*
X121098581Y-102704625D01*
X121098581Y-102704625D01*
G37*
D16*
X120678000Y-103378000D03*
D12*
G36*
X122848581Y-102704625D02*
X122881343Y-102709485D01*
X122913471Y-102717533D01*
X122944656Y-102728691D01*
X122974596Y-102742852D01*
X123003005Y-102759879D01*
X123029608Y-102779609D01*
X123054149Y-102801851D01*
X123076391Y-102826392D01*
X123096121Y-102852995D01*
X123113148Y-102881404D01*
X123127309Y-102911344D01*
X123138467Y-102942529D01*
X123146515Y-102974657D01*
X123151375Y-103007419D01*
X123153000Y-103040500D01*
X123153000Y-103715500D01*
X123151375Y-103748581D01*
X123146515Y-103781343D01*
X123138467Y-103813471D01*
X123127309Y-103844656D01*
X123113148Y-103874596D01*
X123096121Y-103903005D01*
X123076391Y-103929608D01*
X123054149Y-103954149D01*
X123029608Y-103976391D01*
X123003005Y-103996121D01*
X122974596Y-104013148D01*
X122944656Y-104027309D01*
X122913471Y-104038467D01*
X122881343Y-104046515D01*
X122848581Y-104051375D01*
X122815500Y-104053000D01*
X122040500Y-104053000D01*
X122007419Y-104051375D01*
X121974657Y-104046515D01*
X121942529Y-104038467D01*
X121911344Y-104027309D01*
X121881404Y-104013148D01*
X121852995Y-103996121D01*
X121826392Y-103976391D01*
X121801851Y-103954149D01*
X121779609Y-103929608D01*
X121759879Y-103903005D01*
X121742852Y-103874596D01*
X121728691Y-103844656D01*
X121717533Y-103813471D01*
X121709485Y-103781343D01*
X121704625Y-103748581D01*
X121703000Y-103715500D01*
X121703000Y-103040500D01*
X121704625Y-103007419D01*
X121709485Y-102974657D01*
X121717533Y-102942529D01*
X121728691Y-102911344D01*
X121742852Y-102881404D01*
X121759879Y-102852995D01*
X121779609Y-102826392D01*
X121801851Y-102801851D01*
X121826392Y-102779609D01*
X121852995Y-102759879D01*
X121881404Y-102742852D01*
X121911344Y-102728691D01*
X121942529Y-102717533D01*
X121974657Y-102709485D01*
X122007419Y-102704625D01*
X122040500Y-102703000D01*
X122815500Y-102703000D01*
X122848581Y-102704625D01*
X122848581Y-102704625D01*
G37*
D16*
X122428000Y-103378000D03*
G04 #@! TD*
D12*
G04 #@! TO.C,R18*
G36*
X119278581Y-102704625D02*
X119311343Y-102709485D01*
X119343471Y-102717533D01*
X119374656Y-102728691D01*
X119404596Y-102742852D01*
X119433005Y-102759879D01*
X119459608Y-102779609D01*
X119484149Y-102801851D01*
X119506391Y-102826392D01*
X119526121Y-102852995D01*
X119543148Y-102881404D01*
X119557309Y-102911344D01*
X119568467Y-102942529D01*
X119576515Y-102974657D01*
X119581375Y-103007419D01*
X119583000Y-103040500D01*
X119583000Y-103715500D01*
X119581375Y-103748581D01*
X119576515Y-103781343D01*
X119568467Y-103813471D01*
X119557309Y-103844656D01*
X119543148Y-103874596D01*
X119526121Y-103903005D01*
X119506391Y-103929608D01*
X119484149Y-103954149D01*
X119459608Y-103976391D01*
X119433005Y-103996121D01*
X119404596Y-104013148D01*
X119374656Y-104027309D01*
X119343471Y-104038467D01*
X119311343Y-104046515D01*
X119278581Y-104051375D01*
X119245500Y-104053000D01*
X118470500Y-104053000D01*
X118437419Y-104051375D01*
X118404657Y-104046515D01*
X118372529Y-104038467D01*
X118341344Y-104027309D01*
X118311404Y-104013148D01*
X118282995Y-103996121D01*
X118256392Y-103976391D01*
X118231851Y-103954149D01*
X118209609Y-103929608D01*
X118189879Y-103903005D01*
X118172852Y-103874596D01*
X118158691Y-103844656D01*
X118147533Y-103813471D01*
X118139485Y-103781343D01*
X118134625Y-103748581D01*
X118133000Y-103715500D01*
X118133000Y-103040500D01*
X118134625Y-103007419D01*
X118139485Y-102974657D01*
X118147533Y-102942529D01*
X118158691Y-102911344D01*
X118172852Y-102881404D01*
X118189879Y-102852995D01*
X118209609Y-102826392D01*
X118231851Y-102801851D01*
X118256392Y-102779609D01*
X118282995Y-102759879D01*
X118311404Y-102742852D01*
X118341344Y-102728691D01*
X118372529Y-102717533D01*
X118404657Y-102709485D01*
X118437419Y-102704625D01*
X118470500Y-102703000D01*
X119245500Y-102703000D01*
X119278581Y-102704625D01*
X119278581Y-102704625D01*
G37*
D16*
X118858000Y-103378000D03*
D12*
G36*
X117528581Y-102704625D02*
X117561343Y-102709485D01*
X117593471Y-102717533D01*
X117624656Y-102728691D01*
X117654596Y-102742852D01*
X117683005Y-102759879D01*
X117709608Y-102779609D01*
X117734149Y-102801851D01*
X117756391Y-102826392D01*
X117776121Y-102852995D01*
X117793148Y-102881404D01*
X117807309Y-102911344D01*
X117818467Y-102942529D01*
X117826515Y-102974657D01*
X117831375Y-103007419D01*
X117833000Y-103040500D01*
X117833000Y-103715500D01*
X117831375Y-103748581D01*
X117826515Y-103781343D01*
X117818467Y-103813471D01*
X117807309Y-103844656D01*
X117793148Y-103874596D01*
X117776121Y-103903005D01*
X117756391Y-103929608D01*
X117734149Y-103954149D01*
X117709608Y-103976391D01*
X117683005Y-103996121D01*
X117654596Y-104013148D01*
X117624656Y-104027309D01*
X117593471Y-104038467D01*
X117561343Y-104046515D01*
X117528581Y-104051375D01*
X117495500Y-104053000D01*
X116720500Y-104053000D01*
X116687419Y-104051375D01*
X116654657Y-104046515D01*
X116622529Y-104038467D01*
X116591344Y-104027309D01*
X116561404Y-104013148D01*
X116532995Y-103996121D01*
X116506392Y-103976391D01*
X116481851Y-103954149D01*
X116459609Y-103929608D01*
X116439879Y-103903005D01*
X116422852Y-103874596D01*
X116408691Y-103844656D01*
X116397533Y-103813471D01*
X116389485Y-103781343D01*
X116384625Y-103748581D01*
X116383000Y-103715500D01*
X116383000Y-103040500D01*
X116384625Y-103007419D01*
X116389485Y-102974657D01*
X116397533Y-102942529D01*
X116408691Y-102911344D01*
X116422852Y-102881404D01*
X116439879Y-102852995D01*
X116459609Y-102826392D01*
X116481851Y-102801851D01*
X116506392Y-102779609D01*
X116532995Y-102759879D01*
X116561404Y-102742852D01*
X116591344Y-102728691D01*
X116622529Y-102717533D01*
X116654657Y-102709485D01*
X116687419Y-102704625D01*
X116720500Y-102703000D01*
X117495500Y-102703000D01*
X117528581Y-102704625D01*
X117528581Y-102704625D01*
G37*
D16*
X117108000Y-103378000D03*
G04 #@! TD*
D17*
G04 #@! TO.C,U2*
X141453000Y-86487000D03*
D18*
X135153000Y-86487000D03*
X135153000Y-84187000D03*
X135153000Y-88787000D03*
G04 #@! TD*
D12*
G04 #@! TO.C,C19*
G36*
X118581071Y-83556623D02*
X118613781Y-83561475D01*
X118645857Y-83569509D01*
X118676991Y-83580649D01*
X118706884Y-83594787D01*
X118735247Y-83611787D01*
X118761807Y-83631485D01*
X118786308Y-83653692D01*
X118808515Y-83678193D01*
X118828213Y-83704753D01*
X118845213Y-83733116D01*
X118859351Y-83763009D01*
X118870491Y-83794143D01*
X118878525Y-83826219D01*
X118883377Y-83858929D01*
X118885000Y-83891956D01*
X118885000Y-85018044D01*
X118883377Y-85051071D01*
X118878525Y-85083781D01*
X118870491Y-85115857D01*
X118859351Y-85146991D01*
X118845213Y-85176884D01*
X118828213Y-85205247D01*
X118808515Y-85231807D01*
X118786308Y-85256308D01*
X118761807Y-85278515D01*
X118735247Y-85298213D01*
X118706884Y-85315213D01*
X118676991Y-85329351D01*
X118645857Y-85340491D01*
X118613781Y-85348525D01*
X118581071Y-85353377D01*
X118548044Y-85355000D01*
X117671956Y-85355000D01*
X117638929Y-85353377D01*
X117606219Y-85348525D01*
X117574143Y-85340491D01*
X117543009Y-85329351D01*
X117513116Y-85315213D01*
X117484753Y-85298213D01*
X117458193Y-85278515D01*
X117433692Y-85256308D01*
X117411485Y-85231807D01*
X117391787Y-85205247D01*
X117374787Y-85176884D01*
X117360649Y-85146991D01*
X117349509Y-85115857D01*
X117341475Y-85083781D01*
X117336623Y-85051071D01*
X117335000Y-85018044D01*
X117335000Y-83891956D01*
X117336623Y-83858929D01*
X117341475Y-83826219D01*
X117349509Y-83794143D01*
X117360649Y-83763009D01*
X117374787Y-83733116D01*
X117391787Y-83704753D01*
X117411485Y-83678193D01*
X117433692Y-83653692D01*
X117458193Y-83631485D01*
X117484753Y-83611787D01*
X117513116Y-83594787D01*
X117543009Y-83580649D01*
X117574143Y-83569509D01*
X117606219Y-83561475D01*
X117638929Y-83556623D01*
X117671956Y-83555000D01*
X118548044Y-83555000D01*
X118581071Y-83556623D01*
X118581071Y-83556623D01*
G37*
D19*
X118110000Y-84455000D03*
D12*
G36*
X120631071Y-83556623D02*
X120663781Y-83561475D01*
X120695857Y-83569509D01*
X120726991Y-83580649D01*
X120756884Y-83594787D01*
X120785247Y-83611787D01*
X120811807Y-83631485D01*
X120836308Y-83653692D01*
X120858515Y-83678193D01*
X120878213Y-83704753D01*
X120895213Y-83733116D01*
X120909351Y-83763009D01*
X120920491Y-83794143D01*
X120928525Y-83826219D01*
X120933377Y-83858929D01*
X120935000Y-83891956D01*
X120935000Y-85018044D01*
X120933377Y-85051071D01*
X120928525Y-85083781D01*
X120920491Y-85115857D01*
X120909351Y-85146991D01*
X120895213Y-85176884D01*
X120878213Y-85205247D01*
X120858515Y-85231807D01*
X120836308Y-85256308D01*
X120811807Y-85278515D01*
X120785247Y-85298213D01*
X120756884Y-85315213D01*
X120726991Y-85329351D01*
X120695857Y-85340491D01*
X120663781Y-85348525D01*
X120631071Y-85353377D01*
X120598044Y-85355000D01*
X119721956Y-85355000D01*
X119688929Y-85353377D01*
X119656219Y-85348525D01*
X119624143Y-85340491D01*
X119593009Y-85329351D01*
X119563116Y-85315213D01*
X119534753Y-85298213D01*
X119508193Y-85278515D01*
X119483692Y-85256308D01*
X119461485Y-85231807D01*
X119441787Y-85205247D01*
X119424787Y-85176884D01*
X119410649Y-85146991D01*
X119399509Y-85115857D01*
X119391475Y-85083781D01*
X119386623Y-85051071D01*
X119385000Y-85018044D01*
X119385000Y-83891956D01*
X119386623Y-83858929D01*
X119391475Y-83826219D01*
X119399509Y-83794143D01*
X119410649Y-83763009D01*
X119424787Y-83733116D01*
X119441787Y-83704753D01*
X119461485Y-83678193D01*
X119483692Y-83653692D01*
X119508193Y-83631485D01*
X119534753Y-83611787D01*
X119563116Y-83594787D01*
X119593009Y-83580649D01*
X119624143Y-83569509D01*
X119656219Y-83561475D01*
X119688929Y-83556623D01*
X119721956Y-83555000D01*
X120598044Y-83555000D01*
X120631071Y-83556623D01*
X120631071Y-83556623D01*
G37*
D19*
X120160000Y-84455000D03*
G04 #@! TD*
D12*
G04 #@! TO.C,C25*
G36*
X113102071Y-68189623D02*
X113134781Y-68194475D01*
X113166857Y-68202509D01*
X113197991Y-68213649D01*
X113227884Y-68227787D01*
X113256247Y-68244787D01*
X113282807Y-68264485D01*
X113307308Y-68286692D01*
X113329515Y-68311193D01*
X113349213Y-68337753D01*
X113366213Y-68366116D01*
X113380351Y-68396009D01*
X113391491Y-68427143D01*
X113399525Y-68459219D01*
X113404377Y-68491929D01*
X113406000Y-68524956D01*
X113406000Y-69651044D01*
X113404377Y-69684071D01*
X113399525Y-69716781D01*
X113391491Y-69748857D01*
X113380351Y-69779991D01*
X113366213Y-69809884D01*
X113349213Y-69838247D01*
X113329515Y-69864807D01*
X113307308Y-69889308D01*
X113282807Y-69911515D01*
X113256247Y-69931213D01*
X113227884Y-69948213D01*
X113197991Y-69962351D01*
X113166857Y-69973491D01*
X113134781Y-69981525D01*
X113102071Y-69986377D01*
X113069044Y-69988000D01*
X112192956Y-69988000D01*
X112159929Y-69986377D01*
X112127219Y-69981525D01*
X112095143Y-69973491D01*
X112064009Y-69962351D01*
X112034116Y-69948213D01*
X112005753Y-69931213D01*
X111979193Y-69911515D01*
X111954692Y-69889308D01*
X111932485Y-69864807D01*
X111912787Y-69838247D01*
X111895787Y-69809884D01*
X111881649Y-69779991D01*
X111870509Y-69748857D01*
X111862475Y-69716781D01*
X111857623Y-69684071D01*
X111856000Y-69651044D01*
X111856000Y-68524956D01*
X111857623Y-68491929D01*
X111862475Y-68459219D01*
X111870509Y-68427143D01*
X111881649Y-68396009D01*
X111895787Y-68366116D01*
X111912787Y-68337753D01*
X111932485Y-68311193D01*
X111954692Y-68286692D01*
X111979193Y-68264485D01*
X112005753Y-68244787D01*
X112034116Y-68227787D01*
X112064009Y-68213649D01*
X112095143Y-68202509D01*
X112127219Y-68194475D01*
X112159929Y-68189623D01*
X112192956Y-68188000D01*
X113069044Y-68188000D01*
X113102071Y-68189623D01*
X113102071Y-68189623D01*
G37*
D19*
X112631000Y-69088000D03*
D12*
G36*
X115152071Y-68189623D02*
X115184781Y-68194475D01*
X115216857Y-68202509D01*
X115247991Y-68213649D01*
X115277884Y-68227787D01*
X115306247Y-68244787D01*
X115332807Y-68264485D01*
X115357308Y-68286692D01*
X115379515Y-68311193D01*
X115399213Y-68337753D01*
X115416213Y-68366116D01*
X115430351Y-68396009D01*
X115441491Y-68427143D01*
X115449525Y-68459219D01*
X115454377Y-68491929D01*
X115456000Y-68524956D01*
X115456000Y-69651044D01*
X115454377Y-69684071D01*
X115449525Y-69716781D01*
X115441491Y-69748857D01*
X115430351Y-69779991D01*
X115416213Y-69809884D01*
X115399213Y-69838247D01*
X115379515Y-69864807D01*
X115357308Y-69889308D01*
X115332807Y-69911515D01*
X115306247Y-69931213D01*
X115277884Y-69948213D01*
X115247991Y-69962351D01*
X115216857Y-69973491D01*
X115184781Y-69981525D01*
X115152071Y-69986377D01*
X115119044Y-69988000D01*
X114242956Y-69988000D01*
X114209929Y-69986377D01*
X114177219Y-69981525D01*
X114145143Y-69973491D01*
X114114009Y-69962351D01*
X114084116Y-69948213D01*
X114055753Y-69931213D01*
X114029193Y-69911515D01*
X114004692Y-69889308D01*
X113982485Y-69864807D01*
X113962787Y-69838247D01*
X113945787Y-69809884D01*
X113931649Y-69779991D01*
X113920509Y-69748857D01*
X113912475Y-69716781D01*
X113907623Y-69684071D01*
X113906000Y-69651044D01*
X113906000Y-68524956D01*
X113907623Y-68491929D01*
X113912475Y-68459219D01*
X113920509Y-68427143D01*
X113931649Y-68396009D01*
X113945787Y-68366116D01*
X113962787Y-68337753D01*
X113982485Y-68311193D01*
X114004692Y-68286692D01*
X114029193Y-68264485D01*
X114055753Y-68244787D01*
X114084116Y-68227787D01*
X114114009Y-68213649D01*
X114145143Y-68202509D01*
X114177219Y-68194475D01*
X114209929Y-68189623D01*
X114242956Y-68188000D01*
X115119044Y-68188000D01*
X115152071Y-68189623D01*
X115152071Y-68189623D01*
G37*
D19*
X114681000Y-69088000D03*
G04 #@! TD*
D12*
G04 #@! TO.C,C23*
G36*
X125330071Y-82032623D02*
X125362781Y-82037475D01*
X125394857Y-82045509D01*
X125425991Y-82056649D01*
X125455884Y-82070787D01*
X125484247Y-82087787D01*
X125510807Y-82107485D01*
X125535308Y-82129692D01*
X125557515Y-82154193D01*
X125577213Y-82180753D01*
X125594213Y-82209116D01*
X125608351Y-82239009D01*
X125619491Y-82270143D01*
X125627525Y-82302219D01*
X125632377Y-82334929D01*
X125634000Y-82367956D01*
X125634000Y-83494044D01*
X125632377Y-83527071D01*
X125627525Y-83559781D01*
X125619491Y-83591857D01*
X125608351Y-83622991D01*
X125594213Y-83652884D01*
X125577213Y-83681247D01*
X125557515Y-83707807D01*
X125535308Y-83732308D01*
X125510807Y-83754515D01*
X125484247Y-83774213D01*
X125455884Y-83791213D01*
X125425991Y-83805351D01*
X125394857Y-83816491D01*
X125362781Y-83824525D01*
X125330071Y-83829377D01*
X125297044Y-83831000D01*
X124420956Y-83831000D01*
X124387929Y-83829377D01*
X124355219Y-83824525D01*
X124323143Y-83816491D01*
X124292009Y-83805351D01*
X124262116Y-83791213D01*
X124233753Y-83774213D01*
X124207193Y-83754515D01*
X124182692Y-83732308D01*
X124160485Y-83707807D01*
X124140787Y-83681247D01*
X124123787Y-83652884D01*
X124109649Y-83622991D01*
X124098509Y-83591857D01*
X124090475Y-83559781D01*
X124085623Y-83527071D01*
X124084000Y-83494044D01*
X124084000Y-82367956D01*
X124085623Y-82334929D01*
X124090475Y-82302219D01*
X124098509Y-82270143D01*
X124109649Y-82239009D01*
X124123787Y-82209116D01*
X124140787Y-82180753D01*
X124160485Y-82154193D01*
X124182692Y-82129692D01*
X124207193Y-82107485D01*
X124233753Y-82087787D01*
X124262116Y-82070787D01*
X124292009Y-82056649D01*
X124323143Y-82045509D01*
X124355219Y-82037475D01*
X124387929Y-82032623D01*
X124420956Y-82031000D01*
X125297044Y-82031000D01*
X125330071Y-82032623D01*
X125330071Y-82032623D01*
G37*
D19*
X124859000Y-82931000D03*
D12*
G36*
X123280071Y-82032623D02*
X123312781Y-82037475D01*
X123344857Y-82045509D01*
X123375991Y-82056649D01*
X123405884Y-82070787D01*
X123434247Y-82087787D01*
X123460807Y-82107485D01*
X123485308Y-82129692D01*
X123507515Y-82154193D01*
X123527213Y-82180753D01*
X123544213Y-82209116D01*
X123558351Y-82239009D01*
X123569491Y-82270143D01*
X123577525Y-82302219D01*
X123582377Y-82334929D01*
X123584000Y-82367956D01*
X123584000Y-83494044D01*
X123582377Y-83527071D01*
X123577525Y-83559781D01*
X123569491Y-83591857D01*
X123558351Y-83622991D01*
X123544213Y-83652884D01*
X123527213Y-83681247D01*
X123507515Y-83707807D01*
X123485308Y-83732308D01*
X123460807Y-83754515D01*
X123434247Y-83774213D01*
X123405884Y-83791213D01*
X123375991Y-83805351D01*
X123344857Y-83816491D01*
X123312781Y-83824525D01*
X123280071Y-83829377D01*
X123247044Y-83831000D01*
X122370956Y-83831000D01*
X122337929Y-83829377D01*
X122305219Y-83824525D01*
X122273143Y-83816491D01*
X122242009Y-83805351D01*
X122212116Y-83791213D01*
X122183753Y-83774213D01*
X122157193Y-83754515D01*
X122132692Y-83732308D01*
X122110485Y-83707807D01*
X122090787Y-83681247D01*
X122073787Y-83652884D01*
X122059649Y-83622991D01*
X122048509Y-83591857D01*
X122040475Y-83559781D01*
X122035623Y-83527071D01*
X122034000Y-83494044D01*
X122034000Y-82367956D01*
X122035623Y-82334929D01*
X122040475Y-82302219D01*
X122048509Y-82270143D01*
X122059649Y-82239009D01*
X122073787Y-82209116D01*
X122090787Y-82180753D01*
X122110485Y-82154193D01*
X122132692Y-82129692D01*
X122157193Y-82107485D01*
X122183753Y-82087787D01*
X122212116Y-82070787D01*
X122242009Y-82056649D01*
X122273143Y-82045509D01*
X122305219Y-82037475D01*
X122337929Y-82032623D01*
X122370956Y-82031000D01*
X123247044Y-82031000D01*
X123280071Y-82032623D01*
X123280071Y-82032623D01*
G37*
D19*
X122809000Y-82931000D03*
G04 #@! TD*
D12*
G04 #@! TO.C,C26*
G36*
X118756581Y-68922625D02*
X118789343Y-68927485D01*
X118821471Y-68935533D01*
X118852656Y-68946691D01*
X118882596Y-68960852D01*
X118911005Y-68977879D01*
X118937608Y-68997609D01*
X118962149Y-69019851D01*
X118984391Y-69044392D01*
X119004121Y-69070995D01*
X119021148Y-69099404D01*
X119035309Y-69129344D01*
X119046467Y-69160529D01*
X119054515Y-69192657D01*
X119059375Y-69225419D01*
X119061000Y-69258500D01*
X119061000Y-69933500D01*
X119059375Y-69966581D01*
X119054515Y-69999343D01*
X119046467Y-70031471D01*
X119035309Y-70062656D01*
X119021148Y-70092596D01*
X119004121Y-70121005D01*
X118984391Y-70147608D01*
X118962149Y-70172149D01*
X118937608Y-70194391D01*
X118911005Y-70214121D01*
X118882596Y-70231148D01*
X118852656Y-70245309D01*
X118821471Y-70256467D01*
X118789343Y-70264515D01*
X118756581Y-70269375D01*
X118723500Y-70271000D01*
X117948500Y-70271000D01*
X117915419Y-70269375D01*
X117882657Y-70264515D01*
X117850529Y-70256467D01*
X117819344Y-70245309D01*
X117789404Y-70231148D01*
X117760995Y-70214121D01*
X117734392Y-70194391D01*
X117709851Y-70172149D01*
X117687609Y-70147608D01*
X117667879Y-70121005D01*
X117650852Y-70092596D01*
X117636691Y-70062656D01*
X117625533Y-70031471D01*
X117617485Y-69999343D01*
X117612625Y-69966581D01*
X117611000Y-69933500D01*
X117611000Y-69258500D01*
X117612625Y-69225419D01*
X117617485Y-69192657D01*
X117625533Y-69160529D01*
X117636691Y-69129344D01*
X117650852Y-69099404D01*
X117667879Y-69070995D01*
X117687609Y-69044392D01*
X117709851Y-69019851D01*
X117734392Y-68997609D01*
X117760995Y-68977879D01*
X117789404Y-68960852D01*
X117819344Y-68946691D01*
X117850529Y-68935533D01*
X117882657Y-68927485D01*
X117915419Y-68922625D01*
X117948500Y-68921000D01*
X118723500Y-68921000D01*
X118756581Y-68922625D01*
X118756581Y-68922625D01*
G37*
D16*
X118336000Y-69596000D03*
D12*
G36*
X117006581Y-68922625D02*
X117039343Y-68927485D01*
X117071471Y-68935533D01*
X117102656Y-68946691D01*
X117132596Y-68960852D01*
X117161005Y-68977879D01*
X117187608Y-68997609D01*
X117212149Y-69019851D01*
X117234391Y-69044392D01*
X117254121Y-69070995D01*
X117271148Y-69099404D01*
X117285309Y-69129344D01*
X117296467Y-69160529D01*
X117304515Y-69192657D01*
X117309375Y-69225419D01*
X117311000Y-69258500D01*
X117311000Y-69933500D01*
X117309375Y-69966581D01*
X117304515Y-69999343D01*
X117296467Y-70031471D01*
X117285309Y-70062656D01*
X117271148Y-70092596D01*
X117254121Y-70121005D01*
X117234391Y-70147608D01*
X117212149Y-70172149D01*
X117187608Y-70194391D01*
X117161005Y-70214121D01*
X117132596Y-70231148D01*
X117102656Y-70245309D01*
X117071471Y-70256467D01*
X117039343Y-70264515D01*
X117006581Y-70269375D01*
X116973500Y-70271000D01*
X116198500Y-70271000D01*
X116165419Y-70269375D01*
X116132657Y-70264515D01*
X116100529Y-70256467D01*
X116069344Y-70245309D01*
X116039404Y-70231148D01*
X116010995Y-70214121D01*
X115984392Y-70194391D01*
X115959851Y-70172149D01*
X115937609Y-70147608D01*
X115917879Y-70121005D01*
X115900852Y-70092596D01*
X115886691Y-70062656D01*
X115875533Y-70031471D01*
X115867485Y-69999343D01*
X115862625Y-69966581D01*
X115861000Y-69933500D01*
X115861000Y-69258500D01*
X115862625Y-69225419D01*
X115867485Y-69192657D01*
X115875533Y-69160529D01*
X115886691Y-69129344D01*
X115900852Y-69099404D01*
X115917879Y-69070995D01*
X115937609Y-69044392D01*
X115959851Y-69019851D01*
X115984392Y-68997609D01*
X116010995Y-68977879D01*
X116039404Y-68960852D01*
X116069344Y-68946691D01*
X116100529Y-68935533D01*
X116132657Y-68927485D01*
X116165419Y-68922625D01*
X116198500Y-68921000D01*
X116973500Y-68921000D01*
X117006581Y-68922625D01*
X117006581Y-68922625D01*
G37*
D16*
X116586000Y-69596000D03*
G04 #@! TD*
D12*
G04 #@! TO.C,C29*
G36*
X122439581Y-68922625D02*
X122472343Y-68927485D01*
X122504471Y-68935533D01*
X122535656Y-68946691D01*
X122565596Y-68960852D01*
X122594005Y-68977879D01*
X122620608Y-68997609D01*
X122645149Y-69019851D01*
X122667391Y-69044392D01*
X122687121Y-69070995D01*
X122704148Y-69099404D01*
X122718309Y-69129344D01*
X122729467Y-69160529D01*
X122737515Y-69192657D01*
X122742375Y-69225419D01*
X122744000Y-69258500D01*
X122744000Y-69933500D01*
X122742375Y-69966581D01*
X122737515Y-69999343D01*
X122729467Y-70031471D01*
X122718309Y-70062656D01*
X122704148Y-70092596D01*
X122687121Y-70121005D01*
X122667391Y-70147608D01*
X122645149Y-70172149D01*
X122620608Y-70194391D01*
X122594005Y-70214121D01*
X122565596Y-70231148D01*
X122535656Y-70245309D01*
X122504471Y-70256467D01*
X122472343Y-70264515D01*
X122439581Y-70269375D01*
X122406500Y-70271000D01*
X121631500Y-70271000D01*
X121598419Y-70269375D01*
X121565657Y-70264515D01*
X121533529Y-70256467D01*
X121502344Y-70245309D01*
X121472404Y-70231148D01*
X121443995Y-70214121D01*
X121417392Y-70194391D01*
X121392851Y-70172149D01*
X121370609Y-70147608D01*
X121350879Y-70121005D01*
X121333852Y-70092596D01*
X121319691Y-70062656D01*
X121308533Y-70031471D01*
X121300485Y-69999343D01*
X121295625Y-69966581D01*
X121294000Y-69933500D01*
X121294000Y-69258500D01*
X121295625Y-69225419D01*
X121300485Y-69192657D01*
X121308533Y-69160529D01*
X121319691Y-69129344D01*
X121333852Y-69099404D01*
X121350879Y-69070995D01*
X121370609Y-69044392D01*
X121392851Y-69019851D01*
X121417392Y-68997609D01*
X121443995Y-68977879D01*
X121472404Y-68960852D01*
X121502344Y-68946691D01*
X121533529Y-68935533D01*
X121565657Y-68927485D01*
X121598419Y-68922625D01*
X121631500Y-68921000D01*
X122406500Y-68921000D01*
X122439581Y-68922625D01*
X122439581Y-68922625D01*
G37*
D16*
X122019000Y-69596000D03*
D12*
G36*
X120689581Y-68922625D02*
X120722343Y-68927485D01*
X120754471Y-68935533D01*
X120785656Y-68946691D01*
X120815596Y-68960852D01*
X120844005Y-68977879D01*
X120870608Y-68997609D01*
X120895149Y-69019851D01*
X120917391Y-69044392D01*
X120937121Y-69070995D01*
X120954148Y-69099404D01*
X120968309Y-69129344D01*
X120979467Y-69160529D01*
X120987515Y-69192657D01*
X120992375Y-69225419D01*
X120994000Y-69258500D01*
X120994000Y-69933500D01*
X120992375Y-69966581D01*
X120987515Y-69999343D01*
X120979467Y-70031471D01*
X120968309Y-70062656D01*
X120954148Y-70092596D01*
X120937121Y-70121005D01*
X120917391Y-70147608D01*
X120895149Y-70172149D01*
X120870608Y-70194391D01*
X120844005Y-70214121D01*
X120815596Y-70231148D01*
X120785656Y-70245309D01*
X120754471Y-70256467D01*
X120722343Y-70264515D01*
X120689581Y-70269375D01*
X120656500Y-70271000D01*
X119881500Y-70271000D01*
X119848419Y-70269375D01*
X119815657Y-70264515D01*
X119783529Y-70256467D01*
X119752344Y-70245309D01*
X119722404Y-70231148D01*
X119693995Y-70214121D01*
X119667392Y-70194391D01*
X119642851Y-70172149D01*
X119620609Y-70147608D01*
X119600879Y-70121005D01*
X119583852Y-70092596D01*
X119569691Y-70062656D01*
X119558533Y-70031471D01*
X119550485Y-69999343D01*
X119545625Y-69966581D01*
X119544000Y-69933500D01*
X119544000Y-69258500D01*
X119545625Y-69225419D01*
X119550485Y-69192657D01*
X119558533Y-69160529D01*
X119569691Y-69129344D01*
X119583852Y-69099404D01*
X119600879Y-69070995D01*
X119620609Y-69044392D01*
X119642851Y-69019851D01*
X119667392Y-68997609D01*
X119693995Y-68977879D01*
X119722404Y-68960852D01*
X119752344Y-68946691D01*
X119783529Y-68935533D01*
X119815657Y-68927485D01*
X119848419Y-68922625D01*
X119881500Y-68921000D01*
X120656500Y-68921000D01*
X120689581Y-68922625D01*
X120689581Y-68922625D01*
G37*
D16*
X120269000Y-69596000D03*
G04 #@! TD*
D12*
G04 #@! TO.C,C37*
G36*
X133339581Y-83477625D02*
X133372343Y-83482485D01*
X133404471Y-83490533D01*
X133435656Y-83501691D01*
X133465596Y-83515852D01*
X133494005Y-83532879D01*
X133520608Y-83552609D01*
X133545149Y-83574851D01*
X133567391Y-83599392D01*
X133587121Y-83625995D01*
X133604148Y-83654404D01*
X133618309Y-83684344D01*
X133629467Y-83715529D01*
X133637515Y-83747657D01*
X133642375Y-83780419D01*
X133644000Y-83813500D01*
X133644000Y-84588500D01*
X133642375Y-84621581D01*
X133637515Y-84654343D01*
X133629467Y-84686471D01*
X133618309Y-84717656D01*
X133604148Y-84747596D01*
X133587121Y-84776005D01*
X133567391Y-84802608D01*
X133545149Y-84827149D01*
X133520608Y-84849391D01*
X133494005Y-84869121D01*
X133465596Y-84886148D01*
X133435656Y-84900309D01*
X133404471Y-84911467D01*
X133372343Y-84919515D01*
X133339581Y-84924375D01*
X133306500Y-84926000D01*
X132631500Y-84926000D01*
X132598419Y-84924375D01*
X132565657Y-84919515D01*
X132533529Y-84911467D01*
X132502344Y-84900309D01*
X132472404Y-84886148D01*
X132443995Y-84869121D01*
X132417392Y-84849391D01*
X132392851Y-84827149D01*
X132370609Y-84802608D01*
X132350879Y-84776005D01*
X132333852Y-84747596D01*
X132319691Y-84717656D01*
X132308533Y-84686471D01*
X132300485Y-84654343D01*
X132295625Y-84621581D01*
X132294000Y-84588500D01*
X132294000Y-83813500D01*
X132295625Y-83780419D01*
X132300485Y-83747657D01*
X132308533Y-83715529D01*
X132319691Y-83684344D01*
X132333852Y-83654404D01*
X132350879Y-83625995D01*
X132370609Y-83599392D01*
X132392851Y-83574851D01*
X132417392Y-83552609D01*
X132443995Y-83532879D01*
X132472404Y-83515852D01*
X132502344Y-83501691D01*
X132533529Y-83490533D01*
X132565657Y-83482485D01*
X132598419Y-83477625D01*
X132631500Y-83476000D01*
X133306500Y-83476000D01*
X133339581Y-83477625D01*
X133339581Y-83477625D01*
G37*
D16*
X132969000Y-84201000D03*
D12*
G36*
X133339581Y-81727625D02*
X133372343Y-81732485D01*
X133404471Y-81740533D01*
X133435656Y-81751691D01*
X133465596Y-81765852D01*
X133494005Y-81782879D01*
X133520608Y-81802609D01*
X133545149Y-81824851D01*
X133567391Y-81849392D01*
X133587121Y-81875995D01*
X133604148Y-81904404D01*
X133618309Y-81934344D01*
X133629467Y-81965529D01*
X133637515Y-81997657D01*
X133642375Y-82030419D01*
X133644000Y-82063500D01*
X133644000Y-82838500D01*
X133642375Y-82871581D01*
X133637515Y-82904343D01*
X133629467Y-82936471D01*
X133618309Y-82967656D01*
X133604148Y-82997596D01*
X133587121Y-83026005D01*
X133567391Y-83052608D01*
X133545149Y-83077149D01*
X133520608Y-83099391D01*
X133494005Y-83119121D01*
X133465596Y-83136148D01*
X133435656Y-83150309D01*
X133404471Y-83161467D01*
X133372343Y-83169515D01*
X133339581Y-83174375D01*
X133306500Y-83176000D01*
X132631500Y-83176000D01*
X132598419Y-83174375D01*
X132565657Y-83169515D01*
X132533529Y-83161467D01*
X132502344Y-83150309D01*
X132472404Y-83136148D01*
X132443995Y-83119121D01*
X132417392Y-83099391D01*
X132392851Y-83077149D01*
X132370609Y-83052608D01*
X132350879Y-83026005D01*
X132333852Y-82997596D01*
X132319691Y-82967656D01*
X132308533Y-82936471D01*
X132300485Y-82904343D01*
X132295625Y-82871581D01*
X132294000Y-82838500D01*
X132294000Y-82063500D01*
X132295625Y-82030419D01*
X132300485Y-81997657D01*
X132308533Y-81965529D01*
X132319691Y-81934344D01*
X132333852Y-81904404D01*
X132350879Y-81875995D01*
X132370609Y-81849392D01*
X132392851Y-81824851D01*
X132417392Y-81802609D01*
X132443995Y-81782879D01*
X132472404Y-81765852D01*
X132502344Y-81751691D01*
X132533529Y-81740533D01*
X132565657Y-81732485D01*
X132598419Y-81727625D01*
X132631500Y-81726000D01*
X133306500Y-81726000D01*
X133339581Y-81727625D01*
X133339581Y-81727625D01*
G37*
D16*
X132969000Y-82451000D03*
G04 #@! TD*
D12*
G04 #@! TO.C,C38*
G36*
X133297692Y-85547061D02*
X133329151Y-85551727D01*
X133360000Y-85559454D01*
X133389944Y-85570169D01*
X133418694Y-85583766D01*
X133445972Y-85600116D01*
X133471517Y-85619061D01*
X133495081Y-85640419D01*
X133516439Y-85663983D01*
X133535384Y-85689528D01*
X133551734Y-85716806D01*
X133565331Y-85745556D01*
X133576046Y-85775500D01*
X133583773Y-85806349D01*
X133588439Y-85837808D01*
X133590000Y-85869573D01*
X133590000Y-87196427D01*
X133588439Y-87228192D01*
X133583773Y-87259651D01*
X133576046Y-87290500D01*
X133565331Y-87320444D01*
X133551734Y-87349194D01*
X133535384Y-87376472D01*
X133516439Y-87402017D01*
X133495081Y-87425581D01*
X133471517Y-87446939D01*
X133445972Y-87465884D01*
X133418694Y-87482234D01*
X133389944Y-87495831D01*
X133360000Y-87506546D01*
X133329151Y-87514273D01*
X133297692Y-87518939D01*
X133265927Y-87520500D01*
X132164073Y-87520500D01*
X132132308Y-87518939D01*
X132100849Y-87514273D01*
X132070000Y-87506546D01*
X132040056Y-87495831D01*
X132011306Y-87482234D01*
X131984028Y-87465884D01*
X131958483Y-87446939D01*
X131934919Y-87425581D01*
X131913561Y-87402017D01*
X131894616Y-87376472D01*
X131878266Y-87349194D01*
X131864669Y-87320444D01*
X131853954Y-87290500D01*
X131846227Y-87259651D01*
X131841561Y-87228192D01*
X131840000Y-87196427D01*
X131840000Y-85869573D01*
X131841561Y-85837808D01*
X131846227Y-85806349D01*
X131853954Y-85775500D01*
X131864669Y-85745556D01*
X131878266Y-85716806D01*
X131894616Y-85689528D01*
X131913561Y-85663983D01*
X131934919Y-85640419D01*
X131958483Y-85619061D01*
X131984028Y-85600116D01*
X132011306Y-85583766D01*
X132040056Y-85570169D01*
X132070000Y-85559454D01*
X132100849Y-85551727D01*
X132132308Y-85547061D01*
X132164073Y-85545500D01*
X133265927Y-85545500D01*
X133297692Y-85547061D01*
X133297692Y-85547061D01*
G37*
D20*
X132715000Y-86533000D03*
D12*
G36*
X133297692Y-88422061D02*
X133329151Y-88426727D01*
X133360000Y-88434454D01*
X133389944Y-88445169D01*
X133418694Y-88458766D01*
X133445972Y-88475116D01*
X133471517Y-88494061D01*
X133495081Y-88515419D01*
X133516439Y-88538983D01*
X133535384Y-88564528D01*
X133551734Y-88591806D01*
X133565331Y-88620556D01*
X133576046Y-88650500D01*
X133583773Y-88681349D01*
X133588439Y-88712808D01*
X133590000Y-88744573D01*
X133590000Y-90071427D01*
X133588439Y-90103192D01*
X133583773Y-90134651D01*
X133576046Y-90165500D01*
X133565331Y-90195444D01*
X133551734Y-90224194D01*
X133535384Y-90251472D01*
X133516439Y-90277017D01*
X133495081Y-90300581D01*
X133471517Y-90321939D01*
X133445972Y-90340884D01*
X133418694Y-90357234D01*
X133389944Y-90370831D01*
X133360000Y-90381546D01*
X133329151Y-90389273D01*
X133297692Y-90393939D01*
X133265927Y-90395500D01*
X132164073Y-90395500D01*
X132132308Y-90393939D01*
X132100849Y-90389273D01*
X132070000Y-90381546D01*
X132040056Y-90370831D01*
X132011306Y-90357234D01*
X131984028Y-90340884D01*
X131958483Y-90321939D01*
X131934919Y-90300581D01*
X131913561Y-90277017D01*
X131894616Y-90251472D01*
X131878266Y-90224194D01*
X131864669Y-90195444D01*
X131853954Y-90165500D01*
X131846227Y-90134651D01*
X131841561Y-90103192D01*
X131840000Y-90071427D01*
X131840000Y-88744573D01*
X131841561Y-88712808D01*
X131846227Y-88681349D01*
X131853954Y-88650500D01*
X131864669Y-88620556D01*
X131878266Y-88591806D01*
X131894616Y-88564528D01*
X131913561Y-88538983D01*
X131934919Y-88515419D01*
X131958483Y-88494061D01*
X131984028Y-88475116D01*
X132011306Y-88458766D01*
X132040056Y-88445169D01*
X132070000Y-88434454D01*
X132100849Y-88426727D01*
X132132308Y-88422061D01*
X132164073Y-88420500D01*
X133265927Y-88420500D01*
X133297692Y-88422061D01*
X133297692Y-88422061D01*
G37*
D20*
X132715000Y-89408000D03*
G04 #@! TD*
D21*
G04 #@! TO.C,J2*
X113550000Y-107900000D03*
D22*
X111550000Y-107900000D03*
G04 #@! TD*
D21*
G04 #@! TO.C,J3*
X99250000Y-107900000D03*
D22*
X97250000Y-107900000D03*
G04 #@! TD*
D23*
G04 #@! TO.C,J5*
X143200000Y-106500000D03*
D24*
X143200000Y-108500000D03*
G04 #@! TD*
D22*
G04 #@! TO.C,J8*
X104400000Y-107900000D03*
D21*
X106400000Y-107900000D03*
G04 #@! TD*
M02*
