G04 #@! TF.GenerationSoftware,KiCad,Pcbnew,(5.0.0-3-g5ebb6b6)*
G04 #@! TF.CreationDate,2019-05-19T23:28:32+02:00*
G04 #@! TF.ProjectId,Audio Board,417564696F20426F6172642E6B696361,rev?*
G04 #@! TF.SameCoordinates,Original*
G04 #@! TF.FileFunction,Paste,Top*
G04 #@! TF.FilePolarity,Positive*
%FSLAX46Y46*%
G04 Gerber Fmt 4.6, Leading zero omitted, Abs format (unit mm)*
G04 Created by KiCad (PCBNEW (5.0.0-3-g5ebb6b6)) date Sunday, 19 May 2019 at 23:28:32*
%MOMM*%
%LPD*%
G01*
G04 APERTURE LIST*
%ADD10C,0.100000*%
%ADD11C,0.950000*%
%ADD12R,1.500000X2.400000*%
%ADD13R,0.285000X1.000000*%
%ADD14C,1.150000*%
%ADD15R,1.600000X3.500000*%
%ADD16R,2.200000X1.500000*%
G04 APERTURE END LIST*
D10*
G04 #@! TO.C,U1*
X119242000Y-73756000D02*
X121042000Y-73756000D01*
X119242000Y-73856000D02*
X121042000Y-73856000D01*
X119242000Y-73956000D02*
X121042000Y-73956000D01*
X119242000Y-74056000D02*
X121042000Y-74056000D01*
X119242000Y-74156000D02*
X121042000Y-74156000D01*
X119242000Y-74256000D02*
X121042000Y-74256000D01*
X119242000Y-74356000D02*
X121042000Y-74356000D01*
X119242000Y-74456000D02*
X121042000Y-74456000D01*
X119242000Y-74556000D02*
X121042000Y-74556000D01*
X119242000Y-74656000D02*
X121042000Y-74656000D01*
X119242000Y-74756000D02*
X121042000Y-74756000D01*
X119242000Y-74856000D02*
X121042000Y-74856000D01*
X119242000Y-74956000D02*
X121042000Y-74956000D01*
X119242000Y-75056000D02*
X121042000Y-75056000D01*
X116992000Y-73756000D02*
X118742000Y-73756000D01*
X116992000Y-73856000D02*
X118742000Y-73856000D01*
X116992000Y-73956000D02*
X118742000Y-73956000D01*
X116992000Y-74056000D02*
X118742000Y-74056000D01*
X116992000Y-74156000D02*
X118742000Y-74156000D01*
X116992000Y-74256000D02*
X118742000Y-74256000D01*
X116992000Y-74356000D02*
X118742000Y-74356000D01*
X116992000Y-74456000D02*
X118742000Y-74456000D01*
X116992000Y-74556000D02*
X118692000Y-74556000D01*
X116992000Y-74656000D02*
X118742000Y-74656000D01*
X116992000Y-74756000D02*
X118742000Y-74756000D01*
X116992000Y-74856000D02*
X118742000Y-74856000D01*
X116992000Y-74956000D02*
X118742000Y-74956000D01*
X116992000Y-75056000D02*
X118742000Y-75056000D01*
X118742000Y-73656000D02*
X118742000Y-75156000D01*
X116992000Y-73656000D02*
X118742000Y-73656000D01*
X116992000Y-75156000D02*
X116992000Y-73656000D01*
X118742000Y-75156000D02*
X116992000Y-75156000D01*
X121042000Y-73656000D02*
X121042000Y-75156000D01*
X119242000Y-75156000D02*
X119242000Y-73656000D01*
X119242000Y-73656000D02*
X121042000Y-73656000D01*
X121042000Y-75156000D02*
X119242000Y-75156000D01*
X121542000Y-74956000D02*
X123292000Y-74956000D01*
X121542000Y-74556000D02*
X123242000Y-74556000D01*
X121542000Y-74456000D02*
X123292000Y-74456000D01*
X121542000Y-74356000D02*
X123292000Y-74356000D01*
X121542000Y-74256000D02*
X123292000Y-74256000D01*
X121542000Y-74156000D02*
X123292000Y-74156000D01*
X121542000Y-74056000D02*
X123292000Y-74056000D01*
X121542000Y-73956000D02*
X123292000Y-73956000D01*
X123292000Y-73656000D02*
X123292000Y-75156000D01*
X123292000Y-75156000D02*
X121542000Y-75156000D01*
X121542000Y-75056000D02*
X123292000Y-75056000D01*
X121542000Y-73856000D02*
X123292000Y-73856000D01*
X121542000Y-73756000D02*
X123292000Y-73756000D01*
X121542000Y-73656000D02*
X123292000Y-73656000D01*
X121542000Y-75156000D02*
X121542000Y-73656000D01*
X121542000Y-74856000D02*
X123292000Y-74856000D01*
X121542000Y-74756000D02*
X123292000Y-74756000D01*
X121542000Y-74656000D02*
X123292000Y-74656000D01*
X119242000Y-72956000D02*
X121042000Y-72956000D01*
X119242000Y-72556000D02*
X121042000Y-72556000D01*
X119242000Y-72456000D02*
X121042000Y-72456000D01*
X119242000Y-72356000D02*
X121042000Y-72356000D01*
X123292000Y-71656000D02*
X123292000Y-73156000D01*
X123292000Y-73156000D02*
X121542000Y-73156000D01*
X121542000Y-72956000D02*
X123292000Y-72956000D01*
X121542000Y-72856000D02*
X123292000Y-72856000D01*
X121542000Y-72156000D02*
X123292000Y-72156000D01*
X121542000Y-72056000D02*
X123292000Y-72056000D01*
X121542000Y-71756000D02*
X123292000Y-71756000D01*
X121542000Y-71856000D02*
X123292000Y-71856000D01*
X121542000Y-71956000D02*
X123292000Y-71956000D01*
X121542000Y-71656000D02*
X123292000Y-71656000D01*
X121542000Y-73156000D02*
X121542000Y-71656000D01*
X121542000Y-73056000D02*
X123292000Y-73056000D01*
X121542000Y-72756000D02*
X123292000Y-72756000D01*
X121542000Y-72256000D02*
X123292000Y-72256000D01*
X121542000Y-72456000D02*
X123292000Y-72456000D01*
X121542000Y-72556000D02*
X123242000Y-72556000D01*
X121542000Y-72356000D02*
X123292000Y-72356000D01*
X121542000Y-72656000D02*
X123292000Y-72656000D01*
X119242000Y-71656000D02*
X121042000Y-71656000D01*
X121042000Y-71656000D02*
X121042000Y-73156000D01*
X121042000Y-73156000D02*
X119242000Y-73156000D01*
X119242000Y-73056000D02*
X121042000Y-73056000D01*
X119242000Y-71856000D02*
X121042000Y-71856000D01*
X119242000Y-71756000D02*
X121042000Y-71756000D01*
X119242000Y-73156000D02*
X119242000Y-71656000D01*
X119242000Y-72856000D02*
X121042000Y-72856000D01*
X119242000Y-72756000D02*
X121042000Y-72756000D01*
X119242000Y-72656000D02*
X121042000Y-72656000D01*
X119242000Y-72256000D02*
X121042000Y-72256000D01*
X119242000Y-72156000D02*
X121042000Y-72156000D01*
X119242000Y-72056000D02*
X121042000Y-72056000D01*
X119242000Y-71956000D02*
X121042000Y-71956000D01*
X116992000Y-73156000D02*
X116992000Y-71656000D01*
X116992000Y-72956000D02*
X118742000Y-72956000D01*
X116992000Y-71756000D02*
X118742000Y-71756000D01*
X116992000Y-71656000D02*
X118742000Y-71656000D01*
X116992000Y-72156000D02*
X118742000Y-72156000D01*
X116992000Y-71856000D02*
X118742000Y-71856000D01*
X116992000Y-72056000D02*
X118742000Y-72056000D01*
X116992000Y-72256000D02*
X118742000Y-72256000D01*
X116992000Y-71956000D02*
X118742000Y-71956000D01*
X118742000Y-71656000D02*
X118742000Y-73156000D01*
X116992000Y-72856000D02*
X118742000Y-72856000D01*
X118742000Y-73156000D02*
X116992000Y-73156000D01*
X116992000Y-73056000D02*
X118742000Y-73056000D01*
X116992000Y-72756000D02*
X118742000Y-72756000D01*
X116992000Y-72356000D02*
X118742000Y-72356000D01*
X116992000Y-72456000D02*
X118742000Y-72456000D01*
X116992000Y-72656000D02*
X118742000Y-72656000D01*
X116992000Y-72556000D02*
X118692000Y-72556000D01*
G04 #@! TD*
G04 #@! TO.C,C27*
G36*
X141407779Y-76869144D02*
X141430834Y-76872563D01*
X141453443Y-76878227D01*
X141475387Y-76886079D01*
X141496457Y-76896044D01*
X141516448Y-76908026D01*
X141535168Y-76921910D01*
X141552438Y-76937562D01*
X141568090Y-76954832D01*
X141581974Y-76973552D01*
X141593956Y-76993543D01*
X141603921Y-77014613D01*
X141611773Y-77036557D01*
X141617437Y-77059166D01*
X141620856Y-77082221D01*
X141622000Y-77105500D01*
X141622000Y-77580500D01*
X141620856Y-77603779D01*
X141617437Y-77626834D01*
X141611773Y-77649443D01*
X141603921Y-77671387D01*
X141593956Y-77692457D01*
X141581974Y-77712448D01*
X141568090Y-77731168D01*
X141552438Y-77748438D01*
X141535168Y-77764090D01*
X141516448Y-77777974D01*
X141496457Y-77789956D01*
X141475387Y-77799921D01*
X141453443Y-77807773D01*
X141430834Y-77813437D01*
X141407779Y-77816856D01*
X141384500Y-77818000D01*
X140809500Y-77818000D01*
X140786221Y-77816856D01*
X140763166Y-77813437D01*
X140740557Y-77807773D01*
X140718613Y-77799921D01*
X140697543Y-77789956D01*
X140677552Y-77777974D01*
X140658832Y-77764090D01*
X140641562Y-77748438D01*
X140625910Y-77731168D01*
X140612026Y-77712448D01*
X140600044Y-77692457D01*
X140590079Y-77671387D01*
X140582227Y-77649443D01*
X140576563Y-77626834D01*
X140573144Y-77603779D01*
X140572000Y-77580500D01*
X140572000Y-77105500D01*
X140573144Y-77082221D01*
X140576563Y-77059166D01*
X140582227Y-77036557D01*
X140590079Y-77014613D01*
X140600044Y-76993543D01*
X140612026Y-76973552D01*
X140625910Y-76954832D01*
X140641562Y-76937562D01*
X140658832Y-76921910D01*
X140677552Y-76908026D01*
X140697543Y-76896044D01*
X140718613Y-76886079D01*
X140740557Y-76878227D01*
X140763166Y-76872563D01*
X140786221Y-76869144D01*
X140809500Y-76868000D01*
X141384500Y-76868000D01*
X141407779Y-76869144D01*
X141407779Y-76869144D01*
G37*
D11*
X141097000Y-77343000D03*
D10*
G36*
X143157779Y-76869144D02*
X143180834Y-76872563D01*
X143203443Y-76878227D01*
X143225387Y-76886079D01*
X143246457Y-76896044D01*
X143266448Y-76908026D01*
X143285168Y-76921910D01*
X143302438Y-76937562D01*
X143318090Y-76954832D01*
X143331974Y-76973552D01*
X143343956Y-76993543D01*
X143353921Y-77014613D01*
X143361773Y-77036557D01*
X143367437Y-77059166D01*
X143370856Y-77082221D01*
X143372000Y-77105500D01*
X143372000Y-77580500D01*
X143370856Y-77603779D01*
X143367437Y-77626834D01*
X143361773Y-77649443D01*
X143353921Y-77671387D01*
X143343956Y-77692457D01*
X143331974Y-77712448D01*
X143318090Y-77731168D01*
X143302438Y-77748438D01*
X143285168Y-77764090D01*
X143266448Y-77777974D01*
X143246457Y-77789956D01*
X143225387Y-77799921D01*
X143203443Y-77807773D01*
X143180834Y-77813437D01*
X143157779Y-77816856D01*
X143134500Y-77818000D01*
X142559500Y-77818000D01*
X142536221Y-77816856D01*
X142513166Y-77813437D01*
X142490557Y-77807773D01*
X142468613Y-77799921D01*
X142447543Y-77789956D01*
X142427552Y-77777974D01*
X142408832Y-77764090D01*
X142391562Y-77748438D01*
X142375910Y-77731168D01*
X142362026Y-77712448D01*
X142350044Y-77692457D01*
X142340079Y-77671387D01*
X142332227Y-77649443D01*
X142326563Y-77626834D01*
X142323144Y-77603779D01*
X142322000Y-77580500D01*
X142322000Y-77105500D01*
X142323144Y-77082221D01*
X142326563Y-77059166D01*
X142332227Y-77036557D01*
X142340079Y-77014613D01*
X142350044Y-76993543D01*
X142362026Y-76973552D01*
X142375910Y-76954832D01*
X142391562Y-76937562D01*
X142408832Y-76921910D01*
X142427552Y-76908026D01*
X142447543Y-76896044D01*
X142468613Y-76886079D01*
X142490557Y-76878227D01*
X142513166Y-76872563D01*
X142536221Y-76869144D01*
X142559500Y-76868000D01*
X143134500Y-76868000D01*
X143157779Y-76869144D01*
X143157779Y-76869144D01*
G37*
D11*
X142847000Y-77343000D03*
G04 #@! TD*
D12*
G04 #@! TO.C,L5*
X136740000Y-94234000D03*
X142240000Y-94234000D03*
G04 #@! TD*
D10*
G04 #@! TO.C,R1*
G36*
X141992779Y-64500144D02*
X142015834Y-64503563D01*
X142038443Y-64509227D01*
X142060387Y-64517079D01*
X142081457Y-64527044D01*
X142101448Y-64539026D01*
X142120168Y-64552910D01*
X142137438Y-64568562D01*
X142153090Y-64585832D01*
X142166974Y-64604552D01*
X142178956Y-64624543D01*
X142188921Y-64645613D01*
X142196773Y-64667557D01*
X142202437Y-64690166D01*
X142205856Y-64713221D01*
X142207000Y-64736500D01*
X142207000Y-65311500D01*
X142205856Y-65334779D01*
X142202437Y-65357834D01*
X142196773Y-65380443D01*
X142188921Y-65402387D01*
X142178956Y-65423457D01*
X142166974Y-65443448D01*
X142153090Y-65462168D01*
X142137438Y-65479438D01*
X142120168Y-65495090D01*
X142101448Y-65508974D01*
X142081457Y-65520956D01*
X142060387Y-65530921D01*
X142038443Y-65538773D01*
X142015834Y-65544437D01*
X141992779Y-65547856D01*
X141969500Y-65549000D01*
X141494500Y-65549000D01*
X141471221Y-65547856D01*
X141448166Y-65544437D01*
X141425557Y-65538773D01*
X141403613Y-65530921D01*
X141382543Y-65520956D01*
X141362552Y-65508974D01*
X141343832Y-65495090D01*
X141326562Y-65479438D01*
X141310910Y-65462168D01*
X141297026Y-65443448D01*
X141285044Y-65423457D01*
X141275079Y-65402387D01*
X141267227Y-65380443D01*
X141261563Y-65357834D01*
X141258144Y-65334779D01*
X141257000Y-65311500D01*
X141257000Y-64736500D01*
X141258144Y-64713221D01*
X141261563Y-64690166D01*
X141267227Y-64667557D01*
X141275079Y-64645613D01*
X141285044Y-64624543D01*
X141297026Y-64604552D01*
X141310910Y-64585832D01*
X141326562Y-64568562D01*
X141343832Y-64552910D01*
X141362552Y-64539026D01*
X141382543Y-64527044D01*
X141403613Y-64517079D01*
X141425557Y-64509227D01*
X141448166Y-64503563D01*
X141471221Y-64500144D01*
X141494500Y-64499000D01*
X141969500Y-64499000D01*
X141992779Y-64500144D01*
X141992779Y-64500144D01*
G37*
D11*
X141732000Y-65024000D03*
D10*
G36*
X141992779Y-66250144D02*
X142015834Y-66253563D01*
X142038443Y-66259227D01*
X142060387Y-66267079D01*
X142081457Y-66277044D01*
X142101448Y-66289026D01*
X142120168Y-66302910D01*
X142137438Y-66318562D01*
X142153090Y-66335832D01*
X142166974Y-66354552D01*
X142178956Y-66374543D01*
X142188921Y-66395613D01*
X142196773Y-66417557D01*
X142202437Y-66440166D01*
X142205856Y-66463221D01*
X142207000Y-66486500D01*
X142207000Y-67061500D01*
X142205856Y-67084779D01*
X142202437Y-67107834D01*
X142196773Y-67130443D01*
X142188921Y-67152387D01*
X142178956Y-67173457D01*
X142166974Y-67193448D01*
X142153090Y-67212168D01*
X142137438Y-67229438D01*
X142120168Y-67245090D01*
X142101448Y-67258974D01*
X142081457Y-67270956D01*
X142060387Y-67280921D01*
X142038443Y-67288773D01*
X142015834Y-67294437D01*
X141992779Y-67297856D01*
X141969500Y-67299000D01*
X141494500Y-67299000D01*
X141471221Y-67297856D01*
X141448166Y-67294437D01*
X141425557Y-67288773D01*
X141403613Y-67280921D01*
X141382543Y-67270956D01*
X141362552Y-67258974D01*
X141343832Y-67245090D01*
X141326562Y-67229438D01*
X141310910Y-67212168D01*
X141297026Y-67193448D01*
X141285044Y-67173457D01*
X141275079Y-67152387D01*
X141267227Y-67130443D01*
X141261563Y-67107834D01*
X141258144Y-67084779D01*
X141257000Y-67061500D01*
X141257000Y-66486500D01*
X141258144Y-66463221D01*
X141261563Y-66440166D01*
X141267227Y-66417557D01*
X141275079Y-66395613D01*
X141285044Y-66374543D01*
X141297026Y-66354552D01*
X141310910Y-66335832D01*
X141326562Y-66318562D01*
X141343832Y-66302910D01*
X141362552Y-66289026D01*
X141382543Y-66277044D01*
X141403613Y-66267079D01*
X141425557Y-66259227D01*
X141448166Y-66253563D01*
X141471221Y-66250144D01*
X141494500Y-66249000D01*
X141969500Y-66249000D01*
X141992779Y-66250144D01*
X141992779Y-66250144D01*
G37*
D11*
X141732000Y-66774000D03*
G04 #@! TD*
D10*
G04 #@! TO.C,R4*
G36*
X135184779Y-67344144D02*
X135207834Y-67347563D01*
X135230443Y-67353227D01*
X135252387Y-67361079D01*
X135273457Y-67371044D01*
X135293448Y-67383026D01*
X135312168Y-67396910D01*
X135329438Y-67412562D01*
X135345090Y-67429832D01*
X135358974Y-67448552D01*
X135370956Y-67468543D01*
X135380921Y-67489613D01*
X135388773Y-67511557D01*
X135394437Y-67534166D01*
X135397856Y-67557221D01*
X135399000Y-67580500D01*
X135399000Y-68055500D01*
X135397856Y-68078779D01*
X135394437Y-68101834D01*
X135388773Y-68124443D01*
X135380921Y-68146387D01*
X135370956Y-68167457D01*
X135358974Y-68187448D01*
X135345090Y-68206168D01*
X135329438Y-68223438D01*
X135312168Y-68239090D01*
X135293448Y-68252974D01*
X135273457Y-68264956D01*
X135252387Y-68274921D01*
X135230443Y-68282773D01*
X135207834Y-68288437D01*
X135184779Y-68291856D01*
X135161500Y-68293000D01*
X134586500Y-68293000D01*
X134563221Y-68291856D01*
X134540166Y-68288437D01*
X134517557Y-68282773D01*
X134495613Y-68274921D01*
X134474543Y-68264956D01*
X134454552Y-68252974D01*
X134435832Y-68239090D01*
X134418562Y-68223438D01*
X134402910Y-68206168D01*
X134389026Y-68187448D01*
X134377044Y-68167457D01*
X134367079Y-68146387D01*
X134359227Y-68124443D01*
X134353563Y-68101834D01*
X134350144Y-68078779D01*
X134349000Y-68055500D01*
X134349000Y-67580500D01*
X134350144Y-67557221D01*
X134353563Y-67534166D01*
X134359227Y-67511557D01*
X134367079Y-67489613D01*
X134377044Y-67468543D01*
X134389026Y-67448552D01*
X134402910Y-67429832D01*
X134418562Y-67412562D01*
X134435832Y-67396910D01*
X134454552Y-67383026D01*
X134474543Y-67371044D01*
X134495613Y-67361079D01*
X134517557Y-67353227D01*
X134540166Y-67347563D01*
X134563221Y-67344144D01*
X134586500Y-67343000D01*
X135161500Y-67343000D01*
X135184779Y-67344144D01*
X135184779Y-67344144D01*
G37*
D11*
X134874000Y-67818000D03*
D10*
G36*
X133434779Y-67344144D02*
X133457834Y-67347563D01*
X133480443Y-67353227D01*
X133502387Y-67361079D01*
X133523457Y-67371044D01*
X133543448Y-67383026D01*
X133562168Y-67396910D01*
X133579438Y-67412562D01*
X133595090Y-67429832D01*
X133608974Y-67448552D01*
X133620956Y-67468543D01*
X133630921Y-67489613D01*
X133638773Y-67511557D01*
X133644437Y-67534166D01*
X133647856Y-67557221D01*
X133649000Y-67580500D01*
X133649000Y-68055500D01*
X133647856Y-68078779D01*
X133644437Y-68101834D01*
X133638773Y-68124443D01*
X133630921Y-68146387D01*
X133620956Y-68167457D01*
X133608974Y-68187448D01*
X133595090Y-68206168D01*
X133579438Y-68223438D01*
X133562168Y-68239090D01*
X133543448Y-68252974D01*
X133523457Y-68264956D01*
X133502387Y-68274921D01*
X133480443Y-68282773D01*
X133457834Y-68288437D01*
X133434779Y-68291856D01*
X133411500Y-68293000D01*
X132836500Y-68293000D01*
X132813221Y-68291856D01*
X132790166Y-68288437D01*
X132767557Y-68282773D01*
X132745613Y-68274921D01*
X132724543Y-68264956D01*
X132704552Y-68252974D01*
X132685832Y-68239090D01*
X132668562Y-68223438D01*
X132652910Y-68206168D01*
X132639026Y-68187448D01*
X132627044Y-68167457D01*
X132617079Y-68146387D01*
X132609227Y-68124443D01*
X132603563Y-68101834D01*
X132600144Y-68078779D01*
X132599000Y-68055500D01*
X132599000Y-67580500D01*
X132600144Y-67557221D01*
X132603563Y-67534166D01*
X132609227Y-67511557D01*
X132617079Y-67489613D01*
X132627044Y-67468543D01*
X132639026Y-67448552D01*
X132652910Y-67429832D01*
X132668562Y-67412562D01*
X132685832Y-67396910D01*
X132704552Y-67383026D01*
X132724543Y-67371044D01*
X132745613Y-67361079D01*
X132767557Y-67353227D01*
X132790166Y-67347563D01*
X132813221Y-67344144D01*
X132836500Y-67343000D01*
X133411500Y-67343000D01*
X133434779Y-67344144D01*
X133434779Y-67344144D01*
G37*
D11*
X133124000Y-67818000D03*
G04 #@! TD*
D10*
G04 #@! TO.C,R5*
G36*
X133434779Y-65693144D02*
X133457834Y-65696563D01*
X133480443Y-65702227D01*
X133502387Y-65710079D01*
X133523457Y-65720044D01*
X133543448Y-65732026D01*
X133562168Y-65745910D01*
X133579438Y-65761562D01*
X133595090Y-65778832D01*
X133608974Y-65797552D01*
X133620956Y-65817543D01*
X133630921Y-65838613D01*
X133638773Y-65860557D01*
X133644437Y-65883166D01*
X133647856Y-65906221D01*
X133649000Y-65929500D01*
X133649000Y-66404500D01*
X133647856Y-66427779D01*
X133644437Y-66450834D01*
X133638773Y-66473443D01*
X133630921Y-66495387D01*
X133620956Y-66516457D01*
X133608974Y-66536448D01*
X133595090Y-66555168D01*
X133579438Y-66572438D01*
X133562168Y-66588090D01*
X133543448Y-66601974D01*
X133523457Y-66613956D01*
X133502387Y-66623921D01*
X133480443Y-66631773D01*
X133457834Y-66637437D01*
X133434779Y-66640856D01*
X133411500Y-66642000D01*
X132836500Y-66642000D01*
X132813221Y-66640856D01*
X132790166Y-66637437D01*
X132767557Y-66631773D01*
X132745613Y-66623921D01*
X132724543Y-66613956D01*
X132704552Y-66601974D01*
X132685832Y-66588090D01*
X132668562Y-66572438D01*
X132652910Y-66555168D01*
X132639026Y-66536448D01*
X132627044Y-66516457D01*
X132617079Y-66495387D01*
X132609227Y-66473443D01*
X132603563Y-66450834D01*
X132600144Y-66427779D01*
X132599000Y-66404500D01*
X132599000Y-65929500D01*
X132600144Y-65906221D01*
X132603563Y-65883166D01*
X132609227Y-65860557D01*
X132617079Y-65838613D01*
X132627044Y-65817543D01*
X132639026Y-65797552D01*
X132652910Y-65778832D01*
X132668562Y-65761562D01*
X132685832Y-65745910D01*
X132704552Y-65732026D01*
X132724543Y-65720044D01*
X132745613Y-65710079D01*
X132767557Y-65702227D01*
X132790166Y-65696563D01*
X132813221Y-65693144D01*
X132836500Y-65692000D01*
X133411500Y-65692000D01*
X133434779Y-65693144D01*
X133434779Y-65693144D01*
G37*
D11*
X133124000Y-66167000D03*
D10*
G36*
X135184779Y-65693144D02*
X135207834Y-65696563D01*
X135230443Y-65702227D01*
X135252387Y-65710079D01*
X135273457Y-65720044D01*
X135293448Y-65732026D01*
X135312168Y-65745910D01*
X135329438Y-65761562D01*
X135345090Y-65778832D01*
X135358974Y-65797552D01*
X135370956Y-65817543D01*
X135380921Y-65838613D01*
X135388773Y-65860557D01*
X135394437Y-65883166D01*
X135397856Y-65906221D01*
X135399000Y-65929500D01*
X135399000Y-66404500D01*
X135397856Y-66427779D01*
X135394437Y-66450834D01*
X135388773Y-66473443D01*
X135380921Y-66495387D01*
X135370956Y-66516457D01*
X135358974Y-66536448D01*
X135345090Y-66555168D01*
X135329438Y-66572438D01*
X135312168Y-66588090D01*
X135293448Y-66601974D01*
X135273457Y-66613956D01*
X135252387Y-66623921D01*
X135230443Y-66631773D01*
X135207834Y-66637437D01*
X135184779Y-66640856D01*
X135161500Y-66642000D01*
X134586500Y-66642000D01*
X134563221Y-66640856D01*
X134540166Y-66637437D01*
X134517557Y-66631773D01*
X134495613Y-66623921D01*
X134474543Y-66613956D01*
X134454552Y-66601974D01*
X134435832Y-66588090D01*
X134418562Y-66572438D01*
X134402910Y-66555168D01*
X134389026Y-66536448D01*
X134377044Y-66516457D01*
X134367079Y-66495387D01*
X134359227Y-66473443D01*
X134353563Y-66450834D01*
X134350144Y-66427779D01*
X134349000Y-66404500D01*
X134349000Y-65929500D01*
X134350144Y-65906221D01*
X134353563Y-65883166D01*
X134359227Y-65860557D01*
X134367079Y-65838613D01*
X134377044Y-65817543D01*
X134389026Y-65797552D01*
X134402910Y-65778832D01*
X134418562Y-65761562D01*
X134435832Y-65745910D01*
X134454552Y-65732026D01*
X134474543Y-65720044D01*
X134495613Y-65710079D01*
X134517557Y-65702227D01*
X134540166Y-65696563D01*
X134563221Y-65693144D01*
X134586500Y-65692000D01*
X135161500Y-65692000D01*
X135184779Y-65693144D01*
X135184779Y-65693144D01*
G37*
D11*
X134874000Y-66167000D03*
G04 #@! TD*
D13*
G04 #@! TO.C,U1*
X114392000Y-77156000D03*
X114892000Y-77156000D03*
X115392000Y-77156000D03*
X115892000Y-77156000D03*
X116392000Y-77156000D03*
X116892000Y-77156000D03*
X117392000Y-77156000D03*
X117892000Y-77156000D03*
X118392000Y-77156000D03*
X118892000Y-77156000D03*
X119392000Y-77156000D03*
X119892000Y-77156000D03*
X120392000Y-77156000D03*
X120892000Y-77156000D03*
X121392000Y-77156000D03*
X121892000Y-77156000D03*
X122392000Y-77156000D03*
X122892000Y-77156000D03*
X123392000Y-77156000D03*
X123892000Y-77156000D03*
X124392000Y-77156000D03*
X124892000Y-77156000D03*
X125392000Y-77156000D03*
X125892000Y-77156000D03*
X125892000Y-69656000D03*
X125392000Y-69656000D03*
X124892000Y-69656000D03*
X124392000Y-69656000D03*
X123892000Y-69656000D03*
X123392000Y-69656000D03*
X122892000Y-69656000D03*
X122392000Y-69656000D03*
X121892000Y-69656000D03*
X121392000Y-69656000D03*
X120892000Y-69656000D03*
X120392000Y-69656000D03*
X119892000Y-69656000D03*
X119392000Y-69656000D03*
X118892000Y-69656000D03*
X118392000Y-69656000D03*
X117892000Y-69656000D03*
X117392000Y-69656000D03*
X116892000Y-69656000D03*
X116392000Y-69656000D03*
X115892000Y-69656000D03*
X115392000Y-69656000D03*
X114892000Y-69656000D03*
X114392000Y-69656000D03*
G04 #@! TD*
D10*
G04 #@! TO.C,C1*
G36*
X99342779Y-76742144D02*
X99365834Y-76745563D01*
X99388443Y-76751227D01*
X99410387Y-76759079D01*
X99431457Y-76769044D01*
X99451448Y-76781026D01*
X99470168Y-76794910D01*
X99487438Y-76810562D01*
X99503090Y-76827832D01*
X99516974Y-76846552D01*
X99528956Y-76866543D01*
X99538921Y-76887613D01*
X99546773Y-76909557D01*
X99552437Y-76932166D01*
X99555856Y-76955221D01*
X99557000Y-76978500D01*
X99557000Y-77453500D01*
X99555856Y-77476779D01*
X99552437Y-77499834D01*
X99546773Y-77522443D01*
X99538921Y-77544387D01*
X99528956Y-77565457D01*
X99516974Y-77585448D01*
X99503090Y-77604168D01*
X99487438Y-77621438D01*
X99470168Y-77637090D01*
X99451448Y-77650974D01*
X99431457Y-77662956D01*
X99410387Y-77672921D01*
X99388443Y-77680773D01*
X99365834Y-77686437D01*
X99342779Y-77689856D01*
X99319500Y-77691000D01*
X98744500Y-77691000D01*
X98721221Y-77689856D01*
X98698166Y-77686437D01*
X98675557Y-77680773D01*
X98653613Y-77672921D01*
X98632543Y-77662956D01*
X98612552Y-77650974D01*
X98593832Y-77637090D01*
X98576562Y-77621438D01*
X98560910Y-77604168D01*
X98547026Y-77585448D01*
X98535044Y-77565457D01*
X98525079Y-77544387D01*
X98517227Y-77522443D01*
X98511563Y-77499834D01*
X98508144Y-77476779D01*
X98507000Y-77453500D01*
X98507000Y-76978500D01*
X98508144Y-76955221D01*
X98511563Y-76932166D01*
X98517227Y-76909557D01*
X98525079Y-76887613D01*
X98535044Y-76866543D01*
X98547026Y-76846552D01*
X98560910Y-76827832D01*
X98576562Y-76810562D01*
X98593832Y-76794910D01*
X98612552Y-76781026D01*
X98632543Y-76769044D01*
X98653613Y-76759079D01*
X98675557Y-76751227D01*
X98698166Y-76745563D01*
X98721221Y-76742144D01*
X98744500Y-76741000D01*
X99319500Y-76741000D01*
X99342779Y-76742144D01*
X99342779Y-76742144D01*
G37*
D11*
X99032000Y-77216000D03*
D10*
G36*
X97592779Y-76742144D02*
X97615834Y-76745563D01*
X97638443Y-76751227D01*
X97660387Y-76759079D01*
X97681457Y-76769044D01*
X97701448Y-76781026D01*
X97720168Y-76794910D01*
X97737438Y-76810562D01*
X97753090Y-76827832D01*
X97766974Y-76846552D01*
X97778956Y-76866543D01*
X97788921Y-76887613D01*
X97796773Y-76909557D01*
X97802437Y-76932166D01*
X97805856Y-76955221D01*
X97807000Y-76978500D01*
X97807000Y-77453500D01*
X97805856Y-77476779D01*
X97802437Y-77499834D01*
X97796773Y-77522443D01*
X97788921Y-77544387D01*
X97778956Y-77565457D01*
X97766974Y-77585448D01*
X97753090Y-77604168D01*
X97737438Y-77621438D01*
X97720168Y-77637090D01*
X97701448Y-77650974D01*
X97681457Y-77662956D01*
X97660387Y-77672921D01*
X97638443Y-77680773D01*
X97615834Y-77686437D01*
X97592779Y-77689856D01*
X97569500Y-77691000D01*
X96994500Y-77691000D01*
X96971221Y-77689856D01*
X96948166Y-77686437D01*
X96925557Y-77680773D01*
X96903613Y-77672921D01*
X96882543Y-77662956D01*
X96862552Y-77650974D01*
X96843832Y-77637090D01*
X96826562Y-77621438D01*
X96810910Y-77604168D01*
X96797026Y-77585448D01*
X96785044Y-77565457D01*
X96775079Y-77544387D01*
X96767227Y-77522443D01*
X96761563Y-77499834D01*
X96758144Y-77476779D01*
X96757000Y-77453500D01*
X96757000Y-76978500D01*
X96758144Y-76955221D01*
X96761563Y-76932166D01*
X96767227Y-76909557D01*
X96775079Y-76887613D01*
X96785044Y-76866543D01*
X96797026Y-76846552D01*
X96810910Y-76827832D01*
X96826562Y-76810562D01*
X96843832Y-76794910D01*
X96862552Y-76781026D01*
X96882543Y-76769044D01*
X96903613Y-76759079D01*
X96925557Y-76751227D01*
X96948166Y-76745563D01*
X96971221Y-76742144D01*
X96994500Y-76741000D01*
X97569500Y-76741000D01*
X97592779Y-76742144D01*
X97592779Y-76742144D01*
G37*
D11*
X97282000Y-77216000D03*
G04 #@! TD*
D10*
G04 #@! TO.C,C2*
G36*
X110329505Y-92644204D02*
X110353773Y-92647804D01*
X110377572Y-92653765D01*
X110400671Y-92662030D01*
X110422850Y-92672520D01*
X110443893Y-92685132D01*
X110463599Y-92699747D01*
X110481777Y-92716223D01*
X110498253Y-92734401D01*
X110512868Y-92754107D01*
X110525480Y-92775150D01*
X110535970Y-92797329D01*
X110544235Y-92820428D01*
X110550196Y-92844227D01*
X110553796Y-92868495D01*
X110555000Y-92892999D01*
X110555000Y-93543001D01*
X110553796Y-93567505D01*
X110550196Y-93591773D01*
X110544235Y-93615572D01*
X110535970Y-93638671D01*
X110525480Y-93660850D01*
X110512868Y-93681893D01*
X110498253Y-93701599D01*
X110481777Y-93719777D01*
X110463599Y-93736253D01*
X110443893Y-93750868D01*
X110422850Y-93763480D01*
X110400671Y-93773970D01*
X110377572Y-93782235D01*
X110353773Y-93788196D01*
X110329505Y-93791796D01*
X110305001Y-93793000D01*
X109404999Y-93793000D01*
X109380495Y-93791796D01*
X109356227Y-93788196D01*
X109332428Y-93782235D01*
X109309329Y-93773970D01*
X109287150Y-93763480D01*
X109266107Y-93750868D01*
X109246401Y-93736253D01*
X109228223Y-93719777D01*
X109211747Y-93701599D01*
X109197132Y-93681893D01*
X109184520Y-93660850D01*
X109174030Y-93638671D01*
X109165765Y-93615572D01*
X109159804Y-93591773D01*
X109156204Y-93567505D01*
X109155000Y-93543001D01*
X109155000Y-92892999D01*
X109156204Y-92868495D01*
X109159804Y-92844227D01*
X109165765Y-92820428D01*
X109174030Y-92797329D01*
X109184520Y-92775150D01*
X109197132Y-92754107D01*
X109211747Y-92734401D01*
X109228223Y-92716223D01*
X109246401Y-92699747D01*
X109266107Y-92685132D01*
X109287150Y-92672520D01*
X109309329Y-92662030D01*
X109332428Y-92653765D01*
X109356227Y-92647804D01*
X109380495Y-92644204D01*
X109404999Y-92643000D01*
X110305001Y-92643000D01*
X110329505Y-92644204D01*
X110329505Y-92644204D01*
G37*
D14*
X109855000Y-93218000D03*
D10*
G36*
X110329505Y-94694204D02*
X110353773Y-94697804D01*
X110377572Y-94703765D01*
X110400671Y-94712030D01*
X110422850Y-94722520D01*
X110443893Y-94735132D01*
X110463599Y-94749747D01*
X110481777Y-94766223D01*
X110498253Y-94784401D01*
X110512868Y-94804107D01*
X110525480Y-94825150D01*
X110535970Y-94847329D01*
X110544235Y-94870428D01*
X110550196Y-94894227D01*
X110553796Y-94918495D01*
X110555000Y-94942999D01*
X110555000Y-95593001D01*
X110553796Y-95617505D01*
X110550196Y-95641773D01*
X110544235Y-95665572D01*
X110535970Y-95688671D01*
X110525480Y-95710850D01*
X110512868Y-95731893D01*
X110498253Y-95751599D01*
X110481777Y-95769777D01*
X110463599Y-95786253D01*
X110443893Y-95800868D01*
X110422850Y-95813480D01*
X110400671Y-95823970D01*
X110377572Y-95832235D01*
X110353773Y-95838196D01*
X110329505Y-95841796D01*
X110305001Y-95843000D01*
X109404999Y-95843000D01*
X109380495Y-95841796D01*
X109356227Y-95838196D01*
X109332428Y-95832235D01*
X109309329Y-95823970D01*
X109287150Y-95813480D01*
X109266107Y-95800868D01*
X109246401Y-95786253D01*
X109228223Y-95769777D01*
X109211747Y-95751599D01*
X109197132Y-95731893D01*
X109184520Y-95710850D01*
X109174030Y-95688671D01*
X109165765Y-95665572D01*
X109159804Y-95641773D01*
X109156204Y-95617505D01*
X109155000Y-95593001D01*
X109155000Y-94942999D01*
X109156204Y-94918495D01*
X109159804Y-94894227D01*
X109165765Y-94870428D01*
X109174030Y-94847329D01*
X109184520Y-94825150D01*
X109197132Y-94804107D01*
X109211747Y-94784401D01*
X109228223Y-94766223D01*
X109246401Y-94749747D01*
X109266107Y-94735132D01*
X109287150Y-94722520D01*
X109309329Y-94712030D01*
X109332428Y-94703765D01*
X109356227Y-94697804D01*
X109380495Y-94694204D01*
X109404999Y-94693000D01*
X110305001Y-94693000D01*
X110329505Y-94694204D01*
X110329505Y-94694204D01*
G37*
D14*
X109855000Y-95268000D03*
G04 #@! TD*
D15*
G04 #@! TO.C,C3*
X101092000Y-75377000D03*
X101092000Y-69977000D03*
G04 #@! TD*
D10*
G04 #@! TO.C,R3*
G36*
X101860779Y-85455144D02*
X101883834Y-85458563D01*
X101906443Y-85464227D01*
X101928387Y-85472079D01*
X101949457Y-85482044D01*
X101969448Y-85494026D01*
X101988168Y-85507910D01*
X102005438Y-85523562D01*
X102021090Y-85540832D01*
X102034974Y-85559552D01*
X102046956Y-85579543D01*
X102056921Y-85600613D01*
X102064773Y-85622557D01*
X102070437Y-85645166D01*
X102073856Y-85668221D01*
X102075000Y-85691500D01*
X102075000Y-86266500D01*
X102073856Y-86289779D01*
X102070437Y-86312834D01*
X102064773Y-86335443D01*
X102056921Y-86357387D01*
X102046956Y-86378457D01*
X102034974Y-86398448D01*
X102021090Y-86417168D01*
X102005438Y-86434438D01*
X101988168Y-86450090D01*
X101969448Y-86463974D01*
X101949457Y-86475956D01*
X101928387Y-86485921D01*
X101906443Y-86493773D01*
X101883834Y-86499437D01*
X101860779Y-86502856D01*
X101837500Y-86504000D01*
X101362500Y-86504000D01*
X101339221Y-86502856D01*
X101316166Y-86499437D01*
X101293557Y-86493773D01*
X101271613Y-86485921D01*
X101250543Y-86475956D01*
X101230552Y-86463974D01*
X101211832Y-86450090D01*
X101194562Y-86434438D01*
X101178910Y-86417168D01*
X101165026Y-86398448D01*
X101153044Y-86378457D01*
X101143079Y-86357387D01*
X101135227Y-86335443D01*
X101129563Y-86312834D01*
X101126144Y-86289779D01*
X101125000Y-86266500D01*
X101125000Y-85691500D01*
X101126144Y-85668221D01*
X101129563Y-85645166D01*
X101135227Y-85622557D01*
X101143079Y-85600613D01*
X101153044Y-85579543D01*
X101165026Y-85559552D01*
X101178910Y-85540832D01*
X101194562Y-85523562D01*
X101211832Y-85507910D01*
X101230552Y-85494026D01*
X101250543Y-85482044D01*
X101271613Y-85472079D01*
X101293557Y-85464227D01*
X101316166Y-85458563D01*
X101339221Y-85455144D01*
X101362500Y-85454000D01*
X101837500Y-85454000D01*
X101860779Y-85455144D01*
X101860779Y-85455144D01*
G37*
D11*
X101600000Y-85979000D03*
D10*
G36*
X101860779Y-83705144D02*
X101883834Y-83708563D01*
X101906443Y-83714227D01*
X101928387Y-83722079D01*
X101949457Y-83732044D01*
X101969448Y-83744026D01*
X101988168Y-83757910D01*
X102005438Y-83773562D01*
X102021090Y-83790832D01*
X102034974Y-83809552D01*
X102046956Y-83829543D01*
X102056921Y-83850613D01*
X102064773Y-83872557D01*
X102070437Y-83895166D01*
X102073856Y-83918221D01*
X102075000Y-83941500D01*
X102075000Y-84516500D01*
X102073856Y-84539779D01*
X102070437Y-84562834D01*
X102064773Y-84585443D01*
X102056921Y-84607387D01*
X102046956Y-84628457D01*
X102034974Y-84648448D01*
X102021090Y-84667168D01*
X102005438Y-84684438D01*
X101988168Y-84700090D01*
X101969448Y-84713974D01*
X101949457Y-84725956D01*
X101928387Y-84735921D01*
X101906443Y-84743773D01*
X101883834Y-84749437D01*
X101860779Y-84752856D01*
X101837500Y-84754000D01*
X101362500Y-84754000D01*
X101339221Y-84752856D01*
X101316166Y-84749437D01*
X101293557Y-84743773D01*
X101271613Y-84735921D01*
X101250543Y-84725956D01*
X101230552Y-84713974D01*
X101211832Y-84700090D01*
X101194562Y-84684438D01*
X101178910Y-84667168D01*
X101165026Y-84648448D01*
X101153044Y-84628457D01*
X101143079Y-84607387D01*
X101135227Y-84585443D01*
X101129563Y-84562834D01*
X101126144Y-84539779D01*
X101125000Y-84516500D01*
X101125000Y-83941500D01*
X101126144Y-83918221D01*
X101129563Y-83895166D01*
X101135227Y-83872557D01*
X101143079Y-83850613D01*
X101153044Y-83829543D01*
X101165026Y-83809552D01*
X101178910Y-83790832D01*
X101194562Y-83773562D01*
X101211832Y-83757910D01*
X101230552Y-83744026D01*
X101250543Y-83732044D01*
X101271613Y-83722079D01*
X101293557Y-83714227D01*
X101316166Y-83708563D01*
X101339221Y-83705144D01*
X101362500Y-83704000D01*
X101837500Y-83704000D01*
X101860779Y-83705144D01*
X101860779Y-83705144D01*
G37*
D11*
X101600000Y-84229000D03*
G04 #@! TD*
D10*
G04 #@! TO.C,R6*
G36*
X119386779Y-83705144D02*
X119409834Y-83708563D01*
X119432443Y-83714227D01*
X119454387Y-83722079D01*
X119475457Y-83732044D01*
X119495448Y-83744026D01*
X119514168Y-83757910D01*
X119531438Y-83773562D01*
X119547090Y-83790832D01*
X119560974Y-83809552D01*
X119572956Y-83829543D01*
X119582921Y-83850613D01*
X119590773Y-83872557D01*
X119596437Y-83895166D01*
X119599856Y-83918221D01*
X119601000Y-83941500D01*
X119601000Y-84516500D01*
X119599856Y-84539779D01*
X119596437Y-84562834D01*
X119590773Y-84585443D01*
X119582921Y-84607387D01*
X119572956Y-84628457D01*
X119560974Y-84648448D01*
X119547090Y-84667168D01*
X119531438Y-84684438D01*
X119514168Y-84700090D01*
X119495448Y-84713974D01*
X119475457Y-84725956D01*
X119454387Y-84735921D01*
X119432443Y-84743773D01*
X119409834Y-84749437D01*
X119386779Y-84752856D01*
X119363500Y-84754000D01*
X118888500Y-84754000D01*
X118865221Y-84752856D01*
X118842166Y-84749437D01*
X118819557Y-84743773D01*
X118797613Y-84735921D01*
X118776543Y-84725956D01*
X118756552Y-84713974D01*
X118737832Y-84700090D01*
X118720562Y-84684438D01*
X118704910Y-84667168D01*
X118691026Y-84648448D01*
X118679044Y-84628457D01*
X118669079Y-84607387D01*
X118661227Y-84585443D01*
X118655563Y-84562834D01*
X118652144Y-84539779D01*
X118651000Y-84516500D01*
X118651000Y-83941500D01*
X118652144Y-83918221D01*
X118655563Y-83895166D01*
X118661227Y-83872557D01*
X118669079Y-83850613D01*
X118679044Y-83829543D01*
X118691026Y-83809552D01*
X118704910Y-83790832D01*
X118720562Y-83773562D01*
X118737832Y-83757910D01*
X118756552Y-83744026D01*
X118776543Y-83732044D01*
X118797613Y-83722079D01*
X118819557Y-83714227D01*
X118842166Y-83708563D01*
X118865221Y-83705144D01*
X118888500Y-83704000D01*
X119363500Y-83704000D01*
X119386779Y-83705144D01*
X119386779Y-83705144D01*
G37*
D11*
X119126000Y-84229000D03*
D10*
G36*
X119386779Y-85455144D02*
X119409834Y-85458563D01*
X119432443Y-85464227D01*
X119454387Y-85472079D01*
X119475457Y-85482044D01*
X119495448Y-85494026D01*
X119514168Y-85507910D01*
X119531438Y-85523562D01*
X119547090Y-85540832D01*
X119560974Y-85559552D01*
X119572956Y-85579543D01*
X119582921Y-85600613D01*
X119590773Y-85622557D01*
X119596437Y-85645166D01*
X119599856Y-85668221D01*
X119601000Y-85691500D01*
X119601000Y-86266500D01*
X119599856Y-86289779D01*
X119596437Y-86312834D01*
X119590773Y-86335443D01*
X119582921Y-86357387D01*
X119572956Y-86378457D01*
X119560974Y-86398448D01*
X119547090Y-86417168D01*
X119531438Y-86434438D01*
X119514168Y-86450090D01*
X119495448Y-86463974D01*
X119475457Y-86475956D01*
X119454387Y-86485921D01*
X119432443Y-86493773D01*
X119409834Y-86499437D01*
X119386779Y-86502856D01*
X119363500Y-86504000D01*
X118888500Y-86504000D01*
X118865221Y-86502856D01*
X118842166Y-86499437D01*
X118819557Y-86493773D01*
X118797613Y-86485921D01*
X118776543Y-86475956D01*
X118756552Y-86463974D01*
X118737832Y-86450090D01*
X118720562Y-86434438D01*
X118704910Y-86417168D01*
X118691026Y-86398448D01*
X118679044Y-86378457D01*
X118669079Y-86357387D01*
X118661227Y-86335443D01*
X118655563Y-86312834D01*
X118652144Y-86289779D01*
X118651000Y-86266500D01*
X118651000Y-85691500D01*
X118652144Y-85668221D01*
X118655563Y-85645166D01*
X118661227Y-85622557D01*
X118669079Y-85600613D01*
X118679044Y-85579543D01*
X118691026Y-85559552D01*
X118704910Y-85540832D01*
X118720562Y-85523562D01*
X118737832Y-85507910D01*
X118756552Y-85494026D01*
X118776543Y-85482044D01*
X118797613Y-85472079D01*
X118819557Y-85464227D01*
X118842166Y-85458563D01*
X118865221Y-85455144D01*
X118888500Y-85454000D01*
X119363500Y-85454000D01*
X119386779Y-85455144D01*
X119386779Y-85455144D01*
G37*
D11*
X119126000Y-85979000D03*
G04 #@! TD*
D10*
G04 #@! TO.C,R7*
G36*
X110242779Y-75323144D02*
X110265834Y-75326563D01*
X110288443Y-75332227D01*
X110310387Y-75340079D01*
X110331457Y-75350044D01*
X110351448Y-75362026D01*
X110370168Y-75375910D01*
X110387438Y-75391562D01*
X110403090Y-75408832D01*
X110416974Y-75427552D01*
X110428956Y-75447543D01*
X110438921Y-75468613D01*
X110446773Y-75490557D01*
X110452437Y-75513166D01*
X110455856Y-75536221D01*
X110457000Y-75559500D01*
X110457000Y-76134500D01*
X110455856Y-76157779D01*
X110452437Y-76180834D01*
X110446773Y-76203443D01*
X110438921Y-76225387D01*
X110428956Y-76246457D01*
X110416974Y-76266448D01*
X110403090Y-76285168D01*
X110387438Y-76302438D01*
X110370168Y-76318090D01*
X110351448Y-76331974D01*
X110331457Y-76343956D01*
X110310387Y-76353921D01*
X110288443Y-76361773D01*
X110265834Y-76367437D01*
X110242779Y-76370856D01*
X110219500Y-76372000D01*
X109744500Y-76372000D01*
X109721221Y-76370856D01*
X109698166Y-76367437D01*
X109675557Y-76361773D01*
X109653613Y-76353921D01*
X109632543Y-76343956D01*
X109612552Y-76331974D01*
X109593832Y-76318090D01*
X109576562Y-76302438D01*
X109560910Y-76285168D01*
X109547026Y-76266448D01*
X109535044Y-76246457D01*
X109525079Y-76225387D01*
X109517227Y-76203443D01*
X109511563Y-76180834D01*
X109508144Y-76157779D01*
X109507000Y-76134500D01*
X109507000Y-75559500D01*
X109508144Y-75536221D01*
X109511563Y-75513166D01*
X109517227Y-75490557D01*
X109525079Y-75468613D01*
X109535044Y-75447543D01*
X109547026Y-75427552D01*
X109560910Y-75408832D01*
X109576562Y-75391562D01*
X109593832Y-75375910D01*
X109612552Y-75362026D01*
X109632543Y-75350044D01*
X109653613Y-75340079D01*
X109675557Y-75332227D01*
X109698166Y-75326563D01*
X109721221Y-75323144D01*
X109744500Y-75322000D01*
X110219500Y-75322000D01*
X110242779Y-75323144D01*
X110242779Y-75323144D01*
G37*
D11*
X109982000Y-75847000D03*
D10*
G36*
X110242779Y-77073144D02*
X110265834Y-77076563D01*
X110288443Y-77082227D01*
X110310387Y-77090079D01*
X110331457Y-77100044D01*
X110351448Y-77112026D01*
X110370168Y-77125910D01*
X110387438Y-77141562D01*
X110403090Y-77158832D01*
X110416974Y-77177552D01*
X110428956Y-77197543D01*
X110438921Y-77218613D01*
X110446773Y-77240557D01*
X110452437Y-77263166D01*
X110455856Y-77286221D01*
X110457000Y-77309500D01*
X110457000Y-77884500D01*
X110455856Y-77907779D01*
X110452437Y-77930834D01*
X110446773Y-77953443D01*
X110438921Y-77975387D01*
X110428956Y-77996457D01*
X110416974Y-78016448D01*
X110403090Y-78035168D01*
X110387438Y-78052438D01*
X110370168Y-78068090D01*
X110351448Y-78081974D01*
X110331457Y-78093956D01*
X110310387Y-78103921D01*
X110288443Y-78111773D01*
X110265834Y-78117437D01*
X110242779Y-78120856D01*
X110219500Y-78122000D01*
X109744500Y-78122000D01*
X109721221Y-78120856D01*
X109698166Y-78117437D01*
X109675557Y-78111773D01*
X109653613Y-78103921D01*
X109632543Y-78093956D01*
X109612552Y-78081974D01*
X109593832Y-78068090D01*
X109576562Y-78052438D01*
X109560910Y-78035168D01*
X109547026Y-78016448D01*
X109535044Y-77996457D01*
X109525079Y-77975387D01*
X109517227Y-77953443D01*
X109511563Y-77930834D01*
X109508144Y-77907779D01*
X109507000Y-77884500D01*
X109507000Y-77309500D01*
X109508144Y-77286221D01*
X109511563Y-77263166D01*
X109517227Y-77240557D01*
X109525079Y-77218613D01*
X109535044Y-77197543D01*
X109547026Y-77177552D01*
X109560910Y-77158832D01*
X109576562Y-77141562D01*
X109593832Y-77125910D01*
X109612552Y-77112026D01*
X109632543Y-77100044D01*
X109653613Y-77090079D01*
X109675557Y-77082227D01*
X109698166Y-77076563D01*
X109721221Y-77073144D01*
X109744500Y-77072000D01*
X110219500Y-77072000D01*
X110242779Y-77073144D01*
X110242779Y-77073144D01*
G37*
D11*
X109982000Y-77597000D03*
G04 #@! TD*
D10*
G04 #@! TO.C,R8*
G36*
X106559779Y-77045144D02*
X106582834Y-77048563D01*
X106605443Y-77054227D01*
X106627387Y-77062079D01*
X106648457Y-77072044D01*
X106668448Y-77084026D01*
X106687168Y-77097910D01*
X106704438Y-77113562D01*
X106720090Y-77130832D01*
X106733974Y-77149552D01*
X106745956Y-77169543D01*
X106755921Y-77190613D01*
X106763773Y-77212557D01*
X106769437Y-77235166D01*
X106772856Y-77258221D01*
X106774000Y-77281500D01*
X106774000Y-77856500D01*
X106772856Y-77879779D01*
X106769437Y-77902834D01*
X106763773Y-77925443D01*
X106755921Y-77947387D01*
X106745956Y-77968457D01*
X106733974Y-77988448D01*
X106720090Y-78007168D01*
X106704438Y-78024438D01*
X106687168Y-78040090D01*
X106668448Y-78053974D01*
X106648457Y-78065956D01*
X106627387Y-78075921D01*
X106605443Y-78083773D01*
X106582834Y-78089437D01*
X106559779Y-78092856D01*
X106536500Y-78094000D01*
X106061500Y-78094000D01*
X106038221Y-78092856D01*
X106015166Y-78089437D01*
X105992557Y-78083773D01*
X105970613Y-78075921D01*
X105949543Y-78065956D01*
X105929552Y-78053974D01*
X105910832Y-78040090D01*
X105893562Y-78024438D01*
X105877910Y-78007168D01*
X105864026Y-77988448D01*
X105852044Y-77968457D01*
X105842079Y-77947387D01*
X105834227Y-77925443D01*
X105828563Y-77902834D01*
X105825144Y-77879779D01*
X105824000Y-77856500D01*
X105824000Y-77281500D01*
X105825144Y-77258221D01*
X105828563Y-77235166D01*
X105834227Y-77212557D01*
X105842079Y-77190613D01*
X105852044Y-77169543D01*
X105864026Y-77149552D01*
X105877910Y-77130832D01*
X105893562Y-77113562D01*
X105910832Y-77097910D01*
X105929552Y-77084026D01*
X105949543Y-77072044D01*
X105970613Y-77062079D01*
X105992557Y-77054227D01*
X106015166Y-77048563D01*
X106038221Y-77045144D01*
X106061500Y-77044000D01*
X106536500Y-77044000D01*
X106559779Y-77045144D01*
X106559779Y-77045144D01*
G37*
D11*
X106299000Y-77569000D03*
D10*
G36*
X106559779Y-75295144D02*
X106582834Y-75298563D01*
X106605443Y-75304227D01*
X106627387Y-75312079D01*
X106648457Y-75322044D01*
X106668448Y-75334026D01*
X106687168Y-75347910D01*
X106704438Y-75363562D01*
X106720090Y-75380832D01*
X106733974Y-75399552D01*
X106745956Y-75419543D01*
X106755921Y-75440613D01*
X106763773Y-75462557D01*
X106769437Y-75485166D01*
X106772856Y-75508221D01*
X106774000Y-75531500D01*
X106774000Y-76106500D01*
X106772856Y-76129779D01*
X106769437Y-76152834D01*
X106763773Y-76175443D01*
X106755921Y-76197387D01*
X106745956Y-76218457D01*
X106733974Y-76238448D01*
X106720090Y-76257168D01*
X106704438Y-76274438D01*
X106687168Y-76290090D01*
X106668448Y-76303974D01*
X106648457Y-76315956D01*
X106627387Y-76325921D01*
X106605443Y-76333773D01*
X106582834Y-76339437D01*
X106559779Y-76342856D01*
X106536500Y-76344000D01*
X106061500Y-76344000D01*
X106038221Y-76342856D01*
X106015166Y-76339437D01*
X105992557Y-76333773D01*
X105970613Y-76325921D01*
X105949543Y-76315956D01*
X105929552Y-76303974D01*
X105910832Y-76290090D01*
X105893562Y-76274438D01*
X105877910Y-76257168D01*
X105864026Y-76238448D01*
X105852044Y-76218457D01*
X105842079Y-76197387D01*
X105834227Y-76175443D01*
X105828563Y-76152834D01*
X105825144Y-76129779D01*
X105824000Y-76106500D01*
X105824000Y-75531500D01*
X105825144Y-75508221D01*
X105828563Y-75485166D01*
X105834227Y-75462557D01*
X105842079Y-75440613D01*
X105852044Y-75419543D01*
X105864026Y-75399552D01*
X105877910Y-75380832D01*
X105893562Y-75363562D01*
X105910832Y-75347910D01*
X105929552Y-75334026D01*
X105949543Y-75322044D01*
X105970613Y-75312079D01*
X105992557Y-75304227D01*
X106015166Y-75298563D01*
X106038221Y-75295144D01*
X106061500Y-75294000D01*
X106536500Y-75294000D01*
X106559779Y-75295144D01*
X106559779Y-75295144D01*
G37*
D11*
X106299000Y-75819000D03*
G04 #@! TD*
D10*
G04 #@! TO.C,R11*
G36*
X129038779Y-88023144D02*
X129061834Y-88026563D01*
X129084443Y-88032227D01*
X129106387Y-88040079D01*
X129127457Y-88050044D01*
X129147448Y-88062026D01*
X129166168Y-88075910D01*
X129183438Y-88091562D01*
X129199090Y-88108832D01*
X129212974Y-88127552D01*
X129224956Y-88147543D01*
X129234921Y-88168613D01*
X129242773Y-88190557D01*
X129248437Y-88213166D01*
X129251856Y-88236221D01*
X129253000Y-88259500D01*
X129253000Y-88834500D01*
X129251856Y-88857779D01*
X129248437Y-88880834D01*
X129242773Y-88903443D01*
X129234921Y-88925387D01*
X129224956Y-88946457D01*
X129212974Y-88966448D01*
X129199090Y-88985168D01*
X129183438Y-89002438D01*
X129166168Y-89018090D01*
X129147448Y-89031974D01*
X129127457Y-89043956D01*
X129106387Y-89053921D01*
X129084443Y-89061773D01*
X129061834Y-89067437D01*
X129038779Y-89070856D01*
X129015500Y-89072000D01*
X128540500Y-89072000D01*
X128517221Y-89070856D01*
X128494166Y-89067437D01*
X128471557Y-89061773D01*
X128449613Y-89053921D01*
X128428543Y-89043956D01*
X128408552Y-89031974D01*
X128389832Y-89018090D01*
X128372562Y-89002438D01*
X128356910Y-88985168D01*
X128343026Y-88966448D01*
X128331044Y-88946457D01*
X128321079Y-88925387D01*
X128313227Y-88903443D01*
X128307563Y-88880834D01*
X128304144Y-88857779D01*
X128303000Y-88834500D01*
X128303000Y-88259500D01*
X128304144Y-88236221D01*
X128307563Y-88213166D01*
X128313227Y-88190557D01*
X128321079Y-88168613D01*
X128331044Y-88147543D01*
X128343026Y-88127552D01*
X128356910Y-88108832D01*
X128372562Y-88091562D01*
X128389832Y-88075910D01*
X128408552Y-88062026D01*
X128428543Y-88050044D01*
X128449613Y-88040079D01*
X128471557Y-88032227D01*
X128494166Y-88026563D01*
X128517221Y-88023144D01*
X128540500Y-88022000D01*
X129015500Y-88022000D01*
X129038779Y-88023144D01*
X129038779Y-88023144D01*
G37*
D11*
X128778000Y-88547000D03*
D10*
G36*
X129038779Y-89773144D02*
X129061834Y-89776563D01*
X129084443Y-89782227D01*
X129106387Y-89790079D01*
X129127457Y-89800044D01*
X129147448Y-89812026D01*
X129166168Y-89825910D01*
X129183438Y-89841562D01*
X129199090Y-89858832D01*
X129212974Y-89877552D01*
X129224956Y-89897543D01*
X129234921Y-89918613D01*
X129242773Y-89940557D01*
X129248437Y-89963166D01*
X129251856Y-89986221D01*
X129253000Y-90009500D01*
X129253000Y-90584500D01*
X129251856Y-90607779D01*
X129248437Y-90630834D01*
X129242773Y-90653443D01*
X129234921Y-90675387D01*
X129224956Y-90696457D01*
X129212974Y-90716448D01*
X129199090Y-90735168D01*
X129183438Y-90752438D01*
X129166168Y-90768090D01*
X129147448Y-90781974D01*
X129127457Y-90793956D01*
X129106387Y-90803921D01*
X129084443Y-90811773D01*
X129061834Y-90817437D01*
X129038779Y-90820856D01*
X129015500Y-90822000D01*
X128540500Y-90822000D01*
X128517221Y-90820856D01*
X128494166Y-90817437D01*
X128471557Y-90811773D01*
X128449613Y-90803921D01*
X128428543Y-90793956D01*
X128408552Y-90781974D01*
X128389832Y-90768090D01*
X128372562Y-90752438D01*
X128356910Y-90735168D01*
X128343026Y-90716448D01*
X128331044Y-90696457D01*
X128321079Y-90675387D01*
X128313227Y-90653443D01*
X128307563Y-90630834D01*
X128304144Y-90607779D01*
X128303000Y-90584500D01*
X128303000Y-90009500D01*
X128304144Y-89986221D01*
X128307563Y-89963166D01*
X128313227Y-89940557D01*
X128321079Y-89918613D01*
X128331044Y-89897543D01*
X128343026Y-89877552D01*
X128356910Y-89858832D01*
X128372562Y-89841562D01*
X128389832Y-89825910D01*
X128408552Y-89812026D01*
X128428543Y-89800044D01*
X128449613Y-89790079D01*
X128471557Y-89782227D01*
X128494166Y-89776563D01*
X128517221Y-89773144D01*
X128540500Y-89772000D01*
X129015500Y-89772000D01*
X129038779Y-89773144D01*
X129038779Y-89773144D01*
G37*
D11*
X128778000Y-90297000D03*
G04 #@! TD*
D10*
G04 #@! TO.C,R12*
G36*
X127917779Y-80806144D02*
X127940834Y-80809563D01*
X127963443Y-80815227D01*
X127985387Y-80823079D01*
X128006457Y-80833044D01*
X128026448Y-80845026D01*
X128045168Y-80858910D01*
X128062438Y-80874562D01*
X128078090Y-80891832D01*
X128091974Y-80910552D01*
X128103956Y-80930543D01*
X128113921Y-80951613D01*
X128121773Y-80973557D01*
X128127437Y-80996166D01*
X128130856Y-81019221D01*
X128132000Y-81042500D01*
X128132000Y-81517500D01*
X128130856Y-81540779D01*
X128127437Y-81563834D01*
X128121773Y-81586443D01*
X128113921Y-81608387D01*
X128103956Y-81629457D01*
X128091974Y-81649448D01*
X128078090Y-81668168D01*
X128062438Y-81685438D01*
X128045168Y-81701090D01*
X128026448Y-81714974D01*
X128006457Y-81726956D01*
X127985387Y-81736921D01*
X127963443Y-81744773D01*
X127940834Y-81750437D01*
X127917779Y-81753856D01*
X127894500Y-81755000D01*
X127319500Y-81755000D01*
X127296221Y-81753856D01*
X127273166Y-81750437D01*
X127250557Y-81744773D01*
X127228613Y-81736921D01*
X127207543Y-81726956D01*
X127187552Y-81714974D01*
X127168832Y-81701090D01*
X127151562Y-81685438D01*
X127135910Y-81668168D01*
X127122026Y-81649448D01*
X127110044Y-81629457D01*
X127100079Y-81608387D01*
X127092227Y-81586443D01*
X127086563Y-81563834D01*
X127083144Y-81540779D01*
X127082000Y-81517500D01*
X127082000Y-81042500D01*
X127083144Y-81019221D01*
X127086563Y-80996166D01*
X127092227Y-80973557D01*
X127100079Y-80951613D01*
X127110044Y-80930543D01*
X127122026Y-80910552D01*
X127135910Y-80891832D01*
X127151562Y-80874562D01*
X127168832Y-80858910D01*
X127187552Y-80845026D01*
X127207543Y-80833044D01*
X127228613Y-80823079D01*
X127250557Y-80815227D01*
X127273166Y-80809563D01*
X127296221Y-80806144D01*
X127319500Y-80805000D01*
X127894500Y-80805000D01*
X127917779Y-80806144D01*
X127917779Y-80806144D01*
G37*
D11*
X127607000Y-81280000D03*
D10*
G36*
X126167779Y-80806144D02*
X126190834Y-80809563D01*
X126213443Y-80815227D01*
X126235387Y-80823079D01*
X126256457Y-80833044D01*
X126276448Y-80845026D01*
X126295168Y-80858910D01*
X126312438Y-80874562D01*
X126328090Y-80891832D01*
X126341974Y-80910552D01*
X126353956Y-80930543D01*
X126363921Y-80951613D01*
X126371773Y-80973557D01*
X126377437Y-80996166D01*
X126380856Y-81019221D01*
X126382000Y-81042500D01*
X126382000Y-81517500D01*
X126380856Y-81540779D01*
X126377437Y-81563834D01*
X126371773Y-81586443D01*
X126363921Y-81608387D01*
X126353956Y-81629457D01*
X126341974Y-81649448D01*
X126328090Y-81668168D01*
X126312438Y-81685438D01*
X126295168Y-81701090D01*
X126276448Y-81714974D01*
X126256457Y-81726956D01*
X126235387Y-81736921D01*
X126213443Y-81744773D01*
X126190834Y-81750437D01*
X126167779Y-81753856D01*
X126144500Y-81755000D01*
X125569500Y-81755000D01*
X125546221Y-81753856D01*
X125523166Y-81750437D01*
X125500557Y-81744773D01*
X125478613Y-81736921D01*
X125457543Y-81726956D01*
X125437552Y-81714974D01*
X125418832Y-81701090D01*
X125401562Y-81685438D01*
X125385910Y-81668168D01*
X125372026Y-81649448D01*
X125360044Y-81629457D01*
X125350079Y-81608387D01*
X125342227Y-81586443D01*
X125336563Y-81563834D01*
X125333144Y-81540779D01*
X125332000Y-81517500D01*
X125332000Y-81042500D01*
X125333144Y-81019221D01*
X125336563Y-80996166D01*
X125342227Y-80973557D01*
X125350079Y-80951613D01*
X125360044Y-80930543D01*
X125372026Y-80910552D01*
X125385910Y-80891832D01*
X125401562Y-80874562D01*
X125418832Y-80858910D01*
X125437552Y-80845026D01*
X125457543Y-80833044D01*
X125478613Y-80823079D01*
X125500557Y-80815227D01*
X125523166Y-80809563D01*
X125546221Y-80806144D01*
X125569500Y-80805000D01*
X126144500Y-80805000D01*
X126167779Y-80806144D01*
X126167779Y-80806144D01*
G37*
D11*
X125857000Y-81280000D03*
G04 #@! TD*
D10*
G04 #@! TO.C,R13*
G36*
X129624779Y-77631144D02*
X129647834Y-77634563D01*
X129670443Y-77640227D01*
X129692387Y-77648079D01*
X129713457Y-77658044D01*
X129733448Y-77670026D01*
X129752168Y-77683910D01*
X129769438Y-77699562D01*
X129785090Y-77716832D01*
X129798974Y-77735552D01*
X129810956Y-77755543D01*
X129820921Y-77776613D01*
X129828773Y-77798557D01*
X129834437Y-77821166D01*
X129837856Y-77844221D01*
X129839000Y-77867500D01*
X129839000Y-78342500D01*
X129837856Y-78365779D01*
X129834437Y-78388834D01*
X129828773Y-78411443D01*
X129820921Y-78433387D01*
X129810956Y-78454457D01*
X129798974Y-78474448D01*
X129785090Y-78493168D01*
X129769438Y-78510438D01*
X129752168Y-78526090D01*
X129733448Y-78539974D01*
X129713457Y-78551956D01*
X129692387Y-78561921D01*
X129670443Y-78569773D01*
X129647834Y-78575437D01*
X129624779Y-78578856D01*
X129601500Y-78580000D01*
X129026500Y-78580000D01*
X129003221Y-78578856D01*
X128980166Y-78575437D01*
X128957557Y-78569773D01*
X128935613Y-78561921D01*
X128914543Y-78551956D01*
X128894552Y-78539974D01*
X128875832Y-78526090D01*
X128858562Y-78510438D01*
X128842910Y-78493168D01*
X128829026Y-78474448D01*
X128817044Y-78454457D01*
X128807079Y-78433387D01*
X128799227Y-78411443D01*
X128793563Y-78388834D01*
X128790144Y-78365779D01*
X128789000Y-78342500D01*
X128789000Y-77867500D01*
X128790144Y-77844221D01*
X128793563Y-77821166D01*
X128799227Y-77798557D01*
X128807079Y-77776613D01*
X128817044Y-77755543D01*
X128829026Y-77735552D01*
X128842910Y-77716832D01*
X128858562Y-77699562D01*
X128875832Y-77683910D01*
X128894552Y-77670026D01*
X128914543Y-77658044D01*
X128935613Y-77648079D01*
X128957557Y-77640227D01*
X128980166Y-77634563D01*
X129003221Y-77631144D01*
X129026500Y-77630000D01*
X129601500Y-77630000D01*
X129624779Y-77631144D01*
X129624779Y-77631144D01*
G37*
D11*
X129314000Y-78105000D03*
D10*
G36*
X131374779Y-77631144D02*
X131397834Y-77634563D01*
X131420443Y-77640227D01*
X131442387Y-77648079D01*
X131463457Y-77658044D01*
X131483448Y-77670026D01*
X131502168Y-77683910D01*
X131519438Y-77699562D01*
X131535090Y-77716832D01*
X131548974Y-77735552D01*
X131560956Y-77755543D01*
X131570921Y-77776613D01*
X131578773Y-77798557D01*
X131584437Y-77821166D01*
X131587856Y-77844221D01*
X131589000Y-77867500D01*
X131589000Y-78342500D01*
X131587856Y-78365779D01*
X131584437Y-78388834D01*
X131578773Y-78411443D01*
X131570921Y-78433387D01*
X131560956Y-78454457D01*
X131548974Y-78474448D01*
X131535090Y-78493168D01*
X131519438Y-78510438D01*
X131502168Y-78526090D01*
X131483448Y-78539974D01*
X131463457Y-78551956D01*
X131442387Y-78561921D01*
X131420443Y-78569773D01*
X131397834Y-78575437D01*
X131374779Y-78578856D01*
X131351500Y-78580000D01*
X130776500Y-78580000D01*
X130753221Y-78578856D01*
X130730166Y-78575437D01*
X130707557Y-78569773D01*
X130685613Y-78561921D01*
X130664543Y-78551956D01*
X130644552Y-78539974D01*
X130625832Y-78526090D01*
X130608562Y-78510438D01*
X130592910Y-78493168D01*
X130579026Y-78474448D01*
X130567044Y-78454457D01*
X130557079Y-78433387D01*
X130549227Y-78411443D01*
X130543563Y-78388834D01*
X130540144Y-78365779D01*
X130539000Y-78342500D01*
X130539000Y-77867500D01*
X130540144Y-77844221D01*
X130543563Y-77821166D01*
X130549227Y-77798557D01*
X130557079Y-77776613D01*
X130567044Y-77755543D01*
X130579026Y-77735552D01*
X130592910Y-77716832D01*
X130608562Y-77699562D01*
X130625832Y-77683910D01*
X130644552Y-77670026D01*
X130664543Y-77658044D01*
X130685613Y-77648079D01*
X130707557Y-77640227D01*
X130730166Y-77634563D01*
X130753221Y-77631144D01*
X130776500Y-77630000D01*
X131351500Y-77630000D01*
X131374779Y-77631144D01*
X131374779Y-77631144D01*
G37*
D11*
X131064000Y-78105000D03*
G04 #@! TD*
D10*
G04 #@! TO.C,R14*
G36*
X131360779Y-73821144D02*
X131383834Y-73824563D01*
X131406443Y-73830227D01*
X131428387Y-73838079D01*
X131449457Y-73848044D01*
X131469448Y-73860026D01*
X131488168Y-73873910D01*
X131505438Y-73889562D01*
X131521090Y-73906832D01*
X131534974Y-73925552D01*
X131546956Y-73945543D01*
X131556921Y-73966613D01*
X131564773Y-73988557D01*
X131570437Y-74011166D01*
X131573856Y-74034221D01*
X131575000Y-74057500D01*
X131575000Y-74532500D01*
X131573856Y-74555779D01*
X131570437Y-74578834D01*
X131564773Y-74601443D01*
X131556921Y-74623387D01*
X131546956Y-74644457D01*
X131534974Y-74664448D01*
X131521090Y-74683168D01*
X131505438Y-74700438D01*
X131488168Y-74716090D01*
X131469448Y-74729974D01*
X131449457Y-74741956D01*
X131428387Y-74751921D01*
X131406443Y-74759773D01*
X131383834Y-74765437D01*
X131360779Y-74768856D01*
X131337500Y-74770000D01*
X130762500Y-74770000D01*
X130739221Y-74768856D01*
X130716166Y-74765437D01*
X130693557Y-74759773D01*
X130671613Y-74751921D01*
X130650543Y-74741956D01*
X130630552Y-74729974D01*
X130611832Y-74716090D01*
X130594562Y-74700438D01*
X130578910Y-74683168D01*
X130565026Y-74664448D01*
X130553044Y-74644457D01*
X130543079Y-74623387D01*
X130535227Y-74601443D01*
X130529563Y-74578834D01*
X130526144Y-74555779D01*
X130525000Y-74532500D01*
X130525000Y-74057500D01*
X130526144Y-74034221D01*
X130529563Y-74011166D01*
X130535227Y-73988557D01*
X130543079Y-73966613D01*
X130553044Y-73945543D01*
X130565026Y-73925552D01*
X130578910Y-73906832D01*
X130594562Y-73889562D01*
X130611832Y-73873910D01*
X130630552Y-73860026D01*
X130650543Y-73848044D01*
X130671613Y-73838079D01*
X130693557Y-73830227D01*
X130716166Y-73824563D01*
X130739221Y-73821144D01*
X130762500Y-73820000D01*
X131337500Y-73820000D01*
X131360779Y-73821144D01*
X131360779Y-73821144D01*
G37*
D11*
X131050000Y-74295000D03*
D10*
G36*
X129610779Y-73821144D02*
X129633834Y-73824563D01*
X129656443Y-73830227D01*
X129678387Y-73838079D01*
X129699457Y-73848044D01*
X129719448Y-73860026D01*
X129738168Y-73873910D01*
X129755438Y-73889562D01*
X129771090Y-73906832D01*
X129784974Y-73925552D01*
X129796956Y-73945543D01*
X129806921Y-73966613D01*
X129814773Y-73988557D01*
X129820437Y-74011166D01*
X129823856Y-74034221D01*
X129825000Y-74057500D01*
X129825000Y-74532500D01*
X129823856Y-74555779D01*
X129820437Y-74578834D01*
X129814773Y-74601443D01*
X129806921Y-74623387D01*
X129796956Y-74644457D01*
X129784974Y-74664448D01*
X129771090Y-74683168D01*
X129755438Y-74700438D01*
X129738168Y-74716090D01*
X129719448Y-74729974D01*
X129699457Y-74741956D01*
X129678387Y-74751921D01*
X129656443Y-74759773D01*
X129633834Y-74765437D01*
X129610779Y-74768856D01*
X129587500Y-74770000D01*
X129012500Y-74770000D01*
X128989221Y-74768856D01*
X128966166Y-74765437D01*
X128943557Y-74759773D01*
X128921613Y-74751921D01*
X128900543Y-74741956D01*
X128880552Y-74729974D01*
X128861832Y-74716090D01*
X128844562Y-74700438D01*
X128828910Y-74683168D01*
X128815026Y-74664448D01*
X128803044Y-74644457D01*
X128793079Y-74623387D01*
X128785227Y-74601443D01*
X128779563Y-74578834D01*
X128776144Y-74555779D01*
X128775000Y-74532500D01*
X128775000Y-74057500D01*
X128776144Y-74034221D01*
X128779563Y-74011166D01*
X128785227Y-73988557D01*
X128793079Y-73966613D01*
X128803044Y-73945543D01*
X128815026Y-73925552D01*
X128828910Y-73906832D01*
X128844562Y-73889562D01*
X128861832Y-73873910D01*
X128880552Y-73860026D01*
X128900543Y-73848044D01*
X128921613Y-73838079D01*
X128943557Y-73830227D01*
X128966166Y-73824563D01*
X128989221Y-73821144D01*
X129012500Y-73820000D01*
X129587500Y-73820000D01*
X129610779Y-73821144D01*
X129610779Y-73821144D01*
G37*
D11*
X129300000Y-74295000D03*
G04 #@! TD*
D15*
G04 #@! TO.C,C33*
X103759000Y-101793000D03*
X103759000Y-96393000D03*
G04 #@! TD*
G04 #@! TO.C,C34*
X96520000Y-96393000D03*
X96520000Y-101793000D03*
G04 #@! TD*
G04 #@! TO.C,C35*
X123063000Y-101666000D03*
X123063000Y-96266000D03*
G04 #@! TD*
G04 #@! TO.C,C36*
X115824000Y-96266000D03*
X115824000Y-101666000D03*
G04 #@! TD*
D16*
G04 #@! TO.C,L1*
X123952000Y-90322000D03*
X123952000Y-83922000D03*
G04 #@! TD*
G04 #@! TO.C,L2*
X114173000Y-83947000D03*
X114173000Y-90347000D03*
G04 #@! TD*
G04 #@! TO.C,L3*
X96774000Y-84074000D03*
X96774000Y-90474000D03*
G04 #@! TD*
G04 #@! TO.C,L4*
X106299000Y-90322000D03*
X106299000Y-83922000D03*
G04 #@! TD*
D15*
G04 #@! TO.C,C28*
X139065000Y-75504000D03*
X139065000Y-70104000D03*
G04 #@! TD*
D10*
G04 #@! TO.C,C5*
G36*
X119386779Y-87233144D02*
X119409834Y-87236563D01*
X119432443Y-87242227D01*
X119454387Y-87250079D01*
X119475457Y-87260044D01*
X119495448Y-87272026D01*
X119514168Y-87285910D01*
X119531438Y-87301562D01*
X119547090Y-87318832D01*
X119560974Y-87337552D01*
X119572956Y-87357543D01*
X119582921Y-87378613D01*
X119590773Y-87400557D01*
X119596437Y-87423166D01*
X119599856Y-87446221D01*
X119601000Y-87469500D01*
X119601000Y-88044500D01*
X119599856Y-88067779D01*
X119596437Y-88090834D01*
X119590773Y-88113443D01*
X119582921Y-88135387D01*
X119572956Y-88156457D01*
X119560974Y-88176448D01*
X119547090Y-88195168D01*
X119531438Y-88212438D01*
X119514168Y-88228090D01*
X119495448Y-88241974D01*
X119475457Y-88253956D01*
X119454387Y-88263921D01*
X119432443Y-88271773D01*
X119409834Y-88277437D01*
X119386779Y-88280856D01*
X119363500Y-88282000D01*
X118888500Y-88282000D01*
X118865221Y-88280856D01*
X118842166Y-88277437D01*
X118819557Y-88271773D01*
X118797613Y-88263921D01*
X118776543Y-88253956D01*
X118756552Y-88241974D01*
X118737832Y-88228090D01*
X118720562Y-88212438D01*
X118704910Y-88195168D01*
X118691026Y-88176448D01*
X118679044Y-88156457D01*
X118669079Y-88135387D01*
X118661227Y-88113443D01*
X118655563Y-88090834D01*
X118652144Y-88067779D01*
X118651000Y-88044500D01*
X118651000Y-87469500D01*
X118652144Y-87446221D01*
X118655563Y-87423166D01*
X118661227Y-87400557D01*
X118669079Y-87378613D01*
X118679044Y-87357543D01*
X118691026Y-87337552D01*
X118704910Y-87318832D01*
X118720562Y-87301562D01*
X118737832Y-87285910D01*
X118756552Y-87272026D01*
X118776543Y-87260044D01*
X118797613Y-87250079D01*
X118819557Y-87242227D01*
X118842166Y-87236563D01*
X118865221Y-87233144D01*
X118888500Y-87232000D01*
X119363500Y-87232000D01*
X119386779Y-87233144D01*
X119386779Y-87233144D01*
G37*
D11*
X119126000Y-87757000D03*
D10*
G36*
X119386779Y-88983144D02*
X119409834Y-88986563D01*
X119432443Y-88992227D01*
X119454387Y-89000079D01*
X119475457Y-89010044D01*
X119495448Y-89022026D01*
X119514168Y-89035910D01*
X119531438Y-89051562D01*
X119547090Y-89068832D01*
X119560974Y-89087552D01*
X119572956Y-89107543D01*
X119582921Y-89128613D01*
X119590773Y-89150557D01*
X119596437Y-89173166D01*
X119599856Y-89196221D01*
X119601000Y-89219500D01*
X119601000Y-89794500D01*
X119599856Y-89817779D01*
X119596437Y-89840834D01*
X119590773Y-89863443D01*
X119582921Y-89885387D01*
X119572956Y-89906457D01*
X119560974Y-89926448D01*
X119547090Y-89945168D01*
X119531438Y-89962438D01*
X119514168Y-89978090D01*
X119495448Y-89991974D01*
X119475457Y-90003956D01*
X119454387Y-90013921D01*
X119432443Y-90021773D01*
X119409834Y-90027437D01*
X119386779Y-90030856D01*
X119363500Y-90032000D01*
X118888500Y-90032000D01*
X118865221Y-90030856D01*
X118842166Y-90027437D01*
X118819557Y-90021773D01*
X118797613Y-90013921D01*
X118776543Y-90003956D01*
X118756552Y-89991974D01*
X118737832Y-89978090D01*
X118720562Y-89962438D01*
X118704910Y-89945168D01*
X118691026Y-89926448D01*
X118679044Y-89906457D01*
X118669079Y-89885387D01*
X118661227Y-89863443D01*
X118655563Y-89840834D01*
X118652144Y-89817779D01*
X118651000Y-89794500D01*
X118651000Y-89219500D01*
X118652144Y-89196221D01*
X118655563Y-89173166D01*
X118661227Y-89150557D01*
X118669079Y-89128613D01*
X118679044Y-89107543D01*
X118691026Y-89087552D01*
X118704910Y-89068832D01*
X118720562Y-89051562D01*
X118737832Y-89035910D01*
X118756552Y-89022026D01*
X118776543Y-89010044D01*
X118797613Y-89000079D01*
X118819557Y-88992227D01*
X118842166Y-88986563D01*
X118865221Y-88983144D01*
X118888500Y-88982000D01*
X119363500Y-88982000D01*
X119386779Y-88983144D01*
X119386779Y-88983144D01*
G37*
D11*
X119126000Y-89507000D03*
G04 #@! TD*
D10*
G04 #@! TO.C,C7*
G36*
X110242779Y-71894144D02*
X110265834Y-71897563D01*
X110288443Y-71903227D01*
X110310387Y-71911079D01*
X110331457Y-71921044D01*
X110351448Y-71933026D01*
X110370168Y-71946910D01*
X110387438Y-71962562D01*
X110403090Y-71979832D01*
X110416974Y-71998552D01*
X110428956Y-72018543D01*
X110438921Y-72039613D01*
X110446773Y-72061557D01*
X110452437Y-72084166D01*
X110455856Y-72107221D01*
X110457000Y-72130500D01*
X110457000Y-72705500D01*
X110455856Y-72728779D01*
X110452437Y-72751834D01*
X110446773Y-72774443D01*
X110438921Y-72796387D01*
X110428956Y-72817457D01*
X110416974Y-72837448D01*
X110403090Y-72856168D01*
X110387438Y-72873438D01*
X110370168Y-72889090D01*
X110351448Y-72902974D01*
X110331457Y-72914956D01*
X110310387Y-72924921D01*
X110288443Y-72932773D01*
X110265834Y-72938437D01*
X110242779Y-72941856D01*
X110219500Y-72943000D01*
X109744500Y-72943000D01*
X109721221Y-72941856D01*
X109698166Y-72938437D01*
X109675557Y-72932773D01*
X109653613Y-72924921D01*
X109632543Y-72914956D01*
X109612552Y-72902974D01*
X109593832Y-72889090D01*
X109576562Y-72873438D01*
X109560910Y-72856168D01*
X109547026Y-72837448D01*
X109535044Y-72817457D01*
X109525079Y-72796387D01*
X109517227Y-72774443D01*
X109511563Y-72751834D01*
X109508144Y-72728779D01*
X109507000Y-72705500D01*
X109507000Y-72130500D01*
X109508144Y-72107221D01*
X109511563Y-72084166D01*
X109517227Y-72061557D01*
X109525079Y-72039613D01*
X109535044Y-72018543D01*
X109547026Y-71998552D01*
X109560910Y-71979832D01*
X109576562Y-71962562D01*
X109593832Y-71946910D01*
X109612552Y-71933026D01*
X109632543Y-71921044D01*
X109653613Y-71911079D01*
X109675557Y-71903227D01*
X109698166Y-71897563D01*
X109721221Y-71894144D01*
X109744500Y-71893000D01*
X110219500Y-71893000D01*
X110242779Y-71894144D01*
X110242779Y-71894144D01*
G37*
D11*
X109982000Y-72418000D03*
D10*
G36*
X110242779Y-73644144D02*
X110265834Y-73647563D01*
X110288443Y-73653227D01*
X110310387Y-73661079D01*
X110331457Y-73671044D01*
X110351448Y-73683026D01*
X110370168Y-73696910D01*
X110387438Y-73712562D01*
X110403090Y-73729832D01*
X110416974Y-73748552D01*
X110428956Y-73768543D01*
X110438921Y-73789613D01*
X110446773Y-73811557D01*
X110452437Y-73834166D01*
X110455856Y-73857221D01*
X110457000Y-73880500D01*
X110457000Y-74455500D01*
X110455856Y-74478779D01*
X110452437Y-74501834D01*
X110446773Y-74524443D01*
X110438921Y-74546387D01*
X110428956Y-74567457D01*
X110416974Y-74587448D01*
X110403090Y-74606168D01*
X110387438Y-74623438D01*
X110370168Y-74639090D01*
X110351448Y-74652974D01*
X110331457Y-74664956D01*
X110310387Y-74674921D01*
X110288443Y-74682773D01*
X110265834Y-74688437D01*
X110242779Y-74691856D01*
X110219500Y-74693000D01*
X109744500Y-74693000D01*
X109721221Y-74691856D01*
X109698166Y-74688437D01*
X109675557Y-74682773D01*
X109653613Y-74674921D01*
X109632543Y-74664956D01*
X109612552Y-74652974D01*
X109593832Y-74639090D01*
X109576562Y-74623438D01*
X109560910Y-74606168D01*
X109547026Y-74587448D01*
X109535044Y-74567457D01*
X109525079Y-74546387D01*
X109517227Y-74524443D01*
X109511563Y-74501834D01*
X109508144Y-74478779D01*
X109507000Y-74455500D01*
X109507000Y-73880500D01*
X109508144Y-73857221D01*
X109511563Y-73834166D01*
X109517227Y-73811557D01*
X109525079Y-73789613D01*
X109535044Y-73768543D01*
X109547026Y-73748552D01*
X109560910Y-73729832D01*
X109576562Y-73712562D01*
X109593832Y-73696910D01*
X109612552Y-73683026D01*
X109632543Y-73671044D01*
X109653613Y-73661079D01*
X109675557Y-73653227D01*
X109698166Y-73647563D01*
X109721221Y-73644144D01*
X109744500Y-73643000D01*
X110219500Y-73643000D01*
X110242779Y-73644144D01*
X110242779Y-73644144D01*
G37*
D11*
X109982000Y-74168000D03*
G04 #@! TD*
D10*
G04 #@! TO.C,C9*
G36*
X106559779Y-73517144D02*
X106582834Y-73520563D01*
X106605443Y-73526227D01*
X106627387Y-73534079D01*
X106648457Y-73544044D01*
X106668448Y-73556026D01*
X106687168Y-73569910D01*
X106704438Y-73585562D01*
X106720090Y-73602832D01*
X106733974Y-73621552D01*
X106745956Y-73641543D01*
X106755921Y-73662613D01*
X106763773Y-73684557D01*
X106769437Y-73707166D01*
X106772856Y-73730221D01*
X106774000Y-73753500D01*
X106774000Y-74328500D01*
X106772856Y-74351779D01*
X106769437Y-74374834D01*
X106763773Y-74397443D01*
X106755921Y-74419387D01*
X106745956Y-74440457D01*
X106733974Y-74460448D01*
X106720090Y-74479168D01*
X106704438Y-74496438D01*
X106687168Y-74512090D01*
X106668448Y-74525974D01*
X106648457Y-74537956D01*
X106627387Y-74547921D01*
X106605443Y-74555773D01*
X106582834Y-74561437D01*
X106559779Y-74564856D01*
X106536500Y-74566000D01*
X106061500Y-74566000D01*
X106038221Y-74564856D01*
X106015166Y-74561437D01*
X105992557Y-74555773D01*
X105970613Y-74547921D01*
X105949543Y-74537956D01*
X105929552Y-74525974D01*
X105910832Y-74512090D01*
X105893562Y-74496438D01*
X105877910Y-74479168D01*
X105864026Y-74460448D01*
X105852044Y-74440457D01*
X105842079Y-74419387D01*
X105834227Y-74397443D01*
X105828563Y-74374834D01*
X105825144Y-74351779D01*
X105824000Y-74328500D01*
X105824000Y-73753500D01*
X105825144Y-73730221D01*
X105828563Y-73707166D01*
X105834227Y-73684557D01*
X105842079Y-73662613D01*
X105852044Y-73641543D01*
X105864026Y-73621552D01*
X105877910Y-73602832D01*
X105893562Y-73585562D01*
X105910832Y-73569910D01*
X105929552Y-73556026D01*
X105949543Y-73544044D01*
X105970613Y-73534079D01*
X105992557Y-73526227D01*
X106015166Y-73520563D01*
X106038221Y-73517144D01*
X106061500Y-73516000D01*
X106536500Y-73516000D01*
X106559779Y-73517144D01*
X106559779Y-73517144D01*
G37*
D11*
X106299000Y-74041000D03*
D10*
G36*
X106559779Y-71767144D02*
X106582834Y-71770563D01*
X106605443Y-71776227D01*
X106627387Y-71784079D01*
X106648457Y-71794044D01*
X106668448Y-71806026D01*
X106687168Y-71819910D01*
X106704438Y-71835562D01*
X106720090Y-71852832D01*
X106733974Y-71871552D01*
X106745956Y-71891543D01*
X106755921Y-71912613D01*
X106763773Y-71934557D01*
X106769437Y-71957166D01*
X106772856Y-71980221D01*
X106774000Y-72003500D01*
X106774000Y-72578500D01*
X106772856Y-72601779D01*
X106769437Y-72624834D01*
X106763773Y-72647443D01*
X106755921Y-72669387D01*
X106745956Y-72690457D01*
X106733974Y-72710448D01*
X106720090Y-72729168D01*
X106704438Y-72746438D01*
X106687168Y-72762090D01*
X106668448Y-72775974D01*
X106648457Y-72787956D01*
X106627387Y-72797921D01*
X106605443Y-72805773D01*
X106582834Y-72811437D01*
X106559779Y-72814856D01*
X106536500Y-72816000D01*
X106061500Y-72816000D01*
X106038221Y-72814856D01*
X106015166Y-72811437D01*
X105992557Y-72805773D01*
X105970613Y-72797921D01*
X105949543Y-72787956D01*
X105929552Y-72775974D01*
X105910832Y-72762090D01*
X105893562Y-72746438D01*
X105877910Y-72729168D01*
X105864026Y-72710448D01*
X105852044Y-72690457D01*
X105842079Y-72669387D01*
X105834227Y-72647443D01*
X105828563Y-72624834D01*
X105825144Y-72601779D01*
X105824000Y-72578500D01*
X105824000Y-72003500D01*
X105825144Y-71980221D01*
X105828563Y-71957166D01*
X105834227Y-71934557D01*
X105842079Y-71912613D01*
X105852044Y-71891543D01*
X105864026Y-71871552D01*
X105877910Y-71852832D01*
X105893562Y-71835562D01*
X105910832Y-71819910D01*
X105929552Y-71806026D01*
X105949543Y-71794044D01*
X105970613Y-71784079D01*
X105992557Y-71776227D01*
X106015166Y-71770563D01*
X106038221Y-71767144D01*
X106061500Y-71766000D01*
X106536500Y-71766000D01*
X106559779Y-71767144D01*
X106559779Y-71767144D01*
G37*
D11*
X106299000Y-72291000D03*
G04 #@! TD*
D10*
G04 #@! TO.C,C12*
G36*
X129038779Y-84594144D02*
X129061834Y-84597563D01*
X129084443Y-84603227D01*
X129106387Y-84611079D01*
X129127457Y-84621044D01*
X129147448Y-84633026D01*
X129166168Y-84646910D01*
X129183438Y-84662562D01*
X129199090Y-84679832D01*
X129212974Y-84698552D01*
X129224956Y-84718543D01*
X129234921Y-84739613D01*
X129242773Y-84761557D01*
X129248437Y-84784166D01*
X129251856Y-84807221D01*
X129253000Y-84830500D01*
X129253000Y-85405500D01*
X129251856Y-85428779D01*
X129248437Y-85451834D01*
X129242773Y-85474443D01*
X129234921Y-85496387D01*
X129224956Y-85517457D01*
X129212974Y-85537448D01*
X129199090Y-85556168D01*
X129183438Y-85573438D01*
X129166168Y-85589090D01*
X129147448Y-85602974D01*
X129127457Y-85614956D01*
X129106387Y-85624921D01*
X129084443Y-85632773D01*
X129061834Y-85638437D01*
X129038779Y-85641856D01*
X129015500Y-85643000D01*
X128540500Y-85643000D01*
X128517221Y-85641856D01*
X128494166Y-85638437D01*
X128471557Y-85632773D01*
X128449613Y-85624921D01*
X128428543Y-85614956D01*
X128408552Y-85602974D01*
X128389832Y-85589090D01*
X128372562Y-85573438D01*
X128356910Y-85556168D01*
X128343026Y-85537448D01*
X128331044Y-85517457D01*
X128321079Y-85496387D01*
X128313227Y-85474443D01*
X128307563Y-85451834D01*
X128304144Y-85428779D01*
X128303000Y-85405500D01*
X128303000Y-84830500D01*
X128304144Y-84807221D01*
X128307563Y-84784166D01*
X128313227Y-84761557D01*
X128321079Y-84739613D01*
X128331044Y-84718543D01*
X128343026Y-84698552D01*
X128356910Y-84679832D01*
X128372562Y-84662562D01*
X128389832Y-84646910D01*
X128408552Y-84633026D01*
X128428543Y-84621044D01*
X128449613Y-84611079D01*
X128471557Y-84603227D01*
X128494166Y-84597563D01*
X128517221Y-84594144D01*
X128540500Y-84593000D01*
X129015500Y-84593000D01*
X129038779Y-84594144D01*
X129038779Y-84594144D01*
G37*
D11*
X128778000Y-85118000D03*
D10*
G36*
X129038779Y-86344144D02*
X129061834Y-86347563D01*
X129084443Y-86353227D01*
X129106387Y-86361079D01*
X129127457Y-86371044D01*
X129147448Y-86383026D01*
X129166168Y-86396910D01*
X129183438Y-86412562D01*
X129199090Y-86429832D01*
X129212974Y-86448552D01*
X129224956Y-86468543D01*
X129234921Y-86489613D01*
X129242773Y-86511557D01*
X129248437Y-86534166D01*
X129251856Y-86557221D01*
X129253000Y-86580500D01*
X129253000Y-87155500D01*
X129251856Y-87178779D01*
X129248437Y-87201834D01*
X129242773Y-87224443D01*
X129234921Y-87246387D01*
X129224956Y-87267457D01*
X129212974Y-87287448D01*
X129199090Y-87306168D01*
X129183438Y-87323438D01*
X129166168Y-87339090D01*
X129147448Y-87352974D01*
X129127457Y-87364956D01*
X129106387Y-87374921D01*
X129084443Y-87382773D01*
X129061834Y-87388437D01*
X129038779Y-87391856D01*
X129015500Y-87393000D01*
X128540500Y-87393000D01*
X128517221Y-87391856D01*
X128494166Y-87388437D01*
X128471557Y-87382773D01*
X128449613Y-87374921D01*
X128428543Y-87364956D01*
X128408552Y-87352974D01*
X128389832Y-87339090D01*
X128372562Y-87323438D01*
X128356910Y-87306168D01*
X128343026Y-87287448D01*
X128331044Y-87267457D01*
X128321079Y-87246387D01*
X128313227Y-87224443D01*
X128307563Y-87201834D01*
X128304144Y-87178779D01*
X128303000Y-87155500D01*
X128303000Y-86580500D01*
X128304144Y-86557221D01*
X128307563Y-86534166D01*
X128313227Y-86511557D01*
X128321079Y-86489613D01*
X128331044Y-86468543D01*
X128343026Y-86448552D01*
X128356910Y-86429832D01*
X128372562Y-86412562D01*
X128389832Y-86396910D01*
X128408552Y-86383026D01*
X128428543Y-86371044D01*
X128449613Y-86361079D01*
X128471557Y-86353227D01*
X128494166Y-86347563D01*
X128517221Y-86344144D01*
X128540500Y-86343000D01*
X129015500Y-86343000D01*
X129038779Y-86344144D01*
X129038779Y-86344144D01*
G37*
D11*
X128778000Y-86868000D03*
G04 #@! TD*
D10*
G04 #@! TO.C,C13*
G36*
X129088779Y-82965144D02*
X129111834Y-82968563D01*
X129134443Y-82974227D01*
X129156387Y-82982079D01*
X129177457Y-82992044D01*
X129197448Y-83004026D01*
X129216168Y-83017910D01*
X129233438Y-83033562D01*
X129249090Y-83050832D01*
X129262974Y-83069552D01*
X129274956Y-83089543D01*
X129284921Y-83110613D01*
X129292773Y-83132557D01*
X129298437Y-83155166D01*
X129301856Y-83178221D01*
X129303000Y-83201500D01*
X129303000Y-83676500D01*
X129301856Y-83699779D01*
X129298437Y-83722834D01*
X129292773Y-83745443D01*
X129284921Y-83767387D01*
X129274956Y-83788457D01*
X129262974Y-83808448D01*
X129249090Y-83827168D01*
X129233438Y-83844438D01*
X129216168Y-83860090D01*
X129197448Y-83873974D01*
X129177457Y-83885956D01*
X129156387Y-83895921D01*
X129134443Y-83903773D01*
X129111834Y-83909437D01*
X129088779Y-83912856D01*
X129065500Y-83914000D01*
X128490500Y-83914000D01*
X128467221Y-83912856D01*
X128444166Y-83909437D01*
X128421557Y-83903773D01*
X128399613Y-83895921D01*
X128378543Y-83885956D01*
X128358552Y-83873974D01*
X128339832Y-83860090D01*
X128322562Y-83844438D01*
X128306910Y-83827168D01*
X128293026Y-83808448D01*
X128281044Y-83788457D01*
X128271079Y-83767387D01*
X128263227Y-83745443D01*
X128257563Y-83722834D01*
X128254144Y-83699779D01*
X128253000Y-83676500D01*
X128253000Y-83201500D01*
X128254144Y-83178221D01*
X128257563Y-83155166D01*
X128263227Y-83132557D01*
X128271079Y-83110613D01*
X128281044Y-83089543D01*
X128293026Y-83069552D01*
X128306910Y-83050832D01*
X128322562Y-83033562D01*
X128339832Y-83017910D01*
X128358552Y-83004026D01*
X128378543Y-82992044D01*
X128399613Y-82982079D01*
X128421557Y-82974227D01*
X128444166Y-82968563D01*
X128467221Y-82965144D01*
X128490500Y-82964000D01*
X129065500Y-82964000D01*
X129088779Y-82965144D01*
X129088779Y-82965144D01*
G37*
D11*
X128778000Y-83439000D03*
D10*
G36*
X130838779Y-82965144D02*
X130861834Y-82968563D01*
X130884443Y-82974227D01*
X130906387Y-82982079D01*
X130927457Y-82992044D01*
X130947448Y-83004026D01*
X130966168Y-83017910D01*
X130983438Y-83033562D01*
X130999090Y-83050832D01*
X131012974Y-83069552D01*
X131024956Y-83089543D01*
X131034921Y-83110613D01*
X131042773Y-83132557D01*
X131048437Y-83155166D01*
X131051856Y-83178221D01*
X131053000Y-83201500D01*
X131053000Y-83676500D01*
X131051856Y-83699779D01*
X131048437Y-83722834D01*
X131042773Y-83745443D01*
X131034921Y-83767387D01*
X131024956Y-83788457D01*
X131012974Y-83808448D01*
X130999090Y-83827168D01*
X130983438Y-83844438D01*
X130966168Y-83860090D01*
X130947448Y-83873974D01*
X130927457Y-83885956D01*
X130906387Y-83895921D01*
X130884443Y-83903773D01*
X130861834Y-83909437D01*
X130838779Y-83912856D01*
X130815500Y-83914000D01*
X130240500Y-83914000D01*
X130217221Y-83912856D01*
X130194166Y-83909437D01*
X130171557Y-83903773D01*
X130149613Y-83895921D01*
X130128543Y-83885956D01*
X130108552Y-83873974D01*
X130089832Y-83860090D01*
X130072562Y-83844438D01*
X130056910Y-83827168D01*
X130043026Y-83808448D01*
X130031044Y-83788457D01*
X130021079Y-83767387D01*
X130013227Y-83745443D01*
X130007563Y-83722834D01*
X130004144Y-83699779D01*
X130003000Y-83676500D01*
X130003000Y-83201500D01*
X130004144Y-83178221D01*
X130007563Y-83155166D01*
X130013227Y-83132557D01*
X130021079Y-83110613D01*
X130031044Y-83089543D01*
X130043026Y-83069552D01*
X130056910Y-83050832D01*
X130072562Y-83033562D01*
X130089832Y-83017910D01*
X130108552Y-83004026D01*
X130128543Y-82992044D01*
X130149613Y-82982079D01*
X130171557Y-82974227D01*
X130194166Y-82968563D01*
X130217221Y-82965144D01*
X130240500Y-82964000D01*
X130815500Y-82964000D01*
X130838779Y-82965144D01*
X130838779Y-82965144D01*
G37*
D11*
X130528000Y-83439000D03*
G04 #@! TD*
D10*
G04 #@! TO.C,C14*
G36*
X131346779Y-79282144D02*
X131369834Y-79285563D01*
X131392443Y-79291227D01*
X131414387Y-79299079D01*
X131435457Y-79309044D01*
X131455448Y-79321026D01*
X131474168Y-79334910D01*
X131491438Y-79350562D01*
X131507090Y-79367832D01*
X131520974Y-79386552D01*
X131532956Y-79406543D01*
X131542921Y-79427613D01*
X131550773Y-79449557D01*
X131556437Y-79472166D01*
X131559856Y-79495221D01*
X131561000Y-79518500D01*
X131561000Y-79993500D01*
X131559856Y-80016779D01*
X131556437Y-80039834D01*
X131550773Y-80062443D01*
X131542921Y-80084387D01*
X131532956Y-80105457D01*
X131520974Y-80125448D01*
X131507090Y-80144168D01*
X131491438Y-80161438D01*
X131474168Y-80177090D01*
X131455448Y-80190974D01*
X131435457Y-80202956D01*
X131414387Y-80212921D01*
X131392443Y-80220773D01*
X131369834Y-80226437D01*
X131346779Y-80229856D01*
X131323500Y-80231000D01*
X130748500Y-80231000D01*
X130725221Y-80229856D01*
X130702166Y-80226437D01*
X130679557Y-80220773D01*
X130657613Y-80212921D01*
X130636543Y-80202956D01*
X130616552Y-80190974D01*
X130597832Y-80177090D01*
X130580562Y-80161438D01*
X130564910Y-80144168D01*
X130551026Y-80125448D01*
X130539044Y-80105457D01*
X130529079Y-80084387D01*
X130521227Y-80062443D01*
X130515563Y-80039834D01*
X130512144Y-80016779D01*
X130511000Y-79993500D01*
X130511000Y-79518500D01*
X130512144Y-79495221D01*
X130515563Y-79472166D01*
X130521227Y-79449557D01*
X130529079Y-79427613D01*
X130539044Y-79406543D01*
X130551026Y-79386552D01*
X130564910Y-79367832D01*
X130580562Y-79350562D01*
X130597832Y-79334910D01*
X130616552Y-79321026D01*
X130636543Y-79309044D01*
X130657613Y-79299079D01*
X130679557Y-79291227D01*
X130702166Y-79285563D01*
X130725221Y-79282144D01*
X130748500Y-79281000D01*
X131323500Y-79281000D01*
X131346779Y-79282144D01*
X131346779Y-79282144D01*
G37*
D11*
X131036000Y-79756000D03*
D10*
G36*
X129596779Y-79282144D02*
X129619834Y-79285563D01*
X129642443Y-79291227D01*
X129664387Y-79299079D01*
X129685457Y-79309044D01*
X129705448Y-79321026D01*
X129724168Y-79334910D01*
X129741438Y-79350562D01*
X129757090Y-79367832D01*
X129770974Y-79386552D01*
X129782956Y-79406543D01*
X129792921Y-79427613D01*
X129800773Y-79449557D01*
X129806437Y-79472166D01*
X129809856Y-79495221D01*
X129811000Y-79518500D01*
X129811000Y-79993500D01*
X129809856Y-80016779D01*
X129806437Y-80039834D01*
X129800773Y-80062443D01*
X129792921Y-80084387D01*
X129782956Y-80105457D01*
X129770974Y-80125448D01*
X129757090Y-80144168D01*
X129741438Y-80161438D01*
X129724168Y-80177090D01*
X129705448Y-80190974D01*
X129685457Y-80202956D01*
X129664387Y-80212921D01*
X129642443Y-80220773D01*
X129619834Y-80226437D01*
X129596779Y-80229856D01*
X129573500Y-80231000D01*
X128998500Y-80231000D01*
X128975221Y-80229856D01*
X128952166Y-80226437D01*
X128929557Y-80220773D01*
X128907613Y-80212921D01*
X128886543Y-80202956D01*
X128866552Y-80190974D01*
X128847832Y-80177090D01*
X128830562Y-80161438D01*
X128814910Y-80144168D01*
X128801026Y-80125448D01*
X128789044Y-80105457D01*
X128779079Y-80084387D01*
X128771227Y-80062443D01*
X128765563Y-80039834D01*
X128762144Y-80016779D01*
X128761000Y-79993500D01*
X128761000Y-79518500D01*
X128762144Y-79495221D01*
X128765563Y-79472166D01*
X128771227Y-79449557D01*
X128779079Y-79427613D01*
X128789044Y-79406543D01*
X128801026Y-79386552D01*
X128814910Y-79367832D01*
X128830562Y-79350562D01*
X128847832Y-79334910D01*
X128866552Y-79321026D01*
X128886543Y-79309044D01*
X128907613Y-79299079D01*
X128929557Y-79291227D01*
X128952166Y-79285563D01*
X128975221Y-79282144D01*
X128998500Y-79281000D01*
X129573500Y-79281000D01*
X129596779Y-79282144D01*
X129596779Y-79282144D01*
G37*
D11*
X129286000Y-79756000D03*
G04 #@! TD*
D10*
G04 #@! TO.C,C15*
G36*
X120981505Y-64579204D02*
X121005773Y-64582804D01*
X121029572Y-64588765D01*
X121052671Y-64597030D01*
X121074850Y-64607520D01*
X121095893Y-64620132D01*
X121115599Y-64634747D01*
X121133777Y-64651223D01*
X121150253Y-64669401D01*
X121164868Y-64689107D01*
X121177480Y-64710150D01*
X121187970Y-64732329D01*
X121196235Y-64755428D01*
X121202196Y-64779227D01*
X121205796Y-64803495D01*
X121207000Y-64827999D01*
X121207000Y-65728001D01*
X121205796Y-65752505D01*
X121202196Y-65776773D01*
X121196235Y-65800572D01*
X121187970Y-65823671D01*
X121177480Y-65845850D01*
X121164868Y-65866893D01*
X121150253Y-65886599D01*
X121133777Y-65904777D01*
X121115599Y-65921253D01*
X121095893Y-65935868D01*
X121074850Y-65948480D01*
X121052671Y-65958970D01*
X121029572Y-65967235D01*
X121005773Y-65973196D01*
X120981505Y-65976796D01*
X120957001Y-65978000D01*
X120306999Y-65978000D01*
X120282495Y-65976796D01*
X120258227Y-65973196D01*
X120234428Y-65967235D01*
X120211329Y-65958970D01*
X120189150Y-65948480D01*
X120168107Y-65935868D01*
X120148401Y-65921253D01*
X120130223Y-65904777D01*
X120113747Y-65886599D01*
X120099132Y-65866893D01*
X120086520Y-65845850D01*
X120076030Y-65823671D01*
X120067765Y-65800572D01*
X120061804Y-65776773D01*
X120058204Y-65752505D01*
X120057000Y-65728001D01*
X120057000Y-64827999D01*
X120058204Y-64803495D01*
X120061804Y-64779227D01*
X120067765Y-64755428D01*
X120076030Y-64732329D01*
X120086520Y-64710150D01*
X120099132Y-64689107D01*
X120113747Y-64669401D01*
X120130223Y-64651223D01*
X120148401Y-64634747D01*
X120168107Y-64620132D01*
X120189150Y-64607520D01*
X120211329Y-64597030D01*
X120234428Y-64588765D01*
X120258227Y-64582804D01*
X120282495Y-64579204D01*
X120306999Y-64578000D01*
X120957001Y-64578000D01*
X120981505Y-64579204D01*
X120981505Y-64579204D01*
G37*
D14*
X120632000Y-65278000D03*
D10*
G36*
X123031505Y-64579204D02*
X123055773Y-64582804D01*
X123079572Y-64588765D01*
X123102671Y-64597030D01*
X123124850Y-64607520D01*
X123145893Y-64620132D01*
X123165599Y-64634747D01*
X123183777Y-64651223D01*
X123200253Y-64669401D01*
X123214868Y-64689107D01*
X123227480Y-64710150D01*
X123237970Y-64732329D01*
X123246235Y-64755428D01*
X123252196Y-64779227D01*
X123255796Y-64803495D01*
X123257000Y-64827999D01*
X123257000Y-65728001D01*
X123255796Y-65752505D01*
X123252196Y-65776773D01*
X123246235Y-65800572D01*
X123237970Y-65823671D01*
X123227480Y-65845850D01*
X123214868Y-65866893D01*
X123200253Y-65886599D01*
X123183777Y-65904777D01*
X123165599Y-65921253D01*
X123145893Y-65935868D01*
X123124850Y-65948480D01*
X123102671Y-65958970D01*
X123079572Y-65967235D01*
X123055773Y-65973196D01*
X123031505Y-65976796D01*
X123007001Y-65978000D01*
X122356999Y-65978000D01*
X122332495Y-65976796D01*
X122308227Y-65973196D01*
X122284428Y-65967235D01*
X122261329Y-65958970D01*
X122239150Y-65948480D01*
X122218107Y-65935868D01*
X122198401Y-65921253D01*
X122180223Y-65904777D01*
X122163747Y-65886599D01*
X122149132Y-65866893D01*
X122136520Y-65845850D01*
X122126030Y-65823671D01*
X122117765Y-65800572D01*
X122111804Y-65776773D01*
X122108204Y-65752505D01*
X122107000Y-65728001D01*
X122107000Y-64827999D01*
X122108204Y-64803495D01*
X122111804Y-64779227D01*
X122117765Y-64755428D01*
X122126030Y-64732329D01*
X122136520Y-64710150D01*
X122149132Y-64689107D01*
X122163747Y-64669401D01*
X122180223Y-64651223D01*
X122198401Y-64634747D01*
X122218107Y-64620132D01*
X122239150Y-64607520D01*
X122261329Y-64597030D01*
X122284428Y-64588765D01*
X122308227Y-64582804D01*
X122332495Y-64579204D01*
X122356999Y-64578000D01*
X123007001Y-64578000D01*
X123031505Y-64579204D01*
X123031505Y-64579204D01*
G37*
D14*
X122682000Y-65278000D03*
G04 #@! TD*
D10*
G04 #@! TO.C,C17*
G36*
X129624779Y-80806144D02*
X129647834Y-80809563D01*
X129670443Y-80815227D01*
X129692387Y-80823079D01*
X129713457Y-80833044D01*
X129733448Y-80845026D01*
X129752168Y-80858910D01*
X129769438Y-80874562D01*
X129785090Y-80891832D01*
X129798974Y-80910552D01*
X129810956Y-80930543D01*
X129820921Y-80951613D01*
X129828773Y-80973557D01*
X129834437Y-80996166D01*
X129837856Y-81019221D01*
X129839000Y-81042500D01*
X129839000Y-81517500D01*
X129837856Y-81540779D01*
X129834437Y-81563834D01*
X129828773Y-81586443D01*
X129820921Y-81608387D01*
X129810956Y-81629457D01*
X129798974Y-81649448D01*
X129785090Y-81668168D01*
X129769438Y-81685438D01*
X129752168Y-81701090D01*
X129733448Y-81714974D01*
X129713457Y-81726956D01*
X129692387Y-81736921D01*
X129670443Y-81744773D01*
X129647834Y-81750437D01*
X129624779Y-81753856D01*
X129601500Y-81755000D01*
X129026500Y-81755000D01*
X129003221Y-81753856D01*
X128980166Y-81750437D01*
X128957557Y-81744773D01*
X128935613Y-81736921D01*
X128914543Y-81726956D01*
X128894552Y-81714974D01*
X128875832Y-81701090D01*
X128858562Y-81685438D01*
X128842910Y-81668168D01*
X128829026Y-81649448D01*
X128817044Y-81629457D01*
X128807079Y-81608387D01*
X128799227Y-81586443D01*
X128793563Y-81563834D01*
X128790144Y-81540779D01*
X128789000Y-81517500D01*
X128789000Y-81042500D01*
X128790144Y-81019221D01*
X128793563Y-80996166D01*
X128799227Y-80973557D01*
X128807079Y-80951613D01*
X128817044Y-80930543D01*
X128829026Y-80910552D01*
X128842910Y-80891832D01*
X128858562Y-80874562D01*
X128875832Y-80858910D01*
X128894552Y-80845026D01*
X128914543Y-80833044D01*
X128935613Y-80823079D01*
X128957557Y-80815227D01*
X128980166Y-80809563D01*
X129003221Y-80806144D01*
X129026500Y-80805000D01*
X129601500Y-80805000D01*
X129624779Y-80806144D01*
X129624779Y-80806144D01*
G37*
D11*
X129314000Y-81280000D03*
D10*
G36*
X131374779Y-80806144D02*
X131397834Y-80809563D01*
X131420443Y-80815227D01*
X131442387Y-80823079D01*
X131463457Y-80833044D01*
X131483448Y-80845026D01*
X131502168Y-80858910D01*
X131519438Y-80874562D01*
X131535090Y-80891832D01*
X131548974Y-80910552D01*
X131560956Y-80930543D01*
X131570921Y-80951613D01*
X131578773Y-80973557D01*
X131584437Y-80996166D01*
X131587856Y-81019221D01*
X131589000Y-81042500D01*
X131589000Y-81517500D01*
X131587856Y-81540779D01*
X131584437Y-81563834D01*
X131578773Y-81586443D01*
X131570921Y-81608387D01*
X131560956Y-81629457D01*
X131548974Y-81649448D01*
X131535090Y-81668168D01*
X131519438Y-81685438D01*
X131502168Y-81701090D01*
X131483448Y-81714974D01*
X131463457Y-81726956D01*
X131442387Y-81736921D01*
X131420443Y-81744773D01*
X131397834Y-81750437D01*
X131374779Y-81753856D01*
X131351500Y-81755000D01*
X130776500Y-81755000D01*
X130753221Y-81753856D01*
X130730166Y-81750437D01*
X130707557Y-81744773D01*
X130685613Y-81736921D01*
X130664543Y-81726956D01*
X130644552Y-81714974D01*
X130625832Y-81701090D01*
X130608562Y-81685438D01*
X130592910Y-81668168D01*
X130579026Y-81649448D01*
X130567044Y-81629457D01*
X130557079Y-81608387D01*
X130549227Y-81586443D01*
X130543563Y-81563834D01*
X130540144Y-81540779D01*
X130539000Y-81517500D01*
X130539000Y-81042500D01*
X130540144Y-81019221D01*
X130543563Y-80996166D01*
X130549227Y-80973557D01*
X130557079Y-80951613D01*
X130567044Y-80930543D01*
X130579026Y-80910552D01*
X130592910Y-80891832D01*
X130608562Y-80874562D01*
X130625832Y-80858910D01*
X130644552Y-80845026D01*
X130664543Y-80833044D01*
X130685613Y-80823079D01*
X130707557Y-80815227D01*
X130730166Y-80809563D01*
X130753221Y-80806144D01*
X130776500Y-80805000D01*
X131351500Y-80805000D01*
X131374779Y-80806144D01*
X131374779Y-80806144D01*
G37*
D11*
X131064000Y-81280000D03*
G04 #@! TD*
D10*
G04 #@! TO.C,C18*
G36*
X119366505Y-81089204D02*
X119390773Y-81092804D01*
X119414572Y-81098765D01*
X119437671Y-81107030D01*
X119459850Y-81117520D01*
X119480893Y-81130132D01*
X119500599Y-81144747D01*
X119518777Y-81161223D01*
X119535253Y-81179401D01*
X119549868Y-81199107D01*
X119562480Y-81220150D01*
X119572970Y-81242329D01*
X119581235Y-81265428D01*
X119587196Y-81289227D01*
X119590796Y-81313495D01*
X119592000Y-81337999D01*
X119592000Y-82238001D01*
X119590796Y-82262505D01*
X119587196Y-82286773D01*
X119581235Y-82310572D01*
X119572970Y-82333671D01*
X119562480Y-82355850D01*
X119549868Y-82376893D01*
X119535253Y-82396599D01*
X119518777Y-82414777D01*
X119500599Y-82431253D01*
X119480893Y-82445868D01*
X119459850Y-82458480D01*
X119437671Y-82468970D01*
X119414572Y-82477235D01*
X119390773Y-82483196D01*
X119366505Y-82486796D01*
X119342001Y-82488000D01*
X118691999Y-82488000D01*
X118667495Y-82486796D01*
X118643227Y-82483196D01*
X118619428Y-82477235D01*
X118596329Y-82468970D01*
X118574150Y-82458480D01*
X118553107Y-82445868D01*
X118533401Y-82431253D01*
X118515223Y-82414777D01*
X118498747Y-82396599D01*
X118484132Y-82376893D01*
X118471520Y-82355850D01*
X118461030Y-82333671D01*
X118452765Y-82310572D01*
X118446804Y-82286773D01*
X118443204Y-82262505D01*
X118442000Y-82238001D01*
X118442000Y-81337999D01*
X118443204Y-81313495D01*
X118446804Y-81289227D01*
X118452765Y-81265428D01*
X118461030Y-81242329D01*
X118471520Y-81220150D01*
X118484132Y-81199107D01*
X118498747Y-81179401D01*
X118515223Y-81161223D01*
X118533401Y-81144747D01*
X118553107Y-81130132D01*
X118574150Y-81117520D01*
X118596329Y-81107030D01*
X118619428Y-81098765D01*
X118643227Y-81092804D01*
X118667495Y-81089204D01*
X118691999Y-81088000D01*
X119342001Y-81088000D01*
X119366505Y-81089204D01*
X119366505Y-81089204D01*
G37*
D14*
X119017000Y-81788000D03*
D10*
G36*
X117316505Y-81089204D02*
X117340773Y-81092804D01*
X117364572Y-81098765D01*
X117387671Y-81107030D01*
X117409850Y-81117520D01*
X117430893Y-81130132D01*
X117450599Y-81144747D01*
X117468777Y-81161223D01*
X117485253Y-81179401D01*
X117499868Y-81199107D01*
X117512480Y-81220150D01*
X117522970Y-81242329D01*
X117531235Y-81265428D01*
X117537196Y-81289227D01*
X117540796Y-81313495D01*
X117542000Y-81337999D01*
X117542000Y-82238001D01*
X117540796Y-82262505D01*
X117537196Y-82286773D01*
X117531235Y-82310572D01*
X117522970Y-82333671D01*
X117512480Y-82355850D01*
X117499868Y-82376893D01*
X117485253Y-82396599D01*
X117468777Y-82414777D01*
X117450599Y-82431253D01*
X117430893Y-82445868D01*
X117409850Y-82458480D01*
X117387671Y-82468970D01*
X117364572Y-82477235D01*
X117340773Y-82483196D01*
X117316505Y-82486796D01*
X117292001Y-82488000D01*
X116641999Y-82488000D01*
X116617495Y-82486796D01*
X116593227Y-82483196D01*
X116569428Y-82477235D01*
X116546329Y-82468970D01*
X116524150Y-82458480D01*
X116503107Y-82445868D01*
X116483401Y-82431253D01*
X116465223Y-82414777D01*
X116448747Y-82396599D01*
X116434132Y-82376893D01*
X116421520Y-82355850D01*
X116411030Y-82333671D01*
X116402765Y-82310572D01*
X116396804Y-82286773D01*
X116393204Y-82262505D01*
X116392000Y-82238001D01*
X116392000Y-81337999D01*
X116393204Y-81313495D01*
X116396804Y-81289227D01*
X116402765Y-81265428D01*
X116411030Y-81242329D01*
X116421520Y-81220150D01*
X116434132Y-81199107D01*
X116448747Y-81179401D01*
X116465223Y-81161223D01*
X116483401Y-81144747D01*
X116503107Y-81130132D01*
X116524150Y-81117520D01*
X116546329Y-81107030D01*
X116569428Y-81098765D01*
X116593227Y-81092804D01*
X116617495Y-81089204D01*
X116641999Y-81088000D01*
X117292001Y-81088000D01*
X117316505Y-81089204D01*
X117316505Y-81089204D01*
G37*
D14*
X116967000Y-81788000D03*
G04 #@! TD*
D10*
G04 #@! TO.C,C20*
G36*
X115195779Y-78978144D02*
X115218834Y-78981563D01*
X115241443Y-78987227D01*
X115263387Y-78995079D01*
X115284457Y-79005044D01*
X115304448Y-79017026D01*
X115323168Y-79030910D01*
X115340438Y-79046562D01*
X115356090Y-79063832D01*
X115369974Y-79082552D01*
X115381956Y-79102543D01*
X115391921Y-79123613D01*
X115399773Y-79145557D01*
X115405437Y-79168166D01*
X115408856Y-79191221D01*
X115410000Y-79214500D01*
X115410000Y-79789500D01*
X115408856Y-79812779D01*
X115405437Y-79835834D01*
X115399773Y-79858443D01*
X115391921Y-79880387D01*
X115381956Y-79901457D01*
X115369974Y-79921448D01*
X115356090Y-79940168D01*
X115340438Y-79957438D01*
X115323168Y-79973090D01*
X115304448Y-79986974D01*
X115284457Y-79998956D01*
X115263387Y-80008921D01*
X115241443Y-80016773D01*
X115218834Y-80022437D01*
X115195779Y-80025856D01*
X115172500Y-80027000D01*
X114697500Y-80027000D01*
X114674221Y-80025856D01*
X114651166Y-80022437D01*
X114628557Y-80016773D01*
X114606613Y-80008921D01*
X114585543Y-79998956D01*
X114565552Y-79986974D01*
X114546832Y-79973090D01*
X114529562Y-79957438D01*
X114513910Y-79940168D01*
X114500026Y-79921448D01*
X114488044Y-79901457D01*
X114478079Y-79880387D01*
X114470227Y-79858443D01*
X114464563Y-79835834D01*
X114461144Y-79812779D01*
X114460000Y-79789500D01*
X114460000Y-79214500D01*
X114461144Y-79191221D01*
X114464563Y-79168166D01*
X114470227Y-79145557D01*
X114478079Y-79123613D01*
X114488044Y-79102543D01*
X114500026Y-79082552D01*
X114513910Y-79063832D01*
X114529562Y-79046562D01*
X114546832Y-79030910D01*
X114565552Y-79017026D01*
X114585543Y-79005044D01*
X114606613Y-78995079D01*
X114628557Y-78987227D01*
X114651166Y-78981563D01*
X114674221Y-78978144D01*
X114697500Y-78977000D01*
X115172500Y-78977000D01*
X115195779Y-78978144D01*
X115195779Y-78978144D01*
G37*
D11*
X114935000Y-79502000D03*
D10*
G36*
X115195779Y-80728144D02*
X115218834Y-80731563D01*
X115241443Y-80737227D01*
X115263387Y-80745079D01*
X115284457Y-80755044D01*
X115304448Y-80767026D01*
X115323168Y-80780910D01*
X115340438Y-80796562D01*
X115356090Y-80813832D01*
X115369974Y-80832552D01*
X115381956Y-80852543D01*
X115391921Y-80873613D01*
X115399773Y-80895557D01*
X115405437Y-80918166D01*
X115408856Y-80941221D01*
X115410000Y-80964500D01*
X115410000Y-81539500D01*
X115408856Y-81562779D01*
X115405437Y-81585834D01*
X115399773Y-81608443D01*
X115391921Y-81630387D01*
X115381956Y-81651457D01*
X115369974Y-81671448D01*
X115356090Y-81690168D01*
X115340438Y-81707438D01*
X115323168Y-81723090D01*
X115304448Y-81736974D01*
X115284457Y-81748956D01*
X115263387Y-81758921D01*
X115241443Y-81766773D01*
X115218834Y-81772437D01*
X115195779Y-81775856D01*
X115172500Y-81777000D01*
X114697500Y-81777000D01*
X114674221Y-81775856D01*
X114651166Y-81772437D01*
X114628557Y-81766773D01*
X114606613Y-81758921D01*
X114585543Y-81748956D01*
X114565552Y-81736974D01*
X114546832Y-81723090D01*
X114529562Y-81707438D01*
X114513910Y-81690168D01*
X114500026Y-81671448D01*
X114488044Y-81651457D01*
X114478079Y-81630387D01*
X114470227Y-81608443D01*
X114464563Y-81585834D01*
X114461144Y-81562779D01*
X114460000Y-81539500D01*
X114460000Y-80964500D01*
X114461144Y-80941221D01*
X114464563Y-80918166D01*
X114470227Y-80895557D01*
X114478079Y-80873613D01*
X114488044Y-80852543D01*
X114500026Y-80832552D01*
X114513910Y-80813832D01*
X114529562Y-80796562D01*
X114546832Y-80780910D01*
X114565552Y-80767026D01*
X114585543Y-80755044D01*
X114606613Y-80745079D01*
X114628557Y-80737227D01*
X114651166Y-80731563D01*
X114674221Y-80728144D01*
X114697500Y-80727000D01*
X115172500Y-80727000D01*
X115195779Y-80728144D01*
X115195779Y-80728144D01*
G37*
D11*
X114935000Y-81252000D03*
G04 #@! TD*
D10*
G04 #@! TO.C,C30*
G36*
X110877779Y-68183144D02*
X110900834Y-68186563D01*
X110923443Y-68192227D01*
X110945387Y-68200079D01*
X110966457Y-68210044D01*
X110986448Y-68222026D01*
X111005168Y-68235910D01*
X111022438Y-68251562D01*
X111038090Y-68268832D01*
X111051974Y-68287552D01*
X111063956Y-68307543D01*
X111073921Y-68328613D01*
X111081773Y-68350557D01*
X111087437Y-68373166D01*
X111090856Y-68396221D01*
X111092000Y-68419500D01*
X111092000Y-68994500D01*
X111090856Y-69017779D01*
X111087437Y-69040834D01*
X111081773Y-69063443D01*
X111073921Y-69085387D01*
X111063956Y-69106457D01*
X111051974Y-69126448D01*
X111038090Y-69145168D01*
X111022438Y-69162438D01*
X111005168Y-69178090D01*
X110986448Y-69191974D01*
X110966457Y-69203956D01*
X110945387Y-69213921D01*
X110923443Y-69221773D01*
X110900834Y-69227437D01*
X110877779Y-69230856D01*
X110854500Y-69232000D01*
X110379500Y-69232000D01*
X110356221Y-69230856D01*
X110333166Y-69227437D01*
X110310557Y-69221773D01*
X110288613Y-69213921D01*
X110267543Y-69203956D01*
X110247552Y-69191974D01*
X110228832Y-69178090D01*
X110211562Y-69162438D01*
X110195910Y-69145168D01*
X110182026Y-69126448D01*
X110170044Y-69106457D01*
X110160079Y-69085387D01*
X110152227Y-69063443D01*
X110146563Y-69040834D01*
X110143144Y-69017779D01*
X110142000Y-68994500D01*
X110142000Y-68419500D01*
X110143144Y-68396221D01*
X110146563Y-68373166D01*
X110152227Y-68350557D01*
X110160079Y-68328613D01*
X110170044Y-68307543D01*
X110182026Y-68287552D01*
X110195910Y-68268832D01*
X110211562Y-68251562D01*
X110228832Y-68235910D01*
X110247552Y-68222026D01*
X110267543Y-68210044D01*
X110288613Y-68200079D01*
X110310557Y-68192227D01*
X110333166Y-68186563D01*
X110356221Y-68183144D01*
X110379500Y-68182000D01*
X110854500Y-68182000D01*
X110877779Y-68183144D01*
X110877779Y-68183144D01*
G37*
D11*
X110617000Y-68707000D03*
D10*
G36*
X110877779Y-69933144D02*
X110900834Y-69936563D01*
X110923443Y-69942227D01*
X110945387Y-69950079D01*
X110966457Y-69960044D01*
X110986448Y-69972026D01*
X111005168Y-69985910D01*
X111022438Y-70001562D01*
X111038090Y-70018832D01*
X111051974Y-70037552D01*
X111063956Y-70057543D01*
X111073921Y-70078613D01*
X111081773Y-70100557D01*
X111087437Y-70123166D01*
X111090856Y-70146221D01*
X111092000Y-70169500D01*
X111092000Y-70744500D01*
X111090856Y-70767779D01*
X111087437Y-70790834D01*
X111081773Y-70813443D01*
X111073921Y-70835387D01*
X111063956Y-70856457D01*
X111051974Y-70876448D01*
X111038090Y-70895168D01*
X111022438Y-70912438D01*
X111005168Y-70928090D01*
X110986448Y-70941974D01*
X110966457Y-70953956D01*
X110945387Y-70963921D01*
X110923443Y-70971773D01*
X110900834Y-70977437D01*
X110877779Y-70980856D01*
X110854500Y-70982000D01*
X110379500Y-70982000D01*
X110356221Y-70980856D01*
X110333166Y-70977437D01*
X110310557Y-70971773D01*
X110288613Y-70963921D01*
X110267543Y-70953956D01*
X110247552Y-70941974D01*
X110228832Y-70928090D01*
X110211562Y-70912438D01*
X110195910Y-70895168D01*
X110182026Y-70876448D01*
X110170044Y-70856457D01*
X110160079Y-70835387D01*
X110152227Y-70813443D01*
X110146563Y-70790834D01*
X110143144Y-70767779D01*
X110142000Y-70744500D01*
X110142000Y-70169500D01*
X110143144Y-70146221D01*
X110146563Y-70123166D01*
X110152227Y-70100557D01*
X110160079Y-70078613D01*
X110170044Y-70057543D01*
X110182026Y-70037552D01*
X110195910Y-70018832D01*
X110211562Y-70001562D01*
X110228832Y-69985910D01*
X110247552Y-69972026D01*
X110267543Y-69960044D01*
X110288613Y-69950079D01*
X110310557Y-69942227D01*
X110333166Y-69936563D01*
X110356221Y-69933144D01*
X110379500Y-69932000D01*
X110854500Y-69932000D01*
X110877779Y-69933144D01*
X110877779Y-69933144D01*
G37*
D11*
X110617000Y-70457000D03*
G04 #@! TD*
D10*
G04 #@! TO.C,C31*
G36*
X114074779Y-66201144D02*
X114097834Y-66204563D01*
X114120443Y-66210227D01*
X114142387Y-66218079D01*
X114163457Y-66228044D01*
X114183448Y-66240026D01*
X114202168Y-66253910D01*
X114219438Y-66269562D01*
X114235090Y-66286832D01*
X114248974Y-66305552D01*
X114260956Y-66325543D01*
X114270921Y-66346613D01*
X114278773Y-66368557D01*
X114284437Y-66391166D01*
X114287856Y-66414221D01*
X114289000Y-66437500D01*
X114289000Y-66912500D01*
X114287856Y-66935779D01*
X114284437Y-66958834D01*
X114278773Y-66981443D01*
X114270921Y-67003387D01*
X114260956Y-67024457D01*
X114248974Y-67044448D01*
X114235090Y-67063168D01*
X114219438Y-67080438D01*
X114202168Y-67096090D01*
X114183448Y-67109974D01*
X114163457Y-67121956D01*
X114142387Y-67131921D01*
X114120443Y-67139773D01*
X114097834Y-67145437D01*
X114074779Y-67148856D01*
X114051500Y-67150000D01*
X113476500Y-67150000D01*
X113453221Y-67148856D01*
X113430166Y-67145437D01*
X113407557Y-67139773D01*
X113385613Y-67131921D01*
X113364543Y-67121956D01*
X113344552Y-67109974D01*
X113325832Y-67096090D01*
X113308562Y-67080438D01*
X113292910Y-67063168D01*
X113279026Y-67044448D01*
X113267044Y-67024457D01*
X113257079Y-67003387D01*
X113249227Y-66981443D01*
X113243563Y-66958834D01*
X113240144Y-66935779D01*
X113239000Y-66912500D01*
X113239000Y-66437500D01*
X113240144Y-66414221D01*
X113243563Y-66391166D01*
X113249227Y-66368557D01*
X113257079Y-66346613D01*
X113267044Y-66325543D01*
X113279026Y-66305552D01*
X113292910Y-66286832D01*
X113308562Y-66269562D01*
X113325832Y-66253910D01*
X113344552Y-66240026D01*
X113364543Y-66228044D01*
X113385613Y-66218079D01*
X113407557Y-66210227D01*
X113430166Y-66204563D01*
X113453221Y-66201144D01*
X113476500Y-66200000D01*
X114051500Y-66200000D01*
X114074779Y-66201144D01*
X114074779Y-66201144D01*
G37*
D11*
X113764000Y-66675000D03*
D10*
G36*
X112324779Y-66201144D02*
X112347834Y-66204563D01*
X112370443Y-66210227D01*
X112392387Y-66218079D01*
X112413457Y-66228044D01*
X112433448Y-66240026D01*
X112452168Y-66253910D01*
X112469438Y-66269562D01*
X112485090Y-66286832D01*
X112498974Y-66305552D01*
X112510956Y-66325543D01*
X112520921Y-66346613D01*
X112528773Y-66368557D01*
X112534437Y-66391166D01*
X112537856Y-66414221D01*
X112539000Y-66437500D01*
X112539000Y-66912500D01*
X112537856Y-66935779D01*
X112534437Y-66958834D01*
X112528773Y-66981443D01*
X112520921Y-67003387D01*
X112510956Y-67024457D01*
X112498974Y-67044448D01*
X112485090Y-67063168D01*
X112469438Y-67080438D01*
X112452168Y-67096090D01*
X112433448Y-67109974D01*
X112413457Y-67121956D01*
X112392387Y-67131921D01*
X112370443Y-67139773D01*
X112347834Y-67145437D01*
X112324779Y-67148856D01*
X112301500Y-67150000D01*
X111726500Y-67150000D01*
X111703221Y-67148856D01*
X111680166Y-67145437D01*
X111657557Y-67139773D01*
X111635613Y-67131921D01*
X111614543Y-67121956D01*
X111594552Y-67109974D01*
X111575832Y-67096090D01*
X111558562Y-67080438D01*
X111542910Y-67063168D01*
X111529026Y-67044448D01*
X111517044Y-67024457D01*
X111507079Y-67003387D01*
X111499227Y-66981443D01*
X111493563Y-66958834D01*
X111490144Y-66935779D01*
X111489000Y-66912500D01*
X111489000Y-66437500D01*
X111490144Y-66414221D01*
X111493563Y-66391166D01*
X111499227Y-66368557D01*
X111507079Y-66346613D01*
X111517044Y-66325543D01*
X111529026Y-66305552D01*
X111542910Y-66286832D01*
X111558562Y-66269562D01*
X111575832Y-66253910D01*
X111594552Y-66240026D01*
X111614543Y-66228044D01*
X111635613Y-66218079D01*
X111657557Y-66210227D01*
X111680166Y-66204563D01*
X111703221Y-66201144D01*
X111726500Y-66200000D01*
X112301500Y-66200000D01*
X112324779Y-66201144D01*
X112324779Y-66201144D01*
G37*
D11*
X112014000Y-66675000D03*
G04 #@! TD*
D10*
G04 #@! TO.C,C32*
G36*
X116973779Y-64754144D02*
X116996834Y-64757563D01*
X117019443Y-64763227D01*
X117041387Y-64771079D01*
X117062457Y-64781044D01*
X117082448Y-64793026D01*
X117101168Y-64806910D01*
X117118438Y-64822562D01*
X117134090Y-64839832D01*
X117147974Y-64858552D01*
X117159956Y-64878543D01*
X117169921Y-64899613D01*
X117177773Y-64921557D01*
X117183437Y-64944166D01*
X117186856Y-64967221D01*
X117188000Y-64990500D01*
X117188000Y-65565500D01*
X117186856Y-65588779D01*
X117183437Y-65611834D01*
X117177773Y-65634443D01*
X117169921Y-65656387D01*
X117159956Y-65677457D01*
X117147974Y-65697448D01*
X117134090Y-65716168D01*
X117118438Y-65733438D01*
X117101168Y-65749090D01*
X117082448Y-65762974D01*
X117062457Y-65774956D01*
X117041387Y-65784921D01*
X117019443Y-65792773D01*
X116996834Y-65798437D01*
X116973779Y-65801856D01*
X116950500Y-65803000D01*
X116475500Y-65803000D01*
X116452221Y-65801856D01*
X116429166Y-65798437D01*
X116406557Y-65792773D01*
X116384613Y-65784921D01*
X116363543Y-65774956D01*
X116343552Y-65762974D01*
X116324832Y-65749090D01*
X116307562Y-65733438D01*
X116291910Y-65716168D01*
X116278026Y-65697448D01*
X116266044Y-65677457D01*
X116256079Y-65656387D01*
X116248227Y-65634443D01*
X116242563Y-65611834D01*
X116239144Y-65588779D01*
X116238000Y-65565500D01*
X116238000Y-64990500D01*
X116239144Y-64967221D01*
X116242563Y-64944166D01*
X116248227Y-64921557D01*
X116256079Y-64899613D01*
X116266044Y-64878543D01*
X116278026Y-64858552D01*
X116291910Y-64839832D01*
X116307562Y-64822562D01*
X116324832Y-64806910D01*
X116343552Y-64793026D01*
X116363543Y-64781044D01*
X116384613Y-64771079D01*
X116406557Y-64763227D01*
X116429166Y-64757563D01*
X116452221Y-64754144D01*
X116475500Y-64753000D01*
X116950500Y-64753000D01*
X116973779Y-64754144D01*
X116973779Y-64754144D01*
G37*
D11*
X116713000Y-65278000D03*
D10*
G36*
X116973779Y-66504144D02*
X116996834Y-66507563D01*
X117019443Y-66513227D01*
X117041387Y-66521079D01*
X117062457Y-66531044D01*
X117082448Y-66543026D01*
X117101168Y-66556910D01*
X117118438Y-66572562D01*
X117134090Y-66589832D01*
X117147974Y-66608552D01*
X117159956Y-66628543D01*
X117169921Y-66649613D01*
X117177773Y-66671557D01*
X117183437Y-66694166D01*
X117186856Y-66717221D01*
X117188000Y-66740500D01*
X117188000Y-67315500D01*
X117186856Y-67338779D01*
X117183437Y-67361834D01*
X117177773Y-67384443D01*
X117169921Y-67406387D01*
X117159956Y-67427457D01*
X117147974Y-67447448D01*
X117134090Y-67466168D01*
X117118438Y-67483438D01*
X117101168Y-67499090D01*
X117082448Y-67512974D01*
X117062457Y-67524956D01*
X117041387Y-67534921D01*
X117019443Y-67542773D01*
X116996834Y-67548437D01*
X116973779Y-67551856D01*
X116950500Y-67553000D01*
X116475500Y-67553000D01*
X116452221Y-67551856D01*
X116429166Y-67548437D01*
X116406557Y-67542773D01*
X116384613Y-67534921D01*
X116363543Y-67524956D01*
X116343552Y-67512974D01*
X116324832Y-67499090D01*
X116307562Y-67483438D01*
X116291910Y-67466168D01*
X116278026Y-67447448D01*
X116266044Y-67427457D01*
X116256079Y-67406387D01*
X116248227Y-67384443D01*
X116242563Y-67361834D01*
X116239144Y-67338779D01*
X116238000Y-67315500D01*
X116238000Y-66740500D01*
X116239144Y-66717221D01*
X116242563Y-66694166D01*
X116248227Y-66671557D01*
X116256079Y-66649613D01*
X116266044Y-66628543D01*
X116278026Y-66608552D01*
X116291910Y-66589832D01*
X116307562Y-66572562D01*
X116324832Y-66556910D01*
X116343552Y-66543026D01*
X116363543Y-66531044D01*
X116384613Y-66521079D01*
X116406557Y-66513227D01*
X116429166Y-66507563D01*
X116452221Y-66504144D01*
X116475500Y-66503000D01*
X116950500Y-66503000D01*
X116973779Y-66504144D01*
X116973779Y-66504144D01*
G37*
D11*
X116713000Y-67028000D03*
G04 #@! TD*
D10*
G04 #@! TO.C,C4*
G36*
X121253505Y-92011204D02*
X121277773Y-92014804D01*
X121301572Y-92020765D01*
X121324671Y-92029030D01*
X121346850Y-92039520D01*
X121367893Y-92052132D01*
X121387599Y-92066747D01*
X121405777Y-92083223D01*
X121422253Y-92101401D01*
X121436868Y-92121107D01*
X121449480Y-92142150D01*
X121459970Y-92164329D01*
X121468235Y-92187428D01*
X121474196Y-92211227D01*
X121477796Y-92235495D01*
X121479000Y-92259999D01*
X121479000Y-93160001D01*
X121477796Y-93184505D01*
X121474196Y-93208773D01*
X121468235Y-93232572D01*
X121459970Y-93255671D01*
X121449480Y-93277850D01*
X121436868Y-93298893D01*
X121422253Y-93318599D01*
X121405777Y-93336777D01*
X121387599Y-93353253D01*
X121367893Y-93367868D01*
X121346850Y-93380480D01*
X121324671Y-93390970D01*
X121301572Y-93399235D01*
X121277773Y-93405196D01*
X121253505Y-93408796D01*
X121229001Y-93410000D01*
X120578999Y-93410000D01*
X120554495Y-93408796D01*
X120530227Y-93405196D01*
X120506428Y-93399235D01*
X120483329Y-93390970D01*
X120461150Y-93380480D01*
X120440107Y-93367868D01*
X120420401Y-93353253D01*
X120402223Y-93336777D01*
X120385747Y-93318599D01*
X120371132Y-93298893D01*
X120358520Y-93277850D01*
X120348030Y-93255671D01*
X120339765Y-93232572D01*
X120333804Y-93208773D01*
X120330204Y-93184505D01*
X120329000Y-93160001D01*
X120329000Y-92259999D01*
X120330204Y-92235495D01*
X120333804Y-92211227D01*
X120339765Y-92187428D01*
X120348030Y-92164329D01*
X120358520Y-92142150D01*
X120371132Y-92121107D01*
X120385747Y-92101401D01*
X120402223Y-92083223D01*
X120420401Y-92066747D01*
X120440107Y-92052132D01*
X120461150Y-92039520D01*
X120483329Y-92029030D01*
X120506428Y-92020765D01*
X120530227Y-92014804D01*
X120554495Y-92011204D01*
X120578999Y-92010000D01*
X121229001Y-92010000D01*
X121253505Y-92011204D01*
X121253505Y-92011204D01*
G37*
D14*
X120904000Y-92710000D03*
D10*
G36*
X123303505Y-92011204D02*
X123327773Y-92014804D01*
X123351572Y-92020765D01*
X123374671Y-92029030D01*
X123396850Y-92039520D01*
X123417893Y-92052132D01*
X123437599Y-92066747D01*
X123455777Y-92083223D01*
X123472253Y-92101401D01*
X123486868Y-92121107D01*
X123499480Y-92142150D01*
X123509970Y-92164329D01*
X123518235Y-92187428D01*
X123524196Y-92211227D01*
X123527796Y-92235495D01*
X123529000Y-92259999D01*
X123529000Y-93160001D01*
X123527796Y-93184505D01*
X123524196Y-93208773D01*
X123518235Y-93232572D01*
X123509970Y-93255671D01*
X123499480Y-93277850D01*
X123486868Y-93298893D01*
X123472253Y-93318599D01*
X123455777Y-93336777D01*
X123437599Y-93353253D01*
X123417893Y-93367868D01*
X123396850Y-93380480D01*
X123374671Y-93390970D01*
X123351572Y-93399235D01*
X123327773Y-93405196D01*
X123303505Y-93408796D01*
X123279001Y-93410000D01*
X122628999Y-93410000D01*
X122604495Y-93408796D01*
X122580227Y-93405196D01*
X122556428Y-93399235D01*
X122533329Y-93390970D01*
X122511150Y-93380480D01*
X122490107Y-93367868D01*
X122470401Y-93353253D01*
X122452223Y-93336777D01*
X122435747Y-93318599D01*
X122421132Y-93298893D01*
X122408520Y-93277850D01*
X122398030Y-93255671D01*
X122389765Y-93232572D01*
X122383804Y-93208773D01*
X122380204Y-93184505D01*
X122379000Y-93160001D01*
X122379000Y-92259999D01*
X122380204Y-92235495D01*
X122383804Y-92211227D01*
X122389765Y-92187428D01*
X122398030Y-92164329D01*
X122408520Y-92142150D01*
X122421132Y-92121107D01*
X122435747Y-92101401D01*
X122452223Y-92083223D01*
X122470401Y-92066747D01*
X122490107Y-92052132D01*
X122511150Y-92039520D01*
X122533329Y-92029030D01*
X122556428Y-92020765D01*
X122580227Y-92014804D01*
X122604495Y-92011204D01*
X122628999Y-92010000D01*
X123279001Y-92010000D01*
X123303505Y-92011204D01*
X123303505Y-92011204D01*
G37*
D14*
X122954000Y-92710000D03*
G04 #@! TD*
D10*
G04 #@! TO.C,C6*
G36*
X120237505Y-106235204D02*
X120261773Y-106238804D01*
X120285572Y-106244765D01*
X120308671Y-106253030D01*
X120330850Y-106263520D01*
X120351893Y-106276132D01*
X120371599Y-106290747D01*
X120389777Y-106307223D01*
X120406253Y-106325401D01*
X120420868Y-106345107D01*
X120433480Y-106366150D01*
X120443970Y-106388329D01*
X120452235Y-106411428D01*
X120458196Y-106435227D01*
X120461796Y-106459495D01*
X120463000Y-106483999D01*
X120463000Y-107384001D01*
X120461796Y-107408505D01*
X120458196Y-107432773D01*
X120452235Y-107456572D01*
X120443970Y-107479671D01*
X120433480Y-107501850D01*
X120420868Y-107522893D01*
X120406253Y-107542599D01*
X120389777Y-107560777D01*
X120371599Y-107577253D01*
X120351893Y-107591868D01*
X120330850Y-107604480D01*
X120308671Y-107614970D01*
X120285572Y-107623235D01*
X120261773Y-107629196D01*
X120237505Y-107632796D01*
X120213001Y-107634000D01*
X119562999Y-107634000D01*
X119538495Y-107632796D01*
X119514227Y-107629196D01*
X119490428Y-107623235D01*
X119467329Y-107614970D01*
X119445150Y-107604480D01*
X119424107Y-107591868D01*
X119404401Y-107577253D01*
X119386223Y-107560777D01*
X119369747Y-107542599D01*
X119355132Y-107522893D01*
X119342520Y-107501850D01*
X119332030Y-107479671D01*
X119323765Y-107456572D01*
X119317804Y-107432773D01*
X119314204Y-107408505D01*
X119313000Y-107384001D01*
X119313000Y-106483999D01*
X119314204Y-106459495D01*
X119317804Y-106435227D01*
X119323765Y-106411428D01*
X119332030Y-106388329D01*
X119342520Y-106366150D01*
X119355132Y-106345107D01*
X119369747Y-106325401D01*
X119386223Y-106307223D01*
X119404401Y-106290747D01*
X119424107Y-106276132D01*
X119445150Y-106263520D01*
X119467329Y-106253030D01*
X119490428Y-106244765D01*
X119514227Y-106238804D01*
X119538495Y-106235204D01*
X119562999Y-106234000D01*
X120213001Y-106234000D01*
X120237505Y-106235204D01*
X120237505Y-106235204D01*
G37*
D14*
X119888000Y-106934000D03*
D10*
G36*
X118187505Y-106235204D02*
X118211773Y-106238804D01*
X118235572Y-106244765D01*
X118258671Y-106253030D01*
X118280850Y-106263520D01*
X118301893Y-106276132D01*
X118321599Y-106290747D01*
X118339777Y-106307223D01*
X118356253Y-106325401D01*
X118370868Y-106345107D01*
X118383480Y-106366150D01*
X118393970Y-106388329D01*
X118402235Y-106411428D01*
X118408196Y-106435227D01*
X118411796Y-106459495D01*
X118413000Y-106483999D01*
X118413000Y-107384001D01*
X118411796Y-107408505D01*
X118408196Y-107432773D01*
X118402235Y-107456572D01*
X118393970Y-107479671D01*
X118383480Y-107501850D01*
X118370868Y-107522893D01*
X118356253Y-107542599D01*
X118339777Y-107560777D01*
X118321599Y-107577253D01*
X118301893Y-107591868D01*
X118280850Y-107604480D01*
X118258671Y-107614970D01*
X118235572Y-107623235D01*
X118211773Y-107629196D01*
X118187505Y-107632796D01*
X118163001Y-107634000D01*
X117512999Y-107634000D01*
X117488495Y-107632796D01*
X117464227Y-107629196D01*
X117440428Y-107623235D01*
X117417329Y-107614970D01*
X117395150Y-107604480D01*
X117374107Y-107591868D01*
X117354401Y-107577253D01*
X117336223Y-107560777D01*
X117319747Y-107542599D01*
X117305132Y-107522893D01*
X117292520Y-107501850D01*
X117282030Y-107479671D01*
X117273765Y-107456572D01*
X117267804Y-107432773D01*
X117264204Y-107408505D01*
X117263000Y-107384001D01*
X117263000Y-106483999D01*
X117264204Y-106459495D01*
X117267804Y-106435227D01*
X117273765Y-106411428D01*
X117282030Y-106388329D01*
X117292520Y-106366150D01*
X117305132Y-106345107D01*
X117319747Y-106325401D01*
X117336223Y-106307223D01*
X117354401Y-106290747D01*
X117374107Y-106276132D01*
X117395150Y-106263520D01*
X117417329Y-106253030D01*
X117440428Y-106244765D01*
X117464227Y-106238804D01*
X117488495Y-106235204D01*
X117512999Y-106234000D01*
X118163001Y-106234000D01*
X118187505Y-106235204D01*
X118187505Y-106235204D01*
G37*
D14*
X117838000Y-106934000D03*
G04 #@! TD*
D10*
G04 #@! TO.C,C8*
G36*
X115919505Y-91884204D02*
X115943773Y-91887804D01*
X115967572Y-91893765D01*
X115990671Y-91902030D01*
X116012850Y-91912520D01*
X116033893Y-91925132D01*
X116053599Y-91939747D01*
X116071777Y-91956223D01*
X116088253Y-91974401D01*
X116102868Y-91994107D01*
X116115480Y-92015150D01*
X116125970Y-92037329D01*
X116134235Y-92060428D01*
X116140196Y-92084227D01*
X116143796Y-92108495D01*
X116145000Y-92132999D01*
X116145000Y-93033001D01*
X116143796Y-93057505D01*
X116140196Y-93081773D01*
X116134235Y-93105572D01*
X116125970Y-93128671D01*
X116115480Y-93150850D01*
X116102868Y-93171893D01*
X116088253Y-93191599D01*
X116071777Y-93209777D01*
X116053599Y-93226253D01*
X116033893Y-93240868D01*
X116012850Y-93253480D01*
X115990671Y-93263970D01*
X115967572Y-93272235D01*
X115943773Y-93278196D01*
X115919505Y-93281796D01*
X115895001Y-93283000D01*
X115244999Y-93283000D01*
X115220495Y-93281796D01*
X115196227Y-93278196D01*
X115172428Y-93272235D01*
X115149329Y-93263970D01*
X115127150Y-93253480D01*
X115106107Y-93240868D01*
X115086401Y-93226253D01*
X115068223Y-93209777D01*
X115051747Y-93191599D01*
X115037132Y-93171893D01*
X115024520Y-93150850D01*
X115014030Y-93128671D01*
X115005765Y-93105572D01*
X114999804Y-93081773D01*
X114996204Y-93057505D01*
X114995000Y-93033001D01*
X114995000Y-92132999D01*
X114996204Y-92108495D01*
X114999804Y-92084227D01*
X115005765Y-92060428D01*
X115014030Y-92037329D01*
X115024520Y-92015150D01*
X115037132Y-91994107D01*
X115051747Y-91974401D01*
X115068223Y-91956223D01*
X115086401Y-91939747D01*
X115106107Y-91925132D01*
X115127150Y-91912520D01*
X115149329Y-91902030D01*
X115172428Y-91893765D01*
X115196227Y-91887804D01*
X115220495Y-91884204D01*
X115244999Y-91883000D01*
X115895001Y-91883000D01*
X115919505Y-91884204D01*
X115919505Y-91884204D01*
G37*
D14*
X115570000Y-92583000D03*
D10*
G36*
X117969505Y-91884204D02*
X117993773Y-91887804D01*
X118017572Y-91893765D01*
X118040671Y-91902030D01*
X118062850Y-91912520D01*
X118083893Y-91925132D01*
X118103599Y-91939747D01*
X118121777Y-91956223D01*
X118138253Y-91974401D01*
X118152868Y-91994107D01*
X118165480Y-92015150D01*
X118175970Y-92037329D01*
X118184235Y-92060428D01*
X118190196Y-92084227D01*
X118193796Y-92108495D01*
X118195000Y-92132999D01*
X118195000Y-93033001D01*
X118193796Y-93057505D01*
X118190196Y-93081773D01*
X118184235Y-93105572D01*
X118175970Y-93128671D01*
X118165480Y-93150850D01*
X118152868Y-93171893D01*
X118138253Y-93191599D01*
X118121777Y-93209777D01*
X118103599Y-93226253D01*
X118083893Y-93240868D01*
X118062850Y-93253480D01*
X118040671Y-93263970D01*
X118017572Y-93272235D01*
X117993773Y-93278196D01*
X117969505Y-93281796D01*
X117945001Y-93283000D01*
X117294999Y-93283000D01*
X117270495Y-93281796D01*
X117246227Y-93278196D01*
X117222428Y-93272235D01*
X117199329Y-93263970D01*
X117177150Y-93253480D01*
X117156107Y-93240868D01*
X117136401Y-93226253D01*
X117118223Y-93209777D01*
X117101747Y-93191599D01*
X117087132Y-93171893D01*
X117074520Y-93150850D01*
X117064030Y-93128671D01*
X117055765Y-93105572D01*
X117049804Y-93081773D01*
X117046204Y-93057505D01*
X117045000Y-93033001D01*
X117045000Y-92132999D01*
X117046204Y-92108495D01*
X117049804Y-92084227D01*
X117055765Y-92060428D01*
X117064030Y-92037329D01*
X117074520Y-92015150D01*
X117087132Y-91994107D01*
X117101747Y-91974401D01*
X117118223Y-91956223D01*
X117136401Y-91939747D01*
X117156107Y-91925132D01*
X117177150Y-91912520D01*
X117199329Y-91902030D01*
X117222428Y-91893765D01*
X117246227Y-91887804D01*
X117270495Y-91884204D01*
X117294999Y-91883000D01*
X117945001Y-91883000D01*
X117969505Y-91884204D01*
X117969505Y-91884204D01*
G37*
D14*
X117620000Y-92583000D03*
G04 #@! TD*
D10*
G04 #@! TO.C,C10*
G36*
X110329505Y-100010204D02*
X110353773Y-100013804D01*
X110377572Y-100019765D01*
X110400671Y-100028030D01*
X110422850Y-100038520D01*
X110443893Y-100051132D01*
X110463599Y-100065747D01*
X110481777Y-100082223D01*
X110498253Y-100100401D01*
X110512868Y-100120107D01*
X110525480Y-100141150D01*
X110535970Y-100163329D01*
X110544235Y-100186428D01*
X110550196Y-100210227D01*
X110553796Y-100234495D01*
X110555000Y-100258999D01*
X110555000Y-100909001D01*
X110553796Y-100933505D01*
X110550196Y-100957773D01*
X110544235Y-100981572D01*
X110535970Y-101004671D01*
X110525480Y-101026850D01*
X110512868Y-101047893D01*
X110498253Y-101067599D01*
X110481777Y-101085777D01*
X110463599Y-101102253D01*
X110443893Y-101116868D01*
X110422850Y-101129480D01*
X110400671Y-101139970D01*
X110377572Y-101148235D01*
X110353773Y-101154196D01*
X110329505Y-101157796D01*
X110305001Y-101159000D01*
X109404999Y-101159000D01*
X109380495Y-101157796D01*
X109356227Y-101154196D01*
X109332428Y-101148235D01*
X109309329Y-101139970D01*
X109287150Y-101129480D01*
X109266107Y-101116868D01*
X109246401Y-101102253D01*
X109228223Y-101085777D01*
X109211747Y-101067599D01*
X109197132Y-101047893D01*
X109184520Y-101026850D01*
X109174030Y-101004671D01*
X109165765Y-100981572D01*
X109159804Y-100957773D01*
X109156204Y-100933505D01*
X109155000Y-100909001D01*
X109155000Y-100258999D01*
X109156204Y-100234495D01*
X109159804Y-100210227D01*
X109165765Y-100186428D01*
X109174030Y-100163329D01*
X109184520Y-100141150D01*
X109197132Y-100120107D01*
X109211747Y-100100401D01*
X109228223Y-100082223D01*
X109246401Y-100065747D01*
X109266107Y-100051132D01*
X109287150Y-100038520D01*
X109309329Y-100028030D01*
X109332428Y-100019765D01*
X109356227Y-100013804D01*
X109380495Y-100010204D01*
X109404999Y-100009000D01*
X110305001Y-100009000D01*
X110329505Y-100010204D01*
X110329505Y-100010204D01*
G37*
D14*
X109855000Y-100584000D03*
D10*
G36*
X110329505Y-97960204D02*
X110353773Y-97963804D01*
X110377572Y-97969765D01*
X110400671Y-97978030D01*
X110422850Y-97988520D01*
X110443893Y-98001132D01*
X110463599Y-98015747D01*
X110481777Y-98032223D01*
X110498253Y-98050401D01*
X110512868Y-98070107D01*
X110525480Y-98091150D01*
X110535970Y-98113329D01*
X110544235Y-98136428D01*
X110550196Y-98160227D01*
X110553796Y-98184495D01*
X110555000Y-98208999D01*
X110555000Y-98859001D01*
X110553796Y-98883505D01*
X110550196Y-98907773D01*
X110544235Y-98931572D01*
X110535970Y-98954671D01*
X110525480Y-98976850D01*
X110512868Y-98997893D01*
X110498253Y-99017599D01*
X110481777Y-99035777D01*
X110463599Y-99052253D01*
X110443893Y-99066868D01*
X110422850Y-99079480D01*
X110400671Y-99089970D01*
X110377572Y-99098235D01*
X110353773Y-99104196D01*
X110329505Y-99107796D01*
X110305001Y-99109000D01*
X109404999Y-99109000D01*
X109380495Y-99107796D01*
X109356227Y-99104196D01*
X109332428Y-99098235D01*
X109309329Y-99089970D01*
X109287150Y-99079480D01*
X109266107Y-99066868D01*
X109246401Y-99052253D01*
X109228223Y-99035777D01*
X109211747Y-99017599D01*
X109197132Y-98997893D01*
X109184520Y-98976850D01*
X109174030Y-98954671D01*
X109165765Y-98931572D01*
X109159804Y-98907773D01*
X109156204Y-98883505D01*
X109155000Y-98859001D01*
X109155000Y-98208999D01*
X109156204Y-98184495D01*
X109159804Y-98160227D01*
X109165765Y-98136428D01*
X109174030Y-98113329D01*
X109184520Y-98091150D01*
X109197132Y-98070107D01*
X109211747Y-98050401D01*
X109228223Y-98032223D01*
X109246401Y-98015747D01*
X109266107Y-98001132D01*
X109287150Y-97988520D01*
X109309329Y-97978030D01*
X109332428Y-97969765D01*
X109356227Y-97963804D01*
X109380495Y-97960204D01*
X109404999Y-97959000D01*
X110305001Y-97959000D01*
X110329505Y-97960204D01*
X110329505Y-97960204D01*
G37*
D14*
X109855000Y-98534000D03*
G04 #@! TD*
D10*
G04 #@! TO.C,C11*
G36*
X103999505Y-91757204D02*
X104023773Y-91760804D01*
X104047572Y-91766765D01*
X104070671Y-91775030D01*
X104092850Y-91785520D01*
X104113893Y-91798132D01*
X104133599Y-91812747D01*
X104151777Y-91829223D01*
X104168253Y-91847401D01*
X104182868Y-91867107D01*
X104195480Y-91888150D01*
X104205970Y-91910329D01*
X104214235Y-91933428D01*
X104220196Y-91957227D01*
X104223796Y-91981495D01*
X104225000Y-92005999D01*
X104225000Y-92906001D01*
X104223796Y-92930505D01*
X104220196Y-92954773D01*
X104214235Y-92978572D01*
X104205970Y-93001671D01*
X104195480Y-93023850D01*
X104182868Y-93044893D01*
X104168253Y-93064599D01*
X104151777Y-93082777D01*
X104133599Y-93099253D01*
X104113893Y-93113868D01*
X104092850Y-93126480D01*
X104070671Y-93136970D01*
X104047572Y-93145235D01*
X104023773Y-93151196D01*
X103999505Y-93154796D01*
X103975001Y-93156000D01*
X103324999Y-93156000D01*
X103300495Y-93154796D01*
X103276227Y-93151196D01*
X103252428Y-93145235D01*
X103229329Y-93136970D01*
X103207150Y-93126480D01*
X103186107Y-93113868D01*
X103166401Y-93099253D01*
X103148223Y-93082777D01*
X103131747Y-93064599D01*
X103117132Y-93044893D01*
X103104520Y-93023850D01*
X103094030Y-93001671D01*
X103085765Y-92978572D01*
X103079804Y-92954773D01*
X103076204Y-92930505D01*
X103075000Y-92906001D01*
X103075000Y-92005999D01*
X103076204Y-91981495D01*
X103079804Y-91957227D01*
X103085765Y-91933428D01*
X103094030Y-91910329D01*
X103104520Y-91888150D01*
X103117132Y-91867107D01*
X103131747Y-91847401D01*
X103148223Y-91829223D01*
X103166401Y-91812747D01*
X103186107Y-91798132D01*
X103207150Y-91785520D01*
X103229329Y-91775030D01*
X103252428Y-91766765D01*
X103276227Y-91760804D01*
X103300495Y-91757204D01*
X103324999Y-91756000D01*
X103975001Y-91756000D01*
X103999505Y-91757204D01*
X103999505Y-91757204D01*
G37*
D14*
X103650000Y-92456000D03*
D10*
G36*
X101949505Y-91757204D02*
X101973773Y-91760804D01*
X101997572Y-91766765D01*
X102020671Y-91775030D01*
X102042850Y-91785520D01*
X102063893Y-91798132D01*
X102083599Y-91812747D01*
X102101777Y-91829223D01*
X102118253Y-91847401D01*
X102132868Y-91867107D01*
X102145480Y-91888150D01*
X102155970Y-91910329D01*
X102164235Y-91933428D01*
X102170196Y-91957227D01*
X102173796Y-91981495D01*
X102175000Y-92005999D01*
X102175000Y-92906001D01*
X102173796Y-92930505D01*
X102170196Y-92954773D01*
X102164235Y-92978572D01*
X102155970Y-93001671D01*
X102145480Y-93023850D01*
X102132868Y-93044893D01*
X102118253Y-93064599D01*
X102101777Y-93082777D01*
X102083599Y-93099253D01*
X102063893Y-93113868D01*
X102042850Y-93126480D01*
X102020671Y-93136970D01*
X101997572Y-93145235D01*
X101973773Y-93151196D01*
X101949505Y-93154796D01*
X101925001Y-93156000D01*
X101274999Y-93156000D01*
X101250495Y-93154796D01*
X101226227Y-93151196D01*
X101202428Y-93145235D01*
X101179329Y-93136970D01*
X101157150Y-93126480D01*
X101136107Y-93113868D01*
X101116401Y-93099253D01*
X101098223Y-93082777D01*
X101081747Y-93064599D01*
X101067132Y-93044893D01*
X101054520Y-93023850D01*
X101044030Y-93001671D01*
X101035765Y-92978572D01*
X101029804Y-92954773D01*
X101026204Y-92930505D01*
X101025000Y-92906001D01*
X101025000Y-92005999D01*
X101026204Y-91981495D01*
X101029804Y-91957227D01*
X101035765Y-91933428D01*
X101044030Y-91910329D01*
X101054520Y-91888150D01*
X101067132Y-91867107D01*
X101081747Y-91847401D01*
X101098223Y-91829223D01*
X101116401Y-91812747D01*
X101136107Y-91798132D01*
X101157150Y-91785520D01*
X101179329Y-91775030D01*
X101202428Y-91766765D01*
X101226227Y-91760804D01*
X101250495Y-91757204D01*
X101274999Y-91756000D01*
X101925001Y-91756000D01*
X101949505Y-91757204D01*
X101949505Y-91757204D01*
G37*
D14*
X101600000Y-92456000D03*
G04 #@! TD*
D10*
G04 #@! TO.C,C16*
G36*
X126841505Y-64579204D02*
X126865773Y-64582804D01*
X126889572Y-64588765D01*
X126912671Y-64597030D01*
X126934850Y-64607520D01*
X126955893Y-64620132D01*
X126975599Y-64634747D01*
X126993777Y-64651223D01*
X127010253Y-64669401D01*
X127024868Y-64689107D01*
X127037480Y-64710150D01*
X127047970Y-64732329D01*
X127056235Y-64755428D01*
X127062196Y-64779227D01*
X127065796Y-64803495D01*
X127067000Y-64827999D01*
X127067000Y-65728001D01*
X127065796Y-65752505D01*
X127062196Y-65776773D01*
X127056235Y-65800572D01*
X127047970Y-65823671D01*
X127037480Y-65845850D01*
X127024868Y-65866893D01*
X127010253Y-65886599D01*
X126993777Y-65904777D01*
X126975599Y-65921253D01*
X126955893Y-65935868D01*
X126934850Y-65948480D01*
X126912671Y-65958970D01*
X126889572Y-65967235D01*
X126865773Y-65973196D01*
X126841505Y-65976796D01*
X126817001Y-65978000D01*
X126166999Y-65978000D01*
X126142495Y-65976796D01*
X126118227Y-65973196D01*
X126094428Y-65967235D01*
X126071329Y-65958970D01*
X126049150Y-65948480D01*
X126028107Y-65935868D01*
X126008401Y-65921253D01*
X125990223Y-65904777D01*
X125973747Y-65886599D01*
X125959132Y-65866893D01*
X125946520Y-65845850D01*
X125936030Y-65823671D01*
X125927765Y-65800572D01*
X125921804Y-65776773D01*
X125918204Y-65752505D01*
X125917000Y-65728001D01*
X125917000Y-64827999D01*
X125918204Y-64803495D01*
X125921804Y-64779227D01*
X125927765Y-64755428D01*
X125936030Y-64732329D01*
X125946520Y-64710150D01*
X125959132Y-64689107D01*
X125973747Y-64669401D01*
X125990223Y-64651223D01*
X126008401Y-64634747D01*
X126028107Y-64620132D01*
X126049150Y-64607520D01*
X126071329Y-64597030D01*
X126094428Y-64588765D01*
X126118227Y-64582804D01*
X126142495Y-64579204D01*
X126166999Y-64578000D01*
X126817001Y-64578000D01*
X126841505Y-64579204D01*
X126841505Y-64579204D01*
G37*
D14*
X126492000Y-65278000D03*
D10*
G36*
X124791505Y-64579204D02*
X124815773Y-64582804D01*
X124839572Y-64588765D01*
X124862671Y-64597030D01*
X124884850Y-64607520D01*
X124905893Y-64620132D01*
X124925599Y-64634747D01*
X124943777Y-64651223D01*
X124960253Y-64669401D01*
X124974868Y-64689107D01*
X124987480Y-64710150D01*
X124997970Y-64732329D01*
X125006235Y-64755428D01*
X125012196Y-64779227D01*
X125015796Y-64803495D01*
X125017000Y-64827999D01*
X125017000Y-65728001D01*
X125015796Y-65752505D01*
X125012196Y-65776773D01*
X125006235Y-65800572D01*
X124997970Y-65823671D01*
X124987480Y-65845850D01*
X124974868Y-65866893D01*
X124960253Y-65886599D01*
X124943777Y-65904777D01*
X124925599Y-65921253D01*
X124905893Y-65935868D01*
X124884850Y-65948480D01*
X124862671Y-65958970D01*
X124839572Y-65967235D01*
X124815773Y-65973196D01*
X124791505Y-65976796D01*
X124767001Y-65978000D01*
X124116999Y-65978000D01*
X124092495Y-65976796D01*
X124068227Y-65973196D01*
X124044428Y-65967235D01*
X124021329Y-65958970D01*
X123999150Y-65948480D01*
X123978107Y-65935868D01*
X123958401Y-65921253D01*
X123940223Y-65904777D01*
X123923747Y-65886599D01*
X123909132Y-65866893D01*
X123896520Y-65845850D01*
X123886030Y-65823671D01*
X123877765Y-65800572D01*
X123871804Y-65776773D01*
X123868204Y-65752505D01*
X123867000Y-65728001D01*
X123867000Y-64827999D01*
X123868204Y-64803495D01*
X123871804Y-64779227D01*
X123877765Y-64755428D01*
X123886030Y-64732329D01*
X123896520Y-64710150D01*
X123909132Y-64689107D01*
X123923747Y-64669401D01*
X123940223Y-64651223D01*
X123958401Y-64634747D01*
X123978107Y-64620132D01*
X123999150Y-64607520D01*
X124021329Y-64597030D01*
X124044428Y-64588765D01*
X124068227Y-64582804D01*
X124092495Y-64579204D01*
X124116999Y-64578000D01*
X124767001Y-64578000D01*
X124791505Y-64579204D01*
X124791505Y-64579204D01*
G37*
D14*
X124442000Y-65278000D03*
G04 #@! TD*
D10*
G04 #@! TO.C,C21*
G36*
X131812505Y-75628204D02*
X131836773Y-75631804D01*
X131860572Y-75637765D01*
X131883671Y-75646030D01*
X131905850Y-75656520D01*
X131926893Y-75669132D01*
X131946599Y-75683747D01*
X131964777Y-75700223D01*
X131981253Y-75718401D01*
X131995868Y-75738107D01*
X132008480Y-75759150D01*
X132018970Y-75781329D01*
X132027235Y-75804428D01*
X132033196Y-75828227D01*
X132036796Y-75852495D01*
X132038000Y-75876999D01*
X132038000Y-76777001D01*
X132036796Y-76801505D01*
X132033196Y-76825773D01*
X132027235Y-76849572D01*
X132018970Y-76872671D01*
X132008480Y-76894850D01*
X131995868Y-76915893D01*
X131981253Y-76935599D01*
X131964777Y-76953777D01*
X131946599Y-76970253D01*
X131926893Y-76984868D01*
X131905850Y-76997480D01*
X131883671Y-77007970D01*
X131860572Y-77016235D01*
X131836773Y-77022196D01*
X131812505Y-77025796D01*
X131788001Y-77027000D01*
X131137999Y-77027000D01*
X131113495Y-77025796D01*
X131089227Y-77022196D01*
X131065428Y-77016235D01*
X131042329Y-77007970D01*
X131020150Y-76997480D01*
X130999107Y-76984868D01*
X130979401Y-76970253D01*
X130961223Y-76953777D01*
X130944747Y-76935599D01*
X130930132Y-76915893D01*
X130917520Y-76894850D01*
X130907030Y-76872671D01*
X130898765Y-76849572D01*
X130892804Y-76825773D01*
X130889204Y-76801505D01*
X130888000Y-76777001D01*
X130888000Y-75876999D01*
X130889204Y-75852495D01*
X130892804Y-75828227D01*
X130898765Y-75804428D01*
X130907030Y-75781329D01*
X130917520Y-75759150D01*
X130930132Y-75738107D01*
X130944747Y-75718401D01*
X130961223Y-75700223D01*
X130979401Y-75683747D01*
X130999107Y-75669132D01*
X131020150Y-75656520D01*
X131042329Y-75646030D01*
X131065428Y-75637765D01*
X131089227Y-75631804D01*
X131113495Y-75628204D01*
X131137999Y-75627000D01*
X131788001Y-75627000D01*
X131812505Y-75628204D01*
X131812505Y-75628204D01*
G37*
D14*
X131463000Y-76327000D03*
D10*
G36*
X129762505Y-75628204D02*
X129786773Y-75631804D01*
X129810572Y-75637765D01*
X129833671Y-75646030D01*
X129855850Y-75656520D01*
X129876893Y-75669132D01*
X129896599Y-75683747D01*
X129914777Y-75700223D01*
X129931253Y-75718401D01*
X129945868Y-75738107D01*
X129958480Y-75759150D01*
X129968970Y-75781329D01*
X129977235Y-75804428D01*
X129983196Y-75828227D01*
X129986796Y-75852495D01*
X129988000Y-75876999D01*
X129988000Y-76777001D01*
X129986796Y-76801505D01*
X129983196Y-76825773D01*
X129977235Y-76849572D01*
X129968970Y-76872671D01*
X129958480Y-76894850D01*
X129945868Y-76915893D01*
X129931253Y-76935599D01*
X129914777Y-76953777D01*
X129896599Y-76970253D01*
X129876893Y-76984868D01*
X129855850Y-76997480D01*
X129833671Y-77007970D01*
X129810572Y-77016235D01*
X129786773Y-77022196D01*
X129762505Y-77025796D01*
X129738001Y-77027000D01*
X129087999Y-77027000D01*
X129063495Y-77025796D01*
X129039227Y-77022196D01*
X129015428Y-77016235D01*
X128992329Y-77007970D01*
X128970150Y-76997480D01*
X128949107Y-76984868D01*
X128929401Y-76970253D01*
X128911223Y-76953777D01*
X128894747Y-76935599D01*
X128880132Y-76915893D01*
X128867520Y-76894850D01*
X128857030Y-76872671D01*
X128848765Y-76849572D01*
X128842804Y-76825773D01*
X128839204Y-76801505D01*
X128838000Y-76777001D01*
X128838000Y-75876999D01*
X128839204Y-75852495D01*
X128842804Y-75828227D01*
X128848765Y-75804428D01*
X128857030Y-75781329D01*
X128867520Y-75759150D01*
X128880132Y-75738107D01*
X128894747Y-75718401D01*
X128911223Y-75700223D01*
X128929401Y-75683747D01*
X128949107Y-75669132D01*
X128970150Y-75656520D01*
X128992329Y-75646030D01*
X129015428Y-75637765D01*
X129039227Y-75631804D01*
X129063495Y-75628204D01*
X129087999Y-75627000D01*
X129738001Y-75627000D01*
X129762505Y-75628204D01*
X129762505Y-75628204D01*
G37*
D14*
X129413000Y-76327000D03*
G04 #@! TD*
D10*
G04 #@! TO.C,C24*
G36*
X101860779Y-89110144D02*
X101883834Y-89113563D01*
X101906443Y-89119227D01*
X101928387Y-89127079D01*
X101949457Y-89137044D01*
X101969448Y-89149026D01*
X101988168Y-89162910D01*
X102005438Y-89178562D01*
X102021090Y-89195832D01*
X102034974Y-89214552D01*
X102046956Y-89234543D01*
X102056921Y-89255613D01*
X102064773Y-89277557D01*
X102070437Y-89300166D01*
X102073856Y-89323221D01*
X102075000Y-89346500D01*
X102075000Y-89921500D01*
X102073856Y-89944779D01*
X102070437Y-89967834D01*
X102064773Y-89990443D01*
X102056921Y-90012387D01*
X102046956Y-90033457D01*
X102034974Y-90053448D01*
X102021090Y-90072168D01*
X102005438Y-90089438D01*
X101988168Y-90105090D01*
X101969448Y-90118974D01*
X101949457Y-90130956D01*
X101928387Y-90140921D01*
X101906443Y-90148773D01*
X101883834Y-90154437D01*
X101860779Y-90157856D01*
X101837500Y-90159000D01*
X101362500Y-90159000D01*
X101339221Y-90157856D01*
X101316166Y-90154437D01*
X101293557Y-90148773D01*
X101271613Y-90140921D01*
X101250543Y-90130956D01*
X101230552Y-90118974D01*
X101211832Y-90105090D01*
X101194562Y-90089438D01*
X101178910Y-90072168D01*
X101165026Y-90053448D01*
X101153044Y-90033457D01*
X101143079Y-90012387D01*
X101135227Y-89990443D01*
X101129563Y-89967834D01*
X101126144Y-89944779D01*
X101125000Y-89921500D01*
X101125000Y-89346500D01*
X101126144Y-89323221D01*
X101129563Y-89300166D01*
X101135227Y-89277557D01*
X101143079Y-89255613D01*
X101153044Y-89234543D01*
X101165026Y-89214552D01*
X101178910Y-89195832D01*
X101194562Y-89178562D01*
X101211832Y-89162910D01*
X101230552Y-89149026D01*
X101250543Y-89137044D01*
X101271613Y-89127079D01*
X101293557Y-89119227D01*
X101316166Y-89113563D01*
X101339221Y-89110144D01*
X101362500Y-89109000D01*
X101837500Y-89109000D01*
X101860779Y-89110144D01*
X101860779Y-89110144D01*
G37*
D11*
X101600000Y-89634000D03*
D10*
G36*
X101860779Y-87360144D02*
X101883834Y-87363563D01*
X101906443Y-87369227D01*
X101928387Y-87377079D01*
X101949457Y-87387044D01*
X101969448Y-87399026D01*
X101988168Y-87412910D01*
X102005438Y-87428562D01*
X102021090Y-87445832D01*
X102034974Y-87464552D01*
X102046956Y-87484543D01*
X102056921Y-87505613D01*
X102064773Y-87527557D01*
X102070437Y-87550166D01*
X102073856Y-87573221D01*
X102075000Y-87596500D01*
X102075000Y-88171500D01*
X102073856Y-88194779D01*
X102070437Y-88217834D01*
X102064773Y-88240443D01*
X102056921Y-88262387D01*
X102046956Y-88283457D01*
X102034974Y-88303448D01*
X102021090Y-88322168D01*
X102005438Y-88339438D01*
X101988168Y-88355090D01*
X101969448Y-88368974D01*
X101949457Y-88380956D01*
X101928387Y-88390921D01*
X101906443Y-88398773D01*
X101883834Y-88404437D01*
X101860779Y-88407856D01*
X101837500Y-88409000D01*
X101362500Y-88409000D01*
X101339221Y-88407856D01*
X101316166Y-88404437D01*
X101293557Y-88398773D01*
X101271613Y-88390921D01*
X101250543Y-88380956D01*
X101230552Y-88368974D01*
X101211832Y-88355090D01*
X101194562Y-88339438D01*
X101178910Y-88322168D01*
X101165026Y-88303448D01*
X101153044Y-88283457D01*
X101143079Y-88262387D01*
X101135227Y-88240443D01*
X101129563Y-88217834D01*
X101126144Y-88194779D01*
X101125000Y-88171500D01*
X101125000Y-87596500D01*
X101126144Y-87573221D01*
X101129563Y-87550166D01*
X101135227Y-87527557D01*
X101143079Y-87505613D01*
X101153044Y-87484543D01*
X101165026Y-87464552D01*
X101178910Y-87445832D01*
X101194562Y-87428562D01*
X101211832Y-87412910D01*
X101230552Y-87399026D01*
X101250543Y-87387044D01*
X101271613Y-87377079D01*
X101293557Y-87369227D01*
X101316166Y-87363563D01*
X101339221Y-87360144D01*
X101362500Y-87359000D01*
X101837500Y-87359000D01*
X101860779Y-87360144D01*
X101860779Y-87360144D01*
G37*
D11*
X101600000Y-87884000D03*
G04 #@! TD*
D10*
G04 #@! TO.C,C41*
G36*
X141417879Y-85632144D02*
X141440934Y-85635563D01*
X141463543Y-85641227D01*
X141485487Y-85649079D01*
X141506557Y-85659044D01*
X141526548Y-85671026D01*
X141545268Y-85684910D01*
X141562538Y-85700562D01*
X141578190Y-85717832D01*
X141592074Y-85736552D01*
X141604056Y-85756543D01*
X141614021Y-85777613D01*
X141621873Y-85799557D01*
X141627537Y-85822166D01*
X141630956Y-85845221D01*
X141632100Y-85868500D01*
X141632100Y-86343500D01*
X141630956Y-86366779D01*
X141627537Y-86389834D01*
X141621873Y-86412443D01*
X141614021Y-86434387D01*
X141604056Y-86455457D01*
X141592074Y-86475448D01*
X141578190Y-86494168D01*
X141562538Y-86511438D01*
X141545268Y-86527090D01*
X141526548Y-86540974D01*
X141506557Y-86552956D01*
X141485487Y-86562921D01*
X141463543Y-86570773D01*
X141440934Y-86576437D01*
X141417879Y-86579856D01*
X141394600Y-86581000D01*
X140819600Y-86581000D01*
X140796321Y-86579856D01*
X140773266Y-86576437D01*
X140750657Y-86570773D01*
X140728713Y-86562921D01*
X140707643Y-86552956D01*
X140687652Y-86540974D01*
X140668932Y-86527090D01*
X140651662Y-86511438D01*
X140636010Y-86494168D01*
X140622126Y-86475448D01*
X140610144Y-86455457D01*
X140600179Y-86434387D01*
X140592327Y-86412443D01*
X140586663Y-86389834D01*
X140583244Y-86366779D01*
X140582100Y-86343500D01*
X140582100Y-85868500D01*
X140583244Y-85845221D01*
X140586663Y-85822166D01*
X140592327Y-85799557D01*
X140600179Y-85777613D01*
X140610144Y-85756543D01*
X140622126Y-85736552D01*
X140636010Y-85717832D01*
X140651662Y-85700562D01*
X140668932Y-85684910D01*
X140687652Y-85671026D01*
X140707643Y-85659044D01*
X140728713Y-85649079D01*
X140750657Y-85641227D01*
X140773266Y-85635563D01*
X140796321Y-85632144D01*
X140819600Y-85631000D01*
X141394600Y-85631000D01*
X141417879Y-85632144D01*
X141417879Y-85632144D01*
G37*
D11*
X141107100Y-86106000D03*
D10*
G36*
X139667879Y-85632144D02*
X139690934Y-85635563D01*
X139713543Y-85641227D01*
X139735487Y-85649079D01*
X139756557Y-85659044D01*
X139776548Y-85671026D01*
X139795268Y-85684910D01*
X139812538Y-85700562D01*
X139828190Y-85717832D01*
X139842074Y-85736552D01*
X139854056Y-85756543D01*
X139864021Y-85777613D01*
X139871873Y-85799557D01*
X139877537Y-85822166D01*
X139880956Y-85845221D01*
X139882100Y-85868500D01*
X139882100Y-86343500D01*
X139880956Y-86366779D01*
X139877537Y-86389834D01*
X139871873Y-86412443D01*
X139864021Y-86434387D01*
X139854056Y-86455457D01*
X139842074Y-86475448D01*
X139828190Y-86494168D01*
X139812538Y-86511438D01*
X139795268Y-86527090D01*
X139776548Y-86540974D01*
X139756557Y-86552956D01*
X139735487Y-86562921D01*
X139713543Y-86570773D01*
X139690934Y-86576437D01*
X139667879Y-86579856D01*
X139644600Y-86581000D01*
X139069600Y-86581000D01*
X139046321Y-86579856D01*
X139023266Y-86576437D01*
X139000657Y-86570773D01*
X138978713Y-86562921D01*
X138957643Y-86552956D01*
X138937652Y-86540974D01*
X138918932Y-86527090D01*
X138901662Y-86511438D01*
X138886010Y-86494168D01*
X138872126Y-86475448D01*
X138860144Y-86455457D01*
X138850179Y-86434387D01*
X138842327Y-86412443D01*
X138836663Y-86389834D01*
X138833244Y-86366779D01*
X138832100Y-86343500D01*
X138832100Y-85868500D01*
X138833244Y-85845221D01*
X138836663Y-85822166D01*
X138842327Y-85799557D01*
X138850179Y-85777613D01*
X138860144Y-85756543D01*
X138872126Y-85736552D01*
X138886010Y-85717832D01*
X138901662Y-85700562D01*
X138918932Y-85684910D01*
X138937652Y-85671026D01*
X138957643Y-85659044D01*
X138978713Y-85649079D01*
X139000657Y-85641227D01*
X139023266Y-85635563D01*
X139046321Y-85632144D01*
X139069600Y-85631000D01*
X139644600Y-85631000D01*
X139667879Y-85632144D01*
X139667879Y-85632144D01*
G37*
D11*
X139357100Y-86106000D03*
G04 #@! TD*
D10*
G04 #@! TO.C,C42*
G36*
X133559979Y-83397744D02*
X133583034Y-83401163D01*
X133605643Y-83406827D01*
X133627587Y-83414679D01*
X133648657Y-83424644D01*
X133668648Y-83436626D01*
X133687368Y-83450510D01*
X133704638Y-83466162D01*
X133720290Y-83483432D01*
X133734174Y-83502152D01*
X133746156Y-83522143D01*
X133756121Y-83543213D01*
X133763973Y-83565157D01*
X133769637Y-83587766D01*
X133773056Y-83610821D01*
X133774200Y-83634100D01*
X133774200Y-84209100D01*
X133773056Y-84232379D01*
X133769637Y-84255434D01*
X133763973Y-84278043D01*
X133756121Y-84299987D01*
X133746156Y-84321057D01*
X133734174Y-84341048D01*
X133720290Y-84359768D01*
X133704638Y-84377038D01*
X133687368Y-84392690D01*
X133668648Y-84406574D01*
X133648657Y-84418556D01*
X133627587Y-84428521D01*
X133605643Y-84436373D01*
X133583034Y-84442037D01*
X133559979Y-84445456D01*
X133536700Y-84446600D01*
X133061700Y-84446600D01*
X133038421Y-84445456D01*
X133015366Y-84442037D01*
X132992757Y-84436373D01*
X132970813Y-84428521D01*
X132949743Y-84418556D01*
X132929752Y-84406574D01*
X132911032Y-84392690D01*
X132893762Y-84377038D01*
X132878110Y-84359768D01*
X132864226Y-84341048D01*
X132852244Y-84321057D01*
X132842279Y-84299987D01*
X132834427Y-84278043D01*
X132828763Y-84255434D01*
X132825344Y-84232379D01*
X132824200Y-84209100D01*
X132824200Y-83634100D01*
X132825344Y-83610821D01*
X132828763Y-83587766D01*
X132834427Y-83565157D01*
X132842279Y-83543213D01*
X132852244Y-83522143D01*
X132864226Y-83502152D01*
X132878110Y-83483432D01*
X132893762Y-83466162D01*
X132911032Y-83450510D01*
X132929752Y-83436626D01*
X132949743Y-83424644D01*
X132970813Y-83414679D01*
X132992757Y-83406827D01*
X133015366Y-83401163D01*
X133038421Y-83397744D01*
X133061700Y-83396600D01*
X133536700Y-83396600D01*
X133559979Y-83397744D01*
X133559979Y-83397744D01*
G37*
D11*
X133299200Y-83921600D03*
D10*
G36*
X133559979Y-85147744D02*
X133583034Y-85151163D01*
X133605643Y-85156827D01*
X133627587Y-85164679D01*
X133648657Y-85174644D01*
X133668648Y-85186626D01*
X133687368Y-85200510D01*
X133704638Y-85216162D01*
X133720290Y-85233432D01*
X133734174Y-85252152D01*
X133746156Y-85272143D01*
X133756121Y-85293213D01*
X133763973Y-85315157D01*
X133769637Y-85337766D01*
X133773056Y-85360821D01*
X133774200Y-85384100D01*
X133774200Y-85959100D01*
X133773056Y-85982379D01*
X133769637Y-86005434D01*
X133763973Y-86028043D01*
X133756121Y-86049987D01*
X133746156Y-86071057D01*
X133734174Y-86091048D01*
X133720290Y-86109768D01*
X133704638Y-86127038D01*
X133687368Y-86142690D01*
X133668648Y-86156574D01*
X133648657Y-86168556D01*
X133627587Y-86178521D01*
X133605643Y-86186373D01*
X133583034Y-86192037D01*
X133559979Y-86195456D01*
X133536700Y-86196600D01*
X133061700Y-86196600D01*
X133038421Y-86195456D01*
X133015366Y-86192037D01*
X132992757Y-86186373D01*
X132970813Y-86178521D01*
X132949743Y-86168556D01*
X132929752Y-86156574D01*
X132911032Y-86142690D01*
X132893762Y-86127038D01*
X132878110Y-86109768D01*
X132864226Y-86091048D01*
X132852244Y-86071057D01*
X132842279Y-86049987D01*
X132834427Y-86028043D01*
X132828763Y-86005434D01*
X132825344Y-85982379D01*
X132824200Y-85959100D01*
X132824200Y-85384100D01*
X132825344Y-85360821D01*
X132828763Y-85337766D01*
X132834427Y-85315157D01*
X132842279Y-85293213D01*
X132852244Y-85272143D01*
X132864226Y-85252152D01*
X132878110Y-85233432D01*
X132893762Y-85216162D01*
X132911032Y-85200510D01*
X132929752Y-85186626D01*
X132949743Y-85174644D01*
X132970813Y-85164679D01*
X132992757Y-85156827D01*
X133015366Y-85151163D01*
X133038421Y-85147744D01*
X133061700Y-85146600D01*
X133536700Y-85146600D01*
X133559979Y-85147744D01*
X133559979Y-85147744D01*
G37*
D11*
X133299200Y-85671600D03*
G04 #@! TD*
D10*
G04 #@! TO.C,L6*
G36*
X143552705Y-87696504D02*
X143576973Y-87700104D01*
X143600772Y-87706065D01*
X143623871Y-87714330D01*
X143646050Y-87724820D01*
X143667093Y-87737432D01*
X143686799Y-87752047D01*
X143704977Y-87768523D01*
X143721453Y-87786701D01*
X143736068Y-87806407D01*
X143748680Y-87827450D01*
X143759170Y-87849629D01*
X143767435Y-87872728D01*
X143773396Y-87896527D01*
X143776996Y-87920795D01*
X143778200Y-87945299D01*
X143778200Y-88595301D01*
X143776996Y-88619805D01*
X143773396Y-88644073D01*
X143767435Y-88667872D01*
X143759170Y-88690971D01*
X143748680Y-88713150D01*
X143736068Y-88734193D01*
X143721453Y-88753899D01*
X143704977Y-88772077D01*
X143686799Y-88788553D01*
X143667093Y-88803168D01*
X143646050Y-88815780D01*
X143623871Y-88826270D01*
X143600772Y-88834535D01*
X143576973Y-88840496D01*
X143552705Y-88844096D01*
X143528201Y-88845300D01*
X142628199Y-88845300D01*
X142603695Y-88844096D01*
X142579427Y-88840496D01*
X142555628Y-88834535D01*
X142532529Y-88826270D01*
X142510350Y-88815780D01*
X142489307Y-88803168D01*
X142469601Y-88788553D01*
X142451423Y-88772077D01*
X142434947Y-88753899D01*
X142420332Y-88734193D01*
X142407720Y-88713150D01*
X142397230Y-88690971D01*
X142388965Y-88667872D01*
X142383004Y-88644073D01*
X142379404Y-88619805D01*
X142378200Y-88595301D01*
X142378200Y-87945299D01*
X142379404Y-87920795D01*
X142383004Y-87896527D01*
X142388965Y-87872728D01*
X142397230Y-87849629D01*
X142407720Y-87827450D01*
X142420332Y-87806407D01*
X142434947Y-87786701D01*
X142451423Y-87768523D01*
X142469601Y-87752047D01*
X142489307Y-87737432D01*
X142510350Y-87724820D01*
X142532529Y-87714330D01*
X142555628Y-87706065D01*
X142579427Y-87700104D01*
X142603695Y-87696504D01*
X142628199Y-87695300D01*
X143528201Y-87695300D01*
X143552705Y-87696504D01*
X143552705Y-87696504D01*
G37*
D14*
X143078200Y-88270300D03*
D10*
G36*
X143552705Y-85646504D02*
X143576973Y-85650104D01*
X143600772Y-85656065D01*
X143623871Y-85664330D01*
X143646050Y-85674820D01*
X143667093Y-85687432D01*
X143686799Y-85702047D01*
X143704977Y-85718523D01*
X143721453Y-85736701D01*
X143736068Y-85756407D01*
X143748680Y-85777450D01*
X143759170Y-85799629D01*
X143767435Y-85822728D01*
X143773396Y-85846527D01*
X143776996Y-85870795D01*
X143778200Y-85895299D01*
X143778200Y-86545301D01*
X143776996Y-86569805D01*
X143773396Y-86594073D01*
X143767435Y-86617872D01*
X143759170Y-86640971D01*
X143748680Y-86663150D01*
X143736068Y-86684193D01*
X143721453Y-86703899D01*
X143704977Y-86722077D01*
X143686799Y-86738553D01*
X143667093Y-86753168D01*
X143646050Y-86765780D01*
X143623871Y-86776270D01*
X143600772Y-86784535D01*
X143576973Y-86790496D01*
X143552705Y-86794096D01*
X143528201Y-86795300D01*
X142628199Y-86795300D01*
X142603695Y-86794096D01*
X142579427Y-86790496D01*
X142555628Y-86784535D01*
X142532529Y-86776270D01*
X142510350Y-86765780D01*
X142489307Y-86753168D01*
X142469601Y-86738553D01*
X142451423Y-86722077D01*
X142434947Y-86703899D01*
X142420332Y-86684193D01*
X142407720Y-86663150D01*
X142397230Y-86640971D01*
X142388965Y-86617872D01*
X142383004Y-86594073D01*
X142379404Y-86569805D01*
X142378200Y-86545301D01*
X142378200Y-85895299D01*
X142379404Y-85870795D01*
X142383004Y-85846527D01*
X142388965Y-85822728D01*
X142397230Y-85799629D01*
X142407720Y-85777450D01*
X142420332Y-85756407D01*
X142434947Y-85736701D01*
X142451423Y-85718523D01*
X142469601Y-85702047D01*
X142489307Y-85687432D01*
X142510350Y-85674820D01*
X142532529Y-85664330D01*
X142555628Y-85656065D01*
X142579427Y-85650104D01*
X142603695Y-85646504D01*
X142628199Y-85645300D01*
X143528201Y-85645300D01*
X143552705Y-85646504D01*
X143552705Y-85646504D01*
G37*
D14*
X143078200Y-86220300D03*
G04 #@! TD*
D10*
G04 #@! TO.C,L7*
G36*
X131096005Y-87223304D02*
X131120273Y-87226904D01*
X131144072Y-87232865D01*
X131167171Y-87241130D01*
X131189350Y-87251620D01*
X131210393Y-87264232D01*
X131230099Y-87278847D01*
X131248277Y-87295323D01*
X131264753Y-87313501D01*
X131279368Y-87333207D01*
X131291980Y-87354250D01*
X131302470Y-87376429D01*
X131310735Y-87399528D01*
X131316696Y-87423327D01*
X131320296Y-87447595D01*
X131321500Y-87472099D01*
X131321500Y-88372101D01*
X131320296Y-88396605D01*
X131316696Y-88420873D01*
X131310735Y-88444672D01*
X131302470Y-88467771D01*
X131291980Y-88489950D01*
X131279368Y-88510993D01*
X131264753Y-88530699D01*
X131248277Y-88548877D01*
X131230099Y-88565353D01*
X131210393Y-88579968D01*
X131189350Y-88592580D01*
X131167171Y-88603070D01*
X131144072Y-88611335D01*
X131120273Y-88617296D01*
X131096005Y-88620896D01*
X131071501Y-88622100D01*
X130421499Y-88622100D01*
X130396995Y-88620896D01*
X130372727Y-88617296D01*
X130348928Y-88611335D01*
X130325829Y-88603070D01*
X130303650Y-88592580D01*
X130282607Y-88579968D01*
X130262901Y-88565353D01*
X130244723Y-88548877D01*
X130228247Y-88530699D01*
X130213632Y-88510993D01*
X130201020Y-88489950D01*
X130190530Y-88467771D01*
X130182265Y-88444672D01*
X130176304Y-88420873D01*
X130172704Y-88396605D01*
X130171500Y-88372101D01*
X130171500Y-87472099D01*
X130172704Y-87447595D01*
X130176304Y-87423327D01*
X130182265Y-87399528D01*
X130190530Y-87376429D01*
X130201020Y-87354250D01*
X130213632Y-87333207D01*
X130228247Y-87313501D01*
X130244723Y-87295323D01*
X130262901Y-87278847D01*
X130282607Y-87264232D01*
X130303650Y-87251620D01*
X130325829Y-87241130D01*
X130348928Y-87232865D01*
X130372727Y-87226904D01*
X130396995Y-87223304D01*
X130421499Y-87222100D01*
X131071501Y-87222100D01*
X131096005Y-87223304D01*
X131096005Y-87223304D01*
G37*
D14*
X130746500Y-87922100D03*
D10*
G36*
X133146005Y-87223304D02*
X133170273Y-87226904D01*
X133194072Y-87232865D01*
X133217171Y-87241130D01*
X133239350Y-87251620D01*
X133260393Y-87264232D01*
X133280099Y-87278847D01*
X133298277Y-87295323D01*
X133314753Y-87313501D01*
X133329368Y-87333207D01*
X133341980Y-87354250D01*
X133352470Y-87376429D01*
X133360735Y-87399528D01*
X133366696Y-87423327D01*
X133370296Y-87447595D01*
X133371500Y-87472099D01*
X133371500Y-88372101D01*
X133370296Y-88396605D01*
X133366696Y-88420873D01*
X133360735Y-88444672D01*
X133352470Y-88467771D01*
X133341980Y-88489950D01*
X133329368Y-88510993D01*
X133314753Y-88530699D01*
X133298277Y-88548877D01*
X133280099Y-88565353D01*
X133260393Y-88579968D01*
X133239350Y-88592580D01*
X133217171Y-88603070D01*
X133194072Y-88611335D01*
X133170273Y-88617296D01*
X133146005Y-88620896D01*
X133121501Y-88622100D01*
X132471499Y-88622100D01*
X132446995Y-88620896D01*
X132422727Y-88617296D01*
X132398928Y-88611335D01*
X132375829Y-88603070D01*
X132353650Y-88592580D01*
X132332607Y-88579968D01*
X132312901Y-88565353D01*
X132294723Y-88548877D01*
X132278247Y-88530699D01*
X132263632Y-88510993D01*
X132251020Y-88489950D01*
X132240530Y-88467771D01*
X132232265Y-88444672D01*
X132226304Y-88420873D01*
X132222704Y-88396605D01*
X132221500Y-88372101D01*
X132221500Y-87472099D01*
X132222704Y-87447595D01*
X132226304Y-87423327D01*
X132232265Y-87399528D01*
X132240530Y-87376429D01*
X132251020Y-87354250D01*
X132263632Y-87333207D01*
X132278247Y-87313501D01*
X132294723Y-87295323D01*
X132312901Y-87278847D01*
X132332607Y-87264232D01*
X132353650Y-87251620D01*
X132375829Y-87241130D01*
X132398928Y-87232865D01*
X132422727Y-87226904D01*
X132446995Y-87223304D01*
X132471499Y-87222100D01*
X133121501Y-87222100D01*
X133146005Y-87223304D01*
X133146005Y-87223304D01*
G37*
D14*
X132796500Y-87922100D03*
G04 #@! TD*
M02*
