G04 #@! TF.GenerationSoftware,KiCad,Pcbnew,(5.0.0-3-g5ebb6b6)*
G04 #@! TF.CreationDate,2019-05-19T23:28:31+02:00*
G04 #@! TF.ProjectId,Audio Board,417564696F20426F6172642E6B696361,rev?*
G04 #@! TF.SameCoordinates,Original*
G04 #@! TF.FileFunction,Copper,L3,Inr,Signal*
G04 #@! TF.FilePolarity,Positive*
%FSLAX46Y46*%
G04 Gerber Fmt 4.6, Leading zero omitted, Abs format (unit mm)*
G04 Created by KiCad (PCBNEW (5.0.0-3-g5ebb6b6)) date Sunday, 19 May 2019 at 23:28:31*
%MOMM*%
%LPD*%
G01*
G04 APERTURE LIST*
G04 #@! TA.AperFunction,ViaPad*
%ADD10R,1.700000X1.700000*%
G04 #@! TD*
G04 #@! TA.AperFunction,ViaPad*
%ADD11O,1.700000X1.700000*%
G04 #@! TD*
G04 #@! TA.AperFunction,ViaPad*
%ADD12O,1.200000X1.800000*%
G04 #@! TD*
G04 #@! TA.AperFunction,ViaPad*
%ADD13R,1.200000X1.800000*%
G04 #@! TD*
G04 #@! TA.AperFunction,ViaPad*
%ADD14R,1.800000X1.200000*%
G04 #@! TD*
G04 #@! TA.AperFunction,ViaPad*
%ADD15O,1.800000X1.200000*%
G04 #@! TD*
G04 #@! TA.AperFunction,ViaPad*
%ADD16C,0.500000*%
G04 #@! TD*
G04 #@! TA.AperFunction,ViaPad*
%ADD17C,0.800000*%
G04 #@! TD*
G04 #@! TA.AperFunction,Conductor*
%ADD18C,0.254000*%
G04 #@! TD*
G04 APERTURE END LIST*
D10*
G04 #@! TO.N,+3V3*
G04 #@! TO.C,J6*
X94996000Y-62230000D03*
D11*
G04 #@! TO.N,+5V_J4*
X94996000Y-59690000D03*
G04 #@! TO.N,H_SDA*
X97536000Y-62230000D03*
G04 #@! TO.N,+5V_J4*
X97536000Y-59690000D03*
G04 #@! TO.N,H_SCL*
X100076000Y-62230000D03*
G04 #@! TO.N,GNDA*
X100076000Y-59690000D03*
G04 #@! TO.N,Net-(J1-Pad13)*
X102616000Y-62230000D03*
G04 #@! TO.N,Net-(J6-Pad8)*
X102616000Y-59690000D03*
G04 #@! TO.N,GNDA*
X105156000Y-62230000D03*
G04 #@! TO.N,Net-(J6-Pad10)*
X105156000Y-59690000D03*
G04 #@! TO.N,Net-(J1-Pad11)*
X107696000Y-62230000D03*
G04 #@! TO.N,HEADER_I2S_BCK*
X107696000Y-59690000D03*
G04 #@! TO.N,Net-(J1-Pad10)*
X110236000Y-62230000D03*
G04 #@! TO.N,GNDA*
X110236000Y-59690000D03*
G04 #@! TO.N,Net-(J1-Pad9)*
X112776000Y-62230000D03*
G04 #@! TO.N,Net-(J6-Pad16)*
X112776000Y-59690000D03*
G04 #@! TO.N,+3V3*
X115316000Y-62230000D03*
G04 #@! TO.N,Net-(J6-Pad18)*
X115316000Y-59690000D03*
G04 #@! TO.N,Net-(J1-Pad7)*
X117856000Y-62230000D03*
G04 #@! TO.N,GNDA*
X117856000Y-59690000D03*
G04 #@! TO.N,Net-(J1-Pad6)*
X120396000Y-62230000D03*
G04 #@! TO.N,Net-(J6-Pad22)*
X120396000Y-59690000D03*
G04 #@! TO.N,Net-(J1-Pad5)*
X122936000Y-62230000D03*
G04 #@! TO.N,Net-(J6-Pad24)*
X122936000Y-59690000D03*
G04 #@! TO.N,GNDA*
X125476000Y-62230000D03*
G04 #@! TO.N,Net-(J6-Pad26)*
X125476000Y-59690000D03*
G04 #@! TO.N,N/C*
X128016000Y-62230000D03*
X128016000Y-59690000D03*
X130556000Y-62230000D03*
G04 #@! TO.N,GNDA*
X130556000Y-59690000D03*
G04 #@! TO.N,Net-(J1-Pad3)*
X133096000Y-62230000D03*
G04 #@! TO.N,HEADER_FAULT*
X133096000Y-59690000D03*
G04 #@! TO.N,Net-(J1-Pad2)*
X135636000Y-62230000D03*
G04 #@! TO.N,GNDA*
X135636000Y-59690000D03*
G04 #@! TO.N,HEADER_I2S_LRCK*
X138176000Y-62230000D03*
G04 #@! TO.N,HEADER_RESET*
X138176000Y-59690000D03*
G04 #@! TO.N,Net-(J6-Pad37)*
X140716000Y-62230000D03*
G04 #@! TO.N,HEADER_PDN*
X140716000Y-59690000D03*
G04 #@! TO.N,GNDA*
X143256000Y-62230000D03*
G04 #@! TO.N,HEADER_I2S_DOUT*
X143256000Y-59690000D03*
G04 #@! TD*
G04 #@! TO.N,H_SDA*
G04 #@! TO.C,J1*
X148082000Y-102870000D03*
G04 #@! TO.N,H_SCL*
X148082000Y-100330000D03*
G04 #@! TO.N,Net-(J1-Pad13)*
X148082000Y-97790000D03*
G04 #@! TO.N,GNDA*
X148082000Y-95250000D03*
G04 #@! TO.N,Net-(J1-Pad11)*
X148082000Y-92710000D03*
G04 #@! TO.N,Net-(J1-Pad10)*
X148082000Y-90170000D03*
G04 #@! TO.N,Net-(J1-Pad9)*
X148082000Y-87630000D03*
G04 #@! TO.N,+3V3*
X148082000Y-85090000D03*
G04 #@! TO.N,Net-(J1-Pad7)*
X148082000Y-82550000D03*
G04 #@! TO.N,Net-(J1-Pad6)*
X148082000Y-80010000D03*
G04 #@! TO.N,Net-(J1-Pad5)*
X148082000Y-77470000D03*
G04 #@! TO.N,GNDA*
X148082000Y-74930000D03*
G04 #@! TO.N,Net-(J1-Pad3)*
X148082000Y-72390000D03*
G04 #@! TO.N,Net-(J1-Pad2)*
X148082000Y-69850000D03*
D10*
G04 #@! TO.N,GNDA*
X148082000Y-67310000D03*
G04 #@! TD*
G04 #@! TO.N,+5V_J4*
G04 #@! TO.C,J4*
X138684000Y-109220000D03*
D11*
G04 #@! TO.N,+5V*
X138684000Y-106680000D03*
G04 #@! TO.N,Net-(J4-Pad3)*
X138684000Y-104140000D03*
G04 #@! TD*
D10*
G04 #@! TO.N,Net-(J6-Pad8)*
G04 #@! TO.C,J7*
X90170000Y-67310000D03*
D11*
G04 #@! TO.N,Net-(J6-Pad10)*
X90170000Y-69850000D03*
G04 #@! TO.N,GNDA*
X90170000Y-72390000D03*
G04 #@! TO.N,Net-(J6-Pad16)*
X90170000Y-74930000D03*
G04 #@! TO.N,Net-(J6-Pad18)*
X90170000Y-77470000D03*
G04 #@! TO.N,GNDA*
X90170000Y-80010000D03*
G04 #@! TO.N,Net-(J6-Pad22)*
X90170000Y-82550000D03*
G04 #@! TO.N,Net-(J6-Pad24)*
X90170000Y-85090000D03*
G04 #@! TO.N,Net-(J6-Pad26)*
X90170000Y-87630000D03*
G04 #@! TO.N,GNDA*
X90170000Y-90170000D03*
X90170000Y-92710000D03*
G04 #@! TO.N,HEADER_PDN*
X90170000Y-95250000D03*
G04 #@! TO.N,+3V3*
X90170000Y-97790000D03*
X90170000Y-100330000D03*
G04 #@! TO.N,+5V_J4*
X90170000Y-102870000D03*
G04 #@! TD*
D12*
G04 #@! TO.N,Net-(C4-Pad2)*
G04 #@! TO.C,J2*
X113550000Y-107900000D03*
D13*
G04 #@! TO.N,SPLIT_CAP_B*
X111550000Y-107900000D03*
G04 #@! TD*
D12*
G04 #@! TO.N,Net-(C2-Pad1)*
G04 #@! TO.C,J3*
X99250000Y-107900000D03*
D13*
G04 #@! TO.N,SPLIT_CAP_A*
X97250000Y-107900000D03*
G04 #@! TD*
D14*
G04 #@! TO.N,Net-(J4-Pad3)*
G04 #@! TO.C,J5*
X143200000Y-106500000D03*
D15*
G04 #@! TO.N,GNDA*
X143200000Y-108500000D03*
G04 #@! TD*
D13*
G04 #@! TO.N,Net-(C10-Pad2)*
G04 #@! TO.C,J8*
X104400000Y-107900000D03*
D12*
G04 #@! TO.N,Net-(C10-Pad1)*
X106400000Y-107900000D03*
G04 #@! TD*
D16*
G04 #@! TO.N,GNDA*
X116840000Y-110744000D03*
X115316000Y-110744000D03*
X118364000Y-110744000D03*
X119888000Y-110744000D03*
X121412000Y-110744000D03*
X122936000Y-110744000D03*
X124460000Y-110744000D03*
X125984000Y-110744000D03*
X127508000Y-110744000D03*
X113792000Y-110744000D03*
X112268000Y-110744000D03*
X110744000Y-110744000D03*
X109220000Y-110744000D03*
X107696000Y-110744000D03*
X105905300Y-110744000D03*
X104381300Y-110744000D03*
X102857300Y-110744000D03*
X101333300Y-110744000D03*
X99809300Y-110744000D03*
X98285300Y-110744000D03*
X96761300Y-110744000D03*
X95745300Y-109728000D03*
X94729300Y-108712000D03*
X93713300Y-107696000D03*
X93205300Y-106172000D03*
X93205300Y-104648000D03*
X93205300Y-103124000D03*
X93205300Y-101600000D03*
X93205300Y-100076000D03*
X93205300Y-98552000D03*
X93205300Y-97028000D03*
X93205300Y-93980000D03*
X93205300Y-92456000D03*
X93205300Y-90932000D03*
X93205300Y-89408000D03*
X93205300Y-87884000D03*
X93205300Y-86360000D03*
X93205300Y-84836000D03*
X93205300Y-80772000D03*
X93205300Y-74676000D03*
X93205300Y-73152000D03*
X93205300Y-71628000D03*
X93205300Y-68580000D03*
X93205300Y-65532000D03*
X95237300Y-65024000D03*
X96761300Y-65024000D03*
X103873300Y-79248000D03*
X98285300Y-80264000D03*
X100317300Y-80264000D03*
X125717300Y-71628000D03*
X125717300Y-72644000D03*
X128257300Y-71120000D03*
X128257300Y-72644000D03*
X130289300Y-90932000D03*
X127749300Y-91948000D03*
X127749300Y-93472000D03*
X127749300Y-94996000D03*
X129273300Y-105156000D03*
X129273300Y-103124000D03*
X129273300Y-101092000D03*
X129273300Y-96520000D03*
X129273300Y-94488000D03*
X129273300Y-92456000D03*
X132321300Y-110236000D03*
X134112000Y-110236000D03*
X135877300Y-110236000D03*
X103873300Y-86868000D03*
X108953300Y-86868000D03*
X111493300Y-86868000D03*
X116573300Y-86868000D03*
X121145300Y-87376000D03*
X126733300Y-87376000D03*
X99301300Y-89916000D03*
X145021300Y-72136000D03*
X145021300Y-77724000D03*
X141465300Y-70104000D03*
X136385300Y-70104000D03*
X145021300Y-79248000D03*
X145021300Y-73660000D03*
X124460000Y-73600000D03*
X124841000Y-74676000D03*
X127254000Y-75184000D03*
X127254000Y-72898000D03*
X113157000Y-76200000D03*
X115316000Y-73914000D03*
X115316000Y-74930000D03*
X113157000Y-74041000D03*
X113157000Y-72898000D03*
X113157000Y-71755000D03*
X113157000Y-75184000D03*
X124460000Y-71882000D03*
X124460000Y-72700000D03*
X127254000Y-71755000D03*
X127254000Y-76200000D03*
X122682000Y-74422000D03*
X121666000Y-74422000D03*
X120650000Y-74422000D03*
X119634000Y-74422000D03*
X118618000Y-74422000D03*
X117602000Y-74422000D03*
X122682000Y-73279000D03*
X121666000Y-73279000D03*
X120650000Y-73279000D03*
X119634000Y-73279000D03*
X118618000Y-73279000D03*
X117602000Y-73279000D03*
X122682000Y-72136000D03*
X121666000Y-72136000D03*
X120650000Y-72136000D03*
X119634000Y-72136000D03*
X118618000Y-72136000D03*
X117602000Y-72136000D03*
X121285000Y-80391000D03*
D17*
X100076000Y-92329000D03*
X96139000Y-93726000D03*
X121412000Y-106934000D03*
X109855000Y-96647000D03*
X143383000Y-75819000D03*
X127889000Y-65786000D03*
D16*
X115293192Y-72870897D03*
X109220000Y-71247000D03*
D17*
X133477000Y-100330000D03*
X132207000Y-108712000D03*
X94615000Y-104013000D03*
X114300000Y-104267000D03*
X144399000Y-102743000D03*
X131191000Y-89408000D03*
X126111000Y-84963000D03*
X133985000Y-80899000D03*
X130556000Y-84709000D03*
D16*
X120904000Y-67818000D03*
X122936000Y-67818000D03*
X127254000Y-70866000D03*
X107086594Y-71526594D03*
D17*
X119252996Y-64516000D03*
D16*
X113157000Y-70739011D03*
D17*
X117856000Y-94742000D03*
X130937000Y-73025000D03*
X143510000Y-71373992D03*
X101091998Y-67564002D03*
D16*
X93218000Y-76835000D03*
D17*
X144145000Y-93218000D03*
X119126000Y-92964000D03*
D16*
X116967000Y-80391000D03*
X115189000Y-71247000D03*
D17*
X146558000Y-105537000D03*
X139433300Y-81876900D03*
D16*
X125991916Y-75445916D03*
D17*
X139065000Y-67474010D03*
G04 #@! TO.N,+5V*
X137795000Y-98171000D03*
X135001000Y-94996000D03*
X135890000Y-81788000D03*
D16*
G04 #@! TO.N,+3V3*
X136248669Y-67414669D03*
D17*
X129413000Y-65769995D03*
X134874000Y-68834000D03*
G04 #@! TO.N,+12VA*
X116701000Y-79375000D03*
X138430000Y-78359000D03*
X124460000Y-99187000D03*
X105283000Y-99441000D03*
X118449754Y-66753531D03*
X100984555Y-77760990D03*
X143916400Y-84340700D03*
G04 #@! TO.N,Net-(D1-Pad2)*
X134620000Y-91694000D03*
X133477000Y-101346000D03*
X132334000Y-97536000D03*
D16*
G04 #@! TO.N,Net-(J1-Pad13)*
X96266000Y-68580000D03*
X96012000Y-73279000D03*
G04 #@! TO.N,Net-(J1-Pad6)*
X130302000Y-64269995D03*
X132064531Y-69723000D03*
G04 #@! TO.N,Net-(J1-Pad5)*
X131699000Y-70485000D03*
G04 #@! TO.N,Net-(J1-Pad3)*
X136353160Y-65698835D03*
G04 #@! TO.N,Net-(J1-Pad2)*
X137287000Y-65658998D03*
G04 #@! TO.N,Net-(J6-Pad37)*
X140208000Y-64269995D03*
G04 #@! TO.N,MUTE*
X119126000Y-70866000D03*
X127635000Y-69977000D03*
X134112000Y-69596000D03*
D17*
G04 #@! TO.N,Net-(C2-Pad1)*
X105410000Y-94996000D03*
X112892234Y-94085389D03*
X111125000Y-92964000D03*
G04 #@! TO.N,Net-(C14-Pad2)*
X124460000Y-81165000D03*
X132461000Y-80899000D03*
D16*
G04 #@! TO.N,Net-(C17-Pad1)*
X129667000Y-82296000D03*
X126492000Y-80010000D03*
G04 #@! TO.N,Net-(C19-Pad1)*
X118548161Y-80007169D03*
G04 #@! TO.N,Net-(C19-Pad2)*
X119476844Y-80378076D03*
G04 #@! TO.N,Net-(C25-Pad1)*
X114427000Y-71120000D03*
G04 #@! TO.N,Net-(C26-Pad1)*
X118999000Y-67818000D03*
G04 #@! TO.N,Net-(C29-Pad1)*
X120018963Y-67811913D03*
D17*
G04 #@! TO.N,SPK_OUTB*
X111887000Y-78994000D03*
X112395000Y-82422998D03*
G04 #@! TO.N,SPK_OUTC*
X109220000Y-79121000D03*
X109728001Y-82041999D03*
G04 #@! TO.N,SPK_OUTD*
X108164481Y-79140578D03*
X107442000Y-82296000D03*
G04 #@! TO.N,SPLIT_CAP_A*
X98425000Y-99568000D03*
G04 #@! TO.N,SPLIT_CAP_B*
X117729000Y-99060000D03*
G04 #@! TO.N,+3.3VA*
X120396000Y-81788000D03*
D16*
X123813000Y-80137000D03*
D17*
X130086100Y-85813900D03*
G04 #@! TO.N,H_SDA*
X115443000Y-65023994D03*
D16*
X104929004Y-67083004D03*
X123909990Y-67818000D03*
X137265485Y-80473907D03*
G04 #@! TO.N,H_SCL*
X123317000Y-70866000D03*
X137018023Y-81481148D03*
X110363001Y-66813990D03*
X105367990Y-68453000D03*
X145186400Y-87782400D03*
X124300000Y-75500000D03*
G04 #@! TO.N,Net-(J1-Pad11)*
X96239458Y-73979238D03*
X144893002Y-111063171D03*
G04 #@! TO.N,Net-(J1-Pad10)*
X96511500Y-74624226D03*
X144145000Y-110998000D03*
G04 #@! TO.N,Net-(J1-Pad9)*
X143383000Y-110871000D03*
X96841010Y-75311000D03*
G04 #@! TO.N,HEADER_I2S_BCK*
X127429893Y-68773107D03*
X125222000Y-67818008D03*
G04 #@! TO.N,HEADER_FAULT*
X124813003Y-80137000D03*
X132639531Y-71885166D03*
G04 #@! TO.N,HEADER_RESET*
X122453073Y-70885837D03*
G04 #@! TO.N,HEADER_I2S_DOUT*
X124460000Y-70993000D03*
D17*
G04 #@! TO.N,Net-(C38-Pad1)*
X131394200Y-86271100D03*
G04 #@! TO.N,Net-(C40-Pad2)*
X143002000Y-90170000D03*
G04 #@! TD*
D18*
G04 #@! TO.N,GNDA*
G36*
X114411270Y-64810226D02*
X114408000Y-64818120D01*
X114408000Y-65229868D01*
X114565569Y-65610274D01*
X114856720Y-65901425D01*
X115237126Y-66058994D01*
X115648874Y-66058994D01*
X116029280Y-65901425D01*
X116320431Y-65610274D01*
X116478000Y-65229868D01*
X116478000Y-64854198D01*
X118364000Y-64894326D01*
X118364000Y-65718531D01*
X118243880Y-65718531D01*
X117863474Y-65876100D01*
X117572323Y-66167251D01*
X117414754Y-66547657D01*
X117414754Y-66959405D01*
X117572323Y-67339811D01*
X117863474Y-67630962D01*
X118114000Y-67734733D01*
X118114000Y-67994037D01*
X118248733Y-68319312D01*
X118364000Y-68434579D01*
X118364000Y-70393014D01*
X118241000Y-70689963D01*
X118241000Y-71042037D01*
X118375733Y-71367312D01*
X118624688Y-71616267D01*
X118949963Y-71751000D01*
X119302037Y-71751000D01*
X119627312Y-71616267D01*
X119869579Y-71374000D01*
X121697360Y-71374000D01*
X121702806Y-71387149D01*
X121951761Y-71636104D01*
X122277036Y-71770837D01*
X122629110Y-71770837D01*
X122908982Y-71654911D01*
X123140963Y-71751000D01*
X123493037Y-71751000D01*
X123818312Y-71616267D01*
X123825000Y-71609579D01*
X123958688Y-71743267D01*
X124283963Y-71878000D01*
X124636037Y-71878000D01*
X124961312Y-71743267D01*
X125210267Y-71494312D01*
X125260102Y-71374000D01*
X126619000Y-71374000D01*
X126667601Y-71364333D01*
X126708803Y-71336803D01*
X126736333Y-71295601D01*
X126745223Y-71261025D01*
X126843304Y-70378294D01*
X126884733Y-70478312D01*
X127133688Y-70727267D01*
X127458963Y-70862000D01*
X127635000Y-70862000D01*
X127635000Y-73787000D01*
X124079000Y-73787000D01*
X124030399Y-73796667D01*
X123989197Y-73824197D01*
X123961667Y-73865399D01*
X123952000Y-73914000D01*
X123952000Y-74686229D01*
X123798688Y-74749733D01*
X123549733Y-74998688D01*
X123415000Y-75323963D01*
X123415000Y-75676037D01*
X123474217Y-75819000D01*
X118999000Y-75819000D01*
X118950399Y-75828667D01*
X118909197Y-75856197D01*
X118881667Y-75897399D01*
X118872000Y-75946000D01*
X118872000Y-79183390D01*
X118724198Y-79122169D01*
X118372124Y-79122169D01*
X118046849Y-79256902D01*
X117797894Y-79505857D01*
X117663161Y-79831132D01*
X117663161Y-80183206D01*
X117797894Y-80508481D01*
X118046849Y-80757436D01*
X118372124Y-80892169D01*
X118724198Y-80892169D01*
X118734918Y-80887729D01*
X118872000Y-81024811D01*
X118872000Y-82296000D01*
X118881667Y-82344601D01*
X118909197Y-82385803D01*
X118950399Y-82413333D01*
X118999000Y-82423000D01*
X119567289Y-82423000D01*
X119809720Y-82665431D01*
X120190126Y-82823000D01*
X120601874Y-82823000D01*
X120982280Y-82665431D01*
X121224711Y-82423000D01*
X128782000Y-82423000D01*
X128782000Y-82472037D01*
X128916733Y-82797312D01*
X129165688Y-83046267D01*
X129490963Y-83181000D01*
X129843037Y-83181000D01*
X130168312Y-83046267D01*
X130417267Y-82797312D01*
X130552000Y-82472037D01*
X130552000Y-82423000D01*
X131318000Y-82423000D01*
X131318000Y-85236100D01*
X131188326Y-85236100D01*
X130999449Y-85314335D01*
X130963531Y-85227620D01*
X130672380Y-84936469D01*
X130291974Y-84778900D01*
X129880226Y-84778900D01*
X129499820Y-84936469D01*
X129208669Y-85227620D01*
X129051100Y-85608026D01*
X129051100Y-86019774D01*
X129208669Y-86400180D01*
X129499820Y-86691331D01*
X129880226Y-86848900D01*
X130291974Y-86848900D01*
X130480851Y-86770665D01*
X130516769Y-86857380D01*
X130807920Y-87148531D01*
X131188326Y-87306100D01*
X131318000Y-87306100D01*
X131318000Y-91313000D01*
X128270000Y-91313000D01*
X128221399Y-91322667D01*
X128180197Y-91350197D01*
X128152667Y-91391399D01*
X128143000Y-91440000D01*
X128143000Y-112828000D01*
X92837000Y-112828000D01*
X92837000Y-107000000D01*
X96002560Y-107000000D01*
X96002560Y-108800000D01*
X96051843Y-109047765D01*
X96192191Y-109257809D01*
X96402235Y-109398157D01*
X96650000Y-109447440D01*
X97850000Y-109447440D01*
X98097765Y-109398157D01*
X98307809Y-109257809D01*
X98401140Y-109118130D01*
X98768128Y-109363344D01*
X99250000Y-109459195D01*
X99731873Y-109363344D01*
X100140385Y-109090385D01*
X100413344Y-108681873D01*
X100485000Y-108321635D01*
X100485000Y-107478364D01*
X100413344Y-107118127D01*
X100334415Y-107000000D01*
X103152560Y-107000000D01*
X103152560Y-108800000D01*
X103201843Y-109047765D01*
X103342191Y-109257809D01*
X103552235Y-109398157D01*
X103800000Y-109447440D01*
X105000000Y-109447440D01*
X105247765Y-109398157D01*
X105457809Y-109257809D01*
X105551140Y-109118130D01*
X105918128Y-109363344D01*
X106400000Y-109459195D01*
X106881873Y-109363344D01*
X107290385Y-109090385D01*
X107563344Y-108681873D01*
X107635000Y-108321635D01*
X107635000Y-107478364D01*
X107563344Y-107118127D01*
X107484415Y-107000000D01*
X110302560Y-107000000D01*
X110302560Y-108800000D01*
X110351843Y-109047765D01*
X110492191Y-109257809D01*
X110702235Y-109398157D01*
X110950000Y-109447440D01*
X112150000Y-109447440D01*
X112397765Y-109398157D01*
X112607809Y-109257809D01*
X112701140Y-109118130D01*
X113068128Y-109363344D01*
X113550000Y-109459195D01*
X114031873Y-109363344D01*
X114440385Y-109090385D01*
X114713344Y-108681873D01*
X114785000Y-108321635D01*
X114785000Y-107478364D01*
X114713344Y-107118127D01*
X114440385Y-106709615D01*
X114031872Y-106436656D01*
X113550000Y-106340805D01*
X113068127Y-106436656D01*
X112701140Y-106681869D01*
X112607809Y-106542191D01*
X112397765Y-106401843D01*
X112150000Y-106352560D01*
X110950000Y-106352560D01*
X110702235Y-106401843D01*
X110492191Y-106542191D01*
X110351843Y-106752235D01*
X110302560Y-107000000D01*
X107484415Y-107000000D01*
X107290385Y-106709615D01*
X106881872Y-106436656D01*
X106400000Y-106340805D01*
X105918127Y-106436656D01*
X105551140Y-106681869D01*
X105457809Y-106542191D01*
X105247765Y-106401843D01*
X105000000Y-106352560D01*
X103800000Y-106352560D01*
X103552235Y-106401843D01*
X103342191Y-106542191D01*
X103201843Y-106752235D01*
X103152560Y-107000000D01*
X100334415Y-107000000D01*
X100140385Y-106709615D01*
X99731872Y-106436656D01*
X99250000Y-106340805D01*
X98768127Y-106436656D01*
X98401140Y-106681869D01*
X98307809Y-106542191D01*
X98097765Y-106401843D01*
X97850000Y-106352560D01*
X96650000Y-106352560D01*
X96402235Y-106401843D01*
X96192191Y-106542191D01*
X96051843Y-106752235D01*
X96002560Y-107000000D01*
X92837000Y-107000000D01*
X92837000Y-99362126D01*
X97390000Y-99362126D01*
X97390000Y-99773874D01*
X97547569Y-100154280D01*
X97838720Y-100445431D01*
X98219126Y-100603000D01*
X98630874Y-100603000D01*
X99011280Y-100445431D01*
X99302431Y-100154280D01*
X99460000Y-99773874D01*
X99460000Y-99362126D01*
X99407395Y-99235126D01*
X104248000Y-99235126D01*
X104248000Y-99646874D01*
X104405569Y-100027280D01*
X104696720Y-100318431D01*
X105077126Y-100476000D01*
X105488874Y-100476000D01*
X105869280Y-100318431D01*
X106160431Y-100027280D01*
X106318000Y-99646874D01*
X106318000Y-99235126D01*
X106160431Y-98854720D01*
X106159837Y-98854126D01*
X116694000Y-98854126D01*
X116694000Y-99265874D01*
X116851569Y-99646280D01*
X117142720Y-99937431D01*
X117523126Y-100095000D01*
X117934874Y-100095000D01*
X118315280Y-99937431D01*
X118606431Y-99646280D01*
X118764000Y-99265874D01*
X118764000Y-98981126D01*
X123425000Y-98981126D01*
X123425000Y-99392874D01*
X123582569Y-99773280D01*
X123873720Y-100064431D01*
X124254126Y-100222000D01*
X124665874Y-100222000D01*
X125046280Y-100064431D01*
X125337431Y-99773280D01*
X125495000Y-99392874D01*
X125495000Y-98981126D01*
X125337431Y-98600720D01*
X125046280Y-98309569D01*
X124665874Y-98152000D01*
X124254126Y-98152000D01*
X123873720Y-98309569D01*
X123582569Y-98600720D01*
X123425000Y-98981126D01*
X118764000Y-98981126D01*
X118764000Y-98854126D01*
X118606431Y-98473720D01*
X118315280Y-98182569D01*
X117934874Y-98025000D01*
X117523126Y-98025000D01*
X117142720Y-98182569D01*
X116851569Y-98473720D01*
X116694000Y-98854126D01*
X106159837Y-98854126D01*
X105869280Y-98563569D01*
X105488874Y-98406000D01*
X105077126Y-98406000D01*
X104696720Y-98563569D01*
X104405569Y-98854720D01*
X104248000Y-99235126D01*
X99407395Y-99235126D01*
X99302431Y-98981720D01*
X99011280Y-98690569D01*
X98630874Y-98533000D01*
X98219126Y-98533000D01*
X97838720Y-98690569D01*
X97547569Y-98981720D01*
X97390000Y-99362126D01*
X92837000Y-99362126D01*
X92837000Y-94790126D01*
X104375000Y-94790126D01*
X104375000Y-95201874D01*
X104532569Y-95582280D01*
X104823720Y-95873431D01*
X105204126Y-96031000D01*
X105615874Y-96031000D01*
X105996280Y-95873431D01*
X106287431Y-95582280D01*
X106445000Y-95201874D01*
X106445000Y-94790126D01*
X106287431Y-94409720D01*
X105996280Y-94118569D01*
X105615874Y-93961000D01*
X105204126Y-93961000D01*
X104823720Y-94118569D01*
X104532569Y-94409720D01*
X104375000Y-94790126D01*
X92837000Y-94790126D01*
X92837000Y-92758126D01*
X110090000Y-92758126D01*
X110090000Y-93169874D01*
X110247569Y-93550280D01*
X110538720Y-93841431D01*
X110919126Y-93999000D01*
X111330874Y-93999000D01*
X111711280Y-93841431D01*
X111987368Y-93565343D01*
X111857234Y-93879515D01*
X111857234Y-94291263D01*
X112014803Y-94671669D01*
X112305954Y-94962820D01*
X112686360Y-95120389D01*
X113098108Y-95120389D01*
X113478514Y-94962820D01*
X113769665Y-94671669D01*
X113927234Y-94291263D01*
X113927234Y-93879515D01*
X113769665Y-93499109D01*
X113478514Y-93207958D01*
X113098108Y-93050389D01*
X112686360Y-93050389D01*
X112305954Y-93207958D01*
X112029866Y-93484046D01*
X112160000Y-93169874D01*
X112160000Y-92758126D01*
X112002431Y-92377720D01*
X111711280Y-92086569D01*
X111330874Y-91929000D01*
X110919126Y-91929000D01*
X110538720Y-92086569D01*
X110247569Y-92377720D01*
X110090000Y-92758126D01*
X92837000Y-92758126D01*
X92837000Y-82090126D01*
X106407000Y-82090126D01*
X106407000Y-82501874D01*
X106564569Y-82882280D01*
X106855720Y-83173431D01*
X107236126Y-83331000D01*
X107647874Y-83331000D01*
X108028280Y-83173431D01*
X108319431Y-82882280D01*
X108477000Y-82501874D01*
X108477000Y-82090126D01*
X108371790Y-81836125D01*
X108693001Y-81836125D01*
X108693001Y-82247873D01*
X108850570Y-82628279D01*
X109141721Y-82919430D01*
X109522127Y-83076999D01*
X109933875Y-83076999D01*
X110314281Y-82919430D01*
X110605432Y-82628279D01*
X110763001Y-82247873D01*
X110763001Y-82217124D01*
X111360000Y-82217124D01*
X111360000Y-82628872D01*
X111517569Y-83009278D01*
X111808720Y-83300429D01*
X112189126Y-83457998D01*
X112600874Y-83457998D01*
X112981280Y-83300429D01*
X113272431Y-83009278D01*
X113430000Y-82628872D01*
X113430000Y-82217124D01*
X113272431Y-81836718D01*
X112981280Y-81545567D01*
X112600874Y-81387998D01*
X112189126Y-81387998D01*
X111808720Y-81545567D01*
X111517569Y-81836718D01*
X111360000Y-82217124D01*
X110763001Y-82217124D01*
X110763001Y-81836125D01*
X110605432Y-81455719D01*
X110314281Y-81164568D01*
X109933875Y-81006999D01*
X109522127Y-81006999D01*
X109141721Y-81164568D01*
X108850570Y-81455719D01*
X108693001Y-81836125D01*
X108371790Y-81836125D01*
X108319431Y-81709720D01*
X108028280Y-81418569D01*
X107647874Y-81261000D01*
X107236126Y-81261000D01*
X106855720Y-81418569D01*
X106564569Y-81709720D01*
X106407000Y-82090126D01*
X92837000Y-82090126D01*
X92837000Y-78934704D01*
X107129481Y-78934704D01*
X107129481Y-79346452D01*
X107287050Y-79726858D01*
X107578201Y-80018009D01*
X107958607Y-80175578D01*
X108370355Y-80175578D01*
X108715873Y-80032460D01*
X109014126Y-80156000D01*
X109425874Y-80156000D01*
X109806280Y-79998431D01*
X110097431Y-79707280D01*
X110255000Y-79326874D01*
X110255000Y-78915126D01*
X110202395Y-78788126D01*
X110852000Y-78788126D01*
X110852000Y-79199874D01*
X111009569Y-79580280D01*
X111300720Y-79871431D01*
X111681126Y-80029000D01*
X112092874Y-80029000D01*
X112473280Y-79871431D01*
X112764431Y-79580280D01*
X112922000Y-79199874D01*
X112922000Y-79169126D01*
X115666000Y-79169126D01*
X115666000Y-79580874D01*
X115823569Y-79961280D01*
X116114720Y-80252431D01*
X116495126Y-80410000D01*
X116906874Y-80410000D01*
X117287280Y-80252431D01*
X117578431Y-79961280D01*
X117736000Y-79580874D01*
X117736000Y-79169126D01*
X117578431Y-78788720D01*
X117287280Y-78497569D01*
X116906874Y-78340000D01*
X116495126Y-78340000D01*
X116114720Y-78497569D01*
X115823569Y-78788720D01*
X115666000Y-79169126D01*
X112922000Y-79169126D01*
X112922000Y-78788126D01*
X112764431Y-78407720D01*
X112473280Y-78116569D01*
X112092874Y-77959000D01*
X111681126Y-77959000D01*
X111300720Y-78116569D01*
X111009569Y-78407720D01*
X110852000Y-78788126D01*
X110202395Y-78788126D01*
X110097431Y-78534720D01*
X109806280Y-78243569D01*
X109425874Y-78086000D01*
X109014126Y-78086000D01*
X108668608Y-78229118D01*
X108370355Y-78105578D01*
X107958607Y-78105578D01*
X107578201Y-78263147D01*
X107287050Y-78554298D01*
X107129481Y-78934704D01*
X92837000Y-78934704D01*
X92837000Y-77555116D01*
X99949555Y-77555116D01*
X99949555Y-77966864D01*
X100107124Y-78347270D01*
X100398275Y-78638421D01*
X100778681Y-78795990D01*
X101190429Y-78795990D01*
X101570835Y-78638421D01*
X101861986Y-78347270D01*
X102019555Y-77966864D01*
X102019555Y-77555116D01*
X101861986Y-77174710D01*
X101570835Y-76883559D01*
X101190429Y-76725990D01*
X100778681Y-76725990D01*
X100398275Y-76883559D01*
X100107124Y-77174710D01*
X99949555Y-77555116D01*
X92837000Y-77555116D01*
X92837000Y-73102963D01*
X95127000Y-73102963D01*
X95127000Y-73455037D01*
X95261733Y-73780312D01*
X95354458Y-73873037D01*
X95354458Y-74155275D01*
X95489191Y-74480550D01*
X95626500Y-74617859D01*
X95626500Y-74800263D01*
X95761233Y-75125538D01*
X95956010Y-75320315D01*
X95956010Y-75487037D01*
X96090743Y-75812312D01*
X96339698Y-76061267D01*
X96664973Y-76196000D01*
X97017047Y-76196000D01*
X97342322Y-76061267D01*
X97591277Y-75812312D01*
X97726010Y-75487037D01*
X97726010Y-75134963D01*
X97591277Y-74809688D01*
X97396500Y-74614911D01*
X97396500Y-74448189D01*
X97261767Y-74122914D01*
X97124458Y-73985605D01*
X97124458Y-73803201D01*
X96989725Y-73477926D01*
X96897000Y-73385201D01*
X96897000Y-73102963D01*
X96762267Y-72777688D01*
X96513312Y-72528733D01*
X96188037Y-72394000D01*
X95835963Y-72394000D01*
X95510688Y-72528733D01*
X95261733Y-72777688D01*
X95127000Y-73102963D01*
X92837000Y-73102963D01*
X92837000Y-70943963D01*
X113542000Y-70943963D01*
X113542000Y-71296037D01*
X113676733Y-71621312D01*
X113925688Y-71870267D01*
X114250963Y-72005000D01*
X114603037Y-72005000D01*
X114928312Y-71870267D01*
X115177267Y-71621312D01*
X115312000Y-71296037D01*
X115312000Y-70943963D01*
X115177267Y-70618688D01*
X114928312Y-70369733D01*
X114603037Y-70235000D01*
X114250963Y-70235000D01*
X113925688Y-70369733D01*
X113676733Y-70618688D01*
X113542000Y-70943963D01*
X92837000Y-70943963D01*
X92837000Y-68403963D01*
X95381000Y-68403963D01*
X95381000Y-68756037D01*
X95515733Y-69081312D01*
X95764688Y-69330267D01*
X96089963Y-69465000D01*
X96442037Y-69465000D01*
X96767312Y-69330267D01*
X97016267Y-69081312D01*
X97151000Y-68756037D01*
X97151000Y-68403963D01*
X97016267Y-68078688D01*
X96767312Y-67829733D01*
X96442037Y-67695000D01*
X96089963Y-67695000D01*
X95764688Y-67829733D01*
X95515733Y-68078688D01*
X95381000Y-68403963D01*
X92837000Y-68403963D01*
X92837000Y-66906967D01*
X104044004Y-66906967D01*
X104044004Y-67259041D01*
X104178737Y-67584316D01*
X104427692Y-67833271D01*
X104645798Y-67923613D01*
X104617723Y-67951688D01*
X104482990Y-68276963D01*
X104482990Y-68629037D01*
X104617723Y-68954312D01*
X104866678Y-69203267D01*
X105191953Y-69338000D01*
X105544027Y-69338000D01*
X105869302Y-69203267D01*
X106118257Y-68954312D01*
X106252990Y-68629037D01*
X106252990Y-68276963D01*
X106118257Y-67951688D01*
X105869302Y-67702733D01*
X105651196Y-67612391D01*
X105679271Y-67584316D01*
X105814004Y-67259041D01*
X105814004Y-66906967D01*
X105702576Y-66637953D01*
X109478001Y-66637953D01*
X109478001Y-66990027D01*
X109612734Y-67315302D01*
X109861689Y-67564257D01*
X110186964Y-67698990D01*
X110539038Y-67698990D01*
X110864313Y-67564257D01*
X111113268Y-67315302D01*
X111248001Y-66990027D01*
X111248001Y-66637953D01*
X111113268Y-66312678D01*
X110864313Y-66063723D01*
X110539038Y-65928990D01*
X110186964Y-65928990D01*
X109861689Y-66063723D01*
X109612734Y-66312678D01*
X109478001Y-66637953D01*
X105702576Y-66637953D01*
X105679271Y-66581692D01*
X105430316Y-66332737D01*
X105105041Y-66198004D01*
X104752967Y-66198004D01*
X104427692Y-66332737D01*
X104178737Y-66581692D01*
X104044004Y-66906967D01*
X92837000Y-66906967D01*
X92837000Y-64770000D01*
X112520661Y-64770000D01*
X114411270Y-64810226D01*
X114411270Y-64810226D01*
G37*
X114411270Y-64810226D02*
X114408000Y-64818120D01*
X114408000Y-65229868D01*
X114565569Y-65610274D01*
X114856720Y-65901425D01*
X115237126Y-66058994D01*
X115648874Y-66058994D01*
X116029280Y-65901425D01*
X116320431Y-65610274D01*
X116478000Y-65229868D01*
X116478000Y-64854198D01*
X118364000Y-64894326D01*
X118364000Y-65718531D01*
X118243880Y-65718531D01*
X117863474Y-65876100D01*
X117572323Y-66167251D01*
X117414754Y-66547657D01*
X117414754Y-66959405D01*
X117572323Y-67339811D01*
X117863474Y-67630962D01*
X118114000Y-67734733D01*
X118114000Y-67994037D01*
X118248733Y-68319312D01*
X118364000Y-68434579D01*
X118364000Y-70393014D01*
X118241000Y-70689963D01*
X118241000Y-71042037D01*
X118375733Y-71367312D01*
X118624688Y-71616267D01*
X118949963Y-71751000D01*
X119302037Y-71751000D01*
X119627312Y-71616267D01*
X119869579Y-71374000D01*
X121697360Y-71374000D01*
X121702806Y-71387149D01*
X121951761Y-71636104D01*
X122277036Y-71770837D01*
X122629110Y-71770837D01*
X122908982Y-71654911D01*
X123140963Y-71751000D01*
X123493037Y-71751000D01*
X123818312Y-71616267D01*
X123825000Y-71609579D01*
X123958688Y-71743267D01*
X124283963Y-71878000D01*
X124636037Y-71878000D01*
X124961312Y-71743267D01*
X125210267Y-71494312D01*
X125260102Y-71374000D01*
X126619000Y-71374000D01*
X126667601Y-71364333D01*
X126708803Y-71336803D01*
X126736333Y-71295601D01*
X126745223Y-71261025D01*
X126843304Y-70378294D01*
X126884733Y-70478312D01*
X127133688Y-70727267D01*
X127458963Y-70862000D01*
X127635000Y-70862000D01*
X127635000Y-73787000D01*
X124079000Y-73787000D01*
X124030399Y-73796667D01*
X123989197Y-73824197D01*
X123961667Y-73865399D01*
X123952000Y-73914000D01*
X123952000Y-74686229D01*
X123798688Y-74749733D01*
X123549733Y-74998688D01*
X123415000Y-75323963D01*
X123415000Y-75676037D01*
X123474217Y-75819000D01*
X118999000Y-75819000D01*
X118950399Y-75828667D01*
X118909197Y-75856197D01*
X118881667Y-75897399D01*
X118872000Y-75946000D01*
X118872000Y-79183390D01*
X118724198Y-79122169D01*
X118372124Y-79122169D01*
X118046849Y-79256902D01*
X117797894Y-79505857D01*
X117663161Y-79831132D01*
X117663161Y-80183206D01*
X117797894Y-80508481D01*
X118046849Y-80757436D01*
X118372124Y-80892169D01*
X118724198Y-80892169D01*
X118734918Y-80887729D01*
X118872000Y-81024811D01*
X118872000Y-82296000D01*
X118881667Y-82344601D01*
X118909197Y-82385803D01*
X118950399Y-82413333D01*
X118999000Y-82423000D01*
X119567289Y-82423000D01*
X119809720Y-82665431D01*
X120190126Y-82823000D01*
X120601874Y-82823000D01*
X120982280Y-82665431D01*
X121224711Y-82423000D01*
X128782000Y-82423000D01*
X128782000Y-82472037D01*
X128916733Y-82797312D01*
X129165688Y-83046267D01*
X129490963Y-83181000D01*
X129843037Y-83181000D01*
X130168312Y-83046267D01*
X130417267Y-82797312D01*
X130552000Y-82472037D01*
X130552000Y-82423000D01*
X131318000Y-82423000D01*
X131318000Y-85236100D01*
X131188326Y-85236100D01*
X130999449Y-85314335D01*
X130963531Y-85227620D01*
X130672380Y-84936469D01*
X130291974Y-84778900D01*
X129880226Y-84778900D01*
X129499820Y-84936469D01*
X129208669Y-85227620D01*
X129051100Y-85608026D01*
X129051100Y-86019774D01*
X129208669Y-86400180D01*
X129499820Y-86691331D01*
X129880226Y-86848900D01*
X130291974Y-86848900D01*
X130480851Y-86770665D01*
X130516769Y-86857380D01*
X130807920Y-87148531D01*
X131188326Y-87306100D01*
X131318000Y-87306100D01*
X131318000Y-91313000D01*
X128270000Y-91313000D01*
X128221399Y-91322667D01*
X128180197Y-91350197D01*
X128152667Y-91391399D01*
X128143000Y-91440000D01*
X128143000Y-112828000D01*
X92837000Y-112828000D01*
X92837000Y-107000000D01*
X96002560Y-107000000D01*
X96002560Y-108800000D01*
X96051843Y-109047765D01*
X96192191Y-109257809D01*
X96402235Y-109398157D01*
X96650000Y-109447440D01*
X97850000Y-109447440D01*
X98097765Y-109398157D01*
X98307809Y-109257809D01*
X98401140Y-109118130D01*
X98768128Y-109363344D01*
X99250000Y-109459195D01*
X99731873Y-109363344D01*
X100140385Y-109090385D01*
X100413344Y-108681873D01*
X100485000Y-108321635D01*
X100485000Y-107478364D01*
X100413344Y-107118127D01*
X100334415Y-107000000D01*
X103152560Y-107000000D01*
X103152560Y-108800000D01*
X103201843Y-109047765D01*
X103342191Y-109257809D01*
X103552235Y-109398157D01*
X103800000Y-109447440D01*
X105000000Y-109447440D01*
X105247765Y-109398157D01*
X105457809Y-109257809D01*
X105551140Y-109118130D01*
X105918128Y-109363344D01*
X106400000Y-109459195D01*
X106881873Y-109363344D01*
X107290385Y-109090385D01*
X107563344Y-108681873D01*
X107635000Y-108321635D01*
X107635000Y-107478364D01*
X107563344Y-107118127D01*
X107484415Y-107000000D01*
X110302560Y-107000000D01*
X110302560Y-108800000D01*
X110351843Y-109047765D01*
X110492191Y-109257809D01*
X110702235Y-109398157D01*
X110950000Y-109447440D01*
X112150000Y-109447440D01*
X112397765Y-109398157D01*
X112607809Y-109257809D01*
X112701140Y-109118130D01*
X113068128Y-109363344D01*
X113550000Y-109459195D01*
X114031873Y-109363344D01*
X114440385Y-109090385D01*
X114713344Y-108681873D01*
X114785000Y-108321635D01*
X114785000Y-107478364D01*
X114713344Y-107118127D01*
X114440385Y-106709615D01*
X114031872Y-106436656D01*
X113550000Y-106340805D01*
X113068127Y-106436656D01*
X112701140Y-106681869D01*
X112607809Y-106542191D01*
X112397765Y-106401843D01*
X112150000Y-106352560D01*
X110950000Y-106352560D01*
X110702235Y-106401843D01*
X110492191Y-106542191D01*
X110351843Y-106752235D01*
X110302560Y-107000000D01*
X107484415Y-107000000D01*
X107290385Y-106709615D01*
X106881872Y-106436656D01*
X106400000Y-106340805D01*
X105918127Y-106436656D01*
X105551140Y-106681869D01*
X105457809Y-106542191D01*
X105247765Y-106401843D01*
X105000000Y-106352560D01*
X103800000Y-106352560D01*
X103552235Y-106401843D01*
X103342191Y-106542191D01*
X103201843Y-106752235D01*
X103152560Y-107000000D01*
X100334415Y-107000000D01*
X100140385Y-106709615D01*
X99731872Y-106436656D01*
X99250000Y-106340805D01*
X98768127Y-106436656D01*
X98401140Y-106681869D01*
X98307809Y-106542191D01*
X98097765Y-106401843D01*
X97850000Y-106352560D01*
X96650000Y-106352560D01*
X96402235Y-106401843D01*
X96192191Y-106542191D01*
X96051843Y-106752235D01*
X96002560Y-107000000D01*
X92837000Y-107000000D01*
X92837000Y-99362126D01*
X97390000Y-99362126D01*
X97390000Y-99773874D01*
X97547569Y-100154280D01*
X97838720Y-100445431D01*
X98219126Y-100603000D01*
X98630874Y-100603000D01*
X99011280Y-100445431D01*
X99302431Y-100154280D01*
X99460000Y-99773874D01*
X99460000Y-99362126D01*
X99407395Y-99235126D01*
X104248000Y-99235126D01*
X104248000Y-99646874D01*
X104405569Y-100027280D01*
X104696720Y-100318431D01*
X105077126Y-100476000D01*
X105488874Y-100476000D01*
X105869280Y-100318431D01*
X106160431Y-100027280D01*
X106318000Y-99646874D01*
X106318000Y-99235126D01*
X106160431Y-98854720D01*
X106159837Y-98854126D01*
X116694000Y-98854126D01*
X116694000Y-99265874D01*
X116851569Y-99646280D01*
X117142720Y-99937431D01*
X117523126Y-100095000D01*
X117934874Y-100095000D01*
X118315280Y-99937431D01*
X118606431Y-99646280D01*
X118764000Y-99265874D01*
X118764000Y-98981126D01*
X123425000Y-98981126D01*
X123425000Y-99392874D01*
X123582569Y-99773280D01*
X123873720Y-100064431D01*
X124254126Y-100222000D01*
X124665874Y-100222000D01*
X125046280Y-100064431D01*
X125337431Y-99773280D01*
X125495000Y-99392874D01*
X125495000Y-98981126D01*
X125337431Y-98600720D01*
X125046280Y-98309569D01*
X124665874Y-98152000D01*
X124254126Y-98152000D01*
X123873720Y-98309569D01*
X123582569Y-98600720D01*
X123425000Y-98981126D01*
X118764000Y-98981126D01*
X118764000Y-98854126D01*
X118606431Y-98473720D01*
X118315280Y-98182569D01*
X117934874Y-98025000D01*
X117523126Y-98025000D01*
X117142720Y-98182569D01*
X116851569Y-98473720D01*
X116694000Y-98854126D01*
X106159837Y-98854126D01*
X105869280Y-98563569D01*
X105488874Y-98406000D01*
X105077126Y-98406000D01*
X104696720Y-98563569D01*
X104405569Y-98854720D01*
X104248000Y-99235126D01*
X99407395Y-99235126D01*
X99302431Y-98981720D01*
X99011280Y-98690569D01*
X98630874Y-98533000D01*
X98219126Y-98533000D01*
X97838720Y-98690569D01*
X97547569Y-98981720D01*
X97390000Y-99362126D01*
X92837000Y-99362126D01*
X92837000Y-94790126D01*
X104375000Y-94790126D01*
X104375000Y-95201874D01*
X104532569Y-95582280D01*
X104823720Y-95873431D01*
X105204126Y-96031000D01*
X105615874Y-96031000D01*
X105996280Y-95873431D01*
X106287431Y-95582280D01*
X106445000Y-95201874D01*
X106445000Y-94790126D01*
X106287431Y-94409720D01*
X105996280Y-94118569D01*
X105615874Y-93961000D01*
X105204126Y-93961000D01*
X104823720Y-94118569D01*
X104532569Y-94409720D01*
X104375000Y-94790126D01*
X92837000Y-94790126D01*
X92837000Y-92758126D01*
X110090000Y-92758126D01*
X110090000Y-93169874D01*
X110247569Y-93550280D01*
X110538720Y-93841431D01*
X110919126Y-93999000D01*
X111330874Y-93999000D01*
X111711280Y-93841431D01*
X111987368Y-93565343D01*
X111857234Y-93879515D01*
X111857234Y-94291263D01*
X112014803Y-94671669D01*
X112305954Y-94962820D01*
X112686360Y-95120389D01*
X113098108Y-95120389D01*
X113478514Y-94962820D01*
X113769665Y-94671669D01*
X113927234Y-94291263D01*
X113927234Y-93879515D01*
X113769665Y-93499109D01*
X113478514Y-93207958D01*
X113098108Y-93050389D01*
X112686360Y-93050389D01*
X112305954Y-93207958D01*
X112029866Y-93484046D01*
X112160000Y-93169874D01*
X112160000Y-92758126D01*
X112002431Y-92377720D01*
X111711280Y-92086569D01*
X111330874Y-91929000D01*
X110919126Y-91929000D01*
X110538720Y-92086569D01*
X110247569Y-92377720D01*
X110090000Y-92758126D01*
X92837000Y-92758126D01*
X92837000Y-82090126D01*
X106407000Y-82090126D01*
X106407000Y-82501874D01*
X106564569Y-82882280D01*
X106855720Y-83173431D01*
X107236126Y-83331000D01*
X107647874Y-83331000D01*
X108028280Y-83173431D01*
X108319431Y-82882280D01*
X108477000Y-82501874D01*
X108477000Y-82090126D01*
X108371790Y-81836125D01*
X108693001Y-81836125D01*
X108693001Y-82247873D01*
X108850570Y-82628279D01*
X109141721Y-82919430D01*
X109522127Y-83076999D01*
X109933875Y-83076999D01*
X110314281Y-82919430D01*
X110605432Y-82628279D01*
X110763001Y-82247873D01*
X110763001Y-82217124D01*
X111360000Y-82217124D01*
X111360000Y-82628872D01*
X111517569Y-83009278D01*
X111808720Y-83300429D01*
X112189126Y-83457998D01*
X112600874Y-83457998D01*
X112981280Y-83300429D01*
X113272431Y-83009278D01*
X113430000Y-82628872D01*
X113430000Y-82217124D01*
X113272431Y-81836718D01*
X112981280Y-81545567D01*
X112600874Y-81387998D01*
X112189126Y-81387998D01*
X111808720Y-81545567D01*
X111517569Y-81836718D01*
X111360000Y-82217124D01*
X110763001Y-82217124D01*
X110763001Y-81836125D01*
X110605432Y-81455719D01*
X110314281Y-81164568D01*
X109933875Y-81006999D01*
X109522127Y-81006999D01*
X109141721Y-81164568D01*
X108850570Y-81455719D01*
X108693001Y-81836125D01*
X108371790Y-81836125D01*
X108319431Y-81709720D01*
X108028280Y-81418569D01*
X107647874Y-81261000D01*
X107236126Y-81261000D01*
X106855720Y-81418569D01*
X106564569Y-81709720D01*
X106407000Y-82090126D01*
X92837000Y-82090126D01*
X92837000Y-78934704D01*
X107129481Y-78934704D01*
X107129481Y-79346452D01*
X107287050Y-79726858D01*
X107578201Y-80018009D01*
X107958607Y-80175578D01*
X108370355Y-80175578D01*
X108715873Y-80032460D01*
X109014126Y-80156000D01*
X109425874Y-80156000D01*
X109806280Y-79998431D01*
X110097431Y-79707280D01*
X110255000Y-79326874D01*
X110255000Y-78915126D01*
X110202395Y-78788126D01*
X110852000Y-78788126D01*
X110852000Y-79199874D01*
X111009569Y-79580280D01*
X111300720Y-79871431D01*
X111681126Y-80029000D01*
X112092874Y-80029000D01*
X112473280Y-79871431D01*
X112764431Y-79580280D01*
X112922000Y-79199874D01*
X112922000Y-79169126D01*
X115666000Y-79169126D01*
X115666000Y-79580874D01*
X115823569Y-79961280D01*
X116114720Y-80252431D01*
X116495126Y-80410000D01*
X116906874Y-80410000D01*
X117287280Y-80252431D01*
X117578431Y-79961280D01*
X117736000Y-79580874D01*
X117736000Y-79169126D01*
X117578431Y-78788720D01*
X117287280Y-78497569D01*
X116906874Y-78340000D01*
X116495126Y-78340000D01*
X116114720Y-78497569D01*
X115823569Y-78788720D01*
X115666000Y-79169126D01*
X112922000Y-79169126D01*
X112922000Y-78788126D01*
X112764431Y-78407720D01*
X112473280Y-78116569D01*
X112092874Y-77959000D01*
X111681126Y-77959000D01*
X111300720Y-78116569D01*
X111009569Y-78407720D01*
X110852000Y-78788126D01*
X110202395Y-78788126D01*
X110097431Y-78534720D01*
X109806280Y-78243569D01*
X109425874Y-78086000D01*
X109014126Y-78086000D01*
X108668608Y-78229118D01*
X108370355Y-78105578D01*
X107958607Y-78105578D01*
X107578201Y-78263147D01*
X107287050Y-78554298D01*
X107129481Y-78934704D01*
X92837000Y-78934704D01*
X92837000Y-77555116D01*
X99949555Y-77555116D01*
X99949555Y-77966864D01*
X100107124Y-78347270D01*
X100398275Y-78638421D01*
X100778681Y-78795990D01*
X101190429Y-78795990D01*
X101570835Y-78638421D01*
X101861986Y-78347270D01*
X102019555Y-77966864D01*
X102019555Y-77555116D01*
X101861986Y-77174710D01*
X101570835Y-76883559D01*
X101190429Y-76725990D01*
X100778681Y-76725990D01*
X100398275Y-76883559D01*
X100107124Y-77174710D01*
X99949555Y-77555116D01*
X92837000Y-77555116D01*
X92837000Y-73102963D01*
X95127000Y-73102963D01*
X95127000Y-73455037D01*
X95261733Y-73780312D01*
X95354458Y-73873037D01*
X95354458Y-74155275D01*
X95489191Y-74480550D01*
X95626500Y-74617859D01*
X95626500Y-74800263D01*
X95761233Y-75125538D01*
X95956010Y-75320315D01*
X95956010Y-75487037D01*
X96090743Y-75812312D01*
X96339698Y-76061267D01*
X96664973Y-76196000D01*
X97017047Y-76196000D01*
X97342322Y-76061267D01*
X97591277Y-75812312D01*
X97726010Y-75487037D01*
X97726010Y-75134963D01*
X97591277Y-74809688D01*
X97396500Y-74614911D01*
X97396500Y-74448189D01*
X97261767Y-74122914D01*
X97124458Y-73985605D01*
X97124458Y-73803201D01*
X96989725Y-73477926D01*
X96897000Y-73385201D01*
X96897000Y-73102963D01*
X96762267Y-72777688D01*
X96513312Y-72528733D01*
X96188037Y-72394000D01*
X95835963Y-72394000D01*
X95510688Y-72528733D01*
X95261733Y-72777688D01*
X95127000Y-73102963D01*
X92837000Y-73102963D01*
X92837000Y-70943963D01*
X113542000Y-70943963D01*
X113542000Y-71296037D01*
X113676733Y-71621312D01*
X113925688Y-71870267D01*
X114250963Y-72005000D01*
X114603037Y-72005000D01*
X114928312Y-71870267D01*
X115177267Y-71621312D01*
X115312000Y-71296037D01*
X115312000Y-70943963D01*
X115177267Y-70618688D01*
X114928312Y-70369733D01*
X114603037Y-70235000D01*
X114250963Y-70235000D01*
X113925688Y-70369733D01*
X113676733Y-70618688D01*
X113542000Y-70943963D01*
X92837000Y-70943963D01*
X92837000Y-68403963D01*
X95381000Y-68403963D01*
X95381000Y-68756037D01*
X95515733Y-69081312D01*
X95764688Y-69330267D01*
X96089963Y-69465000D01*
X96442037Y-69465000D01*
X96767312Y-69330267D01*
X97016267Y-69081312D01*
X97151000Y-68756037D01*
X97151000Y-68403963D01*
X97016267Y-68078688D01*
X96767312Y-67829733D01*
X96442037Y-67695000D01*
X96089963Y-67695000D01*
X95764688Y-67829733D01*
X95515733Y-68078688D01*
X95381000Y-68403963D01*
X92837000Y-68403963D01*
X92837000Y-66906967D01*
X104044004Y-66906967D01*
X104044004Y-67259041D01*
X104178737Y-67584316D01*
X104427692Y-67833271D01*
X104645798Y-67923613D01*
X104617723Y-67951688D01*
X104482990Y-68276963D01*
X104482990Y-68629037D01*
X104617723Y-68954312D01*
X104866678Y-69203267D01*
X105191953Y-69338000D01*
X105544027Y-69338000D01*
X105869302Y-69203267D01*
X106118257Y-68954312D01*
X106252990Y-68629037D01*
X106252990Y-68276963D01*
X106118257Y-67951688D01*
X105869302Y-67702733D01*
X105651196Y-67612391D01*
X105679271Y-67584316D01*
X105814004Y-67259041D01*
X105814004Y-66906967D01*
X105702576Y-66637953D01*
X109478001Y-66637953D01*
X109478001Y-66990027D01*
X109612734Y-67315302D01*
X109861689Y-67564257D01*
X110186964Y-67698990D01*
X110539038Y-67698990D01*
X110864313Y-67564257D01*
X111113268Y-67315302D01*
X111248001Y-66990027D01*
X111248001Y-66637953D01*
X111113268Y-66312678D01*
X110864313Y-66063723D01*
X110539038Y-65928990D01*
X110186964Y-65928990D01*
X109861689Y-66063723D01*
X109612734Y-66312678D01*
X109478001Y-66637953D01*
X105702576Y-66637953D01*
X105679271Y-66581692D01*
X105430316Y-66332737D01*
X105105041Y-66198004D01*
X104752967Y-66198004D01*
X104427692Y-66332737D01*
X104178737Y-66581692D01*
X104044004Y-66906967D01*
X92837000Y-66906967D01*
X92837000Y-64770000D01*
X112520661Y-64770000D01*
X114411270Y-64810226D01*
G36*
X148450604Y-57926895D02*
X149047782Y-58114039D01*
X149595124Y-58417436D01*
X150070289Y-58824701D01*
X150453852Y-59319188D01*
X150730150Y-59880700D01*
X150890104Y-60494774D01*
X150928000Y-60987270D01*
X150928001Y-109692026D01*
X150861105Y-110350604D01*
X150673961Y-110947782D01*
X150370563Y-111495125D01*
X149963299Y-111970289D01*
X149468812Y-112353852D01*
X148907304Y-112630148D01*
X148293227Y-112790104D01*
X147800730Y-112828000D01*
X128788412Y-112828000D01*
X128837220Y-104140000D01*
X137169908Y-104140000D01*
X137285161Y-104719418D01*
X137613375Y-105210625D01*
X137911761Y-105410000D01*
X137613375Y-105609375D01*
X137285161Y-106100582D01*
X137169908Y-106680000D01*
X137285161Y-107259418D01*
X137613375Y-107750625D01*
X137631619Y-107762816D01*
X137586235Y-107771843D01*
X137376191Y-107912191D01*
X137235843Y-108122235D01*
X137186560Y-108370000D01*
X137186560Y-110070000D01*
X137235843Y-110317765D01*
X137376191Y-110527809D01*
X137586235Y-110668157D01*
X137834000Y-110717440D01*
X139534000Y-110717440D01*
X139647000Y-110694963D01*
X142498000Y-110694963D01*
X142498000Y-111047037D01*
X142632733Y-111372312D01*
X142881688Y-111621267D01*
X143206963Y-111756000D01*
X143559037Y-111756000D01*
X143624362Y-111728941D01*
X143643688Y-111748267D01*
X143968963Y-111883000D01*
X144321037Y-111883000D01*
X144440332Y-111833586D01*
X144716965Y-111948171D01*
X145069039Y-111948171D01*
X145394314Y-111813438D01*
X145643269Y-111564483D01*
X145778002Y-111239208D01*
X145778002Y-110887134D01*
X145643269Y-110561859D01*
X145394314Y-110312904D01*
X145069039Y-110178171D01*
X144716965Y-110178171D01*
X144597670Y-110227585D01*
X144321037Y-110113000D01*
X143968963Y-110113000D01*
X143903638Y-110140059D01*
X143884312Y-110120733D01*
X143559037Y-109986000D01*
X143206963Y-109986000D01*
X142881688Y-110120733D01*
X142632733Y-110369688D01*
X142498000Y-110694963D01*
X139647000Y-110694963D01*
X139781765Y-110668157D01*
X139991809Y-110527809D01*
X140132157Y-110317765D01*
X140181440Y-110070000D01*
X140181440Y-108817609D01*
X141706538Y-108817609D01*
X141710408Y-108855281D01*
X141936920Y-109283474D01*
X142310053Y-109592390D01*
X142773000Y-109735000D01*
X143073000Y-109735000D01*
X143073000Y-108627000D01*
X143327000Y-108627000D01*
X143327000Y-109735000D01*
X143627000Y-109735000D01*
X143990660Y-109622975D01*
X145929174Y-109622975D01*
X145934796Y-110338696D01*
X146171949Y-111014009D01*
X146615061Y-111576094D01*
X147216352Y-111964343D01*
X147910986Y-112136891D01*
X148624060Y-112075132D01*
X149278684Y-111785726D01*
X149804270Y-111299879D01*
X150144145Y-110669979D01*
X150261661Y-109963949D01*
X150261392Y-109929712D01*
X150132801Y-109225615D01*
X149783074Y-108601132D01*
X149249921Y-108123600D01*
X148590832Y-107844512D01*
X147876876Y-107793961D01*
X147185038Y-107977399D01*
X146589919Y-108375045D01*
X146155691Y-108944021D01*
X145929174Y-109622975D01*
X143990660Y-109622975D01*
X144089947Y-109592390D01*
X144463080Y-109283474D01*
X144689592Y-108855281D01*
X144693462Y-108817609D01*
X144568731Y-108627000D01*
X143327000Y-108627000D01*
X143073000Y-108627000D01*
X141831269Y-108627000D01*
X141706538Y-108817609D01*
X140181440Y-108817609D01*
X140181440Y-108370000D01*
X140132157Y-108122235D01*
X139991809Y-107912191D01*
X139781765Y-107771843D01*
X139736381Y-107762816D01*
X139754625Y-107750625D01*
X140082839Y-107259418D01*
X140198092Y-106680000D01*
X140082839Y-106100582D01*
X139948815Y-105900000D01*
X141652560Y-105900000D01*
X141652560Y-107100000D01*
X141701843Y-107347765D01*
X141842191Y-107557809D01*
X142000700Y-107663722D01*
X141936920Y-107716526D01*
X141710408Y-108144719D01*
X141706538Y-108182391D01*
X141831269Y-108373000D01*
X143073000Y-108373000D01*
X143073000Y-108353000D01*
X143327000Y-108353000D01*
X143327000Y-108373000D01*
X144568731Y-108373000D01*
X144693462Y-108182391D01*
X144689592Y-108144719D01*
X144463080Y-107716526D01*
X144399300Y-107663722D01*
X144557809Y-107557809D01*
X144698157Y-107347765D01*
X144747440Y-107100000D01*
X144747440Y-105900000D01*
X144698157Y-105652235D01*
X144557809Y-105442191D01*
X144347765Y-105301843D01*
X144100000Y-105252560D01*
X142300000Y-105252560D01*
X142052235Y-105301843D01*
X141842191Y-105442191D01*
X141701843Y-105652235D01*
X141652560Y-105900000D01*
X139948815Y-105900000D01*
X139754625Y-105609375D01*
X139456239Y-105410000D01*
X139754625Y-105210625D01*
X140082839Y-104719418D01*
X140198092Y-104140000D01*
X140082839Y-103560582D01*
X139754625Y-103069375D01*
X139263418Y-102741161D01*
X138830256Y-102655000D01*
X138537744Y-102655000D01*
X138104582Y-102741161D01*
X137613375Y-103069375D01*
X137285161Y-103560582D01*
X137169908Y-104140000D01*
X128837220Y-104140000D01*
X128854074Y-101140126D01*
X132442000Y-101140126D01*
X132442000Y-101551874D01*
X132599569Y-101932280D01*
X132890720Y-102223431D01*
X133271126Y-102381000D01*
X133682874Y-102381000D01*
X134063280Y-102223431D01*
X134354431Y-101932280D01*
X134512000Y-101551874D01*
X134512000Y-101140126D01*
X134354431Y-100759720D01*
X134063280Y-100468569D01*
X133682874Y-100311000D01*
X133271126Y-100311000D01*
X132890720Y-100468569D01*
X132599569Y-100759720D01*
X132442000Y-101140126D01*
X128854074Y-101140126D01*
X128875479Y-97330126D01*
X131299000Y-97330126D01*
X131299000Y-97741874D01*
X131456569Y-98122280D01*
X131747720Y-98413431D01*
X132128126Y-98571000D01*
X132539874Y-98571000D01*
X132920280Y-98413431D01*
X133211431Y-98122280D01*
X133276526Y-97965126D01*
X136760000Y-97965126D01*
X136760000Y-98376874D01*
X136917569Y-98757280D01*
X137208720Y-99048431D01*
X137589126Y-99206000D01*
X138000874Y-99206000D01*
X138381280Y-99048431D01*
X138672431Y-98757280D01*
X138830000Y-98376874D01*
X138830000Y-97965126D01*
X138757461Y-97790000D01*
X146567908Y-97790000D01*
X146683161Y-98369418D01*
X147011375Y-98860625D01*
X147309761Y-99060000D01*
X147011375Y-99259375D01*
X146683161Y-99750582D01*
X146567908Y-100330000D01*
X146683161Y-100909418D01*
X147011375Y-101400625D01*
X147309761Y-101600000D01*
X147011375Y-101799375D01*
X146683161Y-102290582D01*
X146567908Y-102870000D01*
X146683161Y-103449418D01*
X147011375Y-103940625D01*
X147502582Y-104268839D01*
X147935744Y-104355000D01*
X148228256Y-104355000D01*
X148661418Y-104268839D01*
X149152625Y-103940625D01*
X149480839Y-103449418D01*
X149596092Y-102870000D01*
X149480839Y-102290582D01*
X149152625Y-101799375D01*
X148854239Y-101600000D01*
X149152625Y-101400625D01*
X149480839Y-100909418D01*
X149596092Y-100330000D01*
X149480839Y-99750582D01*
X149152625Y-99259375D01*
X148854239Y-99060000D01*
X149152625Y-98860625D01*
X149480839Y-98369418D01*
X149596092Y-97790000D01*
X149480839Y-97210582D01*
X149152625Y-96719375D01*
X148833522Y-96506157D01*
X148963358Y-96445183D01*
X149353645Y-96016924D01*
X149523476Y-95606890D01*
X149402155Y-95377000D01*
X148209000Y-95377000D01*
X148209000Y-95397000D01*
X147955000Y-95397000D01*
X147955000Y-95377000D01*
X146761845Y-95377000D01*
X146640524Y-95606890D01*
X146810355Y-96016924D01*
X147200642Y-96445183D01*
X147330478Y-96506157D01*
X147011375Y-96719375D01*
X146683161Y-97210582D01*
X146567908Y-97790000D01*
X138757461Y-97790000D01*
X138672431Y-97584720D01*
X138381280Y-97293569D01*
X138000874Y-97136000D01*
X137589126Y-97136000D01*
X137208720Y-97293569D01*
X136917569Y-97584720D01*
X136760000Y-97965126D01*
X133276526Y-97965126D01*
X133369000Y-97741874D01*
X133369000Y-97330126D01*
X133211431Y-96949720D01*
X132920280Y-96658569D01*
X132539874Y-96501000D01*
X132128126Y-96501000D01*
X131747720Y-96658569D01*
X131456569Y-96949720D01*
X131299000Y-97330126D01*
X128875479Y-97330126D01*
X128889748Y-94790126D01*
X133966000Y-94790126D01*
X133966000Y-95201874D01*
X134123569Y-95582280D01*
X134414720Y-95873431D01*
X134795126Y-96031000D01*
X135206874Y-96031000D01*
X135587280Y-95873431D01*
X135878431Y-95582280D01*
X136036000Y-95201874D01*
X136036000Y-94790126D01*
X135878431Y-94409720D01*
X135587280Y-94118569D01*
X135206874Y-93961000D01*
X134795126Y-93961000D01*
X134414720Y-94118569D01*
X134123569Y-94409720D01*
X133966000Y-94790126D01*
X128889748Y-94790126D01*
X128904289Y-92202000D01*
X131826000Y-92202000D01*
X131874601Y-92192333D01*
X131915803Y-92164803D01*
X131943333Y-92123601D01*
X131953000Y-92075000D01*
X131953000Y-91488126D01*
X133585000Y-91488126D01*
X133585000Y-91899874D01*
X133742569Y-92280280D01*
X134033720Y-92571431D01*
X134414126Y-92729000D01*
X134825874Y-92729000D01*
X135206280Y-92571431D01*
X135497431Y-92280280D01*
X135655000Y-91899874D01*
X135655000Y-91488126D01*
X135497431Y-91107720D01*
X135206280Y-90816569D01*
X134825874Y-90659000D01*
X134414126Y-90659000D01*
X134033720Y-90816569D01*
X133742569Y-91107720D01*
X133585000Y-91488126D01*
X131953000Y-91488126D01*
X131953000Y-89964126D01*
X141967000Y-89964126D01*
X141967000Y-90375874D01*
X142124569Y-90756280D01*
X142415720Y-91047431D01*
X142796126Y-91205000D01*
X143207874Y-91205000D01*
X143588280Y-91047431D01*
X143879431Y-90756280D01*
X144037000Y-90375874D01*
X144037000Y-89964126D01*
X143879431Y-89583720D01*
X143588280Y-89292569D01*
X143207874Y-89135000D01*
X142796126Y-89135000D01*
X142415720Y-89292569D01*
X142124569Y-89583720D01*
X141967000Y-89964126D01*
X131953000Y-89964126D01*
X131953000Y-87606363D01*
X144301400Y-87606363D01*
X144301400Y-87958437D01*
X144436133Y-88283712D01*
X144685088Y-88532667D01*
X145010363Y-88667400D01*
X145362437Y-88667400D01*
X145687712Y-88532667D01*
X145936667Y-88283712D01*
X146071400Y-87958437D01*
X146071400Y-87606363D01*
X145936667Y-87281088D01*
X145687712Y-87032133D01*
X145362437Y-86897400D01*
X145010363Y-86897400D01*
X144685088Y-87032133D01*
X144436133Y-87281088D01*
X144301400Y-87606363D01*
X131953000Y-87606363D01*
X131953000Y-87159914D01*
X131980480Y-87148531D01*
X132271631Y-86857380D01*
X132429200Y-86476974D01*
X132429200Y-86065226D01*
X132271631Y-85684820D01*
X131980480Y-85393669D01*
X131953000Y-85382286D01*
X131953000Y-84134826D01*
X142881400Y-84134826D01*
X142881400Y-84546574D01*
X143038969Y-84926980D01*
X143330120Y-85218131D01*
X143710526Y-85375700D01*
X144122274Y-85375700D01*
X144502680Y-85218131D01*
X144793831Y-84926980D01*
X144951400Y-84546574D01*
X144951400Y-84134826D01*
X144793831Y-83754420D01*
X144502680Y-83463269D01*
X144122274Y-83305700D01*
X143710526Y-83305700D01*
X143330120Y-83463269D01*
X143038969Y-83754420D01*
X142881400Y-84134826D01*
X131953000Y-84134826D01*
X131953000Y-82042000D01*
X131943333Y-81993399D01*
X131915803Y-81952197D01*
X131874601Y-81924667D01*
X131826000Y-81915000D01*
X130467102Y-81915000D01*
X130417267Y-81794688D01*
X130168312Y-81545733D01*
X129843037Y-81411000D01*
X129490963Y-81411000D01*
X129165688Y-81545733D01*
X128916733Y-81794688D01*
X128866898Y-81915000D01*
X125173711Y-81915000D01*
X125337431Y-81751280D01*
X125495000Y-81370874D01*
X125495000Y-80959126D01*
X125421032Y-80780550D01*
X125563270Y-80638312D01*
X125678804Y-80359388D01*
X125741733Y-80511312D01*
X125990688Y-80760267D01*
X126315963Y-80895000D01*
X126668037Y-80895000D01*
X126993312Y-80760267D01*
X127060453Y-80693126D01*
X131426000Y-80693126D01*
X131426000Y-81104874D01*
X131583569Y-81485280D01*
X131874720Y-81776431D01*
X132255126Y-81934000D01*
X132666874Y-81934000D01*
X133047280Y-81776431D01*
X133241585Y-81582126D01*
X134855000Y-81582126D01*
X134855000Y-81993874D01*
X135012569Y-82374280D01*
X135303720Y-82665431D01*
X135684126Y-82823000D01*
X136095874Y-82823000D01*
X136476280Y-82665431D01*
X136767431Y-82374280D01*
X136781224Y-82340980D01*
X136841986Y-82366148D01*
X137194060Y-82366148D01*
X137519335Y-82231415D01*
X137768290Y-81982460D01*
X137903023Y-81657185D01*
X137903023Y-81305111D01*
X137839418Y-81151553D01*
X138015752Y-80975219D01*
X138150485Y-80649944D01*
X138150485Y-80297870D01*
X138015752Y-79972595D01*
X137766797Y-79723640D01*
X137441522Y-79588907D01*
X137089448Y-79588907D01*
X136764173Y-79723640D01*
X136515218Y-79972595D01*
X136380485Y-80297870D01*
X136380485Y-80649944D01*
X136444090Y-80803502D01*
X136377810Y-80869782D01*
X136095874Y-80753000D01*
X135684126Y-80753000D01*
X135303720Y-80910569D01*
X135012569Y-81201720D01*
X134855000Y-81582126D01*
X133241585Y-81582126D01*
X133338431Y-81485280D01*
X133496000Y-81104874D01*
X133496000Y-80693126D01*
X133338431Y-80312720D01*
X133047280Y-80021569D01*
X132666874Y-79864000D01*
X132255126Y-79864000D01*
X131874720Y-80021569D01*
X131583569Y-80312720D01*
X131426000Y-80693126D01*
X127060453Y-80693126D01*
X127242267Y-80511312D01*
X127377000Y-80186037D01*
X127377000Y-79833963D01*
X127242267Y-79508688D01*
X126993312Y-79259733D01*
X126668037Y-79125000D01*
X126315963Y-79125000D01*
X125990688Y-79259733D01*
X125741733Y-79508688D01*
X125626199Y-79787612D01*
X125563270Y-79635688D01*
X125314315Y-79386733D01*
X124989040Y-79252000D01*
X124636966Y-79252000D01*
X124313001Y-79386190D01*
X123989037Y-79252000D01*
X123636963Y-79252000D01*
X123311688Y-79386733D01*
X123062733Y-79635688D01*
X122928000Y-79960963D01*
X122928000Y-80313037D01*
X123062733Y-80638312D01*
X123311688Y-80887267D01*
X123433812Y-80937852D01*
X123425000Y-80959126D01*
X123425000Y-81370874D01*
X123582569Y-81751280D01*
X123746289Y-81915000D01*
X121431000Y-81915000D01*
X121431000Y-81582126D01*
X121273431Y-81201720D01*
X120982280Y-80910569D01*
X120601874Y-80753000D01*
X120279463Y-80753000D01*
X120361844Y-80554113D01*
X120361844Y-80202039D01*
X120227111Y-79876764D01*
X119978156Y-79627809D01*
X119652881Y-79493076D01*
X119380000Y-79493076D01*
X119380000Y-78153126D01*
X137395000Y-78153126D01*
X137395000Y-78564874D01*
X137552569Y-78945280D01*
X137843720Y-79236431D01*
X138224126Y-79394000D01*
X138635874Y-79394000D01*
X139016280Y-79236431D01*
X139307431Y-78945280D01*
X139465000Y-78564874D01*
X139465000Y-78153126D01*
X139307431Y-77772720D01*
X139016280Y-77481569D01*
X138988350Y-77470000D01*
X146567908Y-77470000D01*
X146683161Y-78049418D01*
X147011375Y-78540625D01*
X147309761Y-78740000D01*
X147011375Y-78939375D01*
X146683161Y-79430582D01*
X146567908Y-80010000D01*
X146683161Y-80589418D01*
X147011375Y-81080625D01*
X147309761Y-81280000D01*
X147011375Y-81479375D01*
X146683161Y-81970582D01*
X146567908Y-82550000D01*
X146683161Y-83129418D01*
X147011375Y-83620625D01*
X147309761Y-83820000D01*
X147011375Y-84019375D01*
X146683161Y-84510582D01*
X146567908Y-85090000D01*
X146683161Y-85669418D01*
X147011375Y-86160625D01*
X147309761Y-86360000D01*
X147011375Y-86559375D01*
X146683161Y-87050582D01*
X146567908Y-87630000D01*
X146683161Y-88209418D01*
X147011375Y-88700625D01*
X147309761Y-88900000D01*
X147011375Y-89099375D01*
X146683161Y-89590582D01*
X146567908Y-90170000D01*
X146683161Y-90749418D01*
X147011375Y-91240625D01*
X147309761Y-91440000D01*
X147011375Y-91639375D01*
X146683161Y-92130582D01*
X146567908Y-92710000D01*
X146683161Y-93289418D01*
X147011375Y-93780625D01*
X147330478Y-93993843D01*
X147200642Y-94054817D01*
X146810355Y-94483076D01*
X146640524Y-94893110D01*
X146761845Y-95123000D01*
X147955000Y-95123000D01*
X147955000Y-95103000D01*
X148209000Y-95103000D01*
X148209000Y-95123000D01*
X149402155Y-95123000D01*
X149523476Y-94893110D01*
X149353645Y-94483076D01*
X148963358Y-94054817D01*
X148833522Y-93993843D01*
X149152625Y-93780625D01*
X149480839Y-93289418D01*
X149596092Y-92710000D01*
X149480839Y-92130582D01*
X149152625Y-91639375D01*
X148854239Y-91440000D01*
X149152625Y-91240625D01*
X149480839Y-90749418D01*
X149596092Y-90170000D01*
X149480839Y-89590582D01*
X149152625Y-89099375D01*
X148854239Y-88900000D01*
X149152625Y-88700625D01*
X149480839Y-88209418D01*
X149596092Y-87630000D01*
X149480839Y-87050582D01*
X149152625Y-86559375D01*
X148854239Y-86360000D01*
X149152625Y-86160625D01*
X149480839Y-85669418D01*
X149596092Y-85090000D01*
X149480839Y-84510582D01*
X149152625Y-84019375D01*
X148854239Y-83820000D01*
X149152625Y-83620625D01*
X149480839Y-83129418D01*
X149596092Y-82550000D01*
X149480839Y-81970582D01*
X149152625Y-81479375D01*
X148854239Y-81280000D01*
X149152625Y-81080625D01*
X149480839Y-80589418D01*
X149596092Y-80010000D01*
X149480839Y-79430582D01*
X149152625Y-78939375D01*
X148854239Y-78740000D01*
X149152625Y-78540625D01*
X149480839Y-78049418D01*
X149596092Y-77470000D01*
X149480839Y-76890582D01*
X149152625Y-76399375D01*
X148833522Y-76186157D01*
X148963358Y-76125183D01*
X149353645Y-75696924D01*
X149523476Y-75286890D01*
X149402155Y-75057000D01*
X148209000Y-75057000D01*
X148209000Y-75077000D01*
X147955000Y-75077000D01*
X147955000Y-75057000D01*
X146761845Y-75057000D01*
X146640524Y-75286890D01*
X146810355Y-75696924D01*
X147200642Y-76125183D01*
X147330478Y-76186157D01*
X147011375Y-76399375D01*
X146683161Y-76890582D01*
X146567908Y-77470000D01*
X138988350Y-77470000D01*
X138635874Y-77324000D01*
X138224126Y-77324000D01*
X137843720Y-77481569D01*
X137552569Y-77772720D01*
X137395000Y-78153126D01*
X119380000Y-78153126D01*
X119380000Y-76327000D01*
X123983938Y-76327000D01*
X124123963Y-76385000D01*
X124476037Y-76385000D01*
X124801312Y-76250267D01*
X125050267Y-76001312D01*
X125185000Y-75676037D01*
X125185000Y-75323963D01*
X125050267Y-74998688D01*
X124801312Y-74749733D01*
X124476037Y-74615000D01*
X124460000Y-74615000D01*
X124460000Y-74295000D01*
X128016000Y-74295000D01*
X128064601Y-74285333D01*
X128105803Y-74257803D01*
X128133333Y-74216601D01*
X128143000Y-74168000D01*
X128143000Y-70720579D01*
X128385267Y-70478312D01*
X128455413Y-70308963D01*
X130814000Y-70308963D01*
X130814000Y-70661037D01*
X130948733Y-70986312D01*
X131197688Y-71235267D01*
X131522963Y-71370000D01*
X131875037Y-71370000D01*
X131922974Y-71350144D01*
X131889264Y-71383854D01*
X131754531Y-71709129D01*
X131754531Y-72061203D01*
X131889264Y-72386478D01*
X132138219Y-72635433D01*
X132463494Y-72770166D01*
X132815568Y-72770166D01*
X133140843Y-72635433D01*
X133389798Y-72386478D01*
X133524531Y-72061203D01*
X133524531Y-71709129D01*
X133389798Y-71383854D01*
X133140843Y-71134899D01*
X132815568Y-71000166D01*
X132463494Y-71000166D01*
X132415557Y-71020022D01*
X132449267Y-70986312D01*
X132584000Y-70661037D01*
X132584000Y-70455110D01*
X132814798Y-70224312D01*
X132949531Y-69899037D01*
X132949531Y-69546963D01*
X132896927Y-69419963D01*
X133227000Y-69419963D01*
X133227000Y-69772037D01*
X133361733Y-70097312D01*
X133610688Y-70346267D01*
X133935963Y-70481000D01*
X134288037Y-70481000D01*
X134613312Y-70346267D01*
X134862267Y-70097312D01*
X134956837Y-69869000D01*
X135079874Y-69869000D01*
X135125744Y-69850000D01*
X146567908Y-69850000D01*
X146683161Y-70429418D01*
X147011375Y-70920625D01*
X147309761Y-71120000D01*
X147011375Y-71319375D01*
X146683161Y-71810582D01*
X146567908Y-72390000D01*
X146683161Y-72969418D01*
X147011375Y-73460625D01*
X147330478Y-73673843D01*
X147200642Y-73734817D01*
X146810355Y-74163076D01*
X146640524Y-74573110D01*
X146761845Y-74803000D01*
X147955000Y-74803000D01*
X147955000Y-74783000D01*
X148209000Y-74783000D01*
X148209000Y-74803000D01*
X149402155Y-74803000D01*
X149523476Y-74573110D01*
X149353645Y-74163076D01*
X148963358Y-73734817D01*
X148833522Y-73673843D01*
X149152625Y-73460625D01*
X149480839Y-72969418D01*
X149596092Y-72390000D01*
X149480839Y-71810582D01*
X149152625Y-71319375D01*
X148854239Y-71120000D01*
X149152625Y-70920625D01*
X149480839Y-70429418D01*
X149596092Y-69850000D01*
X149480839Y-69270582D01*
X149152625Y-68779375D01*
X149130967Y-68764904D01*
X149291698Y-68698327D01*
X149470327Y-68519699D01*
X149567000Y-68286310D01*
X149567000Y-67595750D01*
X149408250Y-67437000D01*
X148209000Y-67437000D01*
X148209000Y-67457000D01*
X147955000Y-67457000D01*
X147955000Y-67437000D01*
X146755750Y-67437000D01*
X146597000Y-67595750D01*
X146597000Y-68286310D01*
X146693673Y-68519699D01*
X146872302Y-68698327D01*
X147033033Y-68764904D01*
X147011375Y-68779375D01*
X146683161Y-69270582D01*
X146567908Y-69850000D01*
X135125744Y-69850000D01*
X135460280Y-69711431D01*
X135751431Y-69420280D01*
X135909000Y-69039874D01*
X135909000Y-68628126D01*
X135751431Y-68247720D01*
X135460280Y-67956569D01*
X135079874Y-67799000D01*
X134668126Y-67799000D01*
X134287720Y-67956569D01*
X133996569Y-68247720D01*
X133839000Y-68628126D01*
X133839000Y-68751163D01*
X133610688Y-68845733D01*
X133361733Y-69094688D01*
X133227000Y-69419963D01*
X132896927Y-69419963D01*
X132814798Y-69221688D01*
X132565843Y-68972733D01*
X132240568Y-68838000D01*
X131888494Y-68838000D01*
X131563219Y-68972733D01*
X131314264Y-69221688D01*
X131179531Y-69546963D01*
X131179531Y-69752890D01*
X130948733Y-69983688D01*
X130814000Y-70308963D01*
X128455413Y-70308963D01*
X128520000Y-70153037D01*
X128520000Y-69800963D01*
X128385267Y-69475688D01*
X128181284Y-69271705D01*
X128314893Y-68949144D01*
X128314893Y-68597070D01*
X128180160Y-68271795D01*
X127931205Y-68022840D01*
X127605930Y-67888107D01*
X127253856Y-67888107D01*
X126928581Y-68022840D01*
X126679626Y-68271795D01*
X126544893Y-68597070D01*
X126544893Y-68949144D01*
X126679626Y-69274419D01*
X126883609Y-69478402D01*
X126834898Y-69596000D01*
X118872000Y-69596000D01*
X118872000Y-68703000D01*
X119175037Y-68703000D01*
X119500312Y-68568267D01*
X119512025Y-68556554D01*
X119517651Y-68562180D01*
X119842926Y-68696913D01*
X120195000Y-68696913D01*
X120520275Y-68562180D01*
X120769230Y-68313225D01*
X120903963Y-67987950D01*
X120903963Y-67641963D01*
X123024990Y-67641963D01*
X123024990Y-67994037D01*
X123159723Y-68319312D01*
X123408678Y-68568267D01*
X123733953Y-68703000D01*
X124086027Y-68703000D01*
X124411302Y-68568267D01*
X124565991Y-68413578D01*
X124720688Y-68568275D01*
X125045963Y-68703008D01*
X125398037Y-68703008D01*
X125723312Y-68568275D01*
X125972267Y-68319320D01*
X126107000Y-67994045D01*
X126107000Y-67641971D01*
X125972267Y-67316696D01*
X125894203Y-67238632D01*
X135363669Y-67238632D01*
X135363669Y-67590706D01*
X135498402Y-67915981D01*
X135747357Y-68164936D01*
X136072632Y-68299669D01*
X136424706Y-68299669D01*
X136749981Y-68164936D01*
X136998936Y-67915981D01*
X137133669Y-67590706D01*
X137133669Y-67238632D01*
X136998936Y-66913357D01*
X136749981Y-66664402D01*
X136542336Y-66578393D01*
X136854472Y-66449102D01*
X136862495Y-66441079D01*
X137110963Y-66543998D01*
X137463037Y-66543998D01*
X137788312Y-66409265D01*
X137863887Y-66333690D01*
X146597000Y-66333690D01*
X146597000Y-67024250D01*
X146755750Y-67183000D01*
X147955000Y-67183000D01*
X147955000Y-65983750D01*
X148209000Y-65983750D01*
X148209000Y-67183000D01*
X149408250Y-67183000D01*
X149567000Y-67024250D01*
X149567000Y-66333690D01*
X149470327Y-66100301D01*
X149291698Y-65921673D01*
X149058309Y-65825000D01*
X148367750Y-65825000D01*
X148209000Y-65983750D01*
X147955000Y-65983750D01*
X147796250Y-65825000D01*
X147105691Y-65825000D01*
X146872302Y-65921673D01*
X146693673Y-66100301D01*
X146597000Y-66333690D01*
X137863887Y-66333690D01*
X138037267Y-66160310D01*
X138172000Y-65835035D01*
X138172000Y-65482961D01*
X138037267Y-65157686D01*
X137788312Y-64908731D01*
X137463037Y-64773998D01*
X137110963Y-64773998D01*
X136785688Y-64908731D01*
X136777665Y-64916754D01*
X136529197Y-64813835D01*
X136177123Y-64813835D01*
X135851848Y-64948568D01*
X135602893Y-65197523D01*
X135468160Y-65522798D01*
X135468160Y-65874872D01*
X135602893Y-66200147D01*
X135851848Y-66449102D01*
X136059493Y-66535111D01*
X135747357Y-66664402D01*
X135498402Y-66913357D01*
X135363669Y-67238632D01*
X125894203Y-67238632D01*
X125723312Y-67067741D01*
X125398037Y-66933008D01*
X125045963Y-66933008D01*
X124720688Y-67067741D01*
X124565999Y-67222430D01*
X124411302Y-67067733D01*
X124086027Y-66933000D01*
X123733953Y-66933000D01*
X123408678Y-67067733D01*
X123159723Y-67316688D01*
X123024990Y-67641963D01*
X120903963Y-67641963D01*
X120903963Y-67635876D01*
X120769230Y-67310601D01*
X120520275Y-67061646D01*
X120195000Y-66926913D01*
X119842926Y-66926913D01*
X119517651Y-67061646D01*
X119505938Y-67073359D01*
X119500312Y-67067733D01*
X119448733Y-67046368D01*
X119484754Y-66959405D01*
X119484754Y-66547657D01*
X119327185Y-66167251D01*
X119036034Y-65876100D01*
X118872000Y-65808155D01*
X118872000Y-64262000D01*
X118862333Y-64213399D01*
X118834803Y-64172197D01*
X118793601Y-64144667D01*
X118745000Y-64135000D01*
X116001364Y-64135000D01*
X115648874Y-63988994D01*
X115237126Y-63988994D01*
X114884636Y-64135000D01*
X87324000Y-64135000D01*
X87324000Y-60995964D01*
X87362084Y-60621031D01*
X88029836Y-60621031D01*
X88035425Y-61332543D01*
X88271183Y-62003884D01*
X88711689Y-62562663D01*
X89309444Y-62948628D01*
X89999992Y-63120161D01*
X90708871Y-63058766D01*
X91359645Y-62771062D01*
X91882140Y-62288072D01*
X92220017Y-61661878D01*
X92336841Y-60960000D01*
X92336574Y-60925965D01*
X92208739Y-60226009D01*
X91908560Y-59690000D01*
X93481908Y-59690000D01*
X93597161Y-60269418D01*
X93925375Y-60760625D01*
X93943619Y-60772816D01*
X93898235Y-60781843D01*
X93688191Y-60922191D01*
X93547843Y-61132235D01*
X93498560Y-61380000D01*
X93498560Y-63080000D01*
X93547843Y-63327765D01*
X93688191Y-63537809D01*
X93898235Y-63678157D01*
X94146000Y-63727440D01*
X95846000Y-63727440D01*
X96093765Y-63678157D01*
X96303809Y-63537809D01*
X96444157Y-63327765D01*
X96453184Y-63282381D01*
X96465375Y-63300625D01*
X96956582Y-63628839D01*
X97389744Y-63715000D01*
X97682256Y-63715000D01*
X98115418Y-63628839D01*
X98606625Y-63300625D01*
X98806000Y-63002239D01*
X99005375Y-63300625D01*
X99496582Y-63628839D01*
X99929744Y-63715000D01*
X100222256Y-63715000D01*
X100655418Y-63628839D01*
X101146625Y-63300625D01*
X101346000Y-63002239D01*
X101545375Y-63300625D01*
X102036582Y-63628839D01*
X102469744Y-63715000D01*
X102762256Y-63715000D01*
X103195418Y-63628839D01*
X103686625Y-63300625D01*
X103899843Y-62981522D01*
X103960817Y-63111358D01*
X104389076Y-63501645D01*
X104799110Y-63671476D01*
X105029000Y-63550155D01*
X105029000Y-62357000D01*
X105009000Y-62357000D01*
X105009000Y-62103000D01*
X105029000Y-62103000D01*
X105029000Y-62083000D01*
X105283000Y-62083000D01*
X105283000Y-62103000D01*
X105303000Y-62103000D01*
X105303000Y-62357000D01*
X105283000Y-62357000D01*
X105283000Y-63550155D01*
X105512890Y-63671476D01*
X105922924Y-63501645D01*
X106351183Y-63111358D01*
X106412157Y-62981522D01*
X106625375Y-63300625D01*
X107116582Y-63628839D01*
X107549744Y-63715000D01*
X107842256Y-63715000D01*
X108275418Y-63628839D01*
X108766625Y-63300625D01*
X108966000Y-63002239D01*
X109165375Y-63300625D01*
X109656582Y-63628839D01*
X110089744Y-63715000D01*
X110382256Y-63715000D01*
X110815418Y-63628839D01*
X111306625Y-63300625D01*
X111506000Y-63002239D01*
X111705375Y-63300625D01*
X112196582Y-63628839D01*
X112629744Y-63715000D01*
X112922256Y-63715000D01*
X113355418Y-63628839D01*
X113846625Y-63300625D01*
X114046000Y-63002239D01*
X114245375Y-63300625D01*
X114736582Y-63628839D01*
X115169744Y-63715000D01*
X115462256Y-63715000D01*
X115895418Y-63628839D01*
X116386625Y-63300625D01*
X116586000Y-63002239D01*
X116785375Y-63300625D01*
X117276582Y-63628839D01*
X117709744Y-63715000D01*
X118002256Y-63715000D01*
X118435418Y-63628839D01*
X118926625Y-63300625D01*
X119126000Y-63002239D01*
X119325375Y-63300625D01*
X119816582Y-63628839D01*
X120249744Y-63715000D01*
X120542256Y-63715000D01*
X120975418Y-63628839D01*
X121466625Y-63300625D01*
X121666000Y-63002239D01*
X121865375Y-63300625D01*
X122356582Y-63628839D01*
X122789744Y-63715000D01*
X123082256Y-63715000D01*
X123515418Y-63628839D01*
X124006625Y-63300625D01*
X124219843Y-62981522D01*
X124280817Y-63111358D01*
X124709076Y-63501645D01*
X125119110Y-63671476D01*
X125349000Y-63550155D01*
X125349000Y-62357000D01*
X125329000Y-62357000D01*
X125329000Y-62103000D01*
X125349000Y-62103000D01*
X125349000Y-62083000D01*
X125603000Y-62083000D01*
X125603000Y-62103000D01*
X125623000Y-62103000D01*
X125623000Y-62357000D01*
X125603000Y-62357000D01*
X125603000Y-63550155D01*
X125832890Y-63671476D01*
X126242924Y-63501645D01*
X126671183Y-63111358D01*
X126732157Y-62981522D01*
X126945375Y-63300625D01*
X127436582Y-63628839D01*
X127869744Y-63715000D01*
X128162256Y-63715000D01*
X128595418Y-63628839D01*
X129086625Y-63300625D01*
X129286000Y-63002239D01*
X129485375Y-63300625D01*
X129808465Y-63516507D01*
X129800688Y-63519728D01*
X129551733Y-63768683D01*
X129417000Y-64093958D01*
X129417000Y-64446032D01*
X129536692Y-64734995D01*
X129207126Y-64734995D01*
X128826720Y-64892564D01*
X128535569Y-65183715D01*
X128378000Y-65564121D01*
X128378000Y-65975869D01*
X128535569Y-66356275D01*
X128826720Y-66647426D01*
X129207126Y-66804995D01*
X129618874Y-66804995D01*
X129999280Y-66647426D01*
X130290431Y-66356275D01*
X130448000Y-65975869D01*
X130448000Y-65564121D01*
X130290431Y-65183715D01*
X130261711Y-65154995D01*
X130478037Y-65154995D01*
X130803312Y-65020262D01*
X131052267Y-64771307D01*
X131187000Y-64446032D01*
X131187000Y-64093958D01*
X131052267Y-63768683D01*
X130949420Y-63665836D01*
X131135418Y-63628839D01*
X131626625Y-63300625D01*
X131826000Y-63002239D01*
X132025375Y-63300625D01*
X132516582Y-63628839D01*
X132949744Y-63715000D01*
X133242256Y-63715000D01*
X133675418Y-63628839D01*
X134166625Y-63300625D01*
X134366000Y-63002239D01*
X134565375Y-63300625D01*
X135056582Y-63628839D01*
X135489744Y-63715000D01*
X135782256Y-63715000D01*
X136215418Y-63628839D01*
X136706625Y-63300625D01*
X136906000Y-63002239D01*
X137105375Y-63300625D01*
X137596582Y-63628839D01*
X138029744Y-63715000D01*
X138322256Y-63715000D01*
X138755418Y-63628839D01*
X139246625Y-63300625D01*
X139446000Y-63002239D01*
X139645375Y-63300625D01*
X139871263Y-63451559D01*
X139706688Y-63519728D01*
X139457733Y-63768683D01*
X139323000Y-64093958D01*
X139323000Y-64446032D01*
X139457733Y-64771307D01*
X139706688Y-65020262D01*
X140031963Y-65154995D01*
X140384037Y-65154995D01*
X140709312Y-65020262D01*
X140958267Y-64771307D01*
X141093000Y-64446032D01*
X141093000Y-64093958D01*
X140958267Y-63768683D01*
X140897561Y-63707977D01*
X141295418Y-63628839D01*
X141786625Y-63300625D01*
X141999843Y-62981522D01*
X142060817Y-63111358D01*
X142489076Y-63501645D01*
X142899110Y-63671476D01*
X143129000Y-63550155D01*
X143129000Y-62357000D01*
X143383000Y-62357000D01*
X143383000Y-63550155D01*
X143612890Y-63671476D01*
X144022924Y-63501645D01*
X144451183Y-63111358D01*
X144697486Y-62586892D01*
X144576819Y-62357000D01*
X143383000Y-62357000D01*
X143129000Y-62357000D01*
X143109000Y-62357000D01*
X143109000Y-62103000D01*
X143129000Y-62103000D01*
X143129000Y-62083000D01*
X143383000Y-62083000D01*
X143383000Y-62103000D01*
X144576819Y-62103000D01*
X144697486Y-61873108D01*
X144451183Y-61348642D01*
X144026214Y-60961353D01*
X144326625Y-60760625D01*
X144419898Y-60621031D01*
X145941836Y-60621031D01*
X145947425Y-61332543D01*
X146183183Y-62003884D01*
X146623689Y-62562663D01*
X147221444Y-62948628D01*
X147911992Y-63120161D01*
X148620871Y-63058766D01*
X149271645Y-62771062D01*
X149794140Y-62288072D01*
X150132017Y-61661878D01*
X150248841Y-60960000D01*
X150248574Y-60925965D01*
X150120739Y-60226009D01*
X149773069Y-59605199D01*
X149243051Y-59130476D01*
X148587839Y-58853029D01*
X147878082Y-58802776D01*
X147190314Y-58985134D01*
X146598695Y-59380441D01*
X146167020Y-59946070D01*
X145941836Y-60621031D01*
X144419898Y-60621031D01*
X144654839Y-60269418D01*
X144770092Y-59690000D01*
X144654839Y-59110582D01*
X144326625Y-58619375D01*
X143835418Y-58291161D01*
X143402256Y-58205000D01*
X143109744Y-58205000D01*
X142676582Y-58291161D01*
X142185375Y-58619375D01*
X141986000Y-58917761D01*
X141786625Y-58619375D01*
X141295418Y-58291161D01*
X140862256Y-58205000D01*
X140569744Y-58205000D01*
X140136582Y-58291161D01*
X139645375Y-58619375D01*
X139446000Y-58917761D01*
X139246625Y-58619375D01*
X138755418Y-58291161D01*
X138322256Y-58205000D01*
X138029744Y-58205000D01*
X137596582Y-58291161D01*
X137105375Y-58619375D01*
X136892157Y-58938478D01*
X136831183Y-58808642D01*
X136402924Y-58418355D01*
X135992890Y-58248524D01*
X135763000Y-58369845D01*
X135763000Y-59563000D01*
X135783000Y-59563000D01*
X135783000Y-59817000D01*
X135763000Y-59817000D01*
X135763000Y-59837000D01*
X135509000Y-59837000D01*
X135509000Y-59817000D01*
X135489000Y-59817000D01*
X135489000Y-59563000D01*
X135509000Y-59563000D01*
X135509000Y-58369845D01*
X135279110Y-58248524D01*
X134869076Y-58418355D01*
X134440817Y-58808642D01*
X134379843Y-58938478D01*
X134166625Y-58619375D01*
X133675418Y-58291161D01*
X133242256Y-58205000D01*
X132949744Y-58205000D01*
X132516582Y-58291161D01*
X132025375Y-58619375D01*
X131812157Y-58938478D01*
X131751183Y-58808642D01*
X131322924Y-58418355D01*
X130912890Y-58248524D01*
X130683000Y-58369845D01*
X130683000Y-59563000D01*
X130703000Y-59563000D01*
X130703000Y-59817000D01*
X130683000Y-59817000D01*
X130683000Y-59837000D01*
X130429000Y-59837000D01*
X130429000Y-59817000D01*
X130409000Y-59817000D01*
X130409000Y-59563000D01*
X130429000Y-59563000D01*
X130429000Y-58369845D01*
X130199110Y-58248524D01*
X129789076Y-58418355D01*
X129360817Y-58808642D01*
X129299843Y-58938478D01*
X129086625Y-58619375D01*
X128595418Y-58291161D01*
X128162256Y-58205000D01*
X127869744Y-58205000D01*
X127436582Y-58291161D01*
X126945375Y-58619375D01*
X126746000Y-58917761D01*
X126546625Y-58619375D01*
X126055418Y-58291161D01*
X125622256Y-58205000D01*
X125329744Y-58205000D01*
X124896582Y-58291161D01*
X124405375Y-58619375D01*
X124206000Y-58917761D01*
X124006625Y-58619375D01*
X123515418Y-58291161D01*
X123082256Y-58205000D01*
X122789744Y-58205000D01*
X122356582Y-58291161D01*
X121865375Y-58619375D01*
X121666000Y-58917761D01*
X121466625Y-58619375D01*
X120975418Y-58291161D01*
X120542256Y-58205000D01*
X120249744Y-58205000D01*
X119816582Y-58291161D01*
X119325375Y-58619375D01*
X119112157Y-58938478D01*
X119051183Y-58808642D01*
X118622924Y-58418355D01*
X118212890Y-58248524D01*
X117983000Y-58369845D01*
X117983000Y-59563000D01*
X118003000Y-59563000D01*
X118003000Y-59817000D01*
X117983000Y-59817000D01*
X117983000Y-59837000D01*
X117729000Y-59837000D01*
X117729000Y-59817000D01*
X117709000Y-59817000D01*
X117709000Y-59563000D01*
X117729000Y-59563000D01*
X117729000Y-58369845D01*
X117499110Y-58248524D01*
X117089076Y-58418355D01*
X116660817Y-58808642D01*
X116599843Y-58938478D01*
X116386625Y-58619375D01*
X115895418Y-58291161D01*
X115462256Y-58205000D01*
X115169744Y-58205000D01*
X114736582Y-58291161D01*
X114245375Y-58619375D01*
X114046000Y-58917761D01*
X113846625Y-58619375D01*
X113355418Y-58291161D01*
X112922256Y-58205000D01*
X112629744Y-58205000D01*
X112196582Y-58291161D01*
X111705375Y-58619375D01*
X111492157Y-58938478D01*
X111431183Y-58808642D01*
X111002924Y-58418355D01*
X110592890Y-58248524D01*
X110363000Y-58369845D01*
X110363000Y-59563000D01*
X110383000Y-59563000D01*
X110383000Y-59817000D01*
X110363000Y-59817000D01*
X110363000Y-59837000D01*
X110109000Y-59837000D01*
X110109000Y-59817000D01*
X110089000Y-59817000D01*
X110089000Y-59563000D01*
X110109000Y-59563000D01*
X110109000Y-58369845D01*
X109879110Y-58248524D01*
X109469076Y-58418355D01*
X109040817Y-58808642D01*
X108979843Y-58938478D01*
X108766625Y-58619375D01*
X108275418Y-58291161D01*
X107842256Y-58205000D01*
X107549744Y-58205000D01*
X107116582Y-58291161D01*
X106625375Y-58619375D01*
X106426000Y-58917761D01*
X106226625Y-58619375D01*
X105735418Y-58291161D01*
X105302256Y-58205000D01*
X105009744Y-58205000D01*
X104576582Y-58291161D01*
X104085375Y-58619375D01*
X103886000Y-58917761D01*
X103686625Y-58619375D01*
X103195418Y-58291161D01*
X102762256Y-58205000D01*
X102469744Y-58205000D01*
X102036582Y-58291161D01*
X101545375Y-58619375D01*
X101332157Y-58938478D01*
X101271183Y-58808642D01*
X100842924Y-58418355D01*
X100432890Y-58248524D01*
X100203000Y-58369845D01*
X100203000Y-59563000D01*
X100223000Y-59563000D01*
X100223000Y-59817000D01*
X100203000Y-59817000D01*
X100203000Y-59837000D01*
X99949000Y-59837000D01*
X99949000Y-59817000D01*
X99929000Y-59817000D01*
X99929000Y-59563000D01*
X99949000Y-59563000D01*
X99949000Y-58369845D01*
X99719110Y-58248524D01*
X99309076Y-58418355D01*
X98880817Y-58808642D01*
X98819843Y-58938478D01*
X98606625Y-58619375D01*
X98115418Y-58291161D01*
X97682256Y-58205000D01*
X97389744Y-58205000D01*
X96956582Y-58291161D01*
X96465375Y-58619375D01*
X96266000Y-58917761D01*
X96066625Y-58619375D01*
X95575418Y-58291161D01*
X95142256Y-58205000D01*
X94849744Y-58205000D01*
X94416582Y-58291161D01*
X93925375Y-58619375D01*
X93597161Y-59110582D01*
X93481908Y-59690000D01*
X91908560Y-59690000D01*
X91861069Y-59605199D01*
X91331051Y-59130476D01*
X90675839Y-58853029D01*
X89966082Y-58802776D01*
X89278314Y-58985134D01*
X88686695Y-59380441D01*
X88255020Y-59946070D01*
X88029836Y-60621031D01*
X87362084Y-60621031D01*
X87390895Y-60337396D01*
X87578039Y-59740218D01*
X87881436Y-59192876D01*
X88288701Y-58717711D01*
X88783188Y-58334148D01*
X89344700Y-58057850D01*
X89958774Y-57897896D01*
X90451270Y-57860000D01*
X147792036Y-57860000D01*
X148450604Y-57926895D01*
X148450604Y-57926895D01*
G37*
X148450604Y-57926895D02*
X149047782Y-58114039D01*
X149595124Y-58417436D01*
X150070289Y-58824701D01*
X150453852Y-59319188D01*
X150730150Y-59880700D01*
X150890104Y-60494774D01*
X150928000Y-60987270D01*
X150928001Y-109692026D01*
X150861105Y-110350604D01*
X150673961Y-110947782D01*
X150370563Y-111495125D01*
X149963299Y-111970289D01*
X149468812Y-112353852D01*
X148907304Y-112630148D01*
X148293227Y-112790104D01*
X147800730Y-112828000D01*
X128788412Y-112828000D01*
X128837220Y-104140000D01*
X137169908Y-104140000D01*
X137285161Y-104719418D01*
X137613375Y-105210625D01*
X137911761Y-105410000D01*
X137613375Y-105609375D01*
X137285161Y-106100582D01*
X137169908Y-106680000D01*
X137285161Y-107259418D01*
X137613375Y-107750625D01*
X137631619Y-107762816D01*
X137586235Y-107771843D01*
X137376191Y-107912191D01*
X137235843Y-108122235D01*
X137186560Y-108370000D01*
X137186560Y-110070000D01*
X137235843Y-110317765D01*
X137376191Y-110527809D01*
X137586235Y-110668157D01*
X137834000Y-110717440D01*
X139534000Y-110717440D01*
X139647000Y-110694963D01*
X142498000Y-110694963D01*
X142498000Y-111047037D01*
X142632733Y-111372312D01*
X142881688Y-111621267D01*
X143206963Y-111756000D01*
X143559037Y-111756000D01*
X143624362Y-111728941D01*
X143643688Y-111748267D01*
X143968963Y-111883000D01*
X144321037Y-111883000D01*
X144440332Y-111833586D01*
X144716965Y-111948171D01*
X145069039Y-111948171D01*
X145394314Y-111813438D01*
X145643269Y-111564483D01*
X145778002Y-111239208D01*
X145778002Y-110887134D01*
X145643269Y-110561859D01*
X145394314Y-110312904D01*
X145069039Y-110178171D01*
X144716965Y-110178171D01*
X144597670Y-110227585D01*
X144321037Y-110113000D01*
X143968963Y-110113000D01*
X143903638Y-110140059D01*
X143884312Y-110120733D01*
X143559037Y-109986000D01*
X143206963Y-109986000D01*
X142881688Y-110120733D01*
X142632733Y-110369688D01*
X142498000Y-110694963D01*
X139647000Y-110694963D01*
X139781765Y-110668157D01*
X139991809Y-110527809D01*
X140132157Y-110317765D01*
X140181440Y-110070000D01*
X140181440Y-108817609D01*
X141706538Y-108817609D01*
X141710408Y-108855281D01*
X141936920Y-109283474D01*
X142310053Y-109592390D01*
X142773000Y-109735000D01*
X143073000Y-109735000D01*
X143073000Y-108627000D01*
X143327000Y-108627000D01*
X143327000Y-109735000D01*
X143627000Y-109735000D01*
X143990660Y-109622975D01*
X145929174Y-109622975D01*
X145934796Y-110338696D01*
X146171949Y-111014009D01*
X146615061Y-111576094D01*
X147216352Y-111964343D01*
X147910986Y-112136891D01*
X148624060Y-112075132D01*
X149278684Y-111785726D01*
X149804270Y-111299879D01*
X150144145Y-110669979D01*
X150261661Y-109963949D01*
X150261392Y-109929712D01*
X150132801Y-109225615D01*
X149783074Y-108601132D01*
X149249921Y-108123600D01*
X148590832Y-107844512D01*
X147876876Y-107793961D01*
X147185038Y-107977399D01*
X146589919Y-108375045D01*
X146155691Y-108944021D01*
X145929174Y-109622975D01*
X143990660Y-109622975D01*
X144089947Y-109592390D01*
X144463080Y-109283474D01*
X144689592Y-108855281D01*
X144693462Y-108817609D01*
X144568731Y-108627000D01*
X143327000Y-108627000D01*
X143073000Y-108627000D01*
X141831269Y-108627000D01*
X141706538Y-108817609D01*
X140181440Y-108817609D01*
X140181440Y-108370000D01*
X140132157Y-108122235D01*
X139991809Y-107912191D01*
X139781765Y-107771843D01*
X139736381Y-107762816D01*
X139754625Y-107750625D01*
X140082839Y-107259418D01*
X140198092Y-106680000D01*
X140082839Y-106100582D01*
X139948815Y-105900000D01*
X141652560Y-105900000D01*
X141652560Y-107100000D01*
X141701843Y-107347765D01*
X141842191Y-107557809D01*
X142000700Y-107663722D01*
X141936920Y-107716526D01*
X141710408Y-108144719D01*
X141706538Y-108182391D01*
X141831269Y-108373000D01*
X143073000Y-108373000D01*
X143073000Y-108353000D01*
X143327000Y-108353000D01*
X143327000Y-108373000D01*
X144568731Y-108373000D01*
X144693462Y-108182391D01*
X144689592Y-108144719D01*
X144463080Y-107716526D01*
X144399300Y-107663722D01*
X144557809Y-107557809D01*
X144698157Y-107347765D01*
X144747440Y-107100000D01*
X144747440Y-105900000D01*
X144698157Y-105652235D01*
X144557809Y-105442191D01*
X144347765Y-105301843D01*
X144100000Y-105252560D01*
X142300000Y-105252560D01*
X142052235Y-105301843D01*
X141842191Y-105442191D01*
X141701843Y-105652235D01*
X141652560Y-105900000D01*
X139948815Y-105900000D01*
X139754625Y-105609375D01*
X139456239Y-105410000D01*
X139754625Y-105210625D01*
X140082839Y-104719418D01*
X140198092Y-104140000D01*
X140082839Y-103560582D01*
X139754625Y-103069375D01*
X139263418Y-102741161D01*
X138830256Y-102655000D01*
X138537744Y-102655000D01*
X138104582Y-102741161D01*
X137613375Y-103069375D01*
X137285161Y-103560582D01*
X137169908Y-104140000D01*
X128837220Y-104140000D01*
X128854074Y-101140126D01*
X132442000Y-101140126D01*
X132442000Y-101551874D01*
X132599569Y-101932280D01*
X132890720Y-102223431D01*
X133271126Y-102381000D01*
X133682874Y-102381000D01*
X134063280Y-102223431D01*
X134354431Y-101932280D01*
X134512000Y-101551874D01*
X134512000Y-101140126D01*
X134354431Y-100759720D01*
X134063280Y-100468569D01*
X133682874Y-100311000D01*
X133271126Y-100311000D01*
X132890720Y-100468569D01*
X132599569Y-100759720D01*
X132442000Y-101140126D01*
X128854074Y-101140126D01*
X128875479Y-97330126D01*
X131299000Y-97330126D01*
X131299000Y-97741874D01*
X131456569Y-98122280D01*
X131747720Y-98413431D01*
X132128126Y-98571000D01*
X132539874Y-98571000D01*
X132920280Y-98413431D01*
X133211431Y-98122280D01*
X133276526Y-97965126D01*
X136760000Y-97965126D01*
X136760000Y-98376874D01*
X136917569Y-98757280D01*
X137208720Y-99048431D01*
X137589126Y-99206000D01*
X138000874Y-99206000D01*
X138381280Y-99048431D01*
X138672431Y-98757280D01*
X138830000Y-98376874D01*
X138830000Y-97965126D01*
X138757461Y-97790000D01*
X146567908Y-97790000D01*
X146683161Y-98369418D01*
X147011375Y-98860625D01*
X147309761Y-99060000D01*
X147011375Y-99259375D01*
X146683161Y-99750582D01*
X146567908Y-100330000D01*
X146683161Y-100909418D01*
X147011375Y-101400625D01*
X147309761Y-101600000D01*
X147011375Y-101799375D01*
X146683161Y-102290582D01*
X146567908Y-102870000D01*
X146683161Y-103449418D01*
X147011375Y-103940625D01*
X147502582Y-104268839D01*
X147935744Y-104355000D01*
X148228256Y-104355000D01*
X148661418Y-104268839D01*
X149152625Y-103940625D01*
X149480839Y-103449418D01*
X149596092Y-102870000D01*
X149480839Y-102290582D01*
X149152625Y-101799375D01*
X148854239Y-101600000D01*
X149152625Y-101400625D01*
X149480839Y-100909418D01*
X149596092Y-100330000D01*
X149480839Y-99750582D01*
X149152625Y-99259375D01*
X148854239Y-99060000D01*
X149152625Y-98860625D01*
X149480839Y-98369418D01*
X149596092Y-97790000D01*
X149480839Y-97210582D01*
X149152625Y-96719375D01*
X148833522Y-96506157D01*
X148963358Y-96445183D01*
X149353645Y-96016924D01*
X149523476Y-95606890D01*
X149402155Y-95377000D01*
X148209000Y-95377000D01*
X148209000Y-95397000D01*
X147955000Y-95397000D01*
X147955000Y-95377000D01*
X146761845Y-95377000D01*
X146640524Y-95606890D01*
X146810355Y-96016924D01*
X147200642Y-96445183D01*
X147330478Y-96506157D01*
X147011375Y-96719375D01*
X146683161Y-97210582D01*
X146567908Y-97790000D01*
X138757461Y-97790000D01*
X138672431Y-97584720D01*
X138381280Y-97293569D01*
X138000874Y-97136000D01*
X137589126Y-97136000D01*
X137208720Y-97293569D01*
X136917569Y-97584720D01*
X136760000Y-97965126D01*
X133276526Y-97965126D01*
X133369000Y-97741874D01*
X133369000Y-97330126D01*
X133211431Y-96949720D01*
X132920280Y-96658569D01*
X132539874Y-96501000D01*
X132128126Y-96501000D01*
X131747720Y-96658569D01*
X131456569Y-96949720D01*
X131299000Y-97330126D01*
X128875479Y-97330126D01*
X128889748Y-94790126D01*
X133966000Y-94790126D01*
X133966000Y-95201874D01*
X134123569Y-95582280D01*
X134414720Y-95873431D01*
X134795126Y-96031000D01*
X135206874Y-96031000D01*
X135587280Y-95873431D01*
X135878431Y-95582280D01*
X136036000Y-95201874D01*
X136036000Y-94790126D01*
X135878431Y-94409720D01*
X135587280Y-94118569D01*
X135206874Y-93961000D01*
X134795126Y-93961000D01*
X134414720Y-94118569D01*
X134123569Y-94409720D01*
X133966000Y-94790126D01*
X128889748Y-94790126D01*
X128904289Y-92202000D01*
X131826000Y-92202000D01*
X131874601Y-92192333D01*
X131915803Y-92164803D01*
X131943333Y-92123601D01*
X131953000Y-92075000D01*
X131953000Y-91488126D01*
X133585000Y-91488126D01*
X133585000Y-91899874D01*
X133742569Y-92280280D01*
X134033720Y-92571431D01*
X134414126Y-92729000D01*
X134825874Y-92729000D01*
X135206280Y-92571431D01*
X135497431Y-92280280D01*
X135655000Y-91899874D01*
X135655000Y-91488126D01*
X135497431Y-91107720D01*
X135206280Y-90816569D01*
X134825874Y-90659000D01*
X134414126Y-90659000D01*
X134033720Y-90816569D01*
X133742569Y-91107720D01*
X133585000Y-91488126D01*
X131953000Y-91488126D01*
X131953000Y-89964126D01*
X141967000Y-89964126D01*
X141967000Y-90375874D01*
X142124569Y-90756280D01*
X142415720Y-91047431D01*
X142796126Y-91205000D01*
X143207874Y-91205000D01*
X143588280Y-91047431D01*
X143879431Y-90756280D01*
X144037000Y-90375874D01*
X144037000Y-89964126D01*
X143879431Y-89583720D01*
X143588280Y-89292569D01*
X143207874Y-89135000D01*
X142796126Y-89135000D01*
X142415720Y-89292569D01*
X142124569Y-89583720D01*
X141967000Y-89964126D01*
X131953000Y-89964126D01*
X131953000Y-87606363D01*
X144301400Y-87606363D01*
X144301400Y-87958437D01*
X144436133Y-88283712D01*
X144685088Y-88532667D01*
X145010363Y-88667400D01*
X145362437Y-88667400D01*
X145687712Y-88532667D01*
X145936667Y-88283712D01*
X146071400Y-87958437D01*
X146071400Y-87606363D01*
X145936667Y-87281088D01*
X145687712Y-87032133D01*
X145362437Y-86897400D01*
X145010363Y-86897400D01*
X144685088Y-87032133D01*
X144436133Y-87281088D01*
X144301400Y-87606363D01*
X131953000Y-87606363D01*
X131953000Y-87159914D01*
X131980480Y-87148531D01*
X132271631Y-86857380D01*
X132429200Y-86476974D01*
X132429200Y-86065226D01*
X132271631Y-85684820D01*
X131980480Y-85393669D01*
X131953000Y-85382286D01*
X131953000Y-84134826D01*
X142881400Y-84134826D01*
X142881400Y-84546574D01*
X143038969Y-84926980D01*
X143330120Y-85218131D01*
X143710526Y-85375700D01*
X144122274Y-85375700D01*
X144502680Y-85218131D01*
X144793831Y-84926980D01*
X144951400Y-84546574D01*
X144951400Y-84134826D01*
X144793831Y-83754420D01*
X144502680Y-83463269D01*
X144122274Y-83305700D01*
X143710526Y-83305700D01*
X143330120Y-83463269D01*
X143038969Y-83754420D01*
X142881400Y-84134826D01*
X131953000Y-84134826D01*
X131953000Y-82042000D01*
X131943333Y-81993399D01*
X131915803Y-81952197D01*
X131874601Y-81924667D01*
X131826000Y-81915000D01*
X130467102Y-81915000D01*
X130417267Y-81794688D01*
X130168312Y-81545733D01*
X129843037Y-81411000D01*
X129490963Y-81411000D01*
X129165688Y-81545733D01*
X128916733Y-81794688D01*
X128866898Y-81915000D01*
X125173711Y-81915000D01*
X125337431Y-81751280D01*
X125495000Y-81370874D01*
X125495000Y-80959126D01*
X125421032Y-80780550D01*
X125563270Y-80638312D01*
X125678804Y-80359388D01*
X125741733Y-80511312D01*
X125990688Y-80760267D01*
X126315963Y-80895000D01*
X126668037Y-80895000D01*
X126993312Y-80760267D01*
X127060453Y-80693126D01*
X131426000Y-80693126D01*
X131426000Y-81104874D01*
X131583569Y-81485280D01*
X131874720Y-81776431D01*
X132255126Y-81934000D01*
X132666874Y-81934000D01*
X133047280Y-81776431D01*
X133241585Y-81582126D01*
X134855000Y-81582126D01*
X134855000Y-81993874D01*
X135012569Y-82374280D01*
X135303720Y-82665431D01*
X135684126Y-82823000D01*
X136095874Y-82823000D01*
X136476280Y-82665431D01*
X136767431Y-82374280D01*
X136781224Y-82340980D01*
X136841986Y-82366148D01*
X137194060Y-82366148D01*
X137519335Y-82231415D01*
X137768290Y-81982460D01*
X137903023Y-81657185D01*
X137903023Y-81305111D01*
X137839418Y-81151553D01*
X138015752Y-80975219D01*
X138150485Y-80649944D01*
X138150485Y-80297870D01*
X138015752Y-79972595D01*
X137766797Y-79723640D01*
X137441522Y-79588907D01*
X137089448Y-79588907D01*
X136764173Y-79723640D01*
X136515218Y-79972595D01*
X136380485Y-80297870D01*
X136380485Y-80649944D01*
X136444090Y-80803502D01*
X136377810Y-80869782D01*
X136095874Y-80753000D01*
X135684126Y-80753000D01*
X135303720Y-80910569D01*
X135012569Y-81201720D01*
X134855000Y-81582126D01*
X133241585Y-81582126D01*
X133338431Y-81485280D01*
X133496000Y-81104874D01*
X133496000Y-80693126D01*
X133338431Y-80312720D01*
X133047280Y-80021569D01*
X132666874Y-79864000D01*
X132255126Y-79864000D01*
X131874720Y-80021569D01*
X131583569Y-80312720D01*
X131426000Y-80693126D01*
X127060453Y-80693126D01*
X127242267Y-80511312D01*
X127377000Y-80186037D01*
X127377000Y-79833963D01*
X127242267Y-79508688D01*
X126993312Y-79259733D01*
X126668037Y-79125000D01*
X126315963Y-79125000D01*
X125990688Y-79259733D01*
X125741733Y-79508688D01*
X125626199Y-79787612D01*
X125563270Y-79635688D01*
X125314315Y-79386733D01*
X124989040Y-79252000D01*
X124636966Y-79252000D01*
X124313001Y-79386190D01*
X123989037Y-79252000D01*
X123636963Y-79252000D01*
X123311688Y-79386733D01*
X123062733Y-79635688D01*
X122928000Y-79960963D01*
X122928000Y-80313037D01*
X123062733Y-80638312D01*
X123311688Y-80887267D01*
X123433812Y-80937852D01*
X123425000Y-80959126D01*
X123425000Y-81370874D01*
X123582569Y-81751280D01*
X123746289Y-81915000D01*
X121431000Y-81915000D01*
X121431000Y-81582126D01*
X121273431Y-81201720D01*
X120982280Y-80910569D01*
X120601874Y-80753000D01*
X120279463Y-80753000D01*
X120361844Y-80554113D01*
X120361844Y-80202039D01*
X120227111Y-79876764D01*
X119978156Y-79627809D01*
X119652881Y-79493076D01*
X119380000Y-79493076D01*
X119380000Y-78153126D01*
X137395000Y-78153126D01*
X137395000Y-78564874D01*
X137552569Y-78945280D01*
X137843720Y-79236431D01*
X138224126Y-79394000D01*
X138635874Y-79394000D01*
X139016280Y-79236431D01*
X139307431Y-78945280D01*
X139465000Y-78564874D01*
X139465000Y-78153126D01*
X139307431Y-77772720D01*
X139016280Y-77481569D01*
X138988350Y-77470000D01*
X146567908Y-77470000D01*
X146683161Y-78049418D01*
X147011375Y-78540625D01*
X147309761Y-78740000D01*
X147011375Y-78939375D01*
X146683161Y-79430582D01*
X146567908Y-80010000D01*
X146683161Y-80589418D01*
X147011375Y-81080625D01*
X147309761Y-81280000D01*
X147011375Y-81479375D01*
X146683161Y-81970582D01*
X146567908Y-82550000D01*
X146683161Y-83129418D01*
X147011375Y-83620625D01*
X147309761Y-83820000D01*
X147011375Y-84019375D01*
X146683161Y-84510582D01*
X146567908Y-85090000D01*
X146683161Y-85669418D01*
X147011375Y-86160625D01*
X147309761Y-86360000D01*
X147011375Y-86559375D01*
X146683161Y-87050582D01*
X146567908Y-87630000D01*
X146683161Y-88209418D01*
X147011375Y-88700625D01*
X147309761Y-88900000D01*
X147011375Y-89099375D01*
X146683161Y-89590582D01*
X146567908Y-90170000D01*
X146683161Y-90749418D01*
X147011375Y-91240625D01*
X147309761Y-91440000D01*
X147011375Y-91639375D01*
X146683161Y-92130582D01*
X146567908Y-92710000D01*
X146683161Y-93289418D01*
X147011375Y-93780625D01*
X147330478Y-93993843D01*
X147200642Y-94054817D01*
X146810355Y-94483076D01*
X146640524Y-94893110D01*
X146761845Y-95123000D01*
X147955000Y-95123000D01*
X147955000Y-95103000D01*
X148209000Y-95103000D01*
X148209000Y-95123000D01*
X149402155Y-95123000D01*
X149523476Y-94893110D01*
X149353645Y-94483076D01*
X148963358Y-94054817D01*
X148833522Y-93993843D01*
X149152625Y-93780625D01*
X149480839Y-93289418D01*
X149596092Y-92710000D01*
X149480839Y-92130582D01*
X149152625Y-91639375D01*
X148854239Y-91440000D01*
X149152625Y-91240625D01*
X149480839Y-90749418D01*
X149596092Y-90170000D01*
X149480839Y-89590582D01*
X149152625Y-89099375D01*
X148854239Y-88900000D01*
X149152625Y-88700625D01*
X149480839Y-88209418D01*
X149596092Y-87630000D01*
X149480839Y-87050582D01*
X149152625Y-86559375D01*
X148854239Y-86360000D01*
X149152625Y-86160625D01*
X149480839Y-85669418D01*
X149596092Y-85090000D01*
X149480839Y-84510582D01*
X149152625Y-84019375D01*
X148854239Y-83820000D01*
X149152625Y-83620625D01*
X149480839Y-83129418D01*
X149596092Y-82550000D01*
X149480839Y-81970582D01*
X149152625Y-81479375D01*
X148854239Y-81280000D01*
X149152625Y-81080625D01*
X149480839Y-80589418D01*
X149596092Y-80010000D01*
X149480839Y-79430582D01*
X149152625Y-78939375D01*
X148854239Y-78740000D01*
X149152625Y-78540625D01*
X149480839Y-78049418D01*
X149596092Y-77470000D01*
X149480839Y-76890582D01*
X149152625Y-76399375D01*
X148833522Y-76186157D01*
X148963358Y-76125183D01*
X149353645Y-75696924D01*
X149523476Y-75286890D01*
X149402155Y-75057000D01*
X148209000Y-75057000D01*
X148209000Y-75077000D01*
X147955000Y-75077000D01*
X147955000Y-75057000D01*
X146761845Y-75057000D01*
X146640524Y-75286890D01*
X146810355Y-75696924D01*
X147200642Y-76125183D01*
X147330478Y-76186157D01*
X147011375Y-76399375D01*
X146683161Y-76890582D01*
X146567908Y-77470000D01*
X138988350Y-77470000D01*
X138635874Y-77324000D01*
X138224126Y-77324000D01*
X137843720Y-77481569D01*
X137552569Y-77772720D01*
X137395000Y-78153126D01*
X119380000Y-78153126D01*
X119380000Y-76327000D01*
X123983938Y-76327000D01*
X124123963Y-76385000D01*
X124476037Y-76385000D01*
X124801312Y-76250267D01*
X125050267Y-76001312D01*
X125185000Y-75676037D01*
X125185000Y-75323963D01*
X125050267Y-74998688D01*
X124801312Y-74749733D01*
X124476037Y-74615000D01*
X124460000Y-74615000D01*
X124460000Y-74295000D01*
X128016000Y-74295000D01*
X128064601Y-74285333D01*
X128105803Y-74257803D01*
X128133333Y-74216601D01*
X128143000Y-74168000D01*
X128143000Y-70720579D01*
X128385267Y-70478312D01*
X128455413Y-70308963D01*
X130814000Y-70308963D01*
X130814000Y-70661037D01*
X130948733Y-70986312D01*
X131197688Y-71235267D01*
X131522963Y-71370000D01*
X131875037Y-71370000D01*
X131922974Y-71350144D01*
X131889264Y-71383854D01*
X131754531Y-71709129D01*
X131754531Y-72061203D01*
X131889264Y-72386478D01*
X132138219Y-72635433D01*
X132463494Y-72770166D01*
X132815568Y-72770166D01*
X133140843Y-72635433D01*
X133389798Y-72386478D01*
X133524531Y-72061203D01*
X133524531Y-71709129D01*
X133389798Y-71383854D01*
X133140843Y-71134899D01*
X132815568Y-71000166D01*
X132463494Y-71000166D01*
X132415557Y-71020022D01*
X132449267Y-70986312D01*
X132584000Y-70661037D01*
X132584000Y-70455110D01*
X132814798Y-70224312D01*
X132949531Y-69899037D01*
X132949531Y-69546963D01*
X132896927Y-69419963D01*
X133227000Y-69419963D01*
X133227000Y-69772037D01*
X133361733Y-70097312D01*
X133610688Y-70346267D01*
X133935963Y-70481000D01*
X134288037Y-70481000D01*
X134613312Y-70346267D01*
X134862267Y-70097312D01*
X134956837Y-69869000D01*
X135079874Y-69869000D01*
X135125744Y-69850000D01*
X146567908Y-69850000D01*
X146683161Y-70429418D01*
X147011375Y-70920625D01*
X147309761Y-71120000D01*
X147011375Y-71319375D01*
X146683161Y-71810582D01*
X146567908Y-72390000D01*
X146683161Y-72969418D01*
X147011375Y-73460625D01*
X147330478Y-73673843D01*
X147200642Y-73734817D01*
X146810355Y-74163076D01*
X146640524Y-74573110D01*
X146761845Y-74803000D01*
X147955000Y-74803000D01*
X147955000Y-74783000D01*
X148209000Y-74783000D01*
X148209000Y-74803000D01*
X149402155Y-74803000D01*
X149523476Y-74573110D01*
X149353645Y-74163076D01*
X148963358Y-73734817D01*
X148833522Y-73673843D01*
X149152625Y-73460625D01*
X149480839Y-72969418D01*
X149596092Y-72390000D01*
X149480839Y-71810582D01*
X149152625Y-71319375D01*
X148854239Y-71120000D01*
X149152625Y-70920625D01*
X149480839Y-70429418D01*
X149596092Y-69850000D01*
X149480839Y-69270582D01*
X149152625Y-68779375D01*
X149130967Y-68764904D01*
X149291698Y-68698327D01*
X149470327Y-68519699D01*
X149567000Y-68286310D01*
X149567000Y-67595750D01*
X149408250Y-67437000D01*
X148209000Y-67437000D01*
X148209000Y-67457000D01*
X147955000Y-67457000D01*
X147955000Y-67437000D01*
X146755750Y-67437000D01*
X146597000Y-67595750D01*
X146597000Y-68286310D01*
X146693673Y-68519699D01*
X146872302Y-68698327D01*
X147033033Y-68764904D01*
X147011375Y-68779375D01*
X146683161Y-69270582D01*
X146567908Y-69850000D01*
X135125744Y-69850000D01*
X135460280Y-69711431D01*
X135751431Y-69420280D01*
X135909000Y-69039874D01*
X135909000Y-68628126D01*
X135751431Y-68247720D01*
X135460280Y-67956569D01*
X135079874Y-67799000D01*
X134668126Y-67799000D01*
X134287720Y-67956569D01*
X133996569Y-68247720D01*
X133839000Y-68628126D01*
X133839000Y-68751163D01*
X133610688Y-68845733D01*
X133361733Y-69094688D01*
X133227000Y-69419963D01*
X132896927Y-69419963D01*
X132814798Y-69221688D01*
X132565843Y-68972733D01*
X132240568Y-68838000D01*
X131888494Y-68838000D01*
X131563219Y-68972733D01*
X131314264Y-69221688D01*
X131179531Y-69546963D01*
X131179531Y-69752890D01*
X130948733Y-69983688D01*
X130814000Y-70308963D01*
X128455413Y-70308963D01*
X128520000Y-70153037D01*
X128520000Y-69800963D01*
X128385267Y-69475688D01*
X128181284Y-69271705D01*
X128314893Y-68949144D01*
X128314893Y-68597070D01*
X128180160Y-68271795D01*
X127931205Y-68022840D01*
X127605930Y-67888107D01*
X127253856Y-67888107D01*
X126928581Y-68022840D01*
X126679626Y-68271795D01*
X126544893Y-68597070D01*
X126544893Y-68949144D01*
X126679626Y-69274419D01*
X126883609Y-69478402D01*
X126834898Y-69596000D01*
X118872000Y-69596000D01*
X118872000Y-68703000D01*
X119175037Y-68703000D01*
X119500312Y-68568267D01*
X119512025Y-68556554D01*
X119517651Y-68562180D01*
X119842926Y-68696913D01*
X120195000Y-68696913D01*
X120520275Y-68562180D01*
X120769230Y-68313225D01*
X120903963Y-67987950D01*
X120903963Y-67641963D01*
X123024990Y-67641963D01*
X123024990Y-67994037D01*
X123159723Y-68319312D01*
X123408678Y-68568267D01*
X123733953Y-68703000D01*
X124086027Y-68703000D01*
X124411302Y-68568267D01*
X124565991Y-68413578D01*
X124720688Y-68568275D01*
X125045963Y-68703008D01*
X125398037Y-68703008D01*
X125723312Y-68568275D01*
X125972267Y-68319320D01*
X126107000Y-67994045D01*
X126107000Y-67641971D01*
X125972267Y-67316696D01*
X125894203Y-67238632D01*
X135363669Y-67238632D01*
X135363669Y-67590706D01*
X135498402Y-67915981D01*
X135747357Y-68164936D01*
X136072632Y-68299669D01*
X136424706Y-68299669D01*
X136749981Y-68164936D01*
X136998936Y-67915981D01*
X137133669Y-67590706D01*
X137133669Y-67238632D01*
X136998936Y-66913357D01*
X136749981Y-66664402D01*
X136542336Y-66578393D01*
X136854472Y-66449102D01*
X136862495Y-66441079D01*
X137110963Y-66543998D01*
X137463037Y-66543998D01*
X137788312Y-66409265D01*
X137863887Y-66333690D01*
X146597000Y-66333690D01*
X146597000Y-67024250D01*
X146755750Y-67183000D01*
X147955000Y-67183000D01*
X147955000Y-65983750D01*
X148209000Y-65983750D01*
X148209000Y-67183000D01*
X149408250Y-67183000D01*
X149567000Y-67024250D01*
X149567000Y-66333690D01*
X149470327Y-66100301D01*
X149291698Y-65921673D01*
X149058309Y-65825000D01*
X148367750Y-65825000D01*
X148209000Y-65983750D01*
X147955000Y-65983750D01*
X147796250Y-65825000D01*
X147105691Y-65825000D01*
X146872302Y-65921673D01*
X146693673Y-66100301D01*
X146597000Y-66333690D01*
X137863887Y-66333690D01*
X138037267Y-66160310D01*
X138172000Y-65835035D01*
X138172000Y-65482961D01*
X138037267Y-65157686D01*
X137788312Y-64908731D01*
X137463037Y-64773998D01*
X137110963Y-64773998D01*
X136785688Y-64908731D01*
X136777665Y-64916754D01*
X136529197Y-64813835D01*
X136177123Y-64813835D01*
X135851848Y-64948568D01*
X135602893Y-65197523D01*
X135468160Y-65522798D01*
X135468160Y-65874872D01*
X135602893Y-66200147D01*
X135851848Y-66449102D01*
X136059493Y-66535111D01*
X135747357Y-66664402D01*
X135498402Y-66913357D01*
X135363669Y-67238632D01*
X125894203Y-67238632D01*
X125723312Y-67067741D01*
X125398037Y-66933008D01*
X125045963Y-66933008D01*
X124720688Y-67067741D01*
X124565999Y-67222430D01*
X124411302Y-67067733D01*
X124086027Y-66933000D01*
X123733953Y-66933000D01*
X123408678Y-67067733D01*
X123159723Y-67316688D01*
X123024990Y-67641963D01*
X120903963Y-67641963D01*
X120903963Y-67635876D01*
X120769230Y-67310601D01*
X120520275Y-67061646D01*
X120195000Y-66926913D01*
X119842926Y-66926913D01*
X119517651Y-67061646D01*
X119505938Y-67073359D01*
X119500312Y-67067733D01*
X119448733Y-67046368D01*
X119484754Y-66959405D01*
X119484754Y-66547657D01*
X119327185Y-66167251D01*
X119036034Y-65876100D01*
X118872000Y-65808155D01*
X118872000Y-64262000D01*
X118862333Y-64213399D01*
X118834803Y-64172197D01*
X118793601Y-64144667D01*
X118745000Y-64135000D01*
X116001364Y-64135000D01*
X115648874Y-63988994D01*
X115237126Y-63988994D01*
X114884636Y-64135000D01*
X87324000Y-64135000D01*
X87324000Y-60995964D01*
X87362084Y-60621031D01*
X88029836Y-60621031D01*
X88035425Y-61332543D01*
X88271183Y-62003884D01*
X88711689Y-62562663D01*
X89309444Y-62948628D01*
X89999992Y-63120161D01*
X90708871Y-63058766D01*
X91359645Y-62771062D01*
X91882140Y-62288072D01*
X92220017Y-61661878D01*
X92336841Y-60960000D01*
X92336574Y-60925965D01*
X92208739Y-60226009D01*
X91908560Y-59690000D01*
X93481908Y-59690000D01*
X93597161Y-60269418D01*
X93925375Y-60760625D01*
X93943619Y-60772816D01*
X93898235Y-60781843D01*
X93688191Y-60922191D01*
X93547843Y-61132235D01*
X93498560Y-61380000D01*
X93498560Y-63080000D01*
X93547843Y-63327765D01*
X93688191Y-63537809D01*
X93898235Y-63678157D01*
X94146000Y-63727440D01*
X95846000Y-63727440D01*
X96093765Y-63678157D01*
X96303809Y-63537809D01*
X96444157Y-63327765D01*
X96453184Y-63282381D01*
X96465375Y-63300625D01*
X96956582Y-63628839D01*
X97389744Y-63715000D01*
X97682256Y-63715000D01*
X98115418Y-63628839D01*
X98606625Y-63300625D01*
X98806000Y-63002239D01*
X99005375Y-63300625D01*
X99496582Y-63628839D01*
X99929744Y-63715000D01*
X100222256Y-63715000D01*
X100655418Y-63628839D01*
X101146625Y-63300625D01*
X101346000Y-63002239D01*
X101545375Y-63300625D01*
X102036582Y-63628839D01*
X102469744Y-63715000D01*
X102762256Y-63715000D01*
X103195418Y-63628839D01*
X103686625Y-63300625D01*
X103899843Y-62981522D01*
X103960817Y-63111358D01*
X104389076Y-63501645D01*
X104799110Y-63671476D01*
X105029000Y-63550155D01*
X105029000Y-62357000D01*
X105009000Y-62357000D01*
X105009000Y-62103000D01*
X105029000Y-62103000D01*
X105029000Y-62083000D01*
X105283000Y-62083000D01*
X105283000Y-62103000D01*
X105303000Y-62103000D01*
X105303000Y-62357000D01*
X105283000Y-62357000D01*
X105283000Y-63550155D01*
X105512890Y-63671476D01*
X105922924Y-63501645D01*
X106351183Y-63111358D01*
X106412157Y-62981522D01*
X106625375Y-63300625D01*
X107116582Y-63628839D01*
X107549744Y-63715000D01*
X107842256Y-63715000D01*
X108275418Y-63628839D01*
X108766625Y-63300625D01*
X108966000Y-63002239D01*
X109165375Y-63300625D01*
X109656582Y-63628839D01*
X110089744Y-63715000D01*
X110382256Y-63715000D01*
X110815418Y-63628839D01*
X111306625Y-63300625D01*
X111506000Y-63002239D01*
X111705375Y-63300625D01*
X112196582Y-63628839D01*
X112629744Y-63715000D01*
X112922256Y-63715000D01*
X113355418Y-63628839D01*
X113846625Y-63300625D01*
X114046000Y-63002239D01*
X114245375Y-63300625D01*
X114736582Y-63628839D01*
X115169744Y-63715000D01*
X115462256Y-63715000D01*
X115895418Y-63628839D01*
X116386625Y-63300625D01*
X116586000Y-63002239D01*
X116785375Y-63300625D01*
X117276582Y-63628839D01*
X117709744Y-63715000D01*
X118002256Y-63715000D01*
X118435418Y-63628839D01*
X118926625Y-63300625D01*
X119126000Y-63002239D01*
X119325375Y-63300625D01*
X119816582Y-63628839D01*
X120249744Y-63715000D01*
X120542256Y-63715000D01*
X120975418Y-63628839D01*
X121466625Y-63300625D01*
X121666000Y-63002239D01*
X121865375Y-63300625D01*
X122356582Y-63628839D01*
X122789744Y-63715000D01*
X123082256Y-63715000D01*
X123515418Y-63628839D01*
X124006625Y-63300625D01*
X124219843Y-62981522D01*
X124280817Y-63111358D01*
X124709076Y-63501645D01*
X125119110Y-63671476D01*
X125349000Y-63550155D01*
X125349000Y-62357000D01*
X125329000Y-62357000D01*
X125329000Y-62103000D01*
X125349000Y-62103000D01*
X125349000Y-62083000D01*
X125603000Y-62083000D01*
X125603000Y-62103000D01*
X125623000Y-62103000D01*
X125623000Y-62357000D01*
X125603000Y-62357000D01*
X125603000Y-63550155D01*
X125832890Y-63671476D01*
X126242924Y-63501645D01*
X126671183Y-63111358D01*
X126732157Y-62981522D01*
X126945375Y-63300625D01*
X127436582Y-63628839D01*
X127869744Y-63715000D01*
X128162256Y-63715000D01*
X128595418Y-63628839D01*
X129086625Y-63300625D01*
X129286000Y-63002239D01*
X129485375Y-63300625D01*
X129808465Y-63516507D01*
X129800688Y-63519728D01*
X129551733Y-63768683D01*
X129417000Y-64093958D01*
X129417000Y-64446032D01*
X129536692Y-64734995D01*
X129207126Y-64734995D01*
X128826720Y-64892564D01*
X128535569Y-65183715D01*
X128378000Y-65564121D01*
X128378000Y-65975869D01*
X128535569Y-66356275D01*
X128826720Y-66647426D01*
X129207126Y-66804995D01*
X129618874Y-66804995D01*
X129999280Y-66647426D01*
X130290431Y-66356275D01*
X130448000Y-65975869D01*
X130448000Y-65564121D01*
X130290431Y-65183715D01*
X130261711Y-65154995D01*
X130478037Y-65154995D01*
X130803312Y-65020262D01*
X131052267Y-64771307D01*
X131187000Y-64446032D01*
X131187000Y-64093958D01*
X131052267Y-63768683D01*
X130949420Y-63665836D01*
X131135418Y-63628839D01*
X131626625Y-63300625D01*
X131826000Y-63002239D01*
X132025375Y-63300625D01*
X132516582Y-63628839D01*
X132949744Y-63715000D01*
X133242256Y-63715000D01*
X133675418Y-63628839D01*
X134166625Y-63300625D01*
X134366000Y-63002239D01*
X134565375Y-63300625D01*
X135056582Y-63628839D01*
X135489744Y-63715000D01*
X135782256Y-63715000D01*
X136215418Y-63628839D01*
X136706625Y-63300625D01*
X136906000Y-63002239D01*
X137105375Y-63300625D01*
X137596582Y-63628839D01*
X138029744Y-63715000D01*
X138322256Y-63715000D01*
X138755418Y-63628839D01*
X139246625Y-63300625D01*
X139446000Y-63002239D01*
X139645375Y-63300625D01*
X139871263Y-63451559D01*
X139706688Y-63519728D01*
X139457733Y-63768683D01*
X139323000Y-64093958D01*
X139323000Y-64446032D01*
X139457733Y-64771307D01*
X139706688Y-65020262D01*
X140031963Y-65154995D01*
X140384037Y-65154995D01*
X140709312Y-65020262D01*
X140958267Y-64771307D01*
X141093000Y-64446032D01*
X141093000Y-64093958D01*
X140958267Y-63768683D01*
X140897561Y-63707977D01*
X141295418Y-63628839D01*
X141786625Y-63300625D01*
X141999843Y-62981522D01*
X142060817Y-63111358D01*
X142489076Y-63501645D01*
X142899110Y-63671476D01*
X143129000Y-63550155D01*
X143129000Y-62357000D01*
X143383000Y-62357000D01*
X143383000Y-63550155D01*
X143612890Y-63671476D01*
X144022924Y-63501645D01*
X144451183Y-63111358D01*
X144697486Y-62586892D01*
X144576819Y-62357000D01*
X143383000Y-62357000D01*
X143129000Y-62357000D01*
X143109000Y-62357000D01*
X143109000Y-62103000D01*
X143129000Y-62103000D01*
X143129000Y-62083000D01*
X143383000Y-62083000D01*
X143383000Y-62103000D01*
X144576819Y-62103000D01*
X144697486Y-61873108D01*
X144451183Y-61348642D01*
X144026214Y-60961353D01*
X144326625Y-60760625D01*
X144419898Y-60621031D01*
X145941836Y-60621031D01*
X145947425Y-61332543D01*
X146183183Y-62003884D01*
X146623689Y-62562663D01*
X147221444Y-62948628D01*
X147911992Y-63120161D01*
X148620871Y-63058766D01*
X149271645Y-62771062D01*
X149794140Y-62288072D01*
X150132017Y-61661878D01*
X150248841Y-60960000D01*
X150248574Y-60925965D01*
X150120739Y-60226009D01*
X149773069Y-59605199D01*
X149243051Y-59130476D01*
X148587839Y-58853029D01*
X147878082Y-58802776D01*
X147190314Y-58985134D01*
X146598695Y-59380441D01*
X146167020Y-59946070D01*
X145941836Y-60621031D01*
X144419898Y-60621031D01*
X144654839Y-60269418D01*
X144770092Y-59690000D01*
X144654839Y-59110582D01*
X144326625Y-58619375D01*
X143835418Y-58291161D01*
X143402256Y-58205000D01*
X143109744Y-58205000D01*
X142676582Y-58291161D01*
X142185375Y-58619375D01*
X141986000Y-58917761D01*
X141786625Y-58619375D01*
X141295418Y-58291161D01*
X140862256Y-58205000D01*
X140569744Y-58205000D01*
X140136582Y-58291161D01*
X139645375Y-58619375D01*
X139446000Y-58917761D01*
X139246625Y-58619375D01*
X138755418Y-58291161D01*
X138322256Y-58205000D01*
X138029744Y-58205000D01*
X137596582Y-58291161D01*
X137105375Y-58619375D01*
X136892157Y-58938478D01*
X136831183Y-58808642D01*
X136402924Y-58418355D01*
X135992890Y-58248524D01*
X135763000Y-58369845D01*
X135763000Y-59563000D01*
X135783000Y-59563000D01*
X135783000Y-59817000D01*
X135763000Y-59817000D01*
X135763000Y-59837000D01*
X135509000Y-59837000D01*
X135509000Y-59817000D01*
X135489000Y-59817000D01*
X135489000Y-59563000D01*
X135509000Y-59563000D01*
X135509000Y-58369845D01*
X135279110Y-58248524D01*
X134869076Y-58418355D01*
X134440817Y-58808642D01*
X134379843Y-58938478D01*
X134166625Y-58619375D01*
X133675418Y-58291161D01*
X133242256Y-58205000D01*
X132949744Y-58205000D01*
X132516582Y-58291161D01*
X132025375Y-58619375D01*
X131812157Y-58938478D01*
X131751183Y-58808642D01*
X131322924Y-58418355D01*
X130912890Y-58248524D01*
X130683000Y-58369845D01*
X130683000Y-59563000D01*
X130703000Y-59563000D01*
X130703000Y-59817000D01*
X130683000Y-59817000D01*
X130683000Y-59837000D01*
X130429000Y-59837000D01*
X130429000Y-59817000D01*
X130409000Y-59817000D01*
X130409000Y-59563000D01*
X130429000Y-59563000D01*
X130429000Y-58369845D01*
X130199110Y-58248524D01*
X129789076Y-58418355D01*
X129360817Y-58808642D01*
X129299843Y-58938478D01*
X129086625Y-58619375D01*
X128595418Y-58291161D01*
X128162256Y-58205000D01*
X127869744Y-58205000D01*
X127436582Y-58291161D01*
X126945375Y-58619375D01*
X126746000Y-58917761D01*
X126546625Y-58619375D01*
X126055418Y-58291161D01*
X125622256Y-58205000D01*
X125329744Y-58205000D01*
X124896582Y-58291161D01*
X124405375Y-58619375D01*
X124206000Y-58917761D01*
X124006625Y-58619375D01*
X123515418Y-58291161D01*
X123082256Y-58205000D01*
X122789744Y-58205000D01*
X122356582Y-58291161D01*
X121865375Y-58619375D01*
X121666000Y-58917761D01*
X121466625Y-58619375D01*
X120975418Y-58291161D01*
X120542256Y-58205000D01*
X120249744Y-58205000D01*
X119816582Y-58291161D01*
X119325375Y-58619375D01*
X119112157Y-58938478D01*
X119051183Y-58808642D01*
X118622924Y-58418355D01*
X118212890Y-58248524D01*
X117983000Y-58369845D01*
X117983000Y-59563000D01*
X118003000Y-59563000D01*
X118003000Y-59817000D01*
X117983000Y-59817000D01*
X117983000Y-59837000D01*
X117729000Y-59837000D01*
X117729000Y-59817000D01*
X117709000Y-59817000D01*
X117709000Y-59563000D01*
X117729000Y-59563000D01*
X117729000Y-58369845D01*
X117499110Y-58248524D01*
X117089076Y-58418355D01*
X116660817Y-58808642D01*
X116599843Y-58938478D01*
X116386625Y-58619375D01*
X115895418Y-58291161D01*
X115462256Y-58205000D01*
X115169744Y-58205000D01*
X114736582Y-58291161D01*
X114245375Y-58619375D01*
X114046000Y-58917761D01*
X113846625Y-58619375D01*
X113355418Y-58291161D01*
X112922256Y-58205000D01*
X112629744Y-58205000D01*
X112196582Y-58291161D01*
X111705375Y-58619375D01*
X111492157Y-58938478D01*
X111431183Y-58808642D01*
X111002924Y-58418355D01*
X110592890Y-58248524D01*
X110363000Y-58369845D01*
X110363000Y-59563000D01*
X110383000Y-59563000D01*
X110383000Y-59817000D01*
X110363000Y-59817000D01*
X110363000Y-59837000D01*
X110109000Y-59837000D01*
X110109000Y-59817000D01*
X110089000Y-59817000D01*
X110089000Y-59563000D01*
X110109000Y-59563000D01*
X110109000Y-58369845D01*
X109879110Y-58248524D01*
X109469076Y-58418355D01*
X109040817Y-58808642D01*
X108979843Y-58938478D01*
X108766625Y-58619375D01*
X108275418Y-58291161D01*
X107842256Y-58205000D01*
X107549744Y-58205000D01*
X107116582Y-58291161D01*
X106625375Y-58619375D01*
X106426000Y-58917761D01*
X106226625Y-58619375D01*
X105735418Y-58291161D01*
X105302256Y-58205000D01*
X105009744Y-58205000D01*
X104576582Y-58291161D01*
X104085375Y-58619375D01*
X103886000Y-58917761D01*
X103686625Y-58619375D01*
X103195418Y-58291161D01*
X102762256Y-58205000D01*
X102469744Y-58205000D01*
X102036582Y-58291161D01*
X101545375Y-58619375D01*
X101332157Y-58938478D01*
X101271183Y-58808642D01*
X100842924Y-58418355D01*
X100432890Y-58248524D01*
X100203000Y-58369845D01*
X100203000Y-59563000D01*
X100223000Y-59563000D01*
X100223000Y-59817000D01*
X100203000Y-59817000D01*
X100203000Y-59837000D01*
X99949000Y-59837000D01*
X99949000Y-59817000D01*
X99929000Y-59817000D01*
X99929000Y-59563000D01*
X99949000Y-59563000D01*
X99949000Y-58369845D01*
X99719110Y-58248524D01*
X99309076Y-58418355D01*
X98880817Y-58808642D01*
X98819843Y-58938478D01*
X98606625Y-58619375D01*
X98115418Y-58291161D01*
X97682256Y-58205000D01*
X97389744Y-58205000D01*
X96956582Y-58291161D01*
X96465375Y-58619375D01*
X96266000Y-58917761D01*
X96066625Y-58619375D01*
X95575418Y-58291161D01*
X95142256Y-58205000D01*
X94849744Y-58205000D01*
X94416582Y-58291161D01*
X93925375Y-58619375D01*
X93597161Y-59110582D01*
X93481908Y-59690000D01*
X91908560Y-59690000D01*
X91861069Y-59605199D01*
X91331051Y-59130476D01*
X90675839Y-58853029D01*
X89966082Y-58802776D01*
X89278314Y-58985134D01*
X88686695Y-59380441D01*
X88255020Y-59946070D01*
X88029836Y-60621031D01*
X87362084Y-60621031D01*
X87390895Y-60337396D01*
X87578039Y-59740218D01*
X87881436Y-59192876D01*
X88288701Y-58717711D01*
X88783188Y-58334148D01*
X89344700Y-58057850D01*
X89958774Y-57897896D01*
X90451270Y-57860000D01*
X147792036Y-57860000D01*
X148450604Y-57926895D01*
G36*
X92202000Y-109235976D02*
X91861069Y-108627199D01*
X91331051Y-108152476D01*
X90675839Y-107875029D01*
X89966082Y-107824776D01*
X89278314Y-108007134D01*
X88686695Y-108402441D01*
X88255020Y-108968070D01*
X88029836Y-109643031D01*
X88035425Y-110354543D01*
X88271183Y-111025884D01*
X88711689Y-111584663D01*
X89309444Y-111970628D01*
X89999992Y-112142161D01*
X90708871Y-112080766D01*
X91359645Y-111793062D01*
X91882140Y-111310072D01*
X92202000Y-110717269D01*
X92202000Y-112828000D01*
X90459964Y-112828000D01*
X89801396Y-112761105D01*
X89204218Y-112573961D01*
X88656875Y-112270563D01*
X88181711Y-111863299D01*
X87798148Y-111368812D01*
X87521852Y-110807304D01*
X87361896Y-110193227D01*
X87324000Y-109700730D01*
X87324000Y-95250000D01*
X88655908Y-95250000D01*
X88771161Y-95829418D01*
X89099375Y-96320625D01*
X89397761Y-96520000D01*
X89099375Y-96719375D01*
X88771161Y-97210582D01*
X88655908Y-97790000D01*
X88771161Y-98369418D01*
X89099375Y-98860625D01*
X89397761Y-99060000D01*
X89099375Y-99259375D01*
X88771161Y-99750582D01*
X88655908Y-100330000D01*
X88771161Y-100909418D01*
X89099375Y-101400625D01*
X89397761Y-101600000D01*
X89099375Y-101799375D01*
X88771161Y-102290582D01*
X88655908Y-102870000D01*
X88771161Y-103449418D01*
X89099375Y-103940625D01*
X89590582Y-104268839D01*
X90023744Y-104355000D01*
X90316256Y-104355000D01*
X90749418Y-104268839D01*
X91240625Y-103940625D01*
X91568839Y-103449418D01*
X91684092Y-102870000D01*
X91568839Y-102290582D01*
X91240625Y-101799375D01*
X90942239Y-101600000D01*
X91240625Y-101400625D01*
X91568839Y-100909418D01*
X91684092Y-100330000D01*
X91568839Y-99750582D01*
X91240625Y-99259375D01*
X90942239Y-99060000D01*
X91240625Y-98860625D01*
X91568839Y-98369418D01*
X91684092Y-97790000D01*
X91568839Y-97210582D01*
X91240625Y-96719375D01*
X90942239Y-96520000D01*
X91240625Y-96320625D01*
X91568839Y-95829418D01*
X91684092Y-95250000D01*
X91568839Y-94670582D01*
X91240625Y-94179375D01*
X90921522Y-93966157D01*
X91051358Y-93905183D01*
X91441645Y-93476924D01*
X91611476Y-93066890D01*
X91490155Y-92837000D01*
X90297000Y-92837000D01*
X90297000Y-92857000D01*
X90043000Y-92857000D01*
X90043000Y-92837000D01*
X88849845Y-92837000D01*
X88728524Y-93066890D01*
X88898355Y-93476924D01*
X89288642Y-93905183D01*
X89418478Y-93966157D01*
X89099375Y-94179375D01*
X88771161Y-94670582D01*
X88655908Y-95250000D01*
X87324000Y-95250000D01*
X87324000Y-90526890D01*
X88728524Y-90526890D01*
X88898355Y-90936924D01*
X89288642Y-91365183D01*
X89447954Y-91440000D01*
X89288642Y-91514817D01*
X88898355Y-91943076D01*
X88728524Y-92353110D01*
X88849845Y-92583000D01*
X90043000Y-92583000D01*
X90043000Y-90297000D01*
X90297000Y-90297000D01*
X90297000Y-92583000D01*
X91490155Y-92583000D01*
X91611476Y-92353110D01*
X91441645Y-91943076D01*
X91051358Y-91514817D01*
X90892046Y-91440000D01*
X91051358Y-91365183D01*
X91441645Y-90936924D01*
X91611476Y-90526890D01*
X91490155Y-90297000D01*
X90297000Y-90297000D01*
X90043000Y-90297000D01*
X88849845Y-90297000D01*
X88728524Y-90526890D01*
X87324000Y-90526890D01*
X87324000Y-82550000D01*
X88655908Y-82550000D01*
X88771161Y-83129418D01*
X89099375Y-83620625D01*
X89397761Y-83820000D01*
X89099375Y-84019375D01*
X88771161Y-84510582D01*
X88655908Y-85090000D01*
X88771161Y-85669418D01*
X89099375Y-86160625D01*
X89397761Y-86360000D01*
X89099375Y-86559375D01*
X88771161Y-87050582D01*
X88655908Y-87630000D01*
X88771161Y-88209418D01*
X89099375Y-88700625D01*
X89418478Y-88913843D01*
X89288642Y-88974817D01*
X88898355Y-89403076D01*
X88728524Y-89813110D01*
X88849845Y-90043000D01*
X90043000Y-90043000D01*
X90043000Y-90023000D01*
X90297000Y-90023000D01*
X90297000Y-90043000D01*
X91490155Y-90043000D01*
X91611476Y-89813110D01*
X91441645Y-89403076D01*
X91051358Y-88974817D01*
X90921522Y-88913843D01*
X91240625Y-88700625D01*
X91568839Y-88209418D01*
X91684092Y-87630000D01*
X91568839Y-87050582D01*
X91240625Y-86559375D01*
X90942239Y-86360000D01*
X91240625Y-86160625D01*
X91568839Y-85669418D01*
X91684092Y-85090000D01*
X91568839Y-84510582D01*
X91240625Y-84019375D01*
X90942239Y-83820000D01*
X91240625Y-83620625D01*
X91568839Y-83129418D01*
X91684092Y-82550000D01*
X91568839Y-81970582D01*
X91240625Y-81479375D01*
X90921522Y-81266157D01*
X91051358Y-81205183D01*
X91441645Y-80776924D01*
X91611476Y-80366890D01*
X91490155Y-80137000D01*
X90297000Y-80137000D01*
X90297000Y-80157000D01*
X90043000Y-80157000D01*
X90043000Y-80137000D01*
X88849845Y-80137000D01*
X88728524Y-80366890D01*
X88898355Y-80776924D01*
X89288642Y-81205183D01*
X89418478Y-81266157D01*
X89099375Y-81479375D01*
X88771161Y-81970582D01*
X88655908Y-82550000D01*
X87324000Y-82550000D01*
X87324000Y-74930000D01*
X88655908Y-74930000D01*
X88771161Y-75509418D01*
X89099375Y-76000625D01*
X89397761Y-76200000D01*
X89099375Y-76399375D01*
X88771161Y-76890582D01*
X88655908Y-77470000D01*
X88771161Y-78049418D01*
X89099375Y-78540625D01*
X89418478Y-78753843D01*
X89288642Y-78814817D01*
X88898355Y-79243076D01*
X88728524Y-79653110D01*
X88849845Y-79883000D01*
X90043000Y-79883000D01*
X90043000Y-79863000D01*
X90297000Y-79863000D01*
X90297000Y-79883000D01*
X91490155Y-79883000D01*
X91611476Y-79653110D01*
X91441645Y-79243076D01*
X91051358Y-78814817D01*
X90921522Y-78753843D01*
X91240625Y-78540625D01*
X91568839Y-78049418D01*
X91684092Y-77470000D01*
X91568839Y-76890582D01*
X91240625Y-76399375D01*
X90942239Y-76200000D01*
X91240625Y-76000625D01*
X91568839Y-75509418D01*
X91684092Y-74930000D01*
X91568839Y-74350582D01*
X91240625Y-73859375D01*
X90921522Y-73646157D01*
X91051358Y-73585183D01*
X91441645Y-73156924D01*
X91611476Y-72746890D01*
X91490155Y-72517000D01*
X90297000Y-72517000D01*
X90297000Y-72537000D01*
X90043000Y-72537000D01*
X90043000Y-72517000D01*
X88849845Y-72517000D01*
X88728524Y-72746890D01*
X88898355Y-73156924D01*
X89288642Y-73585183D01*
X89418478Y-73646157D01*
X89099375Y-73859375D01*
X88771161Y-74350582D01*
X88655908Y-74930000D01*
X87324000Y-74930000D01*
X87324000Y-69850000D01*
X88655908Y-69850000D01*
X88771161Y-70429418D01*
X89099375Y-70920625D01*
X89418478Y-71133843D01*
X89288642Y-71194817D01*
X88898355Y-71623076D01*
X88728524Y-72033110D01*
X88849845Y-72263000D01*
X90043000Y-72263000D01*
X90043000Y-72243000D01*
X90297000Y-72243000D01*
X90297000Y-72263000D01*
X91490155Y-72263000D01*
X91611476Y-72033110D01*
X91441645Y-71623076D01*
X91051358Y-71194817D01*
X90921522Y-71133843D01*
X91240625Y-70920625D01*
X91568839Y-70429418D01*
X91684092Y-69850000D01*
X91568839Y-69270582D01*
X91240625Y-68779375D01*
X91222381Y-68767184D01*
X91267765Y-68758157D01*
X91477809Y-68617809D01*
X91618157Y-68407765D01*
X91667440Y-68160000D01*
X91667440Y-66460000D01*
X91618157Y-66212235D01*
X91477809Y-66002191D01*
X91267765Y-65861843D01*
X91020000Y-65812560D01*
X89320000Y-65812560D01*
X89072235Y-65861843D01*
X88862191Y-66002191D01*
X88721843Y-66212235D01*
X88672560Y-66460000D01*
X88672560Y-68160000D01*
X88721843Y-68407765D01*
X88862191Y-68617809D01*
X89072235Y-68758157D01*
X89117619Y-68767184D01*
X89099375Y-68779375D01*
X88771161Y-69270582D01*
X88655908Y-69850000D01*
X87324000Y-69850000D01*
X87324000Y-64008000D01*
X92202000Y-64008000D01*
X92202000Y-109235976D01*
X92202000Y-109235976D01*
G37*
X92202000Y-109235976D02*
X91861069Y-108627199D01*
X91331051Y-108152476D01*
X90675839Y-107875029D01*
X89966082Y-107824776D01*
X89278314Y-108007134D01*
X88686695Y-108402441D01*
X88255020Y-108968070D01*
X88029836Y-109643031D01*
X88035425Y-110354543D01*
X88271183Y-111025884D01*
X88711689Y-111584663D01*
X89309444Y-111970628D01*
X89999992Y-112142161D01*
X90708871Y-112080766D01*
X91359645Y-111793062D01*
X91882140Y-111310072D01*
X92202000Y-110717269D01*
X92202000Y-112828000D01*
X90459964Y-112828000D01*
X89801396Y-112761105D01*
X89204218Y-112573961D01*
X88656875Y-112270563D01*
X88181711Y-111863299D01*
X87798148Y-111368812D01*
X87521852Y-110807304D01*
X87361896Y-110193227D01*
X87324000Y-109700730D01*
X87324000Y-95250000D01*
X88655908Y-95250000D01*
X88771161Y-95829418D01*
X89099375Y-96320625D01*
X89397761Y-96520000D01*
X89099375Y-96719375D01*
X88771161Y-97210582D01*
X88655908Y-97790000D01*
X88771161Y-98369418D01*
X89099375Y-98860625D01*
X89397761Y-99060000D01*
X89099375Y-99259375D01*
X88771161Y-99750582D01*
X88655908Y-100330000D01*
X88771161Y-100909418D01*
X89099375Y-101400625D01*
X89397761Y-101600000D01*
X89099375Y-101799375D01*
X88771161Y-102290582D01*
X88655908Y-102870000D01*
X88771161Y-103449418D01*
X89099375Y-103940625D01*
X89590582Y-104268839D01*
X90023744Y-104355000D01*
X90316256Y-104355000D01*
X90749418Y-104268839D01*
X91240625Y-103940625D01*
X91568839Y-103449418D01*
X91684092Y-102870000D01*
X91568839Y-102290582D01*
X91240625Y-101799375D01*
X90942239Y-101600000D01*
X91240625Y-101400625D01*
X91568839Y-100909418D01*
X91684092Y-100330000D01*
X91568839Y-99750582D01*
X91240625Y-99259375D01*
X90942239Y-99060000D01*
X91240625Y-98860625D01*
X91568839Y-98369418D01*
X91684092Y-97790000D01*
X91568839Y-97210582D01*
X91240625Y-96719375D01*
X90942239Y-96520000D01*
X91240625Y-96320625D01*
X91568839Y-95829418D01*
X91684092Y-95250000D01*
X91568839Y-94670582D01*
X91240625Y-94179375D01*
X90921522Y-93966157D01*
X91051358Y-93905183D01*
X91441645Y-93476924D01*
X91611476Y-93066890D01*
X91490155Y-92837000D01*
X90297000Y-92837000D01*
X90297000Y-92857000D01*
X90043000Y-92857000D01*
X90043000Y-92837000D01*
X88849845Y-92837000D01*
X88728524Y-93066890D01*
X88898355Y-93476924D01*
X89288642Y-93905183D01*
X89418478Y-93966157D01*
X89099375Y-94179375D01*
X88771161Y-94670582D01*
X88655908Y-95250000D01*
X87324000Y-95250000D01*
X87324000Y-90526890D01*
X88728524Y-90526890D01*
X88898355Y-90936924D01*
X89288642Y-91365183D01*
X89447954Y-91440000D01*
X89288642Y-91514817D01*
X88898355Y-91943076D01*
X88728524Y-92353110D01*
X88849845Y-92583000D01*
X90043000Y-92583000D01*
X90043000Y-90297000D01*
X90297000Y-90297000D01*
X90297000Y-92583000D01*
X91490155Y-92583000D01*
X91611476Y-92353110D01*
X91441645Y-91943076D01*
X91051358Y-91514817D01*
X90892046Y-91440000D01*
X91051358Y-91365183D01*
X91441645Y-90936924D01*
X91611476Y-90526890D01*
X91490155Y-90297000D01*
X90297000Y-90297000D01*
X90043000Y-90297000D01*
X88849845Y-90297000D01*
X88728524Y-90526890D01*
X87324000Y-90526890D01*
X87324000Y-82550000D01*
X88655908Y-82550000D01*
X88771161Y-83129418D01*
X89099375Y-83620625D01*
X89397761Y-83820000D01*
X89099375Y-84019375D01*
X88771161Y-84510582D01*
X88655908Y-85090000D01*
X88771161Y-85669418D01*
X89099375Y-86160625D01*
X89397761Y-86360000D01*
X89099375Y-86559375D01*
X88771161Y-87050582D01*
X88655908Y-87630000D01*
X88771161Y-88209418D01*
X89099375Y-88700625D01*
X89418478Y-88913843D01*
X89288642Y-88974817D01*
X88898355Y-89403076D01*
X88728524Y-89813110D01*
X88849845Y-90043000D01*
X90043000Y-90043000D01*
X90043000Y-90023000D01*
X90297000Y-90023000D01*
X90297000Y-90043000D01*
X91490155Y-90043000D01*
X91611476Y-89813110D01*
X91441645Y-89403076D01*
X91051358Y-88974817D01*
X90921522Y-88913843D01*
X91240625Y-88700625D01*
X91568839Y-88209418D01*
X91684092Y-87630000D01*
X91568839Y-87050582D01*
X91240625Y-86559375D01*
X90942239Y-86360000D01*
X91240625Y-86160625D01*
X91568839Y-85669418D01*
X91684092Y-85090000D01*
X91568839Y-84510582D01*
X91240625Y-84019375D01*
X90942239Y-83820000D01*
X91240625Y-83620625D01*
X91568839Y-83129418D01*
X91684092Y-82550000D01*
X91568839Y-81970582D01*
X91240625Y-81479375D01*
X90921522Y-81266157D01*
X91051358Y-81205183D01*
X91441645Y-80776924D01*
X91611476Y-80366890D01*
X91490155Y-80137000D01*
X90297000Y-80137000D01*
X90297000Y-80157000D01*
X90043000Y-80157000D01*
X90043000Y-80137000D01*
X88849845Y-80137000D01*
X88728524Y-80366890D01*
X88898355Y-80776924D01*
X89288642Y-81205183D01*
X89418478Y-81266157D01*
X89099375Y-81479375D01*
X88771161Y-81970582D01*
X88655908Y-82550000D01*
X87324000Y-82550000D01*
X87324000Y-74930000D01*
X88655908Y-74930000D01*
X88771161Y-75509418D01*
X89099375Y-76000625D01*
X89397761Y-76200000D01*
X89099375Y-76399375D01*
X88771161Y-76890582D01*
X88655908Y-77470000D01*
X88771161Y-78049418D01*
X89099375Y-78540625D01*
X89418478Y-78753843D01*
X89288642Y-78814817D01*
X88898355Y-79243076D01*
X88728524Y-79653110D01*
X88849845Y-79883000D01*
X90043000Y-79883000D01*
X90043000Y-79863000D01*
X90297000Y-79863000D01*
X90297000Y-79883000D01*
X91490155Y-79883000D01*
X91611476Y-79653110D01*
X91441645Y-79243076D01*
X91051358Y-78814817D01*
X90921522Y-78753843D01*
X91240625Y-78540625D01*
X91568839Y-78049418D01*
X91684092Y-77470000D01*
X91568839Y-76890582D01*
X91240625Y-76399375D01*
X90942239Y-76200000D01*
X91240625Y-76000625D01*
X91568839Y-75509418D01*
X91684092Y-74930000D01*
X91568839Y-74350582D01*
X91240625Y-73859375D01*
X90921522Y-73646157D01*
X91051358Y-73585183D01*
X91441645Y-73156924D01*
X91611476Y-72746890D01*
X91490155Y-72517000D01*
X90297000Y-72517000D01*
X90297000Y-72537000D01*
X90043000Y-72537000D01*
X90043000Y-72517000D01*
X88849845Y-72517000D01*
X88728524Y-72746890D01*
X88898355Y-73156924D01*
X89288642Y-73585183D01*
X89418478Y-73646157D01*
X89099375Y-73859375D01*
X88771161Y-74350582D01*
X88655908Y-74930000D01*
X87324000Y-74930000D01*
X87324000Y-69850000D01*
X88655908Y-69850000D01*
X88771161Y-70429418D01*
X89099375Y-70920625D01*
X89418478Y-71133843D01*
X89288642Y-71194817D01*
X88898355Y-71623076D01*
X88728524Y-72033110D01*
X88849845Y-72263000D01*
X90043000Y-72263000D01*
X90043000Y-72243000D01*
X90297000Y-72243000D01*
X90297000Y-72263000D01*
X91490155Y-72263000D01*
X91611476Y-72033110D01*
X91441645Y-71623076D01*
X91051358Y-71194817D01*
X90921522Y-71133843D01*
X91240625Y-70920625D01*
X91568839Y-70429418D01*
X91684092Y-69850000D01*
X91568839Y-69270582D01*
X91240625Y-68779375D01*
X91222381Y-68767184D01*
X91267765Y-68758157D01*
X91477809Y-68617809D01*
X91618157Y-68407765D01*
X91667440Y-68160000D01*
X91667440Y-66460000D01*
X91618157Y-66212235D01*
X91477809Y-66002191D01*
X91267765Y-65861843D01*
X91020000Y-65812560D01*
X89320000Y-65812560D01*
X89072235Y-65861843D01*
X88862191Y-66002191D01*
X88721843Y-66212235D01*
X88672560Y-66460000D01*
X88672560Y-68160000D01*
X88721843Y-68407765D01*
X88862191Y-68617809D01*
X89072235Y-68758157D01*
X89117619Y-68767184D01*
X89099375Y-68779375D01*
X88771161Y-69270582D01*
X88655908Y-69850000D01*
X87324000Y-69850000D01*
X87324000Y-64008000D01*
X92202000Y-64008000D01*
X92202000Y-109235976D01*
G36*
X130683000Y-112141000D02*
X125476000Y-112141000D01*
X125476000Y-106426000D01*
X130683000Y-106426000D01*
X130683000Y-112141000D01*
X130683000Y-112141000D01*
G37*
X130683000Y-112141000D02*
X125476000Y-112141000D01*
X125476000Y-106426000D01*
X130683000Y-106426000D01*
X130683000Y-112141000D01*
G36*
X114554000Y-64465644D02*
X114408000Y-64818120D01*
X114408000Y-65151000D01*
X98044000Y-65151000D01*
X98044000Y-64135000D01*
X114554000Y-64135000D01*
X114554000Y-64465644D01*
X114554000Y-64465644D01*
G37*
X114554000Y-64465644D02*
X114408000Y-64818120D01*
X114408000Y-65151000D01*
X98044000Y-65151000D01*
X98044000Y-64135000D01*
X114554000Y-64135000D01*
X114554000Y-64465644D01*
G04 #@! TD*
M02*
