G04 #@! TF.GenerationSoftware,KiCad,Pcbnew,(5.0.0-3-g5ebb6b6)*
G04 #@! TF.CreationDate,2019-05-19T23:28:32+02:00*
G04 #@! TF.ProjectId,Audio Board,417564696F20426F6172642E6B696361,rev?*
G04 #@! TF.SameCoordinates,Original*
G04 #@! TF.FileFunction,Paste,Bot*
G04 #@! TF.FilePolarity,Positive*
%FSLAX46Y46*%
G04 Gerber Fmt 4.6, Leading zero omitted, Abs format (unit mm)*
G04 Created by KiCad (PCBNEW (5.0.0-3-g5ebb6b6)) date Sunday, 19 May 2019 at 23:28:32*
%MOMM*%
%LPD*%
G01*
G04 APERTURE LIST*
%ADD10C,0.100000*%
%ADD11C,1.425000*%
%ADD12C,2.650000*%
%ADD13R,1.560000X0.650000*%
%ADD14C,0.950000*%
%ADD15R,2.000000X3.800000*%
%ADD16R,2.000000X1.500000*%
%ADD17C,1.150000*%
%ADD18C,1.350000*%
G04 APERTURE END LIST*
D10*
G04 #@! TO.C,C39*
G36*
X141838004Y-99133204D02*
X141862273Y-99136804D01*
X141886071Y-99142765D01*
X141909171Y-99151030D01*
X141931349Y-99161520D01*
X141952393Y-99174133D01*
X141972098Y-99188747D01*
X141990277Y-99205223D01*
X142006753Y-99223402D01*
X142021367Y-99243107D01*
X142033980Y-99264151D01*
X142044470Y-99286329D01*
X142052735Y-99309429D01*
X142058696Y-99333227D01*
X142062296Y-99357496D01*
X142063500Y-99382000D01*
X142063500Y-101532000D01*
X142062296Y-101556504D01*
X142058696Y-101580773D01*
X142052735Y-101604571D01*
X142044470Y-101627671D01*
X142033980Y-101649849D01*
X142021367Y-101670893D01*
X142006753Y-101690598D01*
X141990277Y-101708777D01*
X141972098Y-101725253D01*
X141952393Y-101739867D01*
X141931349Y-101752480D01*
X141909171Y-101762970D01*
X141886071Y-101771235D01*
X141862273Y-101777196D01*
X141838004Y-101780796D01*
X141813500Y-101782000D01*
X140888500Y-101782000D01*
X140863996Y-101780796D01*
X140839727Y-101777196D01*
X140815929Y-101771235D01*
X140792829Y-101762970D01*
X140770651Y-101752480D01*
X140749607Y-101739867D01*
X140729902Y-101725253D01*
X140711723Y-101708777D01*
X140695247Y-101690598D01*
X140680633Y-101670893D01*
X140668020Y-101649849D01*
X140657530Y-101627671D01*
X140649265Y-101604571D01*
X140643304Y-101580773D01*
X140639704Y-101556504D01*
X140638500Y-101532000D01*
X140638500Y-99382000D01*
X140639704Y-99357496D01*
X140643304Y-99333227D01*
X140649265Y-99309429D01*
X140657530Y-99286329D01*
X140668020Y-99264151D01*
X140680633Y-99243107D01*
X140695247Y-99223402D01*
X140711723Y-99205223D01*
X140729902Y-99188747D01*
X140749607Y-99174133D01*
X140770651Y-99161520D01*
X140792829Y-99151030D01*
X140815929Y-99142765D01*
X140839727Y-99136804D01*
X140863996Y-99133204D01*
X140888500Y-99132000D01*
X141813500Y-99132000D01*
X141838004Y-99133204D01*
X141838004Y-99133204D01*
G37*
D11*
X141351000Y-100457000D03*
D10*
G36*
X144813004Y-99133204D02*
X144837273Y-99136804D01*
X144861071Y-99142765D01*
X144884171Y-99151030D01*
X144906349Y-99161520D01*
X144927393Y-99174133D01*
X144947098Y-99188747D01*
X144965277Y-99205223D01*
X144981753Y-99223402D01*
X144996367Y-99243107D01*
X145008980Y-99264151D01*
X145019470Y-99286329D01*
X145027735Y-99309429D01*
X145033696Y-99333227D01*
X145037296Y-99357496D01*
X145038500Y-99382000D01*
X145038500Y-101532000D01*
X145037296Y-101556504D01*
X145033696Y-101580773D01*
X145027735Y-101604571D01*
X145019470Y-101627671D01*
X145008980Y-101649849D01*
X144996367Y-101670893D01*
X144981753Y-101690598D01*
X144965277Y-101708777D01*
X144947098Y-101725253D01*
X144927393Y-101739867D01*
X144906349Y-101752480D01*
X144884171Y-101762970D01*
X144861071Y-101771235D01*
X144837273Y-101777196D01*
X144813004Y-101780796D01*
X144788500Y-101782000D01*
X143863500Y-101782000D01*
X143838996Y-101780796D01*
X143814727Y-101777196D01*
X143790929Y-101771235D01*
X143767829Y-101762970D01*
X143745651Y-101752480D01*
X143724607Y-101739867D01*
X143704902Y-101725253D01*
X143686723Y-101708777D01*
X143670247Y-101690598D01*
X143655633Y-101670893D01*
X143643020Y-101649849D01*
X143632530Y-101627671D01*
X143624265Y-101604571D01*
X143618304Y-101580773D01*
X143614704Y-101556504D01*
X143613500Y-101532000D01*
X143613500Y-99382000D01*
X143614704Y-99357496D01*
X143618304Y-99333227D01*
X143624265Y-99309429D01*
X143632530Y-99286329D01*
X143643020Y-99264151D01*
X143655633Y-99243107D01*
X143670247Y-99223402D01*
X143686723Y-99205223D01*
X143704902Y-99188747D01*
X143724607Y-99174133D01*
X143745651Y-99161520D01*
X143767829Y-99151030D01*
X143790929Y-99142765D01*
X143814727Y-99136804D01*
X143838996Y-99133204D01*
X143863500Y-99132000D01*
X144788500Y-99132000D01*
X144813004Y-99133204D01*
X144813004Y-99133204D01*
G37*
D11*
X144326000Y-100457000D03*
G04 #@! TD*
D10*
G04 #@! TO.C,C40*
G36*
X133306504Y-106276704D02*
X133330773Y-106280304D01*
X133354571Y-106286265D01*
X133377671Y-106294530D01*
X133399849Y-106305020D01*
X133420893Y-106317633D01*
X133440598Y-106332247D01*
X133458777Y-106348723D01*
X133475253Y-106366902D01*
X133489867Y-106386607D01*
X133502480Y-106407651D01*
X133512970Y-106429829D01*
X133521235Y-106452929D01*
X133527196Y-106476727D01*
X133530796Y-106500996D01*
X133532000Y-106525500D01*
X133532000Y-107450500D01*
X133530796Y-107475004D01*
X133527196Y-107499273D01*
X133521235Y-107523071D01*
X133512970Y-107546171D01*
X133502480Y-107568349D01*
X133489867Y-107589393D01*
X133475253Y-107609098D01*
X133458777Y-107627277D01*
X133440598Y-107643753D01*
X133420893Y-107658367D01*
X133399849Y-107670980D01*
X133377671Y-107681470D01*
X133354571Y-107689735D01*
X133330773Y-107695696D01*
X133306504Y-107699296D01*
X133282000Y-107700500D01*
X131132000Y-107700500D01*
X131107496Y-107699296D01*
X131083227Y-107695696D01*
X131059429Y-107689735D01*
X131036329Y-107681470D01*
X131014151Y-107670980D01*
X130993107Y-107658367D01*
X130973402Y-107643753D01*
X130955223Y-107627277D01*
X130938747Y-107609098D01*
X130924133Y-107589393D01*
X130911520Y-107568349D01*
X130901030Y-107546171D01*
X130892765Y-107523071D01*
X130886804Y-107499273D01*
X130883204Y-107475004D01*
X130882000Y-107450500D01*
X130882000Y-106525500D01*
X130883204Y-106500996D01*
X130886804Y-106476727D01*
X130892765Y-106452929D01*
X130901030Y-106429829D01*
X130911520Y-106407651D01*
X130924133Y-106386607D01*
X130938747Y-106366902D01*
X130955223Y-106348723D01*
X130973402Y-106332247D01*
X130993107Y-106317633D01*
X131014151Y-106305020D01*
X131036329Y-106294530D01*
X131059429Y-106286265D01*
X131083227Y-106280304D01*
X131107496Y-106276704D01*
X131132000Y-106275500D01*
X133282000Y-106275500D01*
X133306504Y-106276704D01*
X133306504Y-106276704D01*
G37*
D11*
X132207000Y-106988000D03*
D10*
G36*
X133306504Y-103301704D02*
X133330773Y-103305304D01*
X133354571Y-103311265D01*
X133377671Y-103319530D01*
X133399849Y-103330020D01*
X133420893Y-103342633D01*
X133440598Y-103357247D01*
X133458777Y-103373723D01*
X133475253Y-103391902D01*
X133489867Y-103411607D01*
X133502480Y-103432651D01*
X133512970Y-103454829D01*
X133521235Y-103477929D01*
X133527196Y-103501727D01*
X133530796Y-103525996D01*
X133532000Y-103550500D01*
X133532000Y-104475500D01*
X133530796Y-104500004D01*
X133527196Y-104524273D01*
X133521235Y-104548071D01*
X133512970Y-104571171D01*
X133502480Y-104593349D01*
X133489867Y-104614393D01*
X133475253Y-104634098D01*
X133458777Y-104652277D01*
X133440598Y-104668753D01*
X133420893Y-104683367D01*
X133399849Y-104695980D01*
X133377671Y-104706470D01*
X133354571Y-104714735D01*
X133330773Y-104720696D01*
X133306504Y-104724296D01*
X133282000Y-104725500D01*
X131132000Y-104725500D01*
X131107496Y-104724296D01*
X131083227Y-104720696D01*
X131059429Y-104714735D01*
X131036329Y-104706470D01*
X131014151Y-104695980D01*
X130993107Y-104683367D01*
X130973402Y-104668753D01*
X130955223Y-104652277D01*
X130938747Y-104634098D01*
X130924133Y-104614393D01*
X130911520Y-104593349D01*
X130901030Y-104571171D01*
X130892765Y-104548071D01*
X130886804Y-104524273D01*
X130883204Y-104500004D01*
X130882000Y-104475500D01*
X130882000Y-103550500D01*
X130883204Y-103525996D01*
X130886804Y-103501727D01*
X130892765Y-103477929D01*
X130901030Y-103454829D01*
X130911520Y-103432651D01*
X130924133Y-103411607D01*
X130938747Y-103391902D01*
X130955223Y-103373723D01*
X130973402Y-103357247D01*
X130993107Y-103342633D01*
X131014151Y-103330020D01*
X131036329Y-103319530D01*
X131059429Y-103311265D01*
X131083227Y-103305304D01*
X131107496Y-103301704D01*
X131132000Y-103300500D01*
X133282000Y-103300500D01*
X133306504Y-103301704D01*
X133306504Y-103301704D01*
G37*
D11*
X132207000Y-104013000D03*
G04 #@! TD*
D10*
G04 #@! TO.C,D1*
G36*
X139910504Y-91025204D02*
X139934773Y-91028804D01*
X139958571Y-91034765D01*
X139981671Y-91043030D01*
X140003849Y-91053520D01*
X140024893Y-91066133D01*
X140044598Y-91080747D01*
X140062777Y-91097223D01*
X140079253Y-91115402D01*
X140093867Y-91135107D01*
X140106480Y-91156151D01*
X140116970Y-91178329D01*
X140125235Y-91201429D01*
X140131196Y-91225227D01*
X140134796Y-91249496D01*
X140136000Y-91274000D01*
X140136000Y-95924000D01*
X140134796Y-95948504D01*
X140131196Y-95972773D01*
X140125235Y-95996571D01*
X140116970Y-96019671D01*
X140106480Y-96041849D01*
X140093867Y-96062893D01*
X140079253Y-96082598D01*
X140062777Y-96100777D01*
X140044598Y-96117253D01*
X140024893Y-96131867D01*
X140003849Y-96144480D01*
X139981671Y-96154970D01*
X139958571Y-96163235D01*
X139934773Y-96169196D01*
X139910504Y-96172796D01*
X139886000Y-96174000D01*
X137736000Y-96174000D01*
X137711496Y-96172796D01*
X137687227Y-96169196D01*
X137663429Y-96163235D01*
X137640329Y-96154970D01*
X137618151Y-96144480D01*
X137597107Y-96131867D01*
X137577402Y-96117253D01*
X137559223Y-96100777D01*
X137542747Y-96082598D01*
X137528133Y-96062893D01*
X137515520Y-96041849D01*
X137505030Y-96019671D01*
X137496765Y-95996571D01*
X137490804Y-95972773D01*
X137487204Y-95948504D01*
X137486000Y-95924000D01*
X137486000Y-91274000D01*
X137487204Y-91249496D01*
X137490804Y-91225227D01*
X137496765Y-91201429D01*
X137505030Y-91178329D01*
X137515520Y-91156151D01*
X137528133Y-91135107D01*
X137542747Y-91115402D01*
X137559223Y-91097223D01*
X137577402Y-91080747D01*
X137597107Y-91066133D01*
X137618151Y-91053520D01*
X137640329Y-91043030D01*
X137663429Y-91034765D01*
X137687227Y-91028804D01*
X137711496Y-91025204D01*
X137736000Y-91024000D01*
X139886000Y-91024000D01*
X139910504Y-91025204D01*
X139910504Y-91025204D01*
G37*
D12*
X138811000Y-93599000D03*
D10*
G36*
X133360504Y-91025204D02*
X133384773Y-91028804D01*
X133408571Y-91034765D01*
X133431671Y-91043030D01*
X133453849Y-91053520D01*
X133474893Y-91066133D01*
X133494598Y-91080747D01*
X133512777Y-91097223D01*
X133529253Y-91115402D01*
X133543867Y-91135107D01*
X133556480Y-91156151D01*
X133566970Y-91178329D01*
X133575235Y-91201429D01*
X133581196Y-91225227D01*
X133584796Y-91249496D01*
X133586000Y-91274000D01*
X133586000Y-95924000D01*
X133584796Y-95948504D01*
X133581196Y-95972773D01*
X133575235Y-95996571D01*
X133566970Y-96019671D01*
X133556480Y-96041849D01*
X133543867Y-96062893D01*
X133529253Y-96082598D01*
X133512777Y-96100777D01*
X133494598Y-96117253D01*
X133474893Y-96131867D01*
X133453849Y-96144480D01*
X133431671Y-96154970D01*
X133408571Y-96163235D01*
X133384773Y-96169196D01*
X133360504Y-96172796D01*
X133336000Y-96174000D01*
X131186000Y-96174000D01*
X131161496Y-96172796D01*
X131137227Y-96169196D01*
X131113429Y-96163235D01*
X131090329Y-96154970D01*
X131068151Y-96144480D01*
X131047107Y-96131867D01*
X131027402Y-96117253D01*
X131009223Y-96100777D01*
X130992747Y-96082598D01*
X130978133Y-96062893D01*
X130965520Y-96041849D01*
X130955030Y-96019671D01*
X130946765Y-95996571D01*
X130940804Y-95972773D01*
X130937204Y-95948504D01*
X130936000Y-95924000D01*
X130936000Y-91274000D01*
X130937204Y-91249496D01*
X130940804Y-91225227D01*
X130946765Y-91201429D01*
X130955030Y-91178329D01*
X130965520Y-91156151D01*
X130978133Y-91135107D01*
X130992747Y-91115402D01*
X131009223Y-91097223D01*
X131027402Y-91080747D01*
X131047107Y-91066133D01*
X131068151Y-91053520D01*
X131090329Y-91043030D01*
X131113429Y-91034765D01*
X131137227Y-91028804D01*
X131161496Y-91025204D01*
X131186000Y-91024000D01*
X133336000Y-91024000D01*
X133360504Y-91025204D01*
X133360504Y-91025204D01*
G37*
D12*
X132261000Y-93599000D03*
G04 #@! TD*
D13*
G04 #@! TO.C,U5*
X135128000Y-101280000D03*
X135128000Y-100330000D03*
X135128000Y-99380000D03*
X137828000Y-99380000D03*
X137828000Y-101280000D03*
X137828000Y-100330000D03*
G04 #@! TD*
D10*
G04 #@! TO.C,R9*
G36*
X142627779Y-93710144D02*
X142650834Y-93713563D01*
X142673443Y-93719227D01*
X142695387Y-93727079D01*
X142716457Y-93737044D01*
X142736448Y-93749026D01*
X142755168Y-93762910D01*
X142772438Y-93778562D01*
X142788090Y-93795832D01*
X142801974Y-93814552D01*
X142813956Y-93834543D01*
X142823921Y-93855613D01*
X142831773Y-93877557D01*
X142837437Y-93900166D01*
X142840856Y-93923221D01*
X142842000Y-93946500D01*
X142842000Y-94521500D01*
X142840856Y-94544779D01*
X142837437Y-94567834D01*
X142831773Y-94590443D01*
X142823921Y-94612387D01*
X142813956Y-94633457D01*
X142801974Y-94653448D01*
X142788090Y-94672168D01*
X142772438Y-94689438D01*
X142755168Y-94705090D01*
X142736448Y-94718974D01*
X142716457Y-94730956D01*
X142695387Y-94740921D01*
X142673443Y-94748773D01*
X142650834Y-94754437D01*
X142627779Y-94757856D01*
X142604500Y-94759000D01*
X142129500Y-94759000D01*
X142106221Y-94757856D01*
X142083166Y-94754437D01*
X142060557Y-94748773D01*
X142038613Y-94740921D01*
X142017543Y-94730956D01*
X141997552Y-94718974D01*
X141978832Y-94705090D01*
X141961562Y-94689438D01*
X141945910Y-94672168D01*
X141932026Y-94653448D01*
X141920044Y-94633457D01*
X141910079Y-94612387D01*
X141902227Y-94590443D01*
X141896563Y-94567834D01*
X141893144Y-94544779D01*
X141892000Y-94521500D01*
X141892000Y-93946500D01*
X141893144Y-93923221D01*
X141896563Y-93900166D01*
X141902227Y-93877557D01*
X141910079Y-93855613D01*
X141920044Y-93834543D01*
X141932026Y-93814552D01*
X141945910Y-93795832D01*
X141961562Y-93778562D01*
X141978832Y-93762910D01*
X141997552Y-93749026D01*
X142017543Y-93737044D01*
X142038613Y-93727079D01*
X142060557Y-93719227D01*
X142083166Y-93713563D01*
X142106221Y-93710144D01*
X142129500Y-93709000D01*
X142604500Y-93709000D01*
X142627779Y-93710144D01*
X142627779Y-93710144D01*
G37*
D14*
X142367000Y-94234000D03*
D10*
G36*
X142627779Y-95460144D02*
X142650834Y-95463563D01*
X142673443Y-95469227D01*
X142695387Y-95477079D01*
X142716457Y-95487044D01*
X142736448Y-95499026D01*
X142755168Y-95512910D01*
X142772438Y-95528562D01*
X142788090Y-95545832D01*
X142801974Y-95564552D01*
X142813956Y-95584543D01*
X142823921Y-95605613D01*
X142831773Y-95627557D01*
X142837437Y-95650166D01*
X142840856Y-95673221D01*
X142842000Y-95696500D01*
X142842000Y-96271500D01*
X142840856Y-96294779D01*
X142837437Y-96317834D01*
X142831773Y-96340443D01*
X142823921Y-96362387D01*
X142813956Y-96383457D01*
X142801974Y-96403448D01*
X142788090Y-96422168D01*
X142772438Y-96439438D01*
X142755168Y-96455090D01*
X142736448Y-96468974D01*
X142716457Y-96480956D01*
X142695387Y-96490921D01*
X142673443Y-96498773D01*
X142650834Y-96504437D01*
X142627779Y-96507856D01*
X142604500Y-96509000D01*
X142129500Y-96509000D01*
X142106221Y-96507856D01*
X142083166Y-96504437D01*
X142060557Y-96498773D01*
X142038613Y-96490921D01*
X142017543Y-96480956D01*
X141997552Y-96468974D01*
X141978832Y-96455090D01*
X141961562Y-96439438D01*
X141945910Y-96422168D01*
X141932026Y-96403448D01*
X141920044Y-96383457D01*
X141910079Y-96362387D01*
X141902227Y-96340443D01*
X141896563Y-96317834D01*
X141893144Y-96294779D01*
X141892000Y-96271500D01*
X141892000Y-95696500D01*
X141893144Y-95673221D01*
X141896563Y-95650166D01*
X141902227Y-95627557D01*
X141910079Y-95605613D01*
X141920044Y-95584543D01*
X141932026Y-95564552D01*
X141945910Y-95545832D01*
X141961562Y-95528562D01*
X141978832Y-95512910D01*
X141997552Y-95499026D01*
X142017543Y-95487044D01*
X142038613Y-95477079D01*
X142060557Y-95469227D01*
X142083166Y-95463563D01*
X142106221Y-95460144D01*
X142129500Y-95459000D01*
X142604500Y-95459000D01*
X142627779Y-95460144D01*
X142627779Y-95460144D01*
G37*
D14*
X142367000Y-95984000D03*
G04 #@! TD*
D10*
G04 #@! TO.C,R10*
G36*
X144405779Y-93738144D02*
X144428834Y-93741563D01*
X144451443Y-93747227D01*
X144473387Y-93755079D01*
X144494457Y-93765044D01*
X144514448Y-93777026D01*
X144533168Y-93790910D01*
X144550438Y-93806562D01*
X144566090Y-93823832D01*
X144579974Y-93842552D01*
X144591956Y-93862543D01*
X144601921Y-93883613D01*
X144609773Y-93905557D01*
X144615437Y-93928166D01*
X144618856Y-93951221D01*
X144620000Y-93974500D01*
X144620000Y-94549500D01*
X144618856Y-94572779D01*
X144615437Y-94595834D01*
X144609773Y-94618443D01*
X144601921Y-94640387D01*
X144591956Y-94661457D01*
X144579974Y-94681448D01*
X144566090Y-94700168D01*
X144550438Y-94717438D01*
X144533168Y-94733090D01*
X144514448Y-94746974D01*
X144494457Y-94758956D01*
X144473387Y-94768921D01*
X144451443Y-94776773D01*
X144428834Y-94782437D01*
X144405779Y-94785856D01*
X144382500Y-94787000D01*
X143907500Y-94787000D01*
X143884221Y-94785856D01*
X143861166Y-94782437D01*
X143838557Y-94776773D01*
X143816613Y-94768921D01*
X143795543Y-94758956D01*
X143775552Y-94746974D01*
X143756832Y-94733090D01*
X143739562Y-94717438D01*
X143723910Y-94700168D01*
X143710026Y-94681448D01*
X143698044Y-94661457D01*
X143688079Y-94640387D01*
X143680227Y-94618443D01*
X143674563Y-94595834D01*
X143671144Y-94572779D01*
X143670000Y-94549500D01*
X143670000Y-93974500D01*
X143671144Y-93951221D01*
X143674563Y-93928166D01*
X143680227Y-93905557D01*
X143688079Y-93883613D01*
X143698044Y-93862543D01*
X143710026Y-93842552D01*
X143723910Y-93823832D01*
X143739562Y-93806562D01*
X143756832Y-93790910D01*
X143775552Y-93777026D01*
X143795543Y-93765044D01*
X143816613Y-93755079D01*
X143838557Y-93747227D01*
X143861166Y-93741563D01*
X143884221Y-93738144D01*
X143907500Y-93737000D01*
X144382500Y-93737000D01*
X144405779Y-93738144D01*
X144405779Y-93738144D01*
G37*
D14*
X144145000Y-94262000D03*
D10*
G36*
X144405779Y-95488144D02*
X144428834Y-95491563D01*
X144451443Y-95497227D01*
X144473387Y-95505079D01*
X144494457Y-95515044D01*
X144514448Y-95527026D01*
X144533168Y-95540910D01*
X144550438Y-95556562D01*
X144566090Y-95573832D01*
X144579974Y-95592552D01*
X144591956Y-95612543D01*
X144601921Y-95633613D01*
X144609773Y-95655557D01*
X144615437Y-95678166D01*
X144618856Y-95701221D01*
X144620000Y-95724500D01*
X144620000Y-96299500D01*
X144618856Y-96322779D01*
X144615437Y-96345834D01*
X144609773Y-96368443D01*
X144601921Y-96390387D01*
X144591956Y-96411457D01*
X144579974Y-96431448D01*
X144566090Y-96450168D01*
X144550438Y-96467438D01*
X144533168Y-96483090D01*
X144514448Y-96496974D01*
X144494457Y-96508956D01*
X144473387Y-96518921D01*
X144451443Y-96526773D01*
X144428834Y-96532437D01*
X144405779Y-96535856D01*
X144382500Y-96537000D01*
X143907500Y-96537000D01*
X143884221Y-96535856D01*
X143861166Y-96532437D01*
X143838557Y-96526773D01*
X143816613Y-96518921D01*
X143795543Y-96508956D01*
X143775552Y-96496974D01*
X143756832Y-96483090D01*
X143739562Y-96467438D01*
X143723910Y-96450168D01*
X143710026Y-96431448D01*
X143698044Y-96411457D01*
X143688079Y-96390387D01*
X143680227Y-96368443D01*
X143674563Y-96345834D01*
X143671144Y-96322779D01*
X143670000Y-96299500D01*
X143670000Y-95724500D01*
X143671144Y-95701221D01*
X143674563Y-95678166D01*
X143680227Y-95655557D01*
X143688079Y-95633613D01*
X143698044Y-95612543D01*
X143710026Y-95592552D01*
X143723910Y-95573832D01*
X143739562Y-95556562D01*
X143756832Y-95540910D01*
X143775552Y-95527026D01*
X143795543Y-95515044D01*
X143816613Y-95505079D01*
X143838557Y-95497227D01*
X143861166Y-95491563D01*
X143884221Y-95488144D01*
X143907500Y-95487000D01*
X144382500Y-95487000D01*
X144405779Y-95488144D01*
X144405779Y-95488144D01*
G37*
D14*
X144145000Y-96012000D03*
G04 #@! TD*
D10*
G04 #@! TO.C,C22*
G36*
X125137779Y-84489144D02*
X125160834Y-84492563D01*
X125183443Y-84498227D01*
X125205387Y-84506079D01*
X125226457Y-84516044D01*
X125246448Y-84528026D01*
X125265168Y-84541910D01*
X125282438Y-84557562D01*
X125298090Y-84574832D01*
X125311974Y-84593552D01*
X125323956Y-84613543D01*
X125333921Y-84634613D01*
X125341773Y-84656557D01*
X125347437Y-84679166D01*
X125350856Y-84702221D01*
X125352000Y-84725500D01*
X125352000Y-85200500D01*
X125350856Y-85223779D01*
X125347437Y-85246834D01*
X125341773Y-85269443D01*
X125333921Y-85291387D01*
X125323956Y-85312457D01*
X125311974Y-85332448D01*
X125298090Y-85351168D01*
X125282438Y-85368438D01*
X125265168Y-85384090D01*
X125246448Y-85397974D01*
X125226457Y-85409956D01*
X125205387Y-85419921D01*
X125183443Y-85427773D01*
X125160834Y-85433437D01*
X125137779Y-85436856D01*
X125114500Y-85438000D01*
X124539500Y-85438000D01*
X124516221Y-85436856D01*
X124493166Y-85433437D01*
X124470557Y-85427773D01*
X124448613Y-85419921D01*
X124427543Y-85409956D01*
X124407552Y-85397974D01*
X124388832Y-85384090D01*
X124371562Y-85368438D01*
X124355910Y-85351168D01*
X124342026Y-85332448D01*
X124330044Y-85312457D01*
X124320079Y-85291387D01*
X124312227Y-85269443D01*
X124306563Y-85246834D01*
X124303144Y-85223779D01*
X124302000Y-85200500D01*
X124302000Y-84725500D01*
X124303144Y-84702221D01*
X124306563Y-84679166D01*
X124312227Y-84656557D01*
X124320079Y-84634613D01*
X124330044Y-84613543D01*
X124342026Y-84593552D01*
X124355910Y-84574832D01*
X124371562Y-84557562D01*
X124388832Y-84541910D01*
X124407552Y-84528026D01*
X124427543Y-84516044D01*
X124448613Y-84506079D01*
X124470557Y-84498227D01*
X124493166Y-84492563D01*
X124516221Y-84489144D01*
X124539500Y-84488000D01*
X125114500Y-84488000D01*
X125137779Y-84489144D01*
X125137779Y-84489144D01*
G37*
D14*
X124827000Y-84963000D03*
D10*
G36*
X123387779Y-84489144D02*
X123410834Y-84492563D01*
X123433443Y-84498227D01*
X123455387Y-84506079D01*
X123476457Y-84516044D01*
X123496448Y-84528026D01*
X123515168Y-84541910D01*
X123532438Y-84557562D01*
X123548090Y-84574832D01*
X123561974Y-84593552D01*
X123573956Y-84613543D01*
X123583921Y-84634613D01*
X123591773Y-84656557D01*
X123597437Y-84679166D01*
X123600856Y-84702221D01*
X123602000Y-84725500D01*
X123602000Y-85200500D01*
X123600856Y-85223779D01*
X123597437Y-85246834D01*
X123591773Y-85269443D01*
X123583921Y-85291387D01*
X123573956Y-85312457D01*
X123561974Y-85332448D01*
X123548090Y-85351168D01*
X123532438Y-85368438D01*
X123515168Y-85384090D01*
X123496448Y-85397974D01*
X123476457Y-85409956D01*
X123455387Y-85419921D01*
X123433443Y-85427773D01*
X123410834Y-85433437D01*
X123387779Y-85436856D01*
X123364500Y-85438000D01*
X122789500Y-85438000D01*
X122766221Y-85436856D01*
X122743166Y-85433437D01*
X122720557Y-85427773D01*
X122698613Y-85419921D01*
X122677543Y-85409956D01*
X122657552Y-85397974D01*
X122638832Y-85384090D01*
X122621562Y-85368438D01*
X122605910Y-85351168D01*
X122592026Y-85332448D01*
X122580044Y-85312457D01*
X122570079Y-85291387D01*
X122562227Y-85269443D01*
X122556563Y-85246834D01*
X122553144Y-85223779D01*
X122552000Y-85200500D01*
X122552000Y-84725500D01*
X122553144Y-84702221D01*
X122556563Y-84679166D01*
X122562227Y-84656557D01*
X122570079Y-84634613D01*
X122580044Y-84613543D01*
X122592026Y-84593552D01*
X122605910Y-84574832D01*
X122621562Y-84557562D01*
X122638832Y-84541910D01*
X122657552Y-84528026D01*
X122677543Y-84516044D01*
X122698613Y-84506079D01*
X122720557Y-84498227D01*
X122743166Y-84492563D01*
X122766221Y-84489144D01*
X122789500Y-84488000D01*
X123364500Y-84488000D01*
X123387779Y-84489144D01*
X123387779Y-84489144D01*
G37*
D14*
X123077000Y-84963000D03*
G04 #@! TD*
D10*
G04 #@! TO.C,R15*
G36*
X103166779Y-102650144D02*
X103189834Y-102653563D01*
X103212443Y-102659227D01*
X103234387Y-102667079D01*
X103255457Y-102677044D01*
X103275448Y-102689026D01*
X103294168Y-102702910D01*
X103311438Y-102718562D01*
X103327090Y-102735832D01*
X103340974Y-102754552D01*
X103352956Y-102774543D01*
X103362921Y-102795613D01*
X103370773Y-102817557D01*
X103376437Y-102840166D01*
X103379856Y-102863221D01*
X103381000Y-102886500D01*
X103381000Y-103361500D01*
X103379856Y-103384779D01*
X103376437Y-103407834D01*
X103370773Y-103430443D01*
X103362921Y-103452387D01*
X103352956Y-103473457D01*
X103340974Y-103493448D01*
X103327090Y-103512168D01*
X103311438Y-103529438D01*
X103294168Y-103545090D01*
X103275448Y-103558974D01*
X103255457Y-103570956D01*
X103234387Y-103580921D01*
X103212443Y-103588773D01*
X103189834Y-103594437D01*
X103166779Y-103597856D01*
X103143500Y-103599000D01*
X102568500Y-103599000D01*
X102545221Y-103597856D01*
X102522166Y-103594437D01*
X102499557Y-103588773D01*
X102477613Y-103580921D01*
X102456543Y-103570956D01*
X102436552Y-103558974D01*
X102417832Y-103545090D01*
X102400562Y-103529438D01*
X102384910Y-103512168D01*
X102371026Y-103493448D01*
X102359044Y-103473457D01*
X102349079Y-103452387D01*
X102341227Y-103430443D01*
X102335563Y-103407834D01*
X102332144Y-103384779D01*
X102331000Y-103361500D01*
X102331000Y-102886500D01*
X102332144Y-102863221D01*
X102335563Y-102840166D01*
X102341227Y-102817557D01*
X102349079Y-102795613D01*
X102359044Y-102774543D01*
X102371026Y-102754552D01*
X102384910Y-102735832D01*
X102400562Y-102718562D01*
X102417832Y-102702910D01*
X102436552Y-102689026D01*
X102456543Y-102677044D01*
X102477613Y-102667079D01*
X102499557Y-102659227D01*
X102522166Y-102653563D01*
X102545221Y-102650144D01*
X102568500Y-102649000D01*
X103143500Y-102649000D01*
X103166779Y-102650144D01*
X103166779Y-102650144D01*
G37*
D14*
X102856000Y-103124000D03*
D10*
G36*
X101416779Y-102650144D02*
X101439834Y-102653563D01*
X101462443Y-102659227D01*
X101484387Y-102667079D01*
X101505457Y-102677044D01*
X101525448Y-102689026D01*
X101544168Y-102702910D01*
X101561438Y-102718562D01*
X101577090Y-102735832D01*
X101590974Y-102754552D01*
X101602956Y-102774543D01*
X101612921Y-102795613D01*
X101620773Y-102817557D01*
X101626437Y-102840166D01*
X101629856Y-102863221D01*
X101631000Y-102886500D01*
X101631000Y-103361500D01*
X101629856Y-103384779D01*
X101626437Y-103407834D01*
X101620773Y-103430443D01*
X101612921Y-103452387D01*
X101602956Y-103473457D01*
X101590974Y-103493448D01*
X101577090Y-103512168D01*
X101561438Y-103529438D01*
X101544168Y-103545090D01*
X101525448Y-103558974D01*
X101505457Y-103570956D01*
X101484387Y-103580921D01*
X101462443Y-103588773D01*
X101439834Y-103594437D01*
X101416779Y-103597856D01*
X101393500Y-103599000D01*
X100818500Y-103599000D01*
X100795221Y-103597856D01*
X100772166Y-103594437D01*
X100749557Y-103588773D01*
X100727613Y-103580921D01*
X100706543Y-103570956D01*
X100686552Y-103558974D01*
X100667832Y-103545090D01*
X100650562Y-103529438D01*
X100634910Y-103512168D01*
X100621026Y-103493448D01*
X100609044Y-103473457D01*
X100599079Y-103452387D01*
X100591227Y-103430443D01*
X100585563Y-103407834D01*
X100582144Y-103384779D01*
X100581000Y-103361500D01*
X100581000Y-102886500D01*
X100582144Y-102863221D01*
X100585563Y-102840166D01*
X100591227Y-102817557D01*
X100599079Y-102795613D01*
X100609044Y-102774543D01*
X100621026Y-102754552D01*
X100634910Y-102735832D01*
X100650562Y-102718562D01*
X100667832Y-102702910D01*
X100686552Y-102689026D01*
X100706543Y-102677044D01*
X100727613Y-102667079D01*
X100749557Y-102659227D01*
X100772166Y-102653563D01*
X100795221Y-102650144D01*
X100818500Y-102649000D01*
X101393500Y-102649000D01*
X101416779Y-102650144D01*
X101416779Y-102650144D01*
G37*
D14*
X101106000Y-103124000D03*
G04 #@! TD*
D10*
G04 #@! TO.C,R16*
G36*
X97846779Y-102650144D02*
X97869834Y-102653563D01*
X97892443Y-102659227D01*
X97914387Y-102667079D01*
X97935457Y-102677044D01*
X97955448Y-102689026D01*
X97974168Y-102702910D01*
X97991438Y-102718562D01*
X98007090Y-102735832D01*
X98020974Y-102754552D01*
X98032956Y-102774543D01*
X98042921Y-102795613D01*
X98050773Y-102817557D01*
X98056437Y-102840166D01*
X98059856Y-102863221D01*
X98061000Y-102886500D01*
X98061000Y-103361500D01*
X98059856Y-103384779D01*
X98056437Y-103407834D01*
X98050773Y-103430443D01*
X98042921Y-103452387D01*
X98032956Y-103473457D01*
X98020974Y-103493448D01*
X98007090Y-103512168D01*
X97991438Y-103529438D01*
X97974168Y-103545090D01*
X97955448Y-103558974D01*
X97935457Y-103570956D01*
X97914387Y-103580921D01*
X97892443Y-103588773D01*
X97869834Y-103594437D01*
X97846779Y-103597856D01*
X97823500Y-103599000D01*
X97248500Y-103599000D01*
X97225221Y-103597856D01*
X97202166Y-103594437D01*
X97179557Y-103588773D01*
X97157613Y-103580921D01*
X97136543Y-103570956D01*
X97116552Y-103558974D01*
X97097832Y-103545090D01*
X97080562Y-103529438D01*
X97064910Y-103512168D01*
X97051026Y-103493448D01*
X97039044Y-103473457D01*
X97029079Y-103452387D01*
X97021227Y-103430443D01*
X97015563Y-103407834D01*
X97012144Y-103384779D01*
X97011000Y-103361500D01*
X97011000Y-102886500D01*
X97012144Y-102863221D01*
X97015563Y-102840166D01*
X97021227Y-102817557D01*
X97029079Y-102795613D01*
X97039044Y-102774543D01*
X97051026Y-102754552D01*
X97064910Y-102735832D01*
X97080562Y-102718562D01*
X97097832Y-102702910D01*
X97116552Y-102689026D01*
X97136543Y-102677044D01*
X97157613Y-102667079D01*
X97179557Y-102659227D01*
X97202166Y-102653563D01*
X97225221Y-102650144D01*
X97248500Y-102649000D01*
X97823500Y-102649000D01*
X97846779Y-102650144D01*
X97846779Y-102650144D01*
G37*
D14*
X97536000Y-103124000D03*
D10*
G36*
X99596779Y-102650144D02*
X99619834Y-102653563D01*
X99642443Y-102659227D01*
X99664387Y-102667079D01*
X99685457Y-102677044D01*
X99705448Y-102689026D01*
X99724168Y-102702910D01*
X99741438Y-102718562D01*
X99757090Y-102735832D01*
X99770974Y-102754552D01*
X99782956Y-102774543D01*
X99792921Y-102795613D01*
X99800773Y-102817557D01*
X99806437Y-102840166D01*
X99809856Y-102863221D01*
X99811000Y-102886500D01*
X99811000Y-103361500D01*
X99809856Y-103384779D01*
X99806437Y-103407834D01*
X99800773Y-103430443D01*
X99792921Y-103452387D01*
X99782956Y-103473457D01*
X99770974Y-103493448D01*
X99757090Y-103512168D01*
X99741438Y-103529438D01*
X99724168Y-103545090D01*
X99705448Y-103558974D01*
X99685457Y-103570956D01*
X99664387Y-103580921D01*
X99642443Y-103588773D01*
X99619834Y-103594437D01*
X99596779Y-103597856D01*
X99573500Y-103599000D01*
X98998500Y-103599000D01*
X98975221Y-103597856D01*
X98952166Y-103594437D01*
X98929557Y-103588773D01*
X98907613Y-103580921D01*
X98886543Y-103570956D01*
X98866552Y-103558974D01*
X98847832Y-103545090D01*
X98830562Y-103529438D01*
X98814910Y-103512168D01*
X98801026Y-103493448D01*
X98789044Y-103473457D01*
X98779079Y-103452387D01*
X98771227Y-103430443D01*
X98765563Y-103407834D01*
X98762144Y-103384779D01*
X98761000Y-103361500D01*
X98761000Y-102886500D01*
X98762144Y-102863221D01*
X98765563Y-102840166D01*
X98771227Y-102817557D01*
X98779079Y-102795613D01*
X98789044Y-102774543D01*
X98801026Y-102754552D01*
X98814910Y-102735832D01*
X98830562Y-102718562D01*
X98847832Y-102702910D01*
X98866552Y-102689026D01*
X98886543Y-102677044D01*
X98907613Y-102667079D01*
X98929557Y-102659227D01*
X98952166Y-102653563D01*
X98975221Y-102650144D01*
X98998500Y-102649000D01*
X99573500Y-102649000D01*
X99596779Y-102650144D01*
X99596779Y-102650144D01*
G37*
D14*
X99286000Y-103124000D03*
G04 #@! TD*
D10*
G04 #@! TO.C,R17*
G36*
X120988779Y-102904144D02*
X121011834Y-102907563D01*
X121034443Y-102913227D01*
X121056387Y-102921079D01*
X121077457Y-102931044D01*
X121097448Y-102943026D01*
X121116168Y-102956910D01*
X121133438Y-102972562D01*
X121149090Y-102989832D01*
X121162974Y-103008552D01*
X121174956Y-103028543D01*
X121184921Y-103049613D01*
X121192773Y-103071557D01*
X121198437Y-103094166D01*
X121201856Y-103117221D01*
X121203000Y-103140500D01*
X121203000Y-103615500D01*
X121201856Y-103638779D01*
X121198437Y-103661834D01*
X121192773Y-103684443D01*
X121184921Y-103706387D01*
X121174956Y-103727457D01*
X121162974Y-103747448D01*
X121149090Y-103766168D01*
X121133438Y-103783438D01*
X121116168Y-103799090D01*
X121097448Y-103812974D01*
X121077457Y-103824956D01*
X121056387Y-103834921D01*
X121034443Y-103842773D01*
X121011834Y-103848437D01*
X120988779Y-103851856D01*
X120965500Y-103853000D01*
X120390500Y-103853000D01*
X120367221Y-103851856D01*
X120344166Y-103848437D01*
X120321557Y-103842773D01*
X120299613Y-103834921D01*
X120278543Y-103824956D01*
X120258552Y-103812974D01*
X120239832Y-103799090D01*
X120222562Y-103783438D01*
X120206910Y-103766168D01*
X120193026Y-103747448D01*
X120181044Y-103727457D01*
X120171079Y-103706387D01*
X120163227Y-103684443D01*
X120157563Y-103661834D01*
X120154144Y-103638779D01*
X120153000Y-103615500D01*
X120153000Y-103140500D01*
X120154144Y-103117221D01*
X120157563Y-103094166D01*
X120163227Y-103071557D01*
X120171079Y-103049613D01*
X120181044Y-103028543D01*
X120193026Y-103008552D01*
X120206910Y-102989832D01*
X120222562Y-102972562D01*
X120239832Y-102956910D01*
X120258552Y-102943026D01*
X120278543Y-102931044D01*
X120299613Y-102921079D01*
X120321557Y-102913227D01*
X120344166Y-102907563D01*
X120367221Y-102904144D01*
X120390500Y-102903000D01*
X120965500Y-102903000D01*
X120988779Y-102904144D01*
X120988779Y-102904144D01*
G37*
D14*
X120678000Y-103378000D03*
D10*
G36*
X122738779Y-102904144D02*
X122761834Y-102907563D01*
X122784443Y-102913227D01*
X122806387Y-102921079D01*
X122827457Y-102931044D01*
X122847448Y-102943026D01*
X122866168Y-102956910D01*
X122883438Y-102972562D01*
X122899090Y-102989832D01*
X122912974Y-103008552D01*
X122924956Y-103028543D01*
X122934921Y-103049613D01*
X122942773Y-103071557D01*
X122948437Y-103094166D01*
X122951856Y-103117221D01*
X122953000Y-103140500D01*
X122953000Y-103615500D01*
X122951856Y-103638779D01*
X122948437Y-103661834D01*
X122942773Y-103684443D01*
X122934921Y-103706387D01*
X122924956Y-103727457D01*
X122912974Y-103747448D01*
X122899090Y-103766168D01*
X122883438Y-103783438D01*
X122866168Y-103799090D01*
X122847448Y-103812974D01*
X122827457Y-103824956D01*
X122806387Y-103834921D01*
X122784443Y-103842773D01*
X122761834Y-103848437D01*
X122738779Y-103851856D01*
X122715500Y-103853000D01*
X122140500Y-103853000D01*
X122117221Y-103851856D01*
X122094166Y-103848437D01*
X122071557Y-103842773D01*
X122049613Y-103834921D01*
X122028543Y-103824956D01*
X122008552Y-103812974D01*
X121989832Y-103799090D01*
X121972562Y-103783438D01*
X121956910Y-103766168D01*
X121943026Y-103747448D01*
X121931044Y-103727457D01*
X121921079Y-103706387D01*
X121913227Y-103684443D01*
X121907563Y-103661834D01*
X121904144Y-103638779D01*
X121903000Y-103615500D01*
X121903000Y-103140500D01*
X121904144Y-103117221D01*
X121907563Y-103094166D01*
X121913227Y-103071557D01*
X121921079Y-103049613D01*
X121931044Y-103028543D01*
X121943026Y-103008552D01*
X121956910Y-102989832D01*
X121972562Y-102972562D01*
X121989832Y-102956910D01*
X122008552Y-102943026D01*
X122028543Y-102931044D01*
X122049613Y-102921079D01*
X122071557Y-102913227D01*
X122094166Y-102907563D01*
X122117221Y-102904144D01*
X122140500Y-102903000D01*
X122715500Y-102903000D01*
X122738779Y-102904144D01*
X122738779Y-102904144D01*
G37*
D14*
X122428000Y-103378000D03*
G04 #@! TD*
D10*
G04 #@! TO.C,R18*
G36*
X119168779Y-102904144D02*
X119191834Y-102907563D01*
X119214443Y-102913227D01*
X119236387Y-102921079D01*
X119257457Y-102931044D01*
X119277448Y-102943026D01*
X119296168Y-102956910D01*
X119313438Y-102972562D01*
X119329090Y-102989832D01*
X119342974Y-103008552D01*
X119354956Y-103028543D01*
X119364921Y-103049613D01*
X119372773Y-103071557D01*
X119378437Y-103094166D01*
X119381856Y-103117221D01*
X119383000Y-103140500D01*
X119383000Y-103615500D01*
X119381856Y-103638779D01*
X119378437Y-103661834D01*
X119372773Y-103684443D01*
X119364921Y-103706387D01*
X119354956Y-103727457D01*
X119342974Y-103747448D01*
X119329090Y-103766168D01*
X119313438Y-103783438D01*
X119296168Y-103799090D01*
X119277448Y-103812974D01*
X119257457Y-103824956D01*
X119236387Y-103834921D01*
X119214443Y-103842773D01*
X119191834Y-103848437D01*
X119168779Y-103851856D01*
X119145500Y-103853000D01*
X118570500Y-103853000D01*
X118547221Y-103851856D01*
X118524166Y-103848437D01*
X118501557Y-103842773D01*
X118479613Y-103834921D01*
X118458543Y-103824956D01*
X118438552Y-103812974D01*
X118419832Y-103799090D01*
X118402562Y-103783438D01*
X118386910Y-103766168D01*
X118373026Y-103747448D01*
X118361044Y-103727457D01*
X118351079Y-103706387D01*
X118343227Y-103684443D01*
X118337563Y-103661834D01*
X118334144Y-103638779D01*
X118333000Y-103615500D01*
X118333000Y-103140500D01*
X118334144Y-103117221D01*
X118337563Y-103094166D01*
X118343227Y-103071557D01*
X118351079Y-103049613D01*
X118361044Y-103028543D01*
X118373026Y-103008552D01*
X118386910Y-102989832D01*
X118402562Y-102972562D01*
X118419832Y-102956910D01*
X118438552Y-102943026D01*
X118458543Y-102931044D01*
X118479613Y-102921079D01*
X118501557Y-102913227D01*
X118524166Y-102907563D01*
X118547221Y-102904144D01*
X118570500Y-102903000D01*
X119145500Y-102903000D01*
X119168779Y-102904144D01*
X119168779Y-102904144D01*
G37*
D14*
X118858000Y-103378000D03*
D10*
G36*
X117418779Y-102904144D02*
X117441834Y-102907563D01*
X117464443Y-102913227D01*
X117486387Y-102921079D01*
X117507457Y-102931044D01*
X117527448Y-102943026D01*
X117546168Y-102956910D01*
X117563438Y-102972562D01*
X117579090Y-102989832D01*
X117592974Y-103008552D01*
X117604956Y-103028543D01*
X117614921Y-103049613D01*
X117622773Y-103071557D01*
X117628437Y-103094166D01*
X117631856Y-103117221D01*
X117633000Y-103140500D01*
X117633000Y-103615500D01*
X117631856Y-103638779D01*
X117628437Y-103661834D01*
X117622773Y-103684443D01*
X117614921Y-103706387D01*
X117604956Y-103727457D01*
X117592974Y-103747448D01*
X117579090Y-103766168D01*
X117563438Y-103783438D01*
X117546168Y-103799090D01*
X117527448Y-103812974D01*
X117507457Y-103824956D01*
X117486387Y-103834921D01*
X117464443Y-103842773D01*
X117441834Y-103848437D01*
X117418779Y-103851856D01*
X117395500Y-103853000D01*
X116820500Y-103853000D01*
X116797221Y-103851856D01*
X116774166Y-103848437D01*
X116751557Y-103842773D01*
X116729613Y-103834921D01*
X116708543Y-103824956D01*
X116688552Y-103812974D01*
X116669832Y-103799090D01*
X116652562Y-103783438D01*
X116636910Y-103766168D01*
X116623026Y-103747448D01*
X116611044Y-103727457D01*
X116601079Y-103706387D01*
X116593227Y-103684443D01*
X116587563Y-103661834D01*
X116584144Y-103638779D01*
X116583000Y-103615500D01*
X116583000Y-103140500D01*
X116584144Y-103117221D01*
X116587563Y-103094166D01*
X116593227Y-103071557D01*
X116601079Y-103049613D01*
X116611044Y-103028543D01*
X116623026Y-103008552D01*
X116636910Y-102989832D01*
X116652562Y-102972562D01*
X116669832Y-102956910D01*
X116688552Y-102943026D01*
X116708543Y-102931044D01*
X116729613Y-102921079D01*
X116751557Y-102913227D01*
X116774166Y-102907563D01*
X116797221Y-102904144D01*
X116820500Y-102903000D01*
X117395500Y-102903000D01*
X117418779Y-102904144D01*
X117418779Y-102904144D01*
G37*
D14*
X117108000Y-103378000D03*
G04 #@! TD*
D15*
G04 #@! TO.C,U2*
X141453000Y-86487000D03*
D16*
X135153000Y-86487000D03*
X135153000Y-84187000D03*
X135153000Y-88787000D03*
G04 #@! TD*
D10*
G04 #@! TO.C,C19*
G36*
X118459505Y-83756204D02*
X118483773Y-83759804D01*
X118507572Y-83765765D01*
X118530671Y-83774030D01*
X118552850Y-83784520D01*
X118573893Y-83797132D01*
X118593599Y-83811747D01*
X118611777Y-83828223D01*
X118628253Y-83846401D01*
X118642868Y-83866107D01*
X118655480Y-83887150D01*
X118665970Y-83909329D01*
X118674235Y-83932428D01*
X118680196Y-83956227D01*
X118683796Y-83980495D01*
X118685000Y-84004999D01*
X118685000Y-84905001D01*
X118683796Y-84929505D01*
X118680196Y-84953773D01*
X118674235Y-84977572D01*
X118665970Y-85000671D01*
X118655480Y-85022850D01*
X118642868Y-85043893D01*
X118628253Y-85063599D01*
X118611777Y-85081777D01*
X118593599Y-85098253D01*
X118573893Y-85112868D01*
X118552850Y-85125480D01*
X118530671Y-85135970D01*
X118507572Y-85144235D01*
X118483773Y-85150196D01*
X118459505Y-85153796D01*
X118435001Y-85155000D01*
X117784999Y-85155000D01*
X117760495Y-85153796D01*
X117736227Y-85150196D01*
X117712428Y-85144235D01*
X117689329Y-85135970D01*
X117667150Y-85125480D01*
X117646107Y-85112868D01*
X117626401Y-85098253D01*
X117608223Y-85081777D01*
X117591747Y-85063599D01*
X117577132Y-85043893D01*
X117564520Y-85022850D01*
X117554030Y-85000671D01*
X117545765Y-84977572D01*
X117539804Y-84953773D01*
X117536204Y-84929505D01*
X117535000Y-84905001D01*
X117535000Y-84004999D01*
X117536204Y-83980495D01*
X117539804Y-83956227D01*
X117545765Y-83932428D01*
X117554030Y-83909329D01*
X117564520Y-83887150D01*
X117577132Y-83866107D01*
X117591747Y-83846401D01*
X117608223Y-83828223D01*
X117626401Y-83811747D01*
X117646107Y-83797132D01*
X117667150Y-83784520D01*
X117689329Y-83774030D01*
X117712428Y-83765765D01*
X117736227Y-83759804D01*
X117760495Y-83756204D01*
X117784999Y-83755000D01*
X118435001Y-83755000D01*
X118459505Y-83756204D01*
X118459505Y-83756204D01*
G37*
D17*
X118110000Y-84455000D03*
D10*
G36*
X120509505Y-83756204D02*
X120533773Y-83759804D01*
X120557572Y-83765765D01*
X120580671Y-83774030D01*
X120602850Y-83784520D01*
X120623893Y-83797132D01*
X120643599Y-83811747D01*
X120661777Y-83828223D01*
X120678253Y-83846401D01*
X120692868Y-83866107D01*
X120705480Y-83887150D01*
X120715970Y-83909329D01*
X120724235Y-83932428D01*
X120730196Y-83956227D01*
X120733796Y-83980495D01*
X120735000Y-84004999D01*
X120735000Y-84905001D01*
X120733796Y-84929505D01*
X120730196Y-84953773D01*
X120724235Y-84977572D01*
X120715970Y-85000671D01*
X120705480Y-85022850D01*
X120692868Y-85043893D01*
X120678253Y-85063599D01*
X120661777Y-85081777D01*
X120643599Y-85098253D01*
X120623893Y-85112868D01*
X120602850Y-85125480D01*
X120580671Y-85135970D01*
X120557572Y-85144235D01*
X120533773Y-85150196D01*
X120509505Y-85153796D01*
X120485001Y-85155000D01*
X119834999Y-85155000D01*
X119810495Y-85153796D01*
X119786227Y-85150196D01*
X119762428Y-85144235D01*
X119739329Y-85135970D01*
X119717150Y-85125480D01*
X119696107Y-85112868D01*
X119676401Y-85098253D01*
X119658223Y-85081777D01*
X119641747Y-85063599D01*
X119627132Y-85043893D01*
X119614520Y-85022850D01*
X119604030Y-85000671D01*
X119595765Y-84977572D01*
X119589804Y-84953773D01*
X119586204Y-84929505D01*
X119585000Y-84905001D01*
X119585000Y-84004999D01*
X119586204Y-83980495D01*
X119589804Y-83956227D01*
X119595765Y-83932428D01*
X119604030Y-83909329D01*
X119614520Y-83887150D01*
X119627132Y-83866107D01*
X119641747Y-83846401D01*
X119658223Y-83828223D01*
X119676401Y-83811747D01*
X119696107Y-83797132D01*
X119717150Y-83784520D01*
X119739329Y-83774030D01*
X119762428Y-83765765D01*
X119786227Y-83759804D01*
X119810495Y-83756204D01*
X119834999Y-83755000D01*
X120485001Y-83755000D01*
X120509505Y-83756204D01*
X120509505Y-83756204D01*
G37*
D17*
X120160000Y-84455000D03*
G04 #@! TD*
D10*
G04 #@! TO.C,C25*
G36*
X112980505Y-68389204D02*
X113004773Y-68392804D01*
X113028572Y-68398765D01*
X113051671Y-68407030D01*
X113073850Y-68417520D01*
X113094893Y-68430132D01*
X113114599Y-68444747D01*
X113132777Y-68461223D01*
X113149253Y-68479401D01*
X113163868Y-68499107D01*
X113176480Y-68520150D01*
X113186970Y-68542329D01*
X113195235Y-68565428D01*
X113201196Y-68589227D01*
X113204796Y-68613495D01*
X113206000Y-68637999D01*
X113206000Y-69538001D01*
X113204796Y-69562505D01*
X113201196Y-69586773D01*
X113195235Y-69610572D01*
X113186970Y-69633671D01*
X113176480Y-69655850D01*
X113163868Y-69676893D01*
X113149253Y-69696599D01*
X113132777Y-69714777D01*
X113114599Y-69731253D01*
X113094893Y-69745868D01*
X113073850Y-69758480D01*
X113051671Y-69768970D01*
X113028572Y-69777235D01*
X113004773Y-69783196D01*
X112980505Y-69786796D01*
X112956001Y-69788000D01*
X112305999Y-69788000D01*
X112281495Y-69786796D01*
X112257227Y-69783196D01*
X112233428Y-69777235D01*
X112210329Y-69768970D01*
X112188150Y-69758480D01*
X112167107Y-69745868D01*
X112147401Y-69731253D01*
X112129223Y-69714777D01*
X112112747Y-69696599D01*
X112098132Y-69676893D01*
X112085520Y-69655850D01*
X112075030Y-69633671D01*
X112066765Y-69610572D01*
X112060804Y-69586773D01*
X112057204Y-69562505D01*
X112056000Y-69538001D01*
X112056000Y-68637999D01*
X112057204Y-68613495D01*
X112060804Y-68589227D01*
X112066765Y-68565428D01*
X112075030Y-68542329D01*
X112085520Y-68520150D01*
X112098132Y-68499107D01*
X112112747Y-68479401D01*
X112129223Y-68461223D01*
X112147401Y-68444747D01*
X112167107Y-68430132D01*
X112188150Y-68417520D01*
X112210329Y-68407030D01*
X112233428Y-68398765D01*
X112257227Y-68392804D01*
X112281495Y-68389204D01*
X112305999Y-68388000D01*
X112956001Y-68388000D01*
X112980505Y-68389204D01*
X112980505Y-68389204D01*
G37*
D17*
X112631000Y-69088000D03*
D10*
G36*
X115030505Y-68389204D02*
X115054773Y-68392804D01*
X115078572Y-68398765D01*
X115101671Y-68407030D01*
X115123850Y-68417520D01*
X115144893Y-68430132D01*
X115164599Y-68444747D01*
X115182777Y-68461223D01*
X115199253Y-68479401D01*
X115213868Y-68499107D01*
X115226480Y-68520150D01*
X115236970Y-68542329D01*
X115245235Y-68565428D01*
X115251196Y-68589227D01*
X115254796Y-68613495D01*
X115256000Y-68637999D01*
X115256000Y-69538001D01*
X115254796Y-69562505D01*
X115251196Y-69586773D01*
X115245235Y-69610572D01*
X115236970Y-69633671D01*
X115226480Y-69655850D01*
X115213868Y-69676893D01*
X115199253Y-69696599D01*
X115182777Y-69714777D01*
X115164599Y-69731253D01*
X115144893Y-69745868D01*
X115123850Y-69758480D01*
X115101671Y-69768970D01*
X115078572Y-69777235D01*
X115054773Y-69783196D01*
X115030505Y-69786796D01*
X115006001Y-69788000D01*
X114355999Y-69788000D01*
X114331495Y-69786796D01*
X114307227Y-69783196D01*
X114283428Y-69777235D01*
X114260329Y-69768970D01*
X114238150Y-69758480D01*
X114217107Y-69745868D01*
X114197401Y-69731253D01*
X114179223Y-69714777D01*
X114162747Y-69696599D01*
X114148132Y-69676893D01*
X114135520Y-69655850D01*
X114125030Y-69633671D01*
X114116765Y-69610572D01*
X114110804Y-69586773D01*
X114107204Y-69562505D01*
X114106000Y-69538001D01*
X114106000Y-68637999D01*
X114107204Y-68613495D01*
X114110804Y-68589227D01*
X114116765Y-68565428D01*
X114125030Y-68542329D01*
X114135520Y-68520150D01*
X114148132Y-68499107D01*
X114162747Y-68479401D01*
X114179223Y-68461223D01*
X114197401Y-68444747D01*
X114217107Y-68430132D01*
X114238150Y-68417520D01*
X114260329Y-68407030D01*
X114283428Y-68398765D01*
X114307227Y-68392804D01*
X114331495Y-68389204D01*
X114355999Y-68388000D01*
X115006001Y-68388000D01*
X115030505Y-68389204D01*
X115030505Y-68389204D01*
G37*
D17*
X114681000Y-69088000D03*
G04 #@! TD*
D10*
G04 #@! TO.C,C23*
G36*
X125208505Y-82232204D02*
X125232773Y-82235804D01*
X125256572Y-82241765D01*
X125279671Y-82250030D01*
X125301850Y-82260520D01*
X125322893Y-82273132D01*
X125342599Y-82287747D01*
X125360777Y-82304223D01*
X125377253Y-82322401D01*
X125391868Y-82342107D01*
X125404480Y-82363150D01*
X125414970Y-82385329D01*
X125423235Y-82408428D01*
X125429196Y-82432227D01*
X125432796Y-82456495D01*
X125434000Y-82480999D01*
X125434000Y-83381001D01*
X125432796Y-83405505D01*
X125429196Y-83429773D01*
X125423235Y-83453572D01*
X125414970Y-83476671D01*
X125404480Y-83498850D01*
X125391868Y-83519893D01*
X125377253Y-83539599D01*
X125360777Y-83557777D01*
X125342599Y-83574253D01*
X125322893Y-83588868D01*
X125301850Y-83601480D01*
X125279671Y-83611970D01*
X125256572Y-83620235D01*
X125232773Y-83626196D01*
X125208505Y-83629796D01*
X125184001Y-83631000D01*
X124533999Y-83631000D01*
X124509495Y-83629796D01*
X124485227Y-83626196D01*
X124461428Y-83620235D01*
X124438329Y-83611970D01*
X124416150Y-83601480D01*
X124395107Y-83588868D01*
X124375401Y-83574253D01*
X124357223Y-83557777D01*
X124340747Y-83539599D01*
X124326132Y-83519893D01*
X124313520Y-83498850D01*
X124303030Y-83476671D01*
X124294765Y-83453572D01*
X124288804Y-83429773D01*
X124285204Y-83405505D01*
X124284000Y-83381001D01*
X124284000Y-82480999D01*
X124285204Y-82456495D01*
X124288804Y-82432227D01*
X124294765Y-82408428D01*
X124303030Y-82385329D01*
X124313520Y-82363150D01*
X124326132Y-82342107D01*
X124340747Y-82322401D01*
X124357223Y-82304223D01*
X124375401Y-82287747D01*
X124395107Y-82273132D01*
X124416150Y-82260520D01*
X124438329Y-82250030D01*
X124461428Y-82241765D01*
X124485227Y-82235804D01*
X124509495Y-82232204D01*
X124533999Y-82231000D01*
X125184001Y-82231000D01*
X125208505Y-82232204D01*
X125208505Y-82232204D01*
G37*
D17*
X124859000Y-82931000D03*
D10*
G36*
X123158505Y-82232204D02*
X123182773Y-82235804D01*
X123206572Y-82241765D01*
X123229671Y-82250030D01*
X123251850Y-82260520D01*
X123272893Y-82273132D01*
X123292599Y-82287747D01*
X123310777Y-82304223D01*
X123327253Y-82322401D01*
X123341868Y-82342107D01*
X123354480Y-82363150D01*
X123364970Y-82385329D01*
X123373235Y-82408428D01*
X123379196Y-82432227D01*
X123382796Y-82456495D01*
X123384000Y-82480999D01*
X123384000Y-83381001D01*
X123382796Y-83405505D01*
X123379196Y-83429773D01*
X123373235Y-83453572D01*
X123364970Y-83476671D01*
X123354480Y-83498850D01*
X123341868Y-83519893D01*
X123327253Y-83539599D01*
X123310777Y-83557777D01*
X123292599Y-83574253D01*
X123272893Y-83588868D01*
X123251850Y-83601480D01*
X123229671Y-83611970D01*
X123206572Y-83620235D01*
X123182773Y-83626196D01*
X123158505Y-83629796D01*
X123134001Y-83631000D01*
X122483999Y-83631000D01*
X122459495Y-83629796D01*
X122435227Y-83626196D01*
X122411428Y-83620235D01*
X122388329Y-83611970D01*
X122366150Y-83601480D01*
X122345107Y-83588868D01*
X122325401Y-83574253D01*
X122307223Y-83557777D01*
X122290747Y-83539599D01*
X122276132Y-83519893D01*
X122263520Y-83498850D01*
X122253030Y-83476671D01*
X122244765Y-83453572D01*
X122238804Y-83429773D01*
X122235204Y-83405505D01*
X122234000Y-83381001D01*
X122234000Y-82480999D01*
X122235204Y-82456495D01*
X122238804Y-82432227D01*
X122244765Y-82408428D01*
X122253030Y-82385329D01*
X122263520Y-82363150D01*
X122276132Y-82342107D01*
X122290747Y-82322401D01*
X122307223Y-82304223D01*
X122325401Y-82287747D01*
X122345107Y-82273132D01*
X122366150Y-82260520D01*
X122388329Y-82250030D01*
X122411428Y-82241765D01*
X122435227Y-82235804D01*
X122459495Y-82232204D01*
X122483999Y-82231000D01*
X123134001Y-82231000D01*
X123158505Y-82232204D01*
X123158505Y-82232204D01*
G37*
D17*
X122809000Y-82931000D03*
G04 #@! TD*
D10*
G04 #@! TO.C,C26*
G36*
X118646779Y-69122144D02*
X118669834Y-69125563D01*
X118692443Y-69131227D01*
X118714387Y-69139079D01*
X118735457Y-69149044D01*
X118755448Y-69161026D01*
X118774168Y-69174910D01*
X118791438Y-69190562D01*
X118807090Y-69207832D01*
X118820974Y-69226552D01*
X118832956Y-69246543D01*
X118842921Y-69267613D01*
X118850773Y-69289557D01*
X118856437Y-69312166D01*
X118859856Y-69335221D01*
X118861000Y-69358500D01*
X118861000Y-69833500D01*
X118859856Y-69856779D01*
X118856437Y-69879834D01*
X118850773Y-69902443D01*
X118842921Y-69924387D01*
X118832956Y-69945457D01*
X118820974Y-69965448D01*
X118807090Y-69984168D01*
X118791438Y-70001438D01*
X118774168Y-70017090D01*
X118755448Y-70030974D01*
X118735457Y-70042956D01*
X118714387Y-70052921D01*
X118692443Y-70060773D01*
X118669834Y-70066437D01*
X118646779Y-70069856D01*
X118623500Y-70071000D01*
X118048500Y-70071000D01*
X118025221Y-70069856D01*
X118002166Y-70066437D01*
X117979557Y-70060773D01*
X117957613Y-70052921D01*
X117936543Y-70042956D01*
X117916552Y-70030974D01*
X117897832Y-70017090D01*
X117880562Y-70001438D01*
X117864910Y-69984168D01*
X117851026Y-69965448D01*
X117839044Y-69945457D01*
X117829079Y-69924387D01*
X117821227Y-69902443D01*
X117815563Y-69879834D01*
X117812144Y-69856779D01*
X117811000Y-69833500D01*
X117811000Y-69358500D01*
X117812144Y-69335221D01*
X117815563Y-69312166D01*
X117821227Y-69289557D01*
X117829079Y-69267613D01*
X117839044Y-69246543D01*
X117851026Y-69226552D01*
X117864910Y-69207832D01*
X117880562Y-69190562D01*
X117897832Y-69174910D01*
X117916552Y-69161026D01*
X117936543Y-69149044D01*
X117957613Y-69139079D01*
X117979557Y-69131227D01*
X118002166Y-69125563D01*
X118025221Y-69122144D01*
X118048500Y-69121000D01*
X118623500Y-69121000D01*
X118646779Y-69122144D01*
X118646779Y-69122144D01*
G37*
D14*
X118336000Y-69596000D03*
D10*
G36*
X116896779Y-69122144D02*
X116919834Y-69125563D01*
X116942443Y-69131227D01*
X116964387Y-69139079D01*
X116985457Y-69149044D01*
X117005448Y-69161026D01*
X117024168Y-69174910D01*
X117041438Y-69190562D01*
X117057090Y-69207832D01*
X117070974Y-69226552D01*
X117082956Y-69246543D01*
X117092921Y-69267613D01*
X117100773Y-69289557D01*
X117106437Y-69312166D01*
X117109856Y-69335221D01*
X117111000Y-69358500D01*
X117111000Y-69833500D01*
X117109856Y-69856779D01*
X117106437Y-69879834D01*
X117100773Y-69902443D01*
X117092921Y-69924387D01*
X117082956Y-69945457D01*
X117070974Y-69965448D01*
X117057090Y-69984168D01*
X117041438Y-70001438D01*
X117024168Y-70017090D01*
X117005448Y-70030974D01*
X116985457Y-70042956D01*
X116964387Y-70052921D01*
X116942443Y-70060773D01*
X116919834Y-70066437D01*
X116896779Y-70069856D01*
X116873500Y-70071000D01*
X116298500Y-70071000D01*
X116275221Y-70069856D01*
X116252166Y-70066437D01*
X116229557Y-70060773D01*
X116207613Y-70052921D01*
X116186543Y-70042956D01*
X116166552Y-70030974D01*
X116147832Y-70017090D01*
X116130562Y-70001438D01*
X116114910Y-69984168D01*
X116101026Y-69965448D01*
X116089044Y-69945457D01*
X116079079Y-69924387D01*
X116071227Y-69902443D01*
X116065563Y-69879834D01*
X116062144Y-69856779D01*
X116061000Y-69833500D01*
X116061000Y-69358500D01*
X116062144Y-69335221D01*
X116065563Y-69312166D01*
X116071227Y-69289557D01*
X116079079Y-69267613D01*
X116089044Y-69246543D01*
X116101026Y-69226552D01*
X116114910Y-69207832D01*
X116130562Y-69190562D01*
X116147832Y-69174910D01*
X116166552Y-69161026D01*
X116186543Y-69149044D01*
X116207613Y-69139079D01*
X116229557Y-69131227D01*
X116252166Y-69125563D01*
X116275221Y-69122144D01*
X116298500Y-69121000D01*
X116873500Y-69121000D01*
X116896779Y-69122144D01*
X116896779Y-69122144D01*
G37*
D14*
X116586000Y-69596000D03*
G04 #@! TD*
D10*
G04 #@! TO.C,C29*
G36*
X122329779Y-69122144D02*
X122352834Y-69125563D01*
X122375443Y-69131227D01*
X122397387Y-69139079D01*
X122418457Y-69149044D01*
X122438448Y-69161026D01*
X122457168Y-69174910D01*
X122474438Y-69190562D01*
X122490090Y-69207832D01*
X122503974Y-69226552D01*
X122515956Y-69246543D01*
X122525921Y-69267613D01*
X122533773Y-69289557D01*
X122539437Y-69312166D01*
X122542856Y-69335221D01*
X122544000Y-69358500D01*
X122544000Y-69833500D01*
X122542856Y-69856779D01*
X122539437Y-69879834D01*
X122533773Y-69902443D01*
X122525921Y-69924387D01*
X122515956Y-69945457D01*
X122503974Y-69965448D01*
X122490090Y-69984168D01*
X122474438Y-70001438D01*
X122457168Y-70017090D01*
X122438448Y-70030974D01*
X122418457Y-70042956D01*
X122397387Y-70052921D01*
X122375443Y-70060773D01*
X122352834Y-70066437D01*
X122329779Y-70069856D01*
X122306500Y-70071000D01*
X121731500Y-70071000D01*
X121708221Y-70069856D01*
X121685166Y-70066437D01*
X121662557Y-70060773D01*
X121640613Y-70052921D01*
X121619543Y-70042956D01*
X121599552Y-70030974D01*
X121580832Y-70017090D01*
X121563562Y-70001438D01*
X121547910Y-69984168D01*
X121534026Y-69965448D01*
X121522044Y-69945457D01*
X121512079Y-69924387D01*
X121504227Y-69902443D01*
X121498563Y-69879834D01*
X121495144Y-69856779D01*
X121494000Y-69833500D01*
X121494000Y-69358500D01*
X121495144Y-69335221D01*
X121498563Y-69312166D01*
X121504227Y-69289557D01*
X121512079Y-69267613D01*
X121522044Y-69246543D01*
X121534026Y-69226552D01*
X121547910Y-69207832D01*
X121563562Y-69190562D01*
X121580832Y-69174910D01*
X121599552Y-69161026D01*
X121619543Y-69149044D01*
X121640613Y-69139079D01*
X121662557Y-69131227D01*
X121685166Y-69125563D01*
X121708221Y-69122144D01*
X121731500Y-69121000D01*
X122306500Y-69121000D01*
X122329779Y-69122144D01*
X122329779Y-69122144D01*
G37*
D14*
X122019000Y-69596000D03*
D10*
G36*
X120579779Y-69122144D02*
X120602834Y-69125563D01*
X120625443Y-69131227D01*
X120647387Y-69139079D01*
X120668457Y-69149044D01*
X120688448Y-69161026D01*
X120707168Y-69174910D01*
X120724438Y-69190562D01*
X120740090Y-69207832D01*
X120753974Y-69226552D01*
X120765956Y-69246543D01*
X120775921Y-69267613D01*
X120783773Y-69289557D01*
X120789437Y-69312166D01*
X120792856Y-69335221D01*
X120794000Y-69358500D01*
X120794000Y-69833500D01*
X120792856Y-69856779D01*
X120789437Y-69879834D01*
X120783773Y-69902443D01*
X120775921Y-69924387D01*
X120765956Y-69945457D01*
X120753974Y-69965448D01*
X120740090Y-69984168D01*
X120724438Y-70001438D01*
X120707168Y-70017090D01*
X120688448Y-70030974D01*
X120668457Y-70042956D01*
X120647387Y-70052921D01*
X120625443Y-70060773D01*
X120602834Y-70066437D01*
X120579779Y-70069856D01*
X120556500Y-70071000D01*
X119981500Y-70071000D01*
X119958221Y-70069856D01*
X119935166Y-70066437D01*
X119912557Y-70060773D01*
X119890613Y-70052921D01*
X119869543Y-70042956D01*
X119849552Y-70030974D01*
X119830832Y-70017090D01*
X119813562Y-70001438D01*
X119797910Y-69984168D01*
X119784026Y-69965448D01*
X119772044Y-69945457D01*
X119762079Y-69924387D01*
X119754227Y-69902443D01*
X119748563Y-69879834D01*
X119745144Y-69856779D01*
X119744000Y-69833500D01*
X119744000Y-69358500D01*
X119745144Y-69335221D01*
X119748563Y-69312166D01*
X119754227Y-69289557D01*
X119762079Y-69267613D01*
X119772044Y-69246543D01*
X119784026Y-69226552D01*
X119797910Y-69207832D01*
X119813562Y-69190562D01*
X119830832Y-69174910D01*
X119849552Y-69161026D01*
X119869543Y-69149044D01*
X119890613Y-69139079D01*
X119912557Y-69131227D01*
X119935166Y-69125563D01*
X119958221Y-69122144D01*
X119981500Y-69121000D01*
X120556500Y-69121000D01*
X120579779Y-69122144D01*
X120579779Y-69122144D01*
G37*
D14*
X120269000Y-69596000D03*
G04 #@! TD*
D10*
G04 #@! TO.C,C37*
G36*
X133229779Y-83677144D02*
X133252834Y-83680563D01*
X133275443Y-83686227D01*
X133297387Y-83694079D01*
X133318457Y-83704044D01*
X133338448Y-83716026D01*
X133357168Y-83729910D01*
X133374438Y-83745562D01*
X133390090Y-83762832D01*
X133403974Y-83781552D01*
X133415956Y-83801543D01*
X133425921Y-83822613D01*
X133433773Y-83844557D01*
X133439437Y-83867166D01*
X133442856Y-83890221D01*
X133444000Y-83913500D01*
X133444000Y-84488500D01*
X133442856Y-84511779D01*
X133439437Y-84534834D01*
X133433773Y-84557443D01*
X133425921Y-84579387D01*
X133415956Y-84600457D01*
X133403974Y-84620448D01*
X133390090Y-84639168D01*
X133374438Y-84656438D01*
X133357168Y-84672090D01*
X133338448Y-84685974D01*
X133318457Y-84697956D01*
X133297387Y-84707921D01*
X133275443Y-84715773D01*
X133252834Y-84721437D01*
X133229779Y-84724856D01*
X133206500Y-84726000D01*
X132731500Y-84726000D01*
X132708221Y-84724856D01*
X132685166Y-84721437D01*
X132662557Y-84715773D01*
X132640613Y-84707921D01*
X132619543Y-84697956D01*
X132599552Y-84685974D01*
X132580832Y-84672090D01*
X132563562Y-84656438D01*
X132547910Y-84639168D01*
X132534026Y-84620448D01*
X132522044Y-84600457D01*
X132512079Y-84579387D01*
X132504227Y-84557443D01*
X132498563Y-84534834D01*
X132495144Y-84511779D01*
X132494000Y-84488500D01*
X132494000Y-83913500D01*
X132495144Y-83890221D01*
X132498563Y-83867166D01*
X132504227Y-83844557D01*
X132512079Y-83822613D01*
X132522044Y-83801543D01*
X132534026Y-83781552D01*
X132547910Y-83762832D01*
X132563562Y-83745562D01*
X132580832Y-83729910D01*
X132599552Y-83716026D01*
X132619543Y-83704044D01*
X132640613Y-83694079D01*
X132662557Y-83686227D01*
X132685166Y-83680563D01*
X132708221Y-83677144D01*
X132731500Y-83676000D01*
X133206500Y-83676000D01*
X133229779Y-83677144D01*
X133229779Y-83677144D01*
G37*
D14*
X132969000Y-84201000D03*
D10*
G36*
X133229779Y-81927144D02*
X133252834Y-81930563D01*
X133275443Y-81936227D01*
X133297387Y-81944079D01*
X133318457Y-81954044D01*
X133338448Y-81966026D01*
X133357168Y-81979910D01*
X133374438Y-81995562D01*
X133390090Y-82012832D01*
X133403974Y-82031552D01*
X133415956Y-82051543D01*
X133425921Y-82072613D01*
X133433773Y-82094557D01*
X133439437Y-82117166D01*
X133442856Y-82140221D01*
X133444000Y-82163500D01*
X133444000Y-82738500D01*
X133442856Y-82761779D01*
X133439437Y-82784834D01*
X133433773Y-82807443D01*
X133425921Y-82829387D01*
X133415956Y-82850457D01*
X133403974Y-82870448D01*
X133390090Y-82889168D01*
X133374438Y-82906438D01*
X133357168Y-82922090D01*
X133338448Y-82935974D01*
X133318457Y-82947956D01*
X133297387Y-82957921D01*
X133275443Y-82965773D01*
X133252834Y-82971437D01*
X133229779Y-82974856D01*
X133206500Y-82976000D01*
X132731500Y-82976000D01*
X132708221Y-82974856D01*
X132685166Y-82971437D01*
X132662557Y-82965773D01*
X132640613Y-82957921D01*
X132619543Y-82947956D01*
X132599552Y-82935974D01*
X132580832Y-82922090D01*
X132563562Y-82906438D01*
X132547910Y-82889168D01*
X132534026Y-82870448D01*
X132522044Y-82850457D01*
X132512079Y-82829387D01*
X132504227Y-82807443D01*
X132498563Y-82784834D01*
X132495144Y-82761779D01*
X132494000Y-82738500D01*
X132494000Y-82163500D01*
X132495144Y-82140221D01*
X132498563Y-82117166D01*
X132504227Y-82094557D01*
X132512079Y-82072613D01*
X132522044Y-82051543D01*
X132534026Y-82031552D01*
X132547910Y-82012832D01*
X132563562Y-81995562D01*
X132580832Y-81979910D01*
X132599552Y-81966026D01*
X132619543Y-81954044D01*
X132640613Y-81944079D01*
X132662557Y-81936227D01*
X132685166Y-81930563D01*
X132708221Y-81927144D01*
X132731500Y-81926000D01*
X133206500Y-81926000D01*
X133229779Y-81927144D01*
X133229779Y-81927144D01*
G37*
D14*
X132969000Y-82451000D03*
G04 #@! TD*
D10*
G04 #@! TO.C,C38*
G36*
X133164505Y-85746704D02*
X133188773Y-85750304D01*
X133212572Y-85756265D01*
X133235671Y-85764530D01*
X133257850Y-85775020D01*
X133278893Y-85787632D01*
X133298599Y-85802247D01*
X133316777Y-85818723D01*
X133333253Y-85836901D01*
X133347868Y-85856607D01*
X133360480Y-85877650D01*
X133370970Y-85899829D01*
X133379235Y-85922928D01*
X133385196Y-85946727D01*
X133388796Y-85970995D01*
X133390000Y-85995499D01*
X133390000Y-87070501D01*
X133388796Y-87095005D01*
X133385196Y-87119273D01*
X133379235Y-87143072D01*
X133370970Y-87166171D01*
X133360480Y-87188350D01*
X133347868Y-87209393D01*
X133333253Y-87229099D01*
X133316777Y-87247277D01*
X133298599Y-87263753D01*
X133278893Y-87278368D01*
X133257850Y-87290980D01*
X133235671Y-87301470D01*
X133212572Y-87309735D01*
X133188773Y-87315696D01*
X133164505Y-87319296D01*
X133140001Y-87320500D01*
X132289999Y-87320500D01*
X132265495Y-87319296D01*
X132241227Y-87315696D01*
X132217428Y-87309735D01*
X132194329Y-87301470D01*
X132172150Y-87290980D01*
X132151107Y-87278368D01*
X132131401Y-87263753D01*
X132113223Y-87247277D01*
X132096747Y-87229099D01*
X132082132Y-87209393D01*
X132069520Y-87188350D01*
X132059030Y-87166171D01*
X132050765Y-87143072D01*
X132044804Y-87119273D01*
X132041204Y-87095005D01*
X132040000Y-87070501D01*
X132040000Y-85995499D01*
X132041204Y-85970995D01*
X132044804Y-85946727D01*
X132050765Y-85922928D01*
X132059030Y-85899829D01*
X132069520Y-85877650D01*
X132082132Y-85856607D01*
X132096747Y-85836901D01*
X132113223Y-85818723D01*
X132131401Y-85802247D01*
X132151107Y-85787632D01*
X132172150Y-85775020D01*
X132194329Y-85764530D01*
X132217428Y-85756265D01*
X132241227Y-85750304D01*
X132265495Y-85746704D01*
X132289999Y-85745500D01*
X133140001Y-85745500D01*
X133164505Y-85746704D01*
X133164505Y-85746704D01*
G37*
D18*
X132715000Y-86533000D03*
D10*
G36*
X133164505Y-88621704D02*
X133188773Y-88625304D01*
X133212572Y-88631265D01*
X133235671Y-88639530D01*
X133257850Y-88650020D01*
X133278893Y-88662632D01*
X133298599Y-88677247D01*
X133316777Y-88693723D01*
X133333253Y-88711901D01*
X133347868Y-88731607D01*
X133360480Y-88752650D01*
X133370970Y-88774829D01*
X133379235Y-88797928D01*
X133385196Y-88821727D01*
X133388796Y-88845995D01*
X133390000Y-88870499D01*
X133390000Y-89945501D01*
X133388796Y-89970005D01*
X133385196Y-89994273D01*
X133379235Y-90018072D01*
X133370970Y-90041171D01*
X133360480Y-90063350D01*
X133347868Y-90084393D01*
X133333253Y-90104099D01*
X133316777Y-90122277D01*
X133298599Y-90138753D01*
X133278893Y-90153368D01*
X133257850Y-90165980D01*
X133235671Y-90176470D01*
X133212572Y-90184735D01*
X133188773Y-90190696D01*
X133164505Y-90194296D01*
X133140001Y-90195500D01*
X132289999Y-90195500D01*
X132265495Y-90194296D01*
X132241227Y-90190696D01*
X132217428Y-90184735D01*
X132194329Y-90176470D01*
X132172150Y-90165980D01*
X132151107Y-90153368D01*
X132131401Y-90138753D01*
X132113223Y-90122277D01*
X132096747Y-90104099D01*
X132082132Y-90084393D01*
X132069520Y-90063350D01*
X132059030Y-90041171D01*
X132050765Y-90018072D01*
X132044804Y-89994273D01*
X132041204Y-89970005D01*
X132040000Y-89945501D01*
X132040000Y-88870499D01*
X132041204Y-88845995D01*
X132044804Y-88821727D01*
X132050765Y-88797928D01*
X132059030Y-88774829D01*
X132069520Y-88752650D01*
X132082132Y-88731607D01*
X132096747Y-88711901D01*
X132113223Y-88693723D01*
X132131401Y-88677247D01*
X132151107Y-88662632D01*
X132172150Y-88650020D01*
X132194329Y-88639530D01*
X132217428Y-88631265D01*
X132241227Y-88625304D01*
X132265495Y-88621704D01*
X132289999Y-88620500D01*
X133140001Y-88620500D01*
X133164505Y-88621704D01*
X133164505Y-88621704D01*
G37*
D18*
X132715000Y-89408000D03*
G04 #@! TD*
M02*
