G04 #@! TF.GenerationSoftware,KiCad,Pcbnew,(5.0.0-3-g5ebb6b6)*
G04 #@! TF.CreationDate,2019-05-02T12:54:52+02:00*
G04 #@! TF.ProjectId,Encoder assembly 1,456E636F64657220617373656D626C79,rev?*
G04 #@! TF.SameCoordinates,Original*
G04 #@! TF.FileFunction,Legend,Top*
G04 #@! TF.FilePolarity,Positive*
%FSLAX46Y46*%
G04 Gerber Fmt 4.6, Leading zero omitted, Abs format (unit mm)*
G04 Created by KiCad (PCBNEW (5.0.0-3-g5ebb6b6)) date Thursday, 02 May 2019 at 12:54:52*
%MOMM*%
%LPD*%
G01*
G04 APERTURE LIST*
%ADD10C,0.300000*%
%ADD11C,0.200000*%
G04 APERTURE END LIST*
D10*
X92564285Y-97142857D02*
X93064285Y-97142857D01*
X93278571Y-97928571D02*
X92564285Y-97928571D01*
X92564285Y-96428571D01*
X93278571Y-96428571D01*
X93921428Y-97928571D02*
X93921428Y-96428571D01*
X94778571Y-97928571D01*
X94778571Y-96428571D01*
X96350000Y-97785714D02*
X96278571Y-97857142D01*
X96064285Y-97928571D01*
X95921428Y-97928571D01*
X95707142Y-97857142D01*
X95564285Y-97714285D01*
X95492857Y-97571428D01*
X95421428Y-97285714D01*
X95421428Y-97071428D01*
X95492857Y-96785714D01*
X95564285Y-96642857D01*
X95707142Y-96500000D01*
X95921428Y-96428571D01*
X96064285Y-96428571D01*
X96278571Y-96500000D01*
X96350000Y-96571428D01*
X97278571Y-96428571D02*
X97564285Y-96428571D01*
X97707142Y-96500000D01*
X97850000Y-96642857D01*
X97921428Y-96928571D01*
X97921428Y-97428571D01*
X97850000Y-97714285D01*
X97707142Y-97857142D01*
X97564285Y-97928571D01*
X97278571Y-97928571D01*
X97135714Y-97857142D01*
X96992857Y-97714285D01*
X96921428Y-97428571D01*
X96921428Y-96928571D01*
X96992857Y-96642857D01*
X97135714Y-96500000D01*
X97278571Y-96428571D01*
X98564285Y-97928571D02*
X98564285Y-96428571D01*
X98921428Y-96428571D01*
X99135714Y-96500000D01*
X99278571Y-96642857D01*
X99350000Y-96785714D01*
X99421428Y-97071428D01*
X99421428Y-97285714D01*
X99350000Y-97571428D01*
X99278571Y-97714285D01*
X99135714Y-97857142D01*
X98921428Y-97928571D01*
X98564285Y-97928571D01*
X100064285Y-97142857D02*
X100564285Y-97142857D01*
X100778571Y-97928571D02*
X100064285Y-97928571D01*
X100064285Y-96428571D01*
X100778571Y-96428571D01*
X102278571Y-97928571D02*
X101778571Y-97214285D01*
X101421428Y-97928571D02*
X101421428Y-96428571D01*
X101992857Y-96428571D01*
X102135714Y-96500000D01*
X102207142Y-96571428D01*
X102278571Y-96714285D01*
X102278571Y-96928571D01*
X102207142Y-97071428D01*
X102135714Y-97142857D01*
X101992857Y-97214285D01*
X101421428Y-97214285D01*
X103992857Y-97500000D02*
X104707142Y-97500000D01*
X103850000Y-97928571D02*
X104350000Y-96428571D01*
X104850000Y-97928571D01*
X105278571Y-97857142D02*
X105492857Y-97928571D01*
X105850000Y-97928571D01*
X105992857Y-97857142D01*
X106064285Y-97785714D01*
X106135714Y-97642857D01*
X106135714Y-97500000D01*
X106064285Y-97357142D01*
X105992857Y-97285714D01*
X105850000Y-97214285D01*
X105564285Y-97142857D01*
X105421428Y-97071428D01*
X105350000Y-97000000D01*
X105278571Y-96857142D01*
X105278571Y-96714285D01*
X105350000Y-96571428D01*
X105421428Y-96500000D01*
X105564285Y-96428571D01*
X105921428Y-96428571D01*
X106135714Y-96500000D01*
X106707142Y-97857142D02*
X106921428Y-97928571D01*
X107278571Y-97928571D01*
X107421428Y-97857142D01*
X107492857Y-97785714D01*
X107564285Y-97642857D01*
X107564285Y-97500000D01*
X107492857Y-97357142D01*
X107421428Y-97285714D01*
X107278571Y-97214285D01*
X106992857Y-97142857D01*
X106850000Y-97071428D01*
X106778571Y-97000000D01*
X106707142Y-96857142D01*
X106707142Y-96714285D01*
X106778571Y-96571428D01*
X106850000Y-96500000D01*
X106992857Y-96428571D01*
X107350000Y-96428571D01*
X107564285Y-96500000D01*
X108207142Y-97142857D02*
X108707142Y-97142857D01*
X108921428Y-97928571D02*
X108207142Y-97928571D01*
X108207142Y-96428571D01*
X108921428Y-96428571D01*
X109564285Y-97928571D02*
X109564285Y-96428571D01*
X110064285Y-97500000D01*
X110564285Y-96428571D01*
X110564285Y-97928571D01*
X111778571Y-97142857D02*
X111992857Y-97214285D01*
X112064285Y-97285714D01*
X112135714Y-97428571D01*
X112135714Y-97642857D01*
X112064285Y-97785714D01*
X111992857Y-97857142D01*
X111850000Y-97928571D01*
X111278571Y-97928571D01*
X111278571Y-96428571D01*
X111778571Y-96428571D01*
X111921428Y-96500000D01*
X111992857Y-96571428D01*
X112064285Y-96714285D01*
X112064285Y-96857142D01*
X111992857Y-97000000D01*
X111921428Y-97071428D01*
X111778571Y-97142857D01*
X111278571Y-97142857D01*
X113492857Y-97928571D02*
X112778571Y-97928571D01*
X112778571Y-96428571D01*
X114278571Y-97214285D02*
X114278571Y-97928571D01*
X113778571Y-96428571D02*
X114278571Y-97214285D01*
X114778571Y-96428571D01*
X116850000Y-98500000D02*
X116778571Y-98428571D01*
X116635714Y-98214285D01*
X116564285Y-98071428D01*
X116492857Y-97857142D01*
X116421428Y-97500000D01*
X116421428Y-97214285D01*
X116492857Y-96857142D01*
X116564285Y-96642857D01*
X116635714Y-96500000D01*
X116778571Y-96285714D01*
X116850000Y-96214285D01*
X118207142Y-97928571D02*
X117350000Y-97928571D01*
X117778571Y-97928571D02*
X117778571Y-96428571D01*
X117635714Y-96642857D01*
X117492857Y-96785714D01*
X117350000Y-96857142D01*
X118707142Y-98500000D02*
X118778571Y-98428571D01*
X118921428Y-98214285D01*
X118992857Y-98071428D01*
X119064285Y-97857142D01*
X119135714Y-97500000D01*
X119135714Y-97214285D01*
X119064285Y-96857142D01*
X118992857Y-96642857D01*
X118921428Y-96500000D01*
X118778571Y-96285714D01*
X118707142Y-96214285D01*
D11*
X122700000Y-68300000D02*
X87500000Y-68300000D01*
X122700000Y-94000000D02*
X122700000Y-68300000D01*
X87500000Y-94000000D02*
X122700000Y-94000000D01*
X87500000Y-68300000D02*
X87500000Y-94000000D01*
M02*
