G04 #@! TF.GenerationSoftware,KiCad,Pcbnew,(5.0.0-3-g5ebb6b6)*
G04 #@! TF.CreationDate,2019-05-02T13:21:36+02:00*
G04 #@! TF.ProjectId,Power Board,506F77657220426F6172642E6B696361,rev?*
G04 #@! TF.SameCoordinates,Original*
G04 #@! TF.FileFunction,Copper,L2,Bot,Signal*
G04 #@! TF.FilePolarity,Positive*
%FSLAX46Y46*%
G04 Gerber Fmt 4.6, Leading zero omitted, Abs format (unit mm)*
G04 Created by KiCad (PCBNEW (5.0.0-3-g5ebb6b6)) date Thursday, 02 May 2019 at 13:21:36*
%MOMM*%
%LPD*%
G01*
G04 APERTURE LIST*
G04 #@! TA.AperFunction,ComponentPad*
%ADD10C,7.000000*%
G04 #@! TD*
G04 #@! TA.AperFunction,ComponentPad*
%ADD11O,1.524000X4.000000*%
G04 #@! TD*
G04 #@! TA.AperFunction,ComponentPad*
%ADD12O,4.000000X1.524000*%
G04 #@! TD*
G04 #@! TA.AperFunction,ComponentPad*
%ADD13R,1.700000X2.000000*%
G04 #@! TD*
G04 #@! TA.AperFunction,ComponentPad*
%ADD14O,1.700000X2.000000*%
G04 #@! TD*
G04 #@! TA.AperFunction,ComponentPad*
%ADD15R,2.700000X2.700000*%
G04 #@! TD*
G04 #@! TA.AperFunction,ComponentPad*
%ADD16C,2.700000*%
G04 #@! TD*
G04 #@! TA.AperFunction,Conductor*
%ADD17C,2.000000*%
G04 #@! TD*
G04 #@! TA.AperFunction,Conductor*
%ADD18C,0.254000*%
G04 #@! TD*
G04 APERTURE END LIST*
D10*
G04 #@! TO.P,REF\002A\002A,1*
G04 #@! TO.N,N/C*
X158050000Y-138750000D03*
G04 #@! TD*
D11*
G04 #@! TO.P,J1,1*
G04 #@! TO.N,Net-(J1-Pad1)*
X149630000Y-95510000D03*
D12*
G04 #@! TO.P,J1,2*
G04 #@! TO.N,Net-(J1-Pad2)*
X154530000Y-98320000D03*
G04 #@! TO.P,J1,3*
G04 #@! TO.N,N/C*
X151540000Y-100480000D03*
G04 #@! TD*
D13*
G04 #@! TO.P,J2,1*
G04 #@! TO.N,Net-(J1-Pad1)*
X155550000Y-129700000D03*
D14*
G04 #@! TO.P,J2,2*
G04 #@! TO.N,Net-(J1-Pad2)*
X158050000Y-129700000D03*
G04 #@! TD*
G04 #@! TO.P,J3,2*
G04 #@! TO.N,Net-(J1-Pad2)*
X157950000Y-122100000D03*
D13*
G04 #@! TO.P,J3,1*
G04 #@! TO.N,Net-(J1-Pad1)*
X155450000Y-122100000D03*
G04 #@! TD*
G04 #@! TO.P,J4,1*
G04 #@! TO.N,Net-(J1-Pad1)*
X155450000Y-114500000D03*
D14*
G04 #@! TO.P,J4,2*
G04 #@! TO.N,Net-(J1-Pad2)*
X157950000Y-114500000D03*
G04 #@! TD*
G04 #@! TO.P,J5,2*
G04 #@! TO.N,Net-(J1-Pad2)*
X157950000Y-106900000D03*
D13*
G04 #@! TO.P,J5,1*
G04 #@! TO.N,Net-(J1-Pad1)*
X155450000Y-106900000D03*
G04 #@! TD*
D15*
G04 #@! TO.P,J6,1*
G04 #@! TO.N,Net-(J1-Pad1)*
X148350000Y-132400000D03*
D16*
G04 #@! TO.P,J6,2*
G04 #@! TO.N,Net-(J1-Pad2)*
X144390000Y-132400000D03*
G04 #@! TD*
G04 #@! TO.P,J7,2*
G04 #@! TO.N,Net-(J1-Pad2)*
X144340000Y-120150000D03*
D15*
G04 #@! TO.P,J7,1*
G04 #@! TO.N,Net-(J1-Pad1)*
X148300000Y-120150000D03*
G04 #@! TD*
D10*
G04 #@! TO.P,REF\002A\002A,1*
G04 #@! TO.N,N/C*
X158100000Y-82500000D03*
G04 #@! TD*
D15*
G04 #@! TO.P,J8,1*
G04 #@! TO.N,Net-(J1-Pad1)*
X147150000Y-80950000D03*
D16*
G04 #@! TO.P,J8,2*
G04 #@! TO.N,Net-(J1-Pad2)*
X151110000Y-80950000D03*
G04 #@! TD*
G04 #@! TO.P,J9,2*
G04 #@! TO.N,Net-(J1-Pad2)*
X144500000Y-108750000D03*
D15*
G04 #@! TO.P,J9,1*
G04 #@! TO.N,Net-(J1-Pad1)*
X148460000Y-108750000D03*
G04 #@! TD*
D17*
G04 #@! TO.N,Net-(J1-Pad1)*
X155450000Y-108150000D02*
X155450000Y-114500000D01*
X155450000Y-106900000D02*
X155450000Y-108150000D01*
X155450000Y-114500000D02*
X155450000Y-122100000D01*
X155450000Y-129600000D02*
X155550000Y-129700000D01*
X155450000Y-122100000D02*
X155450000Y-129600000D01*
X149450000Y-129700000D02*
X148350000Y-130800000D01*
X148350000Y-130800000D02*
X148350000Y-132400000D01*
X155550000Y-129700000D02*
X149450000Y-129700000D01*
X148300000Y-121750000D02*
X148300000Y-120150000D01*
X148650000Y-122100000D02*
X148300000Y-121750000D01*
X155450000Y-122100000D02*
X148650000Y-122100000D01*
X147000000Y-97128000D02*
X147000000Y-101750000D01*
X148618000Y-95510000D02*
X147000000Y-97128000D01*
X152150000Y-106900000D02*
X155450000Y-106900000D01*
X147000000Y-101750000D02*
X152150000Y-106900000D01*
X148618000Y-95510000D02*
X149630000Y-95510000D01*
X147550000Y-94442000D02*
X148618000Y-95510000D01*
X147550000Y-80950000D02*
X147550000Y-94442000D01*
X148710000Y-106900000D02*
X152150000Y-106900000D01*
X148460000Y-107150000D02*
X148710000Y-106900000D01*
X148460000Y-108750000D02*
X148460000Y-107150000D01*
G04 #@! TO.N,Net-(J1-Pad2)*
X144390000Y-120200000D02*
X144340000Y-120150000D01*
X144390000Y-132400000D02*
X144390000Y-120200000D01*
X144390000Y-132400000D02*
X144390000Y-135990000D01*
X144390000Y-135990000D02*
X146100000Y-137700000D01*
X146100000Y-137700000D02*
X151200000Y-137700000D01*
X151200000Y-137700000D02*
X153000000Y-135900000D01*
X153000000Y-135900000D02*
X153000000Y-134150000D01*
X153000000Y-134150000D02*
X154100000Y-133050000D01*
X154100000Y-133050000D02*
X156400000Y-133050000D01*
X158050000Y-131400000D02*
X158050000Y-129700000D01*
X156400000Y-133050000D02*
X158050000Y-131400000D01*
X158050000Y-122200000D02*
X157950000Y-122100000D01*
X158050000Y-129700000D02*
X158050000Y-122200000D01*
X157950000Y-122100000D02*
X157950000Y-114500000D01*
X157950000Y-114500000D02*
X157950000Y-106900000D01*
X155768000Y-98320000D02*
X154530000Y-98320000D01*
X157950000Y-100502000D02*
X155768000Y-98320000D01*
X157950000Y-106900000D02*
X157950000Y-100502000D01*
X154530000Y-100265264D02*
X154345264Y-100450000D01*
X154530000Y-98320000D02*
X154530000Y-100265264D01*
X154345264Y-100450000D02*
X153865010Y-100450000D01*
X151510000Y-80950000D02*
X151510000Y-88360000D01*
X154530000Y-91380000D02*
X154530000Y-98320000D01*
X151510000Y-88360000D02*
X154530000Y-91380000D01*
X144500000Y-119990000D02*
X144340000Y-120150000D01*
X144500000Y-108750000D02*
X144500000Y-119990000D01*
G04 #@! TD*
D18*
G04 #@! TO.N,Net-(J1-Pad2)*
G36*
X161461681Y-80013909D02*
X160442289Y-78994517D01*
X158922503Y-78365000D01*
X157277497Y-78365000D01*
X155757711Y-78994517D01*
X154594517Y-80157711D01*
X153965000Y-81677497D01*
X153965000Y-83322503D01*
X154594517Y-84842289D01*
X155757711Y-86005483D01*
X157277497Y-86635000D01*
X158922503Y-86635000D01*
X160442289Y-86005483D01*
X161458177Y-84989595D01*
X161422061Y-136274289D01*
X160392289Y-135244517D01*
X158872503Y-134615000D01*
X157227497Y-134615000D01*
X155707711Y-135244517D01*
X154544517Y-136407711D01*
X153915000Y-137927497D01*
X153915000Y-139572503D01*
X154544517Y-141092289D01*
X155707711Y-142255483D01*
X157227497Y-142885000D01*
X158872503Y-142885000D01*
X160392289Y-142255483D01*
X161418572Y-141229200D01*
X161415465Y-145640000D01*
X141535464Y-145640000D01*
X141543797Y-133805593D01*
X143164012Y-133805593D01*
X143305478Y-134108782D01*
X144041955Y-134393737D01*
X144831418Y-134375164D01*
X145474522Y-134108782D01*
X145615988Y-133805593D01*
X144390000Y-132579605D01*
X143164012Y-133805593D01*
X141543797Y-133805593D01*
X141545032Y-132051955D01*
X142396263Y-132051955D01*
X142414836Y-132841418D01*
X142681218Y-133484522D01*
X142984407Y-133625988D01*
X144210395Y-132400000D01*
X142984407Y-131174012D01*
X142681218Y-131315478D01*
X142396263Y-132051955D01*
X141545032Y-132051955D01*
X141545776Y-130994407D01*
X143164012Y-130994407D01*
X144390000Y-132220395D01*
X145615988Y-130994407D01*
X145474522Y-130691218D01*
X144738045Y-130406263D01*
X143948582Y-130424836D01*
X143305478Y-130691218D01*
X143164012Y-130994407D01*
X141545776Y-130994407D01*
X141552424Y-121555593D01*
X143114012Y-121555593D01*
X143255478Y-121858782D01*
X143991955Y-122143737D01*
X144781418Y-122125164D01*
X145424522Y-121858782D01*
X145565988Y-121555593D01*
X144340000Y-120329605D01*
X143114012Y-121555593D01*
X141552424Y-121555593D01*
X141553659Y-119801955D01*
X142346263Y-119801955D01*
X142364836Y-120591418D01*
X142631218Y-121234522D01*
X142934407Y-121375988D01*
X144160395Y-120150000D01*
X144519605Y-120150000D01*
X145745593Y-121375988D01*
X146048782Y-121234522D01*
X146302560Y-120578623D01*
X146302560Y-121500000D01*
X146351843Y-121747765D01*
X146492191Y-121957809D01*
X146702220Y-122098147D01*
X146759864Y-122387944D01*
X147121231Y-122928769D01*
X147257750Y-123019988D01*
X147380012Y-123142250D01*
X147471231Y-123278769D01*
X147888844Y-123557809D01*
X148012055Y-123640136D01*
X148650000Y-123767031D01*
X148811031Y-123735000D01*
X153815000Y-123735000D01*
X153815001Y-128065000D01*
X149611030Y-128065000D01*
X149450000Y-128032969D01*
X149288970Y-128065000D01*
X149288969Y-128065000D01*
X148812055Y-128159864D01*
X148271231Y-128521231D01*
X148180014Y-128657747D01*
X147307750Y-129530012D01*
X147171231Y-129621231D01*
X146809864Y-130162056D01*
X146757594Y-130424836D01*
X146752220Y-130451853D01*
X146542191Y-130592191D01*
X146401843Y-130802235D01*
X146352560Y-131050000D01*
X146352560Y-131928153D01*
X146098782Y-131315478D01*
X145795593Y-131174012D01*
X144569605Y-132400000D01*
X145795593Y-133625988D01*
X146098782Y-133484522D01*
X146352560Y-132828623D01*
X146352560Y-133750000D01*
X146401843Y-133997765D01*
X146542191Y-134207809D01*
X146752235Y-134348157D01*
X147000000Y-134397440D01*
X149700000Y-134397440D01*
X149947765Y-134348157D01*
X150157809Y-134207809D01*
X150298157Y-133997765D01*
X150347440Y-133750000D01*
X150347440Y-131335000D01*
X154637459Y-131335000D01*
X154700000Y-131347440D01*
X155451513Y-131347440D01*
X155549999Y-131367030D01*
X155648485Y-131347440D01*
X156400000Y-131347440D01*
X156647765Y-131298157D01*
X156857809Y-131157809D01*
X156998157Y-130947765D01*
X157012388Y-130876218D01*
X157157955Y-131038664D01*
X157680740Y-131289553D01*
X157693110Y-131291476D01*
X157923000Y-131170155D01*
X157923000Y-129827000D01*
X158177000Y-129827000D01*
X158177000Y-131170155D01*
X158406890Y-131291476D01*
X158419260Y-131289553D01*
X158942045Y-131038664D01*
X159329024Y-130606812D01*
X159521284Y-130059742D01*
X159377231Y-129827000D01*
X158177000Y-129827000D01*
X157923000Y-129827000D01*
X157903000Y-129827000D01*
X157903000Y-129573000D01*
X157923000Y-129573000D01*
X157923000Y-128229845D01*
X158177000Y-128229845D01*
X158177000Y-129573000D01*
X159377231Y-129573000D01*
X159521284Y-129340258D01*
X159329024Y-128793188D01*
X158942045Y-128361336D01*
X158419260Y-128110447D01*
X158406890Y-128108524D01*
X158177000Y-128229845D01*
X157923000Y-128229845D01*
X157693110Y-128108524D01*
X157680740Y-128110447D01*
X157157955Y-128361336D01*
X157085000Y-128442751D01*
X157085000Y-123451643D01*
X157580740Y-123689553D01*
X157593110Y-123691476D01*
X157823000Y-123570155D01*
X157823000Y-122227000D01*
X158077000Y-122227000D01*
X158077000Y-123570155D01*
X158306890Y-123691476D01*
X158319260Y-123689553D01*
X158842045Y-123438664D01*
X159229024Y-123006812D01*
X159421284Y-122459742D01*
X159277231Y-122227000D01*
X158077000Y-122227000D01*
X157823000Y-122227000D01*
X157803000Y-122227000D01*
X157803000Y-121973000D01*
X157823000Y-121973000D01*
X157823000Y-120629845D01*
X158077000Y-120629845D01*
X158077000Y-121973000D01*
X159277231Y-121973000D01*
X159421284Y-121740258D01*
X159229024Y-121193188D01*
X158842045Y-120761336D01*
X158319260Y-120510447D01*
X158306890Y-120508524D01*
X158077000Y-120629845D01*
X157823000Y-120629845D01*
X157593110Y-120508524D01*
X157580740Y-120510447D01*
X157085000Y-120748357D01*
X157085000Y-115851643D01*
X157580740Y-116089553D01*
X157593110Y-116091476D01*
X157823000Y-115970155D01*
X157823000Y-114627000D01*
X158077000Y-114627000D01*
X158077000Y-115970155D01*
X158306890Y-116091476D01*
X158319260Y-116089553D01*
X158842045Y-115838664D01*
X159229024Y-115406812D01*
X159421284Y-114859742D01*
X159277231Y-114627000D01*
X158077000Y-114627000D01*
X157823000Y-114627000D01*
X157803000Y-114627000D01*
X157803000Y-114373000D01*
X157823000Y-114373000D01*
X157823000Y-113029845D01*
X158077000Y-113029845D01*
X158077000Y-114373000D01*
X159277231Y-114373000D01*
X159421284Y-114140258D01*
X159229024Y-113593188D01*
X158842045Y-113161336D01*
X158319260Y-112910447D01*
X158306890Y-112908524D01*
X158077000Y-113029845D01*
X157823000Y-113029845D01*
X157593110Y-112908524D01*
X157580740Y-112910447D01*
X157085000Y-113148357D01*
X157085000Y-108251643D01*
X157580740Y-108489553D01*
X157593110Y-108491476D01*
X157823000Y-108370155D01*
X157823000Y-107027000D01*
X158077000Y-107027000D01*
X158077000Y-108370155D01*
X158306890Y-108491476D01*
X158319260Y-108489553D01*
X158842045Y-108238664D01*
X159229024Y-107806812D01*
X159421284Y-107259742D01*
X159277231Y-107027000D01*
X158077000Y-107027000D01*
X157823000Y-107027000D01*
X157803000Y-107027000D01*
X157803000Y-106773000D01*
X157823000Y-106773000D01*
X157823000Y-105429845D01*
X158077000Y-105429845D01*
X158077000Y-106773000D01*
X159277231Y-106773000D01*
X159421284Y-106540258D01*
X159229024Y-105993188D01*
X158842045Y-105561336D01*
X158319260Y-105310447D01*
X158306890Y-105308524D01*
X158077000Y-105429845D01*
X157823000Y-105429845D01*
X157593110Y-105308524D01*
X157580740Y-105310447D01*
X157057955Y-105561336D01*
X156912388Y-105723782D01*
X156898157Y-105652235D01*
X156757809Y-105442191D01*
X156547765Y-105301843D01*
X156300000Y-105252560D01*
X155548491Y-105252560D01*
X155450000Y-105232969D01*
X155351509Y-105252560D01*
X154600000Y-105252560D01*
X154537459Y-105265000D01*
X152827239Y-105265000D01*
X148635000Y-101072762D01*
X148635000Y-100480000D01*
X148877632Y-100480000D01*
X148986056Y-101025082D01*
X149294820Y-101487180D01*
X149756918Y-101795944D01*
X150164412Y-101877000D01*
X152915588Y-101877000D01*
X153323082Y-101795944D01*
X153785180Y-101487180D01*
X154093944Y-101025082D01*
X154202368Y-100480000D01*
X154093944Y-99934918D01*
X153948336Y-99717000D01*
X154403000Y-99717000D01*
X154403000Y-98447000D01*
X154657000Y-98447000D01*
X154657000Y-99717000D01*
X155895000Y-99717000D01*
X156419941Y-99562059D01*
X156845630Y-99218026D01*
X157107260Y-98737277D01*
X157122220Y-98663070D01*
X156999720Y-98447000D01*
X154657000Y-98447000D01*
X154403000Y-98447000D01*
X152060280Y-98447000D01*
X151937780Y-98663070D01*
X151952740Y-98737277D01*
X152140887Y-99083000D01*
X150164412Y-99083000D01*
X149756918Y-99164056D01*
X149294820Y-99472820D01*
X148986056Y-99934918D01*
X148877632Y-100480000D01*
X148635000Y-100480000D01*
X148635000Y-97805239D01*
X148660130Y-97780109D01*
X149084919Y-98063944D01*
X149630000Y-98172368D01*
X150175082Y-98063944D01*
X150305307Y-97976930D01*
X151937780Y-97976930D01*
X152060280Y-98193000D01*
X154403000Y-98193000D01*
X154403000Y-96923000D01*
X154657000Y-96923000D01*
X154657000Y-98193000D01*
X156999720Y-98193000D01*
X157122220Y-97976930D01*
X157107260Y-97902723D01*
X156845630Y-97421974D01*
X156419941Y-97077941D01*
X155895000Y-96923000D01*
X154657000Y-96923000D01*
X154403000Y-96923000D01*
X153165000Y-96923000D01*
X152640059Y-97077941D01*
X152214370Y-97421974D01*
X151952740Y-97902723D01*
X151937780Y-97976930D01*
X150305307Y-97976930D01*
X150637180Y-97755180D01*
X150945944Y-97293082D01*
X151027000Y-96885588D01*
X151027000Y-96362163D01*
X151170136Y-96147945D01*
X151297031Y-95510000D01*
X151170136Y-94872055D01*
X151027000Y-94657837D01*
X151027000Y-94134412D01*
X150945944Y-93726918D01*
X150637179Y-93264820D01*
X150175081Y-92956056D01*
X149630000Y-92847632D01*
X149185000Y-92936148D01*
X149185000Y-82355593D01*
X149884012Y-82355593D01*
X150025478Y-82658782D01*
X150761955Y-82943737D01*
X151551418Y-82925164D01*
X152194522Y-82658782D01*
X152335988Y-82355593D01*
X151110000Y-81129605D01*
X149884012Y-82355593D01*
X149185000Y-82355593D01*
X149185000Y-81512525D01*
X149401218Y-82034522D01*
X149704407Y-82175988D01*
X150930395Y-80950000D01*
X151289605Y-80950000D01*
X152515593Y-82175988D01*
X152818782Y-82034522D01*
X153103737Y-81298045D01*
X153085164Y-80508582D01*
X152818782Y-79865478D01*
X152515593Y-79724012D01*
X151289605Y-80950000D01*
X150930395Y-80950000D01*
X149704407Y-79724012D01*
X149401218Y-79865478D01*
X149147440Y-80521377D01*
X149147440Y-79600000D01*
X149136382Y-79544407D01*
X149884012Y-79544407D01*
X151110000Y-80770395D01*
X152335988Y-79544407D01*
X152194522Y-79241218D01*
X151458045Y-78956263D01*
X150668582Y-78974836D01*
X150025478Y-79241218D01*
X149884012Y-79544407D01*
X149136382Y-79544407D01*
X149098157Y-79352235D01*
X148957809Y-79142191D01*
X148747765Y-79001843D01*
X148500000Y-78952560D01*
X145800000Y-78952560D01*
X145552235Y-79001843D01*
X145342191Y-79142191D01*
X145201843Y-79352235D01*
X145152560Y-79600000D01*
X145152560Y-82300000D01*
X145201843Y-82547765D01*
X145342191Y-82757809D01*
X145552235Y-82898157D01*
X145800000Y-82947440D01*
X145915000Y-82947440D01*
X145915001Y-94280965D01*
X145882969Y-94442000D01*
X145968513Y-94872054D01*
X146009865Y-95079945D01*
X146300640Y-95515121D01*
X145957749Y-95858012D01*
X145821231Y-95949231D01*
X145459864Y-96490056D01*
X145420338Y-96688768D01*
X145332969Y-97128000D01*
X145365000Y-97289030D01*
X145365001Y-101588966D01*
X145332969Y-101750000D01*
X145459865Y-102387945D01*
X145821232Y-102928769D01*
X145957748Y-103019986D01*
X148260201Y-105322439D01*
X148072055Y-105359864D01*
X147531231Y-105721231D01*
X147440012Y-105857750D01*
X147417748Y-105880014D01*
X147281232Y-105971231D01*
X146919865Y-106512055D01*
X146862220Y-106801853D01*
X146652191Y-106942191D01*
X146511843Y-107152235D01*
X146462560Y-107400000D01*
X146462560Y-108278153D01*
X146208782Y-107665478D01*
X145905593Y-107524012D01*
X144679605Y-108750000D01*
X145905593Y-109975988D01*
X146208782Y-109834522D01*
X146462560Y-109178623D01*
X146462560Y-110100000D01*
X146511843Y-110347765D01*
X146652191Y-110557809D01*
X146862235Y-110698157D01*
X147110000Y-110747440D01*
X149810000Y-110747440D01*
X150057765Y-110698157D01*
X150267809Y-110557809D01*
X150408157Y-110347765D01*
X150457440Y-110100000D01*
X150457440Y-108535000D01*
X151988970Y-108535000D01*
X152150000Y-108567031D01*
X152311030Y-108535000D01*
X153815000Y-108535000D01*
X153815001Y-114338965D01*
X153815000Y-114338970D01*
X153815001Y-120465000D01*
X150297440Y-120465000D01*
X150297440Y-118800000D01*
X150248157Y-118552235D01*
X150107809Y-118342191D01*
X149897765Y-118201843D01*
X149650000Y-118152560D01*
X146950000Y-118152560D01*
X146702235Y-118201843D01*
X146492191Y-118342191D01*
X146351843Y-118552235D01*
X146302560Y-118800000D01*
X146302560Y-119678153D01*
X146048782Y-119065478D01*
X145745593Y-118924012D01*
X144519605Y-120150000D01*
X144160395Y-120150000D01*
X142934407Y-118924012D01*
X142631218Y-119065478D01*
X142346263Y-119801955D01*
X141553659Y-119801955D01*
X141554403Y-118744407D01*
X143114012Y-118744407D01*
X144340000Y-119970395D01*
X145565988Y-118744407D01*
X145424522Y-118441218D01*
X144688045Y-118156263D01*
X143898582Y-118174836D01*
X143255478Y-118441218D01*
X143114012Y-118744407D01*
X141554403Y-118744407D01*
X141560451Y-110155593D01*
X143274012Y-110155593D01*
X143415478Y-110458782D01*
X144151955Y-110743737D01*
X144941418Y-110725164D01*
X145584522Y-110458782D01*
X145725988Y-110155593D01*
X144500000Y-108929605D01*
X143274012Y-110155593D01*
X141560451Y-110155593D01*
X141561687Y-108401955D01*
X142506263Y-108401955D01*
X142524836Y-109191418D01*
X142791218Y-109834522D01*
X143094407Y-109975988D01*
X144320395Y-108750000D01*
X143094407Y-107524012D01*
X142791218Y-107665478D01*
X142506263Y-108401955D01*
X141561687Y-108401955D01*
X141562431Y-107344407D01*
X143274012Y-107344407D01*
X144500000Y-108570395D01*
X145725988Y-107344407D01*
X145584522Y-107041218D01*
X144848045Y-106756263D01*
X144058582Y-106774836D01*
X143415478Y-107041218D01*
X143274012Y-107344407D01*
X141562431Y-107344407D01*
X141584499Y-76010000D01*
X161464501Y-76010000D01*
X161461681Y-80013909D01*
X161461681Y-80013909D01*
G37*
X161461681Y-80013909D02*
X160442289Y-78994517D01*
X158922503Y-78365000D01*
X157277497Y-78365000D01*
X155757711Y-78994517D01*
X154594517Y-80157711D01*
X153965000Y-81677497D01*
X153965000Y-83322503D01*
X154594517Y-84842289D01*
X155757711Y-86005483D01*
X157277497Y-86635000D01*
X158922503Y-86635000D01*
X160442289Y-86005483D01*
X161458177Y-84989595D01*
X161422061Y-136274289D01*
X160392289Y-135244517D01*
X158872503Y-134615000D01*
X157227497Y-134615000D01*
X155707711Y-135244517D01*
X154544517Y-136407711D01*
X153915000Y-137927497D01*
X153915000Y-139572503D01*
X154544517Y-141092289D01*
X155707711Y-142255483D01*
X157227497Y-142885000D01*
X158872503Y-142885000D01*
X160392289Y-142255483D01*
X161418572Y-141229200D01*
X161415465Y-145640000D01*
X141535464Y-145640000D01*
X141543797Y-133805593D01*
X143164012Y-133805593D01*
X143305478Y-134108782D01*
X144041955Y-134393737D01*
X144831418Y-134375164D01*
X145474522Y-134108782D01*
X145615988Y-133805593D01*
X144390000Y-132579605D01*
X143164012Y-133805593D01*
X141543797Y-133805593D01*
X141545032Y-132051955D01*
X142396263Y-132051955D01*
X142414836Y-132841418D01*
X142681218Y-133484522D01*
X142984407Y-133625988D01*
X144210395Y-132400000D01*
X142984407Y-131174012D01*
X142681218Y-131315478D01*
X142396263Y-132051955D01*
X141545032Y-132051955D01*
X141545776Y-130994407D01*
X143164012Y-130994407D01*
X144390000Y-132220395D01*
X145615988Y-130994407D01*
X145474522Y-130691218D01*
X144738045Y-130406263D01*
X143948582Y-130424836D01*
X143305478Y-130691218D01*
X143164012Y-130994407D01*
X141545776Y-130994407D01*
X141552424Y-121555593D01*
X143114012Y-121555593D01*
X143255478Y-121858782D01*
X143991955Y-122143737D01*
X144781418Y-122125164D01*
X145424522Y-121858782D01*
X145565988Y-121555593D01*
X144340000Y-120329605D01*
X143114012Y-121555593D01*
X141552424Y-121555593D01*
X141553659Y-119801955D01*
X142346263Y-119801955D01*
X142364836Y-120591418D01*
X142631218Y-121234522D01*
X142934407Y-121375988D01*
X144160395Y-120150000D01*
X144519605Y-120150000D01*
X145745593Y-121375988D01*
X146048782Y-121234522D01*
X146302560Y-120578623D01*
X146302560Y-121500000D01*
X146351843Y-121747765D01*
X146492191Y-121957809D01*
X146702220Y-122098147D01*
X146759864Y-122387944D01*
X147121231Y-122928769D01*
X147257750Y-123019988D01*
X147380012Y-123142250D01*
X147471231Y-123278769D01*
X147888844Y-123557809D01*
X148012055Y-123640136D01*
X148650000Y-123767031D01*
X148811031Y-123735000D01*
X153815000Y-123735000D01*
X153815001Y-128065000D01*
X149611030Y-128065000D01*
X149450000Y-128032969D01*
X149288970Y-128065000D01*
X149288969Y-128065000D01*
X148812055Y-128159864D01*
X148271231Y-128521231D01*
X148180014Y-128657747D01*
X147307750Y-129530012D01*
X147171231Y-129621231D01*
X146809864Y-130162056D01*
X146757594Y-130424836D01*
X146752220Y-130451853D01*
X146542191Y-130592191D01*
X146401843Y-130802235D01*
X146352560Y-131050000D01*
X146352560Y-131928153D01*
X146098782Y-131315478D01*
X145795593Y-131174012D01*
X144569605Y-132400000D01*
X145795593Y-133625988D01*
X146098782Y-133484522D01*
X146352560Y-132828623D01*
X146352560Y-133750000D01*
X146401843Y-133997765D01*
X146542191Y-134207809D01*
X146752235Y-134348157D01*
X147000000Y-134397440D01*
X149700000Y-134397440D01*
X149947765Y-134348157D01*
X150157809Y-134207809D01*
X150298157Y-133997765D01*
X150347440Y-133750000D01*
X150347440Y-131335000D01*
X154637459Y-131335000D01*
X154700000Y-131347440D01*
X155451513Y-131347440D01*
X155549999Y-131367030D01*
X155648485Y-131347440D01*
X156400000Y-131347440D01*
X156647765Y-131298157D01*
X156857809Y-131157809D01*
X156998157Y-130947765D01*
X157012388Y-130876218D01*
X157157955Y-131038664D01*
X157680740Y-131289553D01*
X157693110Y-131291476D01*
X157923000Y-131170155D01*
X157923000Y-129827000D01*
X158177000Y-129827000D01*
X158177000Y-131170155D01*
X158406890Y-131291476D01*
X158419260Y-131289553D01*
X158942045Y-131038664D01*
X159329024Y-130606812D01*
X159521284Y-130059742D01*
X159377231Y-129827000D01*
X158177000Y-129827000D01*
X157923000Y-129827000D01*
X157903000Y-129827000D01*
X157903000Y-129573000D01*
X157923000Y-129573000D01*
X157923000Y-128229845D01*
X158177000Y-128229845D01*
X158177000Y-129573000D01*
X159377231Y-129573000D01*
X159521284Y-129340258D01*
X159329024Y-128793188D01*
X158942045Y-128361336D01*
X158419260Y-128110447D01*
X158406890Y-128108524D01*
X158177000Y-128229845D01*
X157923000Y-128229845D01*
X157693110Y-128108524D01*
X157680740Y-128110447D01*
X157157955Y-128361336D01*
X157085000Y-128442751D01*
X157085000Y-123451643D01*
X157580740Y-123689553D01*
X157593110Y-123691476D01*
X157823000Y-123570155D01*
X157823000Y-122227000D01*
X158077000Y-122227000D01*
X158077000Y-123570155D01*
X158306890Y-123691476D01*
X158319260Y-123689553D01*
X158842045Y-123438664D01*
X159229024Y-123006812D01*
X159421284Y-122459742D01*
X159277231Y-122227000D01*
X158077000Y-122227000D01*
X157823000Y-122227000D01*
X157803000Y-122227000D01*
X157803000Y-121973000D01*
X157823000Y-121973000D01*
X157823000Y-120629845D01*
X158077000Y-120629845D01*
X158077000Y-121973000D01*
X159277231Y-121973000D01*
X159421284Y-121740258D01*
X159229024Y-121193188D01*
X158842045Y-120761336D01*
X158319260Y-120510447D01*
X158306890Y-120508524D01*
X158077000Y-120629845D01*
X157823000Y-120629845D01*
X157593110Y-120508524D01*
X157580740Y-120510447D01*
X157085000Y-120748357D01*
X157085000Y-115851643D01*
X157580740Y-116089553D01*
X157593110Y-116091476D01*
X157823000Y-115970155D01*
X157823000Y-114627000D01*
X158077000Y-114627000D01*
X158077000Y-115970155D01*
X158306890Y-116091476D01*
X158319260Y-116089553D01*
X158842045Y-115838664D01*
X159229024Y-115406812D01*
X159421284Y-114859742D01*
X159277231Y-114627000D01*
X158077000Y-114627000D01*
X157823000Y-114627000D01*
X157803000Y-114627000D01*
X157803000Y-114373000D01*
X157823000Y-114373000D01*
X157823000Y-113029845D01*
X158077000Y-113029845D01*
X158077000Y-114373000D01*
X159277231Y-114373000D01*
X159421284Y-114140258D01*
X159229024Y-113593188D01*
X158842045Y-113161336D01*
X158319260Y-112910447D01*
X158306890Y-112908524D01*
X158077000Y-113029845D01*
X157823000Y-113029845D01*
X157593110Y-112908524D01*
X157580740Y-112910447D01*
X157085000Y-113148357D01*
X157085000Y-108251643D01*
X157580740Y-108489553D01*
X157593110Y-108491476D01*
X157823000Y-108370155D01*
X157823000Y-107027000D01*
X158077000Y-107027000D01*
X158077000Y-108370155D01*
X158306890Y-108491476D01*
X158319260Y-108489553D01*
X158842045Y-108238664D01*
X159229024Y-107806812D01*
X159421284Y-107259742D01*
X159277231Y-107027000D01*
X158077000Y-107027000D01*
X157823000Y-107027000D01*
X157803000Y-107027000D01*
X157803000Y-106773000D01*
X157823000Y-106773000D01*
X157823000Y-105429845D01*
X158077000Y-105429845D01*
X158077000Y-106773000D01*
X159277231Y-106773000D01*
X159421284Y-106540258D01*
X159229024Y-105993188D01*
X158842045Y-105561336D01*
X158319260Y-105310447D01*
X158306890Y-105308524D01*
X158077000Y-105429845D01*
X157823000Y-105429845D01*
X157593110Y-105308524D01*
X157580740Y-105310447D01*
X157057955Y-105561336D01*
X156912388Y-105723782D01*
X156898157Y-105652235D01*
X156757809Y-105442191D01*
X156547765Y-105301843D01*
X156300000Y-105252560D01*
X155548491Y-105252560D01*
X155450000Y-105232969D01*
X155351509Y-105252560D01*
X154600000Y-105252560D01*
X154537459Y-105265000D01*
X152827239Y-105265000D01*
X148635000Y-101072762D01*
X148635000Y-100480000D01*
X148877632Y-100480000D01*
X148986056Y-101025082D01*
X149294820Y-101487180D01*
X149756918Y-101795944D01*
X150164412Y-101877000D01*
X152915588Y-101877000D01*
X153323082Y-101795944D01*
X153785180Y-101487180D01*
X154093944Y-101025082D01*
X154202368Y-100480000D01*
X154093944Y-99934918D01*
X153948336Y-99717000D01*
X154403000Y-99717000D01*
X154403000Y-98447000D01*
X154657000Y-98447000D01*
X154657000Y-99717000D01*
X155895000Y-99717000D01*
X156419941Y-99562059D01*
X156845630Y-99218026D01*
X157107260Y-98737277D01*
X157122220Y-98663070D01*
X156999720Y-98447000D01*
X154657000Y-98447000D01*
X154403000Y-98447000D01*
X152060280Y-98447000D01*
X151937780Y-98663070D01*
X151952740Y-98737277D01*
X152140887Y-99083000D01*
X150164412Y-99083000D01*
X149756918Y-99164056D01*
X149294820Y-99472820D01*
X148986056Y-99934918D01*
X148877632Y-100480000D01*
X148635000Y-100480000D01*
X148635000Y-97805239D01*
X148660130Y-97780109D01*
X149084919Y-98063944D01*
X149630000Y-98172368D01*
X150175082Y-98063944D01*
X150305307Y-97976930D01*
X151937780Y-97976930D01*
X152060280Y-98193000D01*
X154403000Y-98193000D01*
X154403000Y-96923000D01*
X154657000Y-96923000D01*
X154657000Y-98193000D01*
X156999720Y-98193000D01*
X157122220Y-97976930D01*
X157107260Y-97902723D01*
X156845630Y-97421974D01*
X156419941Y-97077941D01*
X155895000Y-96923000D01*
X154657000Y-96923000D01*
X154403000Y-96923000D01*
X153165000Y-96923000D01*
X152640059Y-97077941D01*
X152214370Y-97421974D01*
X151952740Y-97902723D01*
X151937780Y-97976930D01*
X150305307Y-97976930D01*
X150637180Y-97755180D01*
X150945944Y-97293082D01*
X151027000Y-96885588D01*
X151027000Y-96362163D01*
X151170136Y-96147945D01*
X151297031Y-95510000D01*
X151170136Y-94872055D01*
X151027000Y-94657837D01*
X151027000Y-94134412D01*
X150945944Y-93726918D01*
X150637179Y-93264820D01*
X150175081Y-92956056D01*
X149630000Y-92847632D01*
X149185000Y-92936148D01*
X149185000Y-82355593D01*
X149884012Y-82355593D01*
X150025478Y-82658782D01*
X150761955Y-82943737D01*
X151551418Y-82925164D01*
X152194522Y-82658782D01*
X152335988Y-82355593D01*
X151110000Y-81129605D01*
X149884012Y-82355593D01*
X149185000Y-82355593D01*
X149185000Y-81512525D01*
X149401218Y-82034522D01*
X149704407Y-82175988D01*
X150930395Y-80950000D01*
X151289605Y-80950000D01*
X152515593Y-82175988D01*
X152818782Y-82034522D01*
X153103737Y-81298045D01*
X153085164Y-80508582D01*
X152818782Y-79865478D01*
X152515593Y-79724012D01*
X151289605Y-80950000D01*
X150930395Y-80950000D01*
X149704407Y-79724012D01*
X149401218Y-79865478D01*
X149147440Y-80521377D01*
X149147440Y-79600000D01*
X149136382Y-79544407D01*
X149884012Y-79544407D01*
X151110000Y-80770395D01*
X152335988Y-79544407D01*
X152194522Y-79241218D01*
X151458045Y-78956263D01*
X150668582Y-78974836D01*
X150025478Y-79241218D01*
X149884012Y-79544407D01*
X149136382Y-79544407D01*
X149098157Y-79352235D01*
X148957809Y-79142191D01*
X148747765Y-79001843D01*
X148500000Y-78952560D01*
X145800000Y-78952560D01*
X145552235Y-79001843D01*
X145342191Y-79142191D01*
X145201843Y-79352235D01*
X145152560Y-79600000D01*
X145152560Y-82300000D01*
X145201843Y-82547765D01*
X145342191Y-82757809D01*
X145552235Y-82898157D01*
X145800000Y-82947440D01*
X145915000Y-82947440D01*
X145915001Y-94280965D01*
X145882969Y-94442000D01*
X145968513Y-94872054D01*
X146009865Y-95079945D01*
X146300640Y-95515121D01*
X145957749Y-95858012D01*
X145821231Y-95949231D01*
X145459864Y-96490056D01*
X145420338Y-96688768D01*
X145332969Y-97128000D01*
X145365000Y-97289030D01*
X145365001Y-101588966D01*
X145332969Y-101750000D01*
X145459865Y-102387945D01*
X145821232Y-102928769D01*
X145957748Y-103019986D01*
X148260201Y-105322439D01*
X148072055Y-105359864D01*
X147531231Y-105721231D01*
X147440012Y-105857750D01*
X147417748Y-105880014D01*
X147281232Y-105971231D01*
X146919865Y-106512055D01*
X146862220Y-106801853D01*
X146652191Y-106942191D01*
X146511843Y-107152235D01*
X146462560Y-107400000D01*
X146462560Y-108278153D01*
X146208782Y-107665478D01*
X145905593Y-107524012D01*
X144679605Y-108750000D01*
X145905593Y-109975988D01*
X146208782Y-109834522D01*
X146462560Y-109178623D01*
X146462560Y-110100000D01*
X146511843Y-110347765D01*
X146652191Y-110557809D01*
X146862235Y-110698157D01*
X147110000Y-110747440D01*
X149810000Y-110747440D01*
X150057765Y-110698157D01*
X150267809Y-110557809D01*
X150408157Y-110347765D01*
X150457440Y-110100000D01*
X150457440Y-108535000D01*
X151988970Y-108535000D01*
X152150000Y-108567031D01*
X152311030Y-108535000D01*
X153815000Y-108535000D01*
X153815001Y-114338965D01*
X153815000Y-114338970D01*
X153815001Y-120465000D01*
X150297440Y-120465000D01*
X150297440Y-118800000D01*
X150248157Y-118552235D01*
X150107809Y-118342191D01*
X149897765Y-118201843D01*
X149650000Y-118152560D01*
X146950000Y-118152560D01*
X146702235Y-118201843D01*
X146492191Y-118342191D01*
X146351843Y-118552235D01*
X146302560Y-118800000D01*
X146302560Y-119678153D01*
X146048782Y-119065478D01*
X145745593Y-118924012D01*
X144519605Y-120150000D01*
X144160395Y-120150000D01*
X142934407Y-118924012D01*
X142631218Y-119065478D01*
X142346263Y-119801955D01*
X141553659Y-119801955D01*
X141554403Y-118744407D01*
X143114012Y-118744407D01*
X144340000Y-119970395D01*
X145565988Y-118744407D01*
X145424522Y-118441218D01*
X144688045Y-118156263D01*
X143898582Y-118174836D01*
X143255478Y-118441218D01*
X143114012Y-118744407D01*
X141554403Y-118744407D01*
X141560451Y-110155593D01*
X143274012Y-110155593D01*
X143415478Y-110458782D01*
X144151955Y-110743737D01*
X144941418Y-110725164D01*
X145584522Y-110458782D01*
X145725988Y-110155593D01*
X144500000Y-108929605D01*
X143274012Y-110155593D01*
X141560451Y-110155593D01*
X141561687Y-108401955D01*
X142506263Y-108401955D01*
X142524836Y-109191418D01*
X142791218Y-109834522D01*
X143094407Y-109975988D01*
X144320395Y-108750000D01*
X143094407Y-107524012D01*
X142791218Y-107665478D01*
X142506263Y-108401955D01*
X141561687Y-108401955D01*
X141562431Y-107344407D01*
X143274012Y-107344407D01*
X144500000Y-108570395D01*
X145725988Y-107344407D01*
X145584522Y-107041218D01*
X144848045Y-106756263D01*
X144058582Y-106774836D01*
X143415478Y-107041218D01*
X143274012Y-107344407D01*
X141562431Y-107344407D01*
X141584499Y-76010000D01*
X161464501Y-76010000D01*
X161461681Y-80013909D01*
G04 #@! TD*
M02*
