M48
;DRILL file {KiCad (5.0.0-3-g5ebb6b6)} date Thursday, 02 May 2019 at 13:21:38
;FORMAT={-:-/ absolute / metric / decimal}
FMAT,2
METRIC,TZ
T1C0.762
T2C1.000
T3C1.700
T4C3.500
%
G90
G05
M71
T2
X155.45Y-106.9
X157.95Y-106.9
X155.45Y-122.1
X157.95Y-122.1
X155.55Y-129.7
X158.05Y-129.7
X155.45Y-114.5
X157.95Y-114.5
T3
X144.34Y-120.15
X148.3Y-120.15
X144.39Y-132.4
X148.35Y-132.4
X147.15Y-80.95
X151.11Y-80.95
X144.5Y-108.75
X148.46Y-108.75
T4
X158.05Y-138.75
X158.1Y-82.5
T1
X149.63Y-94.391G85X149.63Y-96.629
G05
X152.659Y-100.48G85X150.421Y-100.48
G05
X155.649Y-98.32G85X153.411Y-98.32
G05
T0
M30
