G04 #@! TF.GenerationSoftware,KiCad,Pcbnew,(5.0.0-3-g5ebb6b6)*
G04 #@! TF.CreationDate,2019-05-02T12:54:19+02:00*
G04 #@! TF.ProjectId,Encoder assembly 2,456E636F64657220617373656D626C79,rev?*
G04 #@! TF.SameCoordinates,Original*
G04 #@! TF.FileFunction,Legend,Bot*
G04 #@! TF.FilePolarity,Positive*
%FSLAX46Y46*%
G04 Gerber Fmt 4.6, Leading zero omitted, Abs format (unit mm)*
G04 Created by KiCad (PCBNEW (5.0.0-3-g5ebb6b6)) date Thursday, 02 May 2019 at 12:54:19*
%MOMM*%
%LPD*%
G01*
G04 APERTURE LIST*
%ADD10C,0.120000*%
%ADD11C,0.150000*%
G04 APERTURE END LIST*
D10*
G04 #@! TO.C,R1*
X115790000Y-77991422D02*
X115790000Y-78508578D01*
X117210000Y-77991422D02*
X117210000Y-78508578D01*
G04 #@! TO.C,R2*
X115840000Y-87508578D02*
X115840000Y-86991422D01*
X117260000Y-87508578D02*
X117260000Y-86991422D01*
G04 #@! TO.C,R3*
X136240000Y-91128922D02*
X136240000Y-91646078D01*
X137660000Y-91128922D02*
X137660000Y-91646078D01*
G04 #@! TO.C,R1*
D11*
X117052380Y-75383333D02*
X116576190Y-75050000D01*
X117052380Y-74811904D02*
X116052380Y-74811904D01*
X116052380Y-75192857D01*
X116100000Y-75288095D01*
X116147619Y-75335714D01*
X116242857Y-75383333D01*
X116385714Y-75383333D01*
X116480952Y-75335714D01*
X116528571Y-75288095D01*
X116576190Y-75192857D01*
X116576190Y-74811904D01*
X117052380Y-76335714D02*
X117052380Y-75764285D01*
X117052380Y-76050000D02*
X116052380Y-76050000D01*
X116195238Y-75954761D01*
X116290476Y-75859523D01*
X116338095Y-75764285D01*
G04 #@! TO.C,R2*
X117552380Y-90183333D02*
X117076190Y-89850000D01*
X117552380Y-89611904D02*
X116552380Y-89611904D01*
X116552380Y-89992857D01*
X116600000Y-90088095D01*
X116647619Y-90135714D01*
X116742857Y-90183333D01*
X116885714Y-90183333D01*
X116980952Y-90135714D01*
X117028571Y-90088095D01*
X117076190Y-89992857D01*
X117076190Y-89611904D01*
X116647619Y-90564285D02*
X116600000Y-90611904D01*
X116552380Y-90707142D01*
X116552380Y-90945238D01*
X116600000Y-91040476D01*
X116647619Y-91088095D01*
X116742857Y-91135714D01*
X116838095Y-91135714D01*
X116980952Y-91088095D01*
X117552380Y-90516666D01*
X117552380Y-91135714D01*
G04 #@! TO.C,R3*
X135752380Y-91220833D02*
X135276190Y-90887500D01*
X135752380Y-90649404D02*
X134752380Y-90649404D01*
X134752380Y-91030357D01*
X134800000Y-91125595D01*
X134847619Y-91173214D01*
X134942857Y-91220833D01*
X135085714Y-91220833D01*
X135180952Y-91173214D01*
X135228571Y-91125595D01*
X135276190Y-91030357D01*
X135276190Y-90649404D01*
X134752380Y-91554166D02*
X134752380Y-92173214D01*
X135133333Y-91839880D01*
X135133333Y-91982738D01*
X135180952Y-92077976D01*
X135228571Y-92125595D01*
X135323809Y-92173214D01*
X135561904Y-92173214D01*
X135657142Y-92125595D01*
X135704761Y-92077976D01*
X135752380Y-91982738D01*
X135752380Y-91697023D01*
X135704761Y-91601785D01*
X135657142Y-91554166D01*
G04 #@! TD*
M02*
