G04 #@! TF.GenerationSoftware,KiCad,Pcbnew,(5.0.0-3-g5ebb6b6)*
G04 #@! TF.CreationDate,2019-05-19T23:31:11+02:00*
G04 #@! TF.ProjectId,RTC Board,52544320426F6172642E6B696361645F,rev?*
G04 #@! TF.SameCoordinates,Original*
G04 #@! TF.FileFunction,Copper,L1,Top,Signal*
G04 #@! TF.FilePolarity,Positive*
%FSLAX46Y46*%
G04 Gerber Fmt 4.6, Leading zero omitted, Abs format (unit mm)*
G04 Created by KiCad (PCBNEW (5.0.0-3-g5ebb6b6)) date Sunday, 19 May 2019 at 23:31:11*
%MOMM*%
%LPD*%
G01*
G04 APERTURE LIST*
G04 #@! TA.AperFunction,ComponentPad*
%ADD10R,1.700000X1.700000*%
G04 #@! TD*
G04 #@! TA.AperFunction,ComponentPad*
%ADD11O,1.700000X1.700000*%
G04 #@! TD*
G04 #@! TA.AperFunction,Conductor*
%ADD12C,0.100000*%
G04 #@! TD*
G04 #@! TA.AperFunction,SMDPad,CuDef*
%ADD13C,0.950000*%
G04 #@! TD*
G04 #@! TA.AperFunction,SMDPad,CuDef*
%ADD14R,1.750000X0.550000*%
G04 #@! TD*
G04 #@! TA.AperFunction,SMDPad,CuDef*
%ADD15R,1.550000X0.600000*%
G04 #@! TD*
G04 #@! TA.AperFunction,SMDPad,CuDef*
%ADD16R,1.800000X1.750000*%
G04 #@! TD*
G04 #@! TA.AperFunction,SMDPad,CuDef*
%ADD17R,4.000000X6.000000*%
G04 #@! TD*
G04 #@! TA.AperFunction,ViaPad*
%ADD18C,0.800000*%
G04 #@! TD*
G04 #@! TA.AperFunction,ViaPad*
%ADD19C,0.500000*%
G04 #@! TD*
G04 #@! TA.AperFunction,Conductor*
%ADD20C,0.500000*%
G04 #@! TD*
G04 #@! TA.AperFunction,Conductor*
%ADD21C,0.200000*%
G04 #@! TD*
G04 #@! TA.AperFunction,Conductor*
%ADD22C,0.300000*%
G04 #@! TD*
G04 #@! TA.AperFunction,Conductor*
%ADD23C,0.400000*%
G04 #@! TD*
G04 #@! TA.AperFunction,Conductor*
%ADD24C,0.254000*%
G04 #@! TD*
G04 APERTURE END LIST*
D10*
G04 #@! TO.P,J6,1*
G04 #@! TO.N,+3V3*
X94996000Y-62230000D03*
D11*
G04 #@! TO.P,J6,2*
G04 #@! TO.N,+5V_J4*
X94996000Y-59690000D03*
G04 #@! TO.P,J6,3*
G04 #@! TO.N,H_SDA*
X97536000Y-62230000D03*
G04 #@! TO.P,J6,4*
G04 #@! TO.N,+5V_J4*
X97536000Y-59690000D03*
G04 #@! TO.P,J6,5*
G04 #@! TO.N,H_SCL*
X100076000Y-62230000D03*
G04 #@! TO.P,J6,6*
G04 #@! TO.N,GNDD*
X100076000Y-59690000D03*
G04 #@! TO.P,J6,7*
G04 #@! TO.N,Net-(J1-Pad13)*
X102616000Y-62230000D03*
G04 #@! TO.P,J6,8*
G04 #@! TO.N,Net-(J6-Pad8)*
X102616000Y-59690000D03*
G04 #@! TO.P,J6,9*
G04 #@! TO.N,GNDD*
X105156000Y-62230000D03*
G04 #@! TO.P,J6,10*
G04 #@! TO.N,Net-(J6-Pad10)*
X105156000Y-59690000D03*
G04 #@! TO.P,J6,11*
G04 #@! TO.N,Net-(J1-Pad11)*
X107696000Y-62230000D03*
G04 #@! TO.P,J6,12*
G04 #@! TO.N,N/C*
X107696000Y-59690000D03*
G04 #@! TO.P,J6,13*
G04 #@! TO.N,Net-(J1-Pad10)*
X110236000Y-62230000D03*
G04 #@! TO.P,J6,14*
G04 #@! TO.N,GNDD*
X110236000Y-59690000D03*
G04 #@! TO.P,J6,15*
G04 #@! TO.N,Net-(J1-Pad9)*
X112776000Y-62230000D03*
G04 #@! TO.P,J6,16*
G04 #@! TO.N,Net-(J6-Pad16)*
X112776000Y-59690000D03*
G04 #@! TO.P,J6,17*
G04 #@! TO.N,+3V3*
X115316000Y-62230000D03*
G04 #@! TO.P,J6,18*
G04 #@! TO.N,Net-(J6-Pad18)*
X115316000Y-59690000D03*
G04 #@! TO.P,J6,19*
G04 #@! TO.N,Net-(J1-Pad7)*
X117856000Y-62230000D03*
G04 #@! TO.P,J6,20*
G04 #@! TO.N,GNDD*
X117856000Y-59690000D03*
G04 #@! TO.P,J6,21*
G04 #@! TO.N,Net-(J1-Pad6)*
X120396000Y-62230000D03*
G04 #@! TO.P,J6,22*
G04 #@! TO.N,Net-(J6-Pad22)*
X120396000Y-59690000D03*
G04 #@! TO.P,J6,23*
G04 #@! TO.N,Net-(J1-Pad5)*
X122936000Y-62230000D03*
G04 #@! TO.P,J6,24*
G04 #@! TO.N,Net-(J6-Pad24)*
X122936000Y-59690000D03*
G04 #@! TO.P,J6,25*
G04 #@! TO.N,GNDD*
X125476000Y-62230000D03*
G04 #@! TO.P,J6,26*
G04 #@! TO.N,Net-(J6-Pad26)*
X125476000Y-59690000D03*
G04 #@! TO.P,J6,27*
G04 #@! TO.N,N/C*
X128016000Y-62230000D03*
G04 #@! TO.P,J6,28*
X128016000Y-59690000D03*
G04 #@! TO.P,J6,29*
X130556000Y-62230000D03*
G04 #@! TO.P,J6,30*
G04 #@! TO.N,GNDD*
X130556000Y-59690000D03*
G04 #@! TO.P,J6,31*
G04 #@! TO.N,Net-(J1-Pad3)*
X133096000Y-62230000D03*
G04 #@! TO.P,J6,32*
G04 #@! TO.N,Net-(J6-Pad32)*
X133096000Y-59690000D03*
G04 #@! TO.P,J6,33*
G04 #@! TO.N,Net-(J1-Pad2)*
X135636000Y-62230000D03*
G04 #@! TO.P,J6,34*
G04 #@! TO.N,GNDD*
X135636000Y-59690000D03*
G04 #@! TO.P,J6,35*
G04 #@! TO.N,N/C*
X138176000Y-62230000D03*
G04 #@! TO.P,J6,36*
X138176000Y-59690000D03*
G04 #@! TO.P,J6,37*
X140716000Y-62230000D03*
G04 #@! TO.P,J6,38*
X140716000Y-59690000D03*
G04 #@! TO.P,J6,39*
G04 #@! TO.N,GNDD*
X143256000Y-62230000D03*
G04 #@! TO.P,J6,40*
G04 #@! TO.N,N/C*
X143256000Y-59690000D03*
G04 #@! TD*
G04 #@! TO.P,J1,15*
G04 #@! TO.N,H_SDA*
X148082000Y-102870000D03*
G04 #@! TO.P,J1,14*
G04 #@! TO.N,H_SCL*
X148082000Y-100330000D03*
G04 #@! TO.P,J1,13*
G04 #@! TO.N,Net-(J1-Pad13)*
X148082000Y-97790000D03*
G04 #@! TO.P,J1,12*
G04 #@! TO.N,GNDD*
X148082000Y-95250000D03*
G04 #@! TO.P,J1,11*
G04 #@! TO.N,Net-(J1-Pad11)*
X148082000Y-92710000D03*
G04 #@! TO.P,J1,10*
G04 #@! TO.N,Net-(J1-Pad10)*
X148082000Y-90170000D03*
G04 #@! TO.P,J1,9*
G04 #@! TO.N,Net-(J1-Pad9)*
X148082000Y-87630000D03*
G04 #@! TO.P,J1,8*
G04 #@! TO.N,+3V3*
X148082000Y-85090000D03*
G04 #@! TO.P,J1,7*
G04 #@! TO.N,Net-(J1-Pad7)*
X148082000Y-82550000D03*
G04 #@! TO.P,J1,6*
G04 #@! TO.N,Net-(J1-Pad6)*
X148082000Y-80010000D03*
G04 #@! TO.P,J1,5*
G04 #@! TO.N,Net-(J1-Pad5)*
X148082000Y-77470000D03*
G04 #@! TO.P,J1,4*
G04 #@! TO.N,GNDD*
X148082000Y-74930000D03*
G04 #@! TO.P,J1,3*
G04 #@! TO.N,Net-(J1-Pad3)*
X148082000Y-72390000D03*
G04 #@! TO.P,J1,2*
G04 #@! TO.N,Net-(J1-Pad2)*
X148082000Y-69850000D03*
D10*
G04 #@! TO.P,J1,1*
G04 #@! TO.N,GNDD*
X148082000Y-67310000D03*
G04 #@! TD*
G04 #@! TO.P,J7,1*
G04 #@! TO.N,Net-(J6-Pad8)*
X90170000Y-67310000D03*
D11*
G04 #@! TO.P,J7,2*
G04 #@! TO.N,Net-(J6-Pad10)*
X90170000Y-69850000D03*
G04 #@! TO.P,J7,3*
G04 #@! TO.N,GNDD*
X90170000Y-72390000D03*
G04 #@! TO.P,J7,4*
G04 #@! TO.N,Net-(J6-Pad16)*
X90170000Y-74930000D03*
G04 #@! TO.P,J7,5*
G04 #@! TO.N,Net-(J6-Pad18)*
X90170000Y-77470000D03*
G04 #@! TO.P,J7,6*
G04 #@! TO.N,GNDD*
X90170000Y-80010000D03*
G04 #@! TO.P,J7,7*
G04 #@! TO.N,Net-(J6-Pad22)*
X90170000Y-82550000D03*
G04 #@! TO.P,J7,8*
G04 #@! TO.N,Net-(J6-Pad24)*
X90170000Y-85090000D03*
G04 #@! TO.P,J7,9*
G04 #@! TO.N,Net-(J6-Pad26)*
X90170000Y-87630000D03*
G04 #@! TO.P,J7,10*
G04 #@! TO.N,GNDD*
X90170000Y-90170000D03*
G04 #@! TO.P,J7,11*
X90170000Y-92710000D03*
G04 #@! TO.P,J7,12*
G04 #@! TO.N,Net-(J6-Pad32)*
X90170000Y-95250000D03*
G04 #@! TO.P,J7,13*
G04 #@! TO.N,+3V3*
X90170000Y-97790000D03*
G04 #@! TO.P,J7,14*
X90170000Y-100330000D03*
G04 #@! TO.P,J7,15*
G04 #@! TO.N,+5V_J4*
X90170000Y-102870000D03*
G04 #@! TD*
D12*
G04 #@! TO.N,+3V3*
G04 #@! TO.C,R1*
G36*
X136710779Y-79226144D02*
X136733834Y-79229563D01*
X136756443Y-79235227D01*
X136778387Y-79243079D01*
X136799457Y-79253044D01*
X136819448Y-79265026D01*
X136838168Y-79278910D01*
X136855438Y-79294562D01*
X136871090Y-79311832D01*
X136884974Y-79330552D01*
X136896956Y-79350543D01*
X136906921Y-79371613D01*
X136914773Y-79393557D01*
X136920437Y-79416166D01*
X136923856Y-79439221D01*
X136925000Y-79462500D01*
X136925000Y-79937500D01*
X136923856Y-79960779D01*
X136920437Y-79983834D01*
X136914773Y-80006443D01*
X136906921Y-80028387D01*
X136896956Y-80049457D01*
X136884974Y-80069448D01*
X136871090Y-80088168D01*
X136855438Y-80105438D01*
X136838168Y-80121090D01*
X136819448Y-80134974D01*
X136799457Y-80146956D01*
X136778387Y-80156921D01*
X136756443Y-80164773D01*
X136733834Y-80170437D01*
X136710779Y-80173856D01*
X136687500Y-80175000D01*
X136112500Y-80175000D01*
X136089221Y-80173856D01*
X136066166Y-80170437D01*
X136043557Y-80164773D01*
X136021613Y-80156921D01*
X136000543Y-80146956D01*
X135980552Y-80134974D01*
X135961832Y-80121090D01*
X135944562Y-80105438D01*
X135928910Y-80088168D01*
X135915026Y-80069448D01*
X135903044Y-80049457D01*
X135893079Y-80028387D01*
X135885227Y-80006443D01*
X135879563Y-79983834D01*
X135876144Y-79960779D01*
X135875000Y-79937500D01*
X135875000Y-79462500D01*
X135876144Y-79439221D01*
X135879563Y-79416166D01*
X135885227Y-79393557D01*
X135893079Y-79371613D01*
X135903044Y-79350543D01*
X135915026Y-79330552D01*
X135928910Y-79311832D01*
X135944562Y-79294562D01*
X135961832Y-79278910D01*
X135980552Y-79265026D01*
X136000543Y-79253044D01*
X136021613Y-79243079D01*
X136043557Y-79235227D01*
X136066166Y-79229563D01*
X136089221Y-79226144D01*
X136112500Y-79225000D01*
X136687500Y-79225000D01*
X136710779Y-79226144D01*
X136710779Y-79226144D01*
G37*
D13*
G04 #@! TD*
G04 #@! TO.P,R1,1*
G04 #@! TO.N,+3V3*
X136400000Y-79700000D03*
D12*
G04 #@! TO.N,H_SDA*
G04 #@! TO.C,R1*
G36*
X138460779Y-79226144D02*
X138483834Y-79229563D01*
X138506443Y-79235227D01*
X138528387Y-79243079D01*
X138549457Y-79253044D01*
X138569448Y-79265026D01*
X138588168Y-79278910D01*
X138605438Y-79294562D01*
X138621090Y-79311832D01*
X138634974Y-79330552D01*
X138646956Y-79350543D01*
X138656921Y-79371613D01*
X138664773Y-79393557D01*
X138670437Y-79416166D01*
X138673856Y-79439221D01*
X138675000Y-79462500D01*
X138675000Y-79937500D01*
X138673856Y-79960779D01*
X138670437Y-79983834D01*
X138664773Y-80006443D01*
X138656921Y-80028387D01*
X138646956Y-80049457D01*
X138634974Y-80069448D01*
X138621090Y-80088168D01*
X138605438Y-80105438D01*
X138588168Y-80121090D01*
X138569448Y-80134974D01*
X138549457Y-80146956D01*
X138528387Y-80156921D01*
X138506443Y-80164773D01*
X138483834Y-80170437D01*
X138460779Y-80173856D01*
X138437500Y-80175000D01*
X137862500Y-80175000D01*
X137839221Y-80173856D01*
X137816166Y-80170437D01*
X137793557Y-80164773D01*
X137771613Y-80156921D01*
X137750543Y-80146956D01*
X137730552Y-80134974D01*
X137711832Y-80121090D01*
X137694562Y-80105438D01*
X137678910Y-80088168D01*
X137665026Y-80069448D01*
X137653044Y-80049457D01*
X137643079Y-80028387D01*
X137635227Y-80006443D01*
X137629563Y-79983834D01*
X137626144Y-79960779D01*
X137625000Y-79937500D01*
X137625000Y-79462500D01*
X137626144Y-79439221D01*
X137629563Y-79416166D01*
X137635227Y-79393557D01*
X137643079Y-79371613D01*
X137653044Y-79350543D01*
X137665026Y-79330552D01*
X137678910Y-79311832D01*
X137694562Y-79294562D01*
X137711832Y-79278910D01*
X137730552Y-79265026D01*
X137750543Y-79253044D01*
X137771613Y-79243079D01*
X137793557Y-79235227D01*
X137816166Y-79229563D01*
X137839221Y-79226144D01*
X137862500Y-79225000D01*
X138437500Y-79225000D01*
X138460779Y-79226144D01*
X138460779Y-79226144D01*
G37*
D13*
G04 #@! TD*
G04 #@! TO.P,R1,2*
G04 #@! TO.N,H_SDA*
X138150000Y-79700000D03*
D12*
G04 #@! TO.N,H_SCL*
G04 #@! TO.C,R2*
G36*
X142272179Y-80273544D02*
X142295234Y-80276963D01*
X142317843Y-80282627D01*
X142339787Y-80290479D01*
X142360857Y-80300444D01*
X142380848Y-80312426D01*
X142399568Y-80326310D01*
X142416838Y-80341962D01*
X142432490Y-80359232D01*
X142446374Y-80377952D01*
X142458356Y-80397943D01*
X142468321Y-80419013D01*
X142476173Y-80440957D01*
X142481837Y-80463566D01*
X142485256Y-80486621D01*
X142486400Y-80509900D01*
X142486400Y-81084900D01*
X142485256Y-81108179D01*
X142481837Y-81131234D01*
X142476173Y-81153843D01*
X142468321Y-81175787D01*
X142458356Y-81196857D01*
X142446374Y-81216848D01*
X142432490Y-81235568D01*
X142416838Y-81252838D01*
X142399568Y-81268490D01*
X142380848Y-81282374D01*
X142360857Y-81294356D01*
X142339787Y-81304321D01*
X142317843Y-81312173D01*
X142295234Y-81317837D01*
X142272179Y-81321256D01*
X142248900Y-81322400D01*
X141773900Y-81322400D01*
X141750621Y-81321256D01*
X141727566Y-81317837D01*
X141704957Y-81312173D01*
X141683013Y-81304321D01*
X141661943Y-81294356D01*
X141641952Y-81282374D01*
X141623232Y-81268490D01*
X141605962Y-81252838D01*
X141590310Y-81235568D01*
X141576426Y-81216848D01*
X141564444Y-81196857D01*
X141554479Y-81175787D01*
X141546627Y-81153843D01*
X141540963Y-81131234D01*
X141537544Y-81108179D01*
X141536400Y-81084900D01*
X141536400Y-80509900D01*
X141537544Y-80486621D01*
X141540963Y-80463566D01*
X141546627Y-80440957D01*
X141554479Y-80419013D01*
X141564444Y-80397943D01*
X141576426Y-80377952D01*
X141590310Y-80359232D01*
X141605962Y-80341962D01*
X141623232Y-80326310D01*
X141641952Y-80312426D01*
X141661943Y-80300444D01*
X141683013Y-80290479D01*
X141704957Y-80282627D01*
X141727566Y-80276963D01*
X141750621Y-80273544D01*
X141773900Y-80272400D01*
X142248900Y-80272400D01*
X142272179Y-80273544D01*
X142272179Y-80273544D01*
G37*
D13*
G04 #@! TD*
G04 #@! TO.P,R2,2*
G04 #@! TO.N,H_SCL*
X142011400Y-80797400D03*
D12*
G04 #@! TO.N,+3V3*
G04 #@! TO.C,R2*
G36*
X142272179Y-82023544D02*
X142295234Y-82026963D01*
X142317843Y-82032627D01*
X142339787Y-82040479D01*
X142360857Y-82050444D01*
X142380848Y-82062426D01*
X142399568Y-82076310D01*
X142416838Y-82091962D01*
X142432490Y-82109232D01*
X142446374Y-82127952D01*
X142458356Y-82147943D01*
X142468321Y-82169013D01*
X142476173Y-82190957D01*
X142481837Y-82213566D01*
X142485256Y-82236621D01*
X142486400Y-82259900D01*
X142486400Y-82834900D01*
X142485256Y-82858179D01*
X142481837Y-82881234D01*
X142476173Y-82903843D01*
X142468321Y-82925787D01*
X142458356Y-82946857D01*
X142446374Y-82966848D01*
X142432490Y-82985568D01*
X142416838Y-83002838D01*
X142399568Y-83018490D01*
X142380848Y-83032374D01*
X142360857Y-83044356D01*
X142339787Y-83054321D01*
X142317843Y-83062173D01*
X142295234Y-83067837D01*
X142272179Y-83071256D01*
X142248900Y-83072400D01*
X141773900Y-83072400D01*
X141750621Y-83071256D01*
X141727566Y-83067837D01*
X141704957Y-83062173D01*
X141683013Y-83054321D01*
X141661943Y-83044356D01*
X141641952Y-83032374D01*
X141623232Y-83018490D01*
X141605962Y-83002838D01*
X141590310Y-82985568D01*
X141576426Y-82966848D01*
X141564444Y-82946857D01*
X141554479Y-82925787D01*
X141546627Y-82903843D01*
X141540963Y-82881234D01*
X141537544Y-82858179D01*
X141536400Y-82834900D01*
X141536400Y-82259900D01*
X141537544Y-82236621D01*
X141540963Y-82213566D01*
X141546627Y-82190957D01*
X141554479Y-82169013D01*
X141564444Y-82147943D01*
X141576426Y-82127952D01*
X141590310Y-82109232D01*
X141605962Y-82091962D01*
X141623232Y-82076310D01*
X141641952Y-82062426D01*
X141661943Y-82050444D01*
X141683013Y-82040479D01*
X141704957Y-82032627D01*
X141727566Y-82026963D01*
X141750621Y-82023544D01*
X141773900Y-82022400D01*
X142248900Y-82022400D01*
X142272179Y-82023544D01*
X142272179Y-82023544D01*
G37*
D13*
G04 #@! TD*
G04 #@! TO.P,R2,1*
G04 #@! TO.N,+3V3*
X142011400Y-82547400D03*
D14*
G04 #@! TO.P,U1,1*
G04 #@! TO.N,Net-(U1-Pad1)*
X130793000Y-72440800D03*
G04 #@! TO.P,U1,2*
G04 #@! TO.N,Net-(U1-Pad2)*
X130793000Y-73710800D03*
G04 #@! TO.P,U1,3*
G04 #@! TO.N,Net-(BT1-Pad1)*
X130793000Y-74980800D03*
G04 #@! TO.P,U1,4*
G04 #@! TO.N,GNDD*
X130793000Y-76250800D03*
G04 #@! TO.P,U1,5*
G04 #@! TO.N,H_SDA*
X138193000Y-76250800D03*
G04 #@! TO.P,U1,6*
G04 #@! TO.N,H_SCL*
X138193000Y-74980800D03*
G04 #@! TO.P,U1,7*
G04 #@! TO.N,N/C*
X138193000Y-73710800D03*
G04 #@! TO.P,U1,8*
G04 #@! TO.N,+5V_J4*
X138193000Y-72440800D03*
G04 #@! TD*
D15*
G04 #@! TO.P,U2,1*
G04 #@! TO.N,Net-(R5-Pad2)*
X131826000Y-82880200D03*
G04 #@! TO.P,U2,2*
G04 #@! TO.N,Net-(R3-Pad2)*
X131826000Y-84150200D03*
G04 #@! TO.P,U2,3*
G04 #@! TO.N,GNDD*
X131826000Y-85420200D03*
G04 #@! TO.P,U2,4*
X131826000Y-86690200D03*
G04 #@! TO.P,U2,5*
G04 #@! TO.N,H_SDA*
X137226000Y-86690200D03*
G04 #@! TO.P,U2,6*
G04 #@! TO.N,H_SCL*
X137226000Y-85420200D03*
G04 #@! TO.P,U2,7*
G04 #@! TO.N,GNDD*
X137226000Y-84150200D03*
G04 #@! TO.P,U2,8*
G04 #@! TO.N,+3V3*
X137226000Y-82880200D03*
G04 #@! TD*
D16*
G04 #@! TO.P,Y1,1*
G04 #@! TO.N,Net-(U1-Pad1)*
X126500000Y-71250000D03*
G04 #@! TO.P,Y1,2*
G04 #@! TO.N,Net-(U1-Pad2)*
X126500000Y-74500000D03*
G04 #@! TD*
D17*
G04 #@! TO.P,BT1,1*
G04 #@! TO.N,Net-(BT1-Pad1)*
X107910000Y-101060000D03*
G04 #@! TO.P,BT1,2*
G04 #@! TO.N,GNDD*
X107910000Y-77060000D03*
G04 #@! TD*
D12*
G04 #@! TO.N,Net-(R3-Pad2)*
G04 #@! TO.C,R3*
G36*
X128085779Y-85026144D02*
X128108834Y-85029563D01*
X128131443Y-85035227D01*
X128153387Y-85043079D01*
X128174457Y-85053044D01*
X128194448Y-85065026D01*
X128213168Y-85078910D01*
X128230438Y-85094562D01*
X128246090Y-85111832D01*
X128259974Y-85130552D01*
X128271956Y-85150543D01*
X128281921Y-85171613D01*
X128289773Y-85193557D01*
X128295437Y-85216166D01*
X128298856Y-85239221D01*
X128300000Y-85262500D01*
X128300000Y-85737500D01*
X128298856Y-85760779D01*
X128295437Y-85783834D01*
X128289773Y-85806443D01*
X128281921Y-85828387D01*
X128271956Y-85849457D01*
X128259974Y-85869448D01*
X128246090Y-85888168D01*
X128230438Y-85905438D01*
X128213168Y-85921090D01*
X128194448Y-85934974D01*
X128174457Y-85946956D01*
X128153387Y-85956921D01*
X128131443Y-85964773D01*
X128108834Y-85970437D01*
X128085779Y-85973856D01*
X128062500Y-85975000D01*
X127487500Y-85975000D01*
X127464221Y-85973856D01*
X127441166Y-85970437D01*
X127418557Y-85964773D01*
X127396613Y-85956921D01*
X127375543Y-85946956D01*
X127355552Y-85934974D01*
X127336832Y-85921090D01*
X127319562Y-85905438D01*
X127303910Y-85888168D01*
X127290026Y-85869448D01*
X127278044Y-85849457D01*
X127268079Y-85828387D01*
X127260227Y-85806443D01*
X127254563Y-85783834D01*
X127251144Y-85760779D01*
X127250000Y-85737500D01*
X127250000Y-85262500D01*
X127251144Y-85239221D01*
X127254563Y-85216166D01*
X127260227Y-85193557D01*
X127268079Y-85171613D01*
X127278044Y-85150543D01*
X127290026Y-85130552D01*
X127303910Y-85111832D01*
X127319562Y-85094562D01*
X127336832Y-85078910D01*
X127355552Y-85065026D01*
X127375543Y-85053044D01*
X127396613Y-85043079D01*
X127418557Y-85035227D01*
X127441166Y-85029563D01*
X127464221Y-85026144D01*
X127487500Y-85025000D01*
X128062500Y-85025000D01*
X128085779Y-85026144D01*
X128085779Y-85026144D01*
G37*
D13*
G04 #@! TD*
G04 #@! TO.P,R3,2*
G04 #@! TO.N,Net-(R3-Pad2)*
X127775000Y-85500000D03*
D12*
G04 #@! TO.N,+3V3*
G04 #@! TO.C,R3*
G36*
X126335779Y-85026144D02*
X126358834Y-85029563D01*
X126381443Y-85035227D01*
X126403387Y-85043079D01*
X126424457Y-85053044D01*
X126444448Y-85065026D01*
X126463168Y-85078910D01*
X126480438Y-85094562D01*
X126496090Y-85111832D01*
X126509974Y-85130552D01*
X126521956Y-85150543D01*
X126531921Y-85171613D01*
X126539773Y-85193557D01*
X126545437Y-85216166D01*
X126548856Y-85239221D01*
X126550000Y-85262500D01*
X126550000Y-85737500D01*
X126548856Y-85760779D01*
X126545437Y-85783834D01*
X126539773Y-85806443D01*
X126531921Y-85828387D01*
X126521956Y-85849457D01*
X126509974Y-85869448D01*
X126496090Y-85888168D01*
X126480438Y-85905438D01*
X126463168Y-85921090D01*
X126444448Y-85934974D01*
X126424457Y-85946956D01*
X126403387Y-85956921D01*
X126381443Y-85964773D01*
X126358834Y-85970437D01*
X126335779Y-85973856D01*
X126312500Y-85975000D01*
X125737500Y-85975000D01*
X125714221Y-85973856D01*
X125691166Y-85970437D01*
X125668557Y-85964773D01*
X125646613Y-85956921D01*
X125625543Y-85946956D01*
X125605552Y-85934974D01*
X125586832Y-85921090D01*
X125569562Y-85905438D01*
X125553910Y-85888168D01*
X125540026Y-85869448D01*
X125528044Y-85849457D01*
X125518079Y-85828387D01*
X125510227Y-85806443D01*
X125504563Y-85783834D01*
X125501144Y-85760779D01*
X125500000Y-85737500D01*
X125500000Y-85262500D01*
X125501144Y-85239221D01*
X125504563Y-85216166D01*
X125510227Y-85193557D01*
X125518079Y-85171613D01*
X125528044Y-85150543D01*
X125540026Y-85130552D01*
X125553910Y-85111832D01*
X125569562Y-85094562D01*
X125586832Y-85078910D01*
X125605552Y-85065026D01*
X125625543Y-85053044D01*
X125646613Y-85043079D01*
X125668557Y-85035227D01*
X125691166Y-85029563D01*
X125714221Y-85026144D01*
X125737500Y-85025000D01*
X126312500Y-85025000D01*
X126335779Y-85026144D01*
X126335779Y-85026144D01*
G37*
D13*
G04 #@! TD*
G04 #@! TO.P,R3,1*
G04 #@! TO.N,+3V3*
X126025000Y-85500000D03*
D12*
G04 #@! TO.N,GNDD*
G04 #@! TO.C,R4*
G36*
X126360779Y-83426144D02*
X126383834Y-83429563D01*
X126406443Y-83435227D01*
X126428387Y-83443079D01*
X126449457Y-83453044D01*
X126469448Y-83465026D01*
X126488168Y-83478910D01*
X126505438Y-83494562D01*
X126521090Y-83511832D01*
X126534974Y-83530552D01*
X126546956Y-83550543D01*
X126556921Y-83571613D01*
X126564773Y-83593557D01*
X126570437Y-83616166D01*
X126573856Y-83639221D01*
X126575000Y-83662500D01*
X126575000Y-84137500D01*
X126573856Y-84160779D01*
X126570437Y-84183834D01*
X126564773Y-84206443D01*
X126556921Y-84228387D01*
X126546956Y-84249457D01*
X126534974Y-84269448D01*
X126521090Y-84288168D01*
X126505438Y-84305438D01*
X126488168Y-84321090D01*
X126469448Y-84334974D01*
X126449457Y-84346956D01*
X126428387Y-84356921D01*
X126406443Y-84364773D01*
X126383834Y-84370437D01*
X126360779Y-84373856D01*
X126337500Y-84375000D01*
X125762500Y-84375000D01*
X125739221Y-84373856D01*
X125716166Y-84370437D01*
X125693557Y-84364773D01*
X125671613Y-84356921D01*
X125650543Y-84346956D01*
X125630552Y-84334974D01*
X125611832Y-84321090D01*
X125594562Y-84305438D01*
X125578910Y-84288168D01*
X125565026Y-84269448D01*
X125553044Y-84249457D01*
X125543079Y-84228387D01*
X125535227Y-84206443D01*
X125529563Y-84183834D01*
X125526144Y-84160779D01*
X125525000Y-84137500D01*
X125525000Y-83662500D01*
X125526144Y-83639221D01*
X125529563Y-83616166D01*
X125535227Y-83593557D01*
X125543079Y-83571613D01*
X125553044Y-83550543D01*
X125565026Y-83530552D01*
X125578910Y-83511832D01*
X125594562Y-83494562D01*
X125611832Y-83478910D01*
X125630552Y-83465026D01*
X125650543Y-83453044D01*
X125671613Y-83443079D01*
X125693557Y-83435227D01*
X125716166Y-83429563D01*
X125739221Y-83426144D01*
X125762500Y-83425000D01*
X126337500Y-83425000D01*
X126360779Y-83426144D01*
X126360779Y-83426144D01*
G37*
D13*
G04 #@! TD*
G04 #@! TO.P,R4,1*
G04 #@! TO.N,GNDD*
X126050000Y-83900000D03*
D12*
G04 #@! TO.N,Net-(R3-Pad2)*
G04 #@! TO.C,R4*
G36*
X128110779Y-83426144D02*
X128133834Y-83429563D01*
X128156443Y-83435227D01*
X128178387Y-83443079D01*
X128199457Y-83453044D01*
X128219448Y-83465026D01*
X128238168Y-83478910D01*
X128255438Y-83494562D01*
X128271090Y-83511832D01*
X128284974Y-83530552D01*
X128296956Y-83550543D01*
X128306921Y-83571613D01*
X128314773Y-83593557D01*
X128320437Y-83616166D01*
X128323856Y-83639221D01*
X128325000Y-83662500D01*
X128325000Y-84137500D01*
X128323856Y-84160779D01*
X128320437Y-84183834D01*
X128314773Y-84206443D01*
X128306921Y-84228387D01*
X128296956Y-84249457D01*
X128284974Y-84269448D01*
X128271090Y-84288168D01*
X128255438Y-84305438D01*
X128238168Y-84321090D01*
X128219448Y-84334974D01*
X128199457Y-84346956D01*
X128178387Y-84356921D01*
X128156443Y-84364773D01*
X128133834Y-84370437D01*
X128110779Y-84373856D01*
X128087500Y-84375000D01*
X127512500Y-84375000D01*
X127489221Y-84373856D01*
X127466166Y-84370437D01*
X127443557Y-84364773D01*
X127421613Y-84356921D01*
X127400543Y-84346956D01*
X127380552Y-84334974D01*
X127361832Y-84321090D01*
X127344562Y-84305438D01*
X127328910Y-84288168D01*
X127315026Y-84269448D01*
X127303044Y-84249457D01*
X127293079Y-84228387D01*
X127285227Y-84206443D01*
X127279563Y-84183834D01*
X127276144Y-84160779D01*
X127275000Y-84137500D01*
X127275000Y-83662500D01*
X127276144Y-83639221D01*
X127279563Y-83616166D01*
X127285227Y-83593557D01*
X127293079Y-83571613D01*
X127303044Y-83550543D01*
X127315026Y-83530552D01*
X127328910Y-83511832D01*
X127344562Y-83494562D01*
X127361832Y-83478910D01*
X127380552Y-83465026D01*
X127400543Y-83453044D01*
X127421613Y-83443079D01*
X127443557Y-83435227D01*
X127466166Y-83429563D01*
X127489221Y-83426144D01*
X127512500Y-83425000D01*
X128087500Y-83425000D01*
X128110779Y-83426144D01*
X128110779Y-83426144D01*
G37*
D13*
G04 #@! TD*
G04 #@! TO.P,R4,2*
G04 #@! TO.N,Net-(R3-Pad2)*
X127800000Y-83900000D03*
D12*
G04 #@! TO.N,Net-(R5-Pad2)*
G04 #@! TO.C,R5*
G36*
X128160779Y-79826144D02*
X128183834Y-79829563D01*
X128206443Y-79835227D01*
X128228387Y-79843079D01*
X128249457Y-79853044D01*
X128269448Y-79865026D01*
X128288168Y-79878910D01*
X128305438Y-79894562D01*
X128321090Y-79911832D01*
X128334974Y-79930552D01*
X128346956Y-79950543D01*
X128356921Y-79971613D01*
X128364773Y-79993557D01*
X128370437Y-80016166D01*
X128373856Y-80039221D01*
X128375000Y-80062500D01*
X128375000Y-80537500D01*
X128373856Y-80560779D01*
X128370437Y-80583834D01*
X128364773Y-80606443D01*
X128356921Y-80628387D01*
X128346956Y-80649457D01*
X128334974Y-80669448D01*
X128321090Y-80688168D01*
X128305438Y-80705438D01*
X128288168Y-80721090D01*
X128269448Y-80734974D01*
X128249457Y-80746956D01*
X128228387Y-80756921D01*
X128206443Y-80764773D01*
X128183834Y-80770437D01*
X128160779Y-80773856D01*
X128137500Y-80775000D01*
X127562500Y-80775000D01*
X127539221Y-80773856D01*
X127516166Y-80770437D01*
X127493557Y-80764773D01*
X127471613Y-80756921D01*
X127450543Y-80746956D01*
X127430552Y-80734974D01*
X127411832Y-80721090D01*
X127394562Y-80705438D01*
X127378910Y-80688168D01*
X127365026Y-80669448D01*
X127353044Y-80649457D01*
X127343079Y-80628387D01*
X127335227Y-80606443D01*
X127329563Y-80583834D01*
X127326144Y-80560779D01*
X127325000Y-80537500D01*
X127325000Y-80062500D01*
X127326144Y-80039221D01*
X127329563Y-80016166D01*
X127335227Y-79993557D01*
X127343079Y-79971613D01*
X127353044Y-79950543D01*
X127365026Y-79930552D01*
X127378910Y-79911832D01*
X127394562Y-79894562D01*
X127411832Y-79878910D01*
X127430552Y-79865026D01*
X127450543Y-79853044D01*
X127471613Y-79843079D01*
X127493557Y-79835227D01*
X127516166Y-79829563D01*
X127539221Y-79826144D01*
X127562500Y-79825000D01*
X128137500Y-79825000D01*
X128160779Y-79826144D01*
X128160779Y-79826144D01*
G37*
D13*
G04 #@! TD*
G04 #@! TO.P,R5,2*
G04 #@! TO.N,Net-(R5-Pad2)*
X127850000Y-80300000D03*
D12*
G04 #@! TO.N,+3V3*
G04 #@! TO.C,R5*
G36*
X126410779Y-79826144D02*
X126433834Y-79829563D01*
X126456443Y-79835227D01*
X126478387Y-79843079D01*
X126499457Y-79853044D01*
X126519448Y-79865026D01*
X126538168Y-79878910D01*
X126555438Y-79894562D01*
X126571090Y-79911832D01*
X126584974Y-79930552D01*
X126596956Y-79950543D01*
X126606921Y-79971613D01*
X126614773Y-79993557D01*
X126620437Y-80016166D01*
X126623856Y-80039221D01*
X126625000Y-80062500D01*
X126625000Y-80537500D01*
X126623856Y-80560779D01*
X126620437Y-80583834D01*
X126614773Y-80606443D01*
X126606921Y-80628387D01*
X126596956Y-80649457D01*
X126584974Y-80669448D01*
X126571090Y-80688168D01*
X126555438Y-80705438D01*
X126538168Y-80721090D01*
X126519448Y-80734974D01*
X126499457Y-80746956D01*
X126478387Y-80756921D01*
X126456443Y-80764773D01*
X126433834Y-80770437D01*
X126410779Y-80773856D01*
X126387500Y-80775000D01*
X125812500Y-80775000D01*
X125789221Y-80773856D01*
X125766166Y-80770437D01*
X125743557Y-80764773D01*
X125721613Y-80756921D01*
X125700543Y-80746956D01*
X125680552Y-80734974D01*
X125661832Y-80721090D01*
X125644562Y-80705438D01*
X125628910Y-80688168D01*
X125615026Y-80669448D01*
X125603044Y-80649457D01*
X125593079Y-80628387D01*
X125585227Y-80606443D01*
X125579563Y-80583834D01*
X125576144Y-80560779D01*
X125575000Y-80537500D01*
X125575000Y-80062500D01*
X125576144Y-80039221D01*
X125579563Y-80016166D01*
X125585227Y-79993557D01*
X125593079Y-79971613D01*
X125603044Y-79950543D01*
X125615026Y-79930552D01*
X125628910Y-79911832D01*
X125644562Y-79894562D01*
X125661832Y-79878910D01*
X125680552Y-79865026D01*
X125700543Y-79853044D01*
X125721613Y-79843079D01*
X125743557Y-79835227D01*
X125766166Y-79829563D01*
X125789221Y-79826144D01*
X125812500Y-79825000D01*
X126387500Y-79825000D01*
X126410779Y-79826144D01*
X126410779Y-79826144D01*
G37*
D13*
G04 #@! TD*
G04 #@! TO.P,R5,1*
G04 #@! TO.N,+3V3*
X126100000Y-80300000D03*
D12*
G04 #@! TO.N,GNDD*
G04 #@! TO.C,R6*
G36*
X126360779Y-81426144D02*
X126383834Y-81429563D01*
X126406443Y-81435227D01*
X126428387Y-81443079D01*
X126449457Y-81453044D01*
X126469448Y-81465026D01*
X126488168Y-81478910D01*
X126505438Y-81494562D01*
X126521090Y-81511832D01*
X126534974Y-81530552D01*
X126546956Y-81550543D01*
X126556921Y-81571613D01*
X126564773Y-81593557D01*
X126570437Y-81616166D01*
X126573856Y-81639221D01*
X126575000Y-81662500D01*
X126575000Y-82137500D01*
X126573856Y-82160779D01*
X126570437Y-82183834D01*
X126564773Y-82206443D01*
X126556921Y-82228387D01*
X126546956Y-82249457D01*
X126534974Y-82269448D01*
X126521090Y-82288168D01*
X126505438Y-82305438D01*
X126488168Y-82321090D01*
X126469448Y-82334974D01*
X126449457Y-82346956D01*
X126428387Y-82356921D01*
X126406443Y-82364773D01*
X126383834Y-82370437D01*
X126360779Y-82373856D01*
X126337500Y-82375000D01*
X125762500Y-82375000D01*
X125739221Y-82373856D01*
X125716166Y-82370437D01*
X125693557Y-82364773D01*
X125671613Y-82356921D01*
X125650543Y-82346956D01*
X125630552Y-82334974D01*
X125611832Y-82321090D01*
X125594562Y-82305438D01*
X125578910Y-82288168D01*
X125565026Y-82269448D01*
X125553044Y-82249457D01*
X125543079Y-82228387D01*
X125535227Y-82206443D01*
X125529563Y-82183834D01*
X125526144Y-82160779D01*
X125525000Y-82137500D01*
X125525000Y-81662500D01*
X125526144Y-81639221D01*
X125529563Y-81616166D01*
X125535227Y-81593557D01*
X125543079Y-81571613D01*
X125553044Y-81550543D01*
X125565026Y-81530552D01*
X125578910Y-81511832D01*
X125594562Y-81494562D01*
X125611832Y-81478910D01*
X125630552Y-81465026D01*
X125650543Y-81453044D01*
X125671613Y-81443079D01*
X125693557Y-81435227D01*
X125716166Y-81429563D01*
X125739221Y-81426144D01*
X125762500Y-81425000D01*
X126337500Y-81425000D01*
X126360779Y-81426144D01*
X126360779Y-81426144D01*
G37*
D13*
G04 #@! TD*
G04 #@! TO.P,R6,1*
G04 #@! TO.N,GNDD*
X126050000Y-81900000D03*
D12*
G04 #@! TO.N,Net-(R5-Pad2)*
G04 #@! TO.C,R6*
G36*
X128110779Y-81426144D02*
X128133834Y-81429563D01*
X128156443Y-81435227D01*
X128178387Y-81443079D01*
X128199457Y-81453044D01*
X128219448Y-81465026D01*
X128238168Y-81478910D01*
X128255438Y-81494562D01*
X128271090Y-81511832D01*
X128284974Y-81530552D01*
X128296956Y-81550543D01*
X128306921Y-81571613D01*
X128314773Y-81593557D01*
X128320437Y-81616166D01*
X128323856Y-81639221D01*
X128325000Y-81662500D01*
X128325000Y-82137500D01*
X128323856Y-82160779D01*
X128320437Y-82183834D01*
X128314773Y-82206443D01*
X128306921Y-82228387D01*
X128296956Y-82249457D01*
X128284974Y-82269448D01*
X128271090Y-82288168D01*
X128255438Y-82305438D01*
X128238168Y-82321090D01*
X128219448Y-82334974D01*
X128199457Y-82346956D01*
X128178387Y-82356921D01*
X128156443Y-82364773D01*
X128133834Y-82370437D01*
X128110779Y-82373856D01*
X128087500Y-82375000D01*
X127512500Y-82375000D01*
X127489221Y-82373856D01*
X127466166Y-82370437D01*
X127443557Y-82364773D01*
X127421613Y-82356921D01*
X127400543Y-82346956D01*
X127380552Y-82334974D01*
X127361832Y-82321090D01*
X127344562Y-82305438D01*
X127328910Y-82288168D01*
X127315026Y-82269448D01*
X127303044Y-82249457D01*
X127293079Y-82228387D01*
X127285227Y-82206443D01*
X127279563Y-82183834D01*
X127276144Y-82160779D01*
X127275000Y-82137500D01*
X127275000Y-81662500D01*
X127276144Y-81639221D01*
X127279563Y-81616166D01*
X127285227Y-81593557D01*
X127293079Y-81571613D01*
X127303044Y-81550543D01*
X127315026Y-81530552D01*
X127328910Y-81511832D01*
X127344562Y-81494562D01*
X127361832Y-81478910D01*
X127380552Y-81465026D01*
X127400543Y-81453044D01*
X127421613Y-81443079D01*
X127443557Y-81435227D01*
X127466166Y-81429563D01*
X127489221Y-81426144D01*
X127512500Y-81425000D01*
X128087500Y-81425000D01*
X128110779Y-81426144D01*
X128110779Y-81426144D01*
G37*
D13*
G04 #@! TD*
G04 #@! TO.P,R6,2*
G04 #@! TO.N,Net-(R5-Pad2)*
X127800000Y-81900000D03*
D18*
G04 #@! TO.N,+3V3*
X95300000Y-68300000D03*
X97600000Y-65100000D03*
D19*
G04 #@! TO.N,Net-(J6-Pad16)*
X94511084Y-70411084D03*
X99050000Y-65650000D03*
G04 #@! TO.N,Net-(J6-Pad18)*
X94500004Y-71400000D03*
X99849645Y-66600002D03*
G04 #@! TO.N,Net-(J6-Pad22)*
X103900000Y-65175000D03*
G04 #@! TO.N,Net-(J6-Pad24)*
X105675000Y-64999990D03*
G04 #@! TO.N,H_SDA*
X139700000Y-82500000D03*
X139500000Y-86100000D03*
X98675000Y-65000000D03*
X100749010Y-69000010D03*
G04 #@! TO.N,H_SCL*
X140300000Y-85000000D03*
X140427262Y-82621282D03*
X100100000Y-65025000D03*
X101450000Y-68849990D03*
G04 #@! TO.N,GNDD*
X127400000Y-78400000D03*
X119175000Y-64175000D03*
X102250000Y-64450000D03*
X109300000Y-64900000D03*
X124200000Y-82900000D03*
G04 #@! TD*
D20*
G04 #@! TO.N,+3V3*
X138701000Y-82880200D02*
X137226000Y-82880200D01*
X139700000Y-83879200D02*
X138701000Y-82880200D01*
X139700000Y-83900000D02*
X139700000Y-83879200D01*
X142011400Y-83888600D02*
X142011400Y-82547400D01*
X142000000Y-83900000D02*
X142011400Y-83888600D01*
X142000000Y-83900000D02*
X139700000Y-83900000D01*
X138701000Y-82880200D02*
X138701000Y-81901000D01*
X138701000Y-81901000D02*
X137900000Y-81100000D01*
X137900000Y-81100000D02*
X136900000Y-81100000D01*
X136400000Y-80600000D02*
X136400000Y-79700000D01*
X136900000Y-81100000D02*
X136400000Y-80600000D01*
X94996000Y-63996000D02*
X97000000Y-66000000D01*
X94996000Y-62230000D02*
X94996000Y-63996000D01*
D21*
X115300000Y-66000000D02*
X115316000Y-65984000D01*
D20*
X90170000Y-100330000D02*
X90170000Y-97790000D01*
X90170000Y-97790000D02*
X91510000Y-97790000D01*
X91510000Y-97790000D02*
X95300000Y-94000000D01*
X95300000Y-94000000D02*
X95300000Y-68300000D01*
X97350001Y-65649999D02*
X97000000Y-66000000D01*
X97350001Y-65349999D02*
X97350001Y-65649999D01*
X97600000Y-65100000D02*
X97350001Y-65349999D01*
X143500000Y-83100000D02*
X142700000Y-83900000D01*
X142700000Y-83900000D02*
X142000000Y-83900000D01*
X143500000Y-83100000D02*
X143550000Y-83100000D01*
X145540000Y-85090000D02*
X148082000Y-85090000D01*
X143550000Y-83100000D02*
X145540000Y-85090000D01*
X115300000Y-62246000D02*
X115316000Y-62230000D01*
X115300000Y-65968000D02*
X115300000Y-62246000D01*
X115316000Y-65984000D02*
X115300000Y-65968000D01*
X115300000Y-66975000D02*
X115300000Y-66000000D01*
X114900000Y-67375000D02*
X115300000Y-66975000D01*
X98375000Y-67375000D02*
X114900000Y-67375000D01*
X97000000Y-66000000D02*
X98375000Y-67375000D01*
X143500000Y-77800000D02*
X143500000Y-83100000D01*
X138300000Y-67375000D02*
X140575000Y-69650000D01*
X115800000Y-67375000D02*
X138300000Y-67375000D01*
X115300000Y-66875000D02*
X115800000Y-67375000D01*
X140575000Y-74875000D02*
X143500000Y-77800000D01*
X140575000Y-69650000D02*
X140575000Y-74875000D01*
X115300000Y-66000000D02*
X115300000Y-66875000D01*
D22*
X122600000Y-79600000D02*
X122600000Y-80700000D01*
X123199999Y-79000001D02*
X122600000Y-79600000D01*
X132900001Y-79000001D02*
X123199999Y-79000001D01*
X133600000Y-79700000D02*
X132900001Y-79000001D01*
X136400000Y-79700000D02*
X133600000Y-79700000D01*
X123400000Y-85500000D02*
X126025000Y-85500000D01*
X122600000Y-84700000D02*
X123400000Y-85500000D01*
X122600000Y-80700000D02*
X122600000Y-84700000D01*
X122600000Y-80300000D02*
X122600000Y-80700000D01*
X126100000Y-80300000D02*
X122600000Y-80300000D01*
D21*
G04 #@! TO.N,Net-(J1-Pad3)*
X146690000Y-72390000D02*
X148082000Y-72390000D01*
X139350000Y-65050000D02*
X146690000Y-72390000D01*
X133096000Y-62230000D02*
X135916000Y-65050000D01*
X135916000Y-65050000D02*
X139350000Y-65050000D01*
G04 #@! TO.N,Net-(J1-Pad2)*
X139250000Y-64300000D02*
X144800000Y-69850000D01*
X137706000Y-64300000D02*
X139250000Y-64300000D01*
X144800000Y-69850000D02*
X148082000Y-69850000D01*
X135636000Y-62230000D02*
X137706000Y-64300000D01*
D20*
G04 #@! TO.N,+5V_J4*
X94996000Y-59690000D02*
X97536000Y-59690000D01*
X93300000Y-63700000D02*
X97000000Y-67400000D01*
X93300000Y-61386000D02*
X93300000Y-63700000D01*
X94996000Y-59690000D02*
X93300000Y-61386000D01*
X96350000Y-68050000D02*
X97000000Y-67400000D01*
X96350000Y-96690000D02*
X96350000Y-68050000D01*
X90170000Y-102870000D02*
X96350000Y-96690000D01*
X139284200Y-72440800D02*
X138193000Y-72440800D01*
X139850000Y-69975000D02*
X139850000Y-71875000D01*
X97000000Y-67400000D02*
X97749988Y-68149988D01*
X138024988Y-68149988D02*
X139850000Y-69975000D01*
X139850000Y-71875000D02*
X139284200Y-72440800D01*
X97749988Y-68149988D02*
X138024988Y-68149988D01*
D21*
G04 #@! TO.N,Net-(J6-Pad8)*
X90170000Y-65280000D02*
X90170000Y-67310000D01*
X92749989Y-59350012D02*
X92749989Y-62700011D01*
X101126001Y-58200001D02*
X93900000Y-58200001D01*
X92749989Y-62700011D02*
X90170000Y-65280000D01*
X93900000Y-58200001D02*
X92749989Y-59350012D01*
X102616000Y-59690000D02*
X101126001Y-58200001D01*
G04 #@! TO.N,Net-(J6-Pad10)*
X90150000Y-69850000D02*
X90170000Y-69850000D01*
X88400000Y-66450000D02*
X88400000Y-68600000D01*
X92349978Y-62500022D02*
X88400000Y-66450000D01*
X92349978Y-59184323D02*
X92349978Y-62500022D01*
X103265990Y-57799990D02*
X93734311Y-57799990D01*
X89650000Y-69850000D02*
X90150000Y-69850000D01*
X88400000Y-68600000D02*
X89650000Y-69850000D01*
X93734311Y-57799990D02*
X92349978Y-59184323D01*
X105156000Y-59690000D02*
X103265990Y-57799990D01*
G04 #@! TO.N,Net-(J6-Pad16)*
X94261085Y-70838915D02*
X94261085Y-70661083D01*
X94261085Y-70661083D02*
X94511084Y-70411084D01*
X90170000Y-74930000D02*
X94261085Y-70838915D01*
X99713645Y-65650000D02*
X99403553Y-65650000D01*
X100463645Y-66400000D02*
X99713645Y-65650000D01*
X111525000Y-60941000D02*
X111525000Y-64125000D01*
X112776000Y-59690000D02*
X111525000Y-60941000D01*
X111525000Y-64125000D02*
X109250000Y-66400000D01*
X99403553Y-65650000D02*
X99050000Y-65650000D01*
X109250000Y-66400000D02*
X100463645Y-66400000D01*
G04 #@! TO.N,Net-(J6-Pad18)*
X90170000Y-77470000D02*
X94500004Y-73139996D01*
X94500004Y-73139996D02*
X94500004Y-71753553D01*
X94500004Y-71753553D02*
X94500004Y-71400000D01*
X111400000Y-66800000D02*
X100049643Y-66800000D01*
X115316000Y-59690000D02*
X114050000Y-60956000D01*
X114050000Y-60956000D02*
X114050000Y-64150000D01*
X114050000Y-64150000D02*
X111400000Y-66800000D01*
X100049643Y-66800000D02*
X99849645Y-66600002D01*
G04 #@! TO.N,Net-(J6-Pad22)*
X108975000Y-63925000D02*
X107350001Y-65549999D01*
X107350001Y-65549999D02*
X104274999Y-65549999D01*
X120396000Y-59690000D02*
X119006001Y-58300001D01*
X109374999Y-58300001D02*
X108975000Y-58700000D01*
X119006001Y-58300001D02*
X109374999Y-58300001D01*
X104149999Y-65424999D02*
X103900000Y-65175000D01*
X104274999Y-65549999D02*
X104149999Y-65424999D01*
X108975000Y-58700000D02*
X108975000Y-63925000D01*
G04 #@! TO.N,Net-(J6-Pad24)*
X105924999Y-64749991D02*
X105675000Y-64999990D01*
X106425000Y-58450000D02*
X106425000Y-64249990D01*
X106425000Y-64249990D02*
X105924999Y-64749991D01*
X106975010Y-57899990D02*
X106425000Y-58450000D01*
X121145990Y-57899990D02*
X106975010Y-57899990D01*
X122936000Y-59690000D02*
X121145990Y-57899990D01*
D22*
G04 #@! TO.N,H_SDA*
X137235800Y-86700000D02*
X137226000Y-86690200D01*
X138900000Y-86700000D02*
X137235800Y-86700000D01*
X139500000Y-86100000D02*
X138900000Y-86700000D01*
X140100000Y-82100000D02*
X139700000Y-82500000D01*
X139650800Y-76250800D02*
X140100000Y-76700000D01*
X138193000Y-76250800D02*
X139650800Y-76250800D01*
X144870000Y-102870000D02*
X148082000Y-102870000D01*
X139500000Y-97500000D02*
X144870000Y-102870000D01*
X139500000Y-86100000D02*
X139500000Y-97500000D01*
X140100000Y-79700000D02*
X140100000Y-82100000D01*
X138775000Y-79700000D02*
X140100000Y-79700000D01*
X138150000Y-79700000D02*
X138775000Y-79700000D01*
X140100000Y-76700000D02*
X140100000Y-79700000D01*
D21*
X98675000Y-64646447D02*
X98675000Y-65000000D01*
X98675000Y-63369000D02*
X98675000Y-64646447D01*
X97536000Y-62230000D02*
X98675000Y-63369000D01*
X100749010Y-69124010D02*
X100749010Y-69000010D01*
X101025000Y-69400000D02*
X100749010Y-69124010D01*
X130200000Y-69400000D02*
X101025000Y-69400000D01*
X137050800Y-76250800D02*
X130200000Y-69400000D01*
X138193000Y-76250800D02*
X137050800Y-76250800D01*
D22*
G04 #@! TO.N,H_SCL*
X137246200Y-85400000D02*
X137226000Y-85420200D01*
X139900000Y-85400000D02*
X137246200Y-85400000D01*
X140300000Y-85000000D02*
X139900000Y-85400000D01*
X139280800Y-74980800D02*
X140677261Y-76377261D01*
X140677261Y-82371283D02*
X140427262Y-82621282D01*
X138193000Y-74980800D02*
X139280800Y-74980800D01*
X143830000Y-100330000D02*
X148082000Y-100330000D01*
X140300000Y-96800000D02*
X143830000Y-100330000D01*
X140300000Y-85000000D02*
X140300000Y-96800000D01*
X140679861Y-80797400D02*
X140677261Y-80800000D01*
X142011400Y-80797400D02*
X140679861Y-80797400D01*
X140677261Y-80800000D02*
X140677261Y-82371283D01*
X140677261Y-76377261D02*
X140677261Y-80800000D01*
D21*
X100076000Y-62230000D02*
X100076000Y-65001000D01*
X100076000Y-65001000D02*
X100100000Y-65025000D01*
X101803553Y-68849990D02*
X101450000Y-68849990D01*
X101803574Y-68850011D02*
X101803553Y-68849990D01*
X130375011Y-68850011D02*
X101803574Y-68850011D01*
X136505800Y-74980800D02*
X130375011Y-68850011D01*
X138193000Y-74980800D02*
X136505800Y-74980800D01*
D23*
G04 #@! TO.N,GNDD*
X129249200Y-76250800D02*
X127400000Y-78100000D01*
X127400000Y-78100000D02*
X127400000Y-78400000D01*
X130793000Y-76250800D02*
X129249200Y-76250800D01*
D21*
X119150000Y-64150000D02*
X119175000Y-64175000D01*
X119150000Y-60984000D02*
X119150000Y-64150000D01*
X117856000Y-59690000D02*
X119150000Y-60984000D01*
X102250000Y-65225000D02*
X102250000Y-64450000D01*
X102975009Y-65950009D02*
X102250000Y-65225000D01*
X108249991Y-65950009D02*
X102975009Y-65950009D01*
X109300000Y-64900000D02*
X108249991Y-65950009D01*
D22*
X126050000Y-81900000D02*
X124900000Y-81900000D01*
X124200000Y-82600000D02*
X124200000Y-82900000D01*
X124900000Y-81900000D02*
X124200000Y-82600000D01*
D23*
G04 #@! TO.N,Net-(BT1-Pad1)*
X117440000Y-101060000D02*
X107910000Y-101060000D01*
X119900000Y-98600000D02*
X117440000Y-101060000D01*
X119900000Y-79000000D02*
X119900000Y-98600000D01*
X122300000Y-76600000D02*
X119900000Y-79000000D01*
X129219200Y-74980800D02*
X127600000Y-76600000D01*
X127600000Y-76600000D02*
X122300000Y-76600000D01*
X130793000Y-74980800D02*
X129219200Y-74980800D01*
D22*
G04 #@! TO.N,Net-(U1-Pad1)*
X129009200Y-72440800D02*
X130793000Y-72440800D01*
X129025000Y-72425000D02*
X129009200Y-72440800D01*
X127850000Y-71250000D02*
X129025000Y-72425000D01*
X126500000Y-71250000D02*
X127850000Y-71250000D01*
G04 #@! TO.N,Net-(U1-Pad2)*
X129089200Y-73710800D02*
X129618000Y-73710800D01*
X128300000Y-74500000D02*
X129089200Y-73710800D01*
X129618000Y-73710800D02*
X130793000Y-73710800D01*
X126500000Y-74500000D02*
X128300000Y-74500000D01*
G04 #@! TO.N,Net-(R3-Pad2)*
X127775000Y-83925000D02*
X127800000Y-83900000D01*
X127775000Y-85500000D02*
X127775000Y-83925000D01*
X129650200Y-84150200D02*
X131826000Y-84150200D01*
X128050200Y-84150200D02*
X129650200Y-84150200D01*
X127800000Y-83900000D02*
X128050200Y-84150200D01*
G04 #@! TO.N,Net-(R5-Pad2)*
X127800000Y-80350000D02*
X127850000Y-80300000D01*
X127800000Y-81900000D02*
X127800000Y-80350000D01*
X129000000Y-82100000D02*
X129780200Y-82880200D01*
X128000000Y-82100000D02*
X129000000Y-82100000D01*
X129780200Y-82880200D02*
X131826000Y-82880200D01*
X127800000Y-81900000D02*
X128000000Y-82100000D01*
G04 #@! TD*
D24*
G04 #@! TO.N,GNDD*
G36*
X91881443Y-58613412D02*
X91820073Y-58654418D01*
X91657624Y-58897541D01*
X91614978Y-59111936D01*
X91614978Y-59111939D01*
X91600580Y-59184323D01*
X91614978Y-59256707D01*
X91614978Y-59384782D01*
X91510976Y-59291630D01*
X91384380Y-59165034D01*
X91356948Y-59153671D01*
X91331051Y-59130476D01*
X90675839Y-58853029D01*
X90621915Y-58849211D01*
X90599678Y-58840000D01*
X90491822Y-58840000D01*
X89966082Y-58802776D01*
X89825691Y-58840000D01*
X89750322Y-58840000D01*
X89616266Y-58895528D01*
X89278314Y-58985134D01*
X89079948Y-59117678D01*
X88965620Y-59165034D01*
X88878117Y-59252537D01*
X88686695Y-59380441D01*
X88482004Y-59648650D01*
X88365034Y-59765620D01*
X88332153Y-59845002D01*
X88255020Y-59946070D01*
X88109010Y-60383718D01*
X88040000Y-60550322D01*
X88040000Y-60590566D01*
X88029836Y-60621031D01*
X88035425Y-61332543D01*
X88040000Y-61345571D01*
X88040000Y-61399678D01*
X88164852Y-61701099D01*
X88271183Y-62003884D01*
X88311403Y-62054902D01*
X88365034Y-62184380D01*
X88593891Y-62413237D01*
X88711689Y-62562663D01*
X88800956Y-62620302D01*
X88965620Y-62784966D01*
X89217662Y-62889365D01*
X89309444Y-62948628D01*
X89437574Y-62980456D01*
X89750322Y-63110000D01*
X89959086Y-63110000D01*
X89999992Y-63120161D01*
X90117313Y-63110000D01*
X90599678Y-63110000D01*
X90771883Y-63038670D01*
X87931465Y-65879089D01*
X87870095Y-65920095D01*
X87707646Y-66163218D01*
X87665000Y-66377613D01*
X87665000Y-66377616D01*
X87650602Y-66450000D01*
X87665000Y-66522385D01*
X87665001Y-68527611D01*
X87650602Y-68600000D01*
X87707646Y-68886782D01*
X87829091Y-69068537D01*
X87870096Y-69129905D01*
X87931463Y-69170909D01*
X88667170Y-69906616D01*
X88771161Y-70429418D01*
X89099375Y-70920625D01*
X89418478Y-71133843D01*
X89288642Y-71194817D01*
X88898355Y-71623076D01*
X88728524Y-72033110D01*
X88849845Y-72263000D01*
X90043000Y-72263000D01*
X90043000Y-72243000D01*
X90297000Y-72243000D01*
X90297000Y-72263000D01*
X91490155Y-72263000D01*
X91611476Y-72033110D01*
X91441645Y-71623076D01*
X91051358Y-71194817D01*
X90921522Y-71133843D01*
X91240625Y-70920625D01*
X91568839Y-70429418D01*
X91684092Y-69850000D01*
X91568839Y-69270582D01*
X91240625Y-68779375D01*
X91222381Y-68767184D01*
X91267765Y-68758157D01*
X91477809Y-68617809D01*
X91618157Y-68407765D01*
X91667440Y-68160000D01*
X91667440Y-66460000D01*
X91618157Y-66212235D01*
X91477809Y-66002191D01*
X91267765Y-65861843D01*
X91020000Y-65812560D01*
X90905000Y-65812560D01*
X90905000Y-65584446D01*
X92462663Y-64026784D01*
X92466348Y-64045309D01*
X92612576Y-64264154D01*
X92612578Y-64264156D01*
X92661952Y-64338049D01*
X92735845Y-64387423D01*
X95689468Y-67341047D01*
X95505874Y-67265000D01*
X95094126Y-67265000D01*
X94713720Y-67422569D01*
X94422569Y-67713720D01*
X94265000Y-68094126D01*
X94265000Y-68505874D01*
X94415001Y-68868009D01*
X94415001Y-69526084D01*
X94335047Y-69526084D01*
X94009772Y-69660817D01*
X93760817Y-69909772D01*
X93626084Y-70235047D01*
X93626084Y-70288465D01*
X93568731Y-70374300D01*
X93539550Y-70521003D01*
X91508601Y-72551953D01*
X91490155Y-72517000D01*
X90297000Y-72517000D01*
X90297000Y-72537000D01*
X90043000Y-72537000D01*
X90043000Y-72517000D01*
X88849845Y-72517000D01*
X88728524Y-72746890D01*
X88898355Y-73156924D01*
X89288642Y-73585183D01*
X89418478Y-73646157D01*
X89099375Y-73859375D01*
X88771161Y-74350582D01*
X88655908Y-74930000D01*
X88771161Y-75509418D01*
X89099375Y-76000625D01*
X89397761Y-76200000D01*
X89099375Y-76399375D01*
X88771161Y-76890582D01*
X88655908Y-77470000D01*
X88771161Y-78049418D01*
X89099375Y-78540625D01*
X89418478Y-78753843D01*
X89288642Y-78814817D01*
X88898355Y-79243076D01*
X88728524Y-79653110D01*
X88849845Y-79883000D01*
X90043000Y-79883000D01*
X90043000Y-79863000D01*
X90297000Y-79863000D01*
X90297000Y-79883000D01*
X91490155Y-79883000D01*
X91611476Y-79653110D01*
X91441645Y-79243076D01*
X91051358Y-78814817D01*
X90921522Y-78753843D01*
X91240625Y-78540625D01*
X91568839Y-78049418D01*
X91684092Y-77470000D01*
X91605343Y-77074103D01*
X94415001Y-74264446D01*
X94415000Y-93633421D01*
X91276042Y-96772380D01*
X91240625Y-96719375D01*
X90942239Y-96520000D01*
X91240625Y-96320625D01*
X91568839Y-95829418D01*
X91684092Y-95250000D01*
X91568839Y-94670582D01*
X91240625Y-94179375D01*
X90921522Y-93966157D01*
X91051358Y-93905183D01*
X91441645Y-93476924D01*
X91611476Y-93066890D01*
X91490155Y-92837000D01*
X90297000Y-92837000D01*
X90297000Y-92857000D01*
X90043000Y-92857000D01*
X90043000Y-92837000D01*
X88849845Y-92837000D01*
X88728524Y-93066890D01*
X88898355Y-93476924D01*
X89288642Y-93905183D01*
X89418478Y-93966157D01*
X89099375Y-94179375D01*
X88771161Y-94670582D01*
X88655908Y-95250000D01*
X88771161Y-95829418D01*
X89099375Y-96320625D01*
X89397761Y-96520000D01*
X89099375Y-96719375D01*
X88771161Y-97210582D01*
X88655908Y-97790000D01*
X88771161Y-98369418D01*
X89099375Y-98860625D01*
X89285001Y-98984656D01*
X89285000Y-99135344D01*
X89099375Y-99259375D01*
X88771161Y-99750582D01*
X88655908Y-100330000D01*
X88771161Y-100909418D01*
X89099375Y-101400625D01*
X89397761Y-101600000D01*
X89099375Y-101799375D01*
X88771161Y-102290582D01*
X88655908Y-102870000D01*
X88771161Y-103449418D01*
X89099375Y-103940625D01*
X89590582Y-104268839D01*
X90023744Y-104355000D01*
X90316256Y-104355000D01*
X90749418Y-104268839D01*
X91240625Y-103940625D01*
X91568839Y-103449418D01*
X91684092Y-102870000D01*
X91640538Y-102651040D01*
X96914156Y-97377423D01*
X96988049Y-97328049D01*
X97056340Y-97225846D01*
X97183652Y-97035310D01*
X97209572Y-96905000D01*
X97235000Y-96777165D01*
X97235000Y-96777161D01*
X97252337Y-96690000D01*
X97235000Y-96602839D01*
X97235000Y-77345750D01*
X105275000Y-77345750D01*
X105275000Y-80186309D01*
X105371673Y-80419698D01*
X105550301Y-80598327D01*
X105783690Y-80695000D01*
X107624250Y-80695000D01*
X107783000Y-80536250D01*
X107783000Y-77187000D01*
X108037000Y-77187000D01*
X108037000Y-80536250D01*
X108195750Y-80695000D01*
X110036310Y-80695000D01*
X110269699Y-80598327D01*
X110448327Y-80419698D01*
X110545000Y-80186309D01*
X110545000Y-77345750D01*
X110386250Y-77187000D01*
X108037000Y-77187000D01*
X107783000Y-77187000D01*
X105433750Y-77187000D01*
X105275000Y-77345750D01*
X97235000Y-77345750D01*
X97235000Y-73933691D01*
X105275000Y-73933691D01*
X105275000Y-76774250D01*
X105433750Y-76933000D01*
X107783000Y-76933000D01*
X107783000Y-73583750D01*
X108037000Y-73583750D01*
X108037000Y-76933000D01*
X110386250Y-76933000D01*
X110545000Y-76774250D01*
X110545000Y-73933691D01*
X110448327Y-73700302D01*
X110269699Y-73521673D01*
X110036310Y-73425000D01*
X108195750Y-73425000D01*
X108037000Y-73583750D01*
X107783000Y-73583750D01*
X107624250Y-73425000D01*
X105783690Y-73425000D01*
X105550301Y-73521673D01*
X105371673Y-73700302D01*
X105275000Y-73933691D01*
X97235000Y-73933691D01*
X97235000Y-68870264D01*
X97259722Y-68886783D01*
X97404678Y-68983640D01*
X97662823Y-69034988D01*
X97662827Y-69034988D01*
X97749987Y-69052325D01*
X97837147Y-69034988D01*
X99864010Y-69034988D01*
X99864010Y-69176047D01*
X99998743Y-69501322D01*
X100247698Y-69750277D01*
X100398150Y-69812596D01*
X100454089Y-69868535D01*
X100495095Y-69929905D01*
X100738217Y-70092354D01*
X100952612Y-70135000D01*
X100952616Y-70135000D01*
X101025000Y-70149398D01*
X101097384Y-70135000D01*
X125000298Y-70135000D01*
X124952560Y-70375000D01*
X124952560Y-72125000D01*
X125001843Y-72372765D01*
X125142191Y-72582809D01*
X125352235Y-72723157D01*
X125600000Y-72772440D01*
X127400000Y-72772440D01*
X127647765Y-72723157D01*
X127857809Y-72582809D01*
X127943863Y-72454021D01*
X128335819Y-72845977D01*
X128443247Y-73006753D01*
X128586583Y-73102527D01*
X128523247Y-73144847D01*
X128479453Y-73210389D01*
X128047440Y-73642403D01*
X128047440Y-73625000D01*
X127998157Y-73377235D01*
X127857809Y-73167191D01*
X127647765Y-73026843D01*
X127400000Y-72977560D01*
X125600000Y-72977560D01*
X125352235Y-73026843D01*
X125142191Y-73167191D01*
X125001843Y-73377235D01*
X124952560Y-73625000D01*
X124952560Y-75375000D01*
X125001843Y-75622765D01*
X125096882Y-75765000D01*
X122382237Y-75765000D01*
X122300000Y-75748642D01*
X122217763Y-75765000D01*
X121974199Y-75813448D01*
X121697999Y-75997999D01*
X121651415Y-76067717D01*
X119367720Y-78351413D01*
X119297999Y-78397999D01*
X119113448Y-78674200D01*
X119065000Y-78917764D01*
X119065000Y-78917767D01*
X119048643Y-79000000D01*
X119065000Y-79082233D01*
X119065001Y-98254130D01*
X117094133Y-100225000D01*
X110557440Y-100225000D01*
X110557440Y-98060000D01*
X110508157Y-97812235D01*
X110367809Y-97602191D01*
X110157765Y-97461843D01*
X109910000Y-97412560D01*
X105910000Y-97412560D01*
X105662235Y-97461843D01*
X105452191Y-97602191D01*
X105311843Y-97812235D01*
X105262560Y-98060000D01*
X105262560Y-104060000D01*
X105311843Y-104307765D01*
X105452191Y-104517809D01*
X105662235Y-104658157D01*
X105910000Y-104707440D01*
X109910000Y-104707440D01*
X110157765Y-104658157D01*
X110367809Y-104517809D01*
X110508157Y-104307765D01*
X110557440Y-104060000D01*
X110557440Y-101895000D01*
X117357767Y-101895000D01*
X117440000Y-101911357D01*
X117522233Y-101895000D01*
X117522237Y-101895000D01*
X117765801Y-101846552D01*
X118042001Y-101662001D01*
X118088587Y-101592280D01*
X120432285Y-99248583D01*
X120502001Y-99202001D01*
X120686552Y-98925801D01*
X120735000Y-98682237D01*
X120735000Y-98682234D01*
X120751357Y-98600001D01*
X120735000Y-98517768D01*
X120735000Y-86975950D01*
X130416000Y-86975950D01*
X130416000Y-87116510D01*
X130512673Y-87349899D01*
X130691302Y-87528527D01*
X130924691Y-87625200D01*
X131540250Y-87625200D01*
X131699000Y-87466450D01*
X131699000Y-86817200D01*
X131953000Y-86817200D01*
X131953000Y-87466450D01*
X132111750Y-87625200D01*
X132727309Y-87625200D01*
X132960698Y-87528527D01*
X133139327Y-87349899D01*
X133236000Y-87116510D01*
X133236000Y-86975950D01*
X133077250Y-86817200D01*
X131953000Y-86817200D01*
X131699000Y-86817200D01*
X130574750Y-86817200D01*
X130416000Y-86975950D01*
X120735000Y-86975950D01*
X120735000Y-79345867D01*
X122645868Y-77435000D01*
X127517767Y-77435000D01*
X127600000Y-77451357D01*
X127682233Y-77435000D01*
X127682237Y-77435000D01*
X127925801Y-77386552D01*
X128202001Y-77202001D01*
X128248587Y-77132280D01*
X128844317Y-76536550D01*
X129283000Y-76536550D01*
X129283000Y-76652110D01*
X129379673Y-76885499D01*
X129558302Y-77064127D01*
X129791691Y-77160800D01*
X130507250Y-77160800D01*
X130666000Y-77002050D01*
X130666000Y-76377800D01*
X130920000Y-76377800D01*
X130920000Y-77002050D01*
X131078750Y-77160800D01*
X131794309Y-77160800D01*
X132027698Y-77064127D01*
X132206327Y-76885499D01*
X132303000Y-76652110D01*
X132303000Y-76536550D01*
X132144250Y-76377800D01*
X130920000Y-76377800D01*
X130666000Y-76377800D01*
X129441750Y-76377800D01*
X129283000Y-76536550D01*
X128844317Y-76536550D01*
X129349409Y-76031459D01*
X129441750Y-76123800D01*
X130666000Y-76123800D01*
X130666000Y-76103800D01*
X130920000Y-76103800D01*
X130920000Y-76123800D01*
X132144250Y-76123800D01*
X132303000Y-75965050D01*
X132303000Y-75849490D01*
X132206327Y-75616101D01*
X132197117Y-75606891D01*
X132266157Y-75503565D01*
X132315440Y-75255800D01*
X132315440Y-74705800D01*
X132266157Y-74458035D01*
X132191163Y-74345800D01*
X132266157Y-74233565D01*
X132315440Y-73985800D01*
X132315440Y-73435800D01*
X132266157Y-73188035D01*
X132191163Y-73075800D01*
X132266157Y-72963565D01*
X132315440Y-72715800D01*
X132315440Y-72554886D01*
X136479891Y-76719338D01*
X136520895Y-76780705D01*
X136764017Y-76943154D01*
X136843758Y-76959016D01*
X136860191Y-76983609D01*
X137070235Y-77123957D01*
X137318000Y-77173240D01*
X139068000Y-77173240D01*
X139315000Y-77124109D01*
X139315001Y-78915000D01*
X139115530Y-78915000D01*
X139063247Y-78836753D01*
X138776152Y-78644922D01*
X138437500Y-78577560D01*
X137862500Y-78577560D01*
X137523848Y-78644922D01*
X137275000Y-78811197D01*
X137026152Y-78644922D01*
X136687500Y-78577560D01*
X136112500Y-78577560D01*
X135773848Y-78644922D01*
X135486753Y-78836753D01*
X135434470Y-78915000D01*
X133925158Y-78915000D01*
X133509750Y-78499593D01*
X133465954Y-78434048D01*
X133206293Y-78260547D01*
X132977317Y-78215001D01*
X132977313Y-78215001D01*
X132900001Y-78199623D01*
X132822689Y-78215001D01*
X123277311Y-78215001D01*
X123199999Y-78199623D01*
X123122687Y-78215001D01*
X123122683Y-78215001D01*
X122893707Y-78260547D01*
X122634046Y-78434048D01*
X122590250Y-78499593D01*
X122099592Y-78990251D01*
X122034047Y-79034047D01*
X121990251Y-79099592D01*
X121860547Y-79293708D01*
X121860546Y-79293709D01*
X121815000Y-79522685D01*
X121815000Y-79522688D01*
X121799622Y-79600000D01*
X121815000Y-79677312D01*
X121815001Y-80222681D01*
X121799621Y-80300000D01*
X121815000Y-80377316D01*
X121815000Y-80622685D01*
X121815001Y-84622683D01*
X121799622Y-84700000D01*
X121860546Y-85006291D01*
X121990251Y-85200408D01*
X121990254Y-85200411D01*
X122034048Y-85265953D01*
X122099590Y-85309747D01*
X122790253Y-86000411D01*
X122834047Y-86065953D01*
X122899589Y-86109747D01*
X122899591Y-86109749D01*
X123035227Y-86200378D01*
X123093708Y-86239454D01*
X123322684Y-86285000D01*
X123322688Y-86285000D01*
X123400000Y-86300378D01*
X123477312Y-86285000D01*
X125059470Y-86285000D01*
X125111753Y-86363247D01*
X125398848Y-86555078D01*
X125737500Y-86622440D01*
X126312500Y-86622440D01*
X126651152Y-86555078D01*
X126900000Y-86388803D01*
X127148848Y-86555078D01*
X127487500Y-86622440D01*
X128062500Y-86622440D01*
X128401152Y-86555078D01*
X128688247Y-86363247D01*
X128880078Y-86076152D01*
X128947440Y-85737500D01*
X128947440Y-85705950D01*
X130416000Y-85705950D01*
X130416000Y-85846510D01*
X130502442Y-86055200D01*
X130416000Y-86263890D01*
X130416000Y-86404450D01*
X130574750Y-86563200D01*
X131699000Y-86563200D01*
X131699000Y-85547200D01*
X131953000Y-85547200D01*
X131953000Y-86563200D01*
X133077250Y-86563200D01*
X133236000Y-86404450D01*
X133236000Y-86263890D01*
X133149558Y-86055200D01*
X133236000Y-85846510D01*
X133236000Y-85705950D01*
X133077250Y-85547200D01*
X131953000Y-85547200D01*
X131699000Y-85547200D01*
X130574750Y-85547200D01*
X130416000Y-85705950D01*
X128947440Y-85705950D01*
X128947440Y-85262500D01*
X128882336Y-84935200D01*
X130440310Y-84935200D01*
X130416000Y-84993890D01*
X130416000Y-85134450D01*
X130574750Y-85293200D01*
X131699000Y-85293200D01*
X131699000Y-85273200D01*
X131953000Y-85273200D01*
X131953000Y-85293200D01*
X133077250Y-85293200D01*
X133236000Y-85134450D01*
X133236000Y-84993890D01*
X133146232Y-84777172D01*
X133199157Y-84697965D01*
X133248440Y-84450200D01*
X133248440Y-83850200D01*
X133199157Y-83602435D01*
X133140868Y-83515200D01*
X133199157Y-83427965D01*
X133248440Y-83180200D01*
X133248440Y-82580200D01*
X133199157Y-82332435D01*
X133058809Y-82122391D01*
X132848765Y-81982043D01*
X132601000Y-81932760D01*
X131051000Y-81932760D01*
X130803235Y-81982043D01*
X130633885Y-82095200D01*
X130105358Y-82095200D01*
X129609749Y-81599592D01*
X129565953Y-81534047D01*
X129306292Y-81360546D01*
X129077316Y-81315000D01*
X129077312Y-81315000D01*
X129000000Y-81299622D01*
X128922688Y-81315000D01*
X128899166Y-81315000D01*
X128780507Y-81137415D01*
X128955078Y-80876152D01*
X129022440Y-80537500D01*
X129022440Y-80062500D01*
X128967242Y-79785001D01*
X132574844Y-79785001D01*
X132990253Y-80200410D01*
X133034047Y-80265953D01*
X133099589Y-80309747D01*
X133099591Y-80309749D01*
X133225246Y-80393709D01*
X133293708Y-80439454D01*
X133522684Y-80485000D01*
X133522687Y-80485000D01*
X133599999Y-80500378D01*
X133677311Y-80485000D01*
X135434470Y-80485000D01*
X135486753Y-80563247D01*
X135502836Y-80573993D01*
X135497663Y-80600000D01*
X135515000Y-80687161D01*
X135515000Y-80687164D01*
X135566348Y-80945309D01*
X135761951Y-81238049D01*
X135835847Y-81287425D01*
X136212575Y-81664153D01*
X136261951Y-81738049D01*
X136553355Y-81932760D01*
X136451000Y-81932760D01*
X136203235Y-81982043D01*
X135993191Y-82122391D01*
X135852843Y-82332435D01*
X135803560Y-82580200D01*
X135803560Y-83180200D01*
X135852843Y-83427965D01*
X135905768Y-83507172D01*
X135816000Y-83723890D01*
X135816000Y-83864450D01*
X135974750Y-84023200D01*
X137099000Y-84023200D01*
X137099000Y-84003200D01*
X137353000Y-84003200D01*
X137353000Y-84023200D01*
X138477250Y-84023200D01*
X138534836Y-83965614D01*
X138970692Y-84401471D01*
X139061951Y-84538049D01*
X139177116Y-84615000D01*
X138620057Y-84615000D01*
X138636000Y-84576510D01*
X138636000Y-84435950D01*
X138477250Y-84277200D01*
X137353000Y-84277200D01*
X137353000Y-84297200D01*
X137099000Y-84297200D01*
X137099000Y-84277200D01*
X135974750Y-84277200D01*
X135816000Y-84435950D01*
X135816000Y-84576510D01*
X135905768Y-84793228D01*
X135852843Y-84872435D01*
X135803560Y-85120200D01*
X135803560Y-85720200D01*
X135852843Y-85967965D01*
X135911132Y-86055200D01*
X135852843Y-86142435D01*
X135803560Y-86390200D01*
X135803560Y-86990200D01*
X135852843Y-87237965D01*
X135993191Y-87448009D01*
X136203235Y-87588357D01*
X136451000Y-87637640D01*
X138001000Y-87637640D01*
X138248765Y-87588357D01*
X138403448Y-87485000D01*
X138715000Y-87485000D01*
X138715001Y-97422683D01*
X138699622Y-97500000D01*
X138760546Y-97806291D01*
X138890251Y-98000408D01*
X138890254Y-98000411D01*
X138934048Y-98065953D01*
X138999590Y-98109747D01*
X144260253Y-103370411D01*
X144304047Y-103435953D01*
X144369589Y-103479747D01*
X144369591Y-103479749D01*
X144485840Y-103557424D01*
X144563708Y-103609454D01*
X144792684Y-103655000D01*
X144792688Y-103655000D01*
X144870000Y-103670378D01*
X144947312Y-103655000D01*
X146820526Y-103655000D01*
X147011375Y-103940625D01*
X147502582Y-104268839D01*
X147935744Y-104355000D01*
X148228256Y-104355000D01*
X148661418Y-104268839D01*
X149152625Y-103940625D01*
X149480839Y-103449418D01*
X149596092Y-102870000D01*
X149480839Y-102290582D01*
X149152625Y-101799375D01*
X148854239Y-101600000D01*
X149152625Y-101400625D01*
X149480839Y-100909418D01*
X149596092Y-100330000D01*
X149480839Y-99750582D01*
X149152625Y-99259375D01*
X148854239Y-99060000D01*
X149152625Y-98860625D01*
X149480839Y-98369418D01*
X149596092Y-97790000D01*
X149480839Y-97210582D01*
X149152625Y-96719375D01*
X148833522Y-96506157D01*
X148963358Y-96445183D01*
X149353645Y-96016924D01*
X149523476Y-95606890D01*
X149402155Y-95377000D01*
X148209000Y-95377000D01*
X148209000Y-95397000D01*
X147955000Y-95397000D01*
X147955000Y-95377000D01*
X146761845Y-95377000D01*
X146640524Y-95606890D01*
X146810355Y-96016924D01*
X147200642Y-96445183D01*
X147330478Y-96506157D01*
X147011375Y-96719375D01*
X146683161Y-97210582D01*
X146567908Y-97790000D01*
X146683161Y-98369418D01*
X147011375Y-98860625D01*
X147309761Y-99060000D01*
X147011375Y-99259375D01*
X146820526Y-99545000D01*
X144155158Y-99545000D01*
X141085000Y-96474843D01*
X141085000Y-85417459D01*
X141185000Y-85176037D01*
X141185000Y-84823963D01*
X141168861Y-84785000D01*
X141912839Y-84785000D01*
X142000000Y-84802337D01*
X142087161Y-84785000D01*
X142612839Y-84785000D01*
X142700000Y-84802337D01*
X142787161Y-84785000D01*
X142787165Y-84785000D01*
X143045310Y-84733652D01*
X143338049Y-84538049D01*
X143387425Y-84464153D01*
X143525000Y-84326578D01*
X144852577Y-85654156D01*
X144901951Y-85728049D01*
X144975844Y-85777423D01*
X144975845Y-85777424D01*
X145144060Y-85889822D01*
X145194690Y-85923652D01*
X145452835Y-85975000D01*
X145452839Y-85975000D01*
X145540000Y-85992337D01*
X145627161Y-85975000D01*
X146887344Y-85975000D01*
X147011375Y-86160625D01*
X147309761Y-86360000D01*
X147011375Y-86559375D01*
X146683161Y-87050582D01*
X146567908Y-87630000D01*
X146683161Y-88209418D01*
X147011375Y-88700625D01*
X147309761Y-88900000D01*
X147011375Y-89099375D01*
X146683161Y-89590582D01*
X146567908Y-90170000D01*
X146683161Y-90749418D01*
X147011375Y-91240625D01*
X147309761Y-91440000D01*
X147011375Y-91639375D01*
X146683161Y-92130582D01*
X146567908Y-92710000D01*
X146683161Y-93289418D01*
X147011375Y-93780625D01*
X147330478Y-93993843D01*
X147200642Y-94054817D01*
X146810355Y-94483076D01*
X146640524Y-94893110D01*
X146761845Y-95123000D01*
X147955000Y-95123000D01*
X147955000Y-95103000D01*
X148209000Y-95103000D01*
X148209000Y-95123000D01*
X149402155Y-95123000D01*
X149523476Y-94893110D01*
X149353645Y-94483076D01*
X148963358Y-94054817D01*
X148833522Y-93993843D01*
X149152625Y-93780625D01*
X149480839Y-93289418D01*
X149596092Y-92710000D01*
X149480839Y-92130582D01*
X149152625Y-91639375D01*
X148854239Y-91440000D01*
X149152625Y-91240625D01*
X149480839Y-90749418D01*
X149596092Y-90170000D01*
X149480839Y-89590582D01*
X149152625Y-89099375D01*
X148854239Y-88900000D01*
X149152625Y-88700625D01*
X149480839Y-88209418D01*
X149596092Y-87630000D01*
X149480839Y-87050582D01*
X149152625Y-86559375D01*
X148854239Y-86360000D01*
X149152625Y-86160625D01*
X149480839Y-85669418D01*
X149596092Y-85090000D01*
X149480839Y-84510582D01*
X149152625Y-84019375D01*
X148854239Y-83820000D01*
X149152625Y-83620625D01*
X149480839Y-83129418D01*
X149596092Y-82550000D01*
X149480839Y-81970582D01*
X149152625Y-81479375D01*
X148854239Y-81280000D01*
X149152625Y-81080625D01*
X149480839Y-80589418D01*
X149596092Y-80010000D01*
X149480839Y-79430582D01*
X149152625Y-78939375D01*
X148854239Y-78740000D01*
X149152625Y-78540625D01*
X149480839Y-78049418D01*
X149596092Y-77470000D01*
X149480839Y-76890582D01*
X149152625Y-76399375D01*
X148833522Y-76186157D01*
X148963358Y-76125183D01*
X149353645Y-75696924D01*
X149523476Y-75286890D01*
X149402155Y-75057000D01*
X148209000Y-75057000D01*
X148209000Y-75077000D01*
X147955000Y-75077000D01*
X147955000Y-75057000D01*
X146761845Y-75057000D01*
X146640524Y-75286890D01*
X146810355Y-75696924D01*
X147200642Y-76125183D01*
X147330478Y-76186157D01*
X147011375Y-76399375D01*
X146683161Y-76890582D01*
X146567908Y-77470000D01*
X146683161Y-78049418D01*
X147011375Y-78540625D01*
X147309761Y-78740000D01*
X147011375Y-78939375D01*
X146683161Y-79430582D01*
X146567908Y-80010000D01*
X146683161Y-80589418D01*
X147011375Y-81080625D01*
X147309761Y-81280000D01*
X147011375Y-81479375D01*
X146683161Y-81970582D01*
X146567908Y-82550000D01*
X146683161Y-83129418D01*
X147011375Y-83620625D01*
X147309761Y-83820000D01*
X147011375Y-84019375D01*
X146887344Y-84205000D01*
X145906579Y-84205000D01*
X144385000Y-82683422D01*
X144385000Y-77887161D01*
X144402337Y-77800000D01*
X144385000Y-77712839D01*
X144385000Y-77712835D01*
X144333652Y-77454690D01*
X144323472Y-77439454D01*
X144187424Y-77235845D01*
X144187423Y-77235844D01*
X144138049Y-77161951D01*
X144064156Y-77112577D01*
X141460000Y-74508422D01*
X141460000Y-69737161D01*
X141477337Y-69650000D01*
X141460000Y-69562839D01*
X141460000Y-69562835D01*
X141408652Y-69304690D01*
X141281905Y-69115000D01*
X141262424Y-69085845D01*
X141262423Y-69085844D01*
X141213049Y-69011951D01*
X141139156Y-68962577D01*
X138987424Y-66810846D01*
X138938049Y-66736951D01*
X138645310Y-66541348D01*
X138387165Y-66490000D01*
X138387161Y-66490000D01*
X138300000Y-66472663D01*
X138212839Y-66490000D01*
X116185000Y-66490000D01*
X116185000Y-66151596D01*
X116218337Y-65983999D01*
X116185000Y-65816402D01*
X116185000Y-63435347D01*
X116386625Y-63300625D01*
X116586000Y-63002239D01*
X116785375Y-63300625D01*
X117276582Y-63628839D01*
X117709744Y-63715000D01*
X118002256Y-63715000D01*
X118435418Y-63628839D01*
X118926625Y-63300625D01*
X119126000Y-63002239D01*
X119325375Y-63300625D01*
X119816582Y-63628839D01*
X120249744Y-63715000D01*
X120542256Y-63715000D01*
X120975418Y-63628839D01*
X121466625Y-63300625D01*
X121666000Y-63002239D01*
X121865375Y-63300625D01*
X122356582Y-63628839D01*
X122789744Y-63715000D01*
X123082256Y-63715000D01*
X123515418Y-63628839D01*
X124006625Y-63300625D01*
X124219843Y-62981522D01*
X124280817Y-63111358D01*
X124709076Y-63501645D01*
X125119110Y-63671476D01*
X125349000Y-63550155D01*
X125349000Y-62357000D01*
X125329000Y-62357000D01*
X125329000Y-62103000D01*
X125349000Y-62103000D01*
X125349000Y-62083000D01*
X125603000Y-62083000D01*
X125603000Y-62103000D01*
X125623000Y-62103000D01*
X125623000Y-62357000D01*
X125603000Y-62357000D01*
X125603000Y-63550155D01*
X125832890Y-63671476D01*
X126242924Y-63501645D01*
X126671183Y-63111358D01*
X126732157Y-62981522D01*
X126945375Y-63300625D01*
X127436582Y-63628839D01*
X127869744Y-63715000D01*
X128162256Y-63715000D01*
X128595418Y-63628839D01*
X129086625Y-63300625D01*
X129286000Y-63002239D01*
X129485375Y-63300625D01*
X129976582Y-63628839D01*
X130409744Y-63715000D01*
X130702256Y-63715000D01*
X131135418Y-63628839D01*
X131626625Y-63300625D01*
X131826000Y-63002239D01*
X132025375Y-63300625D01*
X132516582Y-63628839D01*
X132949744Y-63715000D01*
X133242256Y-63715000D01*
X133491897Y-63665343D01*
X135345091Y-65518537D01*
X135386095Y-65579905D01*
X135629217Y-65742354D01*
X135843612Y-65785000D01*
X135843615Y-65785000D01*
X135915999Y-65799398D01*
X135988383Y-65785000D01*
X139045554Y-65785000D01*
X146119091Y-72858538D01*
X146160095Y-72919905D01*
X146403217Y-73082354D01*
X146617612Y-73125000D01*
X146690000Y-73139399D01*
X146762388Y-73125000D01*
X146787118Y-73125000D01*
X147011375Y-73460625D01*
X147330478Y-73673843D01*
X147200642Y-73734817D01*
X146810355Y-74163076D01*
X146640524Y-74573110D01*
X146761845Y-74803000D01*
X147955000Y-74803000D01*
X147955000Y-74783000D01*
X148209000Y-74783000D01*
X148209000Y-74803000D01*
X149402155Y-74803000D01*
X149523476Y-74573110D01*
X149353645Y-74163076D01*
X148963358Y-73734817D01*
X148833522Y-73673843D01*
X149152625Y-73460625D01*
X149480839Y-72969418D01*
X149596092Y-72390000D01*
X149480839Y-71810582D01*
X149152625Y-71319375D01*
X148854239Y-71120000D01*
X149152625Y-70920625D01*
X149480839Y-70429418D01*
X149596092Y-69850000D01*
X149480839Y-69270582D01*
X149152625Y-68779375D01*
X149130967Y-68764904D01*
X149291698Y-68698327D01*
X149470327Y-68519699D01*
X149567000Y-68286310D01*
X149567000Y-67595750D01*
X149408250Y-67437000D01*
X148209000Y-67437000D01*
X148209000Y-67457000D01*
X147955000Y-67457000D01*
X147955000Y-67437000D01*
X146755750Y-67437000D01*
X146597000Y-67595750D01*
X146597000Y-68286310D01*
X146693673Y-68519699D01*
X146872302Y-68698327D01*
X147033033Y-68764904D01*
X147011375Y-68779375D01*
X146787118Y-69115000D01*
X145104447Y-69115000D01*
X142323137Y-66333690D01*
X146597000Y-66333690D01*
X146597000Y-67024250D01*
X146755750Y-67183000D01*
X147955000Y-67183000D01*
X147955000Y-65983750D01*
X148209000Y-65983750D01*
X148209000Y-67183000D01*
X149408250Y-67183000D01*
X149567000Y-67024250D01*
X149567000Y-66333690D01*
X149470327Y-66100301D01*
X149291698Y-65921673D01*
X149058309Y-65825000D01*
X148367750Y-65825000D01*
X148209000Y-65983750D01*
X147955000Y-65983750D01*
X147796250Y-65825000D01*
X147105691Y-65825000D01*
X146872302Y-65921673D01*
X146693673Y-66100301D01*
X146597000Y-66333690D01*
X142323137Y-66333690D01*
X139820911Y-63831465D01*
X139779905Y-63770095D01*
X139536783Y-63607646D01*
X139322388Y-63565000D01*
X139322384Y-63565000D01*
X139250000Y-63550602D01*
X139177616Y-63565000D01*
X138850960Y-63565000D01*
X139246625Y-63300625D01*
X139446000Y-63002239D01*
X139645375Y-63300625D01*
X140136582Y-63628839D01*
X140569744Y-63715000D01*
X140862256Y-63715000D01*
X141295418Y-63628839D01*
X141786625Y-63300625D01*
X141999843Y-62981522D01*
X142060817Y-63111358D01*
X142489076Y-63501645D01*
X142899110Y-63671476D01*
X143129000Y-63550155D01*
X143129000Y-62357000D01*
X143383000Y-62357000D01*
X143383000Y-63550155D01*
X143612890Y-63671476D01*
X144022924Y-63501645D01*
X144451183Y-63111358D01*
X144697486Y-62586892D01*
X144576819Y-62357000D01*
X143383000Y-62357000D01*
X143129000Y-62357000D01*
X143109000Y-62357000D01*
X143109000Y-62103000D01*
X143129000Y-62103000D01*
X143129000Y-62083000D01*
X143383000Y-62083000D01*
X143383000Y-62103000D01*
X144576819Y-62103000D01*
X144697486Y-61873108D01*
X144451183Y-61348642D01*
X144026214Y-60961353D01*
X144326625Y-60760625D01*
X144419898Y-60621031D01*
X145941836Y-60621031D01*
X145947425Y-61332543D01*
X145965000Y-61382589D01*
X145965000Y-61399678D01*
X146004432Y-61494876D01*
X146183183Y-62003884D01*
X146250796Y-62089650D01*
X146290034Y-62184380D01*
X146457473Y-62351819D01*
X146623689Y-62562663D01*
X146749647Y-62643993D01*
X146890620Y-62784966D01*
X147106399Y-62874345D01*
X147221444Y-62948628D01*
X147382049Y-62988523D01*
X147675322Y-63110000D01*
X147871086Y-63110000D01*
X147911992Y-63120161D01*
X148029313Y-63110000D01*
X148524678Y-63110000D01*
X149309380Y-62784966D01*
X149909966Y-62184380D01*
X150107811Y-61706739D01*
X150132017Y-61661878D01*
X150135795Y-61639180D01*
X150235000Y-61399678D01*
X150235000Y-61043157D01*
X150248841Y-60960000D01*
X150248574Y-60925965D01*
X150235000Y-60851641D01*
X150235000Y-60550322D01*
X150136570Y-60312691D01*
X150120739Y-60226009D01*
X150043641Y-60088341D01*
X149909966Y-59765620D01*
X149803012Y-59658666D01*
X149773069Y-59605199D01*
X149547585Y-59403239D01*
X149309380Y-59165034D01*
X149257764Y-59143654D01*
X149243051Y-59130476D01*
X148587839Y-58853029D01*
X148549596Y-58850321D01*
X148524678Y-58840000D01*
X148403822Y-58840000D01*
X147878082Y-58802776D01*
X147737691Y-58840000D01*
X147675322Y-58840000D01*
X147564388Y-58885950D01*
X147190314Y-58985134D01*
X146970745Y-59131845D01*
X146890620Y-59165034D01*
X146829295Y-59226359D01*
X146598695Y-59380441D01*
X146352111Y-59703543D01*
X146290034Y-59765620D01*
X146272584Y-59807748D01*
X146167020Y-59946070D01*
X145967191Y-60545032D01*
X145965000Y-60550322D01*
X145965000Y-60551600D01*
X145941836Y-60621031D01*
X144419898Y-60621031D01*
X144654839Y-60269418D01*
X144770092Y-59690000D01*
X144654839Y-59110582D01*
X144326625Y-58619375D01*
X143835418Y-58291161D01*
X143402256Y-58205000D01*
X143109744Y-58205000D01*
X142676582Y-58291161D01*
X142185375Y-58619375D01*
X141986000Y-58917761D01*
X141786625Y-58619375D01*
X141295418Y-58291161D01*
X140862256Y-58205000D01*
X140569744Y-58205000D01*
X140136582Y-58291161D01*
X139645375Y-58619375D01*
X139446000Y-58917761D01*
X139246625Y-58619375D01*
X138755418Y-58291161D01*
X138322256Y-58205000D01*
X138029744Y-58205000D01*
X137596582Y-58291161D01*
X137105375Y-58619375D01*
X136892157Y-58938478D01*
X136831183Y-58808642D01*
X136402924Y-58418355D01*
X135992890Y-58248524D01*
X135763000Y-58369845D01*
X135763000Y-59563000D01*
X135783000Y-59563000D01*
X135783000Y-59817000D01*
X135763000Y-59817000D01*
X135763000Y-59837000D01*
X135509000Y-59837000D01*
X135509000Y-59817000D01*
X135489000Y-59817000D01*
X135489000Y-59563000D01*
X135509000Y-59563000D01*
X135509000Y-58369845D01*
X135279110Y-58248524D01*
X134869076Y-58418355D01*
X134440817Y-58808642D01*
X134379843Y-58938478D01*
X134166625Y-58619375D01*
X133675418Y-58291161D01*
X133242256Y-58205000D01*
X132949744Y-58205000D01*
X132516582Y-58291161D01*
X132025375Y-58619375D01*
X131812157Y-58938478D01*
X131751183Y-58808642D01*
X131322924Y-58418355D01*
X130912890Y-58248524D01*
X130683000Y-58369845D01*
X130683000Y-59563000D01*
X130703000Y-59563000D01*
X130703000Y-59817000D01*
X130683000Y-59817000D01*
X130683000Y-59837000D01*
X130429000Y-59837000D01*
X130429000Y-59817000D01*
X130409000Y-59817000D01*
X130409000Y-59563000D01*
X130429000Y-59563000D01*
X130429000Y-58369845D01*
X130199110Y-58248524D01*
X129789076Y-58418355D01*
X129360817Y-58808642D01*
X129299843Y-58938478D01*
X129086625Y-58619375D01*
X128595418Y-58291161D01*
X128162256Y-58205000D01*
X127869744Y-58205000D01*
X127436582Y-58291161D01*
X126945375Y-58619375D01*
X126746000Y-58917761D01*
X126546625Y-58619375D01*
X126055418Y-58291161D01*
X125622256Y-58205000D01*
X125329744Y-58205000D01*
X124896582Y-58291161D01*
X124405375Y-58619375D01*
X124206000Y-58917761D01*
X124006625Y-58619375D01*
X123515418Y-58291161D01*
X123082256Y-58205000D01*
X122789744Y-58205000D01*
X122540103Y-58254657D01*
X122145446Y-57860000D01*
X147792036Y-57860000D01*
X148450604Y-57926895D01*
X149047782Y-58114039D01*
X149595124Y-58417436D01*
X150070289Y-58824701D01*
X150453852Y-59319188D01*
X150730150Y-59880700D01*
X150890104Y-60494774D01*
X150928000Y-60987270D01*
X150928001Y-109692026D01*
X150861105Y-110350604D01*
X150673961Y-110947782D01*
X150370563Y-111495125D01*
X149963299Y-111970289D01*
X149468812Y-112353852D01*
X148907304Y-112630148D01*
X148293227Y-112790104D01*
X147800730Y-112828000D01*
X90459964Y-112828000D01*
X89801396Y-112761105D01*
X89204218Y-112573961D01*
X88656875Y-112270563D01*
X88181711Y-111863299D01*
X87798148Y-111368812D01*
X87521852Y-110807304D01*
X87361896Y-110193227D01*
X87324000Y-109700730D01*
X87324000Y-109643031D01*
X88029836Y-109643031D01*
X88035425Y-110354543D01*
X88040000Y-110367571D01*
X88040000Y-110399678D01*
X88114087Y-110578541D01*
X88271183Y-111025884D01*
X88330605Y-111101260D01*
X88365034Y-111184380D01*
X88511952Y-111331298D01*
X88711689Y-111584663D01*
X88863048Y-111682394D01*
X88965620Y-111784966D01*
X89122620Y-111849998D01*
X89309444Y-111970628D01*
X89570255Y-112035414D01*
X89750322Y-112110000D01*
X89870520Y-112110000D01*
X89999992Y-112142161D01*
X90371329Y-112110000D01*
X90599678Y-112110000D01*
X90660046Y-112084995D01*
X90708871Y-112080766D01*
X91282549Y-111827146D01*
X91384380Y-111784966D01*
X91579713Y-111589633D01*
X91882140Y-111310072D01*
X91908937Y-111260409D01*
X91984966Y-111184380D01*
X92100634Y-110905134D01*
X92220017Y-110683878D01*
X92238650Y-110571933D01*
X92310000Y-110399678D01*
X92310000Y-110143261D01*
X92336841Y-109982000D01*
X92336574Y-109947965D01*
X92310000Y-109802460D01*
X92310000Y-109622975D01*
X145929174Y-109622975D01*
X145934796Y-110338696D01*
X146171949Y-111014009D01*
X146615061Y-111576094D01*
X146873839Y-111743185D01*
X146890620Y-111759966D01*
X146916306Y-111770605D01*
X147216352Y-111964343D01*
X147635227Y-112068392D01*
X147675322Y-112085000D01*
X147702086Y-112085000D01*
X147910986Y-112136891D01*
X148510123Y-112085000D01*
X148524678Y-112085000D01*
X148528526Y-112083406D01*
X148624060Y-112075132D01*
X149278684Y-111785726D01*
X149304254Y-111762089D01*
X149309380Y-111759966D01*
X149343967Y-111725379D01*
X149804270Y-111299879D01*
X149845055Y-111224291D01*
X149909966Y-111159380D01*
X150008721Y-110920964D01*
X150144145Y-110669979D01*
X150165281Y-110542994D01*
X150235000Y-110374678D01*
X150235000Y-110124127D01*
X150261661Y-109963949D01*
X150261392Y-109929712D01*
X150235000Y-109785203D01*
X150235000Y-109525322D01*
X150150106Y-109320371D01*
X150132801Y-109225615D01*
X150048522Y-109075124D01*
X149909966Y-108740620D01*
X149799107Y-108629761D01*
X149783074Y-108601132D01*
X149662336Y-108492990D01*
X149309380Y-108140034D01*
X148524678Y-107815000D01*
X148174020Y-107815000D01*
X147876876Y-107793961D01*
X147797527Y-107815000D01*
X147675322Y-107815000D01*
X147457956Y-107905036D01*
X147185038Y-107977399D01*
X147024846Y-108084436D01*
X146890620Y-108140034D01*
X146787887Y-108242767D01*
X146589919Y-108375045D01*
X146378232Y-108652422D01*
X146290034Y-108740620D01*
X146265241Y-108800476D01*
X146155691Y-108944021D01*
X145929174Y-109622975D01*
X92310000Y-109622975D01*
X92310000Y-109550322D01*
X92227636Y-109351477D01*
X92208739Y-109248009D01*
X92116711Y-109083682D01*
X91984966Y-108765620D01*
X91879556Y-108660210D01*
X91861069Y-108627199D01*
X91721852Y-108502506D01*
X91384380Y-108165034D01*
X90599678Y-107840000D01*
X90181101Y-107840000D01*
X89966082Y-107824776D01*
X89908664Y-107840000D01*
X89750322Y-107840000D01*
X89468683Y-107956659D01*
X89278314Y-108007134D01*
X89166574Y-108081796D01*
X88965620Y-108165034D01*
X88811816Y-108318838D01*
X88686695Y-108402441D01*
X88552901Y-108577753D01*
X88365034Y-108765620D01*
X88312224Y-108893115D01*
X88255020Y-108968070D01*
X88146735Y-109292641D01*
X88040000Y-109550322D01*
X88040000Y-109612566D01*
X88029836Y-109643031D01*
X87324000Y-109643031D01*
X87324000Y-90526890D01*
X88728524Y-90526890D01*
X88898355Y-90936924D01*
X89288642Y-91365183D01*
X89447954Y-91440000D01*
X89288642Y-91514817D01*
X88898355Y-91943076D01*
X88728524Y-92353110D01*
X88849845Y-92583000D01*
X90043000Y-92583000D01*
X90043000Y-90297000D01*
X90297000Y-90297000D01*
X90297000Y-92583000D01*
X91490155Y-92583000D01*
X91611476Y-92353110D01*
X91441645Y-91943076D01*
X91051358Y-91514817D01*
X90892046Y-91440000D01*
X91051358Y-91365183D01*
X91441645Y-90936924D01*
X91611476Y-90526890D01*
X91490155Y-90297000D01*
X90297000Y-90297000D01*
X90043000Y-90297000D01*
X88849845Y-90297000D01*
X88728524Y-90526890D01*
X87324000Y-90526890D01*
X87324000Y-82550000D01*
X88655908Y-82550000D01*
X88771161Y-83129418D01*
X89099375Y-83620625D01*
X89397761Y-83820000D01*
X89099375Y-84019375D01*
X88771161Y-84510582D01*
X88655908Y-85090000D01*
X88771161Y-85669418D01*
X89099375Y-86160625D01*
X89397761Y-86360000D01*
X89099375Y-86559375D01*
X88771161Y-87050582D01*
X88655908Y-87630000D01*
X88771161Y-88209418D01*
X89099375Y-88700625D01*
X89418478Y-88913843D01*
X89288642Y-88974817D01*
X88898355Y-89403076D01*
X88728524Y-89813110D01*
X88849845Y-90043000D01*
X90043000Y-90043000D01*
X90043000Y-90023000D01*
X90297000Y-90023000D01*
X90297000Y-90043000D01*
X91490155Y-90043000D01*
X91611476Y-89813110D01*
X91441645Y-89403076D01*
X91051358Y-88974817D01*
X90921522Y-88913843D01*
X91240625Y-88700625D01*
X91568839Y-88209418D01*
X91684092Y-87630000D01*
X91568839Y-87050582D01*
X91240625Y-86559375D01*
X90942239Y-86360000D01*
X91240625Y-86160625D01*
X91568839Y-85669418D01*
X91684092Y-85090000D01*
X91568839Y-84510582D01*
X91240625Y-84019375D01*
X90942239Y-83820000D01*
X91240625Y-83620625D01*
X91568839Y-83129418D01*
X91684092Y-82550000D01*
X91568839Y-81970582D01*
X91240625Y-81479375D01*
X90921522Y-81266157D01*
X91051358Y-81205183D01*
X91441645Y-80776924D01*
X91611476Y-80366890D01*
X91490155Y-80137000D01*
X90297000Y-80137000D01*
X90297000Y-80157000D01*
X90043000Y-80157000D01*
X90043000Y-80137000D01*
X88849845Y-80137000D01*
X88728524Y-80366890D01*
X88898355Y-80776924D01*
X89288642Y-81205183D01*
X89418478Y-81266157D01*
X89099375Y-81479375D01*
X88771161Y-81970582D01*
X88655908Y-82550000D01*
X87324000Y-82550000D01*
X87324000Y-60995964D01*
X87390895Y-60337396D01*
X87578039Y-59740218D01*
X87881436Y-59192876D01*
X88288701Y-58717711D01*
X88783188Y-58334148D01*
X89344700Y-58057850D01*
X89958774Y-57897896D01*
X90451270Y-57860000D01*
X92634854Y-57860000D01*
X91881443Y-58613412D01*
X91881443Y-58613412D01*
G37*
X91881443Y-58613412D02*
X91820073Y-58654418D01*
X91657624Y-58897541D01*
X91614978Y-59111936D01*
X91614978Y-59111939D01*
X91600580Y-59184323D01*
X91614978Y-59256707D01*
X91614978Y-59384782D01*
X91510976Y-59291630D01*
X91384380Y-59165034D01*
X91356948Y-59153671D01*
X91331051Y-59130476D01*
X90675839Y-58853029D01*
X90621915Y-58849211D01*
X90599678Y-58840000D01*
X90491822Y-58840000D01*
X89966082Y-58802776D01*
X89825691Y-58840000D01*
X89750322Y-58840000D01*
X89616266Y-58895528D01*
X89278314Y-58985134D01*
X89079948Y-59117678D01*
X88965620Y-59165034D01*
X88878117Y-59252537D01*
X88686695Y-59380441D01*
X88482004Y-59648650D01*
X88365034Y-59765620D01*
X88332153Y-59845002D01*
X88255020Y-59946070D01*
X88109010Y-60383718D01*
X88040000Y-60550322D01*
X88040000Y-60590566D01*
X88029836Y-60621031D01*
X88035425Y-61332543D01*
X88040000Y-61345571D01*
X88040000Y-61399678D01*
X88164852Y-61701099D01*
X88271183Y-62003884D01*
X88311403Y-62054902D01*
X88365034Y-62184380D01*
X88593891Y-62413237D01*
X88711689Y-62562663D01*
X88800956Y-62620302D01*
X88965620Y-62784966D01*
X89217662Y-62889365D01*
X89309444Y-62948628D01*
X89437574Y-62980456D01*
X89750322Y-63110000D01*
X89959086Y-63110000D01*
X89999992Y-63120161D01*
X90117313Y-63110000D01*
X90599678Y-63110000D01*
X90771883Y-63038670D01*
X87931465Y-65879089D01*
X87870095Y-65920095D01*
X87707646Y-66163218D01*
X87665000Y-66377613D01*
X87665000Y-66377616D01*
X87650602Y-66450000D01*
X87665000Y-66522385D01*
X87665001Y-68527611D01*
X87650602Y-68600000D01*
X87707646Y-68886782D01*
X87829091Y-69068537D01*
X87870096Y-69129905D01*
X87931463Y-69170909D01*
X88667170Y-69906616D01*
X88771161Y-70429418D01*
X89099375Y-70920625D01*
X89418478Y-71133843D01*
X89288642Y-71194817D01*
X88898355Y-71623076D01*
X88728524Y-72033110D01*
X88849845Y-72263000D01*
X90043000Y-72263000D01*
X90043000Y-72243000D01*
X90297000Y-72243000D01*
X90297000Y-72263000D01*
X91490155Y-72263000D01*
X91611476Y-72033110D01*
X91441645Y-71623076D01*
X91051358Y-71194817D01*
X90921522Y-71133843D01*
X91240625Y-70920625D01*
X91568839Y-70429418D01*
X91684092Y-69850000D01*
X91568839Y-69270582D01*
X91240625Y-68779375D01*
X91222381Y-68767184D01*
X91267765Y-68758157D01*
X91477809Y-68617809D01*
X91618157Y-68407765D01*
X91667440Y-68160000D01*
X91667440Y-66460000D01*
X91618157Y-66212235D01*
X91477809Y-66002191D01*
X91267765Y-65861843D01*
X91020000Y-65812560D01*
X90905000Y-65812560D01*
X90905000Y-65584446D01*
X92462663Y-64026784D01*
X92466348Y-64045309D01*
X92612576Y-64264154D01*
X92612578Y-64264156D01*
X92661952Y-64338049D01*
X92735845Y-64387423D01*
X95689468Y-67341047D01*
X95505874Y-67265000D01*
X95094126Y-67265000D01*
X94713720Y-67422569D01*
X94422569Y-67713720D01*
X94265000Y-68094126D01*
X94265000Y-68505874D01*
X94415001Y-68868009D01*
X94415001Y-69526084D01*
X94335047Y-69526084D01*
X94009772Y-69660817D01*
X93760817Y-69909772D01*
X93626084Y-70235047D01*
X93626084Y-70288465D01*
X93568731Y-70374300D01*
X93539550Y-70521003D01*
X91508601Y-72551953D01*
X91490155Y-72517000D01*
X90297000Y-72517000D01*
X90297000Y-72537000D01*
X90043000Y-72537000D01*
X90043000Y-72517000D01*
X88849845Y-72517000D01*
X88728524Y-72746890D01*
X88898355Y-73156924D01*
X89288642Y-73585183D01*
X89418478Y-73646157D01*
X89099375Y-73859375D01*
X88771161Y-74350582D01*
X88655908Y-74930000D01*
X88771161Y-75509418D01*
X89099375Y-76000625D01*
X89397761Y-76200000D01*
X89099375Y-76399375D01*
X88771161Y-76890582D01*
X88655908Y-77470000D01*
X88771161Y-78049418D01*
X89099375Y-78540625D01*
X89418478Y-78753843D01*
X89288642Y-78814817D01*
X88898355Y-79243076D01*
X88728524Y-79653110D01*
X88849845Y-79883000D01*
X90043000Y-79883000D01*
X90043000Y-79863000D01*
X90297000Y-79863000D01*
X90297000Y-79883000D01*
X91490155Y-79883000D01*
X91611476Y-79653110D01*
X91441645Y-79243076D01*
X91051358Y-78814817D01*
X90921522Y-78753843D01*
X91240625Y-78540625D01*
X91568839Y-78049418D01*
X91684092Y-77470000D01*
X91605343Y-77074103D01*
X94415001Y-74264446D01*
X94415000Y-93633421D01*
X91276042Y-96772380D01*
X91240625Y-96719375D01*
X90942239Y-96520000D01*
X91240625Y-96320625D01*
X91568839Y-95829418D01*
X91684092Y-95250000D01*
X91568839Y-94670582D01*
X91240625Y-94179375D01*
X90921522Y-93966157D01*
X91051358Y-93905183D01*
X91441645Y-93476924D01*
X91611476Y-93066890D01*
X91490155Y-92837000D01*
X90297000Y-92837000D01*
X90297000Y-92857000D01*
X90043000Y-92857000D01*
X90043000Y-92837000D01*
X88849845Y-92837000D01*
X88728524Y-93066890D01*
X88898355Y-93476924D01*
X89288642Y-93905183D01*
X89418478Y-93966157D01*
X89099375Y-94179375D01*
X88771161Y-94670582D01*
X88655908Y-95250000D01*
X88771161Y-95829418D01*
X89099375Y-96320625D01*
X89397761Y-96520000D01*
X89099375Y-96719375D01*
X88771161Y-97210582D01*
X88655908Y-97790000D01*
X88771161Y-98369418D01*
X89099375Y-98860625D01*
X89285001Y-98984656D01*
X89285000Y-99135344D01*
X89099375Y-99259375D01*
X88771161Y-99750582D01*
X88655908Y-100330000D01*
X88771161Y-100909418D01*
X89099375Y-101400625D01*
X89397761Y-101600000D01*
X89099375Y-101799375D01*
X88771161Y-102290582D01*
X88655908Y-102870000D01*
X88771161Y-103449418D01*
X89099375Y-103940625D01*
X89590582Y-104268839D01*
X90023744Y-104355000D01*
X90316256Y-104355000D01*
X90749418Y-104268839D01*
X91240625Y-103940625D01*
X91568839Y-103449418D01*
X91684092Y-102870000D01*
X91640538Y-102651040D01*
X96914156Y-97377423D01*
X96988049Y-97328049D01*
X97056340Y-97225846D01*
X97183652Y-97035310D01*
X97209572Y-96905000D01*
X97235000Y-96777165D01*
X97235000Y-96777161D01*
X97252337Y-96690000D01*
X97235000Y-96602839D01*
X97235000Y-77345750D01*
X105275000Y-77345750D01*
X105275000Y-80186309D01*
X105371673Y-80419698D01*
X105550301Y-80598327D01*
X105783690Y-80695000D01*
X107624250Y-80695000D01*
X107783000Y-80536250D01*
X107783000Y-77187000D01*
X108037000Y-77187000D01*
X108037000Y-80536250D01*
X108195750Y-80695000D01*
X110036310Y-80695000D01*
X110269699Y-80598327D01*
X110448327Y-80419698D01*
X110545000Y-80186309D01*
X110545000Y-77345750D01*
X110386250Y-77187000D01*
X108037000Y-77187000D01*
X107783000Y-77187000D01*
X105433750Y-77187000D01*
X105275000Y-77345750D01*
X97235000Y-77345750D01*
X97235000Y-73933691D01*
X105275000Y-73933691D01*
X105275000Y-76774250D01*
X105433750Y-76933000D01*
X107783000Y-76933000D01*
X107783000Y-73583750D01*
X108037000Y-73583750D01*
X108037000Y-76933000D01*
X110386250Y-76933000D01*
X110545000Y-76774250D01*
X110545000Y-73933691D01*
X110448327Y-73700302D01*
X110269699Y-73521673D01*
X110036310Y-73425000D01*
X108195750Y-73425000D01*
X108037000Y-73583750D01*
X107783000Y-73583750D01*
X107624250Y-73425000D01*
X105783690Y-73425000D01*
X105550301Y-73521673D01*
X105371673Y-73700302D01*
X105275000Y-73933691D01*
X97235000Y-73933691D01*
X97235000Y-68870264D01*
X97259722Y-68886783D01*
X97404678Y-68983640D01*
X97662823Y-69034988D01*
X97662827Y-69034988D01*
X97749987Y-69052325D01*
X97837147Y-69034988D01*
X99864010Y-69034988D01*
X99864010Y-69176047D01*
X99998743Y-69501322D01*
X100247698Y-69750277D01*
X100398150Y-69812596D01*
X100454089Y-69868535D01*
X100495095Y-69929905D01*
X100738217Y-70092354D01*
X100952612Y-70135000D01*
X100952616Y-70135000D01*
X101025000Y-70149398D01*
X101097384Y-70135000D01*
X125000298Y-70135000D01*
X124952560Y-70375000D01*
X124952560Y-72125000D01*
X125001843Y-72372765D01*
X125142191Y-72582809D01*
X125352235Y-72723157D01*
X125600000Y-72772440D01*
X127400000Y-72772440D01*
X127647765Y-72723157D01*
X127857809Y-72582809D01*
X127943863Y-72454021D01*
X128335819Y-72845977D01*
X128443247Y-73006753D01*
X128586583Y-73102527D01*
X128523247Y-73144847D01*
X128479453Y-73210389D01*
X128047440Y-73642403D01*
X128047440Y-73625000D01*
X127998157Y-73377235D01*
X127857809Y-73167191D01*
X127647765Y-73026843D01*
X127400000Y-72977560D01*
X125600000Y-72977560D01*
X125352235Y-73026843D01*
X125142191Y-73167191D01*
X125001843Y-73377235D01*
X124952560Y-73625000D01*
X124952560Y-75375000D01*
X125001843Y-75622765D01*
X125096882Y-75765000D01*
X122382237Y-75765000D01*
X122300000Y-75748642D01*
X122217763Y-75765000D01*
X121974199Y-75813448D01*
X121697999Y-75997999D01*
X121651415Y-76067717D01*
X119367720Y-78351413D01*
X119297999Y-78397999D01*
X119113448Y-78674200D01*
X119065000Y-78917764D01*
X119065000Y-78917767D01*
X119048643Y-79000000D01*
X119065000Y-79082233D01*
X119065001Y-98254130D01*
X117094133Y-100225000D01*
X110557440Y-100225000D01*
X110557440Y-98060000D01*
X110508157Y-97812235D01*
X110367809Y-97602191D01*
X110157765Y-97461843D01*
X109910000Y-97412560D01*
X105910000Y-97412560D01*
X105662235Y-97461843D01*
X105452191Y-97602191D01*
X105311843Y-97812235D01*
X105262560Y-98060000D01*
X105262560Y-104060000D01*
X105311843Y-104307765D01*
X105452191Y-104517809D01*
X105662235Y-104658157D01*
X105910000Y-104707440D01*
X109910000Y-104707440D01*
X110157765Y-104658157D01*
X110367809Y-104517809D01*
X110508157Y-104307765D01*
X110557440Y-104060000D01*
X110557440Y-101895000D01*
X117357767Y-101895000D01*
X117440000Y-101911357D01*
X117522233Y-101895000D01*
X117522237Y-101895000D01*
X117765801Y-101846552D01*
X118042001Y-101662001D01*
X118088587Y-101592280D01*
X120432285Y-99248583D01*
X120502001Y-99202001D01*
X120686552Y-98925801D01*
X120735000Y-98682237D01*
X120735000Y-98682234D01*
X120751357Y-98600001D01*
X120735000Y-98517768D01*
X120735000Y-86975950D01*
X130416000Y-86975950D01*
X130416000Y-87116510D01*
X130512673Y-87349899D01*
X130691302Y-87528527D01*
X130924691Y-87625200D01*
X131540250Y-87625200D01*
X131699000Y-87466450D01*
X131699000Y-86817200D01*
X131953000Y-86817200D01*
X131953000Y-87466450D01*
X132111750Y-87625200D01*
X132727309Y-87625200D01*
X132960698Y-87528527D01*
X133139327Y-87349899D01*
X133236000Y-87116510D01*
X133236000Y-86975950D01*
X133077250Y-86817200D01*
X131953000Y-86817200D01*
X131699000Y-86817200D01*
X130574750Y-86817200D01*
X130416000Y-86975950D01*
X120735000Y-86975950D01*
X120735000Y-79345867D01*
X122645868Y-77435000D01*
X127517767Y-77435000D01*
X127600000Y-77451357D01*
X127682233Y-77435000D01*
X127682237Y-77435000D01*
X127925801Y-77386552D01*
X128202001Y-77202001D01*
X128248587Y-77132280D01*
X128844317Y-76536550D01*
X129283000Y-76536550D01*
X129283000Y-76652110D01*
X129379673Y-76885499D01*
X129558302Y-77064127D01*
X129791691Y-77160800D01*
X130507250Y-77160800D01*
X130666000Y-77002050D01*
X130666000Y-76377800D01*
X130920000Y-76377800D01*
X130920000Y-77002050D01*
X131078750Y-77160800D01*
X131794309Y-77160800D01*
X132027698Y-77064127D01*
X132206327Y-76885499D01*
X132303000Y-76652110D01*
X132303000Y-76536550D01*
X132144250Y-76377800D01*
X130920000Y-76377800D01*
X130666000Y-76377800D01*
X129441750Y-76377800D01*
X129283000Y-76536550D01*
X128844317Y-76536550D01*
X129349409Y-76031459D01*
X129441750Y-76123800D01*
X130666000Y-76123800D01*
X130666000Y-76103800D01*
X130920000Y-76103800D01*
X130920000Y-76123800D01*
X132144250Y-76123800D01*
X132303000Y-75965050D01*
X132303000Y-75849490D01*
X132206327Y-75616101D01*
X132197117Y-75606891D01*
X132266157Y-75503565D01*
X132315440Y-75255800D01*
X132315440Y-74705800D01*
X132266157Y-74458035D01*
X132191163Y-74345800D01*
X132266157Y-74233565D01*
X132315440Y-73985800D01*
X132315440Y-73435800D01*
X132266157Y-73188035D01*
X132191163Y-73075800D01*
X132266157Y-72963565D01*
X132315440Y-72715800D01*
X132315440Y-72554886D01*
X136479891Y-76719338D01*
X136520895Y-76780705D01*
X136764017Y-76943154D01*
X136843758Y-76959016D01*
X136860191Y-76983609D01*
X137070235Y-77123957D01*
X137318000Y-77173240D01*
X139068000Y-77173240D01*
X139315000Y-77124109D01*
X139315001Y-78915000D01*
X139115530Y-78915000D01*
X139063247Y-78836753D01*
X138776152Y-78644922D01*
X138437500Y-78577560D01*
X137862500Y-78577560D01*
X137523848Y-78644922D01*
X137275000Y-78811197D01*
X137026152Y-78644922D01*
X136687500Y-78577560D01*
X136112500Y-78577560D01*
X135773848Y-78644922D01*
X135486753Y-78836753D01*
X135434470Y-78915000D01*
X133925158Y-78915000D01*
X133509750Y-78499593D01*
X133465954Y-78434048D01*
X133206293Y-78260547D01*
X132977317Y-78215001D01*
X132977313Y-78215001D01*
X132900001Y-78199623D01*
X132822689Y-78215001D01*
X123277311Y-78215001D01*
X123199999Y-78199623D01*
X123122687Y-78215001D01*
X123122683Y-78215001D01*
X122893707Y-78260547D01*
X122634046Y-78434048D01*
X122590250Y-78499593D01*
X122099592Y-78990251D01*
X122034047Y-79034047D01*
X121990251Y-79099592D01*
X121860547Y-79293708D01*
X121860546Y-79293709D01*
X121815000Y-79522685D01*
X121815000Y-79522688D01*
X121799622Y-79600000D01*
X121815000Y-79677312D01*
X121815001Y-80222681D01*
X121799621Y-80300000D01*
X121815000Y-80377316D01*
X121815000Y-80622685D01*
X121815001Y-84622683D01*
X121799622Y-84700000D01*
X121860546Y-85006291D01*
X121990251Y-85200408D01*
X121990254Y-85200411D01*
X122034048Y-85265953D01*
X122099590Y-85309747D01*
X122790253Y-86000411D01*
X122834047Y-86065953D01*
X122899589Y-86109747D01*
X122899591Y-86109749D01*
X123035227Y-86200378D01*
X123093708Y-86239454D01*
X123322684Y-86285000D01*
X123322688Y-86285000D01*
X123400000Y-86300378D01*
X123477312Y-86285000D01*
X125059470Y-86285000D01*
X125111753Y-86363247D01*
X125398848Y-86555078D01*
X125737500Y-86622440D01*
X126312500Y-86622440D01*
X126651152Y-86555078D01*
X126900000Y-86388803D01*
X127148848Y-86555078D01*
X127487500Y-86622440D01*
X128062500Y-86622440D01*
X128401152Y-86555078D01*
X128688247Y-86363247D01*
X128880078Y-86076152D01*
X128947440Y-85737500D01*
X128947440Y-85705950D01*
X130416000Y-85705950D01*
X130416000Y-85846510D01*
X130502442Y-86055200D01*
X130416000Y-86263890D01*
X130416000Y-86404450D01*
X130574750Y-86563200D01*
X131699000Y-86563200D01*
X131699000Y-85547200D01*
X131953000Y-85547200D01*
X131953000Y-86563200D01*
X133077250Y-86563200D01*
X133236000Y-86404450D01*
X133236000Y-86263890D01*
X133149558Y-86055200D01*
X133236000Y-85846510D01*
X133236000Y-85705950D01*
X133077250Y-85547200D01*
X131953000Y-85547200D01*
X131699000Y-85547200D01*
X130574750Y-85547200D01*
X130416000Y-85705950D01*
X128947440Y-85705950D01*
X128947440Y-85262500D01*
X128882336Y-84935200D01*
X130440310Y-84935200D01*
X130416000Y-84993890D01*
X130416000Y-85134450D01*
X130574750Y-85293200D01*
X131699000Y-85293200D01*
X131699000Y-85273200D01*
X131953000Y-85273200D01*
X131953000Y-85293200D01*
X133077250Y-85293200D01*
X133236000Y-85134450D01*
X133236000Y-84993890D01*
X133146232Y-84777172D01*
X133199157Y-84697965D01*
X133248440Y-84450200D01*
X133248440Y-83850200D01*
X133199157Y-83602435D01*
X133140868Y-83515200D01*
X133199157Y-83427965D01*
X133248440Y-83180200D01*
X133248440Y-82580200D01*
X133199157Y-82332435D01*
X133058809Y-82122391D01*
X132848765Y-81982043D01*
X132601000Y-81932760D01*
X131051000Y-81932760D01*
X130803235Y-81982043D01*
X130633885Y-82095200D01*
X130105358Y-82095200D01*
X129609749Y-81599592D01*
X129565953Y-81534047D01*
X129306292Y-81360546D01*
X129077316Y-81315000D01*
X129077312Y-81315000D01*
X129000000Y-81299622D01*
X128922688Y-81315000D01*
X128899166Y-81315000D01*
X128780507Y-81137415D01*
X128955078Y-80876152D01*
X129022440Y-80537500D01*
X129022440Y-80062500D01*
X128967242Y-79785001D01*
X132574844Y-79785001D01*
X132990253Y-80200410D01*
X133034047Y-80265953D01*
X133099589Y-80309747D01*
X133099591Y-80309749D01*
X133225246Y-80393709D01*
X133293708Y-80439454D01*
X133522684Y-80485000D01*
X133522687Y-80485000D01*
X133599999Y-80500378D01*
X133677311Y-80485000D01*
X135434470Y-80485000D01*
X135486753Y-80563247D01*
X135502836Y-80573993D01*
X135497663Y-80600000D01*
X135515000Y-80687161D01*
X135515000Y-80687164D01*
X135566348Y-80945309D01*
X135761951Y-81238049D01*
X135835847Y-81287425D01*
X136212575Y-81664153D01*
X136261951Y-81738049D01*
X136553355Y-81932760D01*
X136451000Y-81932760D01*
X136203235Y-81982043D01*
X135993191Y-82122391D01*
X135852843Y-82332435D01*
X135803560Y-82580200D01*
X135803560Y-83180200D01*
X135852843Y-83427965D01*
X135905768Y-83507172D01*
X135816000Y-83723890D01*
X135816000Y-83864450D01*
X135974750Y-84023200D01*
X137099000Y-84023200D01*
X137099000Y-84003200D01*
X137353000Y-84003200D01*
X137353000Y-84023200D01*
X138477250Y-84023200D01*
X138534836Y-83965614D01*
X138970692Y-84401471D01*
X139061951Y-84538049D01*
X139177116Y-84615000D01*
X138620057Y-84615000D01*
X138636000Y-84576510D01*
X138636000Y-84435950D01*
X138477250Y-84277200D01*
X137353000Y-84277200D01*
X137353000Y-84297200D01*
X137099000Y-84297200D01*
X137099000Y-84277200D01*
X135974750Y-84277200D01*
X135816000Y-84435950D01*
X135816000Y-84576510D01*
X135905768Y-84793228D01*
X135852843Y-84872435D01*
X135803560Y-85120200D01*
X135803560Y-85720200D01*
X135852843Y-85967965D01*
X135911132Y-86055200D01*
X135852843Y-86142435D01*
X135803560Y-86390200D01*
X135803560Y-86990200D01*
X135852843Y-87237965D01*
X135993191Y-87448009D01*
X136203235Y-87588357D01*
X136451000Y-87637640D01*
X138001000Y-87637640D01*
X138248765Y-87588357D01*
X138403448Y-87485000D01*
X138715000Y-87485000D01*
X138715001Y-97422683D01*
X138699622Y-97500000D01*
X138760546Y-97806291D01*
X138890251Y-98000408D01*
X138890254Y-98000411D01*
X138934048Y-98065953D01*
X138999590Y-98109747D01*
X144260253Y-103370411D01*
X144304047Y-103435953D01*
X144369589Y-103479747D01*
X144369591Y-103479749D01*
X144485840Y-103557424D01*
X144563708Y-103609454D01*
X144792684Y-103655000D01*
X144792688Y-103655000D01*
X144870000Y-103670378D01*
X144947312Y-103655000D01*
X146820526Y-103655000D01*
X147011375Y-103940625D01*
X147502582Y-104268839D01*
X147935744Y-104355000D01*
X148228256Y-104355000D01*
X148661418Y-104268839D01*
X149152625Y-103940625D01*
X149480839Y-103449418D01*
X149596092Y-102870000D01*
X149480839Y-102290582D01*
X149152625Y-101799375D01*
X148854239Y-101600000D01*
X149152625Y-101400625D01*
X149480839Y-100909418D01*
X149596092Y-100330000D01*
X149480839Y-99750582D01*
X149152625Y-99259375D01*
X148854239Y-99060000D01*
X149152625Y-98860625D01*
X149480839Y-98369418D01*
X149596092Y-97790000D01*
X149480839Y-97210582D01*
X149152625Y-96719375D01*
X148833522Y-96506157D01*
X148963358Y-96445183D01*
X149353645Y-96016924D01*
X149523476Y-95606890D01*
X149402155Y-95377000D01*
X148209000Y-95377000D01*
X148209000Y-95397000D01*
X147955000Y-95397000D01*
X147955000Y-95377000D01*
X146761845Y-95377000D01*
X146640524Y-95606890D01*
X146810355Y-96016924D01*
X147200642Y-96445183D01*
X147330478Y-96506157D01*
X147011375Y-96719375D01*
X146683161Y-97210582D01*
X146567908Y-97790000D01*
X146683161Y-98369418D01*
X147011375Y-98860625D01*
X147309761Y-99060000D01*
X147011375Y-99259375D01*
X146820526Y-99545000D01*
X144155158Y-99545000D01*
X141085000Y-96474843D01*
X141085000Y-85417459D01*
X141185000Y-85176037D01*
X141185000Y-84823963D01*
X141168861Y-84785000D01*
X141912839Y-84785000D01*
X142000000Y-84802337D01*
X142087161Y-84785000D01*
X142612839Y-84785000D01*
X142700000Y-84802337D01*
X142787161Y-84785000D01*
X142787165Y-84785000D01*
X143045310Y-84733652D01*
X143338049Y-84538049D01*
X143387425Y-84464153D01*
X143525000Y-84326578D01*
X144852577Y-85654156D01*
X144901951Y-85728049D01*
X144975844Y-85777423D01*
X144975845Y-85777424D01*
X145144060Y-85889822D01*
X145194690Y-85923652D01*
X145452835Y-85975000D01*
X145452839Y-85975000D01*
X145540000Y-85992337D01*
X145627161Y-85975000D01*
X146887344Y-85975000D01*
X147011375Y-86160625D01*
X147309761Y-86360000D01*
X147011375Y-86559375D01*
X146683161Y-87050582D01*
X146567908Y-87630000D01*
X146683161Y-88209418D01*
X147011375Y-88700625D01*
X147309761Y-88900000D01*
X147011375Y-89099375D01*
X146683161Y-89590582D01*
X146567908Y-90170000D01*
X146683161Y-90749418D01*
X147011375Y-91240625D01*
X147309761Y-91440000D01*
X147011375Y-91639375D01*
X146683161Y-92130582D01*
X146567908Y-92710000D01*
X146683161Y-93289418D01*
X147011375Y-93780625D01*
X147330478Y-93993843D01*
X147200642Y-94054817D01*
X146810355Y-94483076D01*
X146640524Y-94893110D01*
X146761845Y-95123000D01*
X147955000Y-95123000D01*
X147955000Y-95103000D01*
X148209000Y-95103000D01*
X148209000Y-95123000D01*
X149402155Y-95123000D01*
X149523476Y-94893110D01*
X149353645Y-94483076D01*
X148963358Y-94054817D01*
X148833522Y-93993843D01*
X149152625Y-93780625D01*
X149480839Y-93289418D01*
X149596092Y-92710000D01*
X149480839Y-92130582D01*
X149152625Y-91639375D01*
X148854239Y-91440000D01*
X149152625Y-91240625D01*
X149480839Y-90749418D01*
X149596092Y-90170000D01*
X149480839Y-89590582D01*
X149152625Y-89099375D01*
X148854239Y-88900000D01*
X149152625Y-88700625D01*
X149480839Y-88209418D01*
X149596092Y-87630000D01*
X149480839Y-87050582D01*
X149152625Y-86559375D01*
X148854239Y-86360000D01*
X149152625Y-86160625D01*
X149480839Y-85669418D01*
X149596092Y-85090000D01*
X149480839Y-84510582D01*
X149152625Y-84019375D01*
X148854239Y-83820000D01*
X149152625Y-83620625D01*
X149480839Y-83129418D01*
X149596092Y-82550000D01*
X149480839Y-81970582D01*
X149152625Y-81479375D01*
X148854239Y-81280000D01*
X149152625Y-81080625D01*
X149480839Y-80589418D01*
X149596092Y-80010000D01*
X149480839Y-79430582D01*
X149152625Y-78939375D01*
X148854239Y-78740000D01*
X149152625Y-78540625D01*
X149480839Y-78049418D01*
X149596092Y-77470000D01*
X149480839Y-76890582D01*
X149152625Y-76399375D01*
X148833522Y-76186157D01*
X148963358Y-76125183D01*
X149353645Y-75696924D01*
X149523476Y-75286890D01*
X149402155Y-75057000D01*
X148209000Y-75057000D01*
X148209000Y-75077000D01*
X147955000Y-75077000D01*
X147955000Y-75057000D01*
X146761845Y-75057000D01*
X146640524Y-75286890D01*
X146810355Y-75696924D01*
X147200642Y-76125183D01*
X147330478Y-76186157D01*
X147011375Y-76399375D01*
X146683161Y-76890582D01*
X146567908Y-77470000D01*
X146683161Y-78049418D01*
X147011375Y-78540625D01*
X147309761Y-78740000D01*
X147011375Y-78939375D01*
X146683161Y-79430582D01*
X146567908Y-80010000D01*
X146683161Y-80589418D01*
X147011375Y-81080625D01*
X147309761Y-81280000D01*
X147011375Y-81479375D01*
X146683161Y-81970582D01*
X146567908Y-82550000D01*
X146683161Y-83129418D01*
X147011375Y-83620625D01*
X147309761Y-83820000D01*
X147011375Y-84019375D01*
X146887344Y-84205000D01*
X145906579Y-84205000D01*
X144385000Y-82683422D01*
X144385000Y-77887161D01*
X144402337Y-77800000D01*
X144385000Y-77712839D01*
X144385000Y-77712835D01*
X144333652Y-77454690D01*
X144323472Y-77439454D01*
X144187424Y-77235845D01*
X144187423Y-77235844D01*
X144138049Y-77161951D01*
X144064156Y-77112577D01*
X141460000Y-74508422D01*
X141460000Y-69737161D01*
X141477337Y-69650000D01*
X141460000Y-69562839D01*
X141460000Y-69562835D01*
X141408652Y-69304690D01*
X141281905Y-69115000D01*
X141262424Y-69085845D01*
X141262423Y-69085844D01*
X141213049Y-69011951D01*
X141139156Y-68962577D01*
X138987424Y-66810846D01*
X138938049Y-66736951D01*
X138645310Y-66541348D01*
X138387165Y-66490000D01*
X138387161Y-66490000D01*
X138300000Y-66472663D01*
X138212839Y-66490000D01*
X116185000Y-66490000D01*
X116185000Y-66151596D01*
X116218337Y-65983999D01*
X116185000Y-65816402D01*
X116185000Y-63435347D01*
X116386625Y-63300625D01*
X116586000Y-63002239D01*
X116785375Y-63300625D01*
X117276582Y-63628839D01*
X117709744Y-63715000D01*
X118002256Y-63715000D01*
X118435418Y-63628839D01*
X118926625Y-63300625D01*
X119126000Y-63002239D01*
X119325375Y-63300625D01*
X119816582Y-63628839D01*
X120249744Y-63715000D01*
X120542256Y-63715000D01*
X120975418Y-63628839D01*
X121466625Y-63300625D01*
X121666000Y-63002239D01*
X121865375Y-63300625D01*
X122356582Y-63628839D01*
X122789744Y-63715000D01*
X123082256Y-63715000D01*
X123515418Y-63628839D01*
X124006625Y-63300625D01*
X124219843Y-62981522D01*
X124280817Y-63111358D01*
X124709076Y-63501645D01*
X125119110Y-63671476D01*
X125349000Y-63550155D01*
X125349000Y-62357000D01*
X125329000Y-62357000D01*
X125329000Y-62103000D01*
X125349000Y-62103000D01*
X125349000Y-62083000D01*
X125603000Y-62083000D01*
X125603000Y-62103000D01*
X125623000Y-62103000D01*
X125623000Y-62357000D01*
X125603000Y-62357000D01*
X125603000Y-63550155D01*
X125832890Y-63671476D01*
X126242924Y-63501645D01*
X126671183Y-63111358D01*
X126732157Y-62981522D01*
X126945375Y-63300625D01*
X127436582Y-63628839D01*
X127869744Y-63715000D01*
X128162256Y-63715000D01*
X128595418Y-63628839D01*
X129086625Y-63300625D01*
X129286000Y-63002239D01*
X129485375Y-63300625D01*
X129976582Y-63628839D01*
X130409744Y-63715000D01*
X130702256Y-63715000D01*
X131135418Y-63628839D01*
X131626625Y-63300625D01*
X131826000Y-63002239D01*
X132025375Y-63300625D01*
X132516582Y-63628839D01*
X132949744Y-63715000D01*
X133242256Y-63715000D01*
X133491897Y-63665343D01*
X135345091Y-65518537D01*
X135386095Y-65579905D01*
X135629217Y-65742354D01*
X135843612Y-65785000D01*
X135843615Y-65785000D01*
X135915999Y-65799398D01*
X135988383Y-65785000D01*
X139045554Y-65785000D01*
X146119091Y-72858538D01*
X146160095Y-72919905D01*
X146403217Y-73082354D01*
X146617612Y-73125000D01*
X146690000Y-73139399D01*
X146762388Y-73125000D01*
X146787118Y-73125000D01*
X147011375Y-73460625D01*
X147330478Y-73673843D01*
X147200642Y-73734817D01*
X146810355Y-74163076D01*
X146640524Y-74573110D01*
X146761845Y-74803000D01*
X147955000Y-74803000D01*
X147955000Y-74783000D01*
X148209000Y-74783000D01*
X148209000Y-74803000D01*
X149402155Y-74803000D01*
X149523476Y-74573110D01*
X149353645Y-74163076D01*
X148963358Y-73734817D01*
X148833522Y-73673843D01*
X149152625Y-73460625D01*
X149480839Y-72969418D01*
X149596092Y-72390000D01*
X149480839Y-71810582D01*
X149152625Y-71319375D01*
X148854239Y-71120000D01*
X149152625Y-70920625D01*
X149480839Y-70429418D01*
X149596092Y-69850000D01*
X149480839Y-69270582D01*
X149152625Y-68779375D01*
X149130967Y-68764904D01*
X149291698Y-68698327D01*
X149470327Y-68519699D01*
X149567000Y-68286310D01*
X149567000Y-67595750D01*
X149408250Y-67437000D01*
X148209000Y-67437000D01*
X148209000Y-67457000D01*
X147955000Y-67457000D01*
X147955000Y-67437000D01*
X146755750Y-67437000D01*
X146597000Y-67595750D01*
X146597000Y-68286310D01*
X146693673Y-68519699D01*
X146872302Y-68698327D01*
X147033033Y-68764904D01*
X147011375Y-68779375D01*
X146787118Y-69115000D01*
X145104447Y-69115000D01*
X142323137Y-66333690D01*
X146597000Y-66333690D01*
X146597000Y-67024250D01*
X146755750Y-67183000D01*
X147955000Y-67183000D01*
X147955000Y-65983750D01*
X148209000Y-65983750D01*
X148209000Y-67183000D01*
X149408250Y-67183000D01*
X149567000Y-67024250D01*
X149567000Y-66333690D01*
X149470327Y-66100301D01*
X149291698Y-65921673D01*
X149058309Y-65825000D01*
X148367750Y-65825000D01*
X148209000Y-65983750D01*
X147955000Y-65983750D01*
X147796250Y-65825000D01*
X147105691Y-65825000D01*
X146872302Y-65921673D01*
X146693673Y-66100301D01*
X146597000Y-66333690D01*
X142323137Y-66333690D01*
X139820911Y-63831465D01*
X139779905Y-63770095D01*
X139536783Y-63607646D01*
X139322388Y-63565000D01*
X139322384Y-63565000D01*
X139250000Y-63550602D01*
X139177616Y-63565000D01*
X138850960Y-63565000D01*
X139246625Y-63300625D01*
X139446000Y-63002239D01*
X139645375Y-63300625D01*
X140136582Y-63628839D01*
X140569744Y-63715000D01*
X140862256Y-63715000D01*
X141295418Y-63628839D01*
X141786625Y-63300625D01*
X141999843Y-62981522D01*
X142060817Y-63111358D01*
X142489076Y-63501645D01*
X142899110Y-63671476D01*
X143129000Y-63550155D01*
X143129000Y-62357000D01*
X143383000Y-62357000D01*
X143383000Y-63550155D01*
X143612890Y-63671476D01*
X144022924Y-63501645D01*
X144451183Y-63111358D01*
X144697486Y-62586892D01*
X144576819Y-62357000D01*
X143383000Y-62357000D01*
X143129000Y-62357000D01*
X143109000Y-62357000D01*
X143109000Y-62103000D01*
X143129000Y-62103000D01*
X143129000Y-62083000D01*
X143383000Y-62083000D01*
X143383000Y-62103000D01*
X144576819Y-62103000D01*
X144697486Y-61873108D01*
X144451183Y-61348642D01*
X144026214Y-60961353D01*
X144326625Y-60760625D01*
X144419898Y-60621031D01*
X145941836Y-60621031D01*
X145947425Y-61332543D01*
X145965000Y-61382589D01*
X145965000Y-61399678D01*
X146004432Y-61494876D01*
X146183183Y-62003884D01*
X146250796Y-62089650D01*
X146290034Y-62184380D01*
X146457473Y-62351819D01*
X146623689Y-62562663D01*
X146749647Y-62643993D01*
X146890620Y-62784966D01*
X147106399Y-62874345D01*
X147221444Y-62948628D01*
X147382049Y-62988523D01*
X147675322Y-63110000D01*
X147871086Y-63110000D01*
X147911992Y-63120161D01*
X148029313Y-63110000D01*
X148524678Y-63110000D01*
X149309380Y-62784966D01*
X149909966Y-62184380D01*
X150107811Y-61706739D01*
X150132017Y-61661878D01*
X150135795Y-61639180D01*
X150235000Y-61399678D01*
X150235000Y-61043157D01*
X150248841Y-60960000D01*
X150248574Y-60925965D01*
X150235000Y-60851641D01*
X150235000Y-60550322D01*
X150136570Y-60312691D01*
X150120739Y-60226009D01*
X150043641Y-60088341D01*
X149909966Y-59765620D01*
X149803012Y-59658666D01*
X149773069Y-59605199D01*
X149547585Y-59403239D01*
X149309380Y-59165034D01*
X149257764Y-59143654D01*
X149243051Y-59130476D01*
X148587839Y-58853029D01*
X148549596Y-58850321D01*
X148524678Y-58840000D01*
X148403822Y-58840000D01*
X147878082Y-58802776D01*
X147737691Y-58840000D01*
X147675322Y-58840000D01*
X147564388Y-58885950D01*
X147190314Y-58985134D01*
X146970745Y-59131845D01*
X146890620Y-59165034D01*
X146829295Y-59226359D01*
X146598695Y-59380441D01*
X146352111Y-59703543D01*
X146290034Y-59765620D01*
X146272584Y-59807748D01*
X146167020Y-59946070D01*
X145967191Y-60545032D01*
X145965000Y-60550322D01*
X145965000Y-60551600D01*
X145941836Y-60621031D01*
X144419898Y-60621031D01*
X144654839Y-60269418D01*
X144770092Y-59690000D01*
X144654839Y-59110582D01*
X144326625Y-58619375D01*
X143835418Y-58291161D01*
X143402256Y-58205000D01*
X143109744Y-58205000D01*
X142676582Y-58291161D01*
X142185375Y-58619375D01*
X141986000Y-58917761D01*
X141786625Y-58619375D01*
X141295418Y-58291161D01*
X140862256Y-58205000D01*
X140569744Y-58205000D01*
X140136582Y-58291161D01*
X139645375Y-58619375D01*
X139446000Y-58917761D01*
X139246625Y-58619375D01*
X138755418Y-58291161D01*
X138322256Y-58205000D01*
X138029744Y-58205000D01*
X137596582Y-58291161D01*
X137105375Y-58619375D01*
X136892157Y-58938478D01*
X136831183Y-58808642D01*
X136402924Y-58418355D01*
X135992890Y-58248524D01*
X135763000Y-58369845D01*
X135763000Y-59563000D01*
X135783000Y-59563000D01*
X135783000Y-59817000D01*
X135763000Y-59817000D01*
X135763000Y-59837000D01*
X135509000Y-59837000D01*
X135509000Y-59817000D01*
X135489000Y-59817000D01*
X135489000Y-59563000D01*
X135509000Y-59563000D01*
X135509000Y-58369845D01*
X135279110Y-58248524D01*
X134869076Y-58418355D01*
X134440817Y-58808642D01*
X134379843Y-58938478D01*
X134166625Y-58619375D01*
X133675418Y-58291161D01*
X133242256Y-58205000D01*
X132949744Y-58205000D01*
X132516582Y-58291161D01*
X132025375Y-58619375D01*
X131812157Y-58938478D01*
X131751183Y-58808642D01*
X131322924Y-58418355D01*
X130912890Y-58248524D01*
X130683000Y-58369845D01*
X130683000Y-59563000D01*
X130703000Y-59563000D01*
X130703000Y-59817000D01*
X130683000Y-59817000D01*
X130683000Y-59837000D01*
X130429000Y-59837000D01*
X130429000Y-59817000D01*
X130409000Y-59817000D01*
X130409000Y-59563000D01*
X130429000Y-59563000D01*
X130429000Y-58369845D01*
X130199110Y-58248524D01*
X129789076Y-58418355D01*
X129360817Y-58808642D01*
X129299843Y-58938478D01*
X129086625Y-58619375D01*
X128595418Y-58291161D01*
X128162256Y-58205000D01*
X127869744Y-58205000D01*
X127436582Y-58291161D01*
X126945375Y-58619375D01*
X126746000Y-58917761D01*
X126546625Y-58619375D01*
X126055418Y-58291161D01*
X125622256Y-58205000D01*
X125329744Y-58205000D01*
X124896582Y-58291161D01*
X124405375Y-58619375D01*
X124206000Y-58917761D01*
X124006625Y-58619375D01*
X123515418Y-58291161D01*
X123082256Y-58205000D01*
X122789744Y-58205000D01*
X122540103Y-58254657D01*
X122145446Y-57860000D01*
X147792036Y-57860000D01*
X148450604Y-57926895D01*
X149047782Y-58114039D01*
X149595124Y-58417436D01*
X150070289Y-58824701D01*
X150453852Y-59319188D01*
X150730150Y-59880700D01*
X150890104Y-60494774D01*
X150928000Y-60987270D01*
X150928001Y-109692026D01*
X150861105Y-110350604D01*
X150673961Y-110947782D01*
X150370563Y-111495125D01*
X149963299Y-111970289D01*
X149468812Y-112353852D01*
X148907304Y-112630148D01*
X148293227Y-112790104D01*
X147800730Y-112828000D01*
X90459964Y-112828000D01*
X89801396Y-112761105D01*
X89204218Y-112573961D01*
X88656875Y-112270563D01*
X88181711Y-111863299D01*
X87798148Y-111368812D01*
X87521852Y-110807304D01*
X87361896Y-110193227D01*
X87324000Y-109700730D01*
X87324000Y-109643031D01*
X88029836Y-109643031D01*
X88035425Y-110354543D01*
X88040000Y-110367571D01*
X88040000Y-110399678D01*
X88114087Y-110578541D01*
X88271183Y-111025884D01*
X88330605Y-111101260D01*
X88365034Y-111184380D01*
X88511952Y-111331298D01*
X88711689Y-111584663D01*
X88863048Y-111682394D01*
X88965620Y-111784966D01*
X89122620Y-111849998D01*
X89309444Y-111970628D01*
X89570255Y-112035414D01*
X89750322Y-112110000D01*
X89870520Y-112110000D01*
X89999992Y-112142161D01*
X90371329Y-112110000D01*
X90599678Y-112110000D01*
X90660046Y-112084995D01*
X90708871Y-112080766D01*
X91282549Y-111827146D01*
X91384380Y-111784966D01*
X91579713Y-111589633D01*
X91882140Y-111310072D01*
X91908937Y-111260409D01*
X91984966Y-111184380D01*
X92100634Y-110905134D01*
X92220017Y-110683878D01*
X92238650Y-110571933D01*
X92310000Y-110399678D01*
X92310000Y-110143261D01*
X92336841Y-109982000D01*
X92336574Y-109947965D01*
X92310000Y-109802460D01*
X92310000Y-109622975D01*
X145929174Y-109622975D01*
X145934796Y-110338696D01*
X146171949Y-111014009D01*
X146615061Y-111576094D01*
X146873839Y-111743185D01*
X146890620Y-111759966D01*
X146916306Y-111770605D01*
X147216352Y-111964343D01*
X147635227Y-112068392D01*
X147675322Y-112085000D01*
X147702086Y-112085000D01*
X147910986Y-112136891D01*
X148510123Y-112085000D01*
X148524678Y-112085000D01*
X148528526Y-112083406D01*
X148624060Y-112075132D01*
X149278684Y-111785726D01*
X149304254Y-111762089D01*
X149309380Y-111759966D01*
X149343967Y-111725379D01*
X149804270Y-111299879D01*
X149845055Y-111224291D01*
X149909966Y-111159380D01*
X150008721Y-110920964D01*
X150144145Y-110669979D01*
X150165281Y-110542994D01*
X150235000Y-110374678D01*
X150235000Y-110124127D01*
X150261661Y-109963949D01*
X150261392Y-109929712D01*
X150235000Y-109785203D01*
X150235000Y-109525322D01*
X150150106Y-109320371D01*
X150132801Y-109225615D01*
X150048522Y-109075124D01*
X149909966Y-108740620D01*
X149799107Y-108629761D01*
X149783074Y-108601132D01*
X149662336Y-108492990D01*
X149309380Y-108140034D01*
X148524678Y-107815000D01*
X148174020Y-107815000D01*
X147876876Y-107793961D01*
X147797527Y-107815000D01*
X147675322Y-107815000D01*
X147457956Y-107905036D01*
X147185038Y-107977399D01*
X147024846Y-108084436D01*
X146890620Y-108140034D01*
X146787887Y-108242767D01*
X146589919Y-108375045D01*
X146378232Y-108652422D01*
X146290034Y-108740620D01*
X146265241Y-108800476D01*
X146155691Y-108944021D01*
X145929174Y-109622975D01*
X92310000Y-109622975D01*
X92310000Y-109550322D01*
X92227636Y-109351477D01*
X92208739Y-109248009D01*
X92116711Y-109083682D01*
X91984966Y-108765620D01*
X91879556Y-108660210D01*
X91861069Y-108627199D01*
X91721852Y-108502506D01*
X91384380Y-108165034D01*
X90599678Y-107840000D01*
X90181101Y-107840000D01*
X89966082Y-107824776D01*
X89908664Y-107840000D01*
X89750322Y-107840000D01*
X89468683Y-107956659D01*
X89278314Y-108007134D01*
X89166574Y-108081796D01*
X88965620Y-108165034D01*
X88811816Y-108318838D01*
X88686695Y-108402441D01*
X88552901Y-108577753D01*
X88365034Y-108765620D01*
X88312224Y-108893115D01*
X88255020Y-108968070D01*
X88146735Y-109292641D01*
X88040000Y-109550322D01*
X88040000Y-109612566D01*
X88029836Y-109643031D01*
X87324000Y-109643031D01*
X87324000Y-90526890D01*
X88728524Y-90526890D01*
X88898355Y-90936924D01*
X89288642Y-91365183D01*
X89447954Y-91440000D01*
X89288642Y-91514817D01*
X88898355Y-91943076D01*
X88728524Y-92353110D01*
X88849845Y-92583000D01*
X90043000Y-92583000D01*
X90043000Y-90297000D01*
X90297000Y-90297000D01*
X90297000Y-92583000D01*
X91490155Y-92583000D01*
X91611476Y-92353110D01*
X91441645Y-91943076D01*
X91051358Y-91514817D01*
X90892046Y-91440000D01*
X91051358Y-91365183D01*
X91441645Y-90936924D01*
X91611476Y-90526890D01*
X91490155Y-90297000D01*
X90297000Y-90297000D01*
X90043000Y-90297000D01*
X88849845Y-90297000D01*
X88728524Y-90526890D01*
X87324000Y-90526890D01*
X87324000Y-82550000D01*
X88655908Y-82550000D01*
X88771161Y-83129418D01*
X89099375Y-83620625D01*
X89397761Y-83820000D01*
X89099375Y-84019375D01*
X88771161Y-84510582D01*
X88655908Y-85090000D01*
X88771161Y-85669418D01*
X89099375Y-86160625D01*
X89397761Y-86360000D01*
X89099375Y-86559375D01*
X88771161Y-87050582D01*
X88655908Y-87630000D01*
X88771161Y-88209418D01*
X89099375Y-88700625D01*
X89418478Y-88913843D01*
X89288642Y-88974817D01*
X88898355Y-89403076D01*
X88728524Y-89813110D01*
X88849845Y-90043000D01*
X90043000Y-90043000D01*
X90043000Y-90023000D01*
X90297000Y-90023000D01*
X90297000Y-90043000D01*
X91490155Y-90043000D01*
X91611476Y-89813110D01*
X91441645Y-89403076D01*
X91051358Y-88974817D01*
X90921522Y-88913843D01*
X91240625Y-88700625D01*
X91568839Y-88209418D01*
X91684092Y-87630000D01*
X91568839Y-87050582D01*
X91240625Y-86559375D01*
X90942239Y-86360000D01*
X91240625Y-86160625D01*
X91568839Y-85669418D01*
X91684092Y-85090000D01*
X91568839Y-84510582D01*
X91240625Y-84019375D01*
X90942239Y-83820000D01*
X91240625Y-83620625D01*
X91568839Y-83129418D01*
X91684092Y-82550000D01*
X91568839Y-81970582D01*
X91240625Y-81479375D01*
X90921522Y-81266157D01*
X91051358Y-81205183D01*
X91441645Y-80776924D01*
X91611476Y-80366890D01*
X91490155Y-80137000D01*
X90297000Y-80137000D01*
X90297000Y-80157000D01*
X90043000Y-80157000D01*
X90043000Y-80137000D01*
X88849845Y-80137000D01*
X88728524Y-80366890D01*
X88898355Y-80776924D01*
X89288642Y-81205183D01*
X89418478Y-81266157D01*
X89099375Y-81479375D01*
X88771161Y-81970582D01*
X88655908Y-82550000D01*
X87324000Y-82550000D01*
X87324000Y-60995964D01*
X87390895Y-60337396D01*
X87578039Y-59740218D01*
X87881436Y-59192876D01*
X88288701Y-58717711D01*
X88783188Y-58334148D01*
X89344700Y-58057850D01*
X89958774Y-57897896D01*
X90451270Y-57860000D01*
X92634854Y-57860000D01*
X91881443Y-58613412D01*
G36*
X124890000Y-81298690D02*
X124890000Y-81614250D01*
X125048750Y-81773000D01*
X125923000Y-81773000D01*
X125923000Y-81753000D01*
X126177000Y-81753000D01*
X126177000Y-81773000D01*
X126197000Y-81773000D01*
X126197000Y-82027000D01*
X126177000Y-82027000D01*
X126177000Y-82851250D01*
X126225750Y-82900000D01*
X126177000Y-82948750D01*
X126177000Y-83773000D01*
X126197000Y-83773000D01*
X126197000Y-84027000D01*
X126177000Y-84027000D01*
X126177000Y-84047000D01*
X125923000Y-84047000D01*
X125923000Y-84027000D01*
X125048750Y-84027000D01*
X124890000Y-84185750D01*
X124890000Y-84501310D01*
X124978513Y-84715000D01*
X123725158Y-84715000D01*
X123385000Y-84374843D01*
X123385000Y-82185750D01*
X124890000Y-82185750D01*
X124890000Y-82501310D01*
X124986673Y-82734699D01*
X125151975Y-82900000D01*
X124986673Y-83065301D01*
X124890000Y-83298690D01*
X124890000Y-83614250D01*
X125048750Y-83773000D01*
X125923000Y-83773000D01*
X125923000Y-82948750D01*
X125874250Y-82900000D01*
X125923000Y-82851250D01*
X125923000Y-82027000D01*
X125048750Y-82027000D01*
X124890000Y-82185750D01*
X123385000Y-82185750D01*
X123385000Y-81085000D01*
X124978513Y-81085000D01*
X124890000Y-81298690D01*
X124890000Y-81298690D01*
G37*
X124890000Y-81298690D02*
X124890000Y-81614250D01*
X125048750Y-81773000D01*
X125923000Y-81773000D01*
X125923000Y-81753000D01*
X126177000Y-81753000D01*
X126177000Y-81773000D01*
X126197000Y-81773000D01*
X126197000Y-82027000D01*
X126177000Y-82027000D01*
X126177000Y-82851250D01*
X126225750Y-82900000D01*
X126177000Y-82948750D01*
X126177000Y-83773000D01*
X126197000Y-83773000D01*
X126197000Y-84027000D01*
X126177000Y-84027000D01*
X126177000Y-84047000D01*
X125923000Y-84047000D01*
X125923000Y-84027000D01*
X125048750Y-84027000D01*
X124890000Y-84185750D01*
X124890000Y-84501310D01*
X124978513Y-84715000D01*
X123725158Y-84715000D01*
X123385000Y-84374843D01*
X123385000Y-82185750D01*
X124890000Y-82185750D01*
X124890000Y-82501310D01*
X124986673Y-82734699D01*
X125151975Y-82900000D01*
X124986673Y-83065301D01*
X124890000Y-83298690D01*
X124890000Y-83614250D01*
X125048750Y-83773000D01*
X125923000Y-83773000D01*
X125923000Y-82948750D01*
X125874250Y-82900000D01*
X125923000Y-82851250D01*
X125923000Y-82027000D01*
X125048750Y-82027000D01*
X124890000Y-82185750D01*
X123385000Y-82185750D01*
X123385000Y-81085000D01*
X124978513Y-81085000D01*
X124890000Y-81298690D01*
G36*
X105283000Y-62103000D02*
X105303000Y-62103000D01*
X105303000Y-62357000D01*
X105283000Y-62357000D01*
X105283000Y-63550155D01*
X105512890Y-63671476D01*
X105690001Y-63598119D01*
X105690001Y-63945543D01*
X105520554Y-64114990D01*
X105498963Y-64114990D01*
X105173688Y-64249723D01*
X104924733Y-64498678D01*
X104793709Y-64814999D01*
X104708800Y-64814999D01*
X104650267Y-64673688D01*
X104401312Y-64424733D01*
X104076037Y-64290000D01*
X103723963Y-64290000D01*
X103398688Y-64424733D01*
X103149733Y-64673688D01*
X103015000Y-64998963D01*
X103015000Y-65351037D01*
X103145047Y-65665000D01*
X100768092Y-65665000D01*
X100739835Y-65636744D01*
X100850267Y-65526312D01*
X100985000Y-65201037D01*
X100985000Y-64848963D01*
X100850267Y-64523688D01*
X100811000Y-64484421D01*
X100811000Y-63524882D01*
X101146625Y-63300625D01*
X101346000Y-63002239D01*
X101545375Y-63300625D01*
X102036582Y-63628839D01*
X102469744Y-63715000D01*
X102762256Y-63715000D01*
X103195418Y-63628839D01*
X103686625Y-63300625D01*
X103899843Y-62981522D01*
X103960817Y-63111358D01*
X104389076Y-63501645D01*
X104799110Y-63671476D01*
X105029000Y-63550155D01*
X105029000Y-62357000D01*
X105009000Y-62357000D01*
X105009000Y-62103000D01*
X105029000Y-62103000D01*
X105029000Y-62083000D01*
X105283000Y-62083000D01*
X105283000Y-62103000D01*
X105283000Y-62103000D01*
G37*
X105283000Y-62103000D02*
X105303000Y-62103000D01*
X105303000Y-62357000D01*
X105283000Y-62357000D01*
X105283000Y-63550155D01*
X105512890Y-63671476D01*
X105690001Y-63598119D01*
X105690001Y-63945543D01*
X105520554Y-64114990D01*
X105498963Y-64114990D01*
X105173688Y-64249723D01*
X104924733Y-64498678D01*
X104793709Y-64814999D01*
X104708800Y-64814999D01*
X104650267Y-64673688D01*
X104401312Y-64424733D01*
X104076037Y-64290000D01*
X103723963Y-64290000D01*
X103398688Y-64424733D01*
X103149733Y-64673688D01*
X103015000Y-64998963D01*
X103015000Y-65351037D01*
X103145047Y-65665000D01*
X100768092Y-65665000D01*
X100739835Y-65636744D01*
X100850267Y-65526312D01*
X100985000Y-65201037D01*
X100985000Y-64848963D01*
X100850267Y-64523688D01*
X100811000Y-64484421D01*
X100811000Y-63524882D01*
X101146625Y-63300625D01*
X101346000Y-63002239D01*
X101545375Y-63300625D01*
X102036582Y-63628839D01*
X102469744Y-63715000D01*
X102762256Y-63715000D01*
X103195418Y-63628839D01*
X103686625Y-63300625D01*
X103899843Y-62981522D01*
X103960817Y-63111358D01*
X104389076Y-63501645D01*
X104799110Y-63671476D01*
X105029000Y-63550155D01*
X105029000Y-62357000D01*
X105009000Y-62357000D01*
X105009000Y-62103000D01*
X105029000Y-62103000D01*
X105029000Y-62083000D01*
X105283000Y-62083000D01*
X105283000Y-62103000D01*
G36*
X110790001Y-63820552D02*
X108945554Y-65665000D01*
X108274446Y-65665000D01*
X109443537Y-64495910D01*
X109504905Y-64454905D01*
X109667354Y-64211783D01*
X109710000Y-63997388D01*
X109724399Y-63925000D01*
X109710000Y-63852612D01*
X109710000Y-63639464D01*
X110089744Y-63715000D01*
X110382256Y-63715000D01*
X110790001Y-63633895D01*
X110790001Y-63820552D01*
X110790001Y-63820552D01*
G37*
X110790001Y-63820552D02*
X108945554Y-65665000D01*
X108274446Y-65665000D01*
X109443537Y-64495910D01*
X109504905Y-64454905D01*
X109667354Y-64211783D01*
X109710000Y-63997388D01*
X109724399Y-63925000D01*
X109710000Y-63852612D01*
X109710000Y-63639464D01*
X110089744Y-63715000D01*
X110382256Y-63715000D01*
X110790001Y-63633895D01*
X110790001Y-63820552D01*
G36*
X119325375Y-60760625D02*
X119623761Y-60960000D01*
X119325375Y-61159375D01*
X119126000Y-61457761D01*
X118926625Y-61159375D01*
X118626214Y-60958647D01*
X119051183Y-60571358D01*
X119112157Y-60441522D01*
X119325375Y-60760625D01*
X119325375Y-60760625D01*
G37*
X119325375Y-60760625D02*
X119623761Y-60960000D01*
X119325375Y-61159375D01*
X119126000Y-61457761D01*
X118926625Y-61159375D01*
X118626214Y-60958647D01*
X119051183Y-60571358D01*
X119112157Y-60441522D01*
X119325375Y-60760625D01*
G36*
X110363000Y-59563000D02*
X110383000Y-59563000D01*
X110383000Y-59817000D01*
X110363000Y-59817000D01*
X110363000Y-59837000D01*
X110109000Y-59837000D01*
X110109000Y-59817000D01*
X110089000Y-59817000D01*
X110089000Y-59563000D01*
X110109000Y-59563000D01*
X110109000Y-59543000D01*
X110363000Y-59543000D01*
X110363000Y-59563000D01*
X110363000Y-59563000D01*
G37*
X110363000Y-59563000D02*
X110383000Y-59563000D01*
X110383000Y-59817000D01*
X110363000Y-59817000D01*
X110363000Y-59837000D01*
X110109000Y-59837000D01*
X110109000Y-59817000D01*
X110089000Y-59817000D01*
X110089000Y-59563000D01*
X110109000Y-59563000D01*
X110109000Y-59543000D01*
X110363000Y-59543000D01*
X110363000Y-59563000D01*
G36*
X100203000Y-59563000D02*
X100223000Y-59563000D01*
X100223000Y-59817000D01*
X100203000Y-59817000D01*
X100203000Y-59837000D01*
X99949000Y-59837000D01*
X99949000Y-59817000D01*
X99929000Y-59817000D01*
X99929000Y-59563000D01*
X99949000Y-59563000D01*
X99949000Y-59543000D01*
X100203000Y-59543000D01*
X100203000Y-59563000D01*
X100203000Y-59563000D01*
G37*
X100203000Y-59563000D02*
X100223000Y-59563000D01*
X100223000Y-59817000D01*
X100203000Y-59817000D01*
X100203000Y-59837000D01*
X99949000Y-59837000D01*
X99949000Y-59817000D01*
X99929000Y-59817000D01*
X99929000Y-59563000D01*
X99949000Y-59563000D01*
X99949000Y-59543000D01*
X100203000Y-59543000D01*
X100203000Y-59563000D01*
G36*
X117983000Y-59563000D02*
X118003000Y-59563000D01*
X118003000Y-59817000D01*
X117983000Y-59817000D01*
X117983000Y-59837000D01*
X117729000Y-59837000D01*
X117729000Y-59817000D01*
X117709000Y-59817000D01*
X117709000Y-59563000D01*
X117729000Y-59563000D01*
X117729000Y-59543000D01*
X117983000Y-59543000D01*
X117983000Y-59563000D01*
X117983000Y-59563000D01*
G37*
X117983000Y-59563000D02*
X118003000Y-59563000D01*
X118003000Y-59817000D01*
X117983000Y-59817000D01*
X117983000Y-59837000D01*
X117729000Y-59837000D01*
X117729000Y-59817000D01*
X117709000Y-59817000D01*
X117709000Y-59563000D01*
X117729000Y-59563000D01*
X117729000Y-59543000D01*
X117983000Y-59543000D01*
X117983000Y-59563000D01*
G04 #@! TD*
M02*
