G04 #@! TF.GenerationSoftware,KiCad,Pcbnew,(5.0.0-3-g5ebb6b6)*
G04 #@! TF.CreationDate,2019-05-19T23:31:11+02:00*
G04 #@! TF.ProjectId,RTC Board,52544320426F6172642E6B696361645F,rev?*
G04 #@! TF.SameCoordinates,Original*
G04 #@! TF.FileFunction,Legend,Bot*
G04 #@! TF.FilePolarity,Positive*
%FSLAX46Y46*%
G04 Gerber Fmt 4.6, Leading zero omitted, Abs format (unit mm)*
G04 Created by KiCad (PCBNEW (5.0.0-3-g5ebb6b6)) date Sunday, 19 May 2019 at 23:31:11*
%MOMM*%
%LPD*%
G01*
G04 APERTURE LIST*
%ADD10C,0.120000*%
%ADD11C,0.150000*%
G04 APERTURE END LIST*
D10*
G04 #@! TO.C,J6*
X93666000Y-58360000D02*
X93666000Y-60960000D01*
X93666000Y-58360000D02*
X144586000Y-58360000D01*
X144586000Y-58360000D02*
X144586000Y-63560000D01*
X96266000Y-63560000D02*
X144586000Y-63560000D01*
X96266000Y-60960000D02*
X96266000Y-63560000D01*
X93666000Y-60960000D02*
X96266000Y-60960000D01*
X93666000Y-63560000D02*
X94996000Y-63560000D01*
X93666000Y-62230000D02*
X93666000Y-63560000D01*
D11*
X91678380Y-60626666D02*
X92392666Y-60626666D01*
X92535523Y-60579047D01*
X92630761Y-60483809D01*
X92678380Y-60340952D01*
X92678380Y-60245714D01*
X91678380Y-61531428D02*
X91678380Y-61340952D01*
X91726000Y-61245714D01*
X91773619Y-61198095D01*
X91916476Y-61102857D01*
X92106952Y-61055238D01*
X92487904Y-61055238D01*
X92583142Y-61102857D01*
X92630761Y-61150476D01*
X92678380Y-61245714D01*
X92678380Y-61436190D01*
X92630761Y-61531428D01*
X92583142Y-61579047D01*
X92487904Y-61626666D01*
X92249809Y-61626666D01*
X92154571Y-61579047D01*
X92106952Y-61531428D01*
X92059333Y-61436190D01*
X92059333Y-61245714D01*
X92106952Y-61150476D01*
X92154571Y-61102857D01*
X92249809Y-61055238D01*
G04 #@! TD*
M02*
