G04 #@! TF.GenerationSoftware,KiCad,Pcbnew,(5.0.0-3-g5ebb6b6)*
G04 #@! TF.CreationDate,2019-05-19T23:31:11+02:00*
G04 #@! TF.ProjectId,RTC Board,52544320426F6172642E6B696361645F,rev?*
G04 #@! TF.SameCoordinates,Original*
G04 #@! TF.FileFunction,Soldermask,Top*
G04 #@! TF.FilePolarity,Negative*
%FSLAX46Y46*%
G04 Gerber Fmt 4.6, Leading zero omitted, Abs format (unit mm)*
G04 Created by KiCad (PCBNEW (5.0.0-3-g5ebb6b6)) date Sunday, 19 May 2019 at 23:31:11*
%MOMM*%
%LPD*%
G01*
G04 APERTURE LIST*
%ADD10C,3.400000*%
%ADD11R,2.100000X2.100000*%
%ADD12O,2.100000X2.100000*%
%ADD13C,0.100000*%
%ADD14C,1.350000*%
%ADD15R,2.150000X0.950000*%
%ADD16R,1.950000X1.000000*%
%ADD17R,2.200000X2.150000*%
%ADD18R,4.400000X6.400000*%
G04 APERTURE END LIST*
D10*
G04 #@! TO.C,REF\002A\002A*
X148100000Y-109950000D03*
G04 #@! TD*
G04 #@! TO.C,REF\002A\002A*
X90175000Y-109975000D03*
G04 #@! TD*
G04 #@! TO.C,REF\002A\002A*
X90175000Y-60975000D03*
G04 #@! TD*
D11*
G04 #@! TO.C,J6*
X94996000Y-62230000D03*
D12*
X94996000Y-59690000D03*
X97536000Y-62230000D03*
X97536000Y-59690000D03*
X100076000Y-62230000D03*
X100076000Y-59690000D03*
X102616000Y-62230000D03*
X102616000Y-59690000D03*
X105156000Y-62230000D03*
X105156000Y-59690000D03*
X107696000Y-62230000D03*
X107696000Y-59690000D03*
X110236000Y-62230000D03*
X110236000Y-59690000D03*
X112776000Y-62230000D03*
X112776000Y-59690000D03*
X115316000Y-62230000D03*
X115316000Y-59690000D03*
X117856000Y-62230000D03*
X117856000Y-59690000D03*
X120396000Y-62230000D03*
X120396000Y-59690000D03*
X122936000Y-62230000D03*
X122936000Y-59690000D03*
X125476000Y-62230000D03*
X125476000Y-59690000D03*
X128016000Y-62230000D03*
X128016000Y-59690000D03*
X130556000Y-62230000D03*
X130556000Y-59690000D03*
X133096000Y-62230000D03*
X133096000Y-59690000D03*
X135636000Y-62230000D03*
X135636000Y-59690000D03*
X138176000Y-62230000D03*
X138176000Y-59690000D03*
X140716000Y-62230000D03*
X140716000Y-59690000D03*
X143256000Y-62230000D03*
X143256000Y-59690000D03*
G04 #@! TD*
G04 #@! TO.C,J1*
X148082000Y-102870000D03*
X148082000Y-100330000D03*
X148082000Y-97790000D03*
X148082000Y-95250000D03*
X148082000Y-92710000D03*
X148082000Y-90170000D03*
X148082000Y-87630000D03*
X148082000Y-85090000D03*
X148082000Y-82550000D03*
X148082000Y-80010000D03*
X148082000Y-77470000D03*
X148082000Y-74930000D03*
X148082000Y-72390000D03*
X148082000Y-69850000D03*
D11*
X148082000Y-67310000D03*
G04 #@! TD*
G04 #@! TO.C,J7*
X90170000Y-67310000D03*
D12*
X90170000Y-69850000D03*
X90170000Y-72390000D03*
X90170000Y-74930000D03*
X90170000Y-77470000D03*
X90170000Y-80010000D03*
X90170000Y-82550000D03*
X90170000Y-85090000D03*
X90170000Y-87630000D03*
X90170000Y-90170000D03*
X90170000Y-92710000D03*
X90170000Y-95250000D03*
X90170000Y-97790000D03*
X90170000Y-100330000D03*
X90170000Y-102870000D03*
G04 #@! TD*
D13*
G04 #@! TO.C,R1*
G36*
X136820581Y-79026625D02*
X136853343Y-79031485D01*
X136885471Y-79039533D01*
X136916656Y-79050691D01*
X136946596Y-79064852D01*
X136975005Y-79081879D01*
X137001608Y-79101609D01*
X137026149Y-79123851D01*
X137048391Y-79148392D01*
X137068121Y-79174995D01*
X137085148Y-79203404D01*
X137099309Y-79233344D01*
X137110467Y-79264529D01*
X137118515Y-79296657D01*
X137123375Y-79329419D01*
X137125000Y-79362500D01*
X137125000Y-80037500D01*
X137123375Y-80070581D01*
X137118515Y-80103343D01*
X137110467Y-80135471D01*
X137099309Y-80166656D01*
X137085148Y-80196596D01*
X137068121Y-80225005D01*
X137048391Y-80251608D01*
X137026149Y-80276149D01*
X137001608Y-80298391D01*
X136975005Y-80318121D01*
X136946596Y-80335148D01*
X136916656Y-80349309D01*
X136885471Y-80360467D01*
X136853343Y-80368515D01*
X136820581Y-80373375D01*
X136787500Y-80375000D01*
X136012500Y-80375000D01*
X135979419Y-80373375D01*
X135946657Y-80368515D01*
X135914529Y-80360467D01*
X135883344Y-80349309D01*
X135853404Y-80335148D01*
X135824995Y-80318121D01*
X135798392Y-80298391D01*
X135773851Y-80276149D01*
X135751609Y-80251608D01*
X135731879Y-80225005D01*
X135714852Y-80196596D01*
X135700691Y-80166656D01*
X135689533Y-80135471D01*
X135681485Y-80103343D01*
X135676625Y-80070581D01*
X135675000Y-80037500D01*
X135675000Y-79362500D01*
X135676625Y-79329419D01*
X135681485Y-79296657D01*
X135689533Y-79264529D01*
X135700691Y-79233344D01*
X135714852Y-79203404D01*
X135731879Y-79174995D01*
X135751609Y-79148392D01*
X135773851Y-79123851D01*
X135798392Y-79101609D01*
X135824995Y-79081879D01*
X135853404Y-79064852D01*
X135883344Y-79050691D01*
X135914529Y-79039533D01*
X135946657Y-79031485D01*
X135979419Y-79026625D01*
X136012500Y-79025000D01*
X136787500Y-79025000D01*
X136820581Y-79026625D01*
X136820581Y-79026625D01*
G37*
D14*
X136400000Y-79700000D03*
D13*
G36*
X138570581Y-79026625D02*
X138603343Y-79031485D01*
X138635471Y-79039533D01*
X138666656Y-79050691D01*
X138696596Y-79064852D01*
X138725005Y-79081879D01*
X138751608Y-79101609D01*
X138776149Y-79123851D01*
X138798391Y-79148392D01*
X138818121Y-79174995D01*
X138835148Y-79203404D01*
X138849309Y-79233344D01*
X138860467Y-79264529D01*
X138868515Y-79296657D01*
X138873375Y-79329419D01*
X138875000Y-79362500D01*
X138875000Y-80037500D01*
X138873375Y-80070581D01*
X138868515Y-80103343D01*
X138860467Y-80135471D01*
X138849309Y-80166656D01*
X138835148Y-80196596D01*
X138818121Y-80225005D01*
X138798391Y-80251608D01*
X138776149Y-80276149D01*
X138751608Y-80298391D01*
X138725005Y-80318121D01*
X138696596Y-80335148D01*
X138666656Y-80349309D01*
X138635471Y-80360467D01*
X138603343Y-80368515D01*
X138570581Y-80373375D01*
X138537500Y-80375000D01*
X137762500Y-80375000D01*
X137729419Y-80373375D01*
X137696657Y-80368515D01*
X137664529Y-80360467D01*
X137633344Y-80349309D01*
X137603404Y-80335148D01*
X137574995Y-80318121D01*
X137548392Y-80298391D01*
X137523851Y-80276149D01*
X137501609Y-80251608D01*
X137481879Y-80225005D01*
X137464852Y-80196596D01*
X137450691Y-80166656D01*
X137439533Y-80135471D01*
X137431485Y-80103343D01*
X137426625Y-80070581D01*
X137425000Y-80037500D01*
X137425000Y-79362500D01*
X137426625Y-79329419D01*
X137431485Y-79296657D01*
X137439533Y-79264529D01*
X137450691Y-79233344D01*
X137464852Y-79203404D01*
X137481879Y-79174995D01*
X137501609Y-79148392D01*
X137523851Y-79123851D01*
X137548392Y-79101609D01*
X137574995Y-79081879D01*
X137603404Y-79064852D01*
X137633344Y-79050691D01*
X137664529Y-79039533D01*
X137696657Y-79031485D01*
X137729419Y-79026625D01*
X137762500Y-79025000D01*
X138537500Y-79025000D01*
X138570581Y-79026625D01*
X138570581Y-79026625D01*
G37*
D14*
X138150000Y-79700000D03*
G04 #@! TD*
D13*
G04 #@! TO.C,R2*
G36*
X142381981Y-80074025D02*
X142414743Y-80078885D01*
X142446871Y-80086933D01*
X142478056Y-80098091D01*
X142507996Y-80112252D01*
X142536405Y-80129279D01*
X142563008Y-80149009D01*
X142587549Y-80171251D01*
X142609791Y-80195792D01*
X142629521Y-80222395D01*
X142646548Y-80250804D01*
X142660709Y-80280744D01*
X142671867Y-80311929D01*
X142679915Y-80344057D01*
X142684775Y-80376819D01*
X142686400Y-80409900D01*
X142686400Y-81184900D01*
X142684775Y-81217981D01*
X142679915Y-81250743D01*
X142671867Y-81282871D01*
X142660709Y-81314056D01*
X142646548Y-81343996D01*
X142629521Y-81372405D01*
X142609791Y-81399008D01*
X142587549Y-81423549D01*
X142563008Y-81445791D01*
X142536405Y-81465521D01*
X142507996Y-81482548D01*
X142478056Y-81496709D01*
X142446871Y-81507867D01*
X142414743Y-81515915D01*
X142381981Y-81520775D01*
X142348900Y-81522400D01*
X141673900Y-81522400D01*
X141640819Y-81520775D01*
X141608057Y-81515915D01*
X141575929Y-81507867D01*
X141544744Y-81496709D01*
X141514804Y-81482548D01*
X141486395Y-81465521D01*
X141459792Y-81445791D01*
X141435251Y-81423549D01*
X141413009Y-81399008D01*
X141393279Y-81372405D01*
X141376252Y-81343996D01*
X141362091Y-81314056D01*
X141350933Y-81282871D01*
X141342885Y-81250743D01*
X141338025Y-81217981D01*
X141336400Y-81184900D01*
X141336400Y-80409900D01*
X141338025Y-80376819D01*
X141342885Y-80344057D01*
X141350933Y-80311929D01*
X141362091Y-80280744D01*
X141376252Y-80250804D01*
X141393279Y-80222395D01*
X141413009Y-80195792D01*
X141435251Y-80171251D01*
X141459792Y-80149009D01*
X141486395Y-80129279D01*
X141514804Y-80112252D01*
X141544744Y-80098091D01*
X141575929Y-80086933D01*
X141608057Y-80078885D01*
X141640819Y-80074025D01*
X141673900Y-80072400D01*
X142348900Y-80072400D01*
X142381981Y-80074025D01*
X142381981Y-80074025D01*
G37*
D14*
X142011400Y-80797400D03*
D13*
G36*
X142381981Y-81824025D02*
X142414743Y-81828885D01*
X142446871Y-81836933D01*
X142478056Y-81848091D01*
X142507996Y-81862252D01*
X142536405Y-81879279D01*
X142563008Y-81899009D01*
X142587549Y-81921251D01*
X142609791Y-81945792D01*
X142629521Y-81972395D01*
X142646548Y-82000804D01*
X142660709Y-82030744D01*
X142671867Y-82061929D01*
X142679915Y-82094057D01*
X142684775Y-82126819D01*
X142686400Y-82159900D01*
X142686400Y-82934900D01*
X142684775Y-82967981D01*
X142679915Y-83000743D01*
X142671867Y-83032871D01*
X142660709Y-83064056D01*
X142646548Y-83093996D01*
X142629521Y-83122405D01*
X142609791Y-83149008D01*
X142587549Y-83173549D01*
X142563008Y-83195791D01*
X142536405Y-83215521D01*
X142507996Y-83232548D01*
X142478056Y-83246709D01*
X142446871Y-83257867D01*
X142414743Y-83265915D01*
X142381981Y-83270775D01*
X142348900Y-83272400D01*
X141673900Y-83272400D01*
X141640819Y-83270775D01*
X141608057Y-83265915D01*
X141575929Y-83257867D01*
X141544744Y-83246709D01*
X141514804Y-83232548D01*
X141486395Y-83215521D01*
X141459792Y-83195791D01*
X141435251Y-83173549D01*
X141413009Y-83149008D01*
X141393279Y-83122405D01*
X141376252Y-83093996D01*
X141362091Y-83064056D01*
X141350933Y-83032871D01*
X141342885Y-83000743D01*
X141338025Y-82967981D01*
X141336400Y-82934900D01*
X141336400Y-82159900D01*
X141338025Y-82126819D01*
X141342885Y-82094057D01*
X141350933Y-82061929D01*
X141362091Y-82030744D01*
X141376252Y-82000804D01*
X141393279Y-81972395D01*
X141413009Y-81945792D01*
X141435251Y-81921251D01*
X141459792Y-81899009D01*
X141486395Y-81879279D01*
X141514804Y-81862252D01*
X141544744Y-81848091D01*
X141575929Y-81836933D01*
X141608057Y-81828885D01*
X141640819Y-81824025D01*
X141673900Y-81822400D01*
X142348900Y-81822400D01*
X142381981Y-81824025D01*
X142381981Y-81824025D01*
G37*
D14*
X142011400Y-82547400D03*
G04 #@! TD*
D15*
G04 #@! TO.C,U1*
X130793000Y-72440800D03*
X130793000Y-73710800D03*
X130793000Y-74980800D03*
X130793000Y-76250800D03*
X138193000Y-76250800D03*
X138193000Y-74980800D03*
X138193000Y-73710800D03*
X138193000Y-72440800D03*
G04 #@! TD*
D16*
G04 #@! TO.C,U2*
X131826000Y-82880200D03*
X131826000Y-84150200D03*
X131826000Y-85420200D03*
X131826000Y-86690200D03*
X137226000Y-86690200D03*
X137226000Y-85420200D03*
X137226000Y-84150200D03*
X137226000Y-82880200D03*
G04 #@! TD*
D17*
G04 #@! TO.C,Y1*
X126500000Y-71250000D03*
X126500000Y-74500000D03*
G04 #@! TD*
D18*
G04 #@! TO.C,BT1*
X107910000Y-101060000D03*
X107910000Y-77060000D03*
G04 #@! TD*
D13*
G04 #@! TO.C,R3*
G36*
X128195581Y-84826625D02*
X128228343Y-84831485D01*
X128260471Y-84839533D01*
X128291656Y-84850691D01*
X128321596Y-84864852D01*
X128350005Y-84881879D01*
X128376608Y-84901609D01*
X128401149Y-84923851D01*
X128423391Y-84948392D01*
X128443121Y-84974995D01*
X128460148Y-85003404D01*
X128474309Y-85033344D01*
X128485467Y-85064529D01*
X128493515Y-85096657D01*
X128498375Y-85129419D01*
X128500000Y-85162500D01*
X128500000Y-85837500D01*
X128498375Y-85870581D01*
X128493515Y-85903343D01*
X128485467Y-85935471D01*
X128474309Y-85966656D01*
X128460148Y-85996596D01*
X128443121Y-86025005D01*
X128423391Y-86051608D01*
X128401149Y-86076149D01*
X128376608Y-86098391D01*
X128350005Y-86118121D01*
X128321596Y-86135148D01*
X128291656Y-86149309D01*
X128260471Y-86160467D01*
X128228343Y-86168515D01*
X128195581Y-86173375D01*
X128162500Y-86175000D01*
X127387500Y-86175000D01*
X127354419Y-86173375D01*
X127321657Y-86168515D01*
X127289529Y-86160467D01*
X127258344Y-86149309D01*
X127228404Y-86135148D01*
X127199995Y-86118121D01*
X127173392Y-86098391D01*
X127148851Y-86076149D01*
X127126609Y-86051608D01*
X127106879Y-86025005D01*
X127089852Y-85996596D01*
X127075691Y-85966656D01*
X127064533Y-85935471D01*
X127056485Y-85903343D01*
X127051625Y-85870581D01*
X127050000Y-85837500D01*
X127050000Y-85162500D01*
X127051625Y-85129419D01*
X127056485Y-85096657D01*
X127064533Y-85064529D01*
X127075691Y-85033344D01*
X127089852Y-85003404D01*
X127106879Y-84974995D01*
X127126609Y-84948392D01*
X127148851Y-84923851D01*
X127173392Y-84901609D01*
X127199995Y-84881879D01*
X127228404Y-84864852D01*
X127258344Y-84850691D01*
X127289529Y-84839533D01*
X127321657Y-84831485D01*
X127354419Y-84826625D01*
X127387500Y-84825000D01*
X128162500Y-84825000D01*
X128195581Y-84826625D01*
X128195581Y-84826625D01*
G37*
D14*
X127775000Y-85500000D03*
D13*
G36*
X126445581Y-84826625D02*
X126478343Y-84831485D01*
X126510471Y-84839533D01*
X126541656Y-84850691D01*
X126571596Y-84864852D01*
X126600005Y-84881879D01*
X126626608Y-84901609D01*
X126651149Y-84923851D01*
X126673391Y-84948392D01*
X126693121Y-84974995D01*
X126710148Y-85003404D01*
X126724309Y-85033344D01*
X126735467Y-85064529D01*
X126743515Y-85096657D01*
X126748375Y-85129419D01*
X126750000Y-85162500D01*
X126750000Y-85837500D01*
X126748375Y-85870581D01*
X126743515Y-85903343D01*
X126735467Y-85935471D01*
X126724309Y-85966656D01*
X126710148Y-85996596D01*
X126693121Y-86025005D01*
X126673391Y-86051608D01*
X126651149Y-86076149D01*
X126626608Y-86098391D01*
X126600005Y-86118121D01*
X126571596Y-86135148D01*
X126541656Y-86149309D01*
X126510471Y-86160467D01*
X126478343Y-86168515D01*
X126445581Y-86173375D01*
X126412500Y-86175000D01*
X125637500Y-86175000D01*
X125604419Y-86173375D01*
X125571657Y-86168515D01*
X125539529Y-86160467D01*
X125508344Y-86149309D01*
X125478404Y-86135148D01*
X125449995Y-86118121D01*
X125423392Y-86098391D01*
X125398851Y-86076149D01*
X125376609Y-86051608D01*
X125356879Y-86025005D01*
X125339852Y-85996596D01*
X125325691Y-85966656D01*
X125314533Y-85935471D01*
X125306485Y-85903343D01*
X125301625Y-85870581D01*
X125300000Y-85837500D01*
X125300000Y-85162500D01*
X125301625Y-85129419D01*
X125306485Y-85096657D01*
X125314533Y-85064529D01*
X125325691Y-85033344D01*
X125339852Y-85003404D01*
X125356879Y-84974995D01*
X125376609Y-84948392D01*
X125398851Y-84923851D01*
X125423392Y-84901609D01*
X125449995Y-84881879D01*
X125478404Y-84864852D01*
X125508344Y-84850691D01*
X125539529Y-84839533D01*
X125571657Y-84831485D01*
X125604419Y-84826625D01*
X125637500Y-84825000D01*
X126412500Y-84825000D01*
X126445581Y-84826625D01*
X126445581Y-84826625D01*
G37*
D14*
X126025000Y-85500000D03*
G04 #@! TD*
D13*
G04 #@! TO.C,R4*
G36*
X126470581Y-83226625D02*
X126503343Y-83231485D01*
X126535471Y-83239533D01*
X126566656Y-83250691D01*
X126596596Y-83264852D01*
X126625005Y-83281879D01*
X126651608Y-83301609D01*
X126676149Y-83323851D01*
X126698391Y-83348392D01*
X126718121Y-83374995D01*
X126735148Y-83403404D01*
X126749309Y-83433344D01*
X126760467Y-83464529D01*
X126768515Y-83496657D01*
X126773375Y-83529419D01*
X126775000Y-83562500D01*
X126775000Y-84237500D01*
X126773375Y-84270581D01*
X126768515Y-84303343D01*
X126760467Y-84335471D01*
X126749309Y-84366656D01*
X126735148Y-84396596D01*
X126718121Y-84425005D01*
X126698391Y-84451608D01*
X126676149Y-84476149D01*
X126651608Y-84498391D01*
X126625005Y-84518121D01*
X126596596Y-84535148D01*
X126566656Y-84549309D01*
X126535471Y-84560467D01*
X126503343Y-84568515D01*
X126470581Y-84573375D01*
X126437500Y-84575000D01*
X125662500Y-84575000D01*
X125629419Y-84573375D01*
X125596657Y-84568515D01*
X125564529Y-84560467D01*
X125533344Y-84549309D01*
X125503404Y-84535148D01*
X125474995Y-84518121D01*
X125448392Y-84498391D01*
X125423851Y-84476149D01*
X125401609Y-84451608D01*
X125381879Y-84425005D01*
X125364852Y-84396596D01*
X125350691Y-84366656D01*
X125339533Y-84335471D01*
X125331485Y-84303343D01*
X125326625Y-84270581D01*
X125325000Y-84237500D01*
X125325000Y-83562500D01*
X125326625Y-83529419D01*
X125331485Y-83496657D01*
X125339533Y-83464529D01*
X125350691Y-83433344D01*
X125364852Y-83403404D01*
X125381879Y-83374995D01*
X125401609Y-83348392D01*
X125423851Y-83323851D01*
X125448392Y-83301609D01*
X125474995Y-83281879D01*
X125503404Y-83264852D01*
X125533344Y-83250691D01*
X125564529Y-83239533D01*
X125596657Y-83231485D01*
X125629419Y-83226625D01*
X125662500Y-83225000D01*
X126437500Y-83225000D01*
X126470581Y-83226625D01*
X126470581Y-83226625D01*
G37*
D14*
X126050000Y-83900000D03*
D13*
G36*
X128220581Y-83226625D02*
X128253343Y-83231485D01*
X128285471Y-83239533D01*
X128316656Y-83250691D01*
X128346596Y-83264852D01*
X128375005Y-83281879D01*
X128401608Y-83301609D01*
X128426149Y-83323851D01*
X128448391Y-83348392D01*
X128468121Y-83374995D01*
X128485148Y-83403404D01*
X128499309Y-83433344D01*
X128510467Y-83464529D01*
X128518515Y-83496657D01*
X128523375Y-83529419D01*
X128525000Y-83562500D01*
X128525000Y-84237500D01*
X128523375Y-84270581D01*
X128518515Y-84303343D01*
X128510467Y-84335471D01*
X128499309Y-84366656D01*
X128485148Y-84396596D01*
X128468121Y-84425005D01*
X128448391Y-84451608D01*
X128426149Y-84476149D01*
X128401608Y-84498391D01*
X128375005Y-84518121D01*
X128346596Y-84535148D01*
X128316656Y-84549309D01*
X128285471Y-84560467D01*
X128253343Y-84568515D01*
X128220581Y-84573375D01*
X128187500Y-84575000D01*
X127412500Y-84575000D01*
X127379419Y-84573375D01*
X127346657Y-84568515D01*
X127314529Y-84560467D01*
X127283344Y-84549309D01*
X127253404Y-84535148D01*
X127224995Y-84518121D01*
X127198392Y-84498391D01*
X127173851Y-84476149D01*
X127151609Y-84451608D01*
X127131879Y-84425005D01*
X127114852Y-84396596D01*
X127100691Y-84366656D01*
X127089533Y-84335471D01*
X127081485Y-84303343D01*
X127076625Y-84270581D01*
X127075000Y-84237500D01*
X127075000Y-83562500D01*
X127076625Y-83529419D01*
X127081485Y-83496657D01*
X127089533Y-83464529D01*
X127100691Y-83433344D01*
X127114852Y-83403404D01*
X127131879Y-83374995D01*
X127151609Y-83348392D01*
X127173851Y-83323851D01*
X127198392Y-83301609D01*
X127224995Y-83281879D01*
X127253404Y-83264852D01*
X127283344Y-83250691D01*
X127314529Y-83239533D01*
X127346657Y-83231485D01*
X127379419Y-83226625D01*
X127412500Y-83225000D01*
X128187500Y-83225000D01*
X128220581Y-83226625D01*
X128220581Y-83226625D01*
G37*
D14*
X127800000Y-83900000D03*
G04 #@! TD*
D13*
G04 #@! TO.C,R5*
G36*
X128270581Y-79626625D02*
X128303343Y-79631485D01*
X128335471Y-79639533D01*
X128366656Y-79650691D01*
X128396596Y-79664852D01*
X128425005Y-79681879D01*
X128451608Y-79701609D01*
X128476149Y-79723851D01*
X128498391Y-79748392D01*
X128518121Y-79774995D01*
X128535148Y-79803404D01*
X128549309Y-79833344D01*
X128560467Y-79864529D01*
X128568515Y-79896657D01*
X128573375Y-79929419D01*
X128575000Y-79962500D01*
X128575000Y-80637500D01*
X128573375Y-80670581D01*
X128568515Y-80703343D01*
X128560467Y-80735471D01*
X128549309Y-80766656D01*
X128535148Y-80796596D01*
X128518121Y-80825005D01*
X128498391Y-80851608D01*
X128476149Y-80876149D01*
X128451608Y-80898391D01*
X128425005Y-80918121D01*
X128396596Y-80935148D01*
X128366656Y-80949309D01*
X128335471Y-80960467D01*
X128303343Y-80968515D01*
X128270581Y-80973375D01*
X128237500Y-80975000D01*
X127462500Y-80975000D01*
X127429419Y-80973375D01*
X127396657Y-80968515D01*
X127364529Y-80960467D01*
X127333344Y-80949309D01*
X127303404Y-80935148D01*
X127274995Y-80918121D01*
X127248392Y-80898391D01*
X127223851Y-80876149D01*
X127201609Y-80851608D01*
X127181879Y-80825005D01*
X127164852Y-80796596D01*
X127150691Y-80766656D01*
X127139533Y-80735471D01*
X127131485Y-80703343D01*
X127126625Y-80670581D01*
X127125000Y-80637500D01*
X127125000Y-79962500D01*
X127126625Y-79929419D01*
X127131485Y-79896657D01*
X127139533Y-79864529D01*
X127150691Y-79833344D01*
X127164852Y-79803404D01*
X127181879Y-79774995D01*
X127201609Y-79748392D01*
X127223851Y-79723851D01*
X127248392Y-79701609D01*
X127274995Y-79681879D01*
X127303404Y-79664852D01*
X127333344Y-79650691D01*
X127364529Y-79639533D01*
X127396657Y-79631485D01*
X127429419Y-79626625D01*
X127462500Y-79625000D01*
X128237500Y-79625000D01*
X128270581Y-79626625D01*
X128270581Y-79626625D01*
G37*
D14*
X127850000Y-80300000D03*
D13*
G36*
X126520581Y-79626625D02*
X126553343Y-79631485D01*
X126585471Y-79639533D01*
X126616656Y-79650691D01*
X126646596Y-79664852D01*
X126675005Y-79681879D01*
X126701608Y-79701609D01*
X126726149Y-79723851D01*
X126748391Y-79748392D01*
X126768121Y-79774995D01*
X126785148Y-79803404D01*
X126799309Y-79833344D01*
X126810467Y-79864529D01*
X126818515Y-79896657D01*
X126823375Y-79929419D01*
X126825000Y-79962500D01*
X126825000Y-80637500D01*
X126823375Y-80670581D01*
X126818515Y-80703343D01*
X126810467Y-80735471D01*
X126799309Y-80766656D01*
X126785148Y-80796596D01*
X126768121Y-80825005D01*
X126748391Y-80851608D01*
X126726149Y-80876149D01*
X126701608Y-80898391D01*
X126675005Y-80918121D01*
X126646596Y-80935148D01*
X126616656Y-80949309D01*
X126585471Y-80960467D01*
X126553343Y-80968515D01*
X126520581Y-80973375D01*
X126487500Y-80975000D01*
X125712500Y-80975000D01*
X125679419Y-80973375D01*
X125646657Y-80968515D01*
X125614529Y-80960467D01*
X125583344Y-80949309D01*
X125553404Y-80935148D01*
X125524995Y-80918121D01*
X125498392Y-80898391D01*
X125473851Y-80876149D01*
X125451609Y-80851608D01*
X125431879Y-80825005D01*
X125414852Y-80796596D01*
X125400691Y-80766656D01*
X125389533Y-80735471D01*
X125381485Y-80703343D01*
X125376625Y-80670581D01*
X125375000Y-80637500D01*
X125375000Y-79962500D01*
X125376625Y-79929419D01*
X125381485Y-79896657D01*
X125389533Y-79864529D01*
X125400691Y-79833344D01*
X125414852Y-79803404D01*
X125431879Y-79774995D01*
X125451609Y-79748392D01*
X125473851Y-79723851D01*
X125498392Y-79701609D01*
X125524995Y-79681879D01*
X125553404Y-79664852D01*
X125583344Y-79650691D01*
X125614529Y-79639533D01*
X125646657Y-79631485D01*
X125679419Y-79626625D01*
X125712500Y-79625000D01*
X126487500Y-79625000D01*
X126520581Y-79626625D01*
X126520581Y-79626625D01*
G37*
D14*
X126100000Y-80300000D03*
G04 #@! TD*
D13*
G04 #@! TO.C,R6*
G36*
X126470581Y-81226625D02*
X126503343Y-81231485D01*
X126535471Y-81239533D01*
X126566656Y-81250691D01*
X126596596Y-81264852D01*
X126625005Y-81281879D01*
X126651608Y-81301609D01*
X126676149Y-81323851D01*
X126698391Y-81348392D01*
X126718121Y-81374995D01*
X126735148Y-81403404D01*
X126749309Y-81433344D01*
X126760467Y-81464529D01*
X126768515Y-81496657D01*
X126773375Y-81529419D01*
X126775000Y-81562500D01*
X126775000Y-82237500D01*
X126773375Y-82270581D01*
X126768515Y-82303343D01*
X126760467Y-82335471D01*
X126749309Y-82366656D01*
X126735148Y-82396596D01*
X126718121Y-82425005D01*
X126698391Y-82451608D01*
X126676149Y-82476149D01*
X126651608Y-82498391D01*
X126625005Y-82518121D01*
X126596596Y-82535148D01*
X126566656Y-82549309D01*
X126535471Y-82560467D01*
X126503343Y-82568515D01*
X126470581Y-82573375D01*
X126437500Y-82575000D01*
X125662500Y-82575000D01*
X125629419Y-82573375D01*
X125596657Y-82568515D01*
X125564529Y-82560467D01*
X125533344Y-82549309D01*
X125503404Y-82535148D01*
X125474995Y-82518121D01*
X125448392Y-82498391D01*
X125423851Y-82476149D01*
X125401609Y-82451608D01*
X125381879Y-82425005D01*
X125364852Y-82396596D01*
X125350691Y-82366656D01*
X125339533Y-82335471D01*
X125331485Y-82303343D01*
X125326625Y-82270581D01*
X125325000Y-82237500D01*
X125325000Y-81562500D01*
X125326625Y-81529419D01*
X125331485Y-81496657D01*
X125339533Y-81464529D01*
X125350691Y-81433344D01*
X125364852Y-81403404D01*
X125381879Y-81374995D01*
X125401609Y-81348392D01*
X125423851Y-81323851D01*
X125448392Y-81301609D01*
X125474995Y-81281879D01*
X125503404Y-81264852D01*
X125533344Y-81250691D01*
X125564529Y-81239533D01*
X125596657Y-81231485D01*
X125629419Y-81226625D01*
X125662500Y-81225000D01*
X126437500Y-81225000D01*
X126470581Y-81226625D01*
X126470581Y-81226625D01*
G37*
D14*
X126050000Y-81900000D03*
D13*
G36*
X128220581Y-81226625D02*
X128253343Y-81231485D01*
X128285471Y-81239533D01*
X128316656Y-81250691D01*
X128346596Y-81264852D01*
X128375005Y-81281879D01*
X128401608Y-81301609D01*
X128426149Y-81323851D01*
X128448391Y-81348392D01*
X128468121Y-81374995D01*
X128485148Y-81403404D01*
X128499309Y-81433344D01*
X128510467Y-81464529D01*
X128518515Y-81496657D01*
X128523375Y-81529419D01*
X128525000Y-81562500D01*
X128525000Y-82237500D01*
X128523375Y-82270581D01*
X128518515Y-82303343D01*
X128510467Y-82335471D01*
X128499309Y-82366656D01*
X128485148Y-82396596D01*
X128468121Y-82425005D01*
X128448391Y-82451608D01*
X128426149Y-82476149D01*
X128401608Y-82498391D01*
X128375005Y-82518121D01*
X128346596Y-82535148D01*
X128316656Y-82549309D01*
X128285471Y-82560467D01*
X128253343Y-82568515D01*
X128220581Y-82573375D01*
X128187500Y-82575000D01*
X127412500Y-82575000D01*
X127379419Y-82573375D01*
X127346657Y-82568515D01*
X127314529Y-82560467D01*
X127283344Y-82549309D01*
X127253404Y-82535148D01*
X127224995Y-82518121D01*
X127198392Y-82498391D01*
X127173851Y-82476149D01*
X127151609Y-82451608D01*
X127131879Y-82425005D01*
X127114852Y-82396596D01*
X127100691Y-82366656D01*
X127089533Y-82335471D01*
X127081485Y-82303343D01*
X127076625Y-82270581D01*
X127075000Y-82237500D01*
X127075000Y-81562500D01*
X127076625Y-81529419D01*
X127081485Y-81496657D01*
X127089533Y-81464529D01*
X127100691Y-81433344D01*
X127114852Y-81403404D01*
X127131879Y-81374995D01*
X127151609Y-81348392D01*
X127173851Y-81323851D01*
X127198392Y-81301609D01*
X127224995Y-81281879D01*
X127253404Y-81264852D01*
X127283344Y-81250691D01*
X127314529Y-81239533D01*
X127346657Y-81231485D01*
X127379419Y-81226625D01*
X127412500Y-81225000D01*
X128187500Y-81225000D01*
X128220581Y-81226625D01*
X128220581Y-81226625D01*
G37*
D14*
X127800000Y-81900000D03*
G04 #@! TD*
D10*
G04 #@! TO.C,REF\002A\002A*
X148100000Y-60975000D03*
G04 #@! TD*
M02*
