G04 #@! TF.GenerationSoftware,KiCad,Pcbnew,(5.0.0-3-g5ebb6b6)*
G04 #@! TF.CreationDate,2019-05-19T23:31:11+02:00*
G04 #@! TF.ProjectId,RTC Board,52544320426F6172642E6B696361645F,rev?*
G04 #@! TF.SameCoordinates,Original*
G04 #@! TF.FileFunction,Legend,Top*
G04 #@! TF.FilePolarity,Positive*
%FSLAX46Y46*%
G04 Gerber Fmt 4.6, Leading zero omitted, Abs format (unit mm)*
G04 Created by KiCad (PCBNEW (5.0.0-3-g5ebb6b6)) date Sunday, 19 May 2019 at 23:31:11*
%MOMM*%
%LPD*%
G01*
G04 APERTURE LIST*
%ADD10C,0.120000*%
%ADD11C,0.150000*%
G04 APERTURE END LIST*
D10*
G04 #@! TO.C,J1*
X148082000Y-65980000D02*
X149412000Y-65980000D01*
X149412000Y-65980000D02*
X149412000Y-67310000D01*
X149412000Y-68580000D02*
X149412000Y-104200000D01*
X146752000Y-104200000D02*
X149412000Y-104200000D01*
X146752000Y-68580000D02*
X146752000Y-104200000D01*
X146752000Y-68580000D02*
X149412000Y-68580000D01*
G04 #@! TO.C,J7*
X88840000Y-68580000D02*
X91500000Y-68580000D01*
X88840000Y-68580000D02*
X88840000Y-104200000D01*
X88840000Y-104200000D02*
X91500000Y-104200000D01*
X91500000Y-68580000D02*
X91500000Y-104200000D01*
X91500000Y-65980000D02*
X91500000Y-67310000D01*
X90170000Y-65980000D02*
X91500000Y-65980000D01*
G04 #@! TO.C,R1*
X137103733Y-79190000D02*
X137446267Y-79190000D01*
X137103733Y-80210000D02*
X137446267Y-80210000D01*
G04 #@! TO.C,R2*
X142521400Y-81843667D02*
X142521400Y-81501133D01*
X141501400Y-81843667D02*
X141501400Y-81501133D01*
D11*
G04 #@! TO.C,U1*
X131743000Y-71140800D02*
X131743000Y-71795800D01*
X137243000Y-71140800D02*
X137243000Y-71890800D01*
X137243000Y-77550800D02*
X137243000Y-76800800D01*
X131743000Y-77550800D02*
X131743000Y-76800800D01*
X131743000Y-71140800D02*
X137243000Y-71140800D01*
X131743000Y-77550800D02*
X137243000Y-77550800D01*
X131743000Y-71795800D02*
X129993000Y-71795800D01*
G04 #@! TO.C,U2*
X132451000Y-82210200D02*
X132451000Y-82260200D01*
X136601000Y-82210200D02*
X136601000Y-82355200D01*
X136601000Y-87360200D02*
X136601000Y-87215200D01*
X132451000Y-87360200D02*
X132451000Y-87215200D01*
X132451000Y-82210200D02*
X136601000Y-82210200D01*
X132451000Y-87360200D02*
X136601000Y-87360200D01*
X132451000Y-82260200D02*
X131051000Y-82260200D01*
D10*
G04 #@! TO.C,Y1*
X127450000Y-72325000D02*
X127450000Y-73425000D01*
X125550000Y-72325000D02*
X125550000Y-73425000D01*
X127400000Y-70175000D02*
X125600000Y-70175000D01*
D11*
G04 #@! TO.C,BT1*
X104910000Y-103060000D02*
X104910000Y-98060000D01*
X104910000Y-98060000D02*
X101910000Y-98060000D01*
X99910000Y-98060000D02*
X99910000Y-79060000D01*
X101910000Y-79060000D02*
X104910000Y-79060000D01*
X104910000Y-79060000D02*
X104910000Y-74060000D01*
X104910000Y-73560000D02*
X110910000Y-73560000D01*
X110910000Y-74060000D02*
X110910000Y-79060000D01*
X110910000Y-79060000D02*
X113910000Y-79060000D01*
X115910000Y-79060000D02*
X115910000Y-98060000D01*
X113910000Y-98060000D02*
X110910000Y-98060000D01*
X110910000Y-98060000D02*
X110910000Y-104060000D01*
X110910000Y-104560000D02*
X104910000Y-104560000D01*
X104910000Y-104060000D02*
X104910000Y-103060000D01*
X101910000Y-98060000D02*
X99910000Y-98060000D01*
X101910000Y-79060000D02*
X99910000Y-79060000D01*
X115910000Y-79060000D02*
X113910000Y-79060000D01*
X115910000Y-98060000D02*
X113910000Y-98060000D01*
D10*
G04 #@! TO.C,R3*
X126728733Y-86010000D02*
X127071267Y-86010000D01*
X126728733Y-84990000D02*
X127071267Y-84990000D01*
G04 #@! TO.C,R4*
X126753733Y-83390000D02*
X127096267Y-83390000D01*
X126753733Y-84410000D02*
X127096267Y-84410000D01*
G04 #@! TO.C,R5*
X126803733Y-80810000D02*
X127146267Y-80810000D01*
X126803733Y-79790000D02*
X127146267Y-79790000D01*
G04 #@! TO.C,R6*
X126753733Y-81390000D02*
X127096267Y-81390000D01*
X126753733Y-82410000D02*
X127096267Y-82410000D01*
G04 #@! TO.C,J1*
D11*
X147748666Y-63992380D02*
X147748666Y-64706666D01*
X147701047Y-64849523D01*
X147605809Y-64944761D01*
X147462952Y-64992380D01*
X147367714Y-64992380D01*
X148748666Y-64992380D02*
X148177238Y-64992380D01*
X148462952Y-64992380D02*
X148462952Y-63992380D01*
X148367714Y-64135238D01*
X148272476Y-64230476D01*
X148177238Y-64278095D01*
G04 #@! TO.C,J7*
X89836666Y-63992380D02*
X89836666Y-64706666D01*
X89789047Y-64849523D01*
X89693809Y-64944761D01*
X89550952Y-64992380D01*
X89455714Y-64992380D01*
X90217619Y-63992380D02*
X90884285Y-63992380D01*
X90455714Y-64992380D01*
G04 #@! TO.C,R1*
X137108333Y-78722380D02*
X136775000Y-78246190D01*
X136536904Y-78722380D02*
X136536904Y-77722380D01*
X136917857Y-77722380D01*
X137013095Y-77770000D01*
X137060714Y-77817619D01*
X137108333Y-77912857D01*
X137108333Y-78055714D01*
X137060714Y-78150952D01*
X137013095Y-78198571D01*
X136917857Y-78246190D01*
X136536904Y-78246190D01*
X138060714Y-78722380D02*
X137489285Y-78722380D01*
X137775000Y-78722380D02*
X137775000Y-77722380D01*
X137679761Y-77865238D01*
X137584523Y-77960476D01*
X137489285Y-78008095D01*
G04 #@! TO.C,R2*
X141033780Y-81839066D02*
X140557590Y-82172400D01*
X141033780Y-82410495D02*
X140033780Y-82410495D01*
X140033780Y-82029542D01*
X140081400Y-81934304D01*
X140129019Y-81886685D01*
X140224257Y-81839066D01*
X140367114Y-81839066D01*
X140462352Y-81886685D01*
X140509971Y-81934304D01*
X140557590Y-82029542D01*
X140557590Y-82410495D01*
X140129019Y-81458114D02*
X140081400Y-81410495D01*
X140033780Y-81315257D01*
X140033780Y-81077161D01*
X140081400Y-80981923D01*
X140129019Y-80934304D01*
X140224257Y-80886685D01*
X140319495Y-80886685D01*
X140462352Y-80934304D01*
X141033780Y-81505733D01*
X141033780Y-80886685D01*
G04 #@! TO.C,U1*
X133731095Y-69668180D02*
X133731095Y-70477704D01*
X133778714Y-70572942D01*
X133826333Y-70620561D01*
X133921571Y-70668180D01*
X134112047Y-70668180D01*
X134207285Y-70620561D01*
X134254904Y-70572942D01*
X134302523Y-70477704D01*
X134302523Y-69668180D01*
X135302523Y-70668180D02*
X134731095Y-70668180D01*
X135016809Y-70668180D02*
X135016809Y-69668180D01*
X134921571Y-69811038D01*
X134826333Y-69906276D01*
X134731095Y-69953895D01*
G04 #@! TO.C,U2*
X133764095Y-80737580D02*
X133764095Y-81547104D01*
X133811714Y-81642342D01*
X133859333Y-81689961D01*
X133954571Y-81737580D01*
X134145047Y-81737580D01*
X134240285Y-81689961D01*
X134287904Y-81642342D01*
X134335523Y-81547104D01*
X134335523Y-80737580D01*
X134764095Y-80832819D02*
X134811714Y-80785200D01*
X134906952Y-80737580D01*
X135145047Y-80737580D01*
X135240285Y-80785200D01*
X135287904Y-80832819D01*
X135335523Y-80928057D01*
X135335523Y-81023295D01*
X135287904Y-81166152D01*
X134716476Y-81737580D01*
X135335523Y-81737580D01*
G04 #@! TO.C,Y1*
X128426190Y-73351190D02*
X128902380Y-73351190D01*
X127902380Y-73684523D02*
X128426190Y-73351190D01*
X127902380Y-73017857D01*
X128902380Y-72160714D02*
X128902380Y-72732142D01*
X128902380Y-72446428D02*
X127902380Y-72446428D01*
X128045238Y-72541666D01*
X128140476Y-72636904D01*
X128188095Y-72732142D01*
G04 #@! TO.C,BT1*
X112338571Y-102345714D02*
X112386190Y-102202857D01*
X112433809Y-102155238D01*
X112529047Y-102107619D01*
X112671904Y-102107619D01*
X112767142Y-102155238D01*
X112814761Y-102202857D01*
X112862380Y-102298095D01*
X112862380Y-102679047D01*
X111862380Y-102679047D01*
X111862380Y-102345714D01*
X111910000Y-102250476D01*
X111957619Y-102202857D01*
X112052857Y-102155238D01*
X112148095Y-102155238D01*
X112243333Y-102202857D01*
X112290952Y-102250476D01*
X112338571Y-102345714D01*
X112338571Y-102679047D01*
X111862380Y-101821904D02*
X111862380Y-101250476D01*
X112862380Y-101536190D02*
X111862380Y-101536190D01*
X112862380Y-100393333D02*
X112862380Y-100964761D01*
X112862380Y-100679047D02*
X111862380Y-100679047D01*
X112005238Y-100774285D01*
X112100476Y-100869523D01*
X112148095Y-100964761D01*
G04 #@! TO.C,R3*
X126733333Y-84522380D02*
X126400000Y-84046190D01*
X126161904Y-84522380D02*
X126161904Y-83522380D01*
X126542857Y-83522380D01*
X126638095Y-83570000D01*
X126685714Y-83617619D01*
X126733333Y-83712857D01*
X126733333Y-83855714D01*
X126685714Y-83950952D01*
X126638095Y-83998571D01*
X126542857Y-84046190D01*
X126161904Y-84046190D01*
X127066666Y-83522380D02*
X127685714Y-83522380D01*
X127352380Y-83903333D01*
X127495238Y-83903333D01*
X127590476Y-83950952D01*
X127638095Y-83998571D01*
X127685714Y-84093809D01*
X127685714Y-84331904D01*
X127638095Y-84427142D01*
X127590476Y-84474761D01*
X127495238Y-84522380D01*
X127209523Y-84522380D01*
X127114285Y-84474761D01*
X127066666Y-84427142D01*
G04 #@! TO.C,R4*
X126758333Y-82922380D02*
X126425000Y-82446190D01*
X126186904Y-82922380D02*
X126186904Y-81922380D01*
X126567857Y-81922380D01*
X126663095Y-81970000D01*
X126710714Y-82017619D01*
X126758333Y-82112857D01*
X126758333Y-82255714D01*
X126710714Y-82350952D01*
X126663095Y-82398571D01*
X126567857Y-82446190D01*
X126186904Y-82446190D01*
X127615476Y-82255714D02*
X127615476Y-82922380D01*
X127377380Y-81874761D02*
X127139285Y-82589047D01*
X127758333Y-82589047D01*
G04 #@! TO.C,R5*
X126808333Y-79322380D02*
X126475000Y-78846190D01*
X126236904Y-79322380D02*
X126236904Y-78322380D01*
X126617857Y-78322380D01*
X126713095Y-78370000D01*
X126760714Y-78417619D01*
X126808333Y-78512857D01*
X126808333Y-78655714D01*
X126760714Y-78750952D01*
X126713095Y-78798571D01*
X126617857Y-78846190D01*
X126236904Y-78846190D01*
X127713095Y-78322380D02*
X127236904Y-78322380D01*
X127189285Y-78798571D01*
X127236904Y-78750952D01*
X127332142Y-78703333D01*
X127570238Y-78703333D01*
X127665476Y-78750952D01*
X127713095Y-78798571D01*
X127760714Y-78893809D01*
X127760714Y-79131904D01*
X127713095Y-79227142D01*
X127665476Y-79274761D01*
X127570238Y-79322380D01*
X127332142Y-79322380D01*
X127236904Y-79274761D01*
X127189285Y-79227142D01*
G04 #@! TO.C,R6*
X126758333Y-80922380D02*
X126425000Y-80446190D01*
X126186904Y-80922380D02*
X126186904Y-79922380D01*
X126567857Y-79922380D01*
X126663095Y-79970000D01*
X126710714Y-80017619D01*
X126758333Y-80112857D01*
X126758333Y-80255714D01*
X126710714Y-80350952D01*
X126663095Y-80398571D01*
X126567857Y-80446190D01*
X126186904Y-80446190D01*
X127615476Y-79922380D02*
X127425000Y-79922380D01*
X127329761Y-79970000D01*
X127282142Y-80017619D01*
X127186904Y-80160476D01*
X127139285Y-80350952D01*
X127139285Y-80731904D01*
X127186904Y-80827142D01*
X127234523Y-80874761D01*
X127329761Y-80922380D01*
X127520238Y-80922380D01*
X127615476Y-80874761D01*
X127663095Y-80827142D01*
X127710714Y-80731904D01*
X127710714Y-80493809D01*
X127663095Y-80398571D01*
X127615476Y-80350952D01*
X127520238Y-80303333D01*
X127329761Y-80303333D01*
X127234523Y-80350952D01*
X127186904Y-80398571D01*
X127139285Y-80493809D01*
G04 #@! TD*
M02*
