M48
;DRILL file {KiCad (5.0.0-3-g5ebb6b6)} date Sunday, 19 May 2019 at 23:31:14
;FORMAT={-:-/ absolute / metric / decimal}
FMAT,2
METRIC,TZ
T1C0.200
T2C0.400
T3C1.000
%
G90
G05
M71
T1
X94.5Y-71.4
X94.511Y-70.411
X98.675Y-65.
X99.05Y-65.65
X99.85Y-66.6
X100.1Y-65.025
X100.749Y-69.
X101.45Y-68.85
X102.25Y-64.45
X103.9Y-65.175
X105.675Y-65.
X109.3Y-64.9
X119.175Y-64.175
X124.2Y-82.9
X127.4Y-78.4
X139.5Y-86.1
X139.7Y-82.5
X140.3Y-85.
X140.427Y-82.621
T2
X95.3Y-68.3
X97.6Y-65.1
T3
X94.996Y-59.69
X94.996Y-62.23
X97.536Y-59.69
X97.536Y-62.23
X100.076Y-59.69
X100.076Y-62.23
X102.616Y-59.69
X102.616Y-62.23
X105.156Y-59.69
X105.156Y-62.23
X107.696Y-59.69
X107.696Y-62.23
X110.236Y-59.69
X110.236Y-62.23
X112.776Y-59.69
X112.776Y-62.23
X115.316Y-59.69
X115.316Y-62.23
X117.856Y-59.69
X117.856Y-62.23
X120.396Y-59.69
X120.396Y-62.23
X122.936Y-59.69
X122.936Y-62.23
X125.476Y-59.69
X125.476Y-62.23
X128.016Y-59.69
X128.016Y-62.23
X130.556Y-59.69
X130.556Y-62.23
X133.096Y-59.69
X133.096Y-62.23
X135.636Y-59.69
X135.636Y-62.23
X138.176Y-59.69
X138.176Y-62.23
X140.716Y-59.69
X140.716Y-62.23
X143.256Y-59.69
X143.256Y-62.23
X90.17Y-67.31
X90.17Y-69.85
X90.17Y-72.39
X90.17Y-74.93
X90.17Y-77.47
X90.17Y-80.01
X90.17Y-82.55
X90.17Y-85.09
X90.17Y-87.63
X90.17Y-90.17
X90.17Y-92.71
X90.17Y-95.25
X90.17Y-97.79
X90.17Y-100.33
X90.17Y-102.87
X148.082Y-67.31
X148.082Y-69.85
X148.082Y-72.39
X148.082Y-74.93
X148.082Y-77.47
X148.082Y-80.01
X148.082Y-82.55
X148.082Y-85.09
X148.082Y-87.63
X148.082Y-90.17
X148.082Y-92.71
X148.082Y-95.25
X148.082Y-97.79
X148.082Y-100.33
X148.082Y-102.87
T0
M30
