G04 #@! TF.GenerationSoftware,KiCad,Pcbnew,(5.0.0-3-g5ebb6b6)*
G04 #@! TF.CreationDate,2019-05-19T23:31:11+02:00*
G04 #@! TF.ProjectId,RTC Board,52544320426F6172642E6B696361645F,rev?*
G04 #@! TF.SameCoordinates,Original*
G04 #@! TF.FileFunction,Copper,L2,Bot,Signal*
G04 #@! TF.FilePolarity,Positive*
%FSLAX46Y46*%
G04 Gerber Fmt 4.6, Leading zero omitted, Abs format (unit mm)*
G04 Created by KiCad (PCBNEW (5.0.0-3-g5ebb6b6)) date Sunday, 19 May 2019 at 23:31:11*
%MOMM*%
%LPD*%
G01*
G04 APERTURE LIST*
G04 #@! TA.AperFunction,ComponentPad*
%ADD10R,1.700000X1.700000*%
G04 #@! TD*
G04 #@! TA.AperFunction,ComponentPad*
%ADD11O,1.700000X1.700000*%
G04 #@! TD*
G04 #@! TA.AperFunction,ViaPad*
%ADD12C,0.800000*%
G04 #@! TD*
G04 #@! TA.AperFunction,ViaPad*
%ADD13C,0.500000*%
G04 #@! TD*
G04 #@! TA.AperFunction,Conductor*
%ADD14C,0.500000*%
G04 #@! TD*
G04 #@! TA.AperFunction,Conductor*
%ADD15C,0.200000*%
G04 #@! TD*
G04 #@! TA.AperFunction,Conductor*
%ADD16C,0.300000*%
G04 #@! TD*
G04 #@! TA.AperFunction,Conductor*
%ADD17C,0.254000*%
G04 #@! TD*
G04 APERTURE END LIST*
D10*
G04 #@! TO.P,J6,1*
G04 #@! TO.N,+3V3*
X94996000Y-62230000D03*
D11*
G04 #@! TO.P,J6,2*
G04 #@! TO.N,+5V_J4*
X94996000Y-59690000D03*
G04 #@! TO.P,J6,3*
G04 #@! TO.N,H_SDA*
X97536000Y-62230000D03*
G04 #@! TO.P,J6,4*
G04 #@! TO.N,+5V_J4*
X97536000Y-59690000D03*
G04 #@! TO.P,J6,5*
G04 #@! TO.N,H_SCL*
X100076000Y-62230000D03*
G04 #@! TO.P,J6,6*
G04 #@! TO.N,GNDD*
X100076000Y-59690000D03*
G04 #@! TO.P,J6,7*
G04 #@! TO.N,Net-(J1-Pad13)*
X102616000Y-62230000D03*
G04 #@! TO.P,J6,8*
G04 #@! TO.N,Net-(J6-Pad8)*
X102616000Y-59690000D03*
G04 #@! TO.P,J6,9*
G04 #@! TO.N,GNDD*
X105156000Y-62230000D03*
G04 #@! TO.P,J6,10*
G04 #@! TO.N,Net-(J6-Pad10)*
X105156000Y-59690000D03*
G04 #@! TO.P,J6,11*
G04 #@! TO.N,Net-(J1-Pad11)*
X107696000Y-62230000D03*
G04 #@! TO.P,J6,12*
G04 #@! TO.N,N/C*
X107696000Y-59690000D03*
G04 #@! TO.P,J6,13*
G04 #@! TO.N,Net-(J1-Pad10)*
X110236000Y-62230000D03*
G04 #@! TO.P,J6,14*
G04 #@! TO.N,GNDD*
X110236000Y-59690000D03*
G04 #@! TO.P,J6,15*
G04 #@! TO.N,Net-(J1-Pad9)*
X112776000Y-62230000D03*
G04 #@! TO.P,J6,16*
G04 #@! TO.N,Net-(J6-Pad16)*
X112776000Y-59690000D03*
G04 #@! TO.P,J6,17*
G04 #@! TO.N,+3V3*
X115316000Y-62230000D03*
G04 #@! TO.P,J6,18*
G04 #@! TO.N,Net-(J6-Pad18)*
X115316000Y-59690000D03*
G04 #@! TO.P,J6,19*
G04 #@! TO.N,Net-(J1-Pad7)*
X117856000Y-62230000D03*
G04 #@! TO.P,J6,20*
G04 #@! TO.N,GNDD*
X117856000Y-59690000D03*
G04 #@! TO.P,J6,21*
G04 #@! TO.N,Net-(J1-Pad6)*
X120396000Y-62230000D03*
G04 #@! TO.P,J6,22*
G04 #@! TO.N,Net-(J6-Pad22)*
X120396000Y-59690000D03*
G04 #@! TO.P,J6,23*
G04 #@! TO.N,Net-(J1-Pad5)*
X122936000Y-62230000D03*
G04 #@! TO.P,J6,24*
G04 #@! TO.N,Net-(J6-Pad24)*
X122936000Y-59690000D03*
G04 #@! TO.P,J6,25*
G04 #@! TO.N,GNDD*
X125476000Y-62230000D03*
G04 #@! TO.P,J6,26*
G04 #@! TO.N,Net-(J6-Pad26)*
X125476000Y-59690000D03*
G04 #@! TO.P,J6,27*
G04 #@! TO.N,N/C*
X128016000Y-62230000D03*
G04 #@! TO.P,J6,28*
X128016000Y-59690000D03*
G04 #@! TO.P,J6,29*
X130556000Y-62230000D03*
G04 #@! TO.P,J6,30*
G04 #@! TO.N,GNDD*
X130556000Y-59690000D03*
G04 #@! TO.P,J6,31*
G04 #@! TO.N,Net-(J1-Pad3)*
X133096000Y-62230000D03*
G04 #@! TO.P,J6,32*
G04 #@! TO.N,Net-(J6-Pad32)*
X133096000Y-59690000D03*
G04 #@! TO.P,J6,33*
G04 #@! TO.N,Net-(J1-Pad2)*
X135636000Y-62230000D03*
G04 #@! TO.P,J6,34*
G04 #@! TO.N,GNDD*
X135636000Y-59690000D03*
G04 #@! TO.P,J6,35*
G04 #@! TO.N,N/C*
X138176000Y-62230000D03*
G04 #@! TO.P,J6,36*
X138176000Y-59690000D03*
G04 #@! TO.P,J6,37*
X140716000Y-62230000D03*
G04 #@! TO.P,J6,38*
X140716000Y-59690000D03*
G04 #@! TO.P,J6,39*
G04 #@! TO.N,GNDD*
X143256000Y-62230000D03*
G04 #@! TO.P,J6,40*
G04 #@! TO.N,N/C*
X143256000Y-59690000D03*
G04 #@! TD*
G04 #@! TO.P,J1,15*
G04 #@! TO.N,H_SDA*
X148082000Y-102870000D03*
G04 #@! TO.P,J1,14*
G04 #@! TO.N,H_SCL*
X148082000Y-100330000D03*
G04 #@! TO.P,J1,13*
G04 #@! TO.N,Net-(J1-Pad13)*
X148082000Y-97790000D03*
G04 #@! TO.P,J1,12*
G04 #@! TO.N,GNDD*
X148082000Y-95250000D03*
G04 #@! TO.P,J1,11*
G04 #@! TO.N,Net-(J1-Pad11)*
X148082000Y-92710000D03*
G04 #@! TO.P,J1,10*
G04 #@! TO.N,Net-(J1-Pad10)*
X148082000Y-90170000D03*
G04 #@! TO.P,J1,9*
G04 #@! TO.N,Net-(J1-Pad9)*
X148082000Y-87630000D03*
G04 #@! TO.P,J1,8*
G04 #@! TO.N,+3V3*
X148082000Y-85090000D03*
G04 #@! TO.P,J1,7*
G04 #@! TO.N,Net-(J1-Pad7)*
X148082000Y-82550000D03*
G04 #@! TO.P,J1,6*
G04 #@! TO.N,Net-(J1-Pad6)*
X148082000Y-80010000D03*
G04 #@! TO.P,J1,5*
G04 #@! TO.N,Net-(J1-Pad5)*
X148082000Y-77470000D03*
G04 #@! TO.P,J1,4*
G04 #@! TO.N,GNDD*
X148082000Y-74930000D03*
G04 #@! TO.P,J1,3*
G04 #@! TO.N,Net-(J1-Pad3)*
X148082000Y-72390000D03*
G04 #@! TO.P,J1,2*
G04 #@! TO.N,Net-(J1-Pad2)*
X148082000Y-69850000D03*
D10*
G04 #@! TO.P,J1,1*
G04 #@! TO.N,GNDD*
X148082000Y-67310000D03*
G04 #@! TD*
G04 #@! TO.P,J7,1*
G04 #@! TO.N,Net-(J6-Pad8)*
X90170000Y-67310000D03*
D11*
G04 #@! TO.P,J7,2*
G04 #@! TO.N,Net-(J6-Pad10)*
X90170000Y-69850000D03*
G04 #@! TO.P,J7,3*
G04 #@! TO.N,GNDD*
X90170000Y-72390000D03*
G04 #@! TO.P,J7,4*
G04 #@! TO.N,Net-(J6-Pad16)*
X90170000Y-74930000D03*
G04 #@! TO.P,J7,5*
G04 #@! TO.N,Net-(J6-Pad18)*
X90170000Y-77470000D03*
G04 #@! TO.P,J7,6*
G04 #@! TO.N,GNDD*
X90170000Y-80010000D03*
G04 #@! TO.P,J7,7*
G04 #@! TO.N,Net-(J6-Pad22)*
X90170000Y-82550000D03*
G04 #@! TO.P,J7,8*
G04 #@! TO.N,Net-(J6-Pad24)*
X90170000Y-85090000D03*
G04 #@! TO.P,J7,9*
G04 #@! TO.N,Net-(J6-Pad26)*
X90170000Y-87630000D03*
G04 #@! TO.P,J7,10*
G04 #@! TO.N,GNDD*
X90170000Y-90170000D03*
G04 #@! TO.P,J7,11*
X90170000Y-92710000D03*
G04 #@! TO.P,J7,12*
G04 #@! TO.N,Net-(J6-Pad32)*
X90170000Y-95250000D03*
G04 #@! TO.P,J7,13*
G04 #@! TO.N,+3V3*
X90170000Y-97790000D03*
G04 #@! TO.P,J7,14*
X90170000Y-100330000D03*
G04 #@! TO.P,J7,15*
G04 #@! TO.N,+5V_J4*
X90170000Y-102870000D03*
G04 #@! TD*
D12*
G04 #@! TO.N,+3V3*
X95300000Y-68300000D03*
X97600000Y-65100000D03*
D13*
G04 #@! TO.N,Net-(J6-Pad16)*
X94511084Y-70411084D03*
X99050000Y-65650000D03*
G04 #@! TO.N,Net-(J6-Pad18)*
X94500004Y-71400000D03*
X99849645Y-66600002D03*
G04 #@! TO.N,Net-(J6-Pad22)*
X103900000Y-65175000D03*
G04 #@! TO.N,Net-(J6-Pad24)*
X105675000Y-64999990D03*
G04 #@! TO.N,H_SDA*
X139700000Y-82500000D03*
X139500000Y-86100000D03*
X98675000Y-65000000D03*
X100749010Y-69000010D03*
G04 #@! TO.N,H_SCL*
X140300000Y-85000000D03*
X140427262Y-82621282D03*
X100100000Y-65025000D03*
X101450000Y-68849990D03*
G04 #@! TO.N,GNDD*
X127400000Y-78400000D03*
X119175000Y-64175000D03*
X102250000Y-64450000D03*
X109300000Y-64900000D03*
X124200000Y-82900000D03*
G04 #@! TD*
D14*
G04 #@! TO.N,+3V3*
X95300000Y-67400000D02*
X97600000Y-65100000D01*
X95300000Y-68300000D02*
X95300000Y-67400000D01*
D15*
G04 #@! TO.N,Net-(J1-Pad13)*
X147232001Y-96940001D02*
X148082000Y-97790000D01*
X119217033Y-68925033D02*
X147232001Y-96940001D01*
X111500033Y-68925033D02*
X119217033Y-68925033D01*
X106925000Y-64350000D02*
X111500033Y-68925033D01*
X104736000Y-64350000D02*
X106925000Y-64350000D01*
X102616000Y-62230000D02*
X104736000Y-64350000D01*
G04 #@! TO.N,Net-(J1-Pad7)*
X145825000Y-82550000D02*
X148082000Y-82550000D01*
X130600000Y-67325000D02*
X145825000Y-82550000D01*
X117856000Y-66756000D02*
X118425000Y-67325000D01*
X118425000Y-67325000D02*
X130600000Y-67325000D01*
X117856000Y-62230000D02*
X117856000Y-66756000D01*
G04 #@! TO.N,Net-(J1-Pad6)*
X143935000Y-80010000D02*
X148082000Y-80010000D01*
X130850000Y-66925000D02*
X143935000Y-80010000D01*
X121050000Y-66925000D02*
X130850000Y-66925000D01*
X120396000Y-66271000D02*
X121050000Y-66925000D01*
X120396000Y-62230000D02*
X120396000Y-66271000D01*
G04 #@! TO.N,Net-(J1-Pad5)*
X148052000Y-77500000D02*
X148082000Y-77470000D01*
X142025000Y-77500000D02*
X148052000Y-77500000D01*
X131050000Y-66525000D02*
X142025000Y-77500000D01*
X123450000Y-66525000D02*
X131050000Y-66525000D01*
X122936000Y-66011000D02*
X123450000Y-66525000D01*
X122936000Y-62230000D02*
X122936000Y-66011000D01*
G04 #@! TO.N,Net-(J6-Pad16)*
X99050000Y-65872168D02*
X99050000Y-65650000D01*
X94511084Y-70411084D02*
X99050000Y-65872168D01*
G04 #@! TO.N,Net-(J6-Pad18)*
X95049647Y-71400000D02*
X99599646Y-66850001D01*
X94500004Y-71400000D02*
X95049647Y-71400000D01*
X99599646Y-66850001D02*
X99849645Y-66600002D01*
G04 #@! TO.N,Net-(J6-Pad22)*
X90170000Y-82550000D02*
X103900000Y-68820000D01*
X103900000Y-65528553D02*
X103900000Y-65175000D01*
X103900000Y-68820000D02*
X103900000Y-65528553D01*
G04 #@! TO.N,Net-(J6-Pad24)*
X90170000Y-85090000D02*
X105675000Y-69585000D01*
X105675000Y-69585000D02*
X105675000Y-65353543D01*
X105675000Y-65353543D02*
X105675000Y-64999990D01*
G04 #@! TO.N,Net-(J6-Pad26)*
X88750011Y-66140689D02*
X88750011Y-86210011D01*
X125476000Y-59690000D02*
X124036000Y-58250000D01*
X92800011Y-59374989D02*
X92800011Y-62090689D01*
X88750011Y-86210011D02*
X89320001Y-86780001D01*
X89320001Y-86780001D02*
X90170000Y-87630000D01*
X124036000Y-58250000D02*
X93925000Y-58250000D01*
X93925000Y-58250000D02*
X92800011Y-59374989D01*
X92800011Y-62090689D02*
X88750011Y-66140689D01*
D16*
G04 #@! TO.N,H_SDA*
X139700000Y-85900000D02*
X139500000Y-86100000D01*
X139700000Y-82500000D02*
X139700000Y-85900000D01*
D15*
X100749010Y-68646457D02*
X100749010Y-69000010D01*
X99178553Y-65000000D02*
X100749010Y-66570457D01*
X98675000Y-65000000D02*
X99178553Y-65000000D01*
X100749010Y-66570457D02*
X100749010Y-68646457D01*
D16*
G04 #@! TO.N,H_SCL*
X140300000Y-85000000D02*
X140300000Y-82748544D01*
X140300000Y-82748544D02*
X140427262Y-82621282D01*
D15*
X101450000Y-68496437D02*
X101450000Y-68849990D01*
X100100000Y-65025000D02*
X101450000Y-66375000D01*
X101450000Y-66375000D02*
X101450000Y-68496437D01*
G04 #@! TO.N,Net-(J1-Pad11)*
X119382722Y-68525022D02*
X143567700Y-92710000D01*
X146879919Y-92710000D02*
X148082000Y-92710000D01*
X111750022Y-68525022D02*
X119382722Y-68525022D01*
X107696000Y-64471000D02*
X111750022Y-68525022D01*
X143567700Y-92710000D02*
X146879919Y-92710000D01*
X107696000Y-62230000D02*
X107696000Y-64471000D01*
G04 #@! TO.N,Net-(J1-Pad10)*
X146650000Y-88738000D02*
X148082000Y-90170000D01*
X113459311Y-68125011D02*
X126734311Y-68125011D01*
X110236000Y-64901700D02*
X113459311Y-68125011D01*
X146650000Y-88040700D02*
X146650000Y-88738000D01*
X126734311Y-68125011D02*
X146650000Y-88040700D01*
X110236000Y-62230000D02*
X110236000Y-64901700D01*
G04 #@! TO.N,Net-(J1-Pad9)*
X146805000Y-87630000D02*
X148082000Y-87630000D01*
X126900000Y-67725000D02*
X146805000Y-87630000D01*
X112776000Y-62230000D02*
X112776000Y-66876000D01*
X113625000Y-67725000D02*
X126900000Y-67725000D01*
X112776000Y-66876000D02*
X113625000Y-67725000D01*
G04 #@! TO.N,GNDD*
X101350000Y-63550000D02*
X102250000Y-64450000D01*
X101350000Y-60964000D02*
X101350000Y-63550000D01*
X100076000Y-59690000D02*
X101350000Y-60964000D01*
X110236000Y-59690000D02*
X109000000Y-60926000D01*
X109000000Y-60926000D02*
X109000000Y-64275000D01*
X109000000Y-64600000D02*
X109300000Y-64900000D01*
X109000000Y-64275000D02*
X109000000Y-64600000D01*
G04 #@! TO.N,Net-(J6-Pad32)*
X89320001Y-94400001D02*
X90170000Y-95250000D01*
X88350000Y-65975000D02*
X88350000Y-93430000D01*
X88350000Y-93430000D02*
X89320001Y-94400001D01*
X93750000Y-57775000D02*
X92400000Y-59125000D01*
X92400000Y-61925000D02*
X88350000Y-65975000D01*
X131181000Y-57775000D02*
X93750000Y-57775000D01*
X133096000Y-59690000D02*
X131181000Y-57775000D01*
X92400000Y-59125000D02*
X92400000Y-61925000D01*
G04 #@! TD*
D17*
G04 #@! TO.N,GNDD*
G36*
X91931465Y-58554089D02*
X91870095Y-58595095D01*
X91707646Y-58838218D01*
X91665000Y-59052613D01*
X91665000Y-59052616D01*
X91650602Y-59125000D01*
X91665000Y-59197384D01*
X91665000Y-59429585D01*
X91510976Y-59291630D01*
X91384380Y-59165034D01*
X91356948Y-59153671D01*
X91331051Y-59130476D01*
X90675839Y-58853029D01*
X90621915Y-58849211D01*
X90599678Y-58840000D01*
X90491822Y-58840000D01*
X89966082Y-58802776D01*
X89825691Y-58840000D01*
X89750322Y-58840000D01*
X89616266Y-58895528D01*
X89278314Y-58985134D01*
X89079948Y-59117678D01*
X88965620Y-59165034D01*
X88878117Y-59252537D01*
X88686695Y-59380441D01*
X88482004Y-59648650D01*
X88365034Y-59765620D01*
X88332153Y-59845002D01*
X88255020Y-59946070D01*
X88109010Y-60383718D01*
X88040000Y-60550322D01*
X88040000Y-60590566D01*
X88029836Y-60621031D01*
X88035425Y-61332543D01*
X88040000Y-61345571D01*
X88040000Y-61399678D01*
X88164852Y-61701099D01*
X88271183Y-62003884D01*
X88311403Y-62054902D01*
X88365034Y-62184380D01*
X88593891Y-62413237D01*
X88711689Y-62562663D01*
X88800956Y-62620302D01*
X88965620Y-62784966D01*
X89217662Y-62889365D01*
X89309444Y-62948628D01*
X89437574Y-62980456D01*
X89750322Y-63110000D01*
X89959086Y-63110000D01*
X89999992Y-63120161D01*
X90117313Y-63110000D01*
X90175553Y-63110000D01*
X87881465Y-65404089D01*
X87820095Y-65445095D01*
X87657646Y-65688218D01*
X87615000Y-65902613D01*
X87615000Y-65902616D01*
X87600602Y-65975000D01*
X87615000Y-66047384D01*
X87615001Y-93357611D01*
X87600602Y-93430000D01*
X87657646Y-93716782D01*
X87779091Y-93898537D01*
X87820096Y-93959905D01*
X87881463Y-94000909D01*
X88734656Y-94854103D01*
X88655908Y-95250000D01*
X88771161Y-95829418D01*
X89099375Y-96320625D01*
X89397761Y-96520000D01*
X89099375Y-96719375D01*
X88771161Y-97210582D01*
X88655908Y-97790000D01*
X88771161Y-98369418D01*
X89099375Y-98860625D01*
X89397761Y-99060000D01*
X89099375Y-99259375D01*
X88771161Y-99750582D01*
X88655908Y-100330000D01*
X88771161Y-100909418D01*
X89099375Y-101400625D01*
X89397761Y-101600000D01*
X89099375Y-101799375D01*
X88771161Y-102290582D01*
X88655908Y-102870000D01*
X88771161Y-103449418D01*
X89099375Y-103940625D01*
X89590582Y-104268839D01*
X90023744Y-104355000D01*
X90316256Y-104355000D01*
X90749418Y-104268839D01*
X91240625Y-103940625D01*
X91568839Y-103449418D01*
X91684092Y-102870000D01*
X91568839Y-102290582D01*
X91240625Y-101799375D01*
X90942239Y-101600000D01*
X91240625Y-101400625D01*
X91568839Y-100909418D01*
X91684092Y-100330000D01*
X91568839Y-99750582D01*
X91240625Y-99259375D01*
X90942239Y-99060000D01*
X91240625Y-98860625D01*
X91568839Y-98369418D01*
X91684092Y-97790000D01*
X91568839Y-97210582D01*
X91240625Y-96719375D01*
X90942239Y-96520000D01*
X91240625Y-96320625D01*
X91568839Y-95829418D01*
X91684092Y-95250000D01*
X91568839Y-94670582D01*
X91240625Y-94179375D01*
X90921522Y-93966157D01*
X91051358Y-93905183D01*
X91441645Y-93476924D01*
X91611476Y-93066890D01*
X91490155Y-92837000D01*
X90297000Y-92837000D01*
X90297000Y-92857000D01*
X90043000Y-92857000D01*
X90043000Y-92837000D01*
X90023000Y-92837000D01*
X90023000Y-92583000D01*
X90043000Y-92583000D01*
X90043000Y-90297000D01*
X90297000Y-90297000D01*
X90297000Y-92583000D01*
X91490155Y-92583000D01*
X91611476Y-92353110D01*
X91441645Y-91943076D01*
X91051358Y-91514817D01*
X90892046Y-91440000D01*
X91051358Y-91365183D01*
X91441645Y-90936924D01*
X91611476Y-90526890D01*
X91490155Y-90297000D01*
X90297000Y-90297000D01*
X90043000Y-90297000D01*
X90023000Y-90297000D01*
X90023000Y-90043000D01*
X90043000Y-90043000D01*
X90043000Y-90023000D01*
X90297000Y-90023000D01*
X90297000Y-90043000D01*
X91490155Y-90043000D01*
X91611476Y-89813110D01*
X91441645Y-89403076D01*
X91051358Y-88974817D01*
X90921522Y-88913843D01*
X91240625Y-88700625D01*
X91568839Y-88209418D01*
X91684092Y-87630000D01*
X91568839Y-87050582D01*
X91240625Y-86559375D01*
X90942239Y-86360000D01*
X91240625Y-86160625D01*
X91568839Y-85669418D01*
X91684092Y-85090000D01*
X91605343Y-84694103D01*
X106143538Y-70155909D01*
X106204905Y-70114905D01*
X106367354Y-69871783D01*
X106410000Y-69657388D01*
X106410000Y-69657385D01*
X106424398Y-69585001D01*
X106410000Y-69512617D01*
X106410000Y-65516569D01*
X106425267Y-65501302D01*
X106560000Y-65176027D01*
X106560000Y-65085000D01*
X106620554Y-65085000D01*
X110929123Y-69393570D01*
X110970128Y-69454938D01*
X111213250Y-69617387D01*
X111427645Y-69660033D01*
X111500033Y-69674432D01*
X111572421Y-69660033D01*
X118912587Y-69660033D01*
X146646656Y-97394103D01*
X146567908Y-97790000D01*
X146683161Y-98369418D01*
X147011375Y-98860625D01*
X147309761Y-99060000D01*
X147011375Y-99259375D01*
X146683161Y-99750582D01*
X146567908Y-100330000D01*
X146683161Y-100909418D01*
X147011375Y-101400625D01*
X147309761Y-101600000D01*
X147011375Y-101799375D01*
X146683161Y-102290582D01*
X146567908Y-102870000D01*
X146683161Y-103449418D01*
X147011375Y-103940625D01*
X147502582Y-104268839D01*
X147935744Y-104355000D01*
X148228256Y-104355000D01*
X148661418Y-104268839D01*
X149152625Y-103940625D01*
X149480839Y-103449418D01*
X149596092Y-102870000D01*
X149480839Y-102290582D01*
X149152625Y-101799375D01*
X148854239Y-101600000D01*
X149152625Y-101400625D01*
X149480839Y-100909418D01*
X149596092Y-100330000D01*
X149480839Y-99750582D01*
X149152625Y-99259375D01*
X148854239Y-99060000D01*
X149152625Y-98860625D01*
X149480839Y-98369418D01*
X149596092Y-97790000D01*
X149480839Y-97210582D01*
X149152625Y-96719375D01*
X148833522Y-96506157D01*
X148963358Y-96445183D01*
X149353645Y-96016924D01*
X149523476Y-95606890D01*
X149402155Y-95377000D01*
X148209000Y-95377000D01*
X148209000Y-95397000D01*
X147955000Y-95397000D01*
X147955000Y-95377000D01*
X146761845Y-95377000D01*
X146743399Y-95411952D01*
X144776447Y-93445000D01*
X146787118Y-93445000D01*
X147011375Y-93780625D01*
X147330478Y-93993843D01*
X147200642Y-94054817D01*
X146810355Y-94483076D01*
X146640524Y-94893110D01*
X146761845Y-95123000D01*
X147955000Y-95123000D01*
X147955000Y-95103000D01*
X148209000Y-95103000D01*
X148209000Y-95123000D01*
X149402155Y-95123000D01*
X149523476Y-94893110D01*
X149353645Y-94483076D01*
X148963358Y-94054817D01*
X148833522Y-93993843D01*
X149152625Y-93780625D01*
X149480839Y-93289418D01*
X149596092Y-92710000D01*
X149480839Y-92130582D01*
X149152625Y-91639375D01*
X148854239Y-91440000D01*
X149152625Y-91240625D01*
X149480839Y-90749418D01*
X149596092Y-90170000D01*
X149480839Y-89590582D01*
X149152625Y-89099375D01*
X148854239Y-88900000D01*
X149152625Y-88700625D01*
X149480839Y-88209418D01*
X149596092Y-87630000D01*
X149480839Y-87050582D01*
X149152625Y-86559375D01*
X148854239Y-86360000D01*
X149152625Y-86160625D01*
X149480839Y-85669418D01*
X149596092Y-85090000D01*
X149480839Y-84510582D01*
X149152625Y-84019375D01*
X148854239Y-83820000D01*
X149152625Y-83620625D01*
X149480839Y-83129418D01*
X149596092Y-82550000D01*
X149480839Y-81970582D01*
X149152625Y-81479375D01*
X148854239Y-81280000D01*
X149152625Y-81080625D01*
X149480839Y-80589418D01*
X149596092Y-80010000D01*
X149480839Y-79430582D01*
X149152625Y-78939375D01*
X148854239Y-78740000D01*
X149152625Y-78540625D01*
X149480839Y-78049418D01*
X149596092Y-77470000D01*
X149480839Y-76890582D01*
X149152625Y-76399375D01*
X148833522Y-76186157D01*
X148963358Y-76125183D01*
X149353645Y-75696924D01*
X149523476Y-75286890D01*
X149402155Y-75057000D01*
X148209000Y-75057000D01*
X148209000Y-75077000D01*
X147955000Y-75077000D01*
X147955000Y-75057000D01*
X146761845Y-75057000D01*
X146640524Y-75286890D01*
X146810355Y-75696924D01*
X147200642Y-76125183D01*
X147330478Y-76186157D01*
X147011375Y-76399375D01*
X146767072Y-76765000D01*
X142329447Y-76765000D01*
X135414447Y-69850000D01*
X146567908Y-69850000D01*
X146683161Y-70429418D01*
X147011375Y-70920625D01*
X147309761Y-71120000D01*
X147011375Y-71319375D01*
X146683161Y-71810582D01*
X146567908Y-72390000D01*
X146683161Y-72969418D01*
X147011375Y-73460625D01*
X147330478Y-73673843D01*
X147200642Y-73734817D01*
X146810355Y-74163076D01*
X146640524Y-74573110D01*
X146761845Y-74803000D01*
X147955000Y-74803000D01*
X147955000Y-74783000D01*
X148209000Y-74783000D01*
X148209000Y-74803000D01*
X149402155Y-74803000D01*
X149523476Y-74573110D01*
X149353645Y-74163076D01*
X148963358Y-73734817D01*
X148833522Y-73673843D01*
X149152625Y-73460625D01*
X149480839Y-72969418D01*
X149596092Y-72390000D01*
X149480839Y-71810582D01*
X149152625Y-71319375D01*
X148854239Y-71120000D01*
X149152625Y-70920625D01*
X149480839Y-70429418D01*
X149596092Y-69850000D01*
X149480839Y-69270582D01*
X149152625Y-68779375D01*
X149130967Y-68764904D01*
X149291698Y-68698327D01*
X149470327Y-68519699D01*
X149567000Y-68286310D01*
X149567000Y-67595750D01*
X149408250Y-67437000D01*
X148209000Y-67437000D01*
X148209000Y-67457000D01*
X147955000Y-67457000D01*
X147955000Y-67437000D01*
X146755750Y-67437000D01*
X146597000Y-67595750D01*
X146597000Y-68286310D01*
X146693673Y-68519699D01*
X146872302Y-68698327D01*
X147033033Y-68764904D01*
X147011375Y-68779375D01*
X146683161Y-69270582D01*
X146567908Y-69850000D01*
X135414447Y-69850000D01*
X131898137Y-66333690D01*
X146597000Y-66333690D01*
X146597000Y-67024250D01*
X146755750Y-67183000D01*
X147955000Y-67183000D01*
X147955000Y-65983750D01*
X148209000Y-65983750D01*
X148209000Y-67183000D01*
X149408250Y-67183000D01*
X149567000Y-67024250D01*
X149567000Y-66333690D01*
X149470327Y-66100301D01*
X149291698Y-65921673D01*
X149058309Y-65825000D01*
X148367750Y-65825000D01*
X148209000Y-65983750D01*
X147955000Y-65983750D01*
X147796250Y-65825000D01*
X147105691Y-65825000D01*
X146872302Y-65921673D01*
X146693673Y-66100301D01*
X146597000Y-66333690D01*
X131898137Y-66333690D01*
X131620911Y-66056465D01*
X131579905Y-65995095D01*
X131336783Y-65832646D01*
X131122388Y-65790000D01*
X131122384Y-65790000D01*
X131050000Y-65775602D01*
X130977616Y-65790000D01*
X123754447Y-65790000D01*
X123671000Y-65706554D01*
X123671000Y-63524882D01*
X124006625Y-63300625D01*
X124219843Y-62981522D01*
X124280817Y-63111358D01*
X124709076Y-63501645D01*
X125119110Y-63671476D01*
X125349000Y-63550155D01*
X125349000Y-62357000D01*
X125329000Y-62357000D01*
X125329000Y-62103000D01*
X125349000Y-62103000D01*
X125349000Y-62083000D01*
X125603000Y-62083000D01*
X125603000Y-62103000D01*
X125623000Y-62103000D01*
X125623000Y-62357000D01*
X125603000Y-62357000D01*
X125603000Y-63550155D01*
X125832890Y-63671476D01*
X126242924Y-63501645D01*
X126671183Y-63111358D01*
X126732157Y-62981522D01*
X126945375Y-63300625D01*
X127436582Y-63628839D01*
X127869744Y-63715000D01*
X128162256Y-63715000D01*
X128595418Y-63628839D01*
X129086625Y-63300625D01*
X129286000Y-63002239D01*
X129485375Y-63300625D01*
X129976582Y-63628839D01*
X130409744Y-63715000D01*
X130702256Y-63715000D01*
X131135418Y-63628839D01*
X131626625Y-63300625D01*
X131826000Y-63002239D01*
X132025375Y-63300625D01*
X132516582Y-63628839D01*
X132949744Y-63715000D01*
X133242256Y-63715000D01*
X133675418Y-63628839D01*
X134166625Y-63300625D01*
X134366000Y-63002239D01*
X134565375Y-63300625D01*
X135056582Y-63628839D01*
X135489744Y-63715000D01*
X135782256Y-63715000D01*
X136215418Y-63628839D01*
X136706625Y-63300625D01*
X136906000Y-63002239D01*
X137105375Y-63300625D01*
X137596582Y-63628839D01*
X138029744Y-63715000D01*
X138322256Y-63715000D01*
X138755418Y-63628839D01*
X139246625Y-63300625D01*
X139446000Y-63002239D01*
X139645375Y-63300625D01*
X140136582Y-63628839D01*
X140569744Y-63715000D01*
X140862256Y-63715000D01*
X141295418Y-63628839D01*
X141786625Y-63300625D01*
X141999843Y-62981522D01*
X142060817Y-63111358D01*
X142489076Y-63501645D01*
X142899110Y-63671476D01*
X143129000Y-63550155D01*
X143129000Y-62357000D01*
X143383000Y-62357000D01*
X143383000Y-63550155D01*
X143612890Y-63671476D01*
X144022924Y-63501645D01*
X144451183Y-63111358D01*
X144697486Y-62586892D01*
X144576819Y-62357000D01*
X143383000Y-62357000D01*
X143129000Y-62357000D01*
X143109000Y-62357000D01*
X143109000Y-62103000D01*
X143129000Y-62103000D01*
X143129000Y-62083000D01*
X143383000Y-62083000D01*
X143383000Y-62103000D01*
X144576819Y-62103000D01*
X144697486Y-61873108D01*
X144451183Y-61348642D01*
X144026214Y-60961353D01*
X144326625Y-60760625D01*
X144419898Y-60621031D01*
X145941836Y-60621031D01*
X145947425Y-61332543D01*
X145965000Y-61382589D01*
X145965000Y-61399678D01*
X146004432Y-61494876D01*
X146183183Y-62003884D01*
X146250796Y-62089650D01*
X146290034Y-62184380D01*
X146457473Y-62351819D01*
X146623689Y-62562663D01*
X146749647Y-62643993D01*
X146890620Y-62784966D01*
X147106399Y-62874345D01*
X147221444Y-62948628D01*
X147382049Y-62988523D01*
X147675322Y-63110000D01*
X147871086Y-63110000D01*
X147911992Y-63120161D01*
X148029313Y-63110000D01*
X148524678Y-63110000D01*
X149309380Y-62784966D01*
X149909966Y-62184380D01*
X150107811Y-61706739D01*
X150132017Y-61661878D01*
X150135795Y-61639180D01*
X150235000Y-61399678D01*
X150235000Y-61043157D01*
X150248841Y-60960000D01*
X150248574Y-60925965D01*
X150235000Y-60851641D01*
X150235000Y-60550322D01*
X150136570Y-60312691D01*
X150120739Y-60226009D01*
X150043641Y-60088341D01*
X149909966Y-59765620D01*
X149803012Y-59658666D01*
X149773069Y-59605199D01*
X149547585Y-59403239D01*
X149309380Y-59165034D01*
X149257764Y-59143654D01*
X149243051Y-59130476D01*
X148587839Y-58853029D01*
X148549596Y-58850321D01*
X148524678Y-58840000D01*
X148403822Y-58840000D01*
X147878082Y-58802776D01*
X147737691Y-58840000D01*
X147675322Y-58840000D01*
X147564388Y-58885950D01*
X147190314Y-58985134D01*
X146970745Y-59131845D01*
X146890620Y-59165034D01*
X146829295Y-59226359D01*
X146598695Y-59380441D01*
X146352111Y-59703543D01*
X146290034Y-59765620D01*
X146272584Y-59807748D01*
X146167020Y-59946070D01*
X145967191Y-60545032D01*
X145965000Y-60550322D01*
X145965000Y-60551600D01*
X145941836Y-60621031D01*
X144419898Y-60621031D01*
X144654839Y-60269418D01*
X144770092Y-59690000D01*
X144654839Y-59110582D01*
X144326625Y-58619375D01*
X143835418Y-58291161D01*
X143402256Y-58205000D01*
X143109744Y-58205000D01*
X142676582Y-58291161D01*
X142185375Y-58619375D01*
X141986000Y-58917761D01*
X141786625Y-58619375D01*
X141295418Y-58291161D01*
X140862256Y-58205000D01*
X140569744Y-58205000D01*
X140136582Y-58291161D01*
X139645375Y-58619375D01*
X139446000Y-58917761D01*
X139246625Y-58619375D01*
X138755418Y-58291161D01*
X138322256Y-58205000D01*
X138029744Y-58205000D01*
X137596582Y-58291161D01*
X137105375Y-58619375D01*
X136892157Y-58938478D01*
X136831183Y-58808642D01*
X136402924Y-58418355D01*
X135992890Y-58248524D01*
X135763000Y-58369845D01*
X135763000Y-59563000D01*
X135783000Y-59563000D01*
X135783000Y-59817000D01*
X135763000Y-59817000D01*
X135763000Y-59837000D01*
X135509000Y-59837000D01*
X135509000Y-59817000D01*
X135489000Y-59817000D01*
X135489000Y-59563000D01*
X135509000Y-59563000D01*
X135509000Y-58369845D01*
X135279110Y-58248524D01*
X134869076Y-58418355D01*
X134440817Y-58808642D01*
X134379843Y-58938478D01*
X134166625Y-58619375D01*
X133675418Y-58291161D01*
X133242256Y-58205000D01*
X132949744Y-58205000D01*
X132700103Y-58254657D01*
X132305446Y-57860000D01*
X147792036Y-57860000D01*
X148450604Y-57926895D01*
X149047782Y-58114039D01*
X149595124Y-58417436D01*
X150070289Y-58824701D01*
X150453852Y-59319188D01*
X150730150Y-59880700D01*
X150890104Y-60494774D01*
X150928000Y-60987270D01*
X150928001Y-109692026D01*
X150861105Y-110350604D01*
X150673961Y-110947782D01*
X150370563Y-111495125D01*
X149963299Y-111970289D01*
X149468812Y-112353852D01*
X148907304Y-112630148D01*
X148293227Y-112790104D01*
X147800730Y-112828000D01*
X90459964Y-112828000D01*
X89801396Y-112761105D01*
X89204218Y-112573961D01*
X88656875Y-112270563D01*
X88181711Y-111863299D01*
X87798148Y-111368812D01*
X87521852Y-110807304D01*
X87361896Y-110193227D01*
X87324000Y-109700730D01*
X87324000Y-109643031D01*
X88029836Y-109643031D01*
X88035425Y-110354543D01*
X88040000Y-110367571D01*
X88040000Y-110399678D01*
X88114087Y-110578541D01*
X88271183Y-111025884D01*
X88330605Y-111101260D01*
X88365034Y-111184380D01*
X88511952Y-111331298D01*
X88711689Y-111584663D01*
X88863048Y-111682394D01*
X88965620Y-111784966D01*
X89122620Y-111849998D01*
X89309444Y-111970628D01*
X89570255Y-112035414D01*
X89750322Y-112110000D01*
X89870520Y-112110000D01*
X89999992Y-112142161D01*
X90371329Y-112110000D01*
X90599678Y-112110000D01*
X90660046Y-112084995D01*
X90708871Y-112080766D01*
X91282549Y-111827146D01*
X91384380Y-111784966D01*
X91579713Y-111589633D01*
X91882140Y-111310072D01*
X91908937Y-111260409D01*
X91984966Y-111184380D01*
X92100634Y-110905134D01*
X92220017Y-110683878D01*
X92238650Y-110571933D01*
X92310000Y-110399678D01*
X92310000Y-110143261D01*
X92336841Y-109982000D01*
X92336574Y-109947965D01*
X92310000Y-109802460D01*
X92310000Y-109622975D01*
X145929174Y-109622975D01*
X145934796Y-110338696D01*
X146171949Y-111014009D01*
X146615061Y-111576094D01*
X146873839Y-111743185D01*
X146890620Y-111759966D01*
X146916306Y-111770605D01*
X147216352Y-111964343D01*
X147635227Y-112068392D01*
X147675322Y-112085000D01*
X147702086Y-112085000D01*
X147910986Y-112136891D01*
X148510123Y-112085000D01*
X148524678Y-112085000D01*
X148528526Y-112083406D01*
X148624060Y-112075132D01*
X149278684Y-111785726D01*
X149304254Y-111762089D01*
X149309380Y-111759966D01*
X149343967Y-111725379D01*
X149804270Y-111299879D01*
X149845055Y-111224291D01*
X149909966Y-111159380D01*
X150008721Y-110920964D01*
X150144145Y-110669979D01*
X150165281Y-110542994D01*
X150235000Y-110374678D01*
X150235000Y-110124127D01*
X150261661Y-109963949D01*
X150261392Y-109929712D01*
X150235000Y-109785203D01*
X150235000Y-109525322D01*
X150150106Y-109320371D01*
X150132801Y-109225615D01*
X150048522Y-109075124D01*
X149909966Y-108740620D01*
X149799107Y-108629761D01*
X149783074Y-108601132D01*
X149662336Y-108492990D01*
X149309380Y-108140034D01*
X148524678Y-107815000D01*
X148174020Y-107815000D01*
X147876876Y-107793961D01*
X147797527Y-107815000D01*
X147675322Y-107815000D01*
X147457956Y-107905036D01*
X147185038Y-107977399D01*
X147024846Y-108084436D01*
X146890620Y-108140034D01*
X146787887Y-108242767D01*
X146589919Y-108375045D01*
X146378232Y-108652422D01*
X146290034Y-108740620D01*
X146265241Y-108800476D01*
X146155691Y-108944021D01*
X145929174Y-109622975D01*
X92310000Y-109622975D01*
X92310000Y-109550322D01*
X92227636Y-109351477D01*
X92208739Y-109248009D01*
X92116711Y-109083682D01*
X91984966Y-108765620D01*
X91879556Y-108660210D01*
X91861069Y-108627199D01*
X91721852Y-108502506D01*
X91384380Y-108165034D01*
X90599678Y-107840000D01*
X90181101Y-107840000D01*
X89966082Y-107824776D01*
X89908664Y-107840000D01*
X89750322Y-107840000D01*
X89468683Y-107956659D01*
X89278314Y-108007134D01*
X89166574Y-108081796D01*
X88965620Y-108165034D01*
X88811816Y-108318838D01*
X88686695Y-108402441D01*
X88552901Y-108577753D01*
X88365034Y-108765620D01*
X88312224Y-108893115D01*
X88255020Y-108968070D01*
X88146735Y-109292641D01*
X88040000Y-109550322D01*
X88040000Y-109612566D01*
X88029836Y-109643031D01*
X87324000Y-109643031D01*
X87324000Y-60995964D01*
X87390895Y-60337396D01*
X87578039Y-59740218D01*
X87881436Y-59192876D01*
X88288701Y-58717711D01*
X88783188Y-58334148D01*
X89344700Y-58057850D01*
X89958774Y-57897896D01*
X90451270Y-57860000D01*
X92625553Y-57860000D01*
X91931465Y-58554089D01*
X91931465Y-58554089D01*
G37*
X91931465Y-58554089D02*
X91870095Y-58595095D01*
X91707646Y-58838218D01*
X91665000Y-59052613D01*
X91665000Y-59052616D01*
X91650602Y-59125000D01*
X91665000Y-59197384D01*
X91665000Y-59429585D01*
X91510976Y-59291630D01*
X91384380Y-59165034D01*
X91356948Y-59153671D01*
X91331051Y-59130476D01*
X90675839Y-58853029D01*
X90621915Y-58849211D01*
X90599678Y-58840000D01*
X90491822Y-58840000D01*
X89966082Y-58802776D01*
X89825691Y-58840000D01*
X89750322Y-58840000D01*
X89616266Y-58895528D01*
X89278314Y-58985134D01*
X89079948Y-59117678D01*
X88965620Y-59165034D01*
X88878117Y-59252537D01*
X88686695Y-59380441D01*
X88482004Y-59648650D01*
X88365034Y-59765620D01*
X88332153Y-59845002D01*
X88255020Y-59946070D01*
X88109010Y-60383718D01*
X88040000Y-60550322D01*
X88040000Y-60590566D01*
X88029836Y-60621031D01*
X88035425Y-61332543D01*
X88040000Y-61345571D01*
X88040000Y-61399678D01*
X88164852Y-61701099D01*
X88271183Y-62003884D01*
X88311403Y-62054902D01*
X88365034Y-62184380D01*
X88593891Y-62413237D01*
X88711689Y-62562663D01*
X88800956Y-62620302D01*
X88965620Y-62784966D01*
X89217662Y-62889365D01*
X89309444Y-62948628D01*
X89437574Y-62980456D01*
X89750322Y-63110000D01*
X89959086Y-63110000D01*
X89999992Y-63120161D01*
X90117313Y-63110000D01*
X90175553Y-63110000D01*
X87881465Y-65404089D01*
X87820095Y-65445095D01*
X87657646Y-65688218D01*
X87615000Y-65902613D01*
X87615000Y-65902616D01*
X87600602Y-65975000D01*
X87615000Y-66047384D01*
X87615001Y-93357611D01*
X87600602Y-93430000D01*
X87657646Y-93716782D01*
X87779091Y-93898537D01*
X87820096Y-93959905D01*
X87881463Y-94000909D01*
X88734656Y-94854103D01*
X88655908Y-95250000D01*
X88771161Y-95829418D01*
X89099375Y-96320625D01*
X89397761Y-96520000D01*
X89099375Y-96719375D01*
X88771161Y-97210582D01*
X88655908Y-97790000D01*
X88771161Y-98369418D01*
X89099375Y-98860625D01*
X89397761Y-99060000D01*
X89099375Y-99259375D01*
X88771161Y-99750582D01*
X88655908Y-100330000D01*
X88771161Y-100909418D01*
X89099375Y-101400625D01*
X89397761Y-101600000D01*
X89099375Y-101799375D01*
X88771161Y-102290582D01*
X88655908Y-102870000D01*
X88771161Y-103449418D01*
X89099375Y-103940625D01*
X89590582Y-104268839D01*
X90023744Y-104355000D01*
X90316256Y-104355000D01*
X90749418Y-104268839D01*
X91240625Y-103940625D01*
X91568839Y-103449418D01*
X91684092Y-102870000D01*
X91568839Y-102290582D01*
X91240625Y-101799375D01*
X90942239Y-101600000D01*
X91240625Y-101400625D01*
X91568839Y-100909418D01*
X91684092Y-100330000D01*
X91568839Y-99750582D01*
X91240625Y-99259375D01*
X90942239Y-99060000D01*
X91240625Y-98860625D01*
X91568839Y-98369418D01*
X91684092Y-97790000D01*
X91568839Y-97210582D01*
X91240625Y-96719375D01*
X90942239Y-96520000D01*
X91240625Y-96320625D01*
X91568839Y-95829418D01*
X91684092Y-95250000D01*
X91568839Y-94670582D01*
X91240625Y-94179375D01*
X90921522Y-93966157D01*
X91051358Y-93905183D01*
X91441645Y-93476924D01*
X91611476Y-93066890D01*
X91490155Y-92837000D01*
X90297000Y-92837000D01*
X90297000Y-92857000D01*
X90043000Y-92857000D01*
X90043000Y-92837000D01*
X90023000Y-92837000D01*
X90023000Y-92583000D01*
X90043000Y-92583000D01*
X90043000Y-90297000D01*
X90297000Y-90297000D01*
X90297000Y-92583000D01*
X91490155Y-92583000D01*
X91611476Y-92353110D01*
X91441645Y-91943076D01*
X91051358Y-91514817D01*
X90892046Y-91440000D01*
X91051358Y-91365183D01*
X91441645Y-90936924D01*
X91611476Y-90526890D01*
X91490155Y-90297000D01*
X90297000Y-90297000D01*
X90043000Y-90297000D01*
X90023000Y-90297000D01*
X90023000Y-90043000D01*
X90043000Y-90043000D01*
X90043000Y-90023000D01*
X90297000Y-90023000D01*
X90297000Y-90043000D01*
X91490155Y-90043000D01*
X91611476Y-89813110D01*
X91441645Y-89403076D01*
X91051358Y-88974817D01*
X90921522Y-88913843D01*
X91240625Y-88700625D01*
X91568839Y-88209418D01*
X91684092Y-87630000D01*
X91568839Y-87050582D01*
X91240625Y-86559375D01*
X90942239Y-86360000D01*
X91240625Y-86160625D01*
X91568839Y-85669418D01*
X91684092Y-85090000D01*
X91605343Y-84694103D01*
X106143538Y-70155909D01*
X106204905Y-70114905D01*
X106367354Y-69871783D01*
X106410000Y-69657388D01*
X106410000Y-69657385D01*
X106424398Y-69585001D01*
X106410000Y-69512617D01*
X106410000Y-65516569D01*
X106425267Y-65501302D01*
X106560000Y-65176027D01*
X106560000Y-65085000D01*
X106620554Y-65085000D01*
X110929123Y-69393570D01*
X110970128Y-69454938D01*
X111213250Y-69617387D01*
X111427645Y-69660033D01*
X111500033Y-69674432D01*
X111572421Y-69660033D01*
X118912587Y-69660033D01*
X146646656Y-97394103D01*
X146567908Y-97790000D01*
X146683161Y-98369418D01*
X147011375Y-98860625D01*
X147309761Y-99060000D01*
X147011375Y-99259375D01*
X146683161Y-99750582D01*
X146567908Y-100330000D01*
X146683161Y-100909418D01*
X147011375Y-101400625D01*
X147309761Y-101600000D01*
X147011375Y-101799375D01*
X146683161Y-102290582D01*
X146567908Y-102870000D01*
X146683161Y-103449418D01*
X147011375Y-103940625D01*
X147502582Y-104268839D01*
X147935744Y-104355000D01*
X148228256Y-104355000D01*
X148661418Y-104268839D01*
X149152625Y-103940625D01*
X149480839Y-103449418D01*
X149596092Y-102870000D01*
X149480839Y-102290582D01*
X149152625Y-101799375D01*
X148854239Y-101600000D01*
X149152625Y-101400625D01*
X149480839Y-100909418D01*
X149596092Y-100330000D01*
X149480839Y-99750582D01*
X149152625Y-99259375D01*
X148854239Y-99060000D01*
X149152625Y-98860625D01*
X149480839Y-98369418D01*
X149596092Y-97790000D01*
X149480839Y-97210582D01*
X149152625Y-96719375D01*
X148833522Y-96506157D01*
X148963358Y-96445183D01*
X149353645Y-96016924D01*
X149523476Y-95606890D01*
X149402155Y-95377000D01*
X148209000Y-95377000D01*
X148209000Y-95397000D01*
X147955000Y-95397000D01*
X147955000Y-95377000D01*
X146761845Y-95377000D01*
X146743399Y-95411952D01*
X144776447Y-93445000D01*
X146787118Y-93445000D01*
X147011375Y-93780625D01*
X147330478Y-93993843D01*
X147200642Y-94054817D01*
X146810355Y-94483076D01*
X146640524Y-94893110D01*
X146761845Y-95123000D01*
X147955000Y-95123000D01*
X147955000Y-95103000D01*
X148209000Y-95103000D01*
X148209000Y-95123000D01*
X149402155Y-95123000D01*
X149523476Y-94893110D01*
X149353645Y-94483076D01*
X148963358Y-94054817D01*
X148833522Y-93993843D01*
X149152625Y-93780625D01*
X149480839Y-93289418D01*
X149596092Y-92710000D01*
X149480839Y-92130582D01*
X149152625Y-91639375D01*
X148854239Y-91440000D01*
X149152625Y-91240625D01*
X149480839Y-90749418D01*
X149596092Y-90170000D01*
X149480839Y-89590582D01*
X149152625Y-89099375D01*
X148854239Y-88900000D01*
X149152625Y-88700625D01*
X149480839Y-88209418D01*
X149596092Y-87630000D01*
X149480839Y-87050582D01*
X149152625Y-86559375D01*
X148854239Y-86360000D01*
X149152625Y-86160625D01*
X149480839Y-85669418D01*
X149596092Y-85090000D01*
X149480839Y-84510582D01*
X149152625Y-84019375D01*
X148854239Y-83820000D01*
X149152625Y-83620625D01*
X149480839Y-83129418D01*
X149596092Y-82550000D01*
X149480839Y-81970582D01*
X149152625Y-81479375D01*
X148854239Y-81280000D01*
X149152625Y-81080625D01*
X149480839Y-80589418D01*
X149596092Y-80010000D01*
X149480839Y-79430582D01*
X149152625Y-78939375D01*
X148854239Y-78740000D01*
X149152625Y-78540625D01*
X149480839Y-78049418D01*
X149596092Y-77470000D01*
X149480839Y-76890582D01*
X149152625Y-76399375D01*
X148833522Y-76186157D01*
X148963358Y-76125183D01*
X149353645Y-75696924D01*
X149523476Y-75286890D01*
X149402155Y-75057000D01*
X148209000Y-75057000D01*
X148209000Y-75077000D01*
X147955000Y-75077000D01*
X147955000Y-75057000D01*
X146761845Y-75057000D01*
X146640524Y-75286890D01*
X146810355Y-75696924D01*
X147200642Y-76125183D01*
X147330478Y-76186157D01*
X147011375Y-76399375D01*
X146767072Y-76765000D01*
X142329447Y-76765000D01*
X135414447Y-69850000D01*
X146567908Y-69850000D01*
X146683161Y-70429418D01*
X147011375Y-70920625D01*
X147309761Y-71120000D01*
X147011375Y-71319375D01*
X146683161Y-71810582D01*
X146567908Y-72390000D01*
X146683161Y-72969418D01*
X147011375Y-73460625D01*
X147330478Y-73673843D01*
X147200642Y-73734817D01*
X146810355Y-74163076D01*
X146640524Y-74573110D01*
X146761845Y-74803000D01*
X147955000Y-74803000D01*
X147955000Y-74783000D01*
X148209000Y-74783000D01*
X148209000Y-74803000D01*
X149402155Y-74803000D01*
X149523476Y-74573110D01*
X149353645Y-74163076D01*
X148963358Y-73734817D01*
X148833522Y-73673843D01*
X149152625Y-73460625D01*
X149480839Y-72969418D01*
X149596092Y-72390000D01*
X149480839Y-71810582D01*
X149152625Y-71319375D01*
X148854239Y-71120000D01*
X149152625Y-70920625D01*
X149480839Y-70429418D01*
X149596092Y-69850000D01*
X149480839Y-69270582D01*
X149152625Y-68779375D01*
X149130967Y-68764904D01*
X149291698Y-68698327D01*
X149470327Y-68519699D01*
X149567000Y-68286310D01*
X149567000Y-67595750D01*
X149408250Y-67437000D01*
X148209000Y-67437000D01*
X148209000Y-67457000D01*
X147955000Y-67457000D01*
X147955000Y-67437000D01*
X146755750Y-67437000D01*
X146597000Y-67595750D01*
X146597000Y-68286310D01*
X146693673Y-68519699D01*
X146872302Y-68698327D01*
X147033033Y-68764904D01*
X147011375Y-68779375D01*
X146683161Y-69270582D01*
X146567908Y-69850000D01*
X135414447Y-69850000D01*
X131898137Y-66333690D01*
X146597000Y-66333690D01*
X146597000Y-67024250D01*
X146755750Y-67183000D01*
X147955000Y-67183000D01*
X147955000Y-65983750D01*
X148209000Y-65983750D01*
X148209000Y-67183000D01*
X149408250Y-67183000D01*
X149567000Y-67024250D01*
X149567000Y-66333690D01*
X149470327Y-66100301D01*
X149291698Y-65921673D01*
X149058309Y-65825000D01*
X148367750Y-65825000D01*
X148209000Y-65983750D01*
X147955000Y-65983750D01*
X147796250Y-65825000D01*
X147105691Y-65825000D01*
X146872302Y-65921673D01*
X146693673Y-66100301D01*
X146597000Y-66333690D01*
X131898137Y-66333690D01*
X131620911Y-66056465D01*
X131579905Y-65995095D01*
X131336783Y-65832646D01*
X131122388Y-65790000D01*
X131122384Y-65790000D01*
X131050000Y-65775602D01*
X130977616Y-65790000D01*
X123754447Y-65790000D01*
X123671000Y-65706554D01*
X123671000Y-63524882D01*
X124006625Y-63300625D01*
X124219843Y-62981522D01*
X124280817Y-63111358D01*
X124709076Y-63501645D01*
X125119110Y-63671476D01*
X125349000Y-63550155D01*
X125349000Y-62357000D01*
X125329000Y-62357000D01*
X125329000Y-62103000D01*
X125349000Y-62103000D01*
X125349000Y-62083000D01*
X125603000Y-62083000D01*
X125603000Y-62103000D01*
X125623000Y-62103000D01*
X125623000Y-62357000D01*
X125603000Y-62357000D01*
X125603000Y-63550155D01*
X125832890Y-63671476D01*
X126242924Y-63501645D01*
X126671183Y-63111358D01*
X126732157Y-62981522D01*
X126945375Y-63300625D01*
X127436582Y-63628839D01*
X127869744Y-63715000D01*
X128162256Y-63715000D01*
X128595418Y-63628839D01*
X129086625Y-63300625D01*
X129286000Y-63002239D01*
X129485375Y-63300625D01*
X129976582Y-63628839D01*
X130409744Y-63715000D01*
X130702256Y-63715000D01*
X131135418Y-63628839D01*
X131626625Y-63300625D01*
X131826000Y-63002239D01*
X132025375Y-63300625D01*
X132516582Y-63628839D01*
X132949744Y-63715000D01*
X133242256Y-63715000D01*
X133675418Y-63628839D01*
X134166625Y-63300625D01*
X134366000Y-63002239D01*
X134565375Y-63300625D01*
X135056582Y-63628839D01*
X135489744Y-63715000D01*
X135782256Y-63715000D01*
X136215418Y-63628839D01*
X136706625Y-63300625D01*
X136906000Y-63002239D01*
X137105375Y-63300625D01*
X137596582Y-63628839D01*
X138029744Y-63715000D01*
X138322256Y-63715000D01*
X138755418Y-63628839D01*
X139246625Y-63300625D01*
X139446000Y-63002239D01*
X139645375Y-63300625D01*
X140136582Y-63628839D01*
X140569744Y-63715000D01*
X140862256Y-63715000D01*
X141295418Y-63628839D01*
X141786625Y-63300625D01*
X141999843Y-62981522D01*
X142060817Y-63111358D01*
X142489076Y-63501645D01*
X142899110Y-63671476D01*
X143129000Y-63550155D01*
X143129000Y-62357000D01*
X143383000Y-62357000D01*
X143383000Y-63550155D01*
X143612890Y-63671476D01*
X144022924Y-63501645D01*
X144451183Y-63111358D01*
X144697486Y-62586892D01*
X144576819Y-62357000D01*
X143383000Y-62357000D01*
X143129000Y-62357000D01*
X143109000Y-62357000D01*
X143109000Y-62103000D01*
X143129000Y-62103000D01*
X143129000Y-62083000D01*
X143383000Y-62083000D01*
X143383000Y-62103000D01*
X144576819Y-62103000D01*
X144697486Y-61873108D01*
X144451183Y-61348642D01*
X144026214Y-60961353D01*
X144326625Y-60760625D01*
X144419898Y-60621031D01*
X145941836Y-60621031D01*
X145947425Y-61332543D01*
X145965000Y-61382589D01*
X145965000Y-61399678D01*
X146004432Y-61494876D01*
X146183183Y-62003884D01*
X146250796Y-62089650D01*
X146290034Y-62184380D01*
X146457473Y-62351819D01*
X146623689Y-62562663D01*
X146749647Y-62643993D01*
X146890620Y-62784966D01*
X147106399Y-62874345D01*
X147221444Y-62948628D01*
X147382049Y-62988523D01*
X147675322Y-63110000D01*
X147871086Y-63110000D01*
X147911992Y-63120161D01*
X148029313Y-63110000D01*
X148524678Y-63110000D01*
X149309380Y-62784966D01*
X149909966Y-62184380D01*
X150107811Y-61706739D01*
X150132017Y-61661878D01*
X150135795Y-61639180D01*
X150235000Y-61399678D01*
X150235000Y-61043157D01*
X150248841Y-60960000D01*
X150248574Y-60925965D01*
X150235000Y-60851641D01*
X150235000Y-60550322D01*
X150136570Y-60312691D01*
X150120739Y-60226009D01*
X150043641Y-60088341D01*
X149909966Y-59765620D01*
X149803012Y-59658666D01*
X149773069Y-59605199D01*
X149547585Y-59403239D01*
X149309380Y-59165034D01*
X149257764Y-59143654D01*
X149243051Y-59130476D01*
X148587839Y-58853029D01*
X148549596Y-58850321D01*
X148524678Y-58840000D01*
X148403822Y-58840000D01*
X147878082Y-58802776D01*
X147737691Y-58840000D01*
X147675322Y-58840000D01*
X147564388Y-58885950D01*
X147190314Y-58985134D01*
X146970745Y-59131845D01*
X146890620Y-59165034D01*
X146829295Y-59226359D01*
X146598695Y-59380441D01*
X146352111Y-59703543D01*
X146290034Y-59765620D01*
X146272584Y-59807748D01*
X146167020Y-59946070D01*
X145967191Y-60545032D01*
X145965000Y-60550322D01*
X145965000Y-60551600D01*
X145941836Y-60621031D01*
X144419898Y-60621031D01*
X144654839Y-60269418D01*
X144770092Y-59690000D01*
X144654839Y-59110582D01*
X144326625Y-58619375D01*
X143835418Y-58291161D01*
X143402256Y-58205000D01*
X143109744Y-58205000D01*
X142676582Y-58291161D01*
X142185375Y-58619375D01*
X141986000Y-58917761D01*
X141786625Y-58619375D01*
X141295418Y-58291161D01*
X140862256Y-58205000D01*
X140569744Y-58205000D01*
X140136582Y-58291161D01*
X139645375Y-58619375D01*
X139446000Y-58917761D01*
X139246625Y-58619375D01*
X138755418Y-58291161D01*
X138322256Y-58205000D01*
X138029744Y-58205000D01*
X137596582Y-58291161D01*
X137105375Y-58619375D01*
X136892157Y-58938478D01*
X136831183Y-58808642D01*
X136402924Y-58418355D01*
X135992890Y-58248524D01*
X135763000Y-58369845D01*
X135763000Y-59563000D01*
X135783000Y-59563000D01*
X135783000Y-59817000D01*
X135763000Y-59817000D01*
X135763000Y-59837000D01*
X135509000Y-59837000D01*
X135509000Y-59817000D01*
X135489000Y-59817000D01*
X135489000Y-59563000D01*
X135509000Y-59563000D01*
X135509000Y-58369845D01*
X135279110Y-58248524D01*
X134869076Y-58418355D01*
X134440817Y-58808642D01*
X134379843Y-58938478D01*
X134166625Y-58619375D01*
X133675418Y-58291161D01*
X133242256Y-58205000D01*
X132949744Y-58205000D01*
X132700103Y-58254657D01*
X132305446Y-57860000D01*
X147792036Y-57860000D01*
X148450604Y-57926895D01*
X149047782Y-58114039D01*
X149595124Y-58417436D01*
X150070289Y-58824701D01*
X150453852Y-59319188D01*
X150730150Y-59880700D01*
X150890104Y-60494774D01*
X150928000Y-60987270D01*
X150928001Y-109692026D01*
X150861105Y-110350604D01*
X150673961Y-110947782D01*
X150370563Y-111495125D01*
X149963299Y-111970289D01*
X149468812Y-112353852D01*
X148907304Y-112630148D01*
X148293227Y-112790104D01*
X147800730Y-112828000D01*
X90459964Y-112828000D01*
X89801396Y-112761105D01*
X89204218Y-112573961D01*
X88656875Y-112270563D01*
X88181711Y-111863299D01*
X87798148Y-111368812D01*
X87521852Y-110807304D01*
X87361896Y-110193227D01*
X87324000Y-109700730D01*
X87324000Y-109643031D01*
X88029836Y-109643031D01*
X88035425Y-110354543D01*
X88040000Y-110367571D01*
X88040000Y-110399678D01*
X88114087Y-110578541D01*
X88271183Y-111025884D01*
X88330605Y-111101260D01*
X88365034Y-111184380D01*
X88511952Y-111331298D01*
X88711689Y-111584663D01*
X88863048Y-111682394D01*
X88965620Y-111784966D01*
X89122620Y-111849998D01*
X89309444Y-111970628D01*
X89570255Y-112035414D01*
X89750322Y-112110000D01*
X89870520Y-112110000D01*
X89999992Y-112142161D01*
X90371329Y-112110000D01*
X90599678Y-112110000D01*
X90660046Y-112084995D01*
X90708871Y-112080766D01*
X91282549Y-111827146D01*
X91384380Y-111784966D01*
X91579713Y-111589633D01*
X91882140Y-111310072D01*
X91908937Y-111260409D01*
X91984966Y-111184380D01*
X92100634Y-110905134D01*
X92220017Y-110683878D01*
X92238650Y-110571933D01*
X92310000Y-110399678D01*
X92310000Y-110143261D01*
X92336841Y-109982000D01*
X92336574Y-109947965D01*
X92310000Y-109802460D01*
X92310000Y-109622975D01*
X145929174Y-109622975D01*
X145934796Y-110338696D01*
X146171949Y-111014009D01*
X146615061Y-111576094D01*
X146873839Y-111743185D01*
X146890620Y-111759966D01*
X146916306Y-111770605D01*
X147216352Y-111964343D01*
X147635227Y-112068392D01*
X147675322Y-112085000D01*
X147702086Y-112085000D01*
X147910986Y-112136891D01*
X148510123Y-112085000D01*
X148524678Y-112085000D01*
X148528526Y-112083406D01*
X148624060Y-112075132D01*
X149278684Y-111785726D01*
X149304254Y-111762089D01*
X149309380Y-111759966D01*
X149343967Y-111725379D01*
X149804270Y-111299879D01*
X149845055Y-111224291D01*
X149909966Y-111159380D01*
X150008721Y-110920964D01*
X150144145Y-110669979D01*
X150165281Y-110542994D01*
X150235000Y-110374678D01*
X150235000Y-110124127D01*
X150261661Y-109963949D01*
X150261392Y-109929712D01*
X150235000Y-109785203D01*
X150235000Y-109525322D01*
X150150106Y-109320371D01*
X150132801Y-109225615D01*
X150048522Y-109075124D01*
X149909966Y-108740620D01*
X149799107Y-108629761D01*
X149783074Y-108601132D01*
X149662336Y-108492990D01*
X149309380Y-108140034D01*
X148524678Y-107815000D01*
X148174020Y-107815000D01*
X147876876Y-107793961D01*
X147797527Y-107815000D01*
X147675322Y-107815000D01*
X147457956Y-107905036D01*
X147185038Y-107977399D01*
X147024846Y-108084436D01*
X146890620Y-108140034D01*
X146787887Y-108242767D01*
X146589919Y-108375045D01*
X146378232Y-108652422D01*
X146290034Y-108740620D01*
X146265241Y-108800476D01*
X146155691Y-108944021D01*
X145929174Y-109622975D01*
X92310000Y-109622975D01*
X92310000Y-109550322D01*
X92227636Y-109351477D01*
X92208739Y-109248009D01*
X92116711Y-109083682D01*
X91984966Y-108765620D01*
X91879556Y-108660210D01*
X91861069Y-108627199D01*
X91721852Y-108502506D01*
X91384380Y-108165034D01*
X90599678Y-107840000D01*
X90181101Y-107840000D01*
X89966082Y-107824776D01*
X89908664Y-107840000D01*
X89750322Y-107840000D01*
X89468683Y-107956659D01*
X89278314Y-108007134D01*
X89166574Y-108081796D01*
X88965620Y-108165034D01*
X88811816Y-108318838D01*
X88686695Y-108402441D01*
X88552901Y-108577753D01*
X88365034Y-108765620D01*
X88312224Y-108893115D01*
X88255020Y-108968070D01*
X88146735Y-109292641D01*
X88040000Y-109550322D01*
X88040000Y-109612566D01*
X88029836Y-109643031D01*
X87324000Y-109643031D01*
X87324000Y-60995964D01*
X87390895Y-60337396D01*
X87578039Y-59740218D01*
X87881436Y-59192876D01*
X88288701Y-58717711D01*
X88783188Y-58334148D01*
X89344700Y-58057850D01*
X89958774Y-57897896D01*
X90451270Y-57860000D01*
X92625553Y-57860000D01*
X91931465Y-58554089D01*
G36*
X93498560Y-63080000D02*
X93547843Y-63327765D01*
X93688191Y-63537809D01*
X93898235Y-63678157D01*
X94146000Y-63727440D01*
X95846000Y-63727440D01*
X96093765Y-63678157D01*
X96303809Y-63537809D01*
X96444157Y-63327765D01*
X96453184Y-63282381D01*
X96465375Y-63300625D01*
X96956582Y-63628839D01*
X97389744Y-63715000D01*
X97682256Y-63715000D01*
X98115418Y-63628839D01*
X98606625Y-63300625D01*
X98806000Y-63002239D01*
X99005375Y-63300625D01*
X99496582Y-63628839D01*
X99929744Y-63715000D01*
X100222256Y-63715000D01*
X100655418Y-63628839D01*
X101146625Y-63300625D01*
X101346000Y-63002239D01*
X101545375Y-63300625D01*
X102036582Y-63628839D01*
X102469744Y-63715000D01*
X102762256Y-63715000D01*
X103011897Y-63665343D01*
X103662155Y-64315602D01*
X103398688Y-64424733D01*
X103149733Y-64673688D01*
X103015000Y-64998963D01*
X103015000Y-65351037D01*
X103149733Y-65676312D01*
X103165001Y-65691580D01*
X103165000Y-68515553D01*
X91508601Y-80171953D01*
X91490155Y-80137000D01*
X90297000Y-80137000D01*
X90297000Y-80157000D01*
X90043000Y-80157000D01*
X90043000Y-80137000D01*
X90023000Y-80137000D01*
X90023000Y-79883000D01*
X90043000Y-79883000D01*
X90043000Y-79863000D01*
X90297000Y-79863000D01*
X90297000Y-79883000D01*
X91490155Y-79883000D01*
X91611476Y-79653110D01*
X91441645Y-79243076D01*
X91051358Y-78814817D01*
X90921522Y-78753843D01*
X91240625Y-78540625D01*
X91568839Y-78049418D01*
X91684092Y-77470000D01*
X91568839Y-76890582D01*
X91240625Y-76399375D01*
X90942239Y-76200000D01*
X91240625Y-76000625D01*
X91568839Y-75509418D01*
X91684092Y-74930000D01*
X91568839Y-74350582D01*
X91240625Y-73859375D01*
X90921522Y-73646157D01*
X91051358Y-73585183D01*
X91441645Y-73156924D01*
X91611476Y-72746890D01*
X91490155Y-72517000D01*
X90297000Y-72517000D01*
X90297000Y-72537000D01*
X90043000Y-72537000D01*
X90043000Y-72517000D01*
X90023000Y-72517000D01*
X90023000Y-72263000D01*
X90043000Y-72263000D01*
X90043000Y-72243000D01*
X90297000Y-72243000D01*
X90297000Y-72263000D01*
X91490155Y-72263000D01*
X91611476Y-72033110D01*
X91441645Y-71623076D01*
X91077920Y-71223963D01*
X93615004Y-71223963D01*
X93615004Y-71576037D01*
X93749737Y-71901312D01*
X93998692Y-72150267D01*
X94323967Y-72285000D01*
X94676041Y-72285000D01*
X95001316Y-72150267D01*
X95010059Y-72141524D01*
X95049647Y-72149398D01*
X95122031Y-72135000D01*
X95122035Y-72135000D01*
X95336430Y-72092354D01*
X95579552Y-71929905D01*
X95620558Y-71868535D01*
X100004092Y-67485002D01*
X100014010Y-67485002D01*
X100014011Y-68483430D01*
X99998743Y-68498698D01*
X99864010Y-68823973D01*
X99864010Y-69176047D01*
X99998743Y-69501322D01*
X100247698Y-69750277D01*
X100572973Y-69885010D01*
X100925047Y-69885010D01*
X101250322Y-69750277D01*
X101268056Y-69732543D01*
X101273963Y-69734990D01*
X101626037Y-69734990D01*
X101951312Y-69600257D01*
X102200267Y-69351302D01*
X102335000Y-69026027D01*
X102335000Y-68673953D01*
X102200267Y-68348678D01*
X102185000Y-68333411D01*
X102185000Y-66447383D01*
X102199398Y-66374999D01*
X102185000Y-66302613D01*
X102185000Y-66302612D01*
X102142354Y-66088217D01*
X101979905Y-65845095D01*
X101918538Y-65804091D01*
X100985000Y-64870554D01*
X100985000Y-64848963D01*
X100850267Y-64523688D01*
X100601312Y-64274733D01*
X100276037Y-64140000D01*
X99923963Y-64140000D01*
X99598688Y-64274733D01*
X99525545Y-64347876D01*
X99465336Y-64307646D01*
X99250941Y-64265000D01*
X99250937Y-64265000D01*
X99178553Y-64250602D01*
X99177409Y-64250830D01*
X99176312Y-64249733D01*
X98851037Y-64115000D01*
X98498963Y-64115000D01*
X98201800Y-64238089D01*
X98186280Y-64222569D01*
X97805874Y-64065000D01*
X97394126Y-64065000D01*
X97013720Y-64222569D01*
X96722569Y-64513720D01*
X96572569Y-64875852D01*
X94735845Y-66712577D01*
X94661952Y-66761951D01*
X94612578Y-66835844D01*
X94612576Y-66835846D01*
X94466348Y-67054691D01*
X94397663Y-67400000D01*
X94415001Y-67487165D01*
X94415001Y-67731992D01*
X94265000Y-68094126D01*
X94265000Y-68505874D01*
X94422569Y-68886280D01*
X94709505Y-69173216D01*
X94356638Y-69526084D01*
X94335047Y-69526084D01*
X94009772Y-69660817D01*
X93760817Y-69909772D01*
X93626084Y-70235047D01*
X93626084Y-70587121D01*
X93753557Y-70894868D01*
X93749737Y-70898688D01*
X93615004Y-71223963D01*
X91077920Y-71223963D01*
X91051358Y-71194817D01*
X90921522Y-71133843D01*
X91240625Y-70920625D01*
X91568839Y-70429418D01*
X91684092Y-69850000D01*
X91568839Y-69270582D01*
X91240625Y-68779375D01*
X91222381Y-68767184D01*
X91267765Y-68758157D01*
X91477809Y-68617809D01*
X91618157Y-68407765D01*
X91667440Y-68160000D01*
X91667440Y-66460000D01*
X91618157Y-66212235D01*
X91477809Y-66002191D01*
X91267765Y-65861843D01*
X91020000Y-65812560D01*
X90117586Y-65812560D01*
X93268549Y-62661598D01*
X93329916Y-62620594D01*
X93492365Y-62377472D01*
X93498560Y-62346328D01*
X93498560Y-63080000D01*
X93498560Y-63080000D01*
G37*
X93498560Y-63080000D02*
X93547843Y-63327765D01*
X93688191Y-63537809D01*
X93898235Y-63678157D01*
X94146000Y-63727440D01*
X95846000Y-63727440D01*
X96093765Y-63678157D01*
X96303809Y-63537809D01*
X96444157Y-63327765D01*
X96453184Y-63282381D01*
X96465375Y-63300625D01*
X96956582Y-63628839D01*
X97389744Y-63715000D01*
X97682256Y-63715000D01*
X98115418Y-63628839D01*
X98606625Y-63300625D01*
X98806000Y-63002239D01*
X99005375Y-63300625D01*
X99496582Y-63628839D01*
X99929744Y-63715000D01*
X100222256Y-63715000D01*
X100655418Y-63628839D01*
X101146625Y-63300625D01*
X101346000Y-63002239D01*
X101545375Y-63300625D01*
X102036582Y-63628839D01*
X102469744Y-63715000D01*
X102762256Y-63715000D01*
X103011897Y-63665343D01*
X103662155Y-64315602D01*
X103398688Y-64424733D01*
X103149733Y-64673688D01*
X103015000Y-64998963D01*
X103015000Y-65351037D01*
X103149733Y-65676312D01*
X103165001Y-65691580D01*
X103165000Y-68515553D01*
X91508601Y-80171953D01*
X91490155Y-80137000D01*
X90297000Y-80137000D01*
X90297000Y-80157000D01*
X90043000Y-80157000D01*
X90043000Y-80137000D01*
X90023000Y-80137000D01*
X90023000Y-79883000D01*
X90043000Y-79883000D01*
X90043000Y-79863000D01*
X90297000Y-79863000D01*
X90297000Y-79883000D01*
X91490155Y-79883000D01*
X91611476Y-79653110D01*
X91441645Y-79243076D01*
X91051358Y-78814817D01*
X90921522Y-78753843D01*
X91240625Y-78540625D01*
X91568839Y-78049418D01*
X91684092Y-77470000D01*
X91568839Y-76890582D01*
X91240625Y-76399375D01*
X90942239Y-76200000D01*
X91240625Y-76000625D01*
X91568839Y-75509418D01*
X91684092Y-74930000D01*
X91568839Y-74350582D01*
X91240625Y-73859375D01*
X90921522Y-73646157D01*
X91051358Y-73585183D01*
X91441645Y-73156924D01*
X91611476Y-72746890D01*
X91490155Y-72517000D01*
X90297000Y-72517000D01*
X90297000Y-72537000D01*
X90043000Y-72537000D01*
X90043000Y-72517000D01*
X90023000Y-72517000D01*
X90023000Y-72263000D01*
X90043000Y-72263000D01*
X90043000Y-72243000D01*
X90297000Y-72243000D01*
X90297000Y-72263000D01*
X91490155Y-72263000D01*
X91611476Y-72033110D01*
X91441645Y-71623076D01*
X91077920Y-71223963D01*
X93615004Y-71223963D01*
X93615004Y-71576037D01*
X93749737Y-71901312D01*
X93998692Y-72150267D01*
X94323967Y-72285000D01*
X94676041Y-72285000D01*
X95001316Y-72150267D01*
X95010059Y-72141524D01*
X95049647Y-72149398D01*
X95122031Y-72135000D01*
X95122035Y-72135000D01*
X95336430Y-72092354D01*
X95579552Y-71929905D01*
X95620558Y-71868535D01*
X100004092Y-67485002D01*
X100014010Y-67485002D01*
X100014011Y-68483430D01*
X99998743Y-68498698D01*
X99864010Y-68823973D01*
X99864010Y-69176047D01*
X99998743Y-69501322D01*
X100247698Y-69750277D01*
X100572973Y-69885010D01*
X100925047Y-69885010D01*
X101250322Y-69750277D01*
X101268056Y-69732543D01*
X101273963Y-69734990D01*
X101626037Y-69734990D01*
X101951312Y-69600257D01*
X102200267Y-69351302D01*
X102335000Y-69026027D01*
X102335000Y-68673953D01*
X102200267Y-68348678D01*
X102185000Y-68333411D01*
X102185000Y-66447383D01*
X102199398Y-66374999D01*
X102185000Y-66302613D01*
X102185000Y-66302612D01*
X102142354Y-66088217D01*
X101979905Y-65845095D01*
X101918538Y-65804091D01*
X100985000Y-64870554D01*
X100985000Y-64848963D01*
X100850267Y-64523688D01*
X100601312Y-64274733D01*
X100276037Y-64140000D01*
X99923963Y-64140000D01*
X99598688Y-64274733D01*
X99525545Y-64347876D01*
X99465336Y-64307646D01*
X99250941Y-64265000D01*
X99250937Y-64265000D01*
X99178553Y-64250602D01*
X99177409Y-64250830D01*
X99176312Y-64249733D01*
X98851037Y-64115000D01*
X98498963Y-64115000D01*
X98201800Y-64238089D01*
X98186280Y-64222569D01*
X97805874Y-64065000D01*
X97394126Y-64065000D01*
X97013720Y-64222569D01*
X96722569Y-64513720D01*
X96572569Y-64875852D01*
X94735845Y-66712577D01*
X94661952Y-66761951D01*
X94612578Y-66835844D01*
X94612576Y-66835846D01*
X94466348Y-67054691D01*
X94397663Y-67400000D01*
X94415001Y-67487165D01*
X94415001Y-67731992D01*
X94265000Y-68094126D01*
X94265000Y-68505874D01*
X94422569Y-68886280D01*
X94709505Y-69173216D01*
X94356638Y-69526084D01*
X94335047Y-69526084D01*
X94009772Y-69660817D01*
X93760817Y-69909772D01*
X93626084Y-70235047D01*
X93626084Y-70587121D01*
X93753557Y-70894868D01*
X93749737Y-70898688D01*
X93615004Y-71223963D01*
X91077920Y-71223963D01*
X91051358Y-71194817D01*
X90921522Y-71133843D01*
X91240625Y-70920625D01*
X91568839Y-70429418D01*
X91684092Y-69850000D01*
X91568839Y-69270582D01*
X91240625Y-68779375D01*
X91222381Y-68767184D01*
X91267765Y-68758157D01*
X91477809Y-68617809D01*
X91618157Y-68407765D01*
X91667440Y-68160000D01*
X91667440Y-66460000D01*
X91618157Y-66212235D01*
X91477809Y-66002191D01*
X91267765Y-65861843D01*
X91020000Y-65812560D01*
X90117586Y-65812560D01*
X93268549Y-62661598D01*
X93329916Y-62620594D01*
X93492365Y-62377472D01*
X93498560Y-62346328D01*
X93498560Y-63080000D01*
G36*
X109165375Y-63300625D02*
X109501000Y-63524883D01*
X109501001Y-64829311D01*
X109486602Y-64901700D01*
X109543646Y-65188482D01*
X109660401Y-65363218D01*
X109706096Y-65431605D01*
X109767463Y-65472609D01*
X112084875Y-67790022D01*
X112054469Y-67790022D01*
X108431000Y-64166554D01*
X108431000Y-63524882D01*
X108766625Y-63300625D01*
X108966000Y-63002239D01*
X109165375Y-63300625D01*
X109165375Y-63300625D01*
G37*
X109165375Y-63300625D02*
X109501000Y-63524883D01*
X109501001Y-64829311D01*
X109486602Y-64901700D01*
X109543646Y-65188482D01*
X109660401Y-65363218D01*
X109706096Y-65431605D01*
X109767463Y-65472609D01*
X112084875Y-67790022D01*
X112054469Y-67790022D01*
X108431000Y-64166554D01*
X108431000Y-63524882D01*
X108766625Y-63300625D01*
X108966000Y-63002239D01*
X109165375Y-63300625D01*
G36*
X119325375Y-63300625D02*
X119661000Y-63524883D01*
X119661001Y-66198611D01*
X119646602Y-66271000D01*
X119703646Y-66557782D01*
X119725173Y-66590000D01*
X118729447Y-66590000D01*
X118591000Y-66451554D01*
X118591000Y-63524882D01*
X118926625Y-63300625D01*
X119126000Y-63002239D01*
X119325375Y-63300625D01*
X119325375Y-63300625D01*
G37*
X119325375Y-63300625D02*
X119661000Y-63524883D01*
X119661001Y-66198611D01*
X119646602Y-66271000D01*
X119703646Y-66557782D01*
X119725173Y-66590000D01*
X118729447Y-66590000D01*
X118591000Y-66451554D01*
X118591000Y-63524882D01*
X118926625Y-63300625D01*
X119126000Y-63002239D01*
X119325375Y-63300625D01*
G36*
X105283000Y-62103000D02*
X105303000Y-62103000D01*
X105303000Y-62357000D01*
X105283000Y-62357000D01*
X105283000Y-62377000D01*
X105029000Y-62377000D01*
X105029000Y-62357000D01*
X105009000Y-62357000D01*
X105009000Y-62103000D01*
X105029000Y-62103000D01*
X105029000Y-62083000D01*
X105283000Y-62083000D01*
X105283000Y-62103000D01*
X105283000Y-62103000D01*
G37*
X105283000Y-62103000D02*
X105303000Y-62103000D01*
X105303000Y-62357000D01*
X105283000Y-62357000D01*
X105283000Y-62377000D01*
X105029000Y-62377000D01*
X105029000Y-62357000D01*
X105009000Y-62357000D01*
X105009000Y-62103000D01*
X105029000Y-62103000D01*
X105029000Y-62083000D01*
X105283000Y-62083000D01*
X105283000Y-62103000D01*
G36*
X101545375Y-60760625D02*
X101843761Y-60960000D01*
X101545375Y-61159375D01*
X101346000Y-61457761D01*
X101146625Y-61159375D01*
X100846214Y-60958647D01*
X101271183Y-60571358D01*
X101332157Y-60441522D01*
X101545375Y-60760625D01*
X101545375Y-60760625D01*
G37*
X101545375Y-60760625D02*
X101843761Y-60960000D01*
X101545375Y-61159375D01*
X101346000Y-61457761D01*
X101146625Y-61159375D01*
X100846214Y-60958647D01*
X101271183Y-60571358D01*
X101332157Y-60441522D01*
X101545375Y-60760625D01*
G36*
X109040817Y-60571358D02*
X109465786Y-60958647D01*
X109165375Y-61159375D01*
X108966000Y-61457761D01*
X108766625Y-61159375D01*
X108468239Y-60960000D01*
X108766625Y-60760625D01*
X108979843Y-60441522D01*
X109040817Y-60571358D01*
X109040817Y-60571358D01*
G37*
X109040817Y-60571358D02*
X109465786Y-60958647D01*
X109165375Y-61159375D01*
X108966000Y-61457761D01*
X108766625Y-61159375D01*
X108468239Y-60960000D01*
X108766625Y-60760625D01*
X108979843Y-60441522D01*
X109040817Y-60571358D01*
G36*
X100203000Y-59563000D02*
X100223000Y-59563000D01*
X100223000Y-59817000D01*
X100203000Y-59817000D01*
X100203000Y-59837000D01*
X99949000Y-59837000D01*
X99949000Y-59817000D01*
X99929000Y-59817000D01*
X99929000Y-59563000D01*
X99949000Y-59563000D01*
X99949000Y-59543000D01*
X100203000Y-59543000D01*
X100203000Y-59563000D01*
X100203000Y-59563000D01*
G37*
X100203000Y-59563000D02*
X100223000Y-59563000D01*
X100223000Y-59817000D01*
X100203000Y-59817000D01*
X100203000Y-59837000D01*
X99949000Y-59837000D01*
X99949000Y-59817000D01*
X99929000Y-59817000D01*
X99929000Y-59563000D01*
X99949000Y-59563000D01*
X99949000Y-59543000D01*
X100203000Y-59543000D01*
X100203000Y-59563000D01*
G36*
X110363000Y-59563000D02*
X110383000Y-59563000D01*
X110383000Y-59817000D01*
X110363000Y-59817000D01*
X110363000Y-59837000D01*
X110109000Y-59837000D01*
X110109000Y-59817000D01*
X110089000Y-59817000D01*
X110089000Y-59563000D01*
X110109000Y-59563000D01*
X110109000Y-59543000D01*
X110363000Y-59543000D01*
X110363000Y-59563000D01*
X110363000Y-59563000D01*
G37*
X110363000Y-59563000D02*
X110383000Y-59563000D01*
X110383000Y-59817000D01*
X110363000Y-59817000D01*
X110363000Y-59837000D01*
X110109000Y-59837000D01*
X110109000Y-59817000D01*
X110089000Y-59817000D01*
X110089000Y-59563000D01*
X110109000Y-59563000D01*
X110109000Y-59543000D01*
X110363000Y-59543000D01*
X110363000Y-59563000D01*
G36*
X130683000Y-59563000D02*
X130703000Y-59563000D01*
X130703000Y-59817000D01*
X130683000Y-59817000D01*
X130683000Y-59837000D01*
X130429000Y-59837000D01*
X130429000Y-59817000D01*
X130409000Y-59817000D01*
X130409000Y-59563000D01*
X130429000Y-59563000D01*
X130429000Y-59543000D01*
X130683000Y-59543000D01*
X130683000Y-59563000D01*
X130683000Y-59563000D01*
G37*
X130683000Y-59563000D02*
X130703000Y-59563000D01*
X130703000Y-59817000D01*
X130683000Y-59817000D01*
X130683000Y-59837000D01*
X130429000Y-59837000D01*
X130429000Y-59817000D01*
X130409000Y-59817000D01*
X130409000Y-59563000D01*
X130429000Y-59563000D01*
X130429000Y-59543000D01*
X130683000Y-59543000D01*
X130683000Y-59563000D01*
G36*
X117983000Y-59563000D02*
X118003000Y-59563000D01*
X118003000Y-59817000D01*
X117983000Y-59817000D01*
X117983000Y-59837000D01*
X117729000Y-59837000D01*
X117729000Y-59817000D01*
X117709000Y-59817000D01*
X117709000Y-59563000D01*
X117729000Y-59563000D01*
X117729000Y-59543000D01*
X117983000Y-59543000D01*
X117983000Y-59563000D01*
X117983000Y-59563000D01*
G37*
X117983000Y-59563000D02*
X118003000Y-59563000D01*
X118003000Y-59817000D01*
X117983000Y-59817000D01*
X117983000Y-59837000D01*
X117729000Y-59837000D01*
X117729000Y-59817000D01*
X117709000Y-59817000D01*
X117709000Y-59563000D01*
X117729000Y-59563000D01*
X117729000Y-59543000D01*
X117983000Y-59543000D01*
X117983000Y-59563000D01*
G04 #@! TD*
M02*
