M48
;DRILL file {KiCad (5.0.0-3-g5ebb6b6)} date Monday, 01 October 2018 at 00:07:14
;FORMAT={-:-/ absolute / metric / decimal}
FMAT,2
METRIC,TZ
T1C0.400
T2C0.800
T3C1.200
%
G90
G05
M71
T1
X98.75Y-60.75
X117.4Y-60.95
X135.65Y-61.15
X144.7Y-61.05
X150.5Y-64.2
X154.Y-62.2
X154.7Y-60.5
X172.532Y-59.3
X207.35Y-61.25
T2
X209.45Y-56.25
X209.45Y-58.25
X209.45Y-60.25
X209.45Y-62.25
X209.45Y-64.25
T3
X120.256Y-57.3
X120.256Y-62.3
X132.756Y-57.3
X132.756Y-62.3
X175.091Y-57.3
X175.091Y-62.3
X187.591Y-57.3
X187.591Y-62.3
X101.977Y-57.3
X101.977Y-62.3
X114.477Y-57.3
X114.477Y-62.3
X138.534Y-57.3
X138.534Y-62.3
X151.034Y-57.3
X151.034Y-62.3
X65.42Y-57.3
X65.42Y-62.3
X77.92Y-57.3
X77.92Y-62.3
X83.699Y-57.3
X83.699Y-62.3
X96.199Y-57.3
X96.199Y-62.3
X156.813Y-57.3
X156.813Y-62.3
X169.313Y-57.3
X169.313Y-62.3
X193.37Y-57.3
X193.37Y-62.3
X205.87Y-57.3
X205.87Y-62.3
T0
M30
