G04 #@! TF.GenerationSoftware,KiCad,Pcbnew,(5.0.0-3-g5ebb6b6)*
G04 #@! TF.CreationDate,2018-10-01T00:07:02+02:00*
G04 #@! TF.ProjectId,Keypad,4B65797061642E6B696361645F706362,rev?*
G04 #@! TF.SameCoordinates,Original*
G04 #@! TF.FileFunction,Soldermask,Top*
G04 #@! TF.FilePolarity,Negative*
%FSLAX46Y46*%
G04 Gerber Fmt 4.6, Leading zero omitted, Abs format (unit mm)*
G04 Created by KiCad (PCBNEW (5.0.0-3-g5ebb6b6)) date Monday, 01 October 2018 at 00:07:02*
%MOMM*%
%LPD*%
G01*
G04 APERTURE LIST*
%ADD10C,3.400000*%
%ADD11R,1.750000X1.750000*%
%ADD12O,1.750000X1.750000*%
%ADD13C,0.100000*%
%ADD14C,1.350000*%
%ADD15C,2.400000*%
%ADD16C,2.200000*%
G04 APERTURE END LIST*
D10*
G04 #@! TO.C,REF\002A\002A*
X80800000Y-65950000D03*
G04 #@! TD*
D11*
G04 #@! TO.C,J1*
X209450000Y-56250000D03*
D12*
X209450000Y-58250000D03*
X209450000Y-60250000D03*
X209450000Y-62250000D03*
X209450000Y-64250000D03*
G04 #@! TD*
D13*
G04 #@! TO.C,R1*
G36*
X79520581Y-53926625D02*
X79553343Y-53931485D01*
X79585471Y-53939533D01*
X79616656Y-53950691D01*
X79646596Y-53964852D01*
X79675005Y-53981879D01*
X79701608Y-54001609D01*
X79726149Y-54023851D01*
X79748391Y-54048392D01*
X79768121Y-54074995D01*
X79785148Y-54103404D01*
X79799309Y-54133344D01*
X79810467Y-54164529D01*
X79818515Y-54196657D01*
X79823375Y-54229419D01*
X79825000Y-54262500D01*
X79825000Y-54937500D01*
X79823375Y-54970581D01*
X79818515Y-55003343D01*
X79810467Y-55035471D01*
X79799309Y-55066656D01*
X79785148Y-55096596D01*
X79768121Y-55125005D01*
X79748391Y-55151608D01*
X79726149Y-55176149D01*
X79701608Y-55198391D01*
X79675005Y-55218121D01*
X79646596Y-55235148D01*
X79616656Y-55249309D01*
X79585471Y-55260467D01*
X79553343Y-55268515D01*
X79520581Y-55273375D01*
X79487500Y-55275000D01*
X78712500Y-55275000D01*
X78679419Y-55273375D01*
X78646657Y-55268515D01*
X78614529Y-55260467D01*
X78583344Y-55249309D01*
X78553404Y-55235148D01*
X78524995Y-55218121D01*
X78498392Y-55198391D01*
X78473851Y-55176149D01*
X78451609Y-55151608D01*
X78431879Y-55125005D01*
X78414852Y-55096596D01*
X78400691Y-55066656D01*
X78389533Y-55035471D01*
X78381485Y-55003343D01*
X78376625Y-54970581D01*
X78375000Y-54937500D01*
X78375000Y-54262500D01*
X78376625Y-54229419D01*
X78381485Y-54196657D01*
X78389533Y-54164529D01*
X78400691Y-54133344D01*
X78414852Y-54103404D01*
X78431879Y-54074995D01*
X78451609Y-54048392D01*
X78473851Y-54023851D01*
X78498392Y-54001609D01*
X78524995Y-53981879D01*
X78553404Y-53964852D01*
X78583344Y-53950691D01*
X78614529Y-53939533D01*
X78646657Y-53931485D01*
X78679419Y-53926625D01*
X78712500Y-53925000D01*
X79487500Y-53925000D01*
X79520581Y-53926625D01*
X79520581Y-53926625D01*
G37*
D14*
X79100000Y-54600000D03*
D13*
G36*
X81270581Y-53926625D02*
X81303343Y-53931485D01*
X81335471Y-53939533D01*
X81366656Y-53950691D01*
X81396596Y-53964852D01*
X81425005Y-53981879D01*
X81451608Y-54001609D01*
X81476149Y-54023851D01*
X81498391Y-54048392D01*
X81518121Y-54074995D01*
X81535148Y-54103404D01*
X81549309Y-54133344D01*
X81560467Y-54164529D01*
X81568515Y-54196657D01*
X81573375Y-54229419D01*
X81575000Y-54262500D01*
X81575000Y-54937500D01*
X81573375Y-54970581D01*
X81568515Y-55003343D01*
X81560467Y-55035471D01*
X81549309Y-55066656D01*
X81535148Y-55096596D01*
X81518121Y-55125005D01*
X81498391Y-55151608D01*
X81476149Y-55176149D01*
X81451608Y-55198391D01*
X81425005Y-55218121D01*
X81396596Y-55235148D01*
X81366656Y-55249309D01*
X81335471Y-55260467D01*
X81303343Y-55268515D01*
X81270581Y-55273375D01*
X81237500Y-55275000D01*
X80462500Y-55275000D01*
X80429419Y-55273375D01*
X80396657Y-55268515D01*
X80364529Y-55260467D01*
X80333344Y-55249309D01*
X80303404Y-55235148D01*
X80274995Y-55218121D01*
X80248392Y-55198391D01*
X80223851Y-55176149D01*
X80201609Y-55151608D01*
X80181879Y-55125005D01*
X80164852Y-55096596D01*
X80150691Y-55066656D01*
X80139533Y-55035471D01*
X80131485Y-55003343D01*
X80126625Y-54970581D01*
X80125000Y-54937500D01*
X80125000Y-54262500D01*
X80126625Y-54229419D01*
X80131485Y-54196657D01*
X80139533Y-54164529D01*
X80150691Y-54133344D01*
X80164852Y-54103404D01*
X80181879Y-54074995D01*
X80201609Y-54048392D01*
X80223851Y-54023851D01*
X80248392Y-54001609D01*
X80274995Y-53981879D01*
X80303404Y-53964852D01*
X80333344Y-53950691D01*
X80364529Y-53939533D01*
X80396657Y-53931485D01*
X80429419Y-53926625D01*
X80462500Y-53925000D01*
X81237500Y-53925000D01*
X81270581Y-53926625D01*
X81270581Y-53926625D01*
G37*
D14*
X80850000Y-54600000D03*
G04 #@! TD*
D13*
G04 #@! TO.C,R2*
G36*
X99420581Y-53926625D02*
X99453343Y-53931485D01*
X99485471Y-53939533D01*
X99516656Y-53950691D01*
X99546596Y-53964852D01*
X99575005Y-53981879D01*
X99601608Y-54001609D01*
X99626149Y-54023851D01*
X99648391Y-54048392D01*
X99668121Y-54074995D01*
X99685148Y-54103404D01*
X99699309Y-54133344D01*
X99710467Y-54164529D01*
X99718515Y-54196657D01*
X99723375Y-54229419D01*
X99725000Y-54262500D01*
X99725000Y-54937500D01*
X99723375Y-54970581D01*
X99718515Y-55003343D01*
X99710467Y-55035471D01*
X99699309Y-55066656D01*
X99685148Y-55096596D01*
X99668121Y-55125005D01*
X99648391Y-55151608D01*
X99626149Y-55176149D01*
X99601608Y-55198391D01*
X99575005Y-55218121D01*
X99546596Y-55235148D01*
X99516656Y-55249309D01*
X99485471Y-55260467D01*
X99453343Y-55268515D01*
X99420581Y-55273375D01*
X99387500Y-55275000D01*
X98612500Y-55275000D01*
X98579419Y-55273375D01*
X98546657Y-55268515D01*
X98514529Y-55260467D01*
X98483344Y-55249309D01*
X98453404Y-55235148D01*
X98424995Y-55218121D01*
X98398392Y-55198391D01*
X98373851Y-55176149D01*
X98351609Y-55151608D01*
X98331879Y-55125005D01*
X98314852Y-55096596D01*
X98300691Y-55066656D01*
X98289533Y-55035471D01*
X98281485Y-55003343D01*
X98276625Y-54970581D01*
X98275000Y-54937500D01*
X98275000Y-54262500D01*
X98276625Y-54229419D01*
X98281485Y-54196657D01*
X98289533Y-54164529D01*
X98300691Y-54133344D01*
X98314852Y-54103404D01*
X98331879Y-54074995D01*
X98351609Y-54048392D01*
X98373851Y-54023851D01*
X98398392Y-54001609D01*
X98424995Y-53981879D01*
X98453404Y-53964852D01*
X98483344Y-53950691D01*
X98514529Y-53939533D01*
X98546657Y-53931485D01*
X98579419Y-53926625D01*
X98612500Y-53925000D01*
X99387500Y-53925000D01*
X99420581Y-53926625D01*
X99420581Y-53926625D01*
G37*
D14*
X99000000Y-54600000D03*
D13*
G36*
X97670581Y-53926625D02*
X97703343Y-53931485D01*
X97735471Y-53939533D01*
X97766656Y-53950691D01*
X97796596Y-53964852D01*
X97825005Y-53981879D01*
X97851608Y-54001609D01*
X97876149Y-54023851D01*
X97898391Y-54048392D01*
X97918121Y-54074995D01*
X97935148Y-54103404D01*
X97949309Y-54133344D01*
X97960467Y-54164529D01*
X97968515Y-54196657D01*
X97973375Y-54229419D01*
X97975000Y-54262500D01*
X97975000Y-54937500D01*
X97973375Y-54970581D01*
X97968515Y-55003343D01*
X97960467Y-55035471D01*
X97949309Y-55066656D01*
X97935148Y-55096596D01*
X97918121Y-55125005D01*
X97898391Y-55151608D01*
X97876149Y-55176149D01*
X97851608Y-55198391D01*
X97825005Y-55218121D01*
X97796596Y-55235148D01*
X97766656Y-55249309D01*
X97735471Y-55260467D01*
X97703343Y-55268515D01*
X97670581Y-55273375D01*
X97637500Y-55275000D01*
X96862500Y-55275000D01*
X96829419Y-55273375D01*
X96796657Y-55268515D01*
X96764529Y-55260467D01*
X96733344Y-55249309D01*
X96703404Y-55235148D01*
X96674995Y-55218121D01*
X96648392Y-55198391D01*
X96623851Y-55176149D01*
X96601609Y-55151608D01*
X96581879Y-55125005D01*
X96564852Y-55096596D01*
X96550691Y-55066656D01*
X96539533Y-55035471D01*
X96531485Y-55003343D01*
X96526625Y-54970581D01*
X96525000Y-54937500D01*
X96525000Y-54262500D01*
X96526625Y-54229419D01*
X96531485Y-54196657D01*
X96539533Y-54164529D01*
X96550691Y-54133344D01*
X96564852Y-54103404D01*
X96581879Y-54074995D01*
X96601609Y-54048392D01*
X96623851Y-54023851D01*
X96648392Y-54001609D01*
X96674995Y-53981879D01*
X96703404Y-53964852D01*
X96733344Y-53950691D01*
X96764529Y-53939533D01*
X96796657Y-53931485D01*
X96829419Y-53926625D01*
X96862500Y-53925000D01*
X97637500Y-53925000D01*
X97670581Y-53926625D01*
X97670581Y-53926625D01*
G37*
D14*
X97250000Y-54600000D03*
G04 #@! TD*
D13*
G04 #@! TO.C,R3*
G36*
X116770581Y-54126625D02*
X116803343Y-54131485D01*
X116835471Y-54139533D01*
X116866656Y-54150691D01*
X116896596Y-54164852D01*
X116925005Y-54181879D01*
X116951608Y-54201609D01*
X116976149Y-54223851D01*
X116998391Y-54248392D01*
X117018121Y-54274995D01*
X117035148Y-54303404D01*
X117049309Y-54333344D01*
X117060467Y-54364529D01*
X117068515Y-54396657D01*
X117073375Y-54429419D01*
X117075000Y-54462500D01*
X117075000Y-55137500D01*
X117073375Y-55170581D01*
X117068515Y-55203343D01*
X117060467Y-55235471D01*
X117049309Y-55266656D01*
X117035148Y-55296596D01*
X117018121Y-55325005D01*
X116998391Y-55351608D01*
X116976149Y-55376149D01*
X116951608Y-55398391D01*
X116925005Y-55418121D01*
X116896596Y-55435148D01*
X116866656Y-55449309D01*
X116835471Y-55460467D01*
X116803343Y-55468515D01*
X116770581Y-55473375D01*
X116737500Y-55475000D01*
X115962500Y-55475000D01*
X115929419Y-55473375D01*
X115896657Y-55468515D01*
X115864529Y-55460467D01*
X115833344Y-55449309D01*
X115803404Y-55435148D01*
X115774995Y-55418121D01*
X115748392Y-55398391D01*
X115723851Y-55376149D01*
X115701609Y-55351608D01*
X115681879Y-55325005D01*
X115664852Y-55296596D01*
X115650691Y-55266656D01*
X115639533Y-55235471D01*
X115631485Y-55203343D01*
X115626625Y-55170581D01*
X115625000Y-55137500D01*
X115625000Y-54462500D01*
X115626625Y-54429419D01*
X115631485Y-54396657D01*
X115639533Y-54364529D01*
X115650691Y-54333344D01*
X115664852Y-54303404D01*
X115681879Y-54274995D01*
X115701609Y-54248392D01*
X115723851Y-54223851D01*
X115748392Y-54201609D01*
X115774995Y-54181879D01*
X115803404Y-54164852D01*
X115833344Y-54150691D01*
X115864529Y-54139533D01*
X115896657Y-54131485D01*
X115929419Y-54126625D01*
X115962500Y-54125000D01*
X116737500Y-54125000D01*
X116770581Y-54126625D01*
X116770581Y-54126625D01*
G37*
D14*
X116350000Y-54800000D03*
D13*
G36*
X118520581Y-54126625D02*
X118553343Y-54131485D01*
X118585471Y-54139533D01*
X118616656Y-54150691D01*
X118646596Y-54164852D01*
X118675005Y-54181879D01*
X118701608Y-54201609D01*
X118726149Y-54223851D01*
X118748391Y-54248392D01*
X118768121Y-54274995D01*
X118785148Y-54303404D01*
X118799309Y-54333344D01*
X118810467Y-54364529D01*
X118818515Y-54396657D01*
X118823375Y-54429419D01*
X118825000Y-54462500D01*
X118825000Y-55137500D01*
X118823375Y-55170581D01*
X118818515Y-55203343D01*
X118810467Y-55235471D01*
X118799309Y-55266656D01*
X118785148Y-55296596D01*
X118768121Y-55325005D01*
X118748391Y-55351608D01*
X118726149Y-55376149D01*
X118701608Y-55398391D01*
X118675005Y-55418121D01*
X118646596Y-55435148D01*
X118616656Y-55449309D01*
X118585471Y-55460467D01*
X118553343Y-55468515D01*
X118520581Y-55473375D01*
X118487500Y-55475000D01*
X117712500Y-55475000D01*
X117679419Y-55473375D01*
X117646657Y-55468515D01*
X117614529Y-55460467D01*
X117583344Y-55449309D01*
X117553404Y-55435148D01*
X117524995Y-55418121D01*
X117498392Y-55398391D01*
X117473851Y-55376149D01*
X117451609Y-55351608D01*
X117431879Y-55325005D01*
X117414852Y-55296596D01*
X117400691Y-55266656D01*
X117389533Y-55235471D01*
X117381485Y-55203343D01*
X117376625Y-55170581D01*
X117375000Y-55137500D01*
X117375000Y-54462500D01*
X117376625Y-54429419D01*
X117381485Y-54396657D01*
X117389533Y-54364529D01*
X117400691Y-54333344D01*
X117414852Y-54303404D01*
X117431879Y-54274995D01*
X117451609Y-54248392D01*
X117473851Y-54223851D01*
X117498392Y-54201609D01*
X117524995Y-54181879D01*
X117553404Y-54164852D01*
X117583344Y-54150691D01*
X117614529Y-54139533D01*
X117646657Y-54131485D01*
X117679419Y-54126625D01*
X117712500Y-54125000D01*
X118487500Y-54125000D01*
X118520581Y-54126625D01*
X118520581Y-54126625D01*
G37*
D14*
X118100000Y-54800000D03*
G04 #@! TD*
D13*
G04 #@! TO.C,R4*
G36*
X136270581Y-54226625D02*
X136303343Y-54231485D01*
X136335471Y-54239533D01*
X136366656Y-54250691D01*
X136396596Y-54264852D01*
X136425005Y-54281879D01*
X136451608Y-54301609D01*
X136476149Y-54323851D01*
X136498391Y-54348392D01*
X136518121Y-54374995D01*
X136535148Y-54403404D01*
X136549309Y-54433344D01*
X136560467Y-54464529D01*
X136568515Y-54496657D01*
X136573375Y-54529419D01*
X136575000Y-54562500D01*
X136575000Y-55237500D01*
X136573375Y-55270581D01*
X136568515Y-55303343D01*
X136560467Y-55335471D01*
X136549309Y-55366656D01*
X136535148Y-55396596D01*
X136518121Y-55425005D01*
X136498391Y-55451608D01*
X136476149Y-55476149D01*
X136451608Y-55498391D01*
X136425005Y-55518121D01*
X136396596Y-55535148D01*
X136366656Y-55549309D01*
X136335471Y-55560467D01*
X136303343Y-55568515D01*
X136270581Y-55573375D01*
X136237500Y-55575000D01*
X135462500Y-55575000D01*
X135429419Y-55573375D01*
X135396657Y-55568515D01*
X135364529Y-55560467D01*
X135333344Y-55549309D01*
X135303404Y-55535148D01*
X135274995Y-55518121D01*
X135248392Y-55498391D01*
X135223851Y-55476149D01*
X135201609Y-55451608D01*
X135181879Y-55425005D01*
X135164852Y-55396596D01*
X135150691Y-55366656D01*
X135139533Y-55335471D01*
X135131485Y-55303343D01*
X135126625Y-55270581D01*
X135125000Y-55237500D01*
X135125000Y-54562500D01*
X135126625Y-54529419D01*
X135131485Y-54496657D01*
X135139533Y-54464529D01*
X135150691Y-54433344D01*
X135164852Y-54403404D01*
X135181879Y-54374995D01*
X135201609Y-54348392D01*
X135223851Y-54323851D01*
X135248392Y-54301609D01*
X135274995Y-54281879D01*
X135303404Y-54264852D01*
X135333344Y-54250691D01*
X135364529Y-54239533D01*
X135396657Y-54231485D01*
X135429419Y-54226625D01*
X135462500Y-54225000D01*
X136237500Y-54225000D01*
X136270581Y-54226625D01*
X136270581Y-54226625D01*
G37*
D14*
X135850000Y-54900000D03*
D13*
G36*
X134520581Y-54226625D02*
X134553343Y-54231485D01*
X134585471Y-54239533D01*
X134616656Y-54250691D01*
X134646596Y-54264852D01*
X134675005Y-54281879D01*
X134701608Y-54301609D01*
X134726149Y-54323851D01*
X134748391Y-54348392D01*
X134768121Y-54374995D01*
X134785148Y-54403404D01*
X134799309Y-54433344D01*
X134810467Y-54464529D01*
X134818515Y-54496657D01*
X134823375Y-54529419D01*
X134825000Y-54562500D01*
X134825000Y-55237500D01*
X134823375Y-55270581D01*
X134818515Y-55303343D01*
X134810467Y-55335471D01*
X134799309Y-55366656D01*
X134785148Y-55396596D01*
X134768121Y-55425005D01*
X134748391Y-55451608D01*
X134726149Y-55476149D01*
X134701608Y-55498391D01*
X134675005Y-55518121D01*
X134646596Y-55535148D01*
X134616656Y-55549309D01*
X134585471Y-55560467D01*
X134553343Y-55568515D01*
X134520581Y-55573375D01*
X134487500Y-55575000D01*
X133712500Y-55575000D01*
X133679419Y-55573375D01*
X133646657Y-55568515D01*
X133614529Y-55560467D01*
X133583344Y-55549309D01*
X133553404Y-55535148D01*
X133524995Y-55518121D01*
X133498392Y-55498391D01*
X133473851Y-55476149D01*
X133451609Y-55451608D01*
X133431879Y-55425005D01*
X133414852Y-55396596D01*
X133400691Y-55366656D01*
X133389533Y-55335471D01*
X133381485Y-55303343D01*
X133376625Y-55270581D01*
X133375000Y-55237500D01*
X133375000Y-54562500D01*
X133376625Y-54529419D01*
X133381485Y-54496657D01*
X133389533Y-54464529D01*
X133400691Y-54433344D01*
X133414852Y-54403404D01*
X133431879Y-54374995D01*
X133451609Y-54348392D01*
X133473851Y-54323851D01*
X133498392Y-54301609D01*
X133524995Y-54281879D01*
X133553404Y-54264852D01*
X133583344Y-54250691D01*
X133614529Y-54239533D01*
X133646657Y-54231485D01*
X133679419Y-54226625D01*
X133712500Y-54225000D01*
X134487500Y-54225000D01*
X134520581Y-54226625D01*
X134520581Y-54226625D01*
G37*
D14*
X134100000Y-54900000D03*
G04 #@! TD*
D13*
G04 #@! TO.C,R5*
G36*
X152470581Y-54626625D02*
X152503343Y-54631485D01*
X152535471Y-54639533D01*
X152566656Y-54650691D01*
X152596596Y-54664852D01*
X152625005Y-54681879D01*
X152651608Y-54701609D01*
X152676149Y-54723851D01*
X152698391Y-54748392D01*
X152718121Y-54774995D01*
X152735148Y-54803404D01*
X152749309Y-54833344D01*
X152760467Y-54864529D01*
X152768515Y-54896657D01*
X152773375Y-54929419D01*
X152775000Y-54962500D01*
X152775000Y-55637500D01*
X152773375Y-55670581D01*
X152768515Y-55703343D01*
X152760467Y-55735471D01*
X152749309Y-55766656D01*
X152735148Y-55796596D01*
X152718121Y-55825005D01*
X152698391Y-55851608D01*
X152676149Y-55876149D01*
X152651608Y-55898391D01*
X152625005Y-55918121D01*
X152596596Y-55935148D01*
X152566656Y-55949309D01*
X152535471Y-55960467D01*
X152503343Y-55968515D01*
X152470581Y-55973375D01*
X152437500Y-55975000D01*
X151662500Y-55975000D01*
X151629419Y-55973375D01*
X151596657Y-55968515D01*
X151564529Y-55960467D01*
X151533344Y-55949309D01*
X151503404Y-55935148D01*
X151474995Y-55918121D01*
X151448392Y-55898391D01*
X151423851Y-55876149D01*
X151401609Y-55851608D01*
X151381879Y-55825005D01*
X151364852Y-55796596D01*
X151350691Y-55766656D01*
X151339533Y-55735471D01*
X151331485Y-55703343D01*
X151326625Y-55670581D01*
X151325000Y-55637500D01*
X151325000Y-54962500D01*
X151326625Y-54929419D01*
X151331485Y-54896657D01*
X151339533Y-54864529D01*
X151350691Y-54833344D01*
X151364852Y-54803404D01*
X151381879Y-54774995D01*
X151401609Y-54748392D01*
X151423851Y-54723851D01*
X151448392Y-54701609D01*
X151474995Y-54681879D01*
X151503404Y-54664852D01*
X151533344Y-54650691D01*
X151564529Y-54639533D01*
X151596657Y-54631485D01*
X151629419Y-54626625D01*
X151662500Y-54625000D01*
X152437500Y-54625000D01*
X152470581Y-54626625D01*
X152470581Y-54626625D01*
G37*
D14*
X152050000Y-55300000D03*
D13*
G36*
X154220581Y-54626625D02*
X154253343Y-54631485D01*
X154285471Y-54639533D01*
X154316656Y-54650691D01*
X154346596Y-54664852D01*
X154375005Y-54681879D01*
X154401608Y-54701609D01*
X154426149Y-54723851D01*
X154448391Y-54748392D01*
X154468121Y-54774995D01*
X154485148Y-54803404D01*
X154499309Y-54833344D01*
X154510467Y-54864529D01*
X154518515Y-54896657D01*
X154523375Y-54929419D01*
X154525000Y-54962500D01*
X154525000Y-55637500D01*
X154523375Y-55670581D01*
X154518515Y-55703343D01*
X154510467Y-55735471D01*
X154499309Y-55766656D01*
X154485148Y-55796596D01*
X154468121Y-55825005D01*
X154448391Y-55851608D01*
X154426149Y-55876149D01*
X154401608Y-55898391D01*
X154375005Y-55918121D01*
X154346596Y-55935148D01*
X154316656Y-55949309D01*
X154285471Y-55960467D01*
X154253343Y-55968515D01*
X154220581Y-55973375D01*
X154187500Y-55975000D01*
X153412500Y-55975000D01*
X153379419Y-55973375D01*
X153346657Y-55968515D01*
X153314529Y-55960467D01*
X153283344Y-55949309D01*
X153253404Y-55935148D01*
X153224995Y-55918121D01*
X153198392Y-55898391D01*
X153173851Y-55876149D01*
X153151609Y-55851608D01*
X153131879Y-55825005D01*
X153114852Y-55796596D01*
X153100691Y-55766656D01*
X153089533Y-55735471D01*
X153081485Y-55703343D01*
X153076625Y-55670581D01*
X153075000Y-55637500D01*
X153075000Y-54962500D01*
X153076625Y-54929419D01*
X153081485Y-54896657D01*
X153089533Y-54864529D01*
X153100691Y-54833344D01*
X153114852Y-54803404D01*
X153131879Y-54774995D01*
X153151609Y-54748392D01*
X153173851Y-54723851D01*
X153198392Y-54701609D01*
X153224995Y-54681879D01*
X153253404Y-54664852D01*
X153283344Y-54650691D01*
X153314529Y-54639533D01*
X153346657Y-54631485D01*
X153379419Y-54626625D01*
X153412500Y-54625000D01*
X154187500Y-54625000D01*
X154220581Y-54626625D01*
X154220581Y-54626625D01*
G37*
D14*
X153800000Y-55300000D03*
G04 #@! TD*
D13*
G04 #@! TO.C,R6*
G36*
X172520581Y-54226625D02*
X172553343Y-54231485D01*
X172585471Y-54239533D01*
X172616656Y-54250691D01*
X172646596Y-54264852D01*
X172675005Y-54281879D01*
X172701608Y-54301609D01*
X172726149Y-54323851D01*
X172748391Y-54348392D01*
X172768121Y-54374995D01*
X172785148Y-54403404D01*
X172799309Y-54433344D01*
X172810467Y-54464529D01*
X172818515Y-54496657D01*
X172823375Y-54529419D01*
X172825000Y-54562500D01*
X172825000Y-55237500D01*
X172823375Y-55270581D01*
X172818515Y-55303343D01*
X172810467Y-55335471D01*
X172799309Y-55366656D01*
X172785148Y-55396596D01*
X172768121Y-55425005D01*
X172748391Y-55451608D01*
X172726149Y-55476149D01*
X172701608Y-55498391D01*
X172675005Y-55518121D01*
X172646596Y-55535148D01*
X172616656Y-55549309D01*
X172585471Y-55560467D01*
X172553343Y-55568515D01*
X172520581Y-55573375D01*
X172487500Y-55575000D01*
X171712500Y-55575000D01*
X171679419Y-55573375D01*
X171646657Y-55568515D01*
X171614529Y-55560467D01*
X171583344Y-55549309D01*
X171553404Y-55535148D01*
X171524995Y-55518121D01*
X171498392Y-55498391D01*
X171473851Y-55476149D01*
X171451609Y-55451608D01*
X171431879Y-55425005D01*
X171414852Y-55396596D01*
X171400691Y-55366656D01*
X171389533Y-55335471D01*
X171381485Y-55303343D01*
X171376625Y-55270581D01*
X171375000Y-55237500D01*
X171375000Y-54562500D01*
X171376625Y-54529419D01*
X171381485Y-54496657D01*
X171389533Y-54464529D01*
X171400691Y-54433344D01*
X171414852Y-54403404D01*
X171431879Y-54374995D01*
X171451609Y-54348392D01*
X171473851Y-54323851D01*
X171498392Y-54301609D01*
X171524995Y-54281879D01*
X171553404Y-54264852D01*
X171583344Y-54250691D01*
X171614529Y-54239533D01*
X171646657Y-54231485D01*
X171679419Y-54226625D01*
X171712500Y-54225000D01*
X172487500Y-54225000D01*
X172520581Y-54226625D01*
X172520581Y-54226625D01*
G37*
D14*
X172100000Y-54900000D03*
D13*
G36*
X170770581Y-54226625D02*
X170803343Y-54231485D01*
X170835471Y-54239533D01*
X170866656Y-54250691D01*
X170896596Y-54264852D01*
X170925005Y-54281879D01*
X170951608Y-54301609D01*
X170976149Y-54323851D01*
X170998391Y-54348392D01*
X171018121Y-54374995D01*
X171035148Y-54403404D01*
X171049309Y-54433344D01*
X171060467Y-54464529D01*
X171068515Y-54496657D01*
X171073375Y-54529419D01*
X171075000Y-54562500D01*
X171075000Y-55237500D01*
X171073375Y-55270581D01*
X171068515Y-55303343D01*
X171060467Y-55335471D01*
X171049309Y-55366656D01*
X171035148Y-55396596D01*
X171018121Y-55425005D01*
X170998391Y-55451608D01*
X170976149Y-55476149D01*
X170951608Y-55498391D01*
X170925005Y-55518121D01*
X170896596Y-55535148D01*
X170866656Y-55549309D01*
X170835471Y-55560467D01*
X170803343Y-55568515D01*
X170770581Y-55573375D01*
X170737500Y-55575000D01*
X169962500Y-55575000D01*
X169929419Y-55573375D01*
X169896657Y-55568515D01*
X169864529Y-55560467D01*
X169833344Y-55549309D01*
X169803404Y-55535148D01*
X169774995Y-55518121D01*
X169748392Y-55498391D01*
X169723851Y-55476149D01*
X169701609Y-55451608D01*
X169681879Y-55425005D01*
X169664852Y-55396596D01*
X169650691Y-55366656D01*
X169639533Y-55335471D01*
X169631485Y-55303343D01*
X169626625Y-55270581D01*
X169625000Y-55237500D01*
X169625000Y-54562500D01*
X169626625Y-54529419D01*
X169631485Y-54496657D01*
X169639533Y-54464529D01*
X169650691Y-54433344D01*
X169664852Y-54403404D01*
X169681879Y-54374995D01*
X169701609Y-54348392D01*
X169723851Y-54323851D01*
X169748392Y-54301609D01*
X169774995Y-54281879D01*
X169803404Y-54264852D01*
X169833344Y-54250691D01*
X169864529Y-54239533D01*
X169896657Y-54231485D01*
X169929419Y-54226625D01*
X169962500Y-54225000D01*
X170737500Y-54225000D01*
X170770581Y-54226625D01*
X170770581Y-54226625D01*
G37*
D14*
X170350000Y-54900000D03*
G04 #@! TD*
D13*
G04 #@! TO.C,R7*
G36*
X189445581Y-54326625D02*
X189478343Y-54331485D01*
X189510471Y-54339533D01*
X189541656Y-54350691D01*
X189571596Y-54364852D01*
X189600005Y-54381879D01*
X189626608Y-54401609D01*
X189651149Y-54423851D01*
X189673391Y-54448392D01*
X189693121Y-54474995D01*
X189710148Y-54503404D01*
X189724309Y-54533344D01*
X189735467Y-54564529D01*
X189743515Y-54596657D01*
X189748375Y-54629419D01*
X189750000Y-54662500D01*
X189750000Y-55337500D01*
X189748375Y-55370581D01*
X189743515Y-55403343D01*
X189735467Y-55435471D01*
X189724309Y-55466656D01*
X189710148Y-55496596D01*
X189693121Y-55525005D01*
X189673391Y-55551608D01*
X189651149Y-55576149D01*
X189626608Y-55598391D01*
X189600005Y-55618121D01*
X189571596Y-55635148D01*
X189541656Y-55649309D01*
X189510471Y-55660467D01*
X189478343Y-55668515D01*
X189445581Y-55673375D01*
X189412500Y-55675000D01*
X188637500Y-55675000D01*
X188604419Y-55673375D01*
X188571657Y-55668515D01*
X188539529Y-55660467D01*
X188508344Y-55649309D01*
X188478404Y-55635148D01*
X188449995Y-55618121D01*
X188423392Y-55598391D01*
X188398851Y-55576149D01*
X188376609Y-55551608D01*
X188356879Y-55525005D01*
X188339852Y-55496596D01*
X188325691Y-55466656D01*
X188314533Y-55435471D01*
X188306485Y-55403343D01*
X188301625Y-55370581D01*
X188300000Y-55337500D01*
X188300000Y-54662500D01*
X188301625Y-54629419D01*
X188306485Y-54596657D01*
X188314533Y-54564529D01*
X188325691Y-54533344D01*
X188339852Y-54503404D01*
X188356879Y-54474995D01*
X188376609Y-54448392D01*
X188398851Y-54423851D01*
X188423392Y-54401609D01*
X188449995Y-54381879D01*
X188478404Y-54364852D01*
X188508344Y-54350691D01*
X188539529Y-54339533D01*
X188571657Y-54331485D01*
X188604419Y-54326625D01*
X188637500Y-54325000D01*
X189412500Y-54325000D01*
X189445581Y-54326625D01*
X189445581Y-54326625D01*
G37*
D14*
X189025000Y-55000000D03*
D13*
G36*
X191195581Y-54326625D02*
X191228343Y-54331485D01*
X191260471Y-54339533D01*
X191291656Y-54350691D01*
X191321596Y-54364852D01*
X191350005Y-54381879D01*
X191376608Y-54401609D01*
X191401149Y-54423851D01*
X191423391Y-54448392D01*
X191443121Y-54474995D01*
X191460148Y-54503404D01*
X191474309Y-54533344D01*
X191485467Y-54564529D01*
X191493515Y-54596657D01*
X191498375Y-54629419D01*
X191500000Y-54662500D01*
X191500000Y-55337500D01*
X191498375Y-55370581D01*
X191493515Y-55403343D01*
X191485467Y-55435471D01*
X191474309Y-55466656D01*
X191460148Y-55496596D01*
X191443121Y-55525005D01*
X191423391Y-55551608D01*
X191401149Y-55576149D01*
X191376608Y-55598391D01*
X191350005Y-55618121D01*
X191321596Y-55635148D01*
X191291656Y-55649309D01*
X191260471Y-55660467D01*
X191228343Y-55668515D01*
X191195581Y-55673375D01*
X191162500Y-55675000D01*
X190387500Y-55675000D01*
X190354419Y-55673375D01*
X190321657Y-55668515D01*
X190289529Y-55660467D01*
X190258344Y-55649309D01*
X190228404Y-55635148D01*
X190199995Y-55618121D01*
X190173392Y-55598391D01*
X190148851Y-55576149D01*
X190126609Y-55551608D01*
X190106879Y-55525005D01*
X190089852Y-55496596D01*
X190075691Y-55466656D01*
X190064533Y-55435471D01*
X190056485Y-55403343D01*
X190051625Y-55370581D01*
X190050000Y-55337500D01*
X190050000Y-54662500D01*
X190051625Y-54629419D01*
X190056485Y-54596657D01*
X190064533Y-54564529D01*
X190075691Y-54533344D01*
X190089852Y-54503404D01*
X190106879Y-54474995D01*
X190126609Y-54448392D01*
X190148851Y-54423851D01*
X190173392Y-54401609D01*
X190199995Y-54381879D01*
X190228404Y-54364852D01*
X190258344Y-54350691D01*
X190289529Y-54339533D01*
X190321657Y-54331485D01*
X190354419Y-54326625D01*
X190387500Y-54325000D01*
X191162500Y-54325000D01*
X191195581Y-54326625D01*
X191195581Y-54326625D01*
G37*
D14*
X190775000Y-55000000D03*
G04 #@! TD*
D13*
G04 #@! TO.C,R8*
G36*
X207820581Y-52976625D02*
X207853343Y-52981485D01*
X207885471Y-52989533D01*
X207916656Y-53000691D01*
X207946596Y-53014852D01*
X207975005Y-53031879D01*
X208001608Y-53051609D01*
X208026149Y-53073851D01*
X208048391Y-53098392D01*
X208068121Y-53124995D01*
X208085148Y-53153404D01*
X208099309Y-53183344D01*
X208110467Y-53214529D01*
X208118515Y-53246657D01*
X208123375Y-53279419D01*
X208125000Y-53312500D01*
X208125000Y-54087500D01*
X208123375Y-54120581D01*
X208118515Y-54153343D01*
X208110467Y-54185471D01*
X208099309Y-54216656D01*
X208085148Y-54246596D01*
X208068121Y-54275005D01*
X208048391Y-54301608D01*
X208026149Y-54326149D01*
X208001608Y-54348391D01*
X207975005Y-54368121D01*
X207946596Y-54385148D01*
X207916656Y-54399309D01*
X207885471Y-54410467D01*
X207853343Y-54418515D01*
X207820581Y-54423375D01*
X207787500Y-54425000D01*
X207112500Y-54425000D01*
X207079419Y-54423375D01*
X207046657Y-54418515D01*
X207014529Y-54410467D01*
X206983344Y-54399309D01*
X206953404Y-54385148D01*
X206924995Y-54368121D01*
X206898392Y-54348391D01*
X206873851Y-54326149D01*
X206851609Y-54301608D01*
X206831879Y-54275005D01*
X206814852Y-54246596D01*
X206800691Y-54216656D01*
X206789533Y-54185471D01*
X206781485Y-54153343D01*
X206776625Y-54120581D01*
X206775000Y-54087500D01*
X206775000Y-53312500D01*
X206776625Y-53279419D01*
X206781485Y-53246657D01*
X206789533Y-53214529D01*
X206800691Y-53183344D01*
X206814852Y-53153404D01*
X206831879Y-53124995D01*
X206851609Y-53098392D01*
X206873851Y-53073851D01*
X206898392Y-53051609D01*
X206924995Y-53031879D01*
X206953404Y-53014852D01*
X206983344Y-53000691D01*
X207014529Y-52989533D01*
X207046657Y-52981485D01*
X207079419Y-52976625D01*
X207112500Y-52975000D01*
X207787500Y-52975000D01*
X207820581Y-52976625D01*
X207820581Y-52976625D01*
G37*
D14*
X207450000Y-53700000D03*
D13*
G36*
X207820581Y-54726625D02*
X207853343Y-54731485D01*
X207885471Y-54739533D01*
X207916656Y-54750691D01*
X207946596Y-54764852D01*
X207975005Y-54781879D01*
X208001608Y-54801609D01*
X208026149Y-54823851D01*
X208048391Y-54848392D01*
X208068121Y-54874995D01*
X208085148Y-54903404D01*
X208099309Y-54933344D01*
X208110467Y-54964529D01*
X208118515Y-54996657D01*
X208123375Y-55029419D01*
X208125000Y-55062500D01*
X208125000Y-55837500D01*
X208123375Y-55870581D01*
X208118515Y-55903343D01*
X208110467Y-55935471D01*
X208099309Y-55966656D01*
X208085148Y-55996596D01*
X208068121Y-56025005D01*
X208048391Y-56051608D01*
X208026149Y-56076149D01*
X208001608Y-56098391D01*
X207975005Y-56118121D01*
X207946596Y-56135148D01*
X207916656Y-56149309D01*
X207885471Y-56160467D01*
X207853343Y-56168515D01*
X207820581Y-56173375D01*
X207787500Y-56175000D01*
X207112500Y-56175000D01*
X207079419Y-56173375D01*
X207046657Y-56168515D01*
X207014529Y-56160467D01*
X206983344Y-56149309D01*
X206953404Y-56135148D01*
X206924995Y-56118121D01*
X206898392Y-56098391D01*
X206873851Y-56076149D01*
X206851609Y-56051608D01*
X206831879Y-56025005D01*
X206814852Y-55996596D01*
X206800691Y-55966656D01*
X206789533Y-55935471D01*
X206781485Y-55903343D01*
X206776625Y-55870581D01*
X206775000Y-55837500D01*
X206775000Y-55062500D01*
X206776625Y-55029419D01*
X206781485Y-54996657D01*
X206789533Y-54964529D01*
X206800691Y-54933344D01*
X206814852Y-54903404D01*
X206831879Y-54874995D01*
X206851609Y-54848392D01*
X206873851Y-54823851D01*
X206898392Y-54801609D01*
X206924995Y-54781879D01*
X206953404Y-54764852D01*
X206983344Y-54750691D01*
X207014529Y-54739533D01*
X207046657Y-54731485D01*
X207079419Y-54726625D01*
X207112500Y-54725000D01*
X207787500Y-54725000D01*
X207820581Y-54726625D01*
X207820581Y-54726625D01*
G37*
D14*
X207450000Y-55450000D03*
G04 #@! TD*
D15*
G04 #@! TO.C,ON/OFF*
X77920000Y-62300000D03*
X77920000Y-57300000D03*
X65420000Y-62300000D03*
X65420000Y-57300000D03*
D16*
X71670000Y-55300000D03*
X71670000Y-64300000D03*
G04 #@! TD*
G04 #@! TO.C,SET*
X89948571Y-64300000D03*
X89948571Y-55300000D03*
D15*
X83698571Y-57300000D03*
X83698571Y-62300000D03*
X96198571Y-57300000D03*
X96198571Y-62300000D03*
G04 #@! TD*
G04 #@! TO.C,PGUP*
X114477142Y-62300000D03*
X114477142Y-57300000D03*
X101977142Y-62300000D03*
X101977142Y-57300000D03*
D16*
X108227142Y-55300000D03*
X108227142Y-64300000D03*
G04 #@! TD*
G04 #@! TO.C,PGDN*
X126505713Y-64300000D03*
X126505713Y-55300000D03*
D15*
X120255713Y-57300000D03*
X120255713Y-62300000D03*
X132755713Y-57300000D03*
X132755713Y-62300000D03*
G04 #@! TD*
G04 #@! TO.C,DISP1*
X151034284Y-62300000D03*
X151034284Y-57300000D03*
X138534284Y-62300000D03*
X138534284Y-57300000D03*
D16*
X144784284Y-55300000D03*
X144784284Y-64300000D03*
G04 #@! TD*
G04 #@! TO.C,DISP2*
X163062855Y-64300000D03*
X163062855Y-55300000D03*
D15*
X156812855Y-57300000D03*
X156812855Y-62300000D03*
X169312855Y-57300000D03*
X169312855Y-62300000D03*
G04 #@! TD*
G04 #@! TO.C,VOL-*
X187591426Y-62300000D03*
X187591426Y-57300000D03*
X175091426Y-62300000D03*
X175091426Y-57300000D03*
D16*
X181341426Y-55300000D03*
X181341426Y-64300000D03*
G04 #@! TD*
G04 #@! TO.C,VOL+*
X199620000Y-64300000D03*
X199620000Y-55300000D03*
D15*
X193370000Y-57300000D03*
X193370000Y-62300000D03*
X205870000Y-57300000D03*
X205870000Y-62300000D03*
G04 #@! TD*
D10*
G04 #@! TO.C,REF\002A\002A*
X172200000Y-65950000D03*
G04 #@! TD*
M02*
