G04 #@! TF.GenerationSoftware,KiCad,Pcbnew,(5.0.0-3-g5ebb6b6)*
G04 #@! TF.CreationDate,2018-10-01T00:07:02+02:00*
G04 #@! TF.ProjectId,Keypad,4B65797061642E6B696361645F706362,rev?*
G04 #@! TF.SameCoordinates,Original*
G04 #@! TF.FileFunction,Legend,Top*
G04 #@! TF.FilePolarity,Positive*
%FSLAX46Y46*%
G04 Gerber Fmt 4.6, Leading zero omitted, Abs format (unit mm)*
G04 Created by KiCad (PCBNEW (5.0.0-3-g5ebb6b6)) date Monday, 01 October 2018 at 00:07:02*
%MOMM*%
%LPD*%
G01*
G04 APERTURE LIST*
%ADD10C,0.120000*%
%ADD11C,0.150000*%
G04 APERTURE END LIST*
D10*
G04 #@! TO.C,J1*
X210890000Y-55190000D02*
X210890000Y-65310000D01*
X210890000Y-65310000D02*
X212510000Y-65310000D01*
X212510000Y-65310000D02*
X212510000Y-55190000D01*
X212510000Y-55190000D02*
X210890000Y-55190000D01*
X212510000Y-55940000D02*
X216710000Y-55940000D01*
X216710000Y-55940000D02*
X216710000Y-56560000D01*
X216710000Y-56560000D02*
X212510000Y-56560000D01*
X212510000Y-56000000D02*
X216710000Y-56000000D01*
X212510000Y-56120000D02*
X216710000Y-56120000D01*
X212510000Y-56240000D02*
X216710000Y-56240000D01*
X212510000Y-56360000D02*
X216710000Y-56360000D01*
X212510000Y-56480000D02*
X216710000Y-56480000D01*
X210385000Y-55940000D02*
X210890000Y-55940000D01*
X210385000Y-56560000D02*
X210890000Y-56560000D01*
X210890000Y-57250000D02*
X212510000Y-57250000D01*
X212510000Y-57940000D02*
X216710000Y-57940000D01*
X216710000Y-57940000D02*
X216710000Y-58560000D01*
X216710000Y-58560000D02*
X212510000Y-58560000D01*
X210332114Y-57940000D02*
X210890000Y-57940000D01*
X210332114Y-58560000D02*
X210890000Y-58560000D01*
X210890000Y-59250000D02*
X212510000Y-59250000D01*
X212510000Y-59940000D02*
X216710000Y-59940000D01*
X216710000Y-59940000D02*
X216710000Y-60560000D01*
X216710000Y-60560000D02*
X212510000Y-60560000D01*
X210332114Y-59940000D02*
X210890000Y-59940000D01*
X210332114Y-60560000D02*
X210890000Y-60560000D01*
X210890000Y-61250000D02*
X212510000Y-61250000D01*
X212510000Y-61940000D02*
X216710000Y-61940000D01*
X216710000Y-61940000D02*
X216710000Y-62560000D01*
X216710000Y-62560000D02*
X212510000Y-62560000D01*
X210332114Y-61940000D02*
X210890000Y-61940000D01*
X210332114Y-62560000D02*
X210890000Y-62560000D01*
X210890000Y-63250000D02*
X212510000Y-63250000D01*
X212510000Y-63940000D02*
X216710000Y-63940000D01*
X216710000Y-63940000D02*
X216710000Y-64560000D01*
X216710000Y-64560000D02*
X212510000Y-64560000D01*
X210332114Y-63940000D02*
X210890000Y-63940000D01*
X210332114Y-64560000D02*
X210890000Y-64560000D01*
X208450000Y-56250000D02*
X208450000Y-55250000D01*
X208450000Y-55250000D02*
X209450000Y-55250000D01*
G04 #@! TO.C,R1*
X80146267Y-54090000D02*
X79803733Y-54090000D01*
X80146267Y-55110000D02*
X79803733Y-55110000D01*
G04 #@! TO.C,R2*
X98296267Y-55110000D02*
X97953733Y-55110000D01*
X98296267Y-54090000D02*
X97953733Y-54090000D01*
G04 #@! TO.C,R3*
X117396267Y-54290000D02*
X117053733Y-54290000D01*
X117396267Y-55310000D02*
X117053733Y-55310000D01*
G04 #@! TO.C,R4*
X135146267Y-55410000D02*
X134803733Y-55410000D01*
X135146267Y-54390000D02*
X134803733Y-54390000D01*
G04 #@! TO.C,R5*
X153096267Y-54790000D02*
X152753733Y-54790000D01*
X153096267Y-55810000D02*
X152753733Y-55810000D01*
G04 #@! TO.C,R6*
X171396267Y-55410000D02*
X171053733Y-55410000D01*
X171396267Y-54390000D02*
X171053733Y-54390000D01*
G04 #@! TO.C,R7*
X190071267Y-54490000D02*
X189728733Y-54490000D01*
X190071267Y-55510000D02*
X189728733Y-55510000D01*
G04 #@! TO.C,R8*
X207960000Y-54403733D02*
X207960000Y-54746267D01*
X206940000Y-54403733D02*
X206940000Y-54746267D01*
D11*
G04 #@! TO.C,ON/OFF*
X76670000Y-65800000D02*
X66420000Y-65800000D01*
X65670000Y-65300000D02*
X65670000Y-64050000D01*
X66920000Y-53800000D02*
X76670000Y-53800000D01*
X65670000Y-60800000D02*
X65670000Y-58800000D01*
X65670000Y-55800000D02*
X65670000Y-54550000D01*
X77420000Y-65300000D02*
X77420000Y-64050000D01*
X77420000Y-60800000D02*
X77420000Y-58800000D01*
X77420000Y-55800000D02*
X77420000Y-54550000D01*
G04 #@! TO.C,SET*
X95698571Y-55800000D02*
X95698571Y-54550000D01*
X95698571Y-60800000D02*
X95698571Y-58800000D01*
X95698571Y-65300000D02*
X95698571Y-64050000D01*
X83948571Y-55800000D02*
X83948571Y-54550000D01*
X83948571Y-60800000D02*
X83948571Y-58800000D01*
X85198571Y-53800000D02*
X94948571Y-53800000D01*
X83948571Y-65300000D02*
X83948571Y-64050000D01*
X94948571Y-65800000D02*
X84698571Y-65800000D01*
G04 #@! TO.C,PGUP*
X113227142Y-65800000D02*
X102977142Y-65800000D01*
X102227142Y-65300000D02*
X102227142Y-64050000D01*
X103477142Y-53800000D02*
X113227142Y-53800000D01*
X102227142Y-60800000D02*
X102227142Y-58800000D01*
X102227142Y-55800000D02*
X102227142Y-54550000D01*
X113977142Y-65300000D02*
X113977142Y-64050000D01*
X113977142Y-60800000D02*
X113977142Y-58800000D01*
X113977142Y-55800000D02*
X113977142Y-54550000D01*
G04 #@! TO.C,PGDN*
X132255713Y-55800000D02*
X132255713Y-54550000D01*
X132255713Y-60800000D02*
X132255713Y-58800000D01*
X132255713Y-65300000D02*
X132255713Y-64050000D01*
X120505713Y-55800000D02*
X120505713Y-54550000D01*
X120505713Y-60800000D02*
X120505713Y-58800000D01*
X121755713Y-53800000D02*
X131505713Y-53800000D01*
X120505713Y-65300000D02*
X120505713Y-64050000D01*
X131505713Y-65800000D02*
X121255713Y-65800000D01*
G04 #@! TO.C,DISP1*
X149784284Y-65800000D02*
X139534284Y-65800000D01*
X138784284Y-65300000D02*
X138784284Y-64050000D01*
X140034284Y-53800000D02*
X149784284Y-53800000D01*
X138784284Y-60800000D02*
X138784284Y-58800000D01*
X138784284Y-55800000D02*
X138784284Y-54550000D01*
X150534284Y-65300000D02*
X150534284Y-64050000D01*
X150534284Y-60800000D02*
X150534284Y-58800000D01*
X150534284Y-55800000D02*
X150534284Y-54550000D01*
G04 #@! TO.C,DISP2*
X168812855Y-55800000D02*
X168812855Y-54550000D01*
X168812855Y-60800000D02*
X168812855Y-58800000D01*
X168812855Y-65300000D02*
X168812855Y-64050000D01*
X157062855Y-55800000D02*
X157062855Y-54550000D01*
X157062855Y-60800000D02*
X157062855Y-58800000D01*
X158312855Y-53800000D02*
X168062855Y-53800000D01*
X157062855Y-65300000D02*
X157062855Y-64050000D01*
X168062855Y-65800000D02*
X157812855Y-65800000D01*
G04 #@! TO.C,VOL-*
X186341426Y-65800000D02*
X176091426Y-65800000D01*
X175341426Y-65300000D02*
X175341426Y-64050000D01*
X176591426Y-53800000D02*
X186341426Y-53800000D01*
X175341426Y-60800000D02*
X175341426Y-58800000D01*
X175341426Y-55800000D02*
X175341426Y-54550000D01*
X187091426Y-65300000D02*
X187091426Y-64050000D01*
X187091426Y-60800000D02*
X187091426Y-58800000D01*
X187091426Y-55800000D02*
X187091426Y-54550000D01*
G04 #@! TO.C,VOL+*
X205370000Y-55800000D02*
X205370000Y-54550000D01*
X205370000Y-60800000D02*
X205370000Y-58800000D01*
X205370000Y-65300000D02*
X205370000Y-64050000D01*
X193620000Y-55800000D02*
X193620000Y-54550000D01*
X193620000Y-60800000D02*
X193620000Y-58800000D01*
X194870000Y-53800000D02*
X204620000Y-53800000D01*
X193620000Y-65300000D02*
X193620000Y-64050000D01*
X204620000Y-65800000D02*
X194370000Y-65800000D01*
G04 #@! TO.C,J1*
X212216666Y-53702380D02*
X212216666Y-54416666D01*
X212169047Y-54559523D01*
X212073809Y-54654761D01*
X211930952Y-54702380D01*
X211835714Y-54702380D01*
X213216666Y-54702380D02*
X212645238Y-54702380D01*
X212930952Y-54702380D02*
X212930952Y-53702380D01*
X212835714Y-53845238D01*
X212740476Y-53940476D01*
X212645238Y-53988095D01*
G04 #@! TO.C,R1*
X79808333Y-56482380D02*
X79475000Y-56006190D01*
X79236904Y-56482380D02*
X79236904Y-55482380D01*
X79617857Y-55482380D01*
X79713095Y-55530000D01*
X79760714Y-55577619D01*
X79808333Y-55672857D01*
X79808333Y-55815714D01*
X79760714Y-55910952D01*
X79713095Y-55958571D01*
X79617857Y-56006190D01*
X79236904Y-56006190D01*
X80760714Y-56482380D02*
X80189285Y-56482380D01*
X80475000Y-56482380D02*
X80475000Y-55482380D01*
X80379761Y-55625238D01*
X80284523Y-55720476D01*
X80189285Y-55768095D01*
G04 #@! TO.C,R2*
X97958333Y-56482380D02*
X97625000Y-56006190D01*
X97386904Y-56482380D02*
X97386904Y-55482380D01*
X97767857Y-55482380D01*
X97863095Y-55530000D01*
X97910714Y-55577619D01*
X97958333Y-55672857D01*
X97958333Y-55815714D01*
X97910714Y-55910952D01*
X97863095Y-55958571D01*
X97767857Y-56006190D01*
X97386904Y-56006190D01*
X98339285Y-55577619D02*
X98386904Y-55530000D01*
X98482142Y-55482380D01*
X98720238Y-55482380D01*
X98815476Y-55530000D01*
X98863095Y-55577619D01*
X98910714Y-55672857D01*
X98910714Y-55768095D01*
X98863095Y-55910952D01*
X98291666Y-56482380D01*
X98910714Y-56482380D01*
G04 #@! TO.C,R3*
X117058333Y-56682380D02*
X116725000Y-56206190D01*
X116486904Y-56682380D02*
X116486904Y-55682380D01*
X116867857Y-55682380D01*
X116963095Y-55730000D01*
X117010714Y-55777619D01*
X117058333Y-55872857D01*
X117058333Y-56015714D01*
X117010714Y-56110952D01*
X116963095Y-56158571D01*
X116867857Y-56206190D01*
X116486904Y-56206190D01*
X117391666Y-55682380D02*
X118010714Y-55682380D01*
X117677380Y-56063333D01*
X117820238Y-56063333D01*
X117915476Y-56110952D01*
X117963095Y-56158571D01*
X118010714Y-56253809D01*
X118010714Y-56491904D01*
X117963095Y-56587142D01*
X117915476Y-56634761D01*
X117820238Y-56682380D01*
X117534523Y-56682380D01*
X117439285Y-56634761D01*
X117391666Y-56587142D01*
G04 #@! TO.C,R4*
X134808333Y-56782380D02*
X134475000Y-56306190D01*
X134236904Y-56782380D02*
X134236904Y-55782380D01*
X134617857Y-55782380D01*
X134713095Y-55830000D01*
X134760714Y-55877619D01*
X134808333Y-55972857D01*
X134808333Y-56115714D01*
X134760714Y-56210952D01*
X134713095Y-56258571D01*
X134617857Y-56306190D01*
X134236904Y-56306190D01*
X135665476Y-56115714D02*
X135665476Y-56782380D01*
X135427380Y-55734761D02*
X135189285Y-56449047D01*
X135808333Y-56449047D01*
G04 #@! TO.C,R5*
X152758333Y-57182380D02*
X152425000Y-56706190D01*
X152186904Y-57182380D02*
X152186904Y-56182380D01*
X152567857Y-56182380D01*
X152663095Y-56230000D01*
X152710714Y-56277619D01*
X152758333Y-56372857D01*
X152758333Y-56515714D01*
X152710714Y-56610952D01*
X152663095Y-56658571D01*
X152567857Y-56706190D01*
X152186904Y-56706190D01*
X153663095Y-56182380D02*
X153186904Y-56182380D01*
X153139285Y-56658571D01*
X153186904Y-56610952D01*
X153282142Y-56563333D01*
X153520238Y-56563333D01*
X153615476Y-56610952D01*
X153663095Y-56658571D01*
X153710714Y-56753809D01*
X153710714Y-56991904D01*
X153663095Y-57087142D01*
X153615476Y-57134761D01*
X153520238Y-57182380D01*
X153282142Y-57182380D01*
X153186904Y-57134761D01*
X153139285Y-57087142D01*
G04 #@! TO.C,R6*
X171058333Y-56782380D02*
X170725000Y-56306190D01*
X170486904Y-56782380D02*
X170486904Y-55782380D01*
X170867857Y-55782380D01*
X170963095Y-55830000D01*
X171010714Y-55877619D01*
X171058333Y-55972857D01*
X171058333Y-56115714D01*
X171010714Y-56210952D01*
X170963095Y-56258571D01*
X170867857Y-56306190D01*
X170486904Y-56306190D01*
X171915476Y-55782380D02*
X171725000Y-55782380D01*
X171629761Y-55830000D01*
X171582142Y-55877619D01*
X171486904Y-56020476D01*
X171439285Y-56210952D01*
X171439285Y-56591904D01*
X171486904Y-56687142D01*
X171534523Y-56734761D01*
X171629761Y-56782380D01*
X171820238Y-56782380D01*
X171915476Y-56734761D01*
X171963095Y-56687142D01*
X172010714Y-56591904D01*
X172010714Y-56353809D01*
X171963095Y-56258571D01*
X171915476Y-56210952D01*
X171820238Y-56163333D01*
X171629761Y-56163333D01*
X171534523Y-56210952D01*
X171486904Y-56258571D01*
X171439285Y-56353809D01*
G04 #@! TO.C,R7*
X189733333Y-56882380D02*
X189400000Y-56406190D01*
X189161904Y-56882380D02*
X189161904Y-55882380D01*
X189542857Y-55882380D01*
X189638095Y-55930000D01*
X189685714Y-55977619D01*
X189733333Y-56072857D01*
X189733333Y-56215714D01*
X189685714Y-56310952D01*
X189638095Y-56358571D01*
X189542857Y-56406190D01*
X189161904Y-56406190D01*
X190066666Y-55882380D02*
X190733333Y-55882380D01*
X190304761Y-56882380D01*
G04 #@! TO.C,R8*
X209332380Y-54741666D02*
X208856190Y-55075000D01*
X209332380Y-55313095D02*
X208332380Y-55313095D01*
X208332380Y-54932142D01*
X208380000Y-54836904D01*
X208427619Y-54789285D01*
X208522857Y-54741666D01*
X208665714Y-54741666D01*
X208760952Y-54789285D01*
X208808571Y-54836904D01*
X208856190Y-54932142D01*
X208856190Y-55313095D01*
X208760952Y-54170238D02*
X208713333Y-54265476D01*
X208665714Y-54313095D01*
X208570476Y-54360714D01*
X208522857Y-54360714D01*
X208427619Y-54313095D01*
X208380000Y-54265476D01*
X208332380Y-54170238D01*
X208332380Y-53979761D01*
X208380000Y-53884523D01*
X208427619Y-53836904D01*
X208522857Y-53789285D01*
X208570476Y-53789285D01*
X208665714Y-53836904D01*
X208713333Y-53884523D01*
X208760952Y-53979761D01*
X208760952Y-54170238D01*
X208808571Y-54265476D01*
X208856190Y-54313095D01*
X208951428Y-54360714D01*
X209141904Y-54360714D01*
X209237142Y-54313095D01*
X209284761Y-54265476D01*
X209332380Y-54170238D01*
X209332380Y-53979761D01*
X209284761Y-53884523D01*
X209237142Y-53836904D01*
X209141904Y-53789285D01*
X208951428Y-53789285D01*
X208856190Y-53836904D01*
X208808571Y-53884523D01*
X208760952Y-53979761D01*
G04 #@! TO.C,ON/OFF*
X68646190Y-52002380D02*
X68836666Y-52002380D01*
X68931904Y-52050000D01*
X69027142Y-52145238D01*
X69074761Y-52335714D01*
X69074761Y-52669047D01*
X69027142Y-52859523D01*
X68931904Y-52954761D01*
X68836666Y-53002380D01*
X68646190Y-53002380D01*
X68550952Y-52954761D01*
X68455714Y-52859523D01*
X68408095Y-52669047D01*
X68408095Y-52335714D01*
X68455714Y-52145238D01*
X68550952Y-52050000D01*
X68646190Y-52002380D01*
X69503333Y-53002380D02*
X69503333Y-52002380D01*
X70074761Y-53002380D01*
X70074761Y-52002380D01*
X71265238Y-51954761D02*
X70408095Y-53240476D01*
X71789047Y-52002380D02*
X71979523Y-52002380D01*
X72074761Y-52050000D01*
X72170000Y-52145238D01*
X72217619Y-52335714D01*
X72217619Y-52669047D01*
X72170000Y-52859523D01*
X72074761Y-52954761D01*
X71979523Y-53002380D01*
X71789047Y-53002380D01*
X71693809Y-52954761D01*
X71598571Y-52859523D01*
X71550952Y-52669047D01*
X71550952Y-52335714D01*
X71598571Y-52145238D01*
X71693809Y-52050000D01*
X71789047Y-52002380D01*
X72979523Y-52478571D02*
X72646190Y-52478571D01*
X72646190Y-53002380D02*
X72646190Y-52002380D01*
X73122380Y-52002380D01*
X73836666Y-52478571D02*
X73503333Y-52478571D01*
X73503333Y-53002380D02*
X73503333Y-52002380D01*
X73979523Y-52002380D01*
G04 #@! TO.C,SET*
X88329523Y-52954761D02*
X88472380Y-53002380D01*
X88710475Y-53002380D01*
X88805713Y-52954761D01*
X88853332Y-52907142D01*
X88900951Y-52811904D01*
X88900951Y-52716666D01*
X88853332Y-52621428D01*
X88805713Y-52573809D01*
X88710475Y-52526190D01*
X88519999Y-52478571D01*
X88424761Y-52430952D01*
X88377142Y-52383333D01*
X88329523Y-52288095D01*
X88329523Y-52192857D01*
X88377142Y-52097619D01*
X88424761Y-52050000D01*
X88519999Y-52002380D01*
X88758094Y-52002380D01*
X88900951Y-52050000D01*
X89329523Y-52478571D02*
X89662856Y-52478571D01*
X89805713Y-53002380D02*
X89329523Y-53002380D01*
X89329523Y-52002380D01*
X89805713Y-52002380D01*
X90091428Y-52002380D02*
X90662856Y-52002380D01*
X90377142Y-53002380D02*
X90377142Y-52002380D01*
G04 #@! TO.C,PGUP*
X105941427Y-53002380D02*
X105941427Y-52002380D01*
X106322380Y-52002380D01*
X106417618Y-52050000D01*
X106465237Y-52097619D01*
X106512856Y-52192857D01*
X106512856Y-52335714D01*
X106465237Y-52430952D01*
X106417618Y-52478571D01*
X106322380Y-52526190D01*
X105941427Y-52526190D01*
X107465237Y-52050000D02*
X107369999Y-52002380D01*
X107227142Y-52002380D01*
X107084284Y-52050000D01*
X106989046Y-52145238D01*
X106941427Y-52240476D01*
X106893808Y-52430952D01*
X106893808Y-52573809D01*
X106941427Y-52764285D01*
X106989046Y-52859523D01*
X107084284Y-52954761D01*
X107227142Y-53002380D01*
X107322380Y-53002380D01*
X107465237Y-52954761D01*
X107512856Y-52907142D01*
X107512856Y-52573809D01*
X107322380Y-52573809D01*
X107941427Y-52002380D02*
X107941427Y-52811904D01*
X107989046Y-52907142D01*
X108036665Y-52954761D01*
X108131903Y-53002380D01*
X108322380Y-53002380D01*
X108417618Y-52954761D01*
X108465237Y-52907142D01*
X108512856Y-52811904D01*
X108512856Y-52002380D01*
X108989046Y-53002380D02*
X108989046Y-52002380D01*
X109369999Y-52002380D01*
X109465237Y-52050000D01*
X109512856Y-52097619D01*
X109560475Y-52192857D01*
X109560475Y-52335714D01*
X109512856Y-52430952D01*
X109465237Y-52478571D01*
X109369999Y-52526190D01*
X108989046Y-52526190D01*
G04 #@! TO.C,PGDN*
X124219998Y-53002380D02*
X124219998Y-52002380D01*
X124600951Y-52002380D01*
X124696189Y-52050000D01*
X124743808Y-52097619D01*
X124791427Y-52192857D01*
X124791427Y-52335714D01*
X124743808Y-52430952D01*
X124696189Y-52478571D01*
X124600951Y-52526190D01*
X124219998Y-52526190D01*
X125743808Y-52050000D02*
X125648570Y-52002380D01*
X125505713Y-52002380D01*
X125362855Y-52050000D01*
X125267617Y-52145238D01*
X125219998Y-52240476D01*
X125172379Y-52430952D01*
X125172379Y-52573809D01*
X125219998Y-52764285D01*
X125267617Y-52859523D01*
X125362855Y-52954761D01*
X125505713Y-53002380D01*
X125600951Y-53002380D01*
X125743808Y-52954761D01*
X125791427Y-52907142D01*
X125791427Y-52573809D01*
X125600951Y-52573809D01*
X126219998Y-53002380D02*
X126219998Y-52002380D01*
X126458093Y-52002380D01*
X126600951Y-52050000D01*
X126696189Y-52145238D01*
X126743808Y-52240476D01*
X126791427Y-52430952D01*
X126791427Y-52573809D01*
X126743808Y-52764285D01*
X126696189Y-52859523D01*
X126600951Y-52954761D01*
X126458093Y-53002380D01*
X126219998Y-53002380D01*
X127219998Y-53002380D02*
X127219998Y-52002380D01*
X127791427Y-53002380D01*
X127791427Y-52002380D01*
G04 #@! TO.C,DISP1*
X142331903Y-53002380D02*
X142331903Y-52002380D01*
X142569998Y-52002380D01*
X142712855Y-52050000D01*
X142808093Y-52145238D01*
X142855712Y-52240476D01*
X142903331Y-52430952D01*
X142903331Y-52573809D01*
X142855712Y-52764285D01*
X142808093Y-52859523D01*
X142712855Y-52954761D01*
X142569998Y-53002380D01*
X142331903Y-53002380D01*
X143331903Y-53002380D02*
X143331903Y-52002380D01*
X143760474Y-52954761D02*
X143903331Y-53002380D01*
X144141426Y-53002380D01*
X144236664Y-52954761D01*
X144284284Y-52907142D01*
X144331903Y-52811904D01*
X144331903Y-52716666D01*
X144284284Y-52621428D01*
X144236664Y-52573809D01*
X144141426Y-52526190D01*
X143950950Y-52478571D01*
X143855712Y-52430952D01*
X143808093Y-52383333D01*
X143760474Y-52288095D01*
X143760474Y-52192857D01*
X143808093Y-52097619D01*
X143855712Y-52050000D01*
X143950950Y-52002380D01*
X144189045Y-52002380D01*
X144331903Y-52050000D01*
X144760474Y-53002380D02*
X144760474Y-52002380D01*
X145141426Y-52002380D01*
X145236664Y-52050000D01*
X145284284Y-52097619D01*
X145331903Y-52192857D01*
X145331903Y-52335714D01*
X145284284Y-52430952D01*
X145236664Y-52478571D01*
X145141426Y-52526190D01*
X144760474Y-52526190D01*
X146284284Y-53002380D02*
X145712855Y-53002380D01*
X145998569Y-53002380D02*
X145998569Y-52002380D01*
X145903331Y-52145238D01*
X145808093Y-52240476D01*
X145712855Y-52288095D01*
G04 #@! TO.C,DISP2*
X160610474Y-53002380D02*
X160610474Y-52002380D01*
X160848569Y-52002380D01*
X160991426Y-52050000D01*
X161086664Y-52145238D01*
X161134283Y-52240476D01*
X161181902Y-52430952D01*
X161181902Y-52573809D01*
X161134283Y-52764285D01*
X161086664Y-52859523D01*
X160991426Y-52954761D01*
X160848569Y-53002380D01*
X160610474Y-53002380D01*
X161610474Y-53002380D02*
X161610474Y-52002380D01*
X162039045Y-52954761D02*
X162181902Y-53002380D01*
X162419997Y-53002380D01*
X162515235Y-52954761D01*
X162562855Y-52907142D01*
X162610474Y-52811904D01*
X162610474Y-52716666D01*
X162562855Y-52621428D01*
X162515235Y-52573809D01*
X162419997Y-52526190D01*
X162229521Y-52478571D01*
X162134283Y-52430952D01*
X162086664Y-52383333D01*
X162039045Y-52288095D01*
X162039045Y-52192857D01*
X162086664Y-52097619D01*
X162134283Y-52050000D01*
X162229521Y-52002380D01*
X162467616Y-52002380D01*
X162610474Y-52050000D01*
X163039045Y-53002380D02*
X163039045Y-52002380D01*
X163419997Y-52002380D01*
X163515235Y-52050000D01*
X163562855Y-52097619D01*
X163610474Y-52192857D01*
X163610474Y-52335714D01*
X163562855Y-52430952D01*
X163515235Y-52478571D01*
X163419997Y-52526190D01*
X163039045Y-52526190D01*
X163991426Y-52097619D02*
X164039045Y-52050000D01*
X164134283Y-52002380D01*
X164372378Y-52002380D01*
X164467616Y-52050000D01*
X164515235Y-52097619D01*
X164562855Y-52192857D01*
X164562855Y-52288095D01*
X164515235Y-52430952D01*
X163943807Y-53002380D01*
X164562855Y-53002380D01*
G04 #@! TO.C,VOL-*
X178960473Y-52002380D02*
X179293806Y-53002380D01*
X179627140Y-52002380D01*
X180150949Y-52002380D02*
X180341426Y-52002380D01*
X180436664Y-52050000D01*
X180531902Y-52145238D01*
X180579521Y-52335714D01*
X180579521Y-52669047D01*
X180531902Y-52859523D01*
X180436664Y-52954761D01*
X180341426Y-53002380D01*
X180150949Y-53002380D01*
X180055711Y-52954761D01*
X179960473Y-52859523D01*
X179912854Y-52669047D01*
X179912854Y-52335714D01*
X179960473Y-52145238D01*
X180055711Y-52050000D01*
X180150949Y-52002380D01*
X181484283Y-53002380D02*
X181008092Y-53002380D01*
X181008092Y-52002380D01*
X181817616Y-52621428D02*
X182579521Y-52621428D01*
G04 #@! TO.C,VOL+*
X197239047Y-52002380D02*
X197572380Y-53002380D01*
X197905714Y-52002380D01*
X198429523Y-52002380D02*
X198620000Y-52002380D01*
X198715238Y-52050000D01*
X198810476Y-52145238D01*
X198858095Y-52335714D01*
X198858095Y-52669047D01*
X198810476Y-52859523D01*
X198715238Y-52954761D01*
X198620000Y-53002380D01*
X198429523Y-53002380D01*
X198334285Y-52954761D01*
X198239047Y-52859523D01*
X198191428Y-52669047D01*
X198191428Y-52335714D01*
X198239047Y-52145238D01*
X198334285Y-52050000D01*
X198429523Y-52002380D01*
X199762857Y-53002380D02*
X199286666Y-53002380D01*
X199286666Y-52002380D01*
X200096190Y-52621428D02*
X200858095Y-52621428D01*
X200477142Y-53002380D02*
X200477142Y-52240476D01*
G04 #@! TD*
M02*
